<svg width="266" height="267" viewBox="0 0 266 267" fill="none" xmlns="http://www.w3.org/2000/svg">
<path d="M83.6487 183.77C82.1238 189.458 77.9408 236.547 77.4298 242.472C77.3874 243.079 76.8526 243.694 75.9829 243.691C75.7579 243.691 27.9987 243.62 27.9457 243.618C27.7352 239.205 26.9344 225.436 25.0811 224.036C23.2809 222.676 12.5202 228.284 8.58998 230.411C13.7129 182.261 15.7858 150.307 16.1234 149.087C16.2716 148.593 16.7204 148.219 17.2036 148.145C17.279 148.127 24.8018 148.027 38.3874 148.347C38.6415 147.413 38.9116 146.464 39.1962 145.499C34.3712 145.485 27.8663 145.493 17.4537 145.429C16.4097 145.429 15.4056 145.833 14.6483 146.557C13.8909 147.281 13.4382 148.27 13.3832 149.32C13.2257 152.185 5.84057 231.211 5.84057 231.211C5.736 232.506 6.29594 233.845 7.31257 234.64C7.88178 235.084 26.1653 245.814 26.3056 245.883C27.5274 246.49 26.3586 245.67 75.9909 246.306C76.9909 246.322 77.96 245.957 78.7058 245.286C79.4516 244.615 79.9195 243.686 80.0164 242.683C80.0164 242.683 84.1081 187.727 84.1372 186.161C84.1822 183.726 84.0392 182.315 83.6487 183.77Z" fill="#283E70"/>
<path d="M205.774 59.6729C205.866 59.3395 205.971 59.0061 206.096 58.6753L206.199 58.3979C206.193 57.4897 206.047 56.0774 205.699 54.073C204.67 48.1451 205.275 46.8635 205.225 47.1342C206.306 48.3745 207.312 50.747 208.162 53.1581L209.123 50.5909C207.772 47.2342 205.907 44.0162 204.084 45.5899C203.795 45.998 203.599 46.2033 203.439 47.0395C202.961 49.5334 204.129 55.5026 204.534 56.951C204.972 58.5113 205.445 59.5035 205.774 59.6715V59.6729Z" fill="#283E70"/>
<path d="M209.341 47.9422C209.871 47.2407 208.714 42.8744 208.504 40.5339C208.368 39.0243 208.602 38.6589 208.598 38.5255C209.637 39.6697 210.574 41.9689 211.133 43.4065C211.252 43.7119 211.366 44.0173 211.474 44.3187L212.421 41.7902C211.171 38.7562 209.505 35.8889 207.919 36.7011C204.962 38.0174 208.332 49.2758 209.341 47.9422Z" fill="#283E70"/>
<path d="M213.087 37.3394C213.626 36.6246 212.466 32.325 212.25 29.9312C212.114 28.4215 212.347 28.0588 212.344 27.9227C213.381 29.0643 214.319 31.3635 214.879 32.8038C215.038 33.2119 215.187 33.6173 215.328 34.0174L215.686 33.0638C215.871 32.5688 216.091 32.0876 216.343 31.6235C215.077 28.4335 213.327 25.2448 211.665 26.0984C208.705 27.4093 212.082 38.6704 213.087 37.3407V37.3394Z" fill="#283E70"/>
<path d="M204.425 153.975C220.86 141.754 230.022 114.149 233.469 93.7449C233.56 93.2035 233.656 92.634 233.497 92.2113C233.364 91.7605 233.033 91.3417 232.627 91.091C231.97 90.6856 231.486 90.8056 229.315 90.891C220.729 91.2351 212.42 89.2906 205.406 84.2936C205.01 84.0122 204.913 83.8802 204.102 83.304C202.93 82.0584 201.133 82.7973 200.804 84.2282C199.969 87.8557 198.911 91.2631 197.688 94.2864C194.292 102.688 190.987 107.248 190.037 108.843C187.284 113.465 198.3 104.853 203.09 85.8046C204.558 87.0115 206.192 88.1144 208.629 89.344C215.694 92.9047 223.086 93.8276 230.836 93.5022C230.423 93.5022 227.114 125.029 208.71 146.831C207.73 148.172 206.553 149.307 205.461 150.51C203.497 152.675 204.405 151.752 202.231 153.746C201.699 154.223 201.188 154.725 200.701 155.249C198.554 157.633 201.644 156.043 204.425 153.975Z" fill="#283E70"/>
<path d="M220.316 76.1987C220.893 76.5815 221.77 76.8695 222.365 76.9989C226.734 77.9444 231.7 75.808 234.192 71.8698C234.68 71.0963 235.092 70.2161 235.404 69.4013C235.404 69.4013 244.91 44.328 245.277 42.9917C246.4 38.8895 245.139 34.1258 241.869 31.0398C239.694 28.986 237.731 28.4566 233.818 26.9976C230.472 25.7507 228.338 24.5838 224.731 24.9999C221.49 25.3733 218.477 27.163 216.525 29.7462C215.56 31.0225 214.915 32.6135 214.432 33.9471C213.93 35.3341 205.674 57.2187 205.038 59.2525C203.382 64.5363 205.928 71.3377 212.016 73.6395C213.745 74.293 221.49 76.9802 219.898 75.8093C219.182 75.2825 217.008 74.3397 215.487 73.6782C212.799 72.5099 209.962 71.8138 207.751 68.1303C206.097 65.3751 205.83 61.8864 206.977 58.871C216.055 35.0127 216.348 33.2843 217.392 31.6093C219.956 27.4991 224.679 25.9321 228.699 27.0243C229.507 27.243 229.818 27.3737 235.257 29.4515C237.502 30.3117 240.591 31.1638 242.63 34.9326C243.512 36.5833 243.943 38.4403 243.879 40.3138C243.823 42.0942 243.212 43.5865 242.625 45.1508C234.303 67.3368 233.606 69.656 233.127 70.4282C232.203 72.1749 230.825 73.636 229.14 74.6554C227.456 75.6747 225.528 76.2142 223.563 76.2161C221.603 76.2214 219.379 75.5719 220.316 76.1934V76.1987Z" fill="#283E70"/>
<path d="M226.82 44.2612C222.189 43.0703 217.029 45.4935 215.317 50.0651C214.874 51.2482 214.666 52.5077 214.706 53.7716C214.746 55.0356 215.033 56.2792 215.55 57.4316C216.067 58.5839 216.804 59.6224 217.719 60.4876C218.635 61.3529 219.71 62.028 220.885 62.4744C225.928 64.3921 231.808 61.5609 233.365 56.3571C234.865 51.3494 231.93 45.5735 226.82 44.2612Z" fill="#283E70"/>
<path d="M235.814 47.5893C235.157 47.2492 232.753 48.7002 232.134 49.1176C232.105 49.1376 222.556 55.623 222.536 55.5923C222.089 54.6894 221.832 53.8079 221.162 52.813C220.854 52.3543 220.292 51.5221 219.948 51.9728C219.783 52.1889 219.813 52.573 219.857 52.833C220.151 54.5721 220.695 55.703 221.143 56.7472C221.399 57.342 222.429 57.9034 223.347 57.1926C231.083 51.9902 237.142 48.2761 235.814 47.5893Z" fill="#283E70"/>
<path d="M232.781 30.7053C232.615 30.6419 232.438 30.6122 232.26 30.6179C232.083 30.6235 231.908 30.6643 231.746 30.738C231.584 30.8117 231.438 30.9168 231.316 31.0473C231.194 31.1778 231.099 31.3312 231.037 31.4988C230.974 31.6663 230.944 31.8446 230.95 32.0236C230.955 32.2026 230.996 32.3787 231.069 32.5419C231.142 32.7052 231.247 32.8523 231.376 32.9749C231.506 33.0975 231.658 33.1931 231.824 33.2565C232.16 33.3843 232.533 33.3726 232.86 33.2237C233.187 33.0749 233.442 32.8013 233.569 32.463C233.696 32.1246 233.684 31.7494 233.536 31.4198C233.389 31.0901 233.117 30.8331 232.781 30.7053Z" fill="#283E70"/>
<path d="M242.023 42.3414C241.754 42.7401 241.766 43.6523 241.805 44.2871C242.287 52.1648 244.339 59.169 243.267 67.132C242.459 73.1333 233.758 86.5401 233.412 87.1616C232.659 88.5374 231.943 89.9338 231.266 91.3491C230.654 92.7227 232.402 93.0775 232.635 92.8201C234.371 90.8997 236.627 86.9082 237.99 84.6304C240.454 80.5161 243.444 75.4511 245.01 70.9128C246.179 67.5241 246.372 64.2274 246.18 60.3265C245.945 55.5389 245.096 48.0213 243.181 43.3576C243.076 43.0781 242.941 42.8107 242.78 42.5601C242.531 42.2054 242.222 42.044 242.02 42.3427H242.023V42.3414Z" fill="#283E70"/>
<path d="M48.0884 59.4279C48.0196 59.5105 46.3066 61.5963 46.3066 61.8084C46.3066 62.7419 48.0222 63.7061 48.4855 63.1513C49.8847 61.475 50.2249 61.1576 50.2249 60.8215C50.2249 59.9226 48.6007 58.8171 48.0884 59.4279Z" fill="#283E70"/>
<path d="M61.2563 47.8974C60.9902 47.66 60.7665 47.6134 60.6341 47.6094C60.0967 47.5947 59.6837 47.7481 59.3779 48.0281C59.2164 48.1748 55.179 51.9303 55.0294 52.253C54.8626 52.6104 54.8679 53.0345 54.9513 53.2266C55.1128 53.6 55.6039 54.0214 56.0474 54.0241C56.5994 54.0267 57.0124 53.872 57.3089 53.5973C60.797 50.3819 61.521 49.8805 61.6693 49.1243C61.762 48.6509 61.6931 48.2868 61.2563 47.8974Z" fill="#283E70"/>
<path d="M74.6678 38.0572C74.4401 37.7825 74.2257 37.7025 74.0946 37.6785C73.5651 37.5825 73.1336 37.6731 72.7907 37.9052C72.6094 38.0279 68.061 41.1339 67.8651 41.4299C67.648 41.758 67.5898 42.1808 67.644 42.3835C67.7473 42.7729 68.1669 43.265 68.6104 43.3343C69.1557 43.4197 69.586 43.329 69.9209 43.1036C74.2071 40.2043 74.6559 40.0003 74.8942 39.3335C75.053 38.8827 75.0424 38.5093 74.6678 38.0572Z" fill="#283E70"/>
<path d="M89.3946 30.351C89.2093 30.0442 89.0107 29.9335 88.8863 29.8909C88.378 29.7162 87.9372 29.7402 87.5625 29.9175C87.364 30.0109 82.4079 32.3967 82.1696 32.6608C81.9075 32.9528 81.7857 33.3596 81.8096 33.5703C81.8546 33.9757 82.2001 34.5225 82.6237 34.6559C83.1505 34.8226 83.59 34.7986 83.954 34.6252C88.2932 32.5621 89.0743 32.3127 89.4317 31.6486C89.6567 31.2258 89.7004 30.8551 89.3972 30.3523L89.3959 30.351H89.3946Z" fill="#283E70"/>
<path d="M105.103 24.9636C104.967 24.6315 104.786 24.4915 104.668 24.4301C104.191 24.1807 103.752 24.138 103.356 24.2567C103.146 24.3194 97.8863 25.9251 97.6123 26.1505C97.3052 26.3999 97.1278 26.7839 97.1198 26.9933C97.1039 27.4014 97.3647 27.9949 97.7618 28.1896C98.2582 28.4336 98.6951 28.4776 99.0816 28.3603C103.535 27.02 104.475 26.8733 104.942 26.2478C105.23 25.8611 105.328 25.5037 105.103 24.9622V24.9636Z" fill="#283E70"/>
<path d="M121.442 22.0201C121.356 21.6733 121.199 21.5066 121.091 21.4279C120.657 21.1079 120.23 21.0012 119.819 21.0572C119.602 21.0879 114.162 21.8774 113.856 22.0574C113.518 22.2574 113.283 22.6082 113.243 22.8176C113.166 23.2176 113.334 23.8444 113.7 24.0978C114.154 24.4126 114.58 24.5219 114.98 24.4659C119.617 23.8084 120.537 23.8124 121.091 23.2656C121.43 22.9322 121.585 22.5988 121.442 22.0201Z" fill="#283E70"/>
<path d="M137.777 20.9181C137.395 20.5313 136.987 20.3526 136.574 20.3446C130.585 20.2379 130.46 20.278 129.941 20.9008C129.632 21.2688 129.707 22.113 130.075 22.4531C130.477 22.8252 130.882 22.9865 131.286 22.9812C131.5 22.9332 135.685 23.0212 136.018 23.0345C138.376 23.1359 138.247 21.3942 137.777 20.9194V20.9181Z" fill="#283E70"/>
<path d="M154.523 23.5852C154.543 23.2251 154.439 23.0224 154.36 22.9144C154.038 22.4809 153.66 22.2516 153.252 22.1849C153.036 22.1502 147.604 21.294 147.259 21.3767C146.876 21.4687 146.55 21.7368 146.452 21.9222C146.263 22.2796 146.239 22.929 146.514 23.2811C146.856 23.7185 147.232 23.9479 147.63 24.0133C152.385 24.7801 153.142 25.0268 153.824 24.6747C154.249 24.4547 154.491 24.172 154.523 23.5852Z" fill="#283E70"/>
<path d="M170.517 28.081C170.589 27.7303 170.518 27.5116 170.456 27.3929C170.203 26.9154 169.864 26.63 169.47 26.5033C169.262 26.4367 164.018 24.7656 163.666 24.7963C163.284 24.827 162.914 25.039 162.787 25.2111C162.546 25.5365 162.427 26.1753 162.647 26.5647C162.92 27.0488 163.256 27.3329 163.641 27.4582C168.152 28.9145 168.941 29.2959 169.664 29.0492C170.112 28.8972 170.396 28.6705 170.518 28.0797L170.517 28.081Z" fill="#283E70"/>
<path d="M185.65 34.9537C185.774 34.6176 185.737 34.3909 185.692 34.2655C185.512 33.7548 185.221 33.4214 184.85 33.236C184.654 33.1373 179.722 30.6914 179.369 30.6661C178.982 30.6394 178.588 30.7941 178.437 30.9435C178.15 31.2302 177.936 31.8424 178.095 32.2598C178.292 32.7799 178.584 33.1106 178.944 33.292C183.501 35.5818 183.953 35.9059 184.66 35.7819C185.13 35.7018 185.445 35.5018 185.649 34.9523L185.65 34.9537Z" fill="#283E70"/>
<path d="M196.251 40.1566C196.162 40.0966 193.921 38.6016 193.713 38.6243C192.794 38.7243 192.021 40.542 192.618 40.9488C194.605 42.3011 194.836 42.5865 195.325 42.3824C196.223 42.009 196.792 40.5247 196.251 40.1566Z" fill="#283E70"/>
<path d="M64.7645 71.2239C66.4933 69.4929 65.0332 66.7857 62.8808 67.0631C56.9545 68.2233 44.9322 71.8014 38.6101 75.5449C38.1981 75.7887 37.7373 75.9366 37.2613 75.9779C36.7852 76.0192 36.3061 75.9528 35.8588 75.7836C35.4115 75.6143 35.0075 75.3465 34.6762 74.9997C34.3448 74.6529 34.0946 74.2359 33.9439 73.7791C32.8187 70.3784 27.1107 55.0632 26.9042 54.5124C26.0478 52.3466 23.0151 52.5026 22.3757 54.7471C16.4467 75.5729 11.3463 105.07 17.9067 125.817C18.1463 126.612 19.7825 130.757 20.0208 131.178C20.9302 132.781 23.2772 132.922 24.4712 131.591C25.145 130.839 47.2726 88.873 62.3606 73.6871L64.7672 71.2253H64.7645V71.2239ZM21.4186 127.585C21.0718 126.66 20.6403 125.768 20.3795 124.806C19.0425 119.522 19.5972 123.846 18.3145 115.652C15.3294 96.5813 19.5958 74.4833 24.6287 56.014C24.638 55.97 24.6472 55.93 24.683 55.9074C24.7558 55.862 24.8365 55.918 24.8484 55.9807C25.2747 57.0343 32.3805 73.9979 33.9306 76.9625C34.1295 77.3436 34.221 77.7723 34.1951 78.2021C34.1692 78.6319 34.0269 79.0463 33.7837 79.4003C32.6929 80.9873 31.0118 83.7506 29.8151 86.8152C29.5146 87.4474 26.9611 94.1848 25.2403 101.256C23.4969 107.985 21.2611 120.598 21.4186 127.588V127.585ZM23.6385 127.713C23.7828 126.344 23.8953 124.697 24.0185 123.848C24.2316 122.581 24.4606 121.307 24.5678 120.021C25.235 112.046 28.0519 99.0565 31.4976 89.7185C33.1496 85.2082 33.2317 85.619 34.566 81.7968C35.1352 80.1672 35.4648 78.4895 37.5484 77.5186C43.0618 74.9461 47.7055 73.4857 54.0661 71.8041C55.0086 71.5573 62.1409 69.7663 62.4374 69.797C62.9801 69.9623 49.6064 79.7684 23.6385 127.713Z" fill="#283E70"/>
<path d="M237.963 171.078C237.999 170.976 238.86 168.41 238.785 168.213C238.454 167.344 236.512 167.052 236.274 167.74C235.583 169.742 235.355 170.233 235.473 170.542C235.792 171.384 237.702 171.831 237.962 171.077L237.963 171.078Z" fill="#283E70"/>
<path d="M231.565 185.54C231.662 185.346 234.059 180.476 234.082 180.125C234.107 179.738 233.952 179.348 233.802 179.197C233.045 178.43 231.87 178.894 231.48 179.676C229.372 183.917 228.911 184.581 229.045 185.325C229.284 186.661 230.975 186.725 231.565 185.54Z" fill="#283E70"/>
<path d="M222.799 199.577C222.923 199.4 226.004 194.938 226.078 194.595C226.307 193.53 225.296 192.968 224.7 193.095C224.166 193.207 223.8 193.44 223.573 193.767C220.846 197.68 220.315 198.248 220.339 198.992C220.378 200.239 221.97 200.766 222.799 199.577Z" fill="#283E70"/>
<path d="M212.088 212.166C212.236 212.01 215.931 208.051 216.053 207.721C216.188 207.358 216.151 206.938 216.053 206.752C215.548 205.797 214.292 205.895 213.694 206.53C210.533 209.888 209.824 210.464 209.737 211.223C209.584 212.554 211.149 213.158 212.088 212.165V212.166Z" fill="#283E70"/>
<path d="M197.811 223.016C198.058 223.274 198.275 223.339 198.406 223.354C198.936 223.415 199.353 223.296 199.673 223.044C199.843 222.911 204.071 219.538 204.24 219.232C204.428 218.891 204.451 218.471 204.38 218.273C204.245 217.89 203.79 217.431 203.352 217.392C202.808 217.344 202.391 217.461 202.08 217.706C198.478 220.556 197.685 221.017 197.486 221.765C197.363 222.226 197.407 222.592 197.813 223.015L197.811 223.016Z" fill="#283E70"/>
<path d="M183.968 231.669C184.175 231.961 184.381 232.057 184.508 232.09C185.023 232.228 185.454 232.174 185.806 231.972C185.992 231.865 190.666 229.154 190.878 228.875C191.114 228.564 191.197 228.154 191.156 227.947C191.078 227.549 190.694 227.028 190.267 226.924C189.735 226.796 189.306 226.849 188.963 227.047C184.85 229.411 184.123 229.699 183.828 230.383C183.64 230.822 183.628 231.188 183.97 231.668L183.968 231.669Z" fill="#283E70"/>
<path d="M169.014 238.173C169.176 238.492 169.365 238.618 169.487 238.672C169.975 238.885 170.409 238.893 170.788 238.746C170.988 238.669 176.009 236.681 176.259 236.437C176.536 236.167 176.68 235.771 176.671 235.56C176.652 235.155 176.349 234.583 175.94 234.417C175.433 234.212 175 234.2 174.632 234.345C170.217 236.075 169.465 236.235 169.064 236.882C168.814 237.285 168.749 237.651 169.014 238.173Z" fill="#283E70"/>
<path d="M153.657 242.942C154.108 243.226 154.537 243.299 154.933 243.21C160.86 241.865 160.719 241.769 160.939 241.501C161.048 241.368 161.199 241.137 161.219 240.936C161.26 240.529 161.042 239.92 160.665 239.696C160.193 239.416 159.767 239.342 159.381 239.429C156.467 240.09 154.289 240.489 153.76 240.868C153.453 241.088 153.228 241.463 153.192 241.68C153.126 242.088 153.291 242.711 153.657 242.94V242.942Z" fill="#283E70"/>
<path d="M137.068 244.2C137.13 244.553 137.275 244.728 137.375 244.814C137.78 245.162 138.193 245.297 138.598 245.268C138.812 245.252 144.192 244.828 144.502 244.668C144.849 244.489 145.097 244.154 145.149 243.95C145.248 243.557 145.124 242.922 144.781 242.642C144.356 242.295 143.944 242.159 143.55 242.188C138.822 242.545 138.058 242.478 137.486 242.979C137.128 243.293 136.964 243.621 137.068 244.2Z" fill="#283E70"/>
<path d="M120.777 243.629C120.791 243.987 120.908 244.182 120.994 244.282C121.345 244.685 121.734 244.881 122.139 244.91C122.354 244.926 127.739 245.292 128.069 245.178C128.434 245.053 128.73 244.757 128.812 244.564C128.966 244.191 128.938 243.543 128.638 243.215C128.267 242.81 127.881 242.615 127.485 242.587C122.428 242.227 121.959 242.1 121.369 242.483C120.972 242.741 120.76 243.042 120.779 243.629H120.777Z" fill="#283E70"/>
<path d="M104.866 241.341C105.154 241.792 105.51 242.043 105.906 242.132C106.117 242.179 111.389 243.338 111.732 243.275C112.112 243.206 112.451 242.956 112.558 242.776C112.766 242.428 112.828 241.784 112.58 241.416C112.273 240.96 111.919 240.71 111.532 240.624C106.646 239.525 106.147 239.322 105.501 239.615C104.683 239.986 104.609 240.938 104.866 241.341Z" fill="#283E70"/>
<path d="M93.3452 238.231C93.4458 238.268 95.9781 239.174 96.1753 239.102C97.0397 238.783 97.3614 236.83 96.681 236.58C94.6385 235.829 94.2268 235.617 93.9131 235.733C93.0712 236.042 92.6025 237.959 93.3452 238.232V238.231Z" fill="#283E70"/>
<path d="M248.894 107.555C248.618 107.055 246.093 103.208 245.698 102.767C244.381 101.292 241.666 101.764 241.004 103.902C234.724 124.193 226.19 152.808 214.769 170.679C214.427 171.214 214.226 171.58 214.185 172.223C214.133 173.707 215.44 174.861 216.762 174.709C217.253 174.692 217.672 174.46 218.579 174.022C223.298 171.744 228.256 169.064 232.667 166.15C237.639 162.854 239.805 160.753 242.16 157.984C243.243 160.863 251.66 173.761 255.135 179.155C256.43 181.089 259.359 180.286 259.51 177.956C260.924 156.188 259.664 126.395 248.895 107.552L248.894 107.553V107.555ZM234.748 161.824C225.025 168.221 225.702 167.774 217.215 171.822C217.193 171.827 217.174 171.827 217.165 171.81C217.157 171.794 217.177 171.772 217.177 171.772C217.117 171.908 228.352 156.71 242.994 106.58C243.671 116.511 244.627 123.247 244.245 133.24C243.964 143.221 242.557 149.629 242.157 152.208C241.74 154.897 241.6 155.697 241.497 156.248C239.687 157.823 236.405 160.765 234.748 161.824ZM257.008 177.318C256.947 177.379 256.856 177.342 256.831 177.283C253.034 171.703 249.647 166.587 243.397 156.4C245.763 150.341 246.735 139.582 246.904 133.125C247.202 125.849 246.615 118.496 246.547 117.413C246.639 116.125 245.563 109.595 245.004 106.45C245.556 107.323 246.209 108.146 246.688 109.071C248.058 111.834 249.082 112.968 251.626 120.541C253.308 125.228 255.845 135.867 256.86 149.661C257.827 163.073 257.144 177.195 257.008 177.318Z" fill="#283E70"/>
<path d="M64.3284 103.839C62.4752 104.386 54.2349 110.112 47.693 121.791C42.1889 131.619 38.7365 141.152 36.0189 152.325C34.8752 157.025 33.9525 162.116 33.5237 165.359C33.1212 168.4 32.9346 168.915 33.6123 169.711C34.8739 171.193 36.4094 169.862 42.0856 170.188C42.7819 170.228 43.4808 170.209 44.1679 170.294C57.6396 171.241 62.871 177.81 64.2689 177.618C64.7176 177.625 65.1915 177.446 65.5251 177.158C66.4716 176.337 66.0466 175.571 67.6034 170.08C69.0462 164.99 71.9744 158.001 75.0719 152.884C75.7801 151.713 77.3209 149.376 76.2474 149.865C75.4201 150.242 73.8845 151.982 72.9327 153.289C68.338 159.601 65.5198 166.852 63.8532 174.498C57.9692 170.166 50.6343 167.963 43.6344 167.58C39.8233 167.372 37.4909 167.584 35.8905 167.704C38.4175 149.047 44.7437 128.284 56.2854 113.686C57.1696 112.39 57.6396 111.986 60.9119 108.148C62.3296 106.769 63.3595 105.798 64.0213 105.014C64.6713 104.242 64.9532 103.655 64.3284 103.84V103.839Z" fill="#283E70"/>
<path d="M54.361 228.672C53.8289 228.566 52.8308 228.634 52.0008 228.522C46.8329 227.824 35.2846 224.135 34.5115 223.673C34.0125 223.222 33.381 222.047 32.8926 220.907C31.4934 217.645 30.0108 212.406 29.5329 208.4C29.0855 204.647 32.5285 196.376 34.5115 192.713C36.0603 189.856 38.5238 186.634 39.1843 181.585C39.3167 180.558 39.4676 178.718 39.2571 177.764C39.13 177.192 38.86 176.881 38.5913 177.205C38.2378 177.632 37.9426 178.787 37.7176 179.593C35.4196 187.848 33.5372 188.089 30.3841 195.169C28.687 198.975 27.6214 202.507 27.1542 204.887C26.765 206.868 26.7756 207.737 26.9212 208.965C27.3712 212.753 29.9883 223.815 33.0633 225.945C33.7212 226.508 40.4022 228.467 41.4506 228.756C45.0154 229.738 49.3586 230.722 52.9314 230.03C53.3788 229.874 53.8116 229.794 54.1545 229.524C54.6906 229.103 54.7899 228.759 54.361 228.672Z" fill="#283E70"/>
<path d="M70.4037 241.365C66.3001 234.664 66.598 234.779 66.0817 234.293L18.6547 188.399C18.3839 188.141 18.0651 187.938 17.7165 187.803C17.368 187.669 16.9965 187.604 16.6233 187.614C16.2502 187.624 15.8826 187.708 15.5415 187.861C15.2005 188.014 14.8928 188.233 14.6358 188.506C14.3789 188.779 14.1778 189.1 14.0441 189.451C13.9104 189.802 13.8466 190.177 13.8565 190.553C13.8663 190.929 13.9495 191.299 14.1014 191.643C14.2533 191.986 14.4709 192.296 14.7417 192.555L62.7115 237.833C63.1854 238.289 63.0437 238.151 69.8491 241.962C70.229 242.175 70.6327 241.739 70.4037 241.365Z" fill="#283E70"/>
<path d="M53.2093 177.639C52.3687 178.287 52.2006 181.212 49.8536 186.225C47.0936 192.119 42.4168 195.509 40.136 202.107C37.4885 209.763 38.4072 211.7 39.821 215.195C40.8191 217.662 42.1415 220.687 43.5592 222.937C43.8703 223.43 44.7188 224.733 45.1596 225.114C45.4813 225.392 45.8162 225.472 45.9446 225.138C46.5615 223.549 41.5458 213.045 41.2969 211.649C40.6006 208.923 41.7669 205.46 42.6961 202.839C45.3966 195.228 53.3628 190.415 53.985 180.838C54.0274 180.185 54.0644 178.699 53.8632 178.072C53.7308 177.662 53.4899 177.42 53.2066 177.639H53.2093Z" fill="#283E70"/>
<path d="M63.1533 212.004C61.1889 214.589 60.8977 215.505 59.1649 217.845C59.3025 217.975 58.278 218.288 57.5142 218.236C52.619 217.909 48.5154 209.102 46.7879 208.346C46.2584 208.114 45.7104 208.509 45.9857 209.658C46.539 211.971 47.7 213.682 49.4049 215.741C52.0762 218.965 55.7642 221.961 59.7275 220.606C60.9493 220.102 60.6898 220.283 61.2127 219.587C66.3012 212.805 64.8411 209.784 63.1533 212.004Z" fill="#283E70"/>
<path d="M64.3642 205.1C63.9804 205.107 63.6931 205.365 63.5091 205.556C61.8081 207.334 62.1059 207.631 59.2811 211.948C58.8628 212.252 58.3174 212.548 57.8078 212.466C56.7051 212.286 55.7004 210.588 55.2066 209.585C54.37 207.887 54.4402 207.525 53.7942 206.508C53.6433 206.271 53.2925 205.736 53.0516 205.594C52.5882 205.32 51.982 205.59 51.9171 206.51C51.8152 207.949 52.0535 209.494 53.4884 211.914C54.4084 213.465 55.7202 214.882 57.498 215.117C58.6444 215.269 59.7404 214.883 60.4658 214.39C60.6803 214.245 60.8881 214.095 61.0906 213.947C61.4149 213.711 64.2041 209.426 64.764 207.598C65.0499 206.663 65.3345 205.084 64.3642 205.099V205.1Z" fill="#283E70"/>
<path d="M54.459 171.262C53.9851 172.214 55.8463 176.232 56.7689 178.347C56.8497 178.591 57.6823 180.197 58.0543 182.635C58.4262 185.072 58.143 188.557 57.7101 192.007C56.4552 201.976 52.4999 201.135 48.207 204.613C48.0184 204.754 47.85 204.92 47.7066 205.107C47.5041 205.397 47.471 205.711 47.7595 205.862C48.1408 206.065 48.8265 205.929 49.2977 205.806C55.8502 204.098 59.3158 200.893 60.3616 192.199C61.2458 184.856 61.451 180.299 57.4917 174.071C57.0244 173.338 55.8013 171.583 55.2069 171.189C54.9183 170.997 54.6033 170.968 54.459 171.26V171.262Z" fill="#283E70"/>
<path d="M205.085 115.831C192.7 58.2298 121.177 37.9615 79.8851 79.7144C53.2872 106.608 49.2405 151.376 77.7129 183.666C94.1325 202.287 122.781 213.171 151.357 205.724C194.71 193.88 213.273 152.007 205.085 115.831ZM162.374 199.1C156.498 201.858 151.551 202.971 148.84 203.65C150.174 201.98 151.767 190.877 152.061 188.183C152.556 182.746 155.518 182.514 158.339 179.57C160.174 177.072 159.569 175.115 158.096 172.09C153.35 163.584 140.866 170.708 133.538 167.665C131.42 166.786 129.948 164.947 129.674 163.656C128.203 158.679 143.814 153.554 134.802 145.29C125.631 137.147 123.089 144.368 107.767 138.343C103.424 136.694 97.7411 132.752 87.1247 132.923C78.2384 133.055 68.5645 136.186 61.1423 140.315C59.8238 126.854 61.9908 114.235 66.9164 103.382C77.4984 80.0678 98.0614 64.7939 121.465 61.1758C132.964 59.2687 145.772 60.713 154.024 63.3962C150.361 72.7342 144.051 82.8244 134.234 84.4634C123.095 86.3598 109.164 92.5398 108.331 103.503C108.156 105.797 108.238 105.44 108.195 105.928C107.718 113.552 100.505 122.301 111.982 125.201C115.945 126.143 121.821 126.314 125.98 126.163C131.511 125.996 136.11 125.233 138.173 126.622C140.291 127.961 140.232 132.634 141.398 137.389C142.224 140.535 143.47 142.882 146.369 144.319C149.785 145.76 155.379 145.639 160.7 142.842C166.098 139.98 169.623 135.985 173.621 134.959C175.981 134.339 177.923 135.066 179.993 136.365C182.594 137.997 186.225 142.848 195.223 141.83C199.79 141.001 201.569 139.732 203.72 137.617C200.624 167.249 186.066 187.981 162.374 199.102V199.1Z" fill="#283E70"/>
</svg>
