<svg width="276" height="360" viewBox="0 0 276 360" fill="none" xmlns="http://www.w3.org/2000/svg">
<g style="mix-blend-mode:overlay">
<path d="M164.282 136.969C165.801 136.566 169.513 135.732 173.065 135.332C174.836 135.132 176.618 135.033 178.084 135.166C178.386 135.194 178.681 135.232 178.966 135.282C178.237 133.263 177.522 131.096 176.789 128.87C176.581 128.238 176.371 127.601 176.158 126.962C171.098 126.458 168.385 122.409 166.532 118.357C165.871 116.911 165.285 115.384 164.738 113.959C164.483 113.294 164.237 112.652 163.995 112.05C163.205 110.083 162.473 108.571 161.634 107.689L161.63 107.685C161.248 107.278 160.722 107.1 159.936 107.018C159.629 106.987 159.322 106.972 158.983 106.957C158.879 106.952 158.773 106.947 158.663 106.942C158.216 106.919 157.72 106.885 157.233 106.79C135.929 102.808 117.782 89.9091 107.632 81.6936C107.388 81.87 107.148 82.0487 106.908 82.2364L106.899 82.2438L106.889 82.251C102.76 85.3257 98.3325 91.642 97.3542 97.7635C103.09 103.586 111.819 110.034 121.286 115.541C130.946 121.16 141.291 125.751 149.912 127.708L150.902 127.932L150.662 128.919C149.424 134.012 148.67 138.733 149.826 143.333C150.095 143.08 150.394 142.839 150.71 142.61C151.946 141.711 153.635 140.853 155.375 140.095C158.866 138.573 162.783 137.36 164.282 136.969ZM164.282 136.969C164.281 136.969 164.28 136.969 164.28 136.969L164.536 137.936L164.284 136.968C164.283 136.968 164.282 136.969 164.282 136.969Z" fill="#283E70" stroke="#283E70" stroke-width="2"/>
<path d="M250.215 158.417L250.215 158.417C253.2 161.798 256.948 164.037 260.973 164.883L260.767 165.862L260.973 164.883C264.995 165.729 269.144 165.153 272.903 163.214C276.666 161.274 279.883 158.048 282.126 153.918C284.369 149.788 285.528 144.954 285.445 140.029C285.362 135.103 284.041 130.328 281.663 126.309L281.663 126.309C279.285 122.29 275.965 119.22 272.144 117.458C268.326 115.698 264.162 115.315 260.169 116.348C256.173 117.383 252.5 119.796 249.629 123.317L249.628 123.318C247.72 125.654 246.214 128.42 245.204 131.459C244.194 134.498 243.702 137.745 243.756 141.015C243.811 144.285 244.413 147.506 245.524 150.494L244.587 150.842L245.524 150.494C246.635 153.482 248.231 156.173 250.215 158.417Z" fill="#283E70" stroke="#283E70" stroke-width="2"/>
<path d="M10.7107 264.497L13.6331 260.058C13.1166 258.189 12.3646 256.957 11.5064 256.076C10.5772 255.121 9.46355 254.514 8.20234 253.978C7.77227 253.795 7.31683 253.619 6.84609 253.438C5.27925 252.834 3.54288 252.166 2.00827 250.933C2.06137 254.103 2.80957 257.134 4.13221 259.526C5.66349 262.296 7.9118 264.136 10.7107 264.497Z" fill="#283E70" stroke="#283E70" stroke-width="2"/>
<path d="M180.592 278.871L180.566 278.853L180.541 278.833C180.46 278.769 180.351 278.692 180.223 278.605C181.004 281.689 181.655 284.815 182.174 287.974L182.174 287.974L182.176 287.985C182.804 292.08 183.467 295.89 184.118 298.721C184.444 300.142 184.761 301.283 185.058 302.083C185.208 302.485 185.34 302.764 185.447 302.939C185.462 302.964 185.476 302.985 185.488 303.002C185.495 303.001 185.499 302.999 185.503 302.998L185.504 302.998C185.529 302.99 185.608 302.956 185.733 302.82C186.002 302.527 186.308 301.955 186.62 301.04C187.235 299.237 187.724 296.564 188.213 293.481C188.349 292.626 188.484 291.742 188.622 290.843C188.975 288.537 189.343 286.13 189.772 283.852C190.368 280.693 191.098 277.678 192.117 275.43L192.123 275.417L192.129 275.405C192.673 274.29 193.095 273.102 193.389 271.869C191.32 274.331 189.327 276.286 187.505 277.598C186.265 278.491 185.049 279.126 183.899 279.389C182.726 279.657 181.574 279.545 180.592 278.871ZM185.542 303.073C185.542 303.073 185.542 303.072 185.541 303.071C185.542 303.072 185.542 303.073 185.542 303.073Z" fill="#283E70" stroke="#283E70" stroke-width="2"/>
<path d="M161.423 99.0476C160.276 99.6556 159.161 100.16 158.154 100.469C158.846 100.698 159.607 100.892 160.374 101.046C160.761 100.409 161.111 99.7409 161.423 99.0476Z" fill="#283E70" stroke="#283E70" stroke-width="2"/>
<path d="M194.159 86.9457L194.158 86.9451C188.269 81.9219 180.979 78.1196 174.53 76.403C171.305 75.5445 168.34 75.221 165.892 75.4937C163.585 75.7508 161.819 76.5249 160.671 77.7922C160.735 77.8471 160.825 77.9125 160.947 77.9908C161.157 78.1241 161.395 78.2539 161.686 78.4124C161.783 78.4652 161.886 78.5213 161.996 78.5817C162.412 78.8107 162.887 79.0839 163.35 79.422L163.927 79.8445L163.714 80.5278C163.321 81.7853 163.128 82.7336 163.067 83.4165C163.041 83.6963 163.04 83.9125 163.05 84.0761C163.083 84.0407 163.118 84.0007 163.156 83.9556C163.877 83.0848 164.775 82.5285 165.731 82.5579C166.744 82.589 167.485 83.2647 167.813 84.1379C168.414 85.7365 167.767 88.0271 165.678 90.2007C166.269 95.3644 167.396 100.422 169.033 105.26C170.847 109.41 174.448 114.544 179.188 119.025C183.941 123.52 189.765 127.29 195.968 128.791C198.566 129.419 200.975 129.578 202.966 129.295C204.967 129.01 206.461 128.295 207.367 127.261C208.246 126.257 208.686 124.819 208.329 122.802C207.966 120.754 206.781 118.147 204.431 114.961C198.088 106.368 188.339 102.909 187.451 102.595L188.055 100.69C191.873 101.768 194.85 101.959 196.976 101.556C199.087 101.156 200.259 100.201 200.747 99.0342C201.249 97.8327 201.148 96.1249 200.094 93.9942C199.045 91.8755 197.104 89.453 194.159 86.9457Z" fill="#283E70" stroke="#283E70" stroke-width="2"/>
<path d="M119.742 287.582L119.741 287.595L119.74 287.608C119.357 291.759 119.068 295.642 119.004 298.577C118.972 300.049 118.997 301.251 119.087 302.118C119.133 302.554 119.192 302.87 119.254 303.079C119.273 303.142 119.289 303.185 119.301 303.213C119.348 303.239 119.372 303.24 119.378 303.24L119.379 303.24C119.394 303.241 119.459 303.24 119.594 303.163C119.896 302.99 120.315 302.568 120.836 301.8C121.86 300.291 122.976 297.903 124.196 295.111C124.538 294.328 124.888 293.514 125.243 292.686C126.137 290.606 127.071 288.433 128.03 286.405C129.367 283.578 130.803 280.924 132.333 279.102L132.34 279.094L132.347 279.085C133.657 277.594 134.719 275.814 135.471 273.837C136.048 272.201 136.002 270.701 135.788 268.766C135.75 268.421 135.707 268.063 135.661 267.689C135.493 266.307 135.3 264.715 135.258 262.824C130.146 264.443 124.77 264.548 119.615 263.131C120.237 271.262 120.28 279.441 119.742 287.582Z" fill="#283E70" stroke="#283E70" stroke-width="2"/>
<path d="M179.213 137.448C178.817 137.327 178.299 137.233 177.657 137.179C177.825 137.96 178.027 138.73 178.265 139.484C178.891 139.054 179.325 138.676 179.602 138.357C179.877 138.04 179.925 137.871 179.933 137.814C179.898 137.772 179.744 137.611 179.213 137.448ZM179.933 137.792C179.933 137.792 179.933 137.795 179.934 137.799C179.934 137.795 179.933 137.792 179.933 137.792Z" fill="#283E70" stroke="#283E70" stroke-width="2"/>
<mask id="path-9-inside-1_380_365" fill="white">
<path d="M149.572 145.841C149.696 146.527 150.524 146.962 151.904 147.169C151.382 146.049 150.922 145.036 150.524 144.024C149.819 144.727 149.482 145.341 149.572 145.841Z"/>
</mask>
<path d="M149.572 145.841C149.696 146.527 150.524 146.962 151.904 147.169C151.382 146.049 150.922 145.036 150.524 144.024C149.819 144.727 149.482 145.341 149.572 145.841Z" fill="#283E70"/>
<path d="M149.572 145.841L151.54 145.485L151.54 145.485L149.572 145.841ZM151.904 147.169L153.717 146.324L155.29 149.699L151.608 149.147L151.904 147.169ZM150.524 144.024L149.113 142.607L151.271 140.459L152.385 143.292L150.524 144.024ZM151.54 145.485C151.506 145.293 151.421 145.136 151.334 145.032C151.257 144.939 151.204 144.917 151.242 144.938C151.278 144.959 151.37 145.002 151.54 145.052C151.707 145.101 151.925 145.15 152.201 145.191L151.608 149.147C150.807 149.027 149.987 148.819 149.293 148.431C148.575 148.031 147.807 147.322 147.604 146.196L151.54 145.485ZM150.092 148.014C149.568 146.89 149.085 145.829 148.663 144.756L152.385 143.292C152.759 144.243 153.197 145.209 153.717 146.324L150.092 148.014ZM151.935 145.442C151.804 145.572 151.707 145.682 151.636 145.772C151.565 145.863 151.53 145.92 151.517 145.945C151.483 146.009 151.602 145.824 151.54 145.485L147.604 146.196C147.453 145.358 147.695 144.616 147.983 144.072C148.272 143.527 148.681 143.037 149.113 142.607L151.935 145.442Z" fill="#283E70" mask="url(#path-9-inside-1_380_365)"/>
<path d="M138.334 201.258L137.039 201.842L138.23 205.862C138.27 204.317 138.306 202.782 138.334 201.258Z" fill="#283E70" stroke="#283E70" stroke-width="2"/>
<path d="M246.875 278.528L246.875 278.528C250.97 270.268 255.722 262.649 260.066 257.405C262.243 254.776 264.279 252.792 266.042 251.613C267.857 250.4 269.103 250.218 269.894 250.577L246.875 278.528ZM246.875 278.528C244.823 282.667 241.075 291.435 238.679 299.696C237.479 303.832 236.635 307.784 236.492 310.94C236.42 312.519 236.527 313.846 236.82 314.877C237.111 315.899 237.561 316.557 238.132 316.934C238.793 317.348 239.889 317.34 241.616 316.331C243.307 315.343 245.322 313.544 247.53 311.015C251.935 305.972 256.935 298.229 261.479 288.957M246.875 278.528L261.479 288.957M261.479 288.957C264.176 283.445 267.88 274.367 270.036 266.296M261.479 288.957L270.036 266.296M270.036 266.296C271.116 262.252 271.79 258.526 271.781 255.653M270.036 266.296L271.781 255.653M271.781 255.653C271.777 254.215 271.601 253.054 271.265 252.192M271.781 255.653L271.265 252.192M271.265 252.192C270.934 251.347 270.472 250.839 269.894 250.577L271.265 252.192Z" fill="#283E70" stroke="#283E70" stroke-width="2"/>
<path d="M204.112 217.551C199.734 222.514 194.757 230.184 190.244 239.383C185.747 248.58 182.598 257.499 181.139 264.473C180.408 267.966 180.112 270.922 180.26 273.161C180.412 275.465 181.013 276.717 181.749 277.218C182.399 277.658 183.474 277.684 185.187 276.716C186.862 275.769 188.864 274.015 191.062 271.527C195.444 266.568 200.42 258.908 204.918 249.71C209.415 240.514 212.564 231.594 214.023 224.62C214.754 221.127 215.05 218.171 214.903 215.932C214.75 213.626 214.149 212.375 213.413 211.874L213.413 211.874L213.41 211.872C212.759 211.426 211.688 211.397 209.98 212.362C208.308 213.306 206.308 215.061 204.112 217.551Z" fill="#283E70" stroke="#283E70" stroke-width="2"/>
<path d="M178.615 276.42C179.677 280.257 180.537 284.168 181.191 288.13C182.435 296.336 183.857 303.502 185.057 303.923C189.342 305.441 189.181 284.377 193.032 275.837C194.143 273.566 194.774 271.011 194.871 268.391" stroke="#283E70" stroke-width="1.5" stroke-linecap="round" stroke-linejoin="round"/>
<path d="M72.4634 140.431C73.0754 139.264 73.8968 138.269 74.8711 137.518C75.8455 136.767 76.9471 136.278 78.1002 136.085C79.2534 135.891 80.4274 135.999 81.5403 136.4C82.6532 136.801 83.6791 137.486 84.5423 138.406C84.8837 137.033 85.4909 135.771 86.3123 134.719C87.1352 133.667 88.1531 132.852 89.2869 132.338C90.4191 131.824 91.6382 131.625 92.8477 131.756C94.0572 131.887 95.2233 132.344 96.2588 133.092C97.1543 133.742 97.9321 134.593 98.5474 135.598C99.1642 136.603 99.6055 137.741 99.847 138.947C101.121 137.815 102.654 137.163 104.247 137.077C105.84 136.99 107.418 137.473 108.774 138.461C110.13 139.45 111.201 140.898 111.847 142.616C112.493 144.334 112.681 146.242 112.391 148.09C113.427 147.77 114.506 147.699 115.564 147.879C116.624 148.059 117.64 148.488 118.556 149.139C119.59 149.887 120.463 150.905 121.111 152.114C121.758 153.322 122.161 154.69 122.288 156.111C122.415 157.532 122.264 158.969 121.845 160.311C121.428 161.652 120.753 162.862 119.875 163.848C120.951 164.348 121.921 165.118 122.716 166.106C123.512 167.093 124.116 168.274 124.483 169.564C124.852 170.855 124.976 172.226 124.847 173.579C124.72 174.932 124.341 176.237 123.741 177.4C122.902 179.034 121.647 180.318 120.157 181.07C118.666 181.821 117.012 182.004 115.429 181.592L72.6132 150.659C71.5358 149.895 70.2264 144.687 72.4634 140.431Z" stroke="#283E70" stroke-width="1.5" stroke-linecap="round" stroke-linejoin="round"/>
<path d="M104.943 154.773C103.932 155.897 103.279 157.396 103.096 159.02C102.912 160.644 103.208 162.292 103.936 163.688C104.664 165.084 105.777 166.142 107.088 166.684C108.401 167.226 109.831 167.219 111.139 166.664" stroke="#283E70" stroke-width="1.5" stroke-linecap="round" stroke-linejoin="round"/>
<path d="M85.872 148.414C86.0427 149.876 86.5903 151.24 87.4439 152.32C88.2975 153.4 89.4135 154.144 90.6375 154.448C91.8631 154.753 93.1387 154.604 94.2902 154.022C95.4401 153.439 96.4096 152.453 97.0667 151.196C97.3453 150.654 97.5612 150.07 97.7109 149.462" stroke="#283E70" stroke-width="1.5" stroke-linecap="round" stroke-linejoin="round"/>
<path d="M84.5439 138.398C85.3685 139.315 86.053 140.391 86.5684 141.581" stroke="#283E70" stroke-width="1.5" stroke-linecap="round" stroke-linejoin="round"/>
<path d="M117.076 163.234C118.027 163.291 118.968 163.496 119.873 163.845" stroke="#283E70" stroke-width="1.5" stroke-linecap="round" stroke-linejoin="round"/>
<path d="M99.8492 138.946C100.051 140.124 100.083 141.333 99.9475 142.523" stroke="#283E70" stroke-width="1.5" stroke-linecap="round" stroke-linejoin="round"/>
<path d="M109.355 149.766C110.275 148.998 111.304 148.431 112.395 148.09" stroke="#283E70" stroke-width="1.5" stroke-linecap="round" stroke-linejoin="round"/>
<path d="M61.5437 161.313C63.8194 156.897 68.5157 156.11 69.3338 156.833L112.182 187.805C113.407 188.672 115.09 193.919 112.763 198.356C112.157 199.516 111.344 200.506 110.381 201.256C109.416 202.007 108.324 202.499 107.181 202.698C106.037 202.896 104.871 202.797 103.763 202.408C102.657 202.019 101.634 201.349 100.771 200.444C100.28 202.434 99.2363 204.175 97.8094 205.387C96.3824 206.6 94.6528 207.215 92.8941 207.137C91.1354 207.057 89.4492 206.289 88.1044 204.951C86.7596 203.615 85.8336 201.785 85.4712 199.757C84.2053 200.899 82.6753 201.565 81.0825 201.666C79.4897 201.768 77.9082 201.3 76.5441 200.322C75.1816 199.345 74.1009 197.907 73.4438 196.193C72.7884 194.479 72.5871 192.572 72.8657 190.722C71.1666 191.229 69.3725 191.056 67.7652 190.232C66.1579 189.407 64.8276 187.976 63.9853 186.165C63.143 184.353 62.8354 182.264 63.1108 180.222C63.3862 178.182 64.2285 176.308 65.5056 174.893C64.4185 174.407 63.4345 173.645 62.6244 172.661C61.8159 171.677 61.1991 170.494 60.8206 169.198C60.4438 167.902 60.3117 166.524 60.4373 165.161C60.5613 163.798 60.9398 162.484 61.5437 161.313Z" stroke="#283E70" stroke-width="1.5" stroke-linecap="round" stroke-linejoin="round"/>
<path d="M87.1552 188.961C87.4709 187.703 88.0732 186.572 88.8978 185.691C89.7224 184.811 90.7354 184.215 91.829 183.968C92.9225 183.721 94.0515 183.835 95.0935 184.294C96.1355 184.756 97.0503 185.543 97.7363 186.575C98.4079 187.595 98.8411 188.803 98.9941 190.081" stroke="#283E70" stroke-width="1.5" stroke-linecap="round" stroke-linejoin="round"/>
<path d="M73.6879 171.838C74.8684 171.358 76.1472 171.318 77.3486 171.725C78.5484 172.131 79.6146 172.964 80.3989 174.11C81.1832 175.256 81.6503 176.658 81.7324 178.127C81.8162 179.596 81.5134 181.061 80.866 182.319C80.589 182.866 80.2475 183.365 79.853 183.801" stroke="#283E70" stroke-width="1.5" stroke-linecap="round" stroke-linejoin="round"/>
<path d="M65.4971 174.91C66.5777 175.381 67.7196 175.625 68.8711 175.633" stroke="#283E70" stroke-width="1.5" stroke-linecap="round" stroke-linejoin="round"/>
<path d="M99.072 197.842C99.531 198.806 100.103 199.688 100.77 200.466" stroke="#283E70" stroke-width="1.5" stroke-linecap="round" stroke-linejoin="round"/>
<path d="M72.8597 190.731C73.847 190.397 74.7811 189.875 75.625 189.187" stroke="#283E70" stroke-width="1.5" stroke-linecap="round" stroke-linejoin="round"/>
<path d="M85.3798 195.896C85.2333 197.185 85.2639 198.491 85.4668 199.768" stroke="#283E70" stroke-width="1.5" stroke-linecap="round" stroke-linejoin="round"/>
<path d="M112.183 187.807L116.752 191.057" stroke="#283E70" stroke-width="1.5" stroke-linecap="round" stroke-linejoin="round"/>
<path d="M115.432 181.593L119.941 184.809" stroke="#283E70" stroke-width="1.5" stroke-linecap="round" stroke-linejoin="round"/>
<path d="M139.199 207.146L187.904 241.984" stroke="#283E70" stroke-width="1.5" stroke-linecap="round" stroke-linejoin="round"/>
<path d="M140.184 199.302L191.006 235.696" stroke="#283E70" stroke-width="1.5" stroke-linecap="round" stroke-linejoin="round"/>
<path d="M96.9381 98.7565C86.03 97.5676 75.0624 100.117 65.3558 106.099C55.6492 112.081 47.6144 121.24 42.2208 132.475C25.9288 165.466 34.4629 208.075 61.2683 227.631C78.0354 239.864 82.6882 233.396 115.248 244.331" stroke="#283E70" stroke-width="1.5" stroke-linecap="round" stroke-linejoin="round"/>
<path d="M180.834 277.764C165.94 268.612 152.629 260.611 138.92 254.013" stroke="#283E70" stroke-width="1.5" stroke-linecap="round" stroke-linejoin="round"/>
<path d="M179.135 180.252C189.47 190.01 200.789 199.515 214.008 211.008" stroke="#283E70" stroke-width="1.5" stroke-linecap="round" stroke-linejoin="round"/>
<path d="M134.72 123.513C141.147 134.9 148.359 145.645 156.281 155.641" stroke="#283E70" stroke-width="1.5" stroke-linecap="round" stroke-linejoin="round"/>
<path d="M107.703 80.4716C102.52 83.9045 97.2438 90.9526 96.2936 98.1069C107.918 110.106 132.178 124.707 149.69 128.681C148.249 134.609 147.39 140.283 149.599 145.885C149.064 142.729 161.441 138.748 164.536 137.934C167.557 137.139 179.205 134.668 180.791 137.283C179.472 133.958 178.245 130.055 176.895 126.007C167.111 125.682 166.33 111.133 162.359 106.998C161.107 105.696 159.138 106.132 157.421 105.806C135.964 101.694 117.67 88.6032 107.672 80.4355L107.703 80.4716Z" stroke="#283E70" stroke-width="1.5" stroke-linecap="round" stroke-linejoin="round"/>
<path d="M179.035 143.721C170.254 143.556 161.607 146.263 154.053 151.539" stroke="#283E70" stroke-width="1.5" stroke-linecap="round" stroke-linejoin="round"/>
<path d="M154.49 98.8882C155.49 100.949 159.356 99.2336 163.305 96.8008C162.742 98.7304 161.913 100.537 160.85 102.149" stroke="#283E70" stroke-width="1.5" stroke-linecap="round" stroke-linejoin="round"/>
<path d="M158.555 105.944C160.692 105.325 160.12 104.099 160.852 102.158C155.086 101.154 154.087 99.9034 154.324 96.4989C154.67 91.5535 157.134 80.7784 159.687 77.4023" stroke="#283E70" stroke-width="1.5" stroke-linecap="round" stroke-linejoin="round"/>
<path d="M149.693 128.683C151.472 129.081 153.189 129.37 154.785 129.552" stroke="#283E70" stroke-width="1.5" stroke-linecap="round" stroke-linejoin="round"/>
<path d="M162.753 80.2176C161.128 85.4211 162.592 86.1802 163.919 84.5823C166.373 81.62 169.101 85.5312 164.624 89.8219C165.208 95.2377 166.372 100.544 168.09 105.615C171.831 114.217 182.873 126.649 195.723 129.757C206.489 132.359 214.832 127.372 205.225 114.361C198.693 105.506 188.693 101.965 187.774 101.646C203.384 106.055 206.847 96.4467 194.797 86.1783C182.802 75.9554 165.109 70.6741 159.68 77.3957C159.161 78.633 161.176 79.0695 162.753 80.2176Z" stroke="#283E70" stroke-width="1.5" stroke-linecap="round" stroke-linejoin="round"/>
<path d="M176.896 126.004C175.277 120.84 173.189 115.897 170.67 111.259C169.674 109.504 168.822 107.641 168.126 105.695" stroke="#283E70" stroke-width="1.5" stroke-linecap="round" stroke-linejoin="round"/>
<path d="M156.24 155.586C154.113 151.896 152.198 148.042 150.505 144.052" stroke="#283E70" stroke-width="1.5" stroke-linecap="round" stroke-linejoin="round"/>
<path d="M89.6035 78.7059C84.9733 77.4041 81.1612 79.8635 81.4768 81.9585C81.5477 82.3785 81.6942 82.7759 81.9052 83.1245C82.1178 83.4733 82.3884 83.7652 82.7024 83.9815" stroke="#283E70" stroke-width="1.5" stroke-linecap="round" stroke-linejoin="round"/>
<path d="M90.0352 75.3808C85.1585 74.0068 80.3125 76.8989 82.3981 79.9353" stroke="#283E70" stroke-width="1.5" stroke-linecap="round" stroke-linejoin="round"/>
<path d="M96.8164 95.5079C93.9304 91.6263 90.2278 88.7098 86.0807 87.0518" stroke="#283E70" stroke-width="1.5" stroke-linecap="round" stroke-linejoin="round"/>
<path d="M89.7894 82.604C85.2799 81.5205 82.3101 83.6155 82.4889 85.6764C82.7096 88.2061 86.9984 92.0375 90.6172 89.58" stroke="#283E70" stroke-width="1.5" stroke-linecap="round" stroke-linejoin="round"/>
<path d="M93.5963 73.4565C93.5351 73.3844 91.6637 70.3139 92.4915 69.3366C93.1969 68.5054 103.38 78.3716 106.232 81.5161" stroke="#283E70" stroke-width="1.5" stroke-linecap="round" stroke-linejoin="round"/>
<path d="M87.7395 75.0159C79.6418 70.4272 77.4676 64.8916 78.9976 65.9069C84.103 68.9186 89.3468 71.597 94.7018 73.9304C98.8472 75.7888 102.741 78.3456 106.264 81.5212" stroke="#283E70" stroke-width="1.5" stroke-linecap="round" stroke-linejoin="round"/>
<path d="M118.497 261.746C119.22 270.311 119.302 278.934 118.742 287.515C117.961 295.825 117.577 303.162 118.619 303.959C122.394 306.845 127.34 286.625 133.096 279.744C134.494 278.158 135.618 276.268 136.407 274.18C137.73 270.451 136.127 267.411 136.256 261.392" stroke="#283E70" stroke-width="1.5" stroke-linecap="round" stroke-linejoin="round"/>
<path d="M189.345 238.947C180.286 257.442 176.614 274.948 181.188 278.04C185.723 281.118 196.768 268.644 205.816 250.143C214.864 231.643 218.541 214.161 213.975 211.047C209.409 207.933 198.412 220.435 189.345 238.947Z" stroke="#283E70" stroke-width="1.5" stroke-linecap="round" stroke-linejoin="round"/>
<path d="M235.902 307.586C238.195 290.767 251.981 262.783 263.174 252.678C268.956 247.401 273.097 248.334 272.623 257.185C271.725 273.98 255.853 306.381 244.006 315.889C237.429 321.164 234.601 317.133 235.902 307.586Z" stroke="#283E70" stroke-width="1.5" stroke-linecap="round" stroke-linejoin="round"/>
<path d="M237.283 317.585L228.177 311.378C227.3 310.567 226.704 309.408 226.5 308.117C226.297 306.827 226.501 305.493 227.073 304.366C223.449 310.797 216.338 304.157 219.191 298.583C216.545 303.897 208.225 300.466 211.645 292.404C210.87 293.589 209.765 294.41 208.525 294.727C207.286 295.046 205.99 294.837 204.868 294.139C201.164 291.353 202.538 285.935 204.836 277.117C209.135 261.971 215.954 247.987 224.895 235.984C227.044 232.969 229.504 230.279 232.218 227.983C236.51 224.846 241.339 227.198 239.678 235.732C241.044 233.05 242.646 231.297 245.354 232.152C246.037 232.376 246.667 232.784 247.195 233.342C247.722 233.902 248.133 234.597 248.394 235.375C248.655 236.151 248.76 236.99 248.701 237.823C248.641 238.656 248.419 239.461 248.051 240.176C248.051 240.176 251.229 235.443 254.83 238.804C255.724 239.626 256.327 240.81 256.52 242.125C256.713 243.442 256.482 244.795 255.873 245.922C256.163 245.319 256.552 244.791 257.016 244.366C257.481 243.941 258.012 243.63 258.579 243.448C259.147 243.265 259.739 243.22 260.322 243.309C260.905 243.398 261.467 243.624 261.976 243.971L270.547 249.782" stroke="#283E70" stroke-width="1.5" stroke-linecap="round" stroke-linejoin="round"/>
<path d="M14.7064 260.234C18.4895 262.696 22.1164 265.474 25.5629 268.546C35.6866 277.76 45.5607 289.326 44.2449 291.351C42.9291 293.376 30.9613 285.068 20.8135 275.847C17.4121 272.697 14.2136 269.254 11.2438 265.546" stroke="#283E70" stroke-width="1.5" stroke-linecap="round" stroke-linejoin="round"/>
<path d="M14.707 260.23C12.499 251.231 5.13732 253.977 1.08848 248.556C0.352475 256.833 4.21772 265.145 11.2106 265.542L14.707 260.23Z" stroke="#283E70" stroke-width="1.5" stroke-linecap="round" stroke-linejoin="round"/>
<path d="M24.293 267.408L19.5548 274.648" stroke="#283E70" stroke-width="1.5" stroke-linecap="round" stroke-linejoin="round"/>
<path d="M7.49935 87.124L11.5176 97.7303H4.15753L8.20636 108.338" stroke="#283E70" stroke-width="1.5" stroke-linecap="round" stroke-linejoin="round"/>
<path d="M150.52 349.101L166.836 349.677" stroke="#283E70" stroke-width="1.5" stroke-linecap="round" stroke-linejoin="round"/>
<path d="M158.435 359L158.926 339.772" stroke="#283E70" stroke-width="1.5" stroke-linecap="round" stroke-linejoin="round"/>
<path d="M176.439 136.126C176.715 137.803 177.147 139.439 177.727 141.005C182.726 138.077 181.56 136.162 176.439 136.126Z" stroke="#283E70" stroke-width="1.5" stroke-linecap="round" stroke-linejoin="round"/>
<path d="M149.596 145.887C149.744 146.541 150.531 146.968 151.863 147.181" stroke="#283E70" stroke-width="1.5" stroke-linecap="round" stroke-linejoin="round"/>
<path d="M176.431 136.126C176.934 140.232 178.702 143.975 181.4 146.641C193.453 157.917 193.639 173.71 184.835 185.529" stroke="#283E70" stroke-width="1.5" stroke-linecap="round" stroke-linejoin="round"/>
<path d="M271.075 250.175L284.664 259.253" stroke="#283E70" stroke-width="1.5" stroke-linecap="round" stroke-linejoin="round"/>
<path d="M237.914 317.981L250.113 326.367" stroke="#283E70" stroke-width="1.5" stroke-linecap="round" stroke-linejoin="round"/>
<path d="M255.999 330.742L265.047 336.959" stroke="#283E70" stroke-width="1.5" stroke-linecap="round" stroke-linejoin="round"/>
<path d="M262.346 289.399L292.066 310.107" stroke="#283E70" stroke-width="1.5" stroke-linecap="round" stroke-linejoin="round"/>
<path d="M249.462 159.077C252.577 162.605 256.51 164.966 260.763 165.86C265.017 166.754 269.4 166.142 273.358 164.101C277.316 162.06 280.672 158.682 283 154.394C285.329 150.105 286.527 145.1 286.441 140.01C286.355 134.92 284.991 129.974 282.52 125.798C280.049 121.621 276.582 118.403 272.558 116.548C268.534 114.693 264.134 114.286 259.914 115.378C255.694 116.471 251.844 119.013 248.85 122.683C246.86 125.119 245.298 127.993 244.251 131.141C243.205 134.289 242.696 137.65 242.753 141.03C242.81 144.41 243.431 147.744 244.583 150.841C245.734 153.937 247.392 156.736 249.462 159.077Z" stroke="#283E70" stroke-width="1.5" stroke-linecap="round" stroke-linejoin="round"/>
<path d="M242.773 142.045C235.995 145.84 231.983 149.446 232.559 151.723C233.592 155.835 248.847 154.253 266.665 148.18C284.484 142.107 298.107 133.847 297.091 129.729C296.511 127.377 291.356 126.873 283.724 127.994" stroke="#283E70" stroke-width="1.5" stroke-linecap="round" stroke-linejoin="round"/>
<path d="M183.639 168.902C182.75 175.48 179.612 181.511 175.388 183.07C162.196 187.932 139.351 199.73 139.351 199.73C139.066 218.343 137.636 238.823 139.166 260.229C131.851 263.857 123.64 264.076 116.193 260.842C114.905 240.641 114.079 221.269 114.385 203.38C114.454 198.928 115.329 194.546 116.952 190.525C118.577 186.505 120.911 182.94 123.8 180.07C135.719 168.459 149.009 158.951 163.251 151.846" stroke="#283E70" stroke-width="1.5" stroke-linecap="round" stroke-linejoin="round"/>
<path d="M139.361 199.734L135.834 201.289L139.054 212.166" stroke="#283E70" stroke-width="1.5" stroke-linecap="round" stroke-linejoin="round"/>
<path d="M138.527 245.956C131.071 248.971 123.042 249.435 115.371 247.294" stroke="#283E70" stroke-width="1.5" stroke-linecap="round" stroke-linejoin="round"/>
<path d="M145.27 1V7.03658" stroke="#283E70" stroke-width="1.5" stroke-linecap="round" stroke-linejoin="round"/>
<path d="M135.301 12.7451H140.424" stroke="#283E70" stroke-width="1.5" stroke-linecap="round" stroke-linejoin="round"/>
<path d="M145.27 24.4926V18.4561" stroke="#283E70" stroke-width="1.5" stroke-linecap="round" stroke-linejoin="round"/>
<path d="M155.24 12.7451H150.116" stroke="#283E70" stroke-width="1.5" stroke-linecap="round" stroke-linejoin="round"/>
<path d="M140.432 12.7444C141.068 12.7463 141.699 12.6002 142.287 12.314C142.877 12.0279 143.411 11.6073 143.861 11.0769C144.312 10.5465 144.668 9.91648 144.911 9.22287C145.154 8.52949 145.278 7.78631 145.276 7.03613C145.275 7.78616 145.399 8.52918 145.642 9.22249C145.883 9.91591 146.241 10.5458 146.69 11.0764C147.141 11.6068 147.676 12.0271 148.264 12.3135C148.852 12.5996 149.483 12.7461 150.119 12.7444C149.483 12.7427 148.852 12.8892 148.264 13.1756C147.674 13.462 147.14 13.8825 146.69 14.4133C146.241 14.9439 145.883 15.5741 145.64 16.2677C145.399 16.9611 145.275 17.7045 145.276 18.4546C145.278 17.7043 145.154 16.9609 144.911 16.2671C144.669 15.5735 144.312 14.9431 143.862 14.4125C143.411 13.8819 142.877 13.4614 142.289 13.175C141.699 12.8887 141.068 12.7423 140.432 12.7444Z" stroke="#283E70" stroke-width="1.5" stroke-linecap="round" stroke-linejoin="round"/>
</g>
</svg>
