<svg width="267" height="258" viewBox="0 0 267 258" fill="none" xmlns="http://www.w3.org/2000/svg">
<path fill-rule="evenodd" clip-rule="evenodd" d="M160.61 217.775C172.893 227.426 187.309 236.299 202.755 236.299V236.298C218.259 236.298 236.096 226.36 235.058 205.016C234.572 194.993 230.398 185.362 228.046 179.934C228.006 179.839 227.965 179.748 227.926 179.656C226.799 180.605 225.569 181.641 224.23 182.774C232.017 201.2 235.306 219.312 216.893 228.477C197.032 238.363 175.771 224.524 158.969 210.582L158.971 210.581C158.808 210.447 158.64 210.303 158.463 210.155L158.365 210.071C158.007 210.882 157.665 211.707 157.337 212.545C159.874 213.297 160.51 215.353 160.61 217.775ZM108.957 216.27C109.217 214.517 110.018 213.117 112.088 212.541C111.816 211.834 111.525 211.13 111.217 210.432C104.826 212.907 99.0663 216.001 93.6223 218.925C82.4294 224.937 72.5729 230.232 61.3205 227.955C55.7713 226.832 51.0427 225.21 47.0013 223.208C44.9859 223.758 42.8761 224.322 40.666 224.904C45.9833 228.239 52.454 230.768 60.3717 232.369C73.2795 234.98 83.9806 229.237 95.7404 222.924C99.9596 220.659 104.315 218.322 108.957 216.27ZM17.3282 184.3C18.5261 183.057 19.933 181.939 21.4837 180.952C20.7447 172.679 27.6313 161.598 32.868 153.171C33.9876 151.369 35.0319 149.689 35.9102 148.184C42.2919 137.245 29.2627 129.05 18.0027 123.438C6.59872 117.756 7.13546 105.548 9.13443 92.7806C9.66945 89.3612 11.1704 86.3857 13.3469 83.8234C13.108 81.5933 13.1664 79.3765 13.5059 77.2139C8.93149 80.9085 5.53439 85.7643 4.54227 92.0994C1.47804 111.672 4.76273 121.912 15.8818 127.453C24.4254 131.71 36.3633 138.244 31.8655 145.952C30.8862 147.63 29.7686 149.432 28.5943 151.326C22.6403 160.927 15.2338 172.869 17.058 182.859C17.1461 183.342 17.2362 183.822 17.3282 184.3ZM72.5462 59.7299C74.0339 60.6066 75.4613 61.5626 76.8155 62.5913C85.175 56.5857 90.6787 48.1194 95.8886 40.1055C100.225 33.4353 104.357 27.0783 109.763 22.7143C115.593 18.0074 122.769 15.3673 133.762 13.8822C143.433 12.5763 151.259 16.3755 157.393 22.012C159.431 21.0495 160.313 20.6922 161.199 20.6922C162.012 20.6922 162.917 21.255 163.883 22.033C155.907 13.2413 145.618 7.7215 133.123 9.40817C109.046 12.6592 101.465 21.5872 88.7259 42.7127C83.891 50.731 78.2815 56.1401 72.5462 59.7299ZM179.614 59.701C180.999 59.1196 182.45 58.5096 183.972 57.8693C190.869 67.1501 200.816 70.348 212.306 74.0419C222.997 77.4791 235.023 81.3454 247.169 90.9416C255.276 97.3464 260.775 104.228 262.252 109.818C267.432 129.412 256.467 150.007 249.007 154.241C247.535 155.076 245.327 156.549 242.859 158.372C243.393 155.863 243.232 154.035 241.366 153.781C243.384 152.349 245.226 151.158 246.663 150.344C252.216 147.194 262.407 128.559 257.752 110.943C255.454 102.25 238.348 86.2374 215.714 79.9071C198.382 75.0583 186.937 70.0773 179.614 59.701Z" fill="#283E70"/>
<path d="M187.848 211.272C185.151 211.539 180.649 205.981 179.262 203.717C176.694 199.528 176.319 200.896 225.317 158.473C226.122 157.776 225.672 158.046 240.108 155.338C242.862 154.821 241.645 156.231 238.383 167.678C237.576 170.512 229.269 175.722 196.517 204.802C189.589 210.952 189.2 211.371 187.848 211.273V211.272ZM227.387 160.383C226.417 159.236 226.712 159.546 211.3 172.717C191.003 190.062 190.684 189.679 191.622 190.713C199.967 199.911 199.417 200.273 200.782 199.071C207.596 193.08 226.604 176.439 234.822 169.472C235.894 168.563 235.444 168.78 231.157 164.435C230.415 163.681 230.739 163.881 224.282 169.319C198.177 191.3 199.879 189.912 197.648 191.626C196.918 192.186 196.451 191.328 196.966 190.838C200.031 187.924 229.386 163.767 229.418 163.74C230.348 162.947 229.901 163.356 227.386 160.383H227.387ZM193.539 205.336C194.477 204.639 194.252 205.058 186.09 196.1C185.544 195.501 185.518 195.426 181.079 200.113C179.455 201.829 181.178 203.661 185.635 208.269C187.959 210.674 188.132 209.361 193.539 205.336ZM196.695 200.833C196.433 201.755 195.906 201.214 195.239 200.502C187.781 192.539 188.441 192.366 186.971 193.44C186.053 194.11 186.752 194.613 188.536 196.46C195.62 203.794 194.355 204.842 196.376 202.984C198.732 200.817 199.43 200.707 198.414 199.621C190.073 190.71 190.724 190.477 189.324 191.501C188.026 192.45 190.809 193.665 196.695 200.833ZM228.432 159.258C236.939 167.792 236.505 167.876 236.951 166.515C239.039 160.13 239.134 160.139 238.753 159.707C236.427 157.062 237.303 157.58 228.432 159.258Z" fill="#283E70"/>
<path d="M188.952 152.188C192.831 131.938 181.686 107.929 164.678 99.6928C145.398 90.3603 125.832 89.7601 105.234 99.4653C91.8123 105.788 84.1997 119.293 80.7877 133.195C76.8746 149.139 82.4676 163.225 91.9382 176.631C102.486 191.567 110.344 197.368 116.278 215.081C112.309 215.401 112.061 215.196 111.957 217.393C111.797 220.857 111.752 222.427 113.99 222.597C116.581 222.794 115.017 222.781 140.263 222.827C156.326 222.855 157.353 223.167 157.475 220.351C157.691 215.276 157.193 215.418 155.068 215.237C153.103 215.071 153.117 215.076 153.773 213.24C162.705 188.248 184.281 176.571 188.954 152.186L188.952 152.188ZM150.973 215.001C150.061 215.189 147.501 215.049 140.214 215.049C126.025 214.247 120.978 215.193 119.09 215.111C118.603 212.537 116.59 206.378 112.101 199.035C100.01 179.264 65.2065 154.354 91.0797 114.645C107.329 89.7055 153.368 87.6309 173.89 109.072C181.423 116.945 187.882 131.464 187.568 143.892C186.803 174.434 152.148 193.958 150.973 215.001Z" fill="#283E70"/>
<path d="M136.408 234.952C151.976 234.917 151.877 234.413 151.309 236.848C150.048 242.25 143.992 248.161 136.259 248.83C126.983 249.633 118.987 242.597 118.047 236.715C117.653 234.247 117.732 234.995 136.408 234.953V234.952Z" fill="#283E70"/>
<path d="M134.632 224.495C154.56 224.496 154.589 223.964 154.569 225.603C154.482 232.762 154.675 232.417 152.682 232.503C142.078 232.968 127.084 232.728 116.623 232.493C114.537 232.446 114.958 232.216 114.861 225.627C114.836 223.92 114.802 224.494 134.632 224.495Z" fill="#283E70"/>
<path d="M162.171 141.094C164.156 139.873 163.615 136.151 164.274 136.001C165.082 135.816 167.435 138.03 165.876 142.041C164.967 144.378 165.023 144.88 166.856 146.59C172.493 151.85 165.989 156.573 167.285 159.937C169.017 164.44 165.173 168.713 161.759 170.1C152.101 174.023 146.324 170.302 145.917 171.268C145.434 172.421 152.411 175.285 159.734 172.559C160.55 172.256 160.865 172.438 160.55 173.37C158.804 178.524 155.691 180.369 150.759 180.107C142.44 179.665 142.362 181.023 140.773 178.784C139.118 176.45 138.58 174.466 135.799 173.399C135.436 173.259 134.876 173.143 134.667 173.477C134.392 173.918 134.941 174.12 135.248 174.334C138.77 176.792 138.221 178.851 140.413 180.597C140.883 180.972 140.819 181.188 140.394 181.579C136.537 185.124 137.383 193.831 137.23 211.824C137.22 212.883 136.988 213.312 135.825 213.172C132.338 212.753 131.696 213.669 131.681 212.013C131.33 172.651 129.162 177.31 116.631 173.431C112.881 172.27 111.724 166.596 112.475 163.241C113.426 159.003 115.859 159.332 120.352 155.808C125.707 151.608 129.538 156.224 132.452 150.927C133.259 149.457 134.997 149.68 134.963 149.103C134.92 148.378 133.113 148.418 131.678 149.833C131.033 150.467 129.964 152.279 128.508 152.159C125.232 151.887 122.177 152.476 119.328 154.369C119.099 153.094 119.058 151.967 118.512 150.941C116.475 147.115 111.474 148.382 111.755 149.344C111.961 150.047 115.003 148.571 116.887 150.864C118.452 152.768 117.977 155.761 115.77 156.898C112.699 158.479 110.927 160.83 110.798 164.247C110.754 165.413 107.839 164.45 107.437 161.908C106.513 156.063 100.21 154.771 105.655 150.793C105.901 150.615 106.351 150.429 106.185 150.128C105.401 148.708 99.119 152.523 103.741 157.586C107.255 161.433 105.235 164.821 110.168 166.391C111.323 166.759 110.94 167.819 111.038 168.583C111.146 169.42 110.302 169.097 109.873 169.146C106.943 169.477 102.769 168.724 101.63 165.637C99.5682 160.05 101.956 159.103 97.1625 151.806C95.0006 148.515 95.2813 146.124 98.6549 143.118C99.026 142.786 99.4162 142.389 99.6599 143.262C100.444 146.063 103.27 147.352 106.492 145.183C107.99 144.174 109.173 142.814 110.445 141.564C114.309 137.764 116.313 142.213 117.154 140.661C117.45 140.117 116.672 139.772 116.224 139.482C111.302 136.286 108.891 142.524 105.007 144.456C101.611 146.145 100.021 142.544 100.731 140.741C101.9 137.764 102.426 139.994 103.524 135.31C104.234 132.279 107.381 129.561 112.87 130.073C118.249 130.576 121.991 128.048 126.568 125.06C132.353 121.285 135.453 127.897 142.015 125.531C148.29 123.268 147.674 131.031 148.474 131.045C149.169 131.059 149.514 129.272 149.25 128.555C148.897 127.595 149.464 127.311 150.221 127.247C155.061 126.841 157.989 127.98 160.817 132.437C162.632 135.3 162.174 137.37 162.174 141.096L162.171 141.094ZM125.504 168.047C125.837 169.256 126.637 169.698 127.49 170.06C131.593 171.801 134.89 171.129 138.128 167.635C142.133 163.317 145.968 163.917 152.075 163.643C160.703 163.257 161.913 152.08 159.957 152.291C159.472 152.342 159.756 152.953 159.757 153.303C159.778 157.604 156.713 161.28 152.387 161.929C149.295 162.394 142.401 161.023 137.689 165.856C134.015 169.624 132.098 170.318 125.504 168.045V168.047ZM147.997 154.183C150.705 150.344 150.636 145.827 147.901 144.193C148.096 144.965 148.267 145.636 148.434 146.308C149.759 151.668 146.798 154.928 142.497 155.023C137.196 155.138 134.188 158.259 134.604 158.888C135.26 159.881 135.141 157.274 143.361 156.332C144.918 156.154 146.54 156.114 148.007 155.645C156.066 153.069 159.765 144.327 156.993 138.475C156.579 139.687 156.581 140.688 156.568 141.687C156.477 148.592 151.872 153.294 147.999 154.183H147.997ZM137.351 141.819C136.524 141.65 135.913 142.031 135.261 142.18C132.279 142.864 130.601 141.268 131.241 138.371C131.989 134.995 134.463 132.689 134.27 129.046C134.084 125.527 129.778 124.382 129.552 125.442C129.445 125.94 129.991 125.907 130.312 125.981C132.246 126.428 133.187 128.447 132.809 130.228C132.123 133.462 129.656 136.126 129.6 139.513C129.512 144.832 135.536 144.869 137.349 141.818L137.351 141.819ZM122.386 142.536C122.244 141.399 121.216 140.311 122.453 137.863C123.842 135.109 126.163 132.36 124.161 130.512C122.131 128.639 119.522 130.118 119.657 130.65C119.835 131.347 121.865 129.834 123.202 131.546C124.131 132.738 122.784 133.93 121.149 137.153C120.211 139.003 120.786 141.545 122.386 142.535V142.536ZM125.845 162.801C124.862 160.726 118.498 161.326 116.592 165.164C115.143 168.084 117 170.459 117.829 170.052C118.685 169.63 115.501 165.102 121.294 163.296C122.741 162.845 124.234 163.036 125.847 162.801H125.845ZM150.897 131.904C144.087 131.938 142.459 140.687 145.782 136.378C148.861 132.385 152.017 133.522 153.731 133.442C154.902 133.387 153.636 131.89 150.897 131.904Z" fill="#283E70"/>
<path d="M212.092 107.616C211.442 110.139 208.094 111.215 206.081 109.588C203.635 107.614 207.204 104.693 209.87 105.747C210.633 106.049 210.982 105.941 211.056 105.128C211.999 94.6734 212.543 93.883 210.6 93.8657C207.404 93.839 204.24 94.0933 201.102 94.6948C198.817 95.1325 201.773 99.2405 197.29 109.859C196.275 112.261 190.644 113.553 190.365 109.848C190.207 107.763 193.555 106.538 195.646 107.568C196.133 107.809 196.327 107.731 196.49 107.229C200.453 95.0048 196.189 87.8056 199.023 86.6891C202.849 85.1813 206.821 84.8526 210.889 85.2305C213.712 85.4927 215.041 96.1666 212.091 107.615L212.092 107.616ZM199.979 92.68C199.931 94.5164 202.303 91.7272 210.73 92.7345C212.052 92.8929 211.777 92.1104 210.949 87.8893C210.509 85.651 203.695 87.1946 201.437 87.8094C199.017 88.4695 200.094 88.266 199.979 92.68Z" fill="#283E70"/>
<path d="M224.009 124.223C223.136 126.803 220.877 127.897 218.275 127.142C215.924 126.461 215.848 124.047 217.409 123.109C221.45 120.68 222.181 124.239 222.777 122.209C226.303 110.179 220.28 105.76 224.779 106.115C228.543 106.413 232.683 105.174 232.858 106.167C232.96 106.737 232.301 106.884 231.882 107.053C226.863 109.081 224.089 106.532 224.732 109.064C225.165 110.769 225.116 110.755 226.928 110.766C228.741 110.777 230.601 110.355 232.37 109.797C232.646 109.711 233.023 109.434 233.257 109.767C233.491 110.099 233.091 110.347 232.886 110.539C228.968 114.198 225.251 110.99 225.572 113.488C226.118 117.734 224.999 121.304 224.012 124.221L224.009 124.223Z" fill="#283E70"/>
<path d="M53.0777 152.631C52.2042 155.211 49.9451 156.305 47.3435 155.551C44.9927 154.869 44.916 152.455 46.477 151.517C50.5187 149.088 51.2499 152.647 51.8455 150.617C55.371 138.587 49.3481 134.168 53.8472 134.523C57.611 134.822 61.7514 133.583 61.9267 134.575C62.028 135.145 61.3694 135.293 60.9504 135.462C55.931 137.49 53.1572 134.94 53.8006 137.472C54.2333 139.177 54.1839 139.164 55.9968 139.174C57.8096 139.185 59.6689 138.763 61.4379 138.206C61.7145 138.119 62.0909 137.842 62.325 138.175C62.5592 138.508 62.1594 138.755 61.9541 138.947C58.0368 142.606 54.3196 139.398 54.64 141.896C55.1863 146.142 54.0677 149.713 53.0805 152.629L53.0777 152.631Z" fill="#283E70"/>
<path d="M128.091 69.9216C128.042 62.476 131.659 51.8833 132.852 49.5373C133.267 48.7215 131.373 46.4446 134.678 44.4698C136.238 43.5382 133.063 42.3405 136.024 41.063C136.722 40.7623 137.339 40.5347 136.883 39.5367C136.565 38.8393 136.533 38.0156 136.371 37.2491C135.98 35.414 137.032 35.6788 142.062 33.5549C144.557 32.5023 144.973 37.0561 146.58 36.5864C147.501 36.3176 148.34 35.9849 148.385 34.7367C148.455 32.8244 148.781 30.9201 148.894 29.0051C148.953 28.0257 149.322 27.4309 150.248 27.0131C161.079 22.1252 160.853 21.4971 162.34 22.7587C168.23 27.7569 168.217 27.6318 169.14 27.2406C180.403 22.4606 179.839 22.2809 180.904 24.5098C181.059 24.8333 180.917 24.5273 189.485 42.8769C193.794 52.1055 194.161 51.9312 192.534 52.6179C154.808 68.5415 150.929 69.8856 148.722 71.0261C146.991 71.9203 146.872 70.1344 138.182 50.8228C138.018 50.4594 137.808 49.8114 137.284 50.1986C136.759 50.5858 135.578 49.9444 135.657 51.3803C136.008 57.7253 135.333 62.1261 141.701 70.6043C144.397 74.1946 147.744 77.9393 148.722 81.8743C151.173 91.7431 128.239 92.2741 128.09 69.9202L128.091 69.9216ZM153.174 42.2673C152.844 44.4803 153.025 43.9614 140.301 49.1433C138.737 49.7807 139.405 49.9085 141.532 54.5914C148.434 69.7819 147.737 70.0147 149.699 69.1178C153.08 67.5715 174.85 58.3601 176.742 57.555C191.624 51.2273 192.052 52.0682 191.094 50.1787C189.8 47.625 182.735 32.1617 182.721 32.131C182.252 31.1077 182.446 31.4285 173.45 35.2637C172.195 35.7986 170.397 36.7234 169.862 35.4965C169.578 34.8471 170.462 34.943 170.813 34.7913C174.083 33.3727 177.376 32.0033 180.677 30.6566C182.766 29.8049 180.537 28.594 179.784 25.5346C179.304 23.5783 173.598 27.6983 136.941 42.403C135.838 42.8463 136.639 43.147 138.234 47.5091C138.801 49.0582 138.346 48.5272 153.177 42.2701L153.174 42.2673ZM129.514 69.6315C129.41 82.521 137.066 87.6922 144.13 86.5757C146.745 86.1619 148.193 84.219 146.593 80.5622C144.089 74.8373 137.224 69.6009 135.099 61.6803C132.76 52.9625 135.299 50.4182 134.136 50.2159C133.43 50.0934 129.564 63.2945 129.514 69.6315ZM149.938 34.3267C149.769 35.8239 150.062 35.1651 165.969 28.5261C167.208 28.0085 166.479 28.1522 161.598 24.2224C160.561 23.3881 160.945 23.7035 151.412 28.1029C150.279 28.6259 150.583 28.598 149.938 34.3282V34.3267ZM138.342 36.5677C137.929 36.7461 137.908 37.1227 138.044 37.4794C138.333 38.2405 138.115 39.1361 138.705 39.7962C138.839 39.9465 139.763 39.4328 144.257 37.5738C144.953 37.2864 144.649 37.1307 143.668 35.8612C142.637 34.5264 143.382 34.3986 138.342 36.5664V36.5677ZM135.986 48.7055C136.351 48.6749 137.106 48.6536 136.985 48.2929C136.089 45.5888 135.932 45.4584 135.46 45.7871C133.636 47.0514 134.489 48.8292 135.986 48.7068V48.7055Z" fill="#283E70"/>
<path d="M153.277 47.3316C153.262 40.8629 158.462 35.7489 165.022 35.7794C171.361 35.8087 176.519 40.9201 176.538 47.1945C176.557 53.5182 171.271 58.5325 164.585 58.5379C158.502 58.5432 153.291 53.3772 153.277 47.3304V47.3316ZM174.845 47.2691C174.884 34.1745 154.897 34.3715 154.738 47.1241C154.674 52.2873 159.374 56.9223 164.596 56.9277C170.389 56.933 174.827 52.7491 174.843 47.2691H174.845Z" fill="#283E70"/>
<path d="M170.968 47.2302C170.982 50.5105 168.342 53.0495 164.867 53.0908C161.748 53.128 158.862 50.3215 158.913 47.2954C159.043 39.5518 170.934 39.5491 170.967 47.2302H170.968ZM165.034 51.7853C167.489 51.7693 169.585 49.6241 169.533 47.1809C169.481 44.7736 167.388 42.7163 164.996 42.7269C158.806 42.7536 158.735 51.8278 165.036 51.7867L165.034 51.7853Z" fill="#283E70"/>
<path d="M40.6487 109.129C39.3987 110.002 38.2705 110.149 36.8658 109.515C-2.44454 91.7439 14.4317 46.7301 57.9454 55.706C75.1999 59.2658 90.5635 73.1387 88.7369 90.2907C88.5548 92.0061 86.8955 90.352 83.4588 90.1018C77.6768 89.6813 73.3146 93.1292 71.4498 97.7962C71.0172 98.8794 68.8743 99.9386 69.2714 98.3404C71.1184 90.9015 78.6243 86.5659 86.2998 88.6327C89.579 89.5163 86.1478 64.6193 58.9397 57.8432C18.5203 47.7762 -3.20174 91.1146 40.6487 109.129Z" fill="#283E70"/>
<path d="M31.457 118.851C24.1826 116.47 35.9917 113.341 66.8269 101.534C80.683 96.228 78.7085 95.8407 80.9308 100.824C81.1868 101.399 81.0047 101.788 80.3229 102.097C79.3042 102.557 37.2267 117.479 31.4584 118.849L31.457 118.851ZM31.8911 117.529C33.389 117.507 32.9303 117.339 74.2957 102.793C76.0304 102.183 76.0085 102.215 75.3321 100.598C74.8571 99.4643 74.8023 99.7956 69.6858 101.736C44.4478 111.303 25.7394 117.62 31.8924 117.529H31.8911ZM79.5342 100.762C79.4944 99.9047 78.6524 98.5155 78.2622 98.5181C77.4284 98.5235 76.0167 99.3472 76.2235 99.7252C76.596 100.403 76.418 101.644 77.26 101.7C77.9774 101.748 79.0359 101.478 79.5342 100.762Z" fill="#283E70"/>
<path d="M30.4102 85.7451C21.475 85.4523 17.7276 76.7824 24.7541 73.0937C28.3989 71.1801 33.6155 71.9585 36.4797 74.8503C41.1637 79.5797 36.5811 85.9474 30.4102 85.7451ZM29.9913 84.1175C34.6301 84.2347 37.8161 81.1873 36.3195 77.8844C34.3849 73.6139 27.5733 72.2673 24.071 75.4624C20.5686 78.6575 23.7054 83.9579 29.9913 84.1162V84.1175Z" fill="#283E70"/>
<path d="M49.8499 72.3302C43.5188 72.2064 43.6654 62.9644 50.0745 63.0961C56.5151 63.2278 56.0083 72.4512 49.8499 72.3302Z" fill="#283E70"/>
<path d="M77.0799 85.9551C70.5092 86.019 70.7092 76.6359 76.7814 76.5813C83.3014 76.5228 82.9948 85.8978 77.0799 85.9551Z" fill="#283E70"/>
<path d="M70.9463 72.0295C70.5821 78.9081 61.0733 77.7398 61.4566 71.8485C61.6168 69.3799 63.9307 67.2654 66.3021 67.4158C68.9569 67.5848 71.0709 69.6847 70.9478 72.0295H70.9463Z" fill="#283E70"/>
<path d="M51.6875 113.196C57.5516 110.066 59.5013 113.329 70.4903 109.094C72.8686 108.178 69.2347 107.234 70.7545 106.382C72.199 105.573 72.1634 107.076 73.3354 108.279C74.1624 109.128 73.8105 109.52 72.8658 109.931C65.9543 112.939 59.0864 113.849 51.6875 113.196Z" fill="#283E70"/>
<path d="M85.5263 101.006C80.3577 101.018 79.465 94.1099 85.7823 94.0753C86.8913 94.0686 89.5736 94.8737 92.6255 93.3447C93.5605 92.8763 94.3437 93.5151 94.0248 94.5438C93.143 97.3848 88.8027 100.999 85.5263 101.006ZM92.5049 94.6556C90.3115 95.9956 87.7813 95.2371 84.9936 95.3528C82.2402 95.4673 81.3393 98.2432 84.2611 99.4541C87.0529 100.612 92.9992 95.9822 92.5036 94.6556H92.5049Z" fill="#283E70"/>
<path d="M50.1648 180.545C51.3998 181.875 50.1991 177.531 60.2323 173.88C63.3596 172.742 71.4842 171.141 73.7557 173.519C96.5195 197.339 98.6581 198.774 95.3365 198.787C86.0974 198.824 77.1963 204.7 72.878 211.49C72.1044 212.708 71.7348 212.791 70.4231 212.125C56.2207 204.929 42.3263 208.619 33.5143 218.804C31.7343 220.862 32.3409 220.182 18.1385 196.834C15.4631 192.437 14.673 191.782 15.5479 189.662C20.3469 178.04 43.7858 173.679 50.1661 180.545H50.1648ZM69.5016 209.89C60.3719 196.879 56.1494 190.994 50.8768 183.021C46.0175 175.674 25.6375 177.9 17.9002 188.474C15.6397 191.563 16.3065 190.209 31.9698 216.46C33.2911 218.673 32.8872 216.038 38.9402 212.246C54.223 202.674 64.7327 208.446 69.5016 209.891V209.89ZM94.3426 197.361L72.4234 174.318C71.0242 172.846 61.8425 173.457 54.9363 178.098C53.5289 179.044 50.9726 181.456 51.9721 182.782C56.2233 188.427 59.9489 193.946 71.12 210.141C72.5124 212.161 71.4664 209.186 77.4798 204.19C82.2486 200.228 88.1018 197.495 94.3426 197.361Z" fill="#283E70"/>
<path d="M32.8843 225.348C31.919 225.216 31.8273 224.564 32.3545 224.053C33.0363 223.394 63.7468 215.001 69.5535 213.625C69.9342 213.535 70.5243 213.141 70.6967 213.752C71.0446 214.985 35.1023 224.786 32.8843 225.348Z" fill="#283E70"/>
<path d="M12.3102 198.069C13.4165 198.129 29.4071 224.615 29.4236 224.646C30.0028 225.709 28.7979 226.376 28.1311 225.335C23.6059 218.275 16.5711 207.245 12.6759 200.554C12.3431 199.983 11.6709 199.605 11.7325 198.792C11.7667 198.346 11.9215 198.149 12.3089 198.069H12.3102Z" fill="#283E70"/>
<path d="M73.9354 213.417C68.6257 213.4 88.5199 205.554 93.8664 203.277C94.7674 202.893 95.8066 202.515 96.1351 203.279C96.5131 204.158 95.7887 204.541 93.0613 205.704C91.6676 206.297 75.1936 213.421 73.9354 213.417Z" fill="#283E70"/>
<path d="M67.7563 212.637C65.8818 214.412 56.9261 205.998 34.4566 221.557C31.695 223.469 46.3698 205.799 67.7563 212.637Z" fill="#283E70"/>
<path d="M15.8007 198.578C15.3681 197.847 14.2358 196.829 15.0518 196.288C15.7693 195.811 16.2512 197.242 16.6961 197.905C38.3606 230.183 26.5049 216.633 15.8007 198.578Z" fill="#283E70"/>
<path d="M74.377 211.275C76.6265 206.026 92.3556 200.092 92.7294 201.652C92.9005 202.369 85.4932 203.257 76.1815 210.03C75.6544 210.414 75.2642 210.994 74.377 211.276V211.275Z" fill="#283E70"/>
<path d="M48.1104 188.855C38.9589 189.515 33.5423 189.443 25.6011 196.628C21.5223 200.319 27.5495 188.337 40.8113 187.969C42.6692 187.917 46.7878 187.583 48.1104 188.855Z" fill="#283E70"/>
<path d="M46.4972 184.279C25.6706 183.225 22.6421 194.285 21.3633 193.515C20.3446 192.902 28.205 181.668 43.7835 183.263C44.6981 183.357 45.5236 183.644 46.4972 184.279Z" fill="#283E70"/>
</svg>
