<svg width="295" height="280" viewBox="0 0 295 280" fill="none" xmlns="http://www.w3.org/2000/svg">
<path d="M238.662 135.5H191.414V263.286H238.662V135.5Z" fill="#283E70"/>
<path opacity="0.2" d="M204.753 135.376H191.402V263.311H204.753V135.376Z" fill="#283E70"/>
<path d="M191.349 186.604H144.102V263.285H191.349V186.604Z" fill="#283E70"/>
<path opacity="0.2" d="M158.299 186.604H144.102V263.205H158.299V186.604Z" fill="#283E70"/>
<path d="M144.064 202.886H96.8164V263.285H144.064V202.886Z" fill="#283E70"/>
<path opacity="0.2" d="M110.87 202.886H96.8164V263.205H110.87V202.886Z" fill="#283E70"/>
<path d="M96.8027 219.171H49.5566V263.287H96.8027V219.171Z" fill="#283E70"/>
<path opacity="0.2" d="M62.9096 219.127H49.5586V263.205H62.9096V219.127Z" fill="#283E70"/>
<path d="M178.015 36.7815C175.771 39.4941 173.46 42.1515 171.147 44.805L169.399 46.7845L167.831 48.5332C167.186 49.2942 166.761 50.2492 166.61 51.2896L166.084 56.444C165.908 58.1927 165.738 59.9407 165.532 61.6886C165.147 65.1837 164.745 68.6779 164.276 72.169C164.112 73.3931 162.986 74.2515 161.763 74.087C160.683 73.9417 159.888 73.0482 159.829 71.9997C159.626 68.4863 159.492 64.9761 159.373 61.4674C159.302 59.7123 159.266 57.9588 159.222 56.2053L159.104 50.8536C159.136 48.3918 159.949 45.9165 161.357 43.8388L163.095 41.5007L164.671 39.407C166.789 36.629 168.91 33.8566 171.097 31.1377C172.643 29.2165 175.453 28.9123 177.374 30.4582C179.295 32.0041 179.6 34.814 178.054 36.7352C178.045 36.744 178.023 36.772 178.015 36.7815Z" fill="#283E70"/>
<path d="M159.274 72.4039L156.355 77.3586L163.074 78.0406L164.257 73.01C164.396 72.4143 164.014 71.813 163.41 71.7092C162.296 71.5184 160.554 71.4393 159.274 72.4039Z" fill="#CB7A63"/>
<path d="M156.355 77.3584L156.662 79.1111C156.813 79.9775 157.567 80.6083 158.446 80.6059L160.634 80.6003C161.301 80.5987 161.911 80.2298 162.224 79.6413L163.074 78.0403L156.355 77.3584Z" fill="#CB7A63"/>
<path d="M158.799 68.6895L165.266 68.9106L164.849 72.7738L159.387 72.3522L158.799 68.6895Z" fill="#283E70"/>
<path opacity="0.3" d="M158.799 68.6895L165.266 68.9106L164.849 72.7738L159.387 72.3522L158.799 68.6895Z" fill="white"/>
<path d="M165.322 109.252L164.26 110.849L163.447 109.199L165.383 84.1276C165.69 80.1415 164.347 76.8668 159.388 76.7462C154.75 76.6336 151.935 79.8021 151.612 83.7811L149.581 108.807L148.471 110.399L147.713 108.754L149.756 83.7339C150.134 79.1082 152.187 75.3967 159.48 75.5724C166.787 75.7489 167.601 79.5378 167.245 84.1739L165.322 109.252Z" fill="#263238"/>
<path d="M144.77 92.3395L143.488 92.3331C140.818 92.3203 138.555 94.2966 138.208 96.9445L135.844 115.012L144.163 115.309L144.77 92.3395Z" fill="#263238"/>
<path opacity="0.2" d="M144.77 92.3395L143.488 92.3331C140.818 92.3203 138.555 94.2966 138.208 96.9445L135.844 115.012L144.163 115.309L144.77 92.3395Z" fill="white"/>
<path d="M168.257 109.463L166.377 109.41L166.56 84.3385C166.589 80.3524 165.016 77.0777 160.049 76.9571C155.403 76.8446 152.81 80.013 152.765 83.992L152.484 109.018L150.611 108.965L150.905 83.9449C150.959 79.3191 152.753 75.6077 160.058 75.7833C167.378 75.9598 168.456 79.7487 168.425 84.3849L168.257 109.463Z" fill="#263238"/>
<path d="M177.074 116.286L140.1 115.189L140.457 96.5501C140.492 94.1625 142.422 92.2788 144.77 92.3403L171.69 93.0446C174.731 93.1245 177.186 95.6869 177.174 98.7731L177.074 116.286Z" fill="#263238"/>
<path opacity="0.4" d="M172.978 116.164L144.164 115.308C141.918 115.242 140.127 113.326 140.161 111.032L140.457 96.5491C140.492 94.1616 142.423 92.2779 144.77 92.3394L171.69 93.0436C174.731 93.1235 177.187 95.6859 177.174 98.7721L177.092 112.11C177.083 114.414 175.24 116.231 172.978 116.164Z" fill="white"/>
<g opacity="0.3">
<path d="M168.257 109.463L167.306 111.06L166.378 109.41L166.561 84.3384C166.59 80.3522 165.017 77.0775 160.05 76.957C155.404 76.8444 152.811 80.0128 152.766 83.9918L152.485 109.018L151.486 110.61L150.613 108.964L150.907 83.9439C150.961 79.3181 152.755 75.6067 160.06 75.7824C167.38 75.9588 168.458 79.7477 168.427 84.3839L168.257 109.463Z" fill="white"/>
</g>
<path d="M153.122 99.3476L150.041 99.2637L150.055 98.1035L153.135 98.1866L153.122 99.3476Z" fill="#263238"/>
<path d="M153.038 106.869L149.949 106.783L149.964 105.618L153.051 105.704L153.038 106.869Z" fill="#263238"/>
<path d="M168.957 99.7738L165.863 99.6908L165.872 98.5273L168.965 98.6104L168.957 99.7738Z" fill="#263238"/>
<path d="M168.909 107.313L165.809 107.227L165.817 106.059L168.916 106.145L168.909 107.313Z" fill="#263238"/>
<path d="M163.062 100.277L156.445 100.098L156.47 97.6152L163.082 97.7925L163.062 100.277Z" fill="white"/>
<path d="M191.609 8.7626C191.863 8.71389 192.134 8.979 192.217 9.36388C192.299 9.74876 192.166 10.1097 191.912 10.1584C191.657 10.2071 191.387 9.942 191.304 9.55712C191.201 9.15946 191.354 8.81131 191.609 8.7626Z" fill="#263238"/>
<path d="M191.656 9.08517C191.916 8.9638 192.155 8.6923 192.259 8.4248C192.037 8.63322 191.731 8.749 191.426 8.74181C191.542 8.80729 191.649 8.95102 191.656 9.08517Z" fill="#263238"/>
<path d="M192.165 12.9933C192.836 13.0212 193.484 12.7505 193.936 12.2547C192.957 11.4051 192.101 10.4269 191.387 9.3457L192.165 12.9933Z" fill="#B74D3C"/>
<path d="M189.47 8.13293C189.84 7.669 190.411 7.41187 191.004 7.44301C191.029 7.451 191.054 7.45499 191.081 7.45419C191.211 7.4518 191.314 7.344 191.311 7.21385C191.309 7.08369 191.201 6.98068 191.072 6.98308C190.331 6.92319 189.606 7.22502 189.128 7.79436C189.091 7.83668 189.072 7.89098 189.072 7.94767C189.072 8.07783 189.178 8.18323 189.308 8.18323C189.366 8.18802 189.424 8.16966 189.47 8.13293Z" fill="#263238"/>
<path d="M187.04 31.2091C180.397 31.2802 179.379 27.6645 179.379 27.6645C181.352 25.7274 181.45 22.182 181.031 19.0215C181.54 19.7361 182.174 20.3606 183.004 20.9139C184.593 21.9584 188.04 20.2799 188.04 20.2799C188.049 20.2799 188.04 20.8692 188.085 21.7173C188.192 23.7886 188.647 27.4226 190.532 27.9855C190.532 27.9855 194.362 31.1293 187.04 31.2091Z" fill="#CB7A63"/>
<path d="M188.138 20.8191C188.067 21.1241 187.996 21.4299 187.954 21.7533C187.927 21.7717 187.899 21.7813 187.871 21.7821C186.315 22.1686 184.595 21.9562 183.006 20.9117C182.169 20.3575 181.535 19.7371 181.029 19.0224C180.929 18.2207 180.782 17.4374 180.635 16.7188L187.868 20.6746L188.138 20.8191Z" fill="#CB7A63"/>
<path d="M192.898 15.3958C192.851 17.852 191.507 19.9249 189.627 21.0524H189.618C189.609 21.062 189.599 21.062 189.59 21.062C189.085 21.3814 188.534 21.609 187.954 21.7535C187.927 21.7719 187.899 21.7815 187.871 21.7823C186.316 22.1687 184.596 21.9563 183.007 20.9119C182.17 20.3577 181.536 19.7373 181.03 19.0226C179.727 17.2364 179.184 14.852 178.253 11.5015C177.966 10.5169 177.908 9.47487 178.091 8.46635C178.744 4.85949 182.199 2.46796 185.797 3.12114C190.846 4.01786 192.997 10.9082 192.898 15.3958Z" fill="#CB7A63"/>
<path opacity="0.2" d="M189.264 21.1824C188.8 21.477 188.568 21.5928 188.086 21.7182C188.041 20.8702 188.051 20.2809 188.041 20.2809C188.086 19.5398 188.139 18.7988 188.139 18.7988C188.139 18.8252 188.916 21.1824 189.264 21.1824Z" fill="black"/>
<path d="M191.153 6.33667C190.612 7.19586 188.91 7.9225 188.967 7.72288C189.26 7.00981 189.206 5.64117 188.322 5.96137C188.566 6.50675 189.299 10.6071 188.967 11.1046C188.785 11.3768 188.613 14.6571 187.217 17.5493C186.103 19.857 186.103 20.5725 186.103 20.5725L181.568 21.4476C179.871 21.2352 178.289 19.0665 178.15 18.8261C177.557 17.8064 175.745 16.4673 174.803 15.7591C174.396 15.4524 174.077 15.0013 173.905 14.5174C173.594 13.647 174.229 10.5105 174.367 9.03562C174.566 6.91399 175.68 4.95126 178.757 3.69121C180.66 2.91187 182.261 1.20227 184.202 0.52593C186.144 -0.150406 188.454 -0.120066 190.094 1.12002C190.9 1.73008 192.508 4.18309 191.153 6.33667Z" fill="#263238"/>
<path d="M188.783 9.32315C190.181 9.73279 190.909 11.7913 190.969 13.0993C191.037 14.5438 190.072 15.4565 188.813 14.4895C187.864 13.7445 187.187 12.7088 186.885 11.5414C186.543 10.1257 187.386 8.91272 188.783 9.32315Z" fill="#CB7A63"/>
<path d="M190.462 14.1325C190.462 14.4695 190.189 14.7426 189.852 14.7426C189.515 14.7426 189.242 14.4695 189.242 14.1325C189.242 13.7956 189.515 13.5225 189.852 13.5225C190.189 13.5225 190.462 13.7956 190.462 14.1325Z" fill="#283E70"/>
<path opacity="0.3" d="M190.462 14.1325C190.462 14.4695 190.189 14.7426 189.852 14.7426C189.515 14.7426 189.242 14.4695 189.242 14.1325C189.242 13.7956 189.515 13.5225 189.852 13.5225C190.189 13.5225 190.462 13.7956 190.462 14.1325Z" fill="#283E70"/>
<path d="M177.471 30.0582C177.471 30.0582 178.503 26.8729 180.059 25.8668C181.617 24.8607 188.451 25.9044 189.522 26.3236C190.593 26.7428 191.674 29.211 191.674 29.211L177.471 30.0582Z" fill="#283E70"/>
<path opacity="0.3" d="M177.471 30.0582C177.471 30.0582 178.503 26.8729 180.059 25.8668C181.617 24.8607 188.451 25.9044 189.522 26.3236C190.593 26.7428 191.674 29.211 191.674 29.211L177.471 30.0582Z" fill="#283E70"/>
<path d="M193.078 28.6974C192.014 28.5226 191.721 28.362 190.502 28.2662C186.836 28.0938 183.161 28.1337 179.499 28.3852C178.162 28.481 176.875 28.7397 175.598 29.0456C172.975 29.6756 171.207 32.1198 171.401 34.7908C171.946 42.2665 174.155 46.6527 174.481 51.5739C175.13 61.3787 173.566 68.2531 173.3 70.5416L178.327 71.305C187.305 71.0918 193.266 69.1618 198.207 67.0601C198.207 67.0601 196.912 55.2063 198.164 50.9351C201.586 39.2657 199.364 37.4195 198.69 34.0786C198.127 31.3014 195.893 29.159 193.078 28.6974Z" fill="#283E70"/>
<path opacity="0.1" d="M198.165 50.9324C197.755 52.325 197.62 54.5216 197.62 56.8429C197.62 61.6643 198.21 67.0574 198.21 67.0574C193.272 69.1647 187.308 71.0931 178.325 71.3071L173.299 70.5389C173.566 68.2528 175.129 61.3784 174.486 51.5744C174.156 46.6548 171.951 42.271 171.405 34.7881C171.209 32.1187 172.977 29.6721 175.602 29.0469C176.878 28.7347 178.164 28.4847 179.503 28.3865C183.164 28.1366 186.833 28.0919 190.503 28.2611C191.718 28.3594 192.013 28.5199 193.075 28.6987C195.896 29.1627 198.128 31.2971 198.69 34.0831C198.932 35.2792 199.378 36.2885 199.681 37.6276C200.056 39.2526 200.235 41.3686 199.61 44.9132C199.325 46.5749 198.861 48.548 198.165 50.9324Z" fill="#283E70"/>
<path d="M194.523 28.3351C196.358 28.5939 198.177 28.9604 200.004 29.2686C201.824 29.62 203.643 29.9809 205.457 30.3713L204.8 30.3194C205.61 30.3554 206.322 30.4185 206.772 30.4464C206.989 30.4624 207.141 30.4584 207.085 30.4911C207.074 30.5095 206.967 30.543 206.844 30.6229C206.689 30.7059 206.502 30.8409 206.299 31.0485C205.881 31.4677 205.713 32.029 205.725 32.1951C205.722 32.3764 205.779 32.3341 205.789 32.1935C205.82 31.9053 205.758 31.3543 205.639 30.7874L205.722 31.0229C204.802 28.3655 203.927 25.6897 203.127 22.9844C202.35 20.2702 201.603 17.5441 201.073 14.7334C200.869 13.6546 201.579 12.6141 202.659 12.4105C203.484 12.2548 204.288 12.6381 204.711 13.3072C206.232 15.7299 207.536 18.2372 208.809 20.7565C210.06 23.2854 211.236 25.843 212.366 28.4182L212.449 28.6538C212.758 29.4682 213.06 30.325 213.241 31.4773C213.324 32.0554 213.383 32.7437 213.251 33.638C213.129 34.5124 212.65 35.7653 211.706 36.6859C211.244 37.1483 210.745 37.4733 210.27 37.7224C209.816 37.95 209.37 38.1113 209.006 38.2103C208.246 38.4203 207.675 38.4818 207.17 38.5337C206.174 38.6279 205.438 38.6319 204.802 38.6694L204.7 38.6758L204.144 38.6175C202.298 38.4243 200.457 38.2023 198.617 37.9699C196.785 37.6953 194.943 37.4781 193.118 37.1531C190.691 36.7211 189.073 34.4022 189.506 31.974C189.928 29.6024 192.158 28.0054 194.523 28.3351Z" fill="#283E70"/>
<g opacity="0.1">
<path d="M194.523 28.3351C196.358 28.5939 198.177 28.9604 200.004 29.2686C201.824 29.62 203.643 29.9809 205.457 30.3713L204.8 30.3194C205.61 30.3554 206.322 30.4185 206.772 30.4464C206.989 30.4624 207.141 30.4584 207.085 30.4911C207.074 30.5095 206.967 30.543 206.844 30.6229C206.689 30.7059 206.502 30.8409 206.299 31.0485C205.881 31.4677 205.713 32.029 205.725 32.1951C205.722 32.3764 205.779 32.3341 205.789 32.1935C205.82 31.9053 205.758 31.3543 205.639 30.7874L205.722 31.0229C204.802 28.3655 203.927 25.6897 203.127 22.9844C202.35 20.2702 201.603 17.5441 201.073 14.7334C200.869 13.6546 201.579 12.6141 202.659 12.4105C203.484 12.2548 204.288 12.6381 204.711 13.3072C206.232 15.7299 207.536 18.2372 208.809 20.7565C210.06 23.2854 211.236 25.843 212.366 28.4182L212.449 28.6538C212.758 29.4682 213.06 30.325 213.241 31.4773C213.324 32.0554 213.383 32.7437 213.251 33.638C213.129 34.5124 212.65 35.7653 211.706 36.6859C211.244 37.1483 210.745 37.4733 210.27 37.7224C209.816 37.95 209.37 38.1113 209.006 38.2103C208.246 38.4203 207.675 38.4818 207.17 38.5337C206.174 38.6279 205.438 38.6319 204.802 38.6694L204.7 38.6758L204.144 38.6175C202.298 38.4243 200.457 38.2023 198.617 37.9699C196.785 37.6953 194.943 37.4781 193.118 37.1531C190.691 36.7211 189.073 34.4022 189.506 31.974C189.928 29.6024 192.158 28.0054 194.523 28.3351Z" fill="#283E70"/>
</g>
<path d="M227.544 11.1455L251.484 10.4117L251.117 2.91211L227.225 4.48517L227.544 11.1455Z" fill="#283E70"/>
<path d="M209.448 11.4333L228.807 10.8104L228.512 4.66113L209.188 5.9076L209.448 11.4333Z" fill="#283E70"/>
<path d="M226.251 10.9672L227.519 11.1014L227.205 4.53125L225.955 4.78677L226.251 10.9672Z" fill="#263238"/>
<path opacity="0.2" d="M226.251 10.9672L227.519 11.1014L227.205 4.53125L225.955 4.78677L226.251 10.9672Z" fill="black"/>
<path d="M227.522 11.1464L228.822 11.1064L228.5 4.40137L227.203 4.48681L227.522 11.1464Z" fill="#263238"/>
<path d="M206.443 10.5239L208.364 11.4159L208.11 6.02832L206.281 7.10072L206.443 10.5239Z" fill="#263238"/>
<path d="M196.604 10.4566L202.297 10.1604L202.178 7.63867L196.488 7.97884L196.604 10.4566Z" fill="#263238"/>
<path opacity="0.2" d="M196.604 10.4566L202.297 10.1604L202.178 7.63867L196.488 7.97884L196.604 10.4566Z" fill="black"/>
<path d="M201.518 10.6704L207.852 10.4269L207.686 6.89746L201.359 7.27196L201.518 10.6704Z" fill="#263238"/>
<path opacity="0.2" d="M206.443 10.5239L208.364 11.4159L208.11 6.02832L206.281 7.10072L206.443 10.5239Z" fill="black"/>
<path d="M208.397 11.4672L209.447 11.4329L209.187 5.90723L208.139 5.9751L208.397 11.4672Z" fill="#263238"/>
<path d="M250.668 10.4359L254.424 10.3018L254.055 2.77344L250.303 2.96508L250.668 10.4359Z" fill="#263238"/>
<path d="M252.332 10.9686L257.123 10.8344L257.242 10.503C258.266 7.66274 258.062 4.5246 256.68 1.84082L251.9 2.1714L252.005 2.42214C253.14 5.13866 253.257 8.17379 252.332 10.9686Z" fill="#283E70"/>
<g opacity="0.4">
<path d="M247.229 3.74478L249.167 3.625L249.206 4.45146L247.238 4.56484C247.19 4.29495 247.206 4.01867 247.229 3.74478Z" fill="#283E70"/>
<path d="M246.057 3.83594C246.036 4.10903 246.024 4.38292 246.066 4.65122L229.261 5.60304L229.221 4.85643L246.057 3.83594Z" fill="#283E70"/>
</g>
<g opacity="0.4">
<path d="M209.598 6.3433L209.633 7.01325L225.422 6.0758L225.387 5.34277L209.598 6.3433Z" fill="#283E70"/>
</g>
<g opacity="0.4">
<path d="M252.324 2.43148L252.371 3.26831L256.116 3.02157L256.076 2.16797L252.324 2.43148Z" fill="#283E70"/>
</g>
<path opacity="0.3" d="M256.643 9.72949C256.619 10.0154 256.605 10.302 256.65 10.5847L252.772 10.7172L252.725 9.87961L256.643 9.72949Z" fill="black"/>
<path opacity="0.3" d="M249.697 9.2627C249.675 9.53978 249.662 9.81765 249.705 10.0907L229.15 10.8254L229.109 10.0796L249.697 9.2627Z" fill="black"/>
<path opacity="0.3" d="M225.232 9.98438C225.216 10.2287 225.207 10.4755 225.242 10.7174L209.969 11.254L209.934 10.5825L225.232 9.98438Z" fill="black"/>
<path d="M195.326 8.07627L195.376 10.4878C195.384 10.8974 195.755 11.224 196.206 11.216L198.163 11.1825L198.082 7.23145L196.126 7.30331C195.675 7.32088 195.318 7.66584 195.326 8.07627Z" fill="#283E70"/>
<path d="M205.442 14.7663L206.185 10.2723C206.216 10.0854 206.222 9.89539 206.206 9.70774L205.992 7.3258C205.957 7.01757 205.741 6.71494 205.406 6.61193L201.816 6.57041C201.342 6.42109 200.821 6.64786 200.664 7.06948L200.02 10.0136C199.971 10.234 199.976 10.4631 200.033 10.6811L201.098 14.7351C201.201 15.0737 201.514 15.3372 201.9 15.4115L204.246 15.4322C204.799 15.5384 205.329 15.2438 205.442 14.7663Z" fill="#CE7A63"/>
<path d="M207.555 16.659L201.45 18.8061L200.434 15.0556L205.675 13.4609L207.555 16.659Z" fill="#283E70"/>
<path opacity="0.3" d="M207.555 16.659L201.45 18.8061L200.434 15.0556L205.675 13.4609L207.555 16.659Z" fill="#283E70"/>
<path opacity="0.2" d="M199.612 44.9147L194.934 36.084L199.684 37.6283C200.058 39.2541 200.237 41.3701 199.612 44.9147Z" fill="black"/>
<path d="M223.731 118.225L222.764 130.219L228.223 130.323L229.721 117.967L223.731 118.225Z" fill="#CE7A63"/>
<path d="M229.088 128.684L222.86 128.811C222.626 128.815 222.424 128.993 222.375 129.241L221.303 134.703C221.204 135.187 221.489 135.661 221.939 135.762C221.996 135.775 222.056 135.782 222.115 135.782C224.359 135.695 226.354 135.522 229.149 135.469C232.447 135.404 231.615 135.844 235.493 135.825C237.829 135.81 238.229 132.951 237.237 132.831C232.696 132.31 232.212 130.85 230.445 129.143C230.061 128.816 229.578 128.653 229.088 128.684Z" fill="#263238"/>
<path d="M164.118 169.626L161.91 180.642L167.78 182.435L170.607 171.183L164.118 169.626Z" fill="#CE7A63"/>
<path d="M195.524 67.543C195.524 67.543 187.169 116.303 182.631 130.653C179.4 140.871 170.733 174.299 170.733 174.299L162.871 172.556C162.871 172.556 161.992 149.802 166.365 138.057C167.856 134.05 169.803 130.435 170.33 127.951C172.582 117.338 167.941 98.0843 169.992 83.7239C171.105 75.9401 173.48 70.3888 173.48 70.3888L195.524 67.543Z" fill="#263238"/>
<path d="M182.631 130.653C179.4 140.871 170.733 174.299 170.733 174.299L162.871 172.556C162.871 172.556 161.992 149.802 166.365 138.057C167.856 134.05 169.803 130.435 170.33 127.951C172.582 117.338 167.941 98.0841 169.992 83.7237C171.105 75.9399 173.48 70.3887 173.48 70.3887" fill="#263238"/>
<path opacity="0.2" d="M185.279 82.6152L189.485 99.13L192.562 83.3331L185.279 82.6152Z" fill="black"/>
<path d="M230.106 123.978L222.424 124.226C222.424 124.226 222.991 114.172 222.991 99.5119C222.991 97.2521 223.343 95.0243 223.838 93.028C224.932 88.5484 226.704 85.2106 226.704 85.2106C226.704 85.2106 225.882 85.2585 224.477 85.3224C220.133 85.546 193.205 86.937 192.678 86.8971C192.279 86.8571 189.833 87.1813 185.446 85.0429C177.294 81.0688 177.213 69.9112 177.213 69.9112L198.206 67.0605C198.206 67.0765 198.549 67.1244 203.604 67.2123C218.927 67.4758 237.758 68.0691 241.063 73.3296C245.711 80.7302 230.106 123.978 230.106 123.978Z" fill="#263238"/>
<path d="M168.074 179.583L161.632 179.67C161.39 179.673 161.191 179.853 161.154 180.101L160.352 185.607C160.278 186.095 160.6 186.576 161.071 186.681C161.132 186.695 161.192 186.702 161.254 186.702C163.573 186.628 165.63 186.467 168.521 186.432C171.933 186.387 171.096 186.827 175.11 186.832C177.529 186.833 177.781 183.949 176.747 183.821C172.016 183.266 171.431 181.789 169.506 180.054C169.091 179.722 168.581 179.554 168.074 179.583Z" fill="#263238"/>
<path opacity="0.2" d="M223.834 93.0282C224.928 88.5485 226.701 85.2108 226.701 85.2108C226.701 85.2108 225.878 85.2587 224.473 85.3226C224.409 85.2986 224.345 85.2827 224.265 85.2827L229.864 84.8115L223.834 93.0282Z" fill="black"/>
<path d="M88.6276 48.2052C96.7731 48.2052 103.376 41.8232 103.376 33.9507C103.376 26.0782 96.7731 19.6963 88.6276 19.6963C80.4821 19.6963 73.8789 26.0782 73.8789 33.9507C73.8789 41.8232 80.4821 48.2052 88.6276 48.2052Z" fill="#283E70"/>
<path opacity="0.6" d="M88.6276 48.2052C96.7731 48.2052 103.376 41.8232 103.376 33.9507C103.376 26.0782 96.7731 19.6963 88.6276 19.6963C80.4821 19.6963 73.8789 26.0782 73.8789 33.9507C73.8789 41.8232 80.4821 48.2052 88.6276 48.2052Z" fill="#283E70"/>
<path d="M88.6561 14.2623C87.4441 14.2623 86.4629 13.314 86.4629 12.1426V2.7818C86.4629 1.61039 87.4441 0.662109 88.6561 0.662109C89.8681 0.662109 90.8493 1.61039 90.8493 2.7818V12.1426C90.8493 13.3128 89.8681 14.2623 88.6561 14.2623Z" fill="#283E70"/>
<path d="M88.6561 67.024C87.4441 67.024 86.4629 66.0757 86.4629 64.9043V55.5435C86.4629 54.3721 87.4441 53.4238 88.6561 53.4238C89.8681 53.4238 90.8493 54.3721 90.8493 55.5435V64.9043C90.8493 66.0746 89.8681 67.024 88.6561 67.024Z" fill="#283E70"/>
<path d="M72.7813 20.6176C72.2197 20.6176 71.6582 20.4107 71.2302 19.997L67.0434 15.9506C66.1861 15.122 66.1861 13.7809 67.0434 12.9535C67.9007 12.1249 69.2895 12.1249 70.1444 12.9535L74.3312 16.9999C75.1873 17.8285 75.1873 19.1696 74.3312 19.997C73.9043 20.4107 73.3428 20.6176 72.7813 20.6176Z" fill="#283E70"/>
<path d="M108.437 55.0767C107.875 55.0767 107.315 54.8699 106.886 54.4562L102.983 50.684C102.126 49.8565 102.126 48.5143 102.983 47.6869C103.839 46.8583 105.228 46.8583 106.084 47.6869L109.987 51.4591C110.844 52.2865 110.844 53.6287 109.987 54.4562C109.559 54.8699 108.997 55.0767 108.437 55.0767Z" fill="#283E70"/>
<path d="M66.2048 35.962H56.5194C55.3073 35.962 54.3262 35.0138 54.3262 33.8424C54.3262 32.6709 55.3073 31.7227 56.5194 31.7227H66.2048C67.4168 31.7227 68.3979 32.6709 68.3979 33.8424C68.3979 35.0138 67.4168 35.962 66.2048 35.962Z" fill="#283E70"/>
<path d="M120.795 35.962H111.109C109.897 35.962 108.916 35.0138 108.916 33.8424C108.916 32.6709 109.897 31.7227 111.109 31.7227H120.795C122.005 31.7227 122.988 32.6709 122.988 33.8424C122.988 35.0138 122.007 35.962 120.795 35.962Z" fill="#283E70"/>
<path d="M69.0906 54.8751C68.5291 54.8751 67.9687 54.6683 67.5395 54.2546C66.6822 53.4271 66.6822 52.0849 67.5395 51.2575L71.2309 47.6898C72.0858 46.8612 73.4758 46.8612 74.3319 47.6898C75.188 48.5172 75.188 49.8595 74.3319 50.6869L70.6405 54.2546C70.2136 54.6683 69.6521 54.8751 69.0906 54.8751Z" fill="#283E70"/>
<path d="M104.536 20.6194C103.974 20.6194 103.414 20.4126 102.985 19.9989C102.127 19.1715 102.127 17.8292 102.985 17.0018L106.943 13.1761C107.8 12.3475 109.188 12.3475 110.044 13.1761C110.901 14.0035 110.901 15.3458 110.044 16.1732L106.086 19.9989C105.658 20.4126 105.096 20.6194 104.536 20.6194Z" fill="#283E70"/>
<g opacity="0.6">
<path d="M88.6561 14.2623C87.4441 14.2623 86.4629 13.314 86.4629 12.1426V2.7818C86.4629 1.61039 87.4441 0.662109 88.6561 0.662109C89.8681 0.662109 90.8493 1.61039 90.8493 2.7818V12.1426C90.8493 13.3128 89.8681 14.2623 88.6561 14.2623Z" fill="#283E70"/>
<path d="M88.6561 67.024C87.4441 67.024 86.4629 66.0757 86.4629 64.9043V55.5435C86.4629 54.3721 87.4441 53.4238 88.6561 53.4238C89.8681 53.4238 90.8493 54.3721 90.8493 55.5435V64.9043C90.8493 66.0746 89.8681 67.024 88.6561 67.024Z" fill="#283E70"/>
<path d="M72.7813 20.6176C72.2197 20.6176 71.6582 20.4107 71.2302 19.997L67.0434 15.9506C66.1861 15.122 66.1861 13.7809 67.0434 12.9535C67.9007 12.1249 69.2895 12.1249 70.1444 12.9535L74.3312 16.9999C75.1873 17.8285 75.1873 19.1696 74.3312 19.997C73.9043 20.4107 73.3428 20.6176 72.7813 20.6176Z" fill="#283E70"/>
<path d="M108.437 55.0767C107.875 55.0767 107.315 54.8699 106.886 54.4562L102.983 50.684C102.126 49.8565 102.126 48.5143 102.983 47.6869C103.839 46.8583 105.228 46.8583 106.084 47.6869L109.987 51.4591C110.844 52.2865 110.844 53.6287 109.987 54.4562C109.559 54.8699 108.997 55.0767 108.437 55.0767Z" fill="#283E70"/>
<path d="M66.2048 35.962H56.5194C55.3073 35.962 54.3262 35.0138 54.3262 33.8424C54.3262 32.6709 55.3073 31.7227 56.5194 31.7227H66.2048C67.4168 31.7227 68.3979 32.6709 68.3979 33.8424C68.3979 35.0138 67.4168 35.962 66.2048 35.962Z" fill="#283E70"/>
<path d="M120.795 35.962H111.109C109.897 35.962 108.916 35.0138 108.916 33.8424C108.916 32.6709 109.897 31.7227 111.109 31.7227H120.795C122.005 31.7227 122.988 32.6709 122.988 33.8424C122.988 35.0138 122.007 35.962 120.795 35.962Z" fill="#283E70"/>
<path d="M69.0906 54.8751C68.5291 54.8751 67.9687 54.6683 67.5395 54.2546C66.6822 53.4271 66.6822 52.0849 67.5395 51.2575L71.2309 47.6898C72.0858 46.8612 73.4758 46.8612 74.3319 47.6898C75.188 48.5172 75.188 49.8595 74.3319 50.6869L70.6405 54.2546C70.2136 54.6683 69.6521 54.8751 69.0906 54.8751Z" fill="#283E70"/>
<path d="M104.536 20.6194C103.974 20.6194 103.414 20.4126 102.985 19.9989C102.127 19.1715 102.127 17.8292 102.985 17.0018L106.943 13.1761C107.8 12.3475 109.188 12.3475 110.044 13.1761C110.901 14.0035 110.901 15.3458 110.044 16.1732L106.086 19.9989C105.658 20.4126 105.096 20.6194 104.536 20.6194Z" fill="#283E70"/>
</g>
<path d="M147.5 280C228.962 280 295 276.194 295 271.5C295 266.806 228.962 263 147.5 263C66.038 263 0 266.806 0 271.5C0 276.194 66.038 280 147.5 280Z" fill="#DAD8E2"/>
<ellipse cx="143.261" cy="125.192" rx="3.02513" ry="3.63755" fill="#E26264"/>
<ellipse cx="118.777" cy="21.409" rx="2.55245" ry="3.06918" fill="#EFBA6E"/>
<ellipse cx="127.474" cy="173.049" rx="1.79617" ry="2.1598" fill="#346567"/>
<path d="M112.82 2.88L115.385 2.92796" stroke="white" stroke-width="0.399254" stroke-linecap="round" stroke-linejoin="round"/>
<path d="M188.637 2.88L191.201 2.92796" stroke="white" stroke-width="0.399254" stroke-linecap="round" stroke-linejoin="round"/>
</svg>
