<svg width="259" height="254" viewBox="0 0 259 254" fill="none" xmlns="http://www.w3.org/2000/svg">
<path d="M129.473 253.589C200.601 253.589 258.261 249.541 258.261 244.547C258.261 239.554 200.601 235.506 129.473 235.506C58.3443 235.506 0.683594 239.554 0.683594 244.547C0.683594 249.541 58.3443 253.589 129.473 253.589Z" fill="#F5F5F5"/>
<path d="M228.277 164.252L230.927 168.198L181.607 216.096L192.328 232.054L193.796 234.243L243.109 186.336L245.759 190.282L250.476 164.196L228.277 164.252Z" fill="#004E89"/>
<path opacity="0.5" d="M228.277 164.252L230.927 168.198L181.607 216.096L192.328 232.054L193.796 234.243L243.109 186.336L245.759 190.282L250.476 164.196L228.277 164.252Z" fill="white"/>
<path d="M201.613 214.378C200.596 212.415 199.176 210.799 197.491 209.685C195.805 208.571 193.91 207.996 191.987 208.015C190.063 208.034 188.176 208.647 186.506 209.795C184.837 210.942 183.44 212.587 182.45 214.57C181.554 214.254 180.608 214.195 179.69 214.398C178.771 214.6 177.905 215.059 177.16 215.737C176.416 216.415 175.814 217.293 175.402 218.301C174.991 219.309 174.782 220.419 174.791 221.542H171.616C171.209 221.519 170.802 221.596 170.419 221.768C170.037 221.939 169.688 222.202 169.393 222.541C169.098 222.879 168.863 223.287 168.702 223.737C168.542 224.188 168.459 224.674 168.459 225.164C168.459 225.655 168.542 226.14 168.702 226.591C168.863 227.042 169.098 227.449 169.393 227.788C169.688 228.127 170.037 228.39 170.419 228.561C170.802 228.733 171.209 228.81 171.616 228.787H182.609C183.517 230.51 184.737 231.964 186.178 233.039C187.62 234.115 189.245 234.784 190.932 234.997C192.619 235.21 194.324 234.961 195.92 234.268C197.515 233.576 198.96 232.458 200.145 230.999C200.335 231.011 200.526 231.011 200.716 230.999C202.485 231.003 204.188 230.197 205.481 228.746C206.773 227.295 207.558 225.306 207.675 223.185C207.793 221.063 207.234 218.967 206.113 217.323C204.992 215.678 203.393 214.608 201.64 214.33L201.613 214.378Z" fill="#004E89"/>
<path opacity="0.8" d="M201.613 214.378C200.596 212.415 199.176 210.799 197.491 209.685C195.805 208.571 193.91 207.996 191.987 208.015C190.063 208.034 188.176 208.647 186.506 209.795C184.837 210.942 183.44 212.587 182.45 214.57C181.554 214.254 180.608 214.195 179.69 214.398C178.771 214.6 177.905 215.059 177.16 215.737C176.416 216.415 175.814 217.293 175.402 218.301C174.991 219.309 174.782 220.419 174.791 221.542H171.616C171.209 221.519 170.802 221.596 170.419 221.768C170.037 221.939 169.688 222.202 169.393 222.541C169.098 222.879 168.863 223.287 168.702 223.738C168.542 224.188 168.459 224.674 168.459 225.164C168.459 225.655 168.542 226.14 168.702 226.591C168.863 227.042 169.098 227.449 169.393 227.788C169.688 228.127 170.037 228.39 170.419 228.561C170.802 228.733 171.209 228.81 171.616 228.787H182.609C183.517 230.51 184.737 231.964 186.178 233.039C187.62 234.115 189.245 234.784 190.932 234.997C192.619 235.21 194.324 234.961 195.92 234.268C197.515 233.576 198.96 232.458 200.145 230.999C200.335 231.011 200.526 231.011 200.716 230.999C202.485 231.003 204.188 230.197 205.481 228.746C206.773 227.295 207.558 225.306 207.675 223.185C207.793 221.063 207.234 218.967 206.113 217.323C204.992 215.678 203.393 214.608 201.64 214.33L201.613 214.378Z" fill="white"/>
<path d="M127.575 52.3048L126.619 51.0668C126.492 50.9062 126.334 50.7868 126.158 50.7198C125.983 50.6527 125.796 50.6402 125.616 50.6834L124.161 51.0668C123.934 51.1211 123.726 51.2597 123.568 51.4632C123.409 51.6666 123.308 51.9246 123.278 52.2009L122.547 59.3893L124.765 60.4196C127.476 58.9979 127.336 54.7009 127.336 54.7009L127.721 53.8463C127.836 53.6038 127.883 53.3239 127.857 53.0469C127.831 52.7699 127.732 52.5101 127.575 52.3048Z" fill="#FFB573"/>
<path d="M100.761 73.9411C100.761 73.9411 102.893 74.0929 104.142 74.0609C105.39 74.029 106.652 74.013 107.881 73.9251C109.11 73.8373 110.326 73.7255 111.442 73.5418C111.952 73.4597 112.457 73.3424 112.956 73.1903L113.434 73.0066C113.58 72.9268 113.434 73.0625 113.501 73.0066C113.846 72.5914 114.168 72.1484 114.464 71.6808C114.829 71.1217 115.195 70.5226 115.56 69.9156C116.291 68.6936 117.008 67.4237 117.732 66.1457L122.069 58.4062L125.464 60.5707C124.965 62.0643 124.421 63.502 123.883 64.9556C123.345 66.4093 122.747 67.831 122.162 69.2607C121.578 70.6904 120.94 72.1121 120.263 73.5338C119.924 74.2446 119.598 74.9555 119.187 75.6823C118.755 76.5192 118.261 77.3077 117.712 78.0385C117.269 78.5931 116.756 79.0595 116.191 79.4202C115.763 79.6958 115.319 79.9334 114.862 80.1311C114.117 80.4614 113.354 80.7283 112.577 80.9298C111.192 81.3063 109.787 81.5732 108.373 81.7285C105.665 82.0598 102.943 82.1879 100.223 82.1119L100.761 73.9411Z" fill="#004E89"/>
<path opacity="0.1" d="M106.635 81.8725C104.503 82.0562 102.404 82.1201 100.238 82.0642L100.345 80.3873L100.863 78.918C103.032 78.97 105.1 80.0287 106.635 81.8725Z" fill="black"/>
<path d="M65.2375 217.198C65.2375 217.198 59.2593 212.222 59.5915 208.883C59.6038 208.806 59.6027 208.727 59.5883 208.65C59.5739 208.574 59.5465 208.502 59.5078 208.439C59.4691 208.376 59.42 208.323 59.3635 208.284C59.307 208.245 59.2444 208.221 59.1796 208.212L54.0849 207.286C53.9604 207.257 53.8317 207.272 53.714 207.329C53.5963 207.385 53.4945 207.481 53.4207 207.605L50.4316 212.709L51.7601 213.292L52.4841 212.685L52.8295 213.763C60.1694 216.958 63.371 218.244 64.9917 218.324C65.47 217.637 65.2375 217.198 65.2375 217.198Z" fill="black"/>
<path d="M99.1015 123.269C99.1015 123.269 98.796 124.227 98.2579 125.888C97.68 127.686 96.8298 130.305 95.8069 133.42C95.1427 135.497 94.3655 137.797 93.5485 140.217C89.7956 151.399 84.9466 165.305 81.7384 172.309C75.5942 185.712 59.5861 211.166 59.5861 211.166L53.1895 208.355C53.1895 208.355 64.7073 182.141 70.5194 168.859C72.7227 163.496 74.6655 157.983 76.3381 152.35C77.3013 149.259 78.2578 146.04 79.181 142.853C79.5995 141.415 80.0113 139.978 80.4099 138.564C81.466 134.826 82.4557 131.224 83.3259 128.013C83.4322 127.614 83.5384 127.214 83.6447 126.831C83.9968 125.513 84.309 124.267 84.6278 123.117C85.8765 118.389 86.6537 115.274 86.6803 115.13L92.3861 118.868L99.1015 123.269Z" fill="#263238"/>
<path opacity="0.3" d="M98.255 125.89C97.6771 127.687 96.8269 130.307 95.804 133.421C95.1397 135.498 94.3626 137.798 93.5456 140.218C88.3247 141.48 83.0108 142.335 79.1914 142.854C79.6099 141.417 80.0217 139.979 80.4202 138.565C81.4764 134.827 82.4661 131.225 83.3362 128.014C83.4425 127.615 83.5488 127.216 83.6551 126.832C84.0071 125.514 84.3193 124.268 84.6381 123.118C88.4774 123.749 93.6053 124.692 98.255 125.89Z" fill="black"/>
<path d="M78.6602 78.2227C79.5797 82.2383 80.1692 86.3528 80.4204 90.5069C80.6529 93.8215 80.7392 97.0802 80.7525 100.011C80.7658 102.943 80.6861 105.562 80.6064 107.559C80.5001 110.131 80.3739 111.705 80.3739 111.705L100.553 112.959C106.611 86.6012 100.753 73.9496 100.753 73.9496C98.9549 73.7604 97.1489 73.7097 95.3458 73.7979C94.9738 73.7979 94.5886 73.8458 94.2033 73.8858C91.1659 74.3058 88.1517 74.9405 85.1763 75.7867C84.6383 75.9304 84.0936 76.0982 83.5622 76.2659C80.9318 77.1285 78.6602 78.2227 78.6602 78.2227Z" fill="#004E89"/>
<path d="M113.042 176.097C113.042 176.097 107.277 170.713 107.808 167.407C107.823 167.33 107.826 167.251 107.815 167.174C107.804 167.097 107.78 167.023 107.745 166.957C107.709 166.891 107.663 166.835 107.609 166.791C107.555 166.748 107.493 166.718 107.429 166.704L102.381 165.426C102.26 165.393 102.133 165.402 102.016 165.451C101.898 165.501 101.795 165.589 101.717 165.705L98.4688 170.569L99.7972 171.248L100.548 170.689L100.84 171.784C108.02 175.482 111.156 176.991 112.796 177.183C113.255 176.528 113.042 176.097 113.042 176.097Z" fill="black"/>
<path d="M90.0334 133.565H90.505L114.703 137.798L100.914 165.281L107.808 168.476C107.808 168.476 132.75 136.145 127.177 128.772C122.594 122.71 100.143 119.02 100.143 119.02L100.88 112.694L80.1296 107.774C71.2488 131.113 87.0642 133.333 90.0334 133.565Z" fill="#263238"/>
<path d="M79.8837 110.228L79.4453 110.125L79.8439 108.445L80.2358 108.533L79.8837 110.228Z" fill="#263238"/>
<path d="M96.2191 114.027L87.3516 111.967L87.697 110.274L96.5313 112.335L96.2191 114.027Z" fill="#263238"/>
<path d="M97.2149 112.495L100.961 113.366L100.709 115.074L96.916 114.188L97.2149 112.495Z" fill="#263238"/>
<path d="M80.9208 108.693L87.0185 110.115L86.6598 111.8L80.582 110.386L80.9208 108.693Z" fill="#263238"/>
<g opacity="0.2">
<path d="M79.8837 110.228L79.4453 110.125L79.8439 108.445L80.2358 108.533L79.8837 110.228Z" fill="white"/>
<path d="M96.2172 114.027L87.3496 111.967L87.695 110.274L96.5294 112.335L96.2172 114.027Z" fill="white"/>
<path d="M97.2169 112.496L100.963 113.366L100.711 115.075L96.918 114.189L97.2169 112.496Z" fill="white"/>
<path d="M80.9208 108.693L87.0185 110.115L86.6598 111.8L80.582 110.386L80.9208 108.693Z" fill="white"/>
</g>
<path d="M93.3022 113.532H93.2225L91.004 113.053C90.9418 113.041 90.8825 113.014 90.8298 112.972C90.7772 112.931 90.7324 112.877 90.6984 112.813C90.663 112.751 90.6392 112.68 90.6289 112.606C90.6186 112.531 90.6219 112.455 90.6386 112.382L90.8578 111.312C90.8848 111.174 90.9554 111.055 91.0547 110.979C91.1539 110.903 91.274 110.876 91.3892 110.905L93.5878 111.416C93.6491 111.428 93.7074 111.455 93.759 111.497C93.8106 111.538 93.8542 111.592 93.8867 111.655C93.9205 111.717 93.9432 111.787 93.9535 111.86C93.9638 111.932 93.9614 112.007 93.9465 112.079L93.7473 113.109C93.7234 113.229 93.6665 113.336 93.5858 113.413C93.505 113.49 93.4052 113.532 93.3022 113.532ZM91.3095 111.352C91.2943 111.353 91.2797 111.36 91.2678 111.371C91.2559 111.383 91.2472 111.398 91.2431 111.416L91.0239 112.486C91.0202 112.496 91.0183 112.507 91.0183 112.518C91.0183 112.529 91.0202 112.54 91.0239 112.55C91.0312 112.554 91.0392 112.555 91.0471 112.555C91.0551 112.555 91.063 112.554 91.0704 112.55L93.2889 113.029C93.3062 113.03 93.3233 113.025 93.3377 113.013C93.352 113.001 93.3629 112.985 93.3686 112.965L93.5679 111.935C93.572 111.925 93.5741 111.914 93.5741 111.903C93.5741 111.892 93.572 111.881 93.5679 111.871C93.5619 111.867 93.555 111.865 93.548 111.865C93.541 111.865 93.5341 111.867 93.5281 111.871L91.3294 111.352H91.3095Z" fill="white"/>
<path d="M91.9197 112.343H91.8865L91.2231 112.199C91.1976 112.195 91.1733 112.184 91.1514 112.167C91.1295 112.151 91.1106 112.129 91.0958 112.104C91.0809 112.079 91.0704 112.05 91.065 112.02C91.0595 111.99 91.0591 111.958 91.0639 111.928C91.0669 111.897 91.0754 111.867 91.0887 111.84C91.102 111.813 91.1199 111.789 91.1412 111.771C91.1625 111.753 91.1866 111.741 91.2122 111.735C91.2377 111.729 91.264 111.729 91.2894 111.736L91.9528 111.88C91.9783 111.885 92.0027 111.896 92.0245 111.912C92.0464 111.928 92.0653 111.95 92.0802 111.975C92.095 112 92.1055 112.029 92.111 112.059C92.1165 112.09 92.1168 112.121 92.1121 112.151C92.103 112.205 92.079 112.253 92.044 112.288C92.009 112.323 91.9651 112.342 91.9197 112.343Z" fill="white"/>
<path d="M87.2767 64.7637L92.5441 70.0192C92.0326 72.591 92.9293 74.9632 93.9655 75.4025C93.9655 75.4025 94.7361 77.6069 93.2548 77.9743C90.2458 78.7251 86.8184 75.2267 86.8184 75.2267C88.4125 73.1741 87.8346 68.0464 87.2767 64.7637Z" fill="#EBB376"/>
<path opacity="0.2" d="M89.4222 66.9043L92.5441 70.0113C92.4118 70.6079 92.3229 71.2172 92.2784 71.8323C91.1093 71.6486 89.4952 70.1471 89.3624 68.6774C89.2961 68.0867 89.3163 67.4866 89.4222 66.9043Z" fill="black"/>
<path d="M91.9321 54.3821C93.2075 55.3403 94.9345 58.223 92.789 58.9177C90.6435 59.6124 89.7335 52.7371 91.9321 54.3821Z" fill="#263238"/>
<path d="M85.3437 64.2375C87.5755 67.7678 88.7313 69.9803 91.3218 70.6272C95.2209 71.5857 98.0505 66.8094 96.742 62.5283C95.5596 58.6785 92.0923 53.5429 88.3128 54.5412C87.4759 54.7605 86.6985 55.23 86.0524 55.9062C85.4063 56.5824 84.9125 57.4436 84.6165 58.4102C84.3206 59.3767 84.232 60.4173 84.3591 61.4359C84.4862 62.4544 84.8248 63.418 85.3437 64.2375Z" fill="#FFB573"/>
<path d="M86.0007 60.3789L83.3437 56.625C83.3437 56.625 79.8033 59.7559 81.4108 61.6489C80.3546 64.644 84.5593 68.8372 88.2391 67.9746C88.6709 65.267 85.3896 60.6505 85.3896 60.6505C85.5969 60.5722 85.8008 60.4815 86.0007 60.3789Z" fill="#263238"/>
<path d="M85.8605 68.2525C86.2191 68.5964 86.6311 68.8512 87.0724 69.002C87.5137 69.1528 87.9756 69.1966 88.4311 69.1308C89.6466 68.9472 89.7596 67.4859 89.0621 66.3919C88.3647 65.2979 86.9764 64.3237 85.9402 65.0584C85.7178 65.2264 85.5333 65.4577 85.4028 65.7318C85.2724 66.0058 85.2 66.3143 85.1921 66.6299C85.1843 66.9455 85.2411 67.2586 85.3576 67.5416C85.4742 67.8245 85.6469 68.0687 85.8605 68.2525Z" fill="#FFB573"/>
<path d="M90.5443 61.4481C90.7102 61.7434 90.9822 61.8791 91.1414 61.7514C91.3006 61.6237 91.3006 61.2646 91.1414 60.9533C90.9822 60.6421 90.7102 60.5223 90.5443 60.65C90.3785 60.7777 90.3785 61.1768 90.5443 61.4481Z" fill="#263238"/>
<path d="M93.3568 59.1811C93.5293 59.4844 93.7947 59.62 93.9539 59.4843C94.1131 59.3487 94.1131 58.9975 93.9539 58.6862C93.7947 58.375 93.5227 58.2473 93.3568 58.383C93.191 58.5187 93.191 58.8778 93.3568 59.1811Z" fill="#263238"/>
<path d="M92.543 60.0605C93.3425 60.6998 94.2122 61.2024 95.1268 61.5538C94.9541 62.3523 94.0774 62.7596 94.0774 62.7596L92.543 60.0605Z" fill="#ED893E"/>
<path d="M91.7663 64.7976C91.6498 64.8714 91.5387 64.957 91.4342 65.0535C91.4188 65.0729 91.4102 65.0987 91.4102 65.1255C91.4102 65.1523 91.4188 65.1781 91.4342 65.1975C91.4417 65.2077 91.4509 65.2159 91.4612 65.2215C91.4715 65.2271 91.4827 65.23 91.494 65.23C91.5053 65.23 91.5165 65.2271 91.5268 65.2215C91.5371 65.2159 91.5463 65.2077 91.5538 65.1975C91.8497 64.9232 92.1958 64.738 92.5632 64.6573C92.9306 64.5766 93.3087 64.6028 93.666 64.7336C93.6769 64.7386 93.6885 64.741 93.7002 64.7405C93.7118 64.74 93.7233 64.7366 93.7338 64.7306C93.7444 64.7247 93.7538 64.7162 93.7616 64.7057C93.7693 64.6952 93.7752 64.6829 93.779 64.6696C93.7878 64.6441 93.7878 64.6155 93.7791 64.59C93.7704 64.5645 93.7536 64.5442 93.7325 64.5336C93.4072 64.4131 93.0648 64.3744 92.7266 64.4198C92.3884 64.4652 92.0615 64.5938 91.7663 64.7976Z" fill="#263238"/>
<path d="M88.6243 60.4925C88.6555 60.4946 88.6866 60.4869 88.7146 60.4701C88.7426 60.4532 88.7664 60.4279 88.7837 60.3965C88.9007 60.1717 89.0593 59.9825 89.2471 59.8437C89.435 59.705 89.6469 59.6204 89.8664 59.5967C89.8899 59.598 89.9134 59.5932 89.9353 59.5826C89.9571 59.5721 89.9769 59.5561 89.9932 59.5357C90.0095 59.5153 90.0221 59.4909 90.03 59.4642C90.0379 59.4375 90.041 59.4091 90.0391 59.3808C90.0391 59.3257 90.0209 59.2728 89.9885 59.2338C89.9561 59.1948 89.9122 59.1729 89.8664 59.1729C89.5857 59.198 89.314 59.3032 89.0737 59.4799C88.8335 59.6565 88.6316 59.8994 88.4848 60.1886C88.4597 60.2365 88.4511 60.2943 88.4611 60.3497C88.471 60.405 88.4986 60.4534 88.5379 60.4845C88.5654 60.4976 88.5955 60.5004 88.6243 60.4925Z" fill="#263238"/>
<path d="M93.389 56.4585C93.399 56.4167 93.399 56.3723 93.389 56.3305C93.3752 56.2769 93.3445 56.2319 93.3036 56.2051C93.2627 56.1782 93.2147 56.1716 93.1698 56.1866C92.8998 56.2686 92.6502 56.4277 92.4421 56.6504C92.234 56.8732 92.0735 57.153 91.9742 57.4662C91.9611 57.5204 91.9655 57.5784 91.9864 57.6288C92.0074 57.6792 92.0433 57.7183 92.0871 57.7382C92.1089 57.7469 92.1319 57.7502 92.1548 57.7481C92.1777 57.7459 92.2 57.7383 92.2204 57.7256C92.2408 57.7129 92.2589 57.6955 92.2737 57.6743C92.2884 57.6531 92.2995 57.6286 92.3063 57.6022C92.3861 57.3536 92.5149 57.132 92.6815 56.9565C92.8481 56.781 93.0475 56.6567 93.2628 56.5945C93.2918 56.5868 93.3186 56.5702 93.3407 56.5464C93.3628 56.5226 93.3794 56.4923 93.389 56.4585Z" fill="#263238"/>
<path d="M85.3685 60.6512C85.3685 60.6512 92.3828 57.1049 92.8146 53.0635C93.2463 49.022 90.2772 50.6673 90.2772 50.6673C90.2772 50.6673 91.6522 50.5555 91.5193 51.7536C91.5193 51.7536 89.148 49.8127 86.8697 51.482C87.1784 51.4825 87.4832 51.565 87.7623 51.7238C88.0414 51.8826 88.2877 52.1137 88.4838 52.4005C86.8335 52.9012 85.2854 53.8007 83.9337 55.0443C81.5491 57.2008 77.2249 64.8764 85.3685 60.6512Z" fill="#263238"/>
<path opacity="0.3" d="M100.156 118.958L88.7246 117.359C92.5968 116.744 96.5074 116.551 100.409 116.784L100.156 118.958Z" fill="black"/>
<path opacity="0.1" d="M80.5346 92.1836C80.4947 91.6245 80.4615 91.0654 80.4216 90.5063C80.4216 90.067 80.3618 89.6198 80.3286 89.1805C80.229 88.0623 80.1227 86.9441 79.9899 85.8419C79.9567 85.5384 79.9168 85.2349 79.877 84.9393C80.192 84.6396 80.5275 84.3724 80.8799 84.1406C81.2443 86.8205 81.1265 89.5631 80.5346 92.1836Z" fill="black"/>
<path d="M61.4908 111.768L59.498 117.359L63.7957 118.636C63.7957 118.636 65.6422 114.954 63.8422 112.143L61.4908 111.768Z" fill="#EBB376"/>
<path d="M59.8094 121.727L63.2037 121.759L63.8015 118.685L59.5039 117.407L59.8094 121.727Z" fill="#EBB376"/>
<path d="M80.8286 82.0723C81.1275 85.5866 80.1245 87.0163 80.1245 87.0163C80.1245 87.0163 77.2949 89.1568 76.066 90.2511C75.0232 91.2015 74.0003 92.16 73.0305 93.1184C72.5522 93.6056 72.0873 94.0928 71.6621 94.5801C71.2837 95.0072 70.9287 95.4634 70.5994 95.9458C70.4775 96.1491 70.3645 96.3597 70.2606 96.5768C70.141 96.8084 70.0148 97.1599 69.882 97.4474C69.6229 98.0864 69.3639 98.7733 69.1181 99.4841C68.6266 100.914 68.1616 102.399 67.7232 103.909C66.7999 106.912 65.9431 110.011 65.0663 113.054L61.1406 111.928C61.5392 108.621 62.0772 105.387 62.7016 102.12C63.0271 100.522 63.3658 98.8611 63.8109 97.1998C64.0168 96.4011 64.2493 95.5305 64.5149 94.6679C64.6744 94.2126 64.8072 93.8053 65.0065 93.3181C65.2001 92.8057 65.422 92.3094 65.6707 91.8325C66.1444 90.985 66.673 90.1838 67.2516 89.4364C67.7764 88.7495 68.3011 88.1185 68.8325 87.5035C69.8886 86.2895 70.9713 85.1793 72.074 84.109C74.2726 81.9605 76.4779 79.9957 78.8425 78.0947C78.8625 78.1187 80.5629 78.8934 80.8286 82.0723Z" fill="#004E89"/>
<path d="M89.7475 77.3603L91.2221 80.1478C91.2221 80.1478 86.0742 87.6556 76.217 90.1316L75.5527 92.5278L77.6517 93.1907C77.6517 93.1907 88.2795 89.8761 92.5439 80.2756L94.7359 77.3363L92.152 76.29L89.7475 77.3603Z" fill="#5D9FD1"/>
<path d="M84.9746 75.6827L87.3791 73.1588L92.155 76.3057L92.713 72.8633L95.2371 74.6045L95.9611 79.0692L92.434 77.2322L89.2855 80.6187L84.9746 75.6827Z" fill="#003E6D"/>
<path d="M150.856 25.7236C150.856 25.7236 146.386 32.3848 141.856 31.8337C137.326 31.2826 135.008 33.4951 135.008 33.4951L134.562 36.1547L136.994 35.7554C136.994 35.7554 136.994 33.6468 141.723 33.8864C146.452 34.126 149.999 29.2379 151.381 27.0175L150.856 25.7236Z" fill="#5D9FD1"/>
<path d="M182.939 14.6554L182.846 14.1282C182.806 13.8708 182.744 13.6192 182.66 13.3774C182.424 12.6558 182.053 12.0085 181.578 11.4845C180.988 10.8451 180.296 10.356 179.545 10.0468C178.596 9.64252 177.61 9.37442 176.609 9.24811C175.726 9.12831 174.882 9.0724 174.052 9.04844C172.398 8.99253 170.804 9.04843 169.229 9.20818C166.094 9.45859 162.972 9.90916 159.877 10.558L161.019 18.4253C163.882 17.8821 166.871 17.379 169.761 17.0195C171.209 16.8358 172.65 16.732 174.038 16.6761C174.703 16.6761 175.413 16.6761 176.031 16.6761C176.434 16.702 176.836 16.7554 177.233 16.8358C177.247 17.1285 177.247 17.4218 177.233 17.7144C177.148 19.2526 176.909 20.773 176.523 22.2431C175.681 25.5648 174.608 28.795 173.314 31.8995L176.47 34.4234C178.486 31.3873 180.18 28.0602 181.511 24.5194C182.239 22.585 182.744 20.54 183.012 18.4412C183.155 17.1826 183.13 15.9047 182.939 14.6554Z" fill="#004E89"/>
<path opacity="0.1" d="M173.884 16.7227C172.555 16.7786 171.154 16.8905 169.752 17.0582C166.949 17.4096 164.066 17.8569 161.283 18.424C162.299 15.4208 163.342 12.3857 163.342 12.3857C167.045 13.0525 170.617 14.522 173.884 16.7227Z" fill="black"/>
<path opacity="0.1" d="M181.808 23.536C181.702 23.8635 181.589 24.1909 181.476 24.5104C180.143 28.049 178.447 31.3734 176.428 34.4064L173.312 31.8985C174.619 28.817 175.712 25.6114 176.581 22.314C176.844 21.2674 177.046 20.1998 177.185 19.1191C178.82 20.4427 180.366 21.9196 181.808 23.536Z" fill="black"/>
<path d="M139.359 16.2344C139.545 16.506 139.565 16.8495 139.419 17.0332C139.273 17.217 139.001 17.0332 138.815 16.7936C138.629 16.5539 138.609 16.1705 138.762 16.0347C138.915 15.8989 139.18 15.9229 139.359 16.2344Z" fill="#263238"/>
<path d="M139.59 16.8271C139.871 17.9332 140.023 19.0807 140.042 20.2368C140.287 20.2205 140.527 20.1407 140.745 20.0029C140.963 19.8651 141.153 19.6726 141.304 19.4383L139.59 16.8271Z" fill="#DE5753"/>
<path d="M139.194 13.9033C139.209 13.8841 139.22 13.8614 139.227 13.8366C139.233 13.8118 139.236 13.7855 139.234 13.7595C139.233 13.7322 139.227 13.7054 139.218 13.6806C139.208 13.6558 139.195 13.6334 139.178 13.6149C139.162 13.5963 139.142 13.5819 139.121 13.5724C139.1 13.563 139.077 13.5587 139.054 13.5597C138.782 13.5673 138.515 13.6532 138.276 13.8103C138.036 13.9674 137.832 14.1911 137.679 14.4627C137.657 14.5107 137.65 14.5673 137.662 14.6208C137.673 14.6743 137.7 14.7207 137.739 14.7503C137.778 14.777 137.824 14.7843 137.867 14.7709C137.911 14.7575 137.948 14.7243 137.972 14.6784C138.095 14.464 138.26 14.2882 138.452 14.1659C138.644 14.0436 138.857 13.9782 139.074 13.9752C139.097 13.9744 139.12 13.9675 139.141 13.9551C139.161 13.9427 139.179 13.925 139.194 13.9033Z" fill="#263238"/>
<path d="M145.975 11.9307C148.173 13.8316 152.371 16.8427 154.756 15.7006C154.756 15.7006 156.901 17.8491 154.842 23.2324C152.577 29.1588 151.315 24.718 151.315 24.718C151.906 21.1238 149.88 20.1094 147.788 19.6382L145.975 11.9307Z" fill="#E4897B"/>
<path d="M146.64 8.37549C148.692 11.9297 150.047 13.8866 149.762 16.9776C149.343 21.634 144.84 23.3672 141.944 20.6436C139.333 18.1676 136.411 12.7684 138.284 8.79881C138.694 7.92 139.284 7.18183 139.998 6.65443C140.712 6.12704 141.526 5.82793 142.364 5.78551C143.201 5.7431 144.033 5.95878 144.782 6.41209C145.53 6.86539 146.17 7.54127 146.64 8.37549Z" fill="#E4897B"/>
<path d="M149.939 14.2386C149.627 16.2593 143.961 19.0308 141.43 14.6699C141.43 14.6699 138.215 14.6699 136.282 12.2737C134.349 9.87762 134.768 7.42559 136.495 6.05181C138.022 4.83777 141.968 -4.08379 146.565 2.28191C151.553 2.07424 150.318 11.7306 149.939 14.2386Z" fill="#263238"/>
<path d="M140.409 5.12662C140.409 5.12662 137.446 4.95091 135.759 6.58027C134.072 8.20964 134.53 13.2255 135.188 14.168C135.343 14.4278 135.541 14.6463 135.77 14.8099C135.998 14.9734 136.252 15.0785 136.516 15.1185C136.516 15.1185 135.513 14.4875 135.513 13.521C135.513 13.521 135.952 14.759 137.964 15.1185C137.807 14.9701 137.681 14.7792 137.597 14.5613C137.513 14.3434 137.473 14.1046 137.48 13.8645C137.48 13.8645 138.569 15.5657 141.093 13.8645C143.617 12.1632 140.409 5.12662 140.409 5.12662Z" fill="#263238"/>
<path d="M142.926 13.9203C143.432 14.8084 143.682 15.8719 143.636 16.9474C143.563 18.3611 142.58 18.4729 141.803 17.5784C141.026 16.6838 140.308 15.0784 140.767 13.8963C141.225 12.7142 142.301 12.866 142.926 13.9203Z" fill="#E4897B"/>
<path d="M148.823 25.7246C148.823 25.7246 148.272 17.6816 152.636 13.1689L157.837 13.744C157.837 13.744 154.841 22.5378 148.823 25.7246Z" fill="#003E6D"/>
<path d="M163.815 43.8153C163.815 43.8153 155.95 34.5264 147.262 28.0329C147.262 28.0329 153.047 11.6833 160.38 10.2217C160.38 10.2217 179.331 17.1065 184.831 35.7803L163.815 43.8153Z" fill="#004E89"/>
<path d="M164.815 100.444L161.427 102.177L157.754 92.9041L161.148 91.1709L164.815 100.444Z" fill="#E4897B"/>
<path d="M184.832 35.7559L182.839 61.3145C181.321 62.4633 179.635 63.2547 177.871 63.6467C173.726 64.8048 168.199 65.332 163.423 65.6435C158.063 65.9949 153.659 66.0588 153.261 66.4422C152.331 67.3208 164.134 96.6333 164.134 96.6333L158.501 97.48C158.501 97.48 143.696 73.0555 141.776 64.5732C141.072 61.4423 140.361 57.5206 145.144 53.8546C149.355 50.6597 165.031 48.2077 165.031 48.2077L163.822 43.8548L184.832 35.7559Z" fill="#263238"/>
<path opacity="0.2" d="M177.864 63.6223C173.719 64.7804 168.192 65.3076 163.416 65.6191C162.752 56.1943 166.738 47.1529 166.738 47.1529L172.344 45.4277L177.864 63.6223Z" fill="black"/>
<path d="M214.224 96.6895L214.829 101.058L206.466 103.167L205.861 98.7901L214.224 96.6895Z" fill="#E4897B"/>
<path d="M214.529 101.073C214.515 101.061 214.499 101.055 214.482 101.055C214.466 101.055 214.449 101.061 214.436 101.073C214.42 101.081 214.407 101.094 214.397 101.111C214.388 101.128 214.383 101.148 214.383 101.169C214.383 101.248 214.436 103.029 214.894 103.564C214.979 103.666 215.093 103.723 215.213 103.724C215.282 103.731 215.35 103.713 215.41 103.672C215.469 103.63 215.517 103.567 215.545 103.492C215.645 103.197 215.459 102.694 215.213 102.207C215.014 101.804 214.785 101.425 214.529 101.073ZM214.569 101.448C215.014 102.087 215.499 103.045 215.386 103.364C215.386 103.412 215.333 103.468 215.213 103.476C215.138 103.475 215.066 103.437 215.014 103.372C214.974 103.326 214.94 103.272 214.914 103.213C214.707 102.656 214.589 102.057 214.569 101.448Z" fill="#263238"/>
<path d="M214.505 101.049C214.492 101.04 214.477 101.035 214.462 101.035C214.447 101.035 214.432 101.04 214.419 101.049C214.419 101.049 213.588 101.808 213.509 102.528C213.484 102.737 213.529 102.95 213.635 103.119C213.781 103.351 213.92 103.343 214.013 103.295C214.405 103.103 214.618 101.696 214.558 101.113C214.558 101.113 214.558 101.113 214.558 101.073C214.551 101.065 214.543 101.058 214.534 101.054C214.524 101.05 214.515 101.048 214.505 101.049ZM213.681 102.576C213.805 102.09 214.054 101.665 214.392 101.361C214.392 101.992 214.179 102.959 213.947 103.119C213.947 103.119 213.867 103.159 213.774 103.007C213.771 102.989 213.771 102.97 213.774 102.951C213.707 102.844 213.674 102.71 213.681 102.576Z" fill="#263238"/>
<path d="M214.369 101.162L212.257 97.0409C212.221 96.9639 212.206 96.8746 212.216 96.7866C212.225 96.6987 212.259 96.6169 212.31 96.5537L214.715 93.7423C214.773 93.6744 214.844 93.6233 214.921 93.5928C214.998 93.5623 215.08 93.5533 215.161 93.5664C215.241 93.5794 215.318 93.6143 215.386 93.6682C215.454 93.7222 215.51 93.794 215.552 93.8781C216.296 95.3796 217.325 97.5761 218.282 99.469C219.398 101.657 220.467 103.463 221.776 106.034C222.573 107.584 221.49 108.974 221.038 108.431C218.986 105.875 217.717 103.51 215.06 101.929C214.776 101.754 214.537 101.489 214.369 101.162Z" fill="#263238"/>
<path d="M184.831 35.7559C184.831 35.7559 191.586 56.6261 180.182 64.725C180.182 64.725 180.035 88.8459 182.918 91.6734C186.419 95.1078 212.078 96.857 212.078 96.857L211.859 104.525C211.859 104.525 184.386 107.224 176.07 103.638C166.326 99.4368 164.16 44.1742 164.16 44.1742L184.831 35.7559Z" fill="#263238"/>
<path opacity="0.2" d="M177.025 48.5676L181.124 47.082C181.416 49.2368 181.602 51.4104 181.682 53.5915L179.782 55.5563L177.982 54.8694C177.763 52.7486 177.444 50.6446 177.025 48.5676Z" fill="black"/>
<path d="M165.171 43.8311L165.703 45.8593L164.182 46.4263L163.65 44.414L165.171 43.8311Z" fill="#263238"/>
<path d="M172.166 41.1318L172.737 43.232L166.46 45.5716L165.902 43.5434L172.166 41.1318Z" fill="#263238"/>
<path d="M179.984 38.1221L180.556 40.318L173.535 42.9372L172.977 40.8211L179.984 38.1221Z" fill="#263238"/>
<path d="M185.696 38.4001L181.372 40.0131H181.365L180.787 37.8092L185.078 36.1562L185.696 38.4001Z" fill="#263238"/>
<g opacity="0.2">
<path d="M165.171 43.833L165.703 45.8613L164.182 46.4282L163.65 44.4159L165.171 43.833Z" fill="white"/>
<path d="M172.168 41.1318L172.739 43.232L166.462 45.5716L165.904 43.5434L172.168 41.1318Z" fill="white"/>
<path d="M179.984 38.1221L180.556 40.318L173.535 42.9372L172.977 40.8211L179.984 38.1221Z" fill="white"/>
<path d="M185.696 38.4001L181.372 40.0131H181.365L180.787 37.8092L185.078 36.1562L185.696 38.4001Z" fill="white"/>
</g>
<path d="M160.383 100.884C160.4 100.879 160.415 100.867 160.427 100.852C160.439 100.836 160.447 100.817 160.45 100.796C160.453 100.774 160.45 100.751 160.442 100.731C160.434 100.711 160.42 100.694 160.403 100.684C160.35 100.684 159.042 99.8045 158.411 100.02C158.295 100.059 158.197 100.151 158.138 100.276C158.099 100.345 158.078 100.425 158.078 100.508C158.078 100.591 158.099 100.672 158.138 100.74C158.298 100.988 158.756 101.052 159.228 101.036C159.616 101.03 160.003 100.979 160.383 100.884ZM160.098 100.732C159.433 100.868 158.484 100.892 158.304 100.612C158.304 100.572 158.258 100.508 158.304 100.38C158.32 100.341 158.344 100.307 158.372 100.281C158.401 100.254 158.435 100.236 158.47 100.228C158.525 100.216 158.582 100.216 158.636 100.228C159.146 100.28 159.643 100.451 160.098 100.732Z" fill="#263238"/>
<path d="M160.413 100.868C160.426 100.856 160.436 100.84 160.442 100.822C160.448 100.803 160.45 100.783 160.446 100.764C160.397 100.14 160.185 99.5499 159.842 99.0777C159.773 99.0121 159.694 98.9635 159.61 98.9347C159.526 98.9059 159.437 98.8974 159.35 98.9099C159.111 98.9099 159.045 99.0937 159.032 99.2136C158.978 99.7171 159.875 100.652 160.327 100.876H160.36L160.413 100.868ZM159.749 99.2695C160.032 99.6482 160.21 100.123 160.26 100.628C159.802 100.308 159.184 99.5732 159.218 99.2695C159.218 99.2695 159.218 99.1736 159.39 99.1496H159.443C159.546 99.1425 159.648 99.1731 159.736 99.2376L159.749 99.2695Z" fill="#263238"/>
<path d="M160.739 100.251L164.764 100.139C164.838 100.135 164.91 100.163 164.968 100.217C165.027 100.271 165.067 100.348 165.083 100.435L165.893 104.348C165.911 104.443 165.911 104.541 165.893 104.635C165.876 104.73 165.841 104.819 165.791 104.895C165.742 104.971 165.679 105.034 165.607 105.077C165.535 105.121 165.456 105.145 165.375 105.147C163.92 105.147 161.821 105.147 160.001 105.147C157.863 105.203 156.016 105.395 153.525 105.466C152.011 105.514 151.532 103.685 152.197 103.502C155.066 102.655 157.417 102.511 159.875 100.594C160.133 100.39 160.431 100.272 160.739 100.251Z" fill="#263238"/>
<path opacity="0.1" d="M154.976 34.5963C154 33.678 152.983 32.7437 151.914 31.8175L152.326 30.3242C153.444 31.5142 154.346 32.9685 154.976 34.5963Z" fill="black"/>
<path d="M124.612 51.2752L123.164 51.6905C122.988 51.7398 122.827 51.8512 122.703 52.0104C122.579 52.1697 122.497 52.3697 122.467 52.5851L122.142 54.9812C122.107 55.2295 122.144 55.4846 122.247 55.7041C122.349 55.9235 122.512 56.094 122.706 56.1873L123.769 56.6904C123.769 56.6904 126.824 59.3422 129.408 57.6329L128.292 54.0787L126.107 51.6826C125.904 51.4747 125.662 51.3291 125.401 51.2582C125.141 51.1873 124.87 51.1931 124.612 51.2752Z" fill="#E4897B"/>
<path d="M150.989 28.7028C151.55 29.1714 152.019 29.7816 152.363 30.4907C152.707 31.1998 152.918 31.9907 152.982 32.8082C152.982 32.8082 151.521 37.6004 150.677 39.9406C150.099 41.538 149.501 43.1355 148.804 44.7329C148.084 46.4853 147.221 48.1469 146.227 49.6928L145.994 50.0203L145.729 50.3717C145.518 50.6308 145.296 50.8761 145.064 51.1066C144.922 51.2498 144.774 51.3831 144.619 51.5059C144.473 51.6257 144.261 51.7934 144.201 51.8254L143.636 52.1768C142.906 52.6161 142.221 52.9755 141.537 53.303C140.169 53.9739 138.82 54.565 137.465 55.1241C134.742 56.2183 132.039 57.2167 129.262 58.0553L127.934 53.7822C130.424 52.2487 132.962 50.7951 135.439 49.3015C136.682 48.5587 137.917 47.8159 139.099 47.0651C139.684 46.6897 140.268 46.2664 140.773 45.9309L141.132 45.6594C141.178 45.6114 141.178 45.6035 141.238 45.4996L141.318 45.3798L141.411 45.2121C142.054 44.0069 142.613 42.7407 143.085 41.4262C143.61 39.9885 144.141 38.495 144.626 36.9694C145.589 33.9343 146.512 30.7715 147.376 27.7044C148.641 27.4967 149.926 27.8517 150.989 28.7028Z" fill="#004E89"/>
<path d="M29.5137 240.617H141.69L201.059 182.95L203.663 186.824H218.283L233.182 104.373L218.549 104.405L218.555 104.373L148.385 104.541L156.761 117.009L29.5137 240.617Z" fill="#004E89"/>
<path opacity="0.2" d="M29.5137 240.617H127.07L195.281 174.356L203.663 186.824L218.555 104.373L148.385 104.541L156.761 117.009L29.5137 240.617Z" fill="white"/>
<path d="M27.2275 235.856H107.773C107.733 235.442 107.713 235.026 107.713 234.61C107.712 233.131 107.954 231.667 108.424 230.301C108.894 228.935 109.583 227.693 110.452 226.647C111.321 225.601 112.353 224.772 113.489 224.206C114.625 223.64 115.843 223.348 117.072 223.348H117.418C118.098 221.162 119.395 219.332 121.082 218.178C122.77 217.025 124.741 216.621 126.651 217.036C128.561 217.452 130.289 218.661 131.533 220.453C132.778 222.244 133.459 224.504 133.459 226.839C135.416 226.95 137.27 227.932 138.659 229.594C140.048 231.256 140.875 233.479 140.978 235.832H141.357C141.917 235.805 142.476 235.915 143.001 236.154C143.525 236.393 144.004 236.757 144.409 237.225C144.813 237.692 145.135 238.253 145.355 238.873C145.574 239.494 145.688 240.161 145.688 240.836C145.688 241.51 145.574 242.178 145.355 242.798C145.135 243.419 144.813 243.98 144.409 244.447C144.004 244.914 143.525 245.279 143.001 245.518C142.476 245.757 141.917 245.867 141.357 245.84H27.2275C26.6671 245.867 26.1078 245.757 25.5834 245.518C25.059 245.279 24.5802 244.914 24.1757 244.447C23.7712 243.98 23.4494 243.419 23.2296 242.798C23.0098 242.178 22.8965 241.51 22.8965 240.836C22.8965 240.161 23.0098 239.494 23.2296 238.873C23.4494 238.253 23.7712 237.692 24.1757 237.225C24.5802 236.757 25.059 236.393 25.5834 236.154C26.1078 235.915 26.6671 235.805 27.2275 235.832V235.856Z" fill="#004E89"/>
<path opacity="0.7" d="M27.2275 235.856H107.773C107.733 235.442 107.713 235.026 107.713 234.61C107.712 233.131 107.954 231.667 108.424 230.301C108.894 228.935 109.583 227.693 110.452 226.647C111.321 225.601 112.353 224.772 113.489 224.206C114.625 223.64 115.843 223.348 117.072 223.348H117.418C118.098 221.162 119.395 219.332 121.082 218.178C122.77 217.025 124.741 216.621 126.651 217.036C128.561 217.452 130.289 218.661 131.533 220.453C132.778 222.244 133.459 224.504 133.459 226.839C135.416 226.95 137.27 227.932 138.659 229.594C140.048 231.256 140.875 233.479 140.978 235.832H141.357C141.917 235.805 142.476 235.915 143.001 236.154C143.525 236.393 144.004 236.757 144.409 237.225C144.813 237.692 145.135 238.253 145.355 238.873C145.574 239.494 145.688 240.161 145.688 240.836C145.688 241.51 145.574 242.178 145.355 242.798C145.135 243.419 144.813 243.98 144.409 244.447C144.004 244.914 143.525 245.279 143.001 245.518C142.476 245.757 141.917 245.867 141.357 245.84H27.2275C26.6671 245.867 26.1078 245.757 25.5834 245.518C25.059 245.279 24.5802 244.914 24.1757 244.447C23.7712 243.98 23.4494 243.419 23.2296 242.798C23.0098 242.178 22.8965 241.51 22.8965 240.836C22.8965 240.161 23.0098 239.494 23.2296 238.873C23.4494 238.253 23.7712 237.692 24.1757 237.225C24.5802 236.757 25.059 236.393 25.5834 236.154C26.1078 235.915 26.6671 235.805 27.2275 235.832V235.856Z" fill="white"/>
</svg>
