<svg width="216" height="293" viewBox="0 0 216 293" fill="none" xmlns="http://www.w3.org/2000/svg">
<path d="M165.765 277.771L92.2794 226.754C87.0961 223.161 82.8926 213.503 82.8926 205.19V16.0082C82.8926 7.69561 87.0961 3.87749 92.2794 7.47743L165.765 58.4947C170.954 62.0947 175.158 71.7454 175.158 80.058V269.24C175.158 277.553 170.954 281.371 165.765 277.771Z" fill="#455A64"/>
<path d="M174.234 52.5245L100.743 1.50717C98.529 -0.0273462 96.5089 -0.209161 94.888 0.736277C94.6906 0.852706 94.5006 0.986395 94.3195 1.13627L86.0879 6.8889C87.739 5.70346 89.9103 5.79074 92.2873 7.44162L165.773 58.4589C170.962 62.0589 175.166 71.7096 175.166 80.0222V269.241C175.166 273.604 173.956 276.775 172.141 278.222L180.264 272.535C182.333 271.204 183.651 267.961 183.651 263.306V74.095C183.621 65.7824 179.417 56.1244 174.234 52.5245Z" fill="#37474F"/>
<path d="M175.159 80.0063V269.239C175.159 273.603 173.949 276.774 172.135 278.221L180.257 272.534C182.326 271.203 183.644 267.959 183.644 263.305V74.0791L175.177 79.9845L175.159 80.0063Z" fill="#263238"/>
<path d="M183.62 88.7852L175.158 94.6614V99.2432L183.62 93.3742V88.7852Z" fill="#37474F"/>
<path d="M179.914 119.281C179.158 119.812 178.541 119.281 178.541 118.037V108.198C178.549 107.58 178.678 106.974 178.916 106.427C179.155 105.88 179.496 105.408 179.914 105.048C180.67 104.525 181.281 105.048 181.281 106.292V116.161C181.27 116.773 181.141 117.374 180.904 117.915C180.666 118.457 180.328 118.924 179.914 119.281Z" fill="#37474F"/>
<path d="M178.536 118.065V108.196C178.544 107.579 178.673 106.972 178.911 106.425C179.15 105.878 179.492 105.406 179.909 105.047C180.035 104.944 180.18 104.881 180.331 104.864C180.483 104.848 180.635 104.878 180.774 104.952L179.752 104.32C179.611 104.237 179.455 104.201 179.298 104.215C179.142 104.229 178.992 104.293 178.863 104.4C178.445 104.759 178.103 105.231 177.865 105.778C177.627 106.325 177.498 106.931 177.49 107.549V117.418C177.467 117.667 177.497 117.919 177.579 118.149C177.661 118.38 177.79 118.581 177.956 118.734L179.032 119.41C178.858 119.259 178.72 119.055 178.632 118.819C178.545 118.582 178.512 118.322 178.536 118.065Z" fill="#455A64"/>
<path d="M179.914 143.199C179.158 143.722 178.541 143.199 178.541 141.955V132.086C178.549 131.469 178.678 130.862 178.916 130.315C179.155 129.768 179.496 129.296 179.914 128.937C180.67 128.414 181.281 128.937 181.281 130.181V140.05C181.274 140.667 181.147 141.273 180.909 141.82C180.672 142.367 180.331 142.839 179.914 143.199Z" fill="#37474F"/>
<path d="M178.536 141.956V132.087C178.544 131.469 178.673 130.863 178.911 130.316C179.15 129.769 179.492 129.297 179.909 128.938C180.034 128.832 180.179 128.768 180.331 128.752C180.483 128.735 180.636 128.767 180.774 128.843L179.752 128.203C179.612 128.118 179.455 128.08 179.298 128.094C179.141 128.108 178.991 128.173 178.863 128.283C178.445 128.643 178.103 129.115 177.865 129.661C177.627 130.208 177.498 130.815 177.49 131.432V141.301C177.467 141.55 177.497 141.802 177.579 142.033C177.661 142.264 177.79 142.465 177.956 142.618L179.032 143.294C178.859 143.144 178.721 142.941 178.634 142.705C178.547 142.47 178.513 142.212 178.536 141.956Z" fill="#455A64"/>
<path d="M163.213 63.7751L90.9917 13.5941C90.6891 13.3832 90.3456 13.2719 89.9958 13.2715C89.646 13.271 89.3024 13.3815 88.9994 13.5917C88.6964 13.8018 88.4449 14.1043 88.2701 14.4687C88.0953 14.833 88.0035 15.2463 88.0039 15.6668V205.191C88.0039 211.518 91.7296 219.278 96.2899 222.441L166.757 271.364C167.09 271.594 167.467 271.716 167.851 271.716C168.234 271.716 168.612 271.596 168.944 271.366C169.277 271.136 169.554 270.806 169.748 270.408C169.941 270.009 170.045 269.557 170.048 269.095V78.0076C170.048 72.7931 166.969 66.386 163.213 63.7751Z" fill="#C1E0FF"/>
<path opacity="0.5" d="M163.213 63.7751L90.9917 13.5941C90.6891 13.3832 90.3456 13.2719 89.9958 13.2715C89.646 13.271 89.3024 13.3815 88.9994 13.5917C88.6964 13.8018 88.4449 14.1043 88.2701 14.4687C88.0953 14.833 88.0035 15.2463 88.0039 15.6668V205.191C88.0039 211.518 91.7296 219.278 96.2899 222.441L166.757 271.364C167.09 271.594 167.467 271.716 167.851 271.716C168.234 271.716 168.611 271.596 168.944 271.366C169.277 271.136 169.554 270.806 169.748 270.408C169.941 270.009 170.045 269.557 170.048 269.095V78.0076C170.048 72.7931 166.969 66.386 163.213 63.7751Z" fill="white"/>
<path d="M112.584 26.7217L113.703 32.387L137.642 48.9831L141.779 46.3359L112.584 26.7217Z" fill="#455A64"/>
<path d="M119.624 32.1976C119.624 33.1356 119.074 33.5137 118.415 33.0483C118.061 32.7661 117.768 32.3882 117.558 31.945C117.348 31.5018 117.227 31.0056 117.205 30.4962C117.205 29.5583 117.755 29.1729 118.415 29.6455C118.768 29.9277 119.062 30.3056 119.272 30.7488C119.482 31.192 119.603 31.6882 119.624 32.1976Z" fill="#263238"/>
<path d="M135.748 44.1832C135.617 44.1836 135.488 44.1435 135.373 44.0669L123.15 35.8488C123.055 35.7945 122.97 35.7173 122.901 35.622C122.831 35.5266 122.779 35.4152 122.747 35.2946C122.715 35.1739 122.704 35.0467 122.715 34.9208C122.726 34.7948 122.758 34.6729 122.809 34.5625C122.861 34.4521 122.931 34.3556 123.014 34.279C123.098 34.2024 123.194 34.1474 123.296 34.1173C123.399 34.0872 123.505 34.0827 123.609 34.1041C123.713 34.1255 123.812 34.1723 123.9 34.2416L136.123 42.4524C136.272 42.5519 136.389 42.708 136.456 42.8963C136.523 43.0846 136.536 43.2943 136.493 43.4925C136.45 43.6906 136.354 43.866 136.219 43.9911C136.084 44.1161 135.918 44.1837 135.748 44.1832Z" fill="#263238"/>
<path d="M73.5 235.905C89.2857 247.228 130.353 276.704 150.681 291.424C151.287 291.862 151.978 292.098 152.685 292.109C153.392 292.12 154.088 291.906 154.703 291.487C155.319 291.068 155.83 290.461 156.186 289.726C156.542 288.992 156.729 288.157 156.729 287.307V83.071C156.731 80.7467 156.226 78.4625 155.266 76.4454C154.306 74.4282 152.923 72.7484 151.255 71.573L73.131 16.5194C72.5243 16.0913 71.8343 15.8636 71.1308 15.8594C70.4273 15.8552 69.7355 16.0746 69.1252 16.4954C68.515 16.9162 68.008 17.5234 67.6557 18.2556C67.3035 18.9878 67.1183 19.8189 67.1191 20.6648V222.392C67.1176 225.116 67.7049 227.794 68.8236 230.163C69.9422 232.532 71.5537 234.51 73.5 235.905Z" fill="#F5F5F5"/>
<path d="M73.1915 236.53C85.8684 245.635 98.5414 254.735 111.21 263.831L133.413 279.831L143.332 286.987L147.729 290.187C149.078 291.161 150.505 292.565 152.102 292.827C152.753 292.922 153.413 292.851 154.039 292.618C154.666 292.385 155.244 291.996 155.736 291.475C156.228 290.955 156.624 290.315 156.896 289.598C157.168 288.881 157.311 288.102 157.316 287.314C157.316 286.958 157.316 286.587 157.316 286.238V98.0666C157.316 93.1648 157.316 88.2631 157.316 83.3614C157.332 80.824 156.79 78.3267 155.743 76.1232C154.697 73.9197 153.184 72.0886 151.358 70.8161C149.574 69.5434 147.784 68.2925 145.993 67.0344L120.428 49.0056L90.0598 27.646C84.5862 23.7478 79.1368 19.8134 73.6209 16.0098C72.9041 15.4789 72.0811 15.1912 71.2392 15.1773C70.3974 15.1634 69.5682 15.4238 68.8395 15.9309C68.1108 16.4379 67.5099 17.1728 67.1005 18.0573C66.6911 18.9419 66.4886 19.9433 66.5143 20.9552C66.5143 22.5697 66.5143 24.1842 66.5143 25.7987V205.825C66.5143 211.158 66.5143 216.491 66.5143 221.824C66.4679 224.757 67.0569 227.653 68.2234 230.229C69.3898 232.805 71.0936 234.971 73.1673 236.515C73.8326 237.01 74.4434 235.751 73.7721 235.264C69.6714 232.232 67.6937 227.126 67.6937 221.446V36.3731C67.6937 31.2823 67.6937 26.1914 67.6937 21.1006C67.6563 20.4423 67.7423 19.7823 67.9454 19.1693C68.1484 18.5563 68.4634 18.0059 68.867 17.5589C70.2157 16.1771 71.8427 16.4607 73.2459 17.4498L79.2941 21.7115L105.223 40.0094L134.895 60.9254C140.193 64.6562 145.51 68.3653 150.796 72.1252C152.454 73.2972 153.822 74.98 154.758 76.9999C155.695 79.0198 156.167 81.3037 156.124 83.6159C156.124 85.3468 156.124 87.0849 156.124 88.8231V285.911C156.124 286.347 156.124 286.791 156.124 287.227C156.128 287.976 155.963 288.713 155.645 289.357C155.328 290.002 154.871 290.531 154.323 290.887C153.775 291.244 153.157 291.414 152.534 291.38C151.912 291.347 151.309 291.11 150.79 290.696C144.56 286.274 138.379 281.729 132.173 277.256C117.807 266.886 103.436 256.541 89.0619 246.224L73.8023 235.279C73.6653 235.198 73.5078 235.182 73.3615 235.235C73.2152 235.287 73.0909 235.405 73.0136 235.563C72.9362 235.721 72.9116 235.909 72.9446 236.088C72.9776 236.268 73.0658 236.425 73.1915 236.53Z" fill="#E0E0E0"/>
<path d="M114.164 259.001L109.138 255.518C108.629 255.081 108.213 254.507 107.923 253.841C107.633 253.175 107.478 252.437 107.469 251.685V245.424C107.469 243.969 108.213 243.242 109.138 243.904L114.164 247.394C114.671 247.833 115.085 248.408 115.374 249.073C115.663 249.739 115.818 250.476 115.827 251.227V257.46C115.827 258.965 115.071 259.641 114.164 259.001Z" fill="#E0E0E0"/>
<path d="M111.643 254.421C111.491 254.303 111.365 254.143 111.275 253.955C111.184 253.766 111.132 253.555 111.123 253.338V248.858C111.123 248.458 111.353 248.291 111.643 248.494C111.795 248.612 111.922 248.772 112.012 248.96C112.103 249.149 112.155 249.36 112.163 249.578V254.058C112.163 254.458 111.933 254.618 111.643 254.421Z" fill="white"/>
<path d="M113.256 253.299L110.026 251.059C109.875 250.94 109.75 250.78 109.659 250.592C109.569 250.403 109.516 250.193 109.506 249.976C109.506 249.576 109.742 249.409 110.026 249.612L113.256 251.852C113.407 251.971 113.533 252.131 113.623 252.319C113.713 252.507 113.766 252.718 113.776 252.935C113.782 253.335 113.546 253.495 113.256 253.299Z" fill="white"/>
<path d="M95.9254 236.812C96.5185 237.251 97.0063 237.867 97.3407 238.601C98.1209 240.223 98.1209 241.983 97.3407 242.529C97.1136 242.654 96.8629 242.705 96.6142 242.675C96.3655 242.646 96.1278 242.538 95.9254 242.361C95.3459 241.903 94.8636 241.288 94.5171 240.566C94.1705 239.844 93.9693 239.034 93.9295 238.201C93.8741 237.9 93.8999 237.585 94.0033 237.302C94.1067 237.019 94.2823 236.783 94.5047 236.628C94.727 236.474 94.9846 236.408 95.24 236.441C95.4955 236.474 95.7355 236.604 95.9254 236.812ZM95.9254 235.358C95.6183 235.091 95.2577 234.926 94.8805 234.882C94.5033 234.837 94.1229 234.913 93.7783 235.103C92.5687 235.925 92.5687 238.594 93.7783 241.067C94.2885 242.181 95.0277 243.12 95.9254 243.794C96.2334 244.062 96.5947 244.227 96.9727 244.273C97.3508 244.319 97.7323 244.244 98.0786 244.056C99.2882 243.227 99.2882 240.558 98.0786 238.085C97.568 236.968 96.8264 236.029 95.9254 235.358Z" fill="#E0E0E0"/>
<path d="M100.348 249.518C100.194 249.399 100.068 249.237 99.9789 249.045L97.7109 244.318C97.5052 243.896 97.5052 243.438 97.7109 243.292C97.9165 243.147 98.2431 243.38 98.4487 243.809L100.717 248.536C100.922 248.958 100.922 249.416 100.717 249.561C100.657 249.591 100.592 249.603 100.528 249.595C100.463 249.587 100.402 249.561 100.348 249.518Z" fill="#E0E0E0"/>
<path d="M131.117 259.437C129.859 258.564 128.843 259.524 128.843 261.582C128.843 259.524 127.827 257.153 126.569 256.28C125.311 255.408 124.301 256.368 124.301 258.426C124.301 263.655 128.843 269.044 128.843 269.044C128.843 269.044 133.391 269.967 133.391 264.731C133.391 262.68 132.369 260.309 131.117 259.437Z" fill="#E0E0E0"/>
<path d="M145.665 272.339C145.665 273.881 144.764 274.521 143.651 273.736C143.064 273.276 142.576 272.657 142.226 271.928C141.876 271.199 141.674 270.38 141.637 269.539C141.637 267.998 142.538 267.358 143.651 268.143C144.237 268.603 144.725 269.222 145.075 269.952C145.425 270.681 145.627 271.499 145.665 272.339Z" fill="#E0E0E0"/>
<path d="M143.655 273.738C142.01 272.596 140.68 273.811 140.68 276.451V277.265L146.637 281.403V280.581C146.637 277.949 145.313 274.916 143.655 273.738Z" fill="#E0E0E0"/>
<path d="M81.2308 224.843L77.2148 226.435V233.206L80.3297 235.388V231.694C80.3297 231.003 80.7349 230.719 81.2308 231.068C81.4945 231.274 81.714 231.552 81.8716 231.88C82.0292 232.207 82.1205 232.574 82.1381 232.952V236.639L85.2529 238.821V232.006L81.2308 224.843Z" fill="#E0E0E0"/>
<path d="M95.2946 217.874L76.6299 204.921C75.1602 203.896 73.9688 201.161 73.9688 198.812V174.035C73.9688 171.678 75.1784 170.602 76.6299 171.62L95.2946 184.58C96.7644 185.598 97.9498 188.333 97.9498 190.689V215.459C97.9498 217.816 96.7644 218.914 95.2946 217.874Z" fill="#5D9FD1"/>
<path opacity="0.5" d="M95.2946 217.874L76.6299 204.921C75.1602 203.896 73.9688 201.161 73.9688 198.812V174.035C73.9688 171.678 75.1784 170.602 76.6299 171.62L95.2946 184.58C96.7644 185.598 97.9498 188.333 97.9498 190.689V215.459C97.9498 217.816 96.7644 218.914 95.2946 217.874Z" fill="white"/>
<path d="M76.7832 196.45L95.1455 209.199L89.7203 192.232L85.9644 197.592L82.1238 191.018L76.7832 196.45Z" fill="#5D9FD1"/>
<path d="M83.1523 185.867C83.184 186.565 83.3522 187.245 83.6433 187.85C83.9344 188.456 84.3402 188.97 84.8277 189.351C85.7531 189.998 86.503 189.475 86.503 188.187C86.4677 187.494 86.2978 186.82 86.0068 186.221C85.7159 185.621 85.312 185.111 84.8277 184.733C83.9023 184.064 83.1523 184.58 83.1523 185.867Z" fill="#BA68C8"/>
<path d="M121.258 235.911L102.593 222.959C101.123 221.933 99.9316 219.199 99.9316 216.85V192.072C99.9316 189.715 101.141 188.639 102.593 189.657L121.258 202.617C122.727 203.635 123.919 206.37 123.919 208.726V233.496C123.919 235.853 122.727 236.936 121.258 235.911Z" fill="#5D9FD1"/>
<path opacity="0.5" d="M121.258 235.911L102.593 222.959C101.123 221.933 99.9316 219.199 99.9316 216.85V192.072C99.9316 189.715 101.141 188.639 102.593 189.657L121.258 202.617C122.727 203.635 123.919 206.37 123.919 208.726V233.496C123.919 235.853 122.727 236.936 121.258 235.911Z" fill="white"/>
<path d="M102.744 214.487L121.106 227.236L115.681 210.269L111.925 215.629L108.085 209.055L102.744 214.487Z" fill="#5D9FD1"/>
<path d="M109.113 203.905C109.145 204.603 109.313 205.282 109.604 205.888C109.895 206.493 110.301 207.007 110.789 207.388C111.714 208.036 112.464 207.512 112.464 206.225C112.432 205.527 112.264 204.847 111.973 204.242C111.682 203.637 111.276 203.122 110.789 202.741C109.863 202.101 109.113 202.618 109.113 203.905Z" fill="#5D9FD1"/>
<path d="M147.222 253.947L128.552 240.995C127.088 239.969 125.896 237.235 125.896 234.886V210.108C125.896 207.752 127.106 206.675 128.552 207.693L147.222 220.653C148.686 221.671 149.878 224.406 149.878 226.762V251.533C149.878 253.889 148.686 254.973 147.222 253.947Z" fill="#E0EFFF"/>
<path opacity="0.5" d="M147.222 253.947L128.552 240.995C127.088 239.969 125.896 237.235 125.896 234.886V210.108C125.896 207.752 127.106 206.675 128.552 207.693L147.222 220.653C148.686 221.671 149.878 224.406 149.878 226.762V251.533C149.878 253.889 148.686 254.973 147.222 253.947Z" fill="#5D9FD1"/>
<path d="M128.709 232.522L147.065 245.27L141.646 228.296L137.89 233.663L134.043 227.089L128.709 232.522Z" fill="#5D9FD1"/>
<path d="M135.078 221.94C135.11 222.638 135.278 223.318 135.569 223.923C135.86 224.528 136.266 225.043 136.753 225.424C137.679 226.071 138.423 225.547 138.423 224.26C138.392 223.563 138.225 222.883 137.935 222.278C137.645 221.673 137.24 221.158 136.753 220.777C135.828 220.129 135.078 220.653 135.078 221.94Z" fill="#5D9FD1"/>
<path d="M156.731 271.562C156.661 271.562 156.592 271.539 156.531 271.497L66.9395 209.301C66.893 209.269 66.8523 209.227 66.8195 209.176C66.7868 209.125 66.7627 209.067 66.7486 209.005C66.7346 208.942 66.7309 208.878 66.7377 208.814C66.7445 208.75 66.7617 208.688 66.7883 208.632C66.8149 208.576 66.8504 208.527 66.8927 208.488C66.9351 208.449 66.9835 208.42 67.0352 208.403C67.0868 208.386 67.1408 208.382 67.1939 208.39C67.247 208.398 67.2982 208.419 67.3447 208.451L156.936 270.646C156.983 270.678 157.025 270.721 157.058 270.773C157.091 270.825 157.115 270.883 157.129 270.946C157.143 271.009 157.146 271.075 157.139 271.139C157.132 271.204 157.115 271.266 157.088 271.322C157.05 271.396 156.998 271.456 156.935 271.498C156.873 271.54 156.802 271.562 156.731 271.562Z" fill="#E0E0E0"/>
<path d="M156.73 214.88C156.66 214.88 156.591 214.857 156.53 214.814L66.9386 152.619C66.8516 152.55 66.7896 152.444 66.7653 152.322C66.7409 152.2 66.756 152.071 66.8075 151.962C66.859 151.853 66.9431 151.772 67.0427 151.734C67.1422 151.697 67.2499 151.707 67.3438 151.761L156.936 213.964C156.983 213.995 157.025 214.037 157.058 214.088C157.091 214.138 157.116 214.197 157.13 214.259C157.144 214.322 157.148 214.387 157.14 214.451C157.133 214.515 157.115 214.577 157.087 214.633C157.051 214.708 156.999 214.77 156.936 214.814C156.873 214.857 156.802 214.88 156.73 214.88Z" fill="#E0E0E0"/>
<path d="M151.255 71.573L73.131 16.5194C72.5243 16.0913 71.8343 15.8636 71.1308 15.8594C70.4273 15.8552 69.7355 16.0746 69.1252 16.4954C68.515 16.9162 68.008 17.5234 67.6557 18.2556C67.3035 18.9878 67.1183 19.8189 67.1191 20.6648V29.5228L156.705 91.7254V83.071C156.709 80.7495 156.208 78.4672 155.252 76.4503C154.296 74.4334 152.918 72.7521 151.255 71.573Z" fill="#E0E0E0"/>
<path d="M99.7266 109.856C105.637 105.753 105.636 92.4478 99.7253 80.1377C93.8146 67.8275 84.2321 61.1742 78.3221 65.2771C72.4121 69.38 72.4127 82.6854 78.3234 94.9956C84.234 107.306 93.8166 113.959 99.7266 109.856Z" fill="#BA68C8"/>
<path d="M81.8659 150.181C83.7202 148.893 83.7205 144.72 81.8666 140.859C80.0128 136.998 77.0067 134.911 75.1524 136.198C73.2981 137.486 73.2978 141.659 75.1517 145.52C77.0055 149.381 80.0116 151.468 81.8659 150.181Z" fill="#E0E0E0"/>
<path d="M94.6853 154.64C94.6853 158.277 92.5563 159.731 89.9375 157.942C88.5549 156.858 87.4041 155.398 86.5782 153.679C85.7524 151.961 85.2746 150.033 85.1836 148.051C85.1836 144.415 87.3126 142.961 89.9375 144.757C91.3187 145.84 92.4684 147.3 93.2933 149.017C94.1181 150.734 94.595 152.66 94.6853 154.64Z" fill="#E0E0E0"/>
<path d="M106.107 162.793C106.107 166.43 103.984 167.884 101.359 166.088C99.9771 165.004 98.8269 163.543 98.002 161.825C97.1771 160.106 96.7007 158.178 96.6113 156.197C96.6113 152.561 98.7403 151.106 101.359 152.902C102.742 153.985 103.893 155.445 104.718 157.164C105.543 158.883 106.019 160.812 106.107 162.793Z" fill="#E0E0E0"/>
<path d="M117.533 170.654C117.533 174.29 115.41 175.745 112.785 173.956C111.404 172.871 110.255 171.41 109.43 169.692C108.605 167.973 108.128 166.046 108.037 164.065C108.037 160.429 110.166 158.974 112.785 160.771C114.167 161.853 115.318 163.312 116.143 165.029C116.968 166.746 117.444 168.674 117.533 170.654Z" fill="#E0E0E0"/>
<path d="M127.561 182.003C129.415 180.716 129.416 176.542 127.562 172.681C125.708 168.82 122.702 166.733 120.848 168.021C118.993 169.308 118.993 173.482 120.847 177.343C122.701 181.204 125.707 183.29 127.561 182.003Z" fill="#E0E0E0"/>
<path d="M139.645 190.151C141.499 188.864 141.5 184.69 139.646 180.829C137.792 176.968 134.786 174.882 132.932 176.169C131.077 177.456 131.077 181.63 132.931 185.491C134.785 189.352 137.791 191.439 139.645 190.151Z" fill="#E0E0E0"/>
<path d="M104.183 128.736C104.077 128.737 103.973 128.704 103.88 128.642L73.6093 107.624C73.4709 107.528 73.3698 107.37 73.3279 107.185C73.2859 106.999 73.3067 106.802 73.3855 106.635C73.425 106.551 73.4779 106.478 73.541 106.42C73.6041 106.361 73.6762 106.318 73.7532 106.293C73.8303 106.268 73.9106 106.261 73.9897 106.274C74.0688 106.286 74.1451 106.317 74.2141 106.366L104.485 127.383C104.599 127.464 104.687 127.588 104.737 127.735C104.787 127.882 104.795 128.044 104.761 128.198C104.726 128.351 104.651 128.487 104.547 128.584C104.443 128.681 104.315 128.734 104.183 128.736Z" fill="#BA68C8"/>
<path d="M122.887 149.36C122.78 149.363 122.675 149.327 122.584 149.258L73.594 115.252C73.5217 115.206 73.4578 115.144 73.4062 115.068C73.3545 114.992 73.3162 114.904 73.2935 114.81C73.2708 114.716 73.2641 114.617 73.2739 114.519C73.2838 114.422 73.3099 114.328 73.3507 114.243C73.3915 114.158 73.4462 114.084 73.5115 114.025C73.5767 113.966 73.6512 113.924 73.7305 113.901C73.8097 113.877 73.892 113.874 73.9725 113.89C74.053 113.905 74.13 113.941 74.1988 113.993L123.189 148C123.258 148.048 123.318 148.112 123.366 148.188C123.415 148.265 123.45 148.351 123.47 148.444C123.49 148.536 123.495 148.633 123.484 148.728C123.473 148.823 123.447 148.914 123.407 148.996C123.354 149.106 123.278 149.198 123.187 149.262C123.096 149.325 122.992 149.359 122.887 149.36Z" fill="#5D9FD1"/>
<path d="M149.811 176.879C149.705 176.88 149.601 176.848 149.509 176.785L73.5917 124.073C73.4534 123.977 73.3522 123.819 73.3103 123.634C73.2684 123.449 73.2891 123.251 73.3679 123.084C73.4074 123.001 73.4603 122.927 73.5234 122.869C73.5865 122.81 73.6586 122.767 73.7357 122.742C73.8127 122.717 73.893 122.71 73.9721 122.723C74.0512 122.735 74.1275 122.767 74.1965 122.815L150.113 175.519C150.23 175.599 150.321 175.722 150.373 175.871C150.425 176.019 150.434 176.184 150.399 176.34C150.365 176.495 150.288 176.633 150.182 176.73C150.075 176.828 149.945 176.88 149.811 176.879Z" fill="#5D9FD1"/>
<path d="M148.371 185.033C145.746 183.215 143.623 184.691 143.623 188.328C143.711 190.309 144.187 192.238 145.012 193.957C145.837 195.675 146.988 197.136 148.371 198.218V185.033Z" fill="#E0E0E0"/>
<path d="M123.345 100.241C123.256 100.239 123.169 100.211 123.091 100.161L113.758 93.6741C113.644 93.595 113.56 93.4644 113.525 93.3109C113.491 93.1575 113.508 92.9938 113.574 92.8559C113.64 92.718 113.748 92.6172 113.876 92.5756C114.003 92.534 114.14 92.555 114.254 92.6341L123.593 99.114C123.689 99.1801 123.764 99.2823 123.806 99.4049C123.849 99.5275 123.857 99.6636 123.828 99.792C123.8 99.9204 123.737 100.034 123.65 100.115C123.562 100.197 123.455 100.241 123.345 100.241Z" fill="#BA68C8"/>
<path d="M114.622 89.2601V85.1001L113.92 84.6129V83.3184L115.789 84.6202V90.0819L114.622 89.2601Z" fill="#37474F"/>
<path d="M120.049 90.2926C120.049 92.0889 119.408 92.6344 118.271 91.8417C117.696 91.4338 117.226 90.8433 116.912 90.135C116.599 89.4268 116.453 88.6282 116.493 87.8272C116.493 86.0454 117.097 85.4927 118.271 86.2927C118.841 86.7024 119.308 87.2912 119.622 87.9959C119.935 88.7006 120.083 89.4946 120.049 90.2926ZM117.69 88.6563C117.69 89.8272 117.853 90.3726 118.295 90.6708C118.736 90.969 118.87 90.6271 118.87 89.4635C118.87 88.2999 118.706 87.7472 118.295 87.4636C117.884 87.1799 117.69 87.4926 117.69 88.6563Z" fill="#37474F"/>
<path d="M124.013 93.0485C124.013 94.8448 123.378 95.3902 122.241 94.6048C121.668 94.1927 121.199 93.6003 120.886 92.8916C120.573 92.1828 120.426 91.3846 120.462 90.583C120.462 88.8013 121.067 88.2485 122.241 89.0485C122.812 89.4562 123.28 90.0448 123.592 90.7502C123.905 91.4555 124.05 92.2505 124.013 93.0485ZM121.66 91.4121C121.66 92.583 121.823 93.1357 122.265 93.4266C122.706 93.7175 122.839 93.4266 122.839 92.2194C122.839 91.0121 122.676 90.5103 122.265 90.2267C121.854 89.9431 121.66 90.2485 121.66 91.4121Z" fill="#37474F"/>
<path d="M135.974 109.26C135.887 109.258 135.802 109.231 135.726 109.18L126.387 102.693C126.273 102.614 126.189 102.483 126.154 102.33C126.119 102.176 126.137 102.012 126.203 101.874C126.269 101.737 126.377 101.636 126.505 101.594C126.632 101.553 126.769 101.574 126.883 101.653L136.24 108.133C136.336 108.199 136.411 108.301 136.453 108.423C136.496 108.546 136.504 108.682 136.475 108.811C136.447 108.939 136.384 109.053 136.297 109.134C136.21 109.215 136.102 109.259 135.992 109.26H135.974Z" fill="#5D9FD1"/>
<path d="M127.982 94.59V95.3173L128.236 95.4918C128.659 95.7495 129.021 96.1322 129.288 96.6042C129.554 97.0761 129.717 97.6218 129.76 98.19C129.76 99.3536 129.125 99.6445 128.139 98.9827C127.521 98.5143 126.987 97.9038 126.566 97.1863L127.026 96.2773C127.238 96.8436 127.577 97.3273 128.006 97.6736C128.332 97.899 128.508 97.8118 128.502 97.4263C128.495 97.2379 128.445 97.0554 128.358 96.8988C128.27 96.7423 128.148 96.6178 128.006 96.5391L126.911 95.8118V92.6191L129.584 94.4737V95.7391L127.982 94.59Z" fill="#37474F"/>
<path d="M133.678 100.008C133.678 101.797 133.037 102.343 131.906 101.557C131.331 101.15 130.861 100.559 130.547 99.8509C130.233 99.1426 130.088 98.3441 130.127 97.543C130.127 95.7612 130.732 95.2085 131.906 96.0085C132.474 96.4197 132.94 97.0091 133.252 97.7136C133.564 98.418 133.711 99.2112 133.678 100.008ZM131.319 98.3721C131.319 99.543 131.482 100.088 131.924 100.387C132.365 100.685 132.492 100.343 132.492 99.1793C132.492 98.0157 132.329 97.463 131.924 97.1794C131.518 96.8957 131.319 97.2085 131.319 98.3721Z" fill="#37474F"/>
<path d="M137.652 102.764C137.652 104.561 137.011 105.106 135.88 104.321C135.299 103.915 134.823 103.325 134.503 102.616C134.183 101.906 134.032 101.105 134.065 100.299C134.065 98.5171 134.67 97.9644 135.88 98.7643C136.448 99.1756 136.914 99.7649 137.226 100.469C137.538 101.174 137.685 101.967 137.652 102.764ZM135.293 101.128C135.293 102.299 135.456 102.852 135.898 103.142C136.339 103.433 136.466 103.099 136.466 101.935C136.466 100.772 136.303 100.226 135.898 99.9425C135.492 99.6589 135.293 99.9643 135.293 101.099V101.128Z" fill="#37474F"/>
<path d="M149.351 118.401C149.263 118.401 149.177 118.37 149.103 118.314L139.764 111.834C139.707 111.795 139.658 111.743 139.618 111.681C139.578 111.618 139.548 111.547 139.531 111.471C139.514 111.395 139.509 111.316 139.518 111.238C139.526 111.16 139.547 111.084 139.58 111.016C139.612 110.948 139.656 110.888 139.708 110.84C139.759 110.792 139.819 110.756 139.882 110.736C139.945 110.715 140.011 110.71 140.076 110.72C140.141 110.73 140.203 110.755 140.26 110.794L149.599 117.274C149.694 117.34 149.769 117.443 149.812 117.565C149.855 117.688 149.862 117.824 149.834 117.952C149.806 118.081 149.743 118.194 149.656 118.275C149.568 118.357 149.461 118.401 149.351 118.401Z" fill="#5D9FD1"/>
<path d="M140.629 107.421V103.283L139.928 102.795V101.501L141.797 102.803V108.264L140.629 107.421Z" fill="#37474F"/>
<path d="M143.745 105.39V106.117L143.999 106.292C144.422 106.552 144.784 106.936 145.05 107.409C145.317 107.882 145.48 108.428 145.523 108.997C145.523 110.153 144.919 110.452 143.902 109.79C143.285 109.321 142.752 108.708 142.336 107.986L142.796 107.084C143.007 107.649 143.344 108.132 143.769 108.481C144.096 108.706 144.277 108.619 144.271 108.233C144.264 108.043 144.213 107.859 144.124 107.702C144.036 107.544 143.913 107.418 143.769 107.339L142.675 106.612V103.419L145.348 105.273V106.532L143.745 105.39Z" fill="#37474F"/>
<path d="M149.441 110.81C149.441 112.599 148.8 113.144 147.669 112.359C147.105 111.946 146.645 111.358 146.336 110.656C146.027 109.955 145.882 109.166 145.915 108.373C145.915 106.584 146.52 106.032 147.693 106.832C148.254 107.245 148.713 107.833 149.02 108.533C149.328 109.233 149.473 110.019 149.441 110.81ZM147.082 109.173C147.082 110.337 147.245 110.89 147.687 111.181C148.128 111.471 148.292 111.144 148.292 109.973C148.292 108.802 148.128 108.264 147.687 107.981C147.245 107.697 147.082 108.002 147.082 109.173Z" fill="#37474F"/>
<path d="M77.6975 47.1732C77.6975 48.475 77.1532 48.9404 76.3125 48.3586C75.9365 48.0895 75.6354 47.6921 75.4476 47.2168V49.2168L74.3105 48.4313V42.6787L75.4476 43.4642V43.9587C75.6472 43.7478 75.9375 43.7551 76.2823 43.9587C76.7287 44.3022 77.0937 44.7787 77.3417 45.342C77.5896 45.9053 77.7122 46.5361 77.6975 47.1732ZM76.5484 46.3368C76.5563 46.0784 76.5101 45.8217 76.4139 45.5904C76.3177 45.3591 76.1747 45.1606 75.998 45.0132C75.6714 44.7805 75.4476 45.0132 75.4476 45.5732C75.4402 45.8315 75.4867 46.088 75.5828 46.3192C75.679 46.5503 75.8217 46.7489 75.998 46.8968C76.3609 47.1295 76.5484 46.8968 76.5484 46.3368Z" fill="#37474F"/>
<path d="M79.2766 46.7944C79.4943 46.4816 79.8209 46.4453 80.2382 46.7289V48.1834C79.6334 47.6816 79.2766 47.7616 79.2766 48.3798V50.4016L78.1758 49.5798V45.3398L79.3068 46.1253L79.2766 46.7944Z" fill="#37474F"/>
<path d="M83.7954 51.3824C83.7954 52.6914 83.1301 53.0914 82.1019 52.3787C81.6036 52.0416 81.1856 51.5563 80.888 50.9693C80.5904 50.3822 80.4232 49.7131 80.4023 49.026C80.4023 47.7097 81.0737 47.317 82.1019 48.0297C82.5999 48.3666 83.0173 48.852 83.3139 49.4393C83.6105 50.0265 83.7763 50.6957 83.7954 51.3824ZM81.5455 49.8333C81.536 50.0938 81.5822 50.3529 81.6796 50.5858C81.777 50.8188 81.9224 51.0179 82.1019 51.1642C82.4345 51.3896 82.6523 51.1642 82.6523 50.6042C82.6613 50.3456 82.6156 50.0884 82.5193 49.8569C82.423 49.6253 82.2794 49.427 82.1019 49.2806C81.7632 49.0406 81.5455 49.2733 81.5455 49.8333Z" fill="#37474F"/>
<path d="M84.4001 49.5147C84.4001 48.5983 84.9082 48.4165 85.6098 48.9183C85.8306 49.0758 86.0338 49.2664 86.2146 49.4856L86.1722 50.7001C86.08 50.5431 85.9629 50.4096 85.8275 50.3074C85.6339 50.1619 85.5069 50.2129 85.5069 50.4819V50.6201L86.1118 51.0565V52.0746L85.5069 51.631V54.7L84.382 53.9219V50.8528L83.9707 50.5619V49.551L84.382 49.8419L84.4001 49.5147ZM86.4807 49.9147C86.4807 49.442 86.7226 49.2747 87.0855 49.5147C87.264 49.6384 87.4132 49.815 87.5191 50.0275C87.6249 50.24 87.6839 50.4816 87.6903 50.7292C87.6903 51.2019 87.4484 51.3692 87.0855 51.1365C86.9062 51.0121 86.7564 50.8344 86.6505 50.6205C86.5446 50.4066 86.4861 50.1635 86.4807 49.9147ZM87.6238 51.9219V56.1618L86.4928 55.3691V51.1365L87.6238 51.9219Z" fill="#37474F"/>
<path d="M88.3379 56.656V50.8379L89.4689 51.6451V57.4632L88.3379 56.656Z" fill="#37474F"/>
<path d="M93.1519 58.2551L91.0955 56.8006C91.1309 57.0158 91.2029 57.2199 91.3069 57.4001C91.411 57.5804 91.5449 57.7328 91.7003 57.8478C91.7987 57.9257 91.9121 57.9719 92.0297 57.9821C92.1472 57.9923 92.2649 57.9661 92.3716 57.906L92.9765 59.1205C92.6559 59.3896 92.1962 59.3387 91.6217 58.9387C91.133 58.6089 90.7242 58.1316 90.4357 57.5538C90.1472 56.9761 89.989 56.3179 89.9766 55.6442C89.9766 54.3133 90.6237 53.8988 91.5854 54.5679C92.1067 54.9454 92.5297 55.4909 92.8065 56.1425C93.0834 56.7941 93.203 57.5259 93.1519 58.2551ZM92.033 56.7351C92.0371 56.5289 91.997 56.3248 91.9165 56.1427C91.836 55.9605 91.7178 55.8063 91.5733 55.6951C91.3132 55.5133 91.1318 55.6951 91.0773 56.066L92.033 56.7351Z" fill="#37474F"/>
<path d="M19.9043 248.34L20.2853 255.031H26.3456L26.4605 246.318L19.9043 248.34Z" fill="#FFA8A7"/>
<path d="M2.31445 253.57V260.341C2.31445 260.341 2.91927 261.796 5.65305 261.796C8.38683 261.796 7.96346 258.647 7.96346 258.647L8.28401 254.116L2.31445 253.57Z" fill="#FFA8A7"/>
<path d="M28.5778 175.425L27.7552 246.994C27.7552 246.994 24.8581 251.402 18.4168 248.58L17.2072 216.042L14.4492 177.301L28.5778 175.425Z" fill="#263238"/>
<path opacity="0.3" d="M28.5778 175.425L27.7552 246.994C27.7552 246.994 24.8581 251.402 18.4168 248.58L17.2072 216.042L14.4492 177.301L28.5778 175.425Z" fill="black"/>
<path d="M16.7913 209.933L19.0956 187.977C19.0956 187.977 24.4362 184.915 25.8817 176.428L15.8961 177.111L14.4688 177.3L16.7913 209.933Z" fill="#436374"/>
<path opacity="0.5" d="M16.7913 209.933L19.0956 187.977C19.0956 187.977 24.4362 184.915 25.8817 176.428L15.8961 177.111L14.4688 177.3L16.7913 209.933Z" fill="black"/>
<path d="M4.7614 175.34L3.32798 213.405C3.32798 213.405 0.830078 240.43 0.830078 254.175C2.16027 255.034 3.62359 255.553 5.12846 255.701C6.63332 255.849 8.14734 255.621 9.57575 255.033L14.4687 215.179L18.4908 186.62C18.4908 186.62 25.3313 184.263 27.0792 175.856L4.7614 175.34Z" fill="#263238"/>
<path opacity="0.3" d="M4.7614 175.34L3.32798 213.405C3.32798 213.405 0.830078 240.43 0.830078 254.175C2.16027 255.034 3.62359 255.553 5.12846 255.701C6.63332 255.849 8.14734 255.621 9.57575 255.033L14.4687 215.179L18.4908 186.62C18.4908 186.62 25.3313 184.263 27.0792 175.856L4.7614 175.34Z" fill="black"/>
<path d="M22.6523 132.648L32.7951 132.699C33.4422 134.18 33.8274 135.806 33.9262 137.474C34.0251 139.143 33.8356 140.818 33.3697 142.394L25.9788 142.626L22.6523 132.648Z" fill="#1A659E"/>
<path d="M12.7314 132.946C12.7314 132.946 8.788 133.543 7.56627 133.928C6.75677 134.137 5.96808 134.449 5.21353 134.859C4.92977 135.035 4.69403 135.306 4.5343 135.638C4.37456 135.971 4.29753 136.352 4.31234 136.735C4.49379 140.692 5.06232 153.019 5.07442 154.364C5.07442 155.964 4.75991 175.309 4.75991 175.309C4.75991 175.309 5.54617 179.396 18.1687 179.396C24.8701 179.396 28.5837 175.397 28.5837 175.397C28.5837 175.397 28.3055 154.386 28.1361 149.361C27.9668 144.335 28.6865 134.314 22.6504 132.634L18.0236 132.539L12.7314 132.946Z" fill="#004E89"/>
<path d="M25.9059 109.419C25.9059 109.419 27.2183 111.033 27.2183 115.281C27.2183 119.528 24.291 123.208 24.291 123.208V109.623L25.9059 109.419Z" fill="#263238"/>
<path d="M25.9065 110.553C26.4773 110.161 26.9604 109.608 27.3144 108.942C27.6683 108.275 27.8825 107.516 27.9387 106.728C28.1201 104.015 26.8016 104.99 26.342 105.223C25.8823 105.455 24.5275 106.059 24.5275 106.059C24.5275 106.059 25.7855 104.488 25.0356 103.441C24.4852 102.663 21.8179 105.106 18.4491 105.586C15.0802 106.066 11.8445 106.023 10.8949 109.652C10.8949 109.652 7.63493 110.437 8.4212 117.302C9.20746 124.168 11.7175 128.342 12.7396 128.284L25.9065 110.553Z" fill="#263238"/>
<path d="M19.841 123.209H12.7344V132.947H19.841V123.209Z" fill="#FFA8A7"/>
<path d="M19.8403 131.797C18.3136 131.545 16.8839 130.752 15.7335 129.519C14.5831 128.286 13.7641 126.669 13.3809 124.874V122.03H19.8403V131.797Z" fill="#F28F8F"/>
<path d="M21.0781 107.986C21.0781 107.986 27.7613 108.291 26.5577 121.236C25.9892 127.331 25.5719 130.691 21.2414 130.691C16.9109 130.691 10.5119 126.764 10.9232 116.306C11.3345 105.848 21.0781 107.986 21.0781 107.986Z" fill="#FFA8A7"/>
<path d="M21.75 118.663V123.207L23.9636 122.386L21.75 118.663Z" fill="#F28F8F"/>
<path d="M18.5215 119.451C18.5215 119.634 18.5665 119.813 18.6509 119.965C18.7353 120.117 18.8553 120.235 18.9957 120.305C19.136 120.375 19.2905 120.394 19.4395 120.358C19.5885 120.322 19.7253 120.234 19.8327 120.105C19.9402 119.976 20.0133 119.811 20.043 119.631C20.0726 119.452 20.0574 119.266 19.9993 119.097C19.9411 118.928 19.8427 118.784 19.7163 118.682C19.59 118.581 19.4415 118.526 19.2896 118.526C19.0859 118.526 18.8905 118.624 18.7465 118.797C18.6024 118.971 18.5215 119.206 18.5215 119.451Z" fill="#263238"/>
<path d="M23.5821 118.802C23.5809 118.987 23.6254 119.168 23.71 119.322C23.7946 119.477 23.9154 119.597 24.0572 119.669C24.1989 119.74 24.355 119.759 24.5057 119.723C24.6565 119.688 24.795 119.599 24.9036 119.468C25.0123 119.337 25.0861 119.17 25.1158 118.989C25.1455 118.807 25.1296 118.619 25.0703 118.449C25.0109 118.278 24.9108 118.133 24.7825 118.031C24.6543 117.929 24.5038 117.876 24.3502 117.877C24.2493 117.877 24.1494 117.901 24.0562 117.947C23.963 117.994 23.8784 118.062 23.807 118.148C23.7357 118.234 23.6791 118.336 23.6405 118.448C23.6019 118.56 23.5821 118.68 23.5821 118.802Z" fill="#263238"/>
<path d="M25.289 116.877L23.7891 115.799C23.7891 115.799 24.3636 115.07 24.9382 115.515C25.1041 115.672 25.2264 115.887 25.289 116.13C25.3516 116.373 25.3516 116.633 25.289 116.877Z" fill="#263238"/>
<path d="M18.9023 116.561L17.5415 117.893C17.5415 117.893 17.1786 116.99 17.7169 116.488C17.8979 116.356 18.1076 116.292 18.3189 116.305C18.5302 116.318 18.7334 116.407 18.9023 116.561Z" fill="#263238"/>
<path d="M21.397 125.369C21.397 125.369 18.6512 124.517 19.3225 124.699C19.3225 124.699 19.1834 126.01 20.0967 126.265C20.3655 126.313 20.64 126.251 20.8759 126.089C21.1118 125.926 21.2954 125.673 21.397 125.369Z" fill="#F28F8F"/>
<path d="M25.9078 110.553C25.9078 110.553 23.7728 112.961 18.2992 112.466C12.8256 111.972 13.3034 113.797 13.9022 116.873C14.3134 118.997 14.3497 124.633 12.9828 121.87H10.2793V115.324C10.2793 113.12 11.0076 111.005 12.3041 109.446C13.6005 107.888 15.3589 107.012 17.1924 107.012H22.793L25.9078 110.553Z" fill="#263238"/>
<path d="M13.046 121.507C13.046 121.507 12.7738 118.395 10.9775 118.336C8.99975 118.271 8.73363 120.554 8.76387 121.369C8.8304 123.5 10.2699 125.813 12.9492 125.9L13.046 121.507Z" fill="#FFA8A7"/>
<path d="M10.8914 109.621C10.8914 109.621 9.50637 107.44 10.3954 106.495C11.2845 105.55 11.6958 109.403 11.6958 109.403L10.8914 109.621Z" fill="#263238"/>
<path d="M11.002 110.352C11.002 110.352 8.70367 110.316 8.64924 108.897C8.5948 107.477 11.3346 109.42 11.3346 109.42L11.002 110.352Z" fill="#263238"/>
<path d="M12.7344 132.947C12.7344 132.947 14.8754 138.43 18.7826 138.161C22.6897 137.892 19.7987 132.648 19.7987 132.648L12.7344 132.947Z" fill="#FFA8A7"/>
<path d="M14.2184 145.463L19.6618 153.841C19.6618 153.841 29.23 155.354 34.7339 156.554V162.568C34.7339 162.568 19.3412 163.666 16.2204 161.295C13.0995 158.924 8.28516 151.914 8.28516 151.914C8.28516 151.914 9.3073 145.877 14.2184 145.463Z" fill="#FFA8A7"/>
<path d="M5.12265 134.917C5.12265 134.917 7.66893 134.03 10.7354 139.222C11.9835 141.22 13.1463 143.293 14.2191 145.433C14.2191 145.433 10.445 146.437 8.26165 151.884L3.50778 144.735C3.01405 143.997 2.65952 143.138 2.46869 142.219C2.27786 141.3 2.25528 140.341 2.4025 139.411C2.54972 138.48 2.86325 137.599 3.3214 136.828C3.77956 136.057 4.37143 135.415 5.05611 134.946L5.12265 134.917Z" fill="#1A659E"/>
<path d="M19.6412 153.811C18.5574 154.318 17.6621 155.279 17.1191 156.515C17.186 155.77 17.3819 155.05 17.6945 154.401C18.007 153.752 18.4291 153.19 18.9336 152.749L19.6412 153.811Z" fill="#F28F8F"/>
<path d="M32.8139 132.701L38.3419 132.555C38.3419 132.555 35.4751 119.181 34.713 114.803C34.713 114.803 31.0841 109.712 32.2937 106.636C33.5034 103.559 36.7029 97.6904 38.3419 97.6904C39.981 97.6904 42.0071 100.309 40.8277 105.298C39.6483 110.287 40.0112 112.054 40.0112 112.054C40.0112 112.054 45.3518 125.472 46.1441 133.704C46.9364 141.937 42.122 142.395 33.3522 142.395L32.8139 132.701Z" fill="#FFA8A7"/>
<path d="M118.428 87.1428V197.315C118.428 200.305 117.515 202.312 116.118 202.966H116.082L110.154 206.872L110.185 200.523L110.832 84.2847L117.092 80.4375C117.931 82.5319 118.387 84.8185 118.428 87.1428Z" fill="#E0E0E0"/>
<path d="M109.842 207.513L109.878 200.553L110.537 84.0679L117.239 79.9443L117.372 80.2861C118.227 82.4291 118.691 84.7676 118.733 87.1442V197.317C118.733 200.328 117.795 202.568 116.235 203.309L109.842 207.513ZM111.142 84.5115L110.453 206.284L115.987 202.648C117.335 202.015 118.128 200.022 118.128 197.324V87.1442C118.091 84.9997 117.692 82.8867 116.954 80.9334L111.142 84.5115Z" fill="#E0E0E0"/>
<path d="M117.101 80.4385L110.835 84.2857L43.8331 37.4138L39.3574 34.2865L45.5145 30.0975L45.6899 29.9739C46.6757 29.2466 47.97 29.3048 49.3914 30.2939L112.819 74.3295C114.718 75.8108 116.208 77.937 117.101 80.4385Z" fill="#EBEBEB"/>
<path d="M110.836 84.6999L110.697 84.6054L38.748 34.279L45.5644 29.6536C46.6833 28.8391 48.1046 28.9264 49.5682 29.9663L112.996 74.0019C114.941 75.5275 116.466 77.7148 117.374 80.2855L117.501 80.5982L110.836 84.6999ZM39.9698 34.2863L110.836 83.8709L116.691 80.2782C115.833 77.973 114.441 76.0137 112.681 74.6347L49.2658 30.5991C48.0562 29.7554 46.8829 29.6173 45.9756 30.2063L45.6974 30.41L39.9698 34.2863Z" fill="#E0E0E0"/>
<path d="M106.701 206.42L43.2741 162.384C40.1895 160.202 37.6855 154.493 37.6855 149.555V39.5062C37.6855 34.5609 40.1895 32.2845 43.2741 34.4154L106.701 78.451C109.786 80.5892 112.29 86.3345 112.29 91.2799V201.343C112.29 206.289 109.786 208.558 106.701 206.42Z" fill="#FAFAFA"/>
<path d="M108.923 207.585C108.084 207.553 107.267 207.26 106.552 206.734L43.1245 162.699C39.9613 160.517 37.3848 154.604 37.3848 149.557V39.5081C37.3848 36.7736 38.1468 34.6791 39.4653 33.7627C40.5782 32.9918 41.9874 33.1155 43.4269 34.1118L106.854 78.1547C110.017 80.3365 112.594 86.2418 112.594 91.2963V201.345C112.594 204.072 111.832 206.167 110.507 207.091C110.024 207.42 109.478 207.591 108.923 207.585ZM41.056 33.9882C40.605 33.9849 40.1611 34.1228 39.7678 34.3882C38.6428 35.1736 37.9896 37.0427 37.9896 39.479V149.557C37.9896 154.372 40.4089 159.986 43.4329 162.066L106.86 206.102C108.106 206.967 109.28 207.098 110.211 206.458C111.342 205.672 112.025 203.811 112.025 201.367V91.2963C112.025 86.4745 109.606 80.8601 106.582 78.7801L43.1245 34.7445C42.5011 34.2814 41.7883 34.0208 41.056 33.9882Z" fill="#E0E0E0"/>
<path d="M118.37 87.0338V197.206C118.37 200.188 117.457 202.203 116.059 202.857H116.023L110.09 206.763L110.126 200.421L110.785 84.1538L117.045 80.3066C117.883 82.4088 118.335 84.7031 118.37 87.0338Z" fill="#E0E0E0"/>
<path d="M109.781 207.404L109.818 200.444L110.477 83.9513L117.178 79.835L117.311 80.1768C118.167 82.3197 118.631 84.6582 118.672 87.0348V197.207C118.672 200.218 117.735 202.458 116.168 203.2L109.781 207.404ZM111.082 84.3731L110.392 206.146L115.926 202.509C117.275 201.876 118.067 199.884 118.067 197.186V87.0348C118.03 84.8904 117.631 82.7773 116.894 80.824L111.082 84.3731Z" fill="#E0E0E0"/>
<path d="M117.04 80.3294L110.78 84.1766L43.7725 37.3047L39.2969 34.1775L45.4781 29.9885L45.6535 29.8576C46.6394 29.1303 47.9337 29.1958 49.355 30.1848L112.782 74.1914C114.464 75.3913 116.018 77.6749 117.04 80.3294Z" fill="#EBEBEB"/>
<path d="M110.77 84.5906L110.631 84.4888L38.6875 34.1914L45.5159 29.5442C46.6409 28.7297 48.0622 28.817 49.5258 29.857L112.953 73.8926C114.898 75.4201 116.421 77.6068 117.332 80.1761L117.459 80.4888L110.77 84.5906ZM39.9032 34.1914L110.788 83.776L116.643 80.1761C115.783 77.8742 114.391 75.9179 112.633 74.5398L49.2053 30.4897C47.9957 29.6388 46.8223 29.5079 45.9151 30.097L45.6369 30.3006L39.9032 34.1914Z" fill="#E0E0E0"/>
<path d="M112.223 91.1807V201.237C112.223 203.826 111.54 205.681 110.445 206.553L110.082 206.786C109.133 207.331 107.941 207.215 106.641 206.313L75.9826 185.026L61.6605 175.085L43.2135 162.278C40.1289 160.096 37.625 154.387 37.625 149.442V39.3998C37.625 36.898 38.2298 35.0871 39.2943 34.178C39.4675 34.0176 39.659 33.8878 39.8628 33.7926C40.7942 33.3126 41.9555 33.4508 43.2135 34.3235L106.641 78.3591C108.456 79.78 109.893 81.8 110.778 84.1772C111.689 86.3525 112.183 88.7456 112.223 91.1807Z" fill="#FAFAFA"/>
<path d="M52.4219 110.291C52.4522 110.408 51.9744 117.44 53.3775 120.269L56.7101 122.953L59.4197 115.818L60.2604 111.455L59.6556 109.702L52.4219 110.291Z" fill="#FFA8A7"/>
<path d="M51.1934 151.433C53.153 151.106 58.6992 147.026 58.6992 147.026C58.6992 147.026 58.9895 136.844 54.0541 135.521L51.1934 151.433Z" fill="#FFA8A7"/>
<path d="M56.0009 134.729L52.6562 145.478L56.5029 139.188L56.0009 134.729Z" fill="#F28F8F"/>
<path d="M69.4041 124.002H67.8921C65.5755 124.007 63.3372 125.01 61.5838 126.831L52.8926 135.864C52.8926 135.864 58.1182 140.067 58.723 147.02L65.9808 140.983L69.4041 124.002Z" fill="#5D9FD1"/>
<path d="M95.109 163.913L96.6997 170.539L88.9883 174.902L90.2705 185.084L102.748 180.073C104.627 179.317 106.189 177.715 107.107 175.604C108.025 173.493 108.227 171.036 107.671 168.75L105.518 159.892L95.109 163.913Z" fill="#FFA8A7"/>
<path d="M90.7977 181.505L91.9106 196.145L75.2539 184.581L90.7977 181.505Z" fill="#455A64"/>
<path d="M92.7941 145.936L91.0825 154.503C90.1592 159.118 89.8228 163.875 90.0845 168.612L90.7982 181.506C90.7982 181.506 85.9597 185.142 76.0467 185.142L61.7246 175.193C61.8819 171.819 62.6379 156.234 63.9019 143.659C65.3233 129.471 69.4058 124.023 69.4058 124.023C70.0892 124.023 75.7141 124.525 75.7141 124.525L84.5081 125.253L92.7941 129.994V145.936Z" fill="#004E89"/>
<path opacity="0.3" d="M92.7941 145.936L91.0825 154.503C90.1592 159.118 89.8228 163.875 90.0845 168.612L90.7982 181.506C90.7982 181.506 85.9597 185.142 76.0467 185.142L61.7246 175.193C61.8819 171.819 62.6379 156.234 63.9019 143.659C65.3233 129.471 69.4058 124.023 69.4058 124.023C70.0892 124.023 75.7141 124.525 75.7141 124.525L84.5081 125.253L92.7941 129.994V145.936Z" fill="black"/>
<path d="M108.905 207.587C108.072 207.557 107.26 207.264 106.552 206.736L43.1245 162.7C39.9613 160.519 37.3848 154.606 37.3848 149.559V39.5098C37.3848 36.9716 38.0198 35.0153 39.1992 33.9899C39.3972 33.8153 39.6126 33.6711 39.8403 33.5608C40.8867 33.0226 42.1447 33.2117 43.4692 34.1208L106.897 78.1564C108.756 79.6183 110.226 81.6938 111.13 84.1344C112.059 86.3582 112.563 88.803 112.606 91.2907V201.347C112.606 203.994 111.929 205.987 110.689 206.969L110.308 207.216C109.87 207.469 109.39 207.596 108.905 207.587ZM41.0621 33.9899C40.7111 33.9897 40.3636 34.0737 40.0399 34.2371C39.8609 34.3242 39.6921 34.4392 39.5379 34.5789C38.54 35.4589 37.9896 37.2116 37.9896 39.5098V149.559C37.9896 154.373 40.4089 159.988 43.4329 162.068L106.86 206.103C108.034 206.925 109.128 207.085 110.023 206.569L110.368 206.343C111.39 205.529 111.989 203.703 111.989 201.347V91.2907C111.947 88.9113 111.463 86.5734 110.574 84.4472C109.717 82.135 108.322 80.17 106.558 78.7891L43.1245 34.7535C42.5049 34.285 41.7935 34.0215 41.0621 33.9899Z" fill="#E0E0E0"/>
<path d="M87.8987 108.635C87.8987 108.635 94.6727 117.013 90.7414 121.26C89.5318 122.555 83.2114 121.005 81.7175 118.751C80.2236 116.496 78.1914 108.569 78.1914 108.569L87.8987 108.635Z" fill="#455A64"/>
<path d="M34.7109 156.525C35.6136 155.649 36.3187 154.513 36.7613 153.224C37.3358 151.274 37.7108 151.1 38.3036 150.802V153.5C38.716 154.141 39.2317 154.676 39.8199 155.072C40.4081 155.468 41.0566 155.718 41.7268 155.805C43.9707 156.074 47.5573 155.849 47.4726 157.369C47.3879 158.889 45.2106 162.918 42.7792 162.918C40.3478 162.918 34.7109 162.518 34.7109 162.518V156.525Z" fill="#FFA8A7"/>
<path d="M106.701 78.4679L43.2741 34.4323C40.1895 32.2505 37.6855 34.5632 37.6855 39.5231V52.1266L112.29 103.915V91.2968C112.29 86.3514 109.786 80.6061 106.701 78.4679Z" fill="white"/>
<path d="M112.594 104.547L37.3848 52.3733V39.5081C37.3848 36.7736 38.1468 34.6791 39.4653 33.7627C40.5782 32.9918 41.9874 33.1155 43.4269 34.1118L106.854 78.1547C110.017 80.3364 112.594 86.2418 112.594 91.2963V104.547ZM37.9896 51.9151L111.989 103.282V91.2963C111.989 86.4745 109.57 80.8601 106.546 78.7801L43.1245 34.7445C41.8786 33.8791 40.7052 33.7554 39.7678 34.3882C38.6428 35.1736 37.9896 37.0427 37.9896 39.479V51.9151Z" fill="#E0E0E0"/>
<path d="M50.1299 51.8065C50.1299 54.5701 48.5211 55.6901 46.5313 54.3083C45.4783 53.49 44.6009 52.3845 43.9703 51.0816C43.3398 49.7787 42.9738 48.3152 42.9023 46.8102C42.9023 44.0539 44.5172 42.9339 46.5313 44.3157C47.5791 45.1356 48.4512 46.2413 49.0765 47.543C49.7018 48.8446 50.0628 50.3054 50.1299 51.8065Z" fill="#5D9FD1"/>
<path d="M79.8431 72.0095C79.7366 72.0082 79.6322 71.9731 79.5407 71.9077L53.981 54.148C53.9117 54.1005 53.8509 54.037 53.8021 53.9611C53.7533 53.8852 53.7175 53.7984 53.6967 53.7058C53.6759 53.6132 53.6705 53.5166 53.6809 53.4215C53.6913 53.3264 53.7173 53.2347 53.7573 53.1516C53.7973 53.0689 53.8505 52.9965 53.9138 52.9386C53.9772 52.8806 54.0494 52.8382 54.1264 52.8139C54.2033 52.7896 54.2835 52.7838 54.3624 52.7968C54.4413 52.8098 54.5172 52.8414 54.5859 52.8898L80.1576 70.6423C80.2741 70.7216 80.3654 70.8453 80.4172 70.9938C80.469 71.1423 80.4783 71.3073 80.4437 71.4628C80.4091 71.6184 80.3325 71.7558 80.226 71.8534C80.1195 71.951 79.9891 72.0034 79.8552 72.0022L79.8431 72.0095Z" fill="#5D9FD1"/>
<path d="M96.2395 118.263L98.054 119.521V118.736C98.054 118.685 98.054 118.627 98.054 118.569C98.054 118.511 98.054 118.467 98.054 118.416C98.1205 117.383 98.7737 116.962 99.5721 117.536C99.9341 117.795 100.247 118.142 100.491 118.554C100.673 117.143 101.628 116.642 102.778 117.442C103.454 117.97 104.017 118.682 104.42 119.521C104.824 120.361 105.057 121.303 105.1 122.271V123.943C105.098 124.077 105.126 124.208 105.181 124.323C105.237 124.439 105.317 124.534 105.415 124.598L106.491 125.361C106.725 125.526 106.919 125.762 107.054 126.046C107.189 126.329 107.26 126.65 107.259 126.976C107.26 127.111 107.23 127.244 107.174 127.362C107.118 127.479 107.037 127.577 106.939 127.645C106.842 127.712 106.731 127.748 106.619 127.748C106.506 127.748 106.395 127.713 106.298 127.645L96.2637 120.678C95.998 120.492 95.7773 120.225 95.6235 119.905C95.4697 119.585 95.3881 119.222 95.3867 118.852C95.3871 118.733 95.4137 118.615 95.4638 118.512C95.5139 118.408 95.5857 118.322 95.672 118.263C95.7584 118.203 95.8563 118.172 95.9559 118.172C96.0554 118.172 96.1533 118.203 96.2395 118.263Z" fill="#E6E6E6"/>
<path d="M47.4555 75.2326L49.7417 76.7962V75.8289C49.7387 75.7587 49.7387 75.6883 49.7417 75.618C49.7387 75.5526 49.7387 75.4871 49.7417 75.4217C49.8204 74.1344 50.6308 73.6399 51.6227 74.3308C52.0712 74.6593 52.455 75.101 52.7477 75.6253C52.9715 73.8799 54.1569 73.2471 55.5903 74.2435C56.4312 74.9007 57.1313 75.7873 57.6337 76.8311C58.136 77.8749 58.4264 79.0465 58.4814 80.2507V82.3379C58.4814 82.5024 58.5171 82.6641 58.585 82.807C58.6528 82.9498 58.7506 83.0689 58.8684 83.1524L60.2111 84.0979C60.5021 84.3033 60.7434 84.5965 60.911 84.9486C61.0786 85.3007 61.1668 85.6994 61.1668 86.1051C61.1677 86.2756 61.1308 86.4433 61.06 86.591C60.9892 86.7386 60.8869 86.861 60.7638 86.9454C60.6406 87.0298 60.5009 87.0733 60.3592 87.0713C60.2174 87.0693 60.0786 87.022 59.9571 86.9342L47.4797 78.2652C47.1477 78.0365 46.872 77.7059 46.6808 77.3073C46.4895 76.9088 46.3896 76.4563 46.391 75.9962C46.3867 75.844 46.4164 75.6933 46.477 75.5596C46.5376 75.426 46.627 75.3143 46.7357 75.2363C46.8444 75.1583 46.9686 75.1168 47.0952 75.1162C47.2218 75.1155 47.3462 75.1557 47.4555 75.2326Z" fill="#E6E6E6"/>
<path d="M73.8083 112.409C77.9503 112.409 81.3081 108.372 81.3081 103.391C81.3081 98.4105 77.9503 94.373 73.8083 94.373C69.6663 94.373 66.3086 98.4105 66.3086 103.391C66.3086 108.372 69.6663 112.409 73.8083 112.409Z" fill="#263238"/>
<path d="M75.7114 124.503C75.7114 124.503 72.524 131.048 77.4835 131.681C82.443 132.314 84.5115 125.237 84.5115 125.237L75.7114 124.503Z" fill="#FFA8A7"/>
<path d="M75.7129 124.502L84.513 125.236V113.171H75.7129V124.502Z" fill="#FFA8A7"/>
<path d="M75.7129 123.82C77.6029 123.506 79.3726 122.524 80.7965 120.997C82.2205 119.47 83.2342 117.468 83.7086 115.246V111.726H75.7129V123.82Z" fill="#F28F8F"/>
<path d="M74.1774 94.3288C74.1774 94.3288 65.8914 94.707 67.3853 110.743C68.0869 118.285 68.5949 122.452 73.9717 122.452C79.3486 122.452 87.2777 117.594 86.7516 104.641C86.2254 91.6889 74.1774 94.3288 74.1774 94.3288Z" fill="#FFA8A7"/>
<path d="M73.3433 107.551V113.173L70.6035 112.162L73.3433 107.551Z" fill="#F28F8F"/>
<path d="M77.337 108.519C77.3382 108.747 77.283 108.97 77.1785 109.16C77.0739 109.35 76.9247 109.499 76.7499 109.587C76.575 109.675 76.3824 109.698 76.1964 109.654C76.0105 109.61 75.8397 109.5 75.7057 109.339C75.5717 109.178 75.4805 108.972 75.4439 108.748C75.4072 108.525 75.4266 108.293 75.4997 108.082C75.5728 107.872 75.6962 107.693 75.8542 107.567C76.0123 107.441 76.1979 107.375 76.3874 107.376C76.6393 107.376 76.8808 107.496 77.0589 107.711C77.2369 107.925 77.337 108.215 77.337 108.519Z" fill="#263238"/>
<path d="M71.0733 107.717C71.0745 107.944 71.0195 108.167 70.9152 108.357C70.8109 108.548 70.6621 108.696 70.4876 108.784C70.3131 108.872 70.1208 108.896 69.935 108.853C69.7492 108.809 69.5784 108.7 69.4442 108.54C69.3099 108.379 69.2183 108.174 69.1809 107.951C69.1436 107.728 69.1621 107.496 69.2343 107.286C69.3064 107.075 69.4289 106.895 69.5862 106.769C69.7434 106.642 69.9284 106.574 70.1177 106.574C70.3701 106.574 70.6122 106.694 70.7913 106.908C70.9703 107.122 71.0717 107.413 71.0733 107.717Z" fill="#263238"/>
<path d="M68.9592 105.333L70.822 104.001C70.822 104.001 70.1084 103.105 69.3947 103.644C69.1884 103.839 69.0363 104.105 68.9586 104.407C68.8808 104.709 68.881 105.032 68.9592 105.333Z" fill="#263238"/>
<path d="M76.8848 104.946L78.5662 106.591C78.5662 106.591 79.0198 105.477 78.3545 104.859C78.1306 104.694 77.8706 104.614 77.6084 104.63C77.3463 104.645 77.0941 104.756 76.8848 104.946Z" fill="#263238"/>
<path d="M73.7773 115.848C73.7773 115.848 77.1764 114.793 76.3418 115.026C76.3418 115.026 76.5172 116.649 75.3862 116.961C75.0523 117.03 74.709 116.956 74.4154 116.753C74.1219 116.549 73.8962 116.23 73.7773 115.848Z" fill="#F28F8F"/>
<path d="M68.1953 97.4651C68.1953 97.4651 70.8384 100.44 77.6184 99.8287C84.3984 99.2178 83.8057 101.48 83.0618 105.29C82.5537 107.923 82.5053 114.898 84.1928 111.479H87.5495V103.429C87.5527 102.074 87.3335 100.732 86.9045 99.4788C86.4756 98.2261 85.8452 97.0874 85.0497 96.1281C84.2541 95.1687 83.3089 94.4076 82.2683 93.8882C81.2276 93.3689 80.112 93.1016 78.9853 93.1016H72.0541L68.1953 97.4651Z" fill="#263238"/>
<path d="M66.9561 100.001C69.8713 99.3761 80.0746 98.2633 88.4332 110.292C88.4332 110.292 90.2477 108.932 90.0783 102.583C89.909 96.2343 85.391 91.9289 82.4455 90.2708C79.5001 88.6126 68.7161 85.769 66.309 99.1724C66.296 99.2805 66.3034 99.3908 66.3306 99.495C66.3579 99.5992 66.4044 99.6946 66.4666 99.7743C66.5287 99.8539 66.605 99.9157 66.6898 99.9551C66.7745 99.9944 66.8656 100.01 66.9561 100.001Z" fill="#455A64"/>
<path d="M84.123 111.07C84.123 111.07 84.4617 107.215 86.6875 107.143C89.1068 107.055 89.4636 109.892 89.4273 110.895C89.3426 113.542 87.5584 116.401 84.244 116.51L84.123 111.07Z" fill="#FFA8A7"/>
<path d="M69.4805 96.8088C69.4805 96.8088 74.5609 96.7434 76.7383 97.5359C76.7383 97.5359 77.2705 93.7259 73.9803 93.5442C71.3312 93.406 70.6417 93.8277 69.4805 96.8088Z" fill="#263238"/>
<path d="M92.7941 129.987L93.278 130.256C94.7264 131.053 96.0241 132.198 97.0912 133.62C98.1583 135.042 98.9724 136.711 99.4834 138.525L105.532 159.943C102.527 162.926 98.674 164.385 94.79 164.009L93.8223 163.914L89.3406 145.922C88.4214 142.388 88.5237 138.584 89.6309 135.129C90.2652 133.093 91.361 131.312 92.7941 129.987Z" fill="#5D9FD1"/>
<path d="M52.6585 145.462L59.4265 123.739L53.3783 120.27C53.3783 120.27 42.0742 138.291 42.0742 144.647C42.0742 151.004 46.4773 152.196 51.1949 151.433L52.6585 145.462Z" fill="#FFA8A7"/>
<path d="M59.6262 110.19C59.6262 110.19 60.3338 98.9543 60.1463 98.1834C59.9588 97.4125 58.0113 97.2816 57.3702 102.831C57.0199 105.55 56.7998 108.291 56.7109 111.041L59.6262 110.19Z" fill="#FFA8A7"/>
<path d="M61.3553 111.186C61.3553 111.186 64.9056 101.208 64.9358 100.43C64.9661 99.6519 63.2242 98.8156 61.2041 103.63C60.18 105.989 59.2713 108.417 58.4824 110.903L61.3553 111.186Z" fill="#FFA8A7"/>
<path d="M61.3522 111.463L58.4733 111.143C58.4391 111.14 58.406 111.127 58.3766 111.105C58.3472 111.084 58.3224 111.055 58.3039 111.02C58.289 110.984 58.2813 110.944 58.2812 110.903C58.2813 110.863 58.289 110.823 58.3039 110.787C58.3039 110.729 58.7394 109.333 59.8462 106.46C59.8557 106.422 59.8719 106.387 59.8937 106.357C59.9155 106.327 59.9425 106.303 59.9727 106.287C60.0029 106.271 60.0356 106.262 60.0687 106.263C60.1018 106.263 60.1344 106.272 60.1643 106.289C60.1942 106.306 60.2208 106.33 60.2421 106.361C60.2634 106.391 60.279 106.427 60.2879 106.465C60.2967 106.503 60.2986 106.544 60.2934 106.583C60.2881 106.622 60.2759 106.66 60.2575 106.693C59.4591 108.736 59.0176 110.06 58.8362 110.634L61.4188 110.918C61.4726 110.929 61.5215 110.962 61.5568 111.012C61.592 111.062 61.6114 111.125 61.6114 111.191C61.6114 111.256 61.592 111.32 61.5568 111.37C61.5215 111.42 61.4726 111.453 61.4188 111.463H61.3522Z" fill="#F28F8F"/>
<path d="M54.7647 106.918C54.7647 106.918 52.4603 105.682 51.8737 107.726C51.287 109.769 52.1398 114.693 53.3192 115.544C54.4986 116.395 55.5752 115.202 54.9341 112.7C54.5575 110.806 54.4999 108.84 54.7647 106.918Z" fill="#FFA8A7"/>
<path d="M54.0531 116.096C53.7505 116.087 53.4555 115.979 53.2004 115.783C51.8758 114.83 51.0653 109.696 51.6581 107.638C51.6835 107.579 51.7259 107.532 51.7775 107.508C51.8291 107.483 51.8863 107.482 51.9386 107.504C51.9909 107.526 52.0348 107.57 52.0621 107.628C52.0895 107.686 52.0985 107.754 52.0875 107.82C51.519 109.79 52.3778 114.554 53.4362 115.318C53.571 115.434 53.7279 115.509 53.8927 115.534C54.0574 115.56 54.2248 115.535 54.3798 115.463C54.5322 115.347 54.658 115.188 54.7457 114.998C54.8334 114.809 54.8802 114.596 54.8818 114.379C54.8839 114.344 54.8922 114.309 54.9061 114.277C54.92 114.245 54.9391 114.217 54.9624 114.195C54.9856 114.172 55.0125 114.156 55.0413 114.146C55.0701 114.137 55.1002 114.134 55.1297 114.139C55.1597 114.142 55.1889 114.152 55.2157 114.169C55.2424 114.185 55.266 114.208 55.2852 114.236C55.3044 114.264 55.3187 114.296 55.3274 114.331C55.336 114.365 55.3387 114.402 55.3354 114.438C55.3266 114.745 55.2532 115.045 55.1221 115.31C54.991 115.574 54.8064 115.795 54.5854 115.95C54.4195 116.047 54.2375 116.097 54.0531 116.096Z" fill="#F28F8F"/>
<path d="M57.0577 106.422C57.0577 106.422 54.7533 105.185 54.1666 107.222C53.58 109.258 54.4328 114.196 55.6122 115.047C56.7916 115.898 57.8681 114.705 57.221 112.203C56.8482 110.308 56.7927 108.343 57.0577 106.422Z" fill="#FFA8A7"/>
<path d="M56.3507 115.593C56.0483 115.583 55.7536 115.475 55.498 115.28C54.1674 114.327 53.363 109.193 53.9557 107.135C53.9645 107.101 53.979 107.069 53.9983 107.042C54.0176 107.015 54.0412 106.993 54.0678 106.978C54.0945 106.962 54.1234 106.953 54.153 106.951C54.1826 106.949 54.2122 106.955 54.2399 106.968C54.2684 106.979 54.2947 106.997 54.3173 107.021C54.3398 107.045 54.3581 107.074 54.3711 107.107C54.3841 107.139 54.3915 107.175 54.3928 107.211C54.3942 107.247 54.3895 107.283 54.379 107.317C53.8166 109.288 54.6694 114.051 55.7278 114.815C55.8802 114.955 56.0648 115.035 56.2564 115.044C56.448 115.053 56.6372 114.991 56.7983 114.866C57.137 114.546 57.3668 113.695 57.004 112.284C56.6194 110.346 56.5619 108.336 56.8346 106.371C56.8389 106.336 56.8492 106.302 56.8648 106.272C56.8805 106.241 56.9011 106.215 56.9254 106.195C56.9498 106.174 56.9774 106.16 57.0065 106.153C57.0356 106.146 57.0656 106.146 57.0947 106.153C57.1536 106.166 57.2062 106.205 57.2413 106.264C57.2763 106.322 57.291 106.395 57.2822 106.466C57.0249 108.346 57.0784 110.269 57.4394 112.124C57.8084 113.578 57.6693 114.735 57.0765 115.295C56.8692 115.489 56.6136 115.594 56.3507 115.593Z" fill="#F28F8F"/>
<path d="M59.4243 123.74C59.4243 123.74 62.3698 119.166 63.1077 115.813C63.8455 112.46 62.8536 110.315 61.263 109.995C59.6723 109.675 54.864 109.857 56.2309 111.828C57.5978 113.799 59.0493 112.439 59.6723 112.97C59.6723 112.97 54.8337 115.879 55.5535 121.515L59.4243 123.74Z" fill="#FFA8A7"/>
<path d="M55.9207 117.979C55.8928 117.987 55.8639 117.987 55.836 117.979C55.8079 117.966 55.7822 117.947 55.7604 117.922C55.7387 117.897 55.7214 117.867 55.7095 117.833C55.6976 117.8 55.6915 117.764 55.6914 117.728C55.6913 117.692 55.6973 117.656 55.709 117.623C56.407 115.771 57.5483 114.211 58.9871 113.143H58.7754C58.277 113.285 57.7551 113.252 57.2717 113.049C56.7882 112.845 56.3635 112.479 56.0477 111.994C55.904 111.841 55.8068 111.635 55.7717 111.408C55.7366 111.182 55.7657 110.947 55.8542 110.743C56.4953 109.405 60.2452 109.499 61.2975 109.717C61.5729 109.774 61.8385 109.884 62.0838 110.045C62.1148 110.058 62.143 110.08 62.1664 110.108C62.1899 110.136 62.208 110.17 62.2196 110.207C62.2313 110.244 62.2361 110.284 62.2338 110.323C62.2315 110.363 62.2221 110.402 62.2063 110.436C62.1905 110.471 62.1686 110.502 62.1421 110.525C62.1157 110.549 62.0853 110.566 62.053 110.574C62.0207 110.583 61.9873 110.583 61.955 110.574C61.9228 110.565 61.8924 110.549 61.8661 110.525C61.6648 110.391 61.4459 110.3 61.2189 110.256C59.8339 109.972 56.6586 110.147 56.2473 111.019C56.2171 111.077 56.1324 111.259 56.3985 111.645C56.6674 112.059 57.0309 112.37 57.4446 112.539C57.8582 112.708 58.3039 112.728 58.7271 112.597C59.0861 112.487 59.4661 112.536 59.7976 112.736C59.8282 112.765 59.8525 112.803 59.8683 112.846C59.8841 112.889 59.891 112.936 59.8883 112.983C59.8848 113.028 59.8718 113.072 59.8507 113.11C59.8296 113.148 59.801 113.18 59.7674 113.201C58.1809 114.232 56.9096 115.845 56.1384 117.805C56.1228 117.858 56.0931 117.904 56.0538 117.936C56.0146 117.967 55.9678 117.982 55.9207 117.979Z" fill="#F28F8F"/>
<path d="M89.8578 163.551C89.7912 163.602 86.4829 165.915 77.4892 165.915C71.9877 165.866 66.6709 163.522 62.4474 159.282C62.3567 160.628 62.272 161.944 62.1934 163.202C64.5401 165.384 69.9592 169.748 76.6364 169.748C85.624 169.748 89.8275 167.297 89.8275 167.297C89.8094 166.038 89.8154 164.795 89.8578 163.551Z" fill="#5D9FD1"/>
<path d="M34.084 107.483C34.084 107.483 34.332 107.011 36.6968 105.2C37.9609 104.24 38.6383 101.905 39.606 102.16C40.5737 102.414 40.5193 106.458 37.9306 108.029C37.9306 108.029 38.4629 112.051 36.2129 113.614L34.084 107.483Z" fill="#FFA8A7"/>
<path d="M36.3259 113.85L36.1021 113.377C38.1887 111.923 37.7109 108.112 37.7049 108.075C37.6948 108.018 37.7013 107.957 37.7233 107.905C37.7452 107.852 37.7814 107.81 37.8259 107.785C38.5042 107.369 39.066 106.723 39.4413 105.926C39.8166 105.13 39.9888 104.218 39.9367 103.305C39.8883 102.817 39.7371 102.476 39.5556 102.432C39.1444 102.323 38.721 102.956 38.2371 103.697C37.8476 104.368 37.3672 104.956 36.8158 105.435C34.6082 107.13 34.2816 107.617 34.2695 107.617L33.8945 107.319C33.9369 107.232 34.2816 106.708 36.5739 104.955C37.0799 104.507 37.5212 103.961 37.8803 103.341C38.4367 102.49 38.9569 101.69 39.6524 101.886C40.0395 101.988 40.3056 102.476 40.3842 103.217C40.4527 104.212 40.28 105.209 39.8872 106.088C39.4943 106.967 38.8981 107.69 38.1706 108.17C38.2553 109.035 38.4186 112.403 36.3259 113.85Z" fill="#F28F8F"/>
<path d="M2.28891 259.322C2.28891 259.322 2.89373 261.184 4.00055 261.075C4.00055 261.075 3.61346 258.021 6.02669 258.021C8.43992 258.021 8.54878 258.159 8.54878 261.082C8.54878 261.082 9.01449 265.148 10.8048 267.431C12.595 269.715 15.232 274.609 10.0003 275.569C4.76867 276.529 3.34734 270.071 3.08727 269.068C2.77881 267.744 0.540988 266.806 1.62361 263.366C1.93207 262.391 1.79296 260.966 1.73853 259.897C1.7143 259.599 1.75127 259.299 1.84619 259.022C1.9411 258.746 2.09106 258.502 2.28286 258.311L2.28891 259.322Z" fill="#455A64"/>
<path d="M10.2333 274.915C4.85645 275.897 3.37465 269.264 3.13272 268.239C2.8908 267.213 1.56019 266.428 1.35456 264.603C1.10658 267.046 2.81822 267.912 3.08434 269.053C3.32626 270.057 4.76573 276.515 9.99741 275.555C11.8542 275.213 12.713 274.384 12.9852 273.373C12.5316 274.079 11.6728 274.631 10.2333 274.915Z" fill="#263238"/>
<path d="M5.26821 263.565C5.2365 263.565 5.20509 263.558 5.17594 263.542C5.1468 263.527 5.12055 263.505 5.09886 263.477C5.07746 263.452 5.06046 263.422 5.04884 263.389C5.03723 263.356 5.03125 263.321 5.03125 263.285C5.03125 263.249 5.03723 263.213 5.04884 263.18C5.06046 263.147 5.07746 263.117 5.09886 263.092C5.17749 263.004 7.02823 261.024 8.86083 262.181C8.8879 262.198 8.91198 262.22 8.93161 262.248C8.95125 262.275 8.96603 262.308 8.97507 262.342C8.98412 262.377 8.98723 262.414 8.98423 262.45C8.98122 262.486 8.97216 262.521 8.9576 262.553C8.92826 262.616 8.87953 262.663 8.82188 262.683C8.76422 262.704 8.70221 262.696 8.64915 262.662C7.09476 261.679 5.41941 263.477 5.40127 263.499C5.36388 263.538 5.31724 263.561 5.26821 263.565Z" fill="white"/>
<path d="M5.99282 265.535C5.96117 265.534 5.92986 265.527 5.90077 265.512C5.87167 265.497 5.84538 265.475 5.82347 265.447C5.80207 265.422 5.78507 265.392 5.77345 265.359C5.76184 265.326 5.75586 265.29 5.75586 265.254C5.75586 265.218 5.76184 265.183 5.77345 265.15C5.78507 265.116 5.80207 265.086 5.82347 265.061C5.9021 264.974 7.75284 262.994 9.58544 264.151C9.61251 264.167 9.63659 264.19 9.65623 264.218C9.67586 264.245 9.69064 264.277 9.69968 264.312C9.70873 264.347 9.71184 264.383 9.70883 264.419C9.70583 264.456 9.69678 264.491 9.68221 264.523C9.65287 264.586 9.60415 264.632 9.54649 264.653C9.48883 264.673 9.42682 264.666 9.37376 264.632C7.82542 263.649 6.14402 265.447 6.12588 265.469C6.08849 265.507 6.04186 265.53 5.99282 265.535Z" fill="white"/>
<path d="M6.61108 267.382C6.57942 267.382 6.54812 267.374 6.51902 267.359C6.48993 267.344 6.46364 267.322 6.44173 267.295C6.40134 267.242 6.37891 267.173 6.37891 267.102C6.37891 267.03 6.40134 266.961 6.44173 266.909C6.52035 266.822 8.37714 264.834 10.2097 265.999C10.2361 266.015 10.2595 266.037 10.2784 266.065C10.2974 266.092 10.3115 266.123 10.32 266.157C10.3285 266.192 10.3312 266.227 10.3278 266.263C10.3244 266.298 10.3151 266.332 10.3005 266.363C10.2877 266.395 10.2695 266.424 10.2471 266.448C10.2247 266.471 10.1985 266.489 10.1702 266.5C10.1419 266.511 10.112 266.515 10.0824 266.511C10.0528 266.508 10.0241 266.497 9.99806 266.479C8.44367 265.496 6.76228 267.295 6.74414 267.309C6.70837 267.352 6.6612 267.378 6.61108 267.382Z" fill="white"/>
<path d="M20.1842 253.271C20.1842 253.271 21.2003 253.999 21.66 254.413C22.1196 254.828 23.668 254.915 24.0792 254.37C24.4905 253.824 23.8373 252.319 25.9542 251.46C28.071 250.602 27.4662 254.137 27.4662 254.137C27.4662 254.137 28.2343 256.384 30.9016 257.7C33.5688 259.017 37.5546 259.359 35.7401 263.62C34.9478 265.482 29.8553 267.031 26.5106 264.1C25.4356 263.245 24.1705 262.801 22.8817 262.828C21.4785 262.828 18.4726 261.999 18.7327 259.308C18.9927 256.617 19.5068 256.006 19.5068 255.031C19.5068 254.057 19.3677 252.973 20.1479 252.61L20.1842 253.271Z" fill="#455A64"/>
<path d="M26.4715 263.336C25.3155 262.419 23.9548 261.947 22.5704 261.983C21.2396 261.996 19.9418 261.485 18.875 260.528C19.4798 262.245 21.7237 262.812 22.8849 262.812C24.1737 262.786 25.4389 263.229 26.5139 264.085C29.8525 266.994 34.9511 265.466 35.7434 263.612C34.068 265.176 29.5682 266.055 26.4715 263.336Z" fill="#263238"/>
<path d="M24.951 257.555C24.9251 257.562 24.8983 257.562 24.8724 257.555C24.8444 257.543 24.8188 257.524 24.7969 257.5C24.775 257.476 24.7573 257.447 24.745 257.414C24.7326 257.382 24.7257 257.347 24.7247 257.311C24.7238 257.275 24.7287 257.24 24.7393 257.206C24.7756 257.09 25.6405 254.298 27.709 254.298C27.7699 254.298 27.8284 254.327 27.8715 254.379C27.9146 254.431 27.9388 254.501 27.9388 254.574C27.9388 254.646 27.9152 254.714 27.8733 254.764C27.8313 254.815 27.7744 254.843 27.715 254.843C25.9611 254.843 25.1688 257.388 25.1627 257.41C25.1423 257.455 25.1117 257.493 25.0742 257.519C25.0368 257.545 24.9941 257.557 24.951 257.555Z" fill="white"/>
<path d="M26.6678 258.82C26.6419 258.826 26.6151 258.826 26.5892 258.82C26.5612 258.808 26.5356 258.789 26.5137 258.765C26.4918 258.741 26.4741 258.711 26.4618 258.679C26.4494 258.646 26.4425 258.611 26.4415 258.576C26.4406 258.54 26.4455 258.504 26.4561 258.471C26.4561 258.376 27.2182 256.013 28.9722 256.006C29.0021 256.005 29.0318 256.011 29.0597 256.024C29.0875 256.037 29.1129 256.057 29.1343 256.082C29.1558 256.107 29.1728 256.137 29.1844 256.17C29.196 256.203 29.202 256.239 29.202 256.275C29.202 256.348 29.1778 256.419 29.1347 256.47C29.0916 256.522 29.0331 256.551 28.9722 256.551C27.5388 256.551 26.8856 258.638 26.8795 258.66C26.8608 258.708 26.8309 258.749 26.7933 258.777C26.7558 258.806 26.7122 258.821 26.6678 258.82Z" fill="white"/>
<path d="M28.5775 260.238H28.505C28.4484 260.213 28.4021 260.163 28.3761 260.098C28.3501 260.033 28.3464 259.958 28.3658 259.889C28.3961 259.787 29.134 257.424 30.8879 257.417C30.9417 257.428 30.9906 257.461 31.0259 257.511C31.0612 257.561 31.0806 257.624 31.0806 257.69C31.0806 257.755 31.0612 257.819 31.0259 257.869C30.9906 257.918 30.9417 257.952 30.8879 257.962C29.4485 257.962 28.8013 260.049 28.7953 260.071C28.7764 260.121 28.7458 260.164 28.7071 260.194C28.6685 260.223 28.6234 260.239 28.5775 260.238Z" fill="white"/>
<path d="M209.073 138.651C208.921 138.534 208.794 138.374 208.704 138.185C208.613 137.997 208.561 137.785 208.553 137.568V133.095C208.553 132.695 208.783 132.535 209.073 132.739C209.224 132.858 209.35 133.018 209.44 133.206C209.53 133.394 209.583 133.606 209.593 133.822V138.302C209.593 138.695 209.357 138.855 209.073 138.651Z" fill="#5D9FD1"/>
<path d="M210.681 137.54L207.458 135.279C207.306 135.159 207.179 134.998 207.089 134.808C206.999 134.619 206.947 134.406 206.938 134.188C206.938 133.788 207.167 133.628 207.458 133.832L210.681 136.071C210.834 136.188 210.962 136.348 211.053 136.536C211.145 136.725 211.198 136.937 211.208 137.154C211.232 137.576 210.972 137.736 210.681 137.54Z" fill="#5D9FD1"/>
<path d="M213.339 126.55C213.187 126.431 213.062 126.271 212.971 126.083C212.881 125.894 212.829 125.683 212.818 125.466V120.986C212.818 120.586 213.054 120.426 213.339 120.623C213.491 120.742 213.618 120.903 213.71 121.093C213.801 121.282 213.854 121.495 213.865 121.714V126.194C213.865 126.601 213.653 126.768 213.339 126.55Z" fill="#5D9FD1"/>
<path d="M214.953 125.444L211.729 123.204C211.577 123.087 211.45 122.927 211.36 122.739C211.269 122.55 211.218 122.338 211.209 122.121C211.209 121.721 211.439 121.561 211.729 121.758L214.953 123.997C215.104 124.118 215.23 124.281 215.319 124.472C215.409 124.663 215.459 124.876 215.467 125.095C215.467 125.488 215.243 125.648 214.953 125.444Z" fill="#5D9FD1"/>
<path d="M193.348 181.022C193.197 180.901 193.072 180.74 192.982 180.551C192.891 180.361 192.839 180.149 192.828 179.932V175.452C192.828 175.052 193.064 174.892 193.348 175.095C193.5 175.213 193.627 175.373 193.717 175.561C193.808 175.75 193.86 175.962 193.868 176.179V180.659C193.868 181.095 193.639 181.219 193.348 181.022Z" fill="#5D9FD1"/>
<path d="M194.963 179.902L191.733 177.662C191.582 177.541 191.457 177.38 191.366 177.19C191.276 177.001 191.224 176.789 191.213 176.572C191.213 176.172 191.449 176.012 191.733 176.215L194.963 178.455C195.115 178.573 195.241 178.732 195.332 178.921C195.422 179.109 195.474 179.321 195.483 179.538C195.507 179.938 195.253 180.098 194.963 179.902Z" fill="#5D9FD1"/>
<path d="M128.7 130.718C128.549 130.599 128.423 130.438 128.333 130.25C128.243 130.062 128.19 129.851 128.18 129.635V125.155C128.18 124.755 128.416 124.587 128.7 124.791C128.852 124.909 128.979 125.069 129.069 125.257C129.159 125.446 129.211 125.657 129.22 125.875V130.355C129.22 130.755 128.978 130.915 128.7 130.718Z" fill="#5D9FD1"/>
<path d="M130.314 129.597L127.085 127.357C126.934 127.238 126.808 127.077 126.718 126.889C126.628 126.701 126.575 126.49 126.564 126.274C126.564 125.874 126.8 125.707 127.085 125.91L130.314 128.15C130.466 128.267 130.593 128.427 130.684 128.616C130.774 128.804 130.826 129.016 130.834 129.233C130.834 129.633 130.605 129.793 130.314 129.597Z" fill="#5D9FD1"/>
<path d="M191.185 242.347C190.758 242.337 190.341 242.191 189.976 241.925C189.309 241.411 188.755 240.714 188.358 239.89C187.961 239.067 187.734 238.141 187.695 237.19C187.655 236.768 187.718 236.34 187.878 235.96C188.037 235.58 188.285 235.264 188.592 235.051C188.898 234.839 189.25 234.739 189.603 234.763C189.957 234.788 190.296 234.937 190.58 235.19C191.245 235.706 191.798 236.404 192.193 237.227C192.589 238.051 192.815 238.975 192.855 239.925C192.884 240.35 192.817 240.778 192.662 241.161C192.506 241.545 192.268 241.872 191.972 242.107C191.731 242.266 191.46 242.348 191.185 242.347ZM189.419 236.223C189.346 236.221 189.273 236.241 189.207 236.281C189.103 236.394 189.023 236.536 188.974 236.694C188.926 236.853 188.91 237.023 188.929 237.19C188.966 237.886 189.136 238.563 189.427 239.166C189.717 239.769 190.121 240.283 190.605 240.667C190.685 240.836 190.818 240.961 190.974 241.013C191.131 241.065 191.298 241.04 191.439 240.943C191.58 240.847 191.684 240.687 191.727 240.499C191.77 240.31 191.749 240.109 191.669 239.939C191.633 239.245 191.463 238.569 191.173 237.966C190.884 237.363 190.482 236.849 190 236.463C189.826 236.327 189.626 236.245 189.419 236.223Z" fill="#5D9FD1"/>
<path d="M203.165 193.059C202.738 193.049 202.321 192.903 201.955 192.637C201.29 192.123 200.736 191.425 200.34 190.601C199.945 189.778 199.719 188.852 199.681 187.902C199.642 187.481 199.706 187.054 199.865 186.676C200.024 186.297 200.271 185.982 200.577 185.77C200.882 185.558 201.233 185.457 201.585 185.481C201.937 185.504 202.276 185.651 202.56 185.902C203.227 186.416 203.781 187.114 204.178 187.937C204.574 188.761 204.802 189.686 204.84 190.637C204.868 191.062 204.801 191.489 204.646 191.872C204.491 192.256 204.253 192.583 203.957 192.819C203.715 192.979 203.442 193.061 203.165 193.059ZM201.399 186.913C201.325 186.911 201.253 186.931 201.187 186.971C201.083 187.084 201.002 187.226 200.954 187.384C200.905 187.543 200.89 187.713 200.909 187.881C200.946 188.575 201.115 189.251 201.405 189.854C201.694 190.457 202.096 190.971 202.578 191.357C202.689 191.459 202.82 191.528 202.957 191.557C203.095 191.586 203.237 191.575 203.371 191.524C203.475 191.411 203.555 191.27 203.604 191.111C203.652 190.953 203.668 190.782 203.649 190.615C203.611 189.92 203.44 189.244 203.15 188.641C202.859 188.038 202.457 187.524 201.973 187.139C201.801 187.006 201.603 186.929 201.399 186.913Z" fill="#5D9FD1"/>
<path d="M166.077 143.17C165.65 143.16 165.233 143.015 164.867 142.748C164.202 142.234 163.648 141.536 163.253 140.713C162.857 139.889 162.631 138.964 162.593 138.014C162.554 137.592 162.618 137.166 162.777 136.787C162.936 136.408 163.183 136.094 163.489 135.881C163.794 135.669 164.145 135.569 164.497 135.592C164.849 135.616 165.188 135.762 165.472 136.014C166.138 136.528 166.692 137.225 167.087 138.049C167.483 138.873 167.709 139.798 167.746 140.748C167.776 141.173 167.71 141.599 167.555 141.983C167.401 142.367 167.164 142.694 166.869 142.93C166.626 143.089 166.354 143.171 166.077 143.17ZM164.311 137.046C164.24 137.045 164.169 137.065 164.105 137.105C164.001 137.217 163.921 137.359 163.872 137.517C163.824 137.676 163.808 137.846 163.827 138.014C163.864 138.709 164.033 139.384 164.323 139.987C164.613 140.59 165.014 141.104 165.496 141.49C165.577 141.66 165.71 141.784 165.866 141.836C166.023 141.888 166.19 141.863 166.331 141.766C166.472 141.67 166.576 141.51 166.619 141.322C166.662 141.134 166.641 140.932 166.561 140.763C166.526 140.067 166.357 139.391 166.067 138.788C165.777 138.185 165.375 137.671 164.892 137.286C164.718 137.149 164.518 137.067 164.311 137.046Z" fill="#5D9FD1"/>
<path d="M189.024 203.897C189.024 196.333 184.609 187.17 179.165 183.366C176.407 181.453 173.915 181.301 172.125 182.595L168.43 185.206L169.543 187.446C169.384 188.357 169.307 189.286 169.313 190.217C169.313 197.773 173.722 206.944 179.165 210.74C179.993 211.33 180.885 211.78 181.814 212.078L182.734 213.933L185.933 211.7C186.076 211.615 186.213 211.517 186.344 211.409C188.008 210.1 189.024 207.511 189.024 203.897Z" fill="#004E89"/>
<path opacity="0.3" d="M189.024 203.897C189.024 196.333 184.609 187.17 179.165 183.366C176.407 181.453 173.915 181.301 172.125 182.595L168.43 185.206L169.543 187.446C169.384 188.357 169.307 189.286 169.313 190.217C169.313 197.773 173.722 206.944 179.165 210.74C179.993 211.33 180.885 211.78 181.814 212.078L182.734 213.933L185.933 211.7C186.076 211.615 186.213 211.517 186.344 211.409C188.008 210.1 189.024 207.511 189.024 203.897Z" fill="black"/>
<path d="M185.666 206.224C185.666 213.78 181.257 216.842 175.814 213.06C170.37 209.278 165.955 200.093 165.955 192.537C165.955 184.981 170.37 181.919 175.814 185.693C181.257 189.468 185.666 198.668 185.666 206.224Z" fill="#5D9FD1"/>
<path d="M178.627 195.548C177.072 194.472 175.814 195.657 175.814 198.196C175.814 195.657 174.556 192.727 173.002 191.65C171.447 190.574 170.189 191.759 170.189 194.305C170.189 200.777 175.814 207.446 175.814 207.446C175.814 207.446 181.439 208.581 181.439 202.108C181.439 199.563 180.175 196.625 178.627 195.548Z" fill="white"/>
<path d="M128.7 110.555C128.7 102.999 124.29 93.8279 118.847 90.0316C116.089 88.1189 113.597 87.9662 111.807 89.2534L108.105 91.8643L109.218 94.0969C109.063 95.0111 108.986 95.942 108.989 96.8751C108.989 104.431 113.404 113.602 118.847 117.398C119.673 117.988 120.562 118.438 121.49 118.737L122.415 120.591L125.615 118.358C125.757 118.271 125.894 118.174 126.026 118.067C127.683 116.737 128.7 114.148 128.7 110.555Z" fill="#004E89"/>
<path opacity="0.3" d="M128.7 110.555C128.7 102.999 124.29 93.8279 118.847 90.0316C116.089 88.1189 113.597 87.9662 111.807 89.2534L108.105 91.8643L109.218 94.0969C109.063 95.0111 108.986 95.942 108.989 96.8751C108.989 104.431 113.404 113.602 118.847 117.398C119.673 117.988 120.562 118.438 121.49 118.737L122.415 120.591L125.615 118.358C125.757 118.271 125.894 118.174 126.026 118.067C127.683 116.737 128.7 114.148 128.7 110.555Z" fill="black"/>
<path d="M122.458 120.529C126.305 117.858 126.305 109.196 122.457 101.181C118.609 93.1671 112.37 88.8355 108.523 91.5065C104.676 94.1775 104.676 102.84 108.524 110.854C112.372 118.868 118.611 123.2 122.458 120.529Z" fill="#5D9FD1"/>
<path d="M118.302 102.181C116.748 101.105 115.49 102.29 115.49 104.828C115.49 102.29 114.232 99.3519 112.677 98.2829C111.123 97.2138 109.871 98.392 109.871 100.937C109.871 107.403 115.49 114.079 115.49 114.079C115.49 114.079 121.115 115.213 121.115 108.741C121.115 106.188 119.857 103.279 118.302 102.181Z" fill="white"/>
<path d="M165.192 159.281C165.192 152.736 161.37 144.736 156.646 141.485C154.257 139.819 152.098 139.688 150.543 140.808L147.338 143.07L148.3 145.012C148.166 145.802 148.102 146.606 148.106 147.412C148.106 153.957 151.928 161.957 156.646 165.208C157.362 165.719 158.134 166.108 158.938 166.364L159.743 167.979L162.519 166.037C162.631 165.975 162.74 165.905 162.845 165.826C164.315 164.684 165.192 162.437 165.192 159.281Z" fill="#004E89"/>
<path opacity="0.3" d="M165.192 159.281C165.192 152.736 161.37 144.736 156.646 141.485C154.257 139.819 152.098 139.688 150.543 140.808L147.338 143.07L148.3 145.012C148.166 145.802 148.102 146.606 148.106 147.412C148.106 153.957 151.928 161.957 156.646 165.208C157.362 165.719 158.134 166.108 158.938 166.364L159.743 167.979L162.519 166.037C162.631 165.975 162.74 165.905 162.845 165.826C164.315 164.684 165.192 162.437 165.192 159.281Z" fill="black"/>
<path d="M159.789 167.969C163.127 165.651 163.128 158.138 159.791 151.188C156.454 144.239 151.043 140.483 147.705 142.801C144.366 145.118 144.365 152.631 147.702 159.581C151.039 166.531 156.451 170.286 159.789 167.969Z" fill="#5D9FD1"/>
<path d="M156.193 152.066C154.845 151.128 153.774 152.16 153.774 154.364C153.774 152.182 152.679 149.615 151.355 148.677C150.03 147.739 148.936 148.771 148.936 150.975C148.936 156.589 153.81 162.371 153.81 162.371C153.81 162.371 158.685 163.36 158.685 157.746C158.613 155.542 157.524 152.997 156.193 152.066Z" fill="white"/>
<path d="M211.229 111.282C211.229 104.736 207.401 96.7363 202.683 93.4855C200.264 91.8273 198.129 91.6891 196.581 92.8091L193.369 95.0709L194.337 97.0127C194.202 97.8047 194.135 98.6114 194.137 99.4199C194.137 105.965 197.966 113.965 202.683 117.216C203.4 117.726 204.171 118.115 204.976 118.372L205.774 119.98L208.55 118.045C208.671 117.965 208.792 117.885 208.907 117.798C210.322 116.649 211.229 114.409 211.229 111.282Z" fill="#004E89"/>
<path opacity="0.3" d="M211.229 111.282C211.229 104.736 207.401 96.7363 202.683 93.4855C200.264 91.8273 198.129 91.6891 196.581 92.8091L193.369 95.0709L194.337 97.0127C194.202 97.8047 194.135 98.6114 194.137 99.4199C194.137 105.965 197.966 113.965 202.683 117.216C203.4 117.726 204.171 118.115 204.976 118.372L205.774 119.98L208.55 118.045C208.671 117.965 208.792 117.885 208.907 117.798C210.322 116.649 211.229 114.409 211.229 111.282Z" fill="black"/>
<path d="M208.297 113.289C208.297 119.834 204.469 122.496 199.751 119.216C195.034 115.936 191.205 107.973 191.205 101.42C191.205 94.8674 195.034 92.2129 199.751 95.4929C204.469 98.7728 208.297 106.736 208.297 113.289Z" fill="#5D9FD1"/>
<path d="M202.191 104.008C200.843 103.078 199.772 104.103 199.772 106.307C199.772 104.125 198.683 101.558 197.353 100.627C196.022 99.6958 194.934 100.721 194.934 102.925C194.934 108.532 199.808 114.314 199.808 114.314C199.808 114.314 204.683 115.303 204.683 109.688C204.629 107.507 203.54 104.968 202.191 104.008Z" fill="white"/>
</svg>
