<svg width="42" height="44" viewBox="0 0 42 44" fill="none" xmlns="http://www.w3.org/2000/svg">
<mask id="mask0_1376_6255" style="mask-type:luminance" maskUnits="userSpaceOnUse" x="0" y="0" width="42" height="44">
<path d="M0.828125 0.890625H41.1781V43.4906H0.828125V0.890625Z" fill="white"/>
</mask>
<g mask="url(#mask0_1376_6255)">
<path d="M39.5482 22.3035C39.5482 33.0546 31.2914 41.7694 21.1105 41.7694C10.9296 41.7694 2.67516 33.0546 2.67516 22.3035C2.67516 11.5549 10.9296 2.84261 21.1105 2.84261C31.2868 2.85247 39.5342 11.5598 39.5482 22.3035ZM41.393 22.3035C41.393 10.4776 32.3119 0.892578 21.1105 0.892578C9.90687 0.892578 0.828125 10.4776 0.828125 22.306C0.828125 34.1319 9.90921 43.7169 21.1105 43.7169C32.3072 43.7046 41.3813 34.127 41.393 22.3035ZM34.9342 22.1778L32.6901 24.5469L22.9996 34.8296H18.5116L28.8723 23.832H10.458V19.9319H28.3189L17.9722 8.98855H22.4439L34.9342 22.1778Z" fill="#FFBD59"/>
</g>
</svg>
