<svg xmlns="http://www.w3.org/2000/svg" width="21" height="19" viewBox="0 0 21 19" fill="none">
  <path d="M5.02412 12C5.02412 12.5304 4.80195 13.0391 4.40649 13.4142C4.01102 13.7893 3.47465 14 2.91538 14C2.35611 14 1.81974 13.7893 1.42428 13.4142C1.02881 13.0391 0.806641 12.5304 0.806641 12C0.806641 11.4696 1.02881 10.9609 1.42428 10.5858C1.81974 10.2107 2.35611 10 2.91538 10H5.02412V12ZM6.07849 12C6.07849 11.4696 6.30066 10.9609 6.69613 10.5858C7.09159 10.2107 7.62796 10 8.18723 10C8.74651 10 9.28287 10.2107 9.67834 10.5858C10.0738 10.9609 10.296 11.4696 10.296 12V17C10.296 17.5304 10.0738 18.0391 9.67834 18.4142C9.28287 18.7893 8.74651 19 8.18723 19C7.62796 19 7.09159 18.7893 6.69613 18.4142C6.30066 18.0391 6.07849 17.5304 6.07849 17V12ZM8.18723 4C7.62796 4 7.09159 3.78929 6.69613 3.41421C6.30066 3.03914 6.07849 2.53043 6.07849 2C6.07849 1.46957 6.30066 0.960859 6.69613 0.585786C7.09159 0.210714 7.62796 0 8.18723 0C8.74651 0 9.28287 0.210714 9.67834 0.585786C10.0738 0.960859 10.296 1.46957 10.296 2V4H8.18723ZM8.18723 5C8.74651 5 9.28287 5.21071 9.67834 5.58579C10.0738 5.96086 10.296 6.46957 10.296 7C10.296 7.53043 10.0738 8.03914 9.67834 8.41421C9.28287 8.78929 8.74651 9 8.18723 9H2.91538C2.35611 9 1.81974 8.78929 1.42428 8.41421C1.02881 8.03914 0.806641 7.53043 0.806641 7C0.806641 6.46957 1.02881 5.96086 1.42428 5.58579C1.81974 5.21071 2.35611 5 2.91538 5H8.18723ZM16.6222 7C16.6222 6.46957 16.8444 5.96086 17.2398 5.58579C17.6353 5.21071 18.1717 5 18.7309 5C19.2902 5 19.8266 5.21071 20.222 5.58579C20.6175 5.96086 20.8397 6.46957 20.8397 7C20.8397 7.53043 20.6175 8.03914 20.222 8.41421C19.8266 8.78929 19.2902 9 18.7309 9H16.6222V7ZM15.5678 7C15.5678 7.53043 15.3457 8.03914 14.9502 8.41421C14.5547 8.78929 14.0184 9 13.4591 9C12.8998 9 12.3634 8.78929 11.968 8.41421C11.5725 8.03914 11.3503 7.53043 11.3503 7V2C11.3503 1.46957 11.5725 0.960859 11.968 0.585786C12.3634 0.210714 12.8998 0 13.4591 0C14.0184 0 14.5547 0.210714 14.9502 0.585786C15.3457 0.960859 15.5678 1.46957 15.5678 2V7ZM13.4591 15C14.0184 15 14.5547 15.2107 14.9502 15.5858C15.3457 15.9609 15.5678 16.4696 15.5678 17C15.5678 17.5304 15.3457 18.0391 14.9502 18.4142C14.5547 18.7893 14.0184 19 13.4591 19C12.8998 19 12.3634 18.7893 11.968 18.4142C11.5725 18.0391 11.3503 17.5304 11.3503 17V15H13.4591ZM13.4591 14C12.8998 14 12.3634 13.7893 11.968 13.4142C11.5725 13.0391 11.3503 12.5304 11.3503 12C11.3503 11.4696 11.5725 10.9609 11.968 10.5858C12.3634 10.2107 12.8998 10 13.4591 10H18.7309C19.2902 10 19.8266 10.2107 20.222 10.5858C20.6175 10.9609 20.8397 11.4696 20.8397 12C20.8397 12.5304 20.6175 13.0391 20.222 13.4142C19.8266 13.7893 19.2902 14 18.7309 14H13.4591Z" fill="white"/>
</svg>
