<svg width="229" height="15" viewBox="0 0 229 15" fill="none" xmlns="http://www.w3.org/2000/svg">
<mask id="mask0_1376_4983" style="mask-type:luminance" maskUnits="userSpaceOnUse" x="0" y="0" width="229" height="15">
<path d="M0 0H228.673V14.6733H0V0Z" fill="white"/>
</mask>
<g mask="url(#mask0_1376_4983)">
<path d="M107.117 0.118052C100.412 0.199406 94.746 0.349788 90.4901 0.569198C89.2874 0.628365 87.1758 0.731906 85.7866 0.800934C82.1857 0.975968 68.9075 1.87826 63.689 2.30475C62.9129 2.36392 60.7453 2.52416 58.876 2.65236C57.0161 2.78055 55.2657 2.90628 54.9907 2.9408C54.718 2.97777 51.6438 3.2317 48.1547 3.52014C44.6656 3.79871 39.9179 4.19069 37.5988 4.38791C35.2797 4.57281 30.9795 4.92041 28.0265 5.13982C18.7176 5.84736 14.6691 6.23934 11.2336 6.77184C10.0426 6.95673 9.25482 7.1293 9.13362 7.24517C9.02408 7.35118 8.46703 7.47691 7.71188 7.58291C4.66095 7.97489 3.37905 8.25347 1.7825 8.87718C0.754651 9.28149 0.677738 9.34066 0.426019 9.81399C0.218584 10.2208 0.185953 10.3711 0.274521 10.5314C0.360758 10.6818 0.360758 10.7631 0.23956 10.8667C0.0321257 11.054 0.0321257 11.6087 0.23956 11.7936C0.381735 11.9218 0.381735 11.9563 0.23956 12.0722C-0.000504807 12.2669 0.0973861 12.5233 0.547217 12.9498C0.775629 13.1594 0.94111 13.401 0.90848 13.4823C0.819912 13.7362 0.952764 13.9926 1.26974 14.1529C2.09016 14.604 6.59546 14.7914 10.0869 14.5251C11.4107 14.4191 13.7718 14.2687 15.3357 14.1652C16.9019 14.074 18.4542 13.968 18.7828 13.9458C19.1115 13.9113 19.9972 13.8521 20.7523 13.8176C21.5075 13.7831 22.4374 13.7264 22.8313 13.7017C23.5632 13.6574 25.204 13.576 27.4788 13.4725C28.2013 13.4478 29.4809 13.3911 30.3246 13.3443C31.8233 13.2752 32.3151 13.3566 31.1334 13.4823C28.826 13.7141 28.9448 13.7486 32.0191 13.6919C39.0089 13.576 51.9281 12.8808 59.8596 12.1979C61.6636 12.0475 64.1808 11.8404 65.4394 11.7344C66.7073 11.6432 69.1685 11.4238 70.9073 11.2734C72.6576 11.1107 75.4802 10.879 77.1979 10.7533C78.9157 10.6251 82.1437 10.3588 84.3626 10.1739C88.2805 9.8485 92.667 9.52555 97.9717 9.19027C99.3725 9.10892 100.554 9.00538 100.587 8.97087C100.64 8.90184 97.6221 8.84267 96.9229 8.88951C96.7248 8.9117 96.5616 8.86732 96.5616 8.80816C96.5616 8.75146 96.6478 8.71448 96.7574 8.71448C96.9322 8.7268 99.0438 8.61093 100.717 8.49507C101.111 8.47288 102.272 8.41371 103.288 8.3792C104.316 8.34468 105.64 8.30031 106.241 8.26333C106.845 8.24114 108.495 8.18444 109.907 8.14993C111.317 8.11295 112.772 8.05625 113.133 8.03406C113.494 8.00941 115.343 7.95271 117.235 7.91819C119.128 7.88368 121.295 7.83684 122.05 7.80232C122.803 7.76781 125.735 7.72097 128.558 7.68645C131.392 7.65194 134.312 7.59277 135.068 7.57059C141.936 7.32652 190.758 7.2575 197.641 7.47691C200.079 7.55826 203.603 7.67413 205.463 7.74316C209.565 7.87135 214.606 7.96257 214.378 7.89354C214.277 7.87135 213.415 7.77767 212.462 7.69632L210.711 7.54593L212.352 7.52375C213.261 7.50156 214.093 7.44239 214.212 7.38569C214.387 7.30434 214.366 7.27968 214.082 7.31666C213.886 7.33885 213.72 7.31666 213.72 7.2575C213.72 7.21066 214.028 7.16628 214.41 7.16628C214.837 7.16628 215.033 7.21066 214.935 7.26982C214.848 7.33885 214.967 7.35118 215.263 7.31666C216.007 7.22298 223.927 7.97489 226.968 8.42604C227.406 8.4852 227.646 8.47288 227.777 8.36934C227.887 8.28798 228.117 8.25347 228.336 8.28798C228.576 8.33482 228.707 8.31017 228.707 8.21896C228.707 8.14993 228.597 8.09076 228.455 8.09076C228.313 8.09076 228.106 8.00941 227.984 7.91819C227.777 7.75548 227.777 7.74316 228.029 7.67413C228.357 7.57059 228.336 7.43253 227.975 7.35118C224.167 6.49326 208.164 4.9426 190.364 3.69517C188.507 3.56698 185.77 3.35743 184.295 3.2317C182.817 3.1035 180.552 2.91861 179.263 2.82493C177.972 2.72139 176.046 2.571 174.995 2.47979C173.946 2.38611 171.856 2.2234 170.346 2.13218C168.847 2.0385 166.113 1.85361 164.274 1.72788C155.743 1.13621 152.275 0.98583 141.96 0.731906C140.186 0.685066 138.601 0.638226 138.435 0.628365C138.261 0.616038 137.189 0.603712 136.042 0.593851C134.783 0.581524 133.984 0.522357 134.028 0.465656C134.061 0.396628 133.995 0.349788 133.898 0.362115C133.033 0.371976 131.709 0.302948 131.075 0.211733C130.122 0.0613508 116.361 0.01451 107.117 0.118052ZM94.394 4.86371C94.3521 4.90809 93.6062 4.97711 92.7322 5.01409C91.8582 5.05847 90.9492 5.11763 90.7091 5.13982C90.4668 5.16448 89.5811 5.22118 88.7397 5.25569C87.896 5.29021 86.9683 5.34937 86.6607 5.37156C86.3647 5.40607 85.6212 5.45291 85.0198 5.48743C84.4185 5.52194 83.7519 5.56878 83.5422 5.6033C83.3347 5.62548 82.6238 5.68465 81.9573 5.71916C81.3 5.766 80.6124 5.81038 80.426 5.83503C80.2512 5.85722 79.6265 5.90406 79.0578 5.9509C78.051 6.01993 77.4729 6.06677 75.9953 6.18264C75.6014 6.20482 74.8462 6.26152 74.2985 6.2985C72.921 6.38972 71.7626 6.47107 71.1823 6.52777C70.6136 6.58694 68.3714 6.77184 67.0243 6.87538C66.5115 6.90989 65.8752 6.96906 65.6025 6.99125C65.3298 7.0159 64.6959 7.0726 64.1808 7.10711C63.6657 7.14163 62.9781 7.18847 62.6495 7.22298C62.3209 7.24517 61.6543 7.30434 61.1718 7.33885C59.9575 7.43253 59.193 7.48923 56.797 7.68645C54.0841 7.90586 50.3316 8.17211 48.812 8.26333C48.1547 8.30031 47.2131 8.35701 46.7329 8.3792C46.2505 8.41371 45.5186 8.46055 45.0921 8.49507C43.0574 8.62326 41.2744 8.69229 41.3187 8.63559C41.3839 8.56409 42.2043 8.47288 43.6144 8.3792C44.1295 8.34468 44.7192 8.30031 44.9266 8.26333C45.1364 8.24114 45.7261 8.18444 46.2412 8.14993C47.9915 8.02173 48.5929 7.97489 49.1942 7.91819C49.5228 7.88368 51.9188 7.70864 54.4989 7.51142C57.093 7.32652 60.1649 7.08493 61.3373 6.99125C67.3739 6.50559 75.0863 5.92625 81.4095 5.48743C81.8361 5.46524 82.6891 5.40607 83.3254 5.37156C83.9594 5.33705 85.3158 5.26802 86.332 5.19899C88.7071 5.05847 89.9866 4.98944 91.9654 4.89823C92.8418 4.86371 93.5643 4.81687 93.5736 4.80455C93.6412 4.74784 94.4616 4.80455 94.394 4.86371ZM149.506 5.19899C156.191 5.32472 158.389 5.37156 166.409 5.6033C175.75 5.88187 179.174 6.01993 180.519 6.20482C180.978 6.26152 181.023 6.28618 180.794 6.36753C180.64 6.41191 180.584 6.44889 180.661 6.45875C180.729 6.47107 180.794 6.52777 180.794 6.58694C180.794 6.725 181.013 6.725 144.039 6.75951C128.842 6.77184 115.585 6.81868 114.557 6.86552C113.047 6.92222 104.088 6.97892 103.3 6.94441C102.894 6.92222 103.234 6.77184 103.759 6.74965C105.728 6.64364 107.062 6.58694 108.921 6.51791C110.094 6.4834 111.208 6.43656 111.383 6.41191C111.569 6.38972 112.117 6.36753 112.609 6.36753C113.364 6.35521 113.494 6.33302 113.45 6.18264C113.408 6.06677 113.45 6.0076 113.571 6.0076C113.692 6.0076 113.737 6.06677 113.692 6.18264C113.648 6.32069 113.746 6.35521 114.217 6.35521C114.732 6.35521 114.818 6.32069 114.883 6.08895L114.96 5.83503L115.114 6.41191L115.179 6.14812C115.235 5.92625 115.31 5.88187 115.671 5.90406C116.121 5.91639 119.773 5.81038 121.503 5.71916C122.071 5.69451 124.216 5.63781 126.262 5.59097C128.306 5.54413 130.178 5.49975 130.418 5.48743C130.658 5.4751 132.005 5.45291 133.403 5.44059C134.869 5.44059 135.942 5.38389 135.942 5.32472C135.942 5.25569 133.646 5.20885 130.231 5.19899C127.092 5.19899 124.5 5.16448 124.467 5.13982C124.379 5.03628 143.645 5.08312 149.506 5.19899ZM114.392 6.05444C114.392 6.08895 114.347 6.14812 114.282 6.18264C114.229 6.21715 114.173 6.1925 114.173 6.1358C114.173 6.06677 114.229 6.0076 114.282 6.0076C114.347 6.0076 114.392 6.03225 114.392 6.05444ZM87.6233 6.43656C87.5463 6.45875 87.3949 6.45875 87.2946 6.43656C87.1851 6.40205 87.2527 6.37739 87.4275 6.37739C87.6116 6.37739 87.6885 6.40205 87.6233 6.43656ZM85.479 6.5401C85.4464 6.57461 85.3485 6.58694 85.2716 6.55243C85.183 6.51791 85.2179 6.4834 85.3368 6.4834C85.458 6.47107 85.5233 6.50559 85.479 6.5401ZM181.23 6.58694C181.23 6.64364 181.188 6.70281 181.132 6.70281C181.067 6.70281 180.99 6.64364 180.957 6.58694C180.925 6.51791 180.969 6.47107 181.055 6.47107C181.155 6.47107 181.23 6.51791 181.23 6.58694ZM84.288 6.6683C84.1784 6.69048 84.0036 6.69048 83.9034 6.6683C83.7939 6.63378 83.8824 6.60913 84.0899 6.60913C84.2973 6.60913 84.3859 6.63378 84.288 6.6683ZM82.7008 6.78416C82.5586 6.80635 82.3185 6.80635 82.153 6.78416C81.9782 6.75951 82.0994 6.73732 82.3954 6.73732C82.7008 6.73732 82.8313 6.75951 82.7008 6.78416ZM102.918 6.96906C102.775 7.11944 102.633 7.00357 102.743 6.82854C102.775 6.75951 102.862 6.73732 102.927 6.77184C102.992 6.81868 102.992 6.88771 102.918 6.96906ZM81.0599 6.90003C80.9178 6.92222 80.6777 6.92222 80.5122 6.90003C80.3374 6.87538 80.4586 6.85319 80.7546 6.85319C81.0599 6.85319 81.1905 6.87538 81.0599 6.90003ZM199.314 6.90003C199.237 6.92222 199.107 6.92222 199.039 6.90003C198.965 6.86552 199.018 6.84086 199.172 6.84086C199.323 6.84086 199.379 6.86552 199.314 6.90003ZM209.707 6.90003C209.63 6.92222 209.497 6.92222 209.432 6.90003C209.355 6.86552 209.411 6.84086 209.565 6.84086C209.716 6.84086 209.772 6.86552 209.707 6.90003ZM79.3655 7.0159C79.1884 7.03809 78.9273 7.03809 78.7618 7.0159C78.587 6.99125 78.7292 6.96906 79.0578 6.96906C79.3865 6.96906 79.5286 6.99125 79.3655 7.0159ZM201.939 7.0159C201.743 7.03809 201.414 7.03809 201.228 7.0159C201.032 6.99125 201.183 6.96906 201.577 6.96906C201.971 6.96906 202.125 6.99125 201.939 7.0159ZM211.564 7.0159C211.422 7.03809 211.182 7.03809 211.019 7.0159C210.844 6.99125 210.963 6.96906 211.259 6.96906C211.564 6.96906 211.697 6.99125 211.564 7.0159ZM77.4496 7.1293C77.3727 7.15396 77.2422 7.15396 77.1769 7.1293C77.1 7.09479 77.1536 7.0726 77.3075 7.0726C77.4613 7.0726 77.5149 7.09479 77.4496 7.1293ZM77.9321 7.11944C77.8995 7.15395 77.7992 7.16628 77.7247 7.1293C77.6361 7.09479 77.6687 7.06027 77.7899 7.06027C77.9088 7.05041 77.974 7.08493 77.9321 7.11944ZM203.962 7.1293C203.798 7.15396 203.502 7.15396 203.307 7.1293C203.109 7.10711 203.241 7.08493 203.603 7.08493C203.962 7.08493 204.127 7.10711 203.962 7.1293ZM213.098 7.1293C212.956 7.15396 212.714 7.15396 212.55 7.1293C212.376 7.10711 212.494 7.08493 212.79 7.08493C213.098 7.08493 213.229 7.10711 213.098 7.1293ZM205.987 7.24517C205.845 7.26982 205.605 7.26982 205.439 7.24517C205.264 7.22298 205.386 7.2008 205.679 7.2008C205.987 7.2008 206.118 7.22298 205.987 7.24517ZM207.737 7.36104C207.595 7.38569 207.376 7.38569 207.246 7.36104C207.103 7.33885 207.211 7.31666 207.486 7.31666C207.758 7.31666 207.868 7.33885 207.737 7.36104ZM209.707 7.47691C209.565 7.50156 209.322 7.50156 209.159 7.47691C208.984 7.45472 209.103 7.43253 209.399 7.43253C209.707 7.43253 209.837 7.45472 209.707 7.47691ZM40.8805 8.6701C40.8805 8.73913 40.6288 8.77364 40.3118 8.76132L39.7314 8.75146L40.2232 8.6701C40.4982 8.62326 40.7476 8.57642 40.8036 8.57642C40.8479 8.56409 40.8805 8.60107 40.8805 8.6701ZM41.2091 8.60107C41.2091 8.63559 41.1648 8.69229 41.0996 8.7268C41.0436 8.76132 40.99 8.73913 40.99 8.67996C40.99 8.61093 41.0436 8.55423 41.0996 8.55423C41.1648 8.55423 41.2091 8.57642 41.2091 8.60107ZM39.6778 8.71448C39.6778 8.75146 39.6335 8.80816 39.5683 8.84267C39.5123 8.87718 39.4587 8.855 39.4587 8.79583C39.4587 8.7268 39.5123 8.6701 39.5683 8.6701C39.6335 8.6701 39.6778 8.69229 39.6778 8.71448ZM96.3192 8.86732C96.212 8.88951 96.0349 8.88951 95.937 8.86732C95.8274 8.83034 95.916 8.80816 96.1234 8.80816C96.3309 8.80816 96.4194 8.83034 96.3192 8.86732ZM26.2971 10.8223C26.2645 10.8568 26.1666 10.8667 26.0897 10.8321C26.0034 10.7976 26.0361 10.7631 26.1549 10.7631C26.2761 10.7533 26.3414 10.7878 26.2971 10.8223ZM26.7353 10.8223C26.7027 10.8568 26.6048 10.8667 26.5279 10.8321C26.4393 10.7976 26.4719 10.7631 26.5931 10.7631C26.7143 10.7533 26.7796 10.7878 26.7353 10.8223ZM25.0945 10.948C24.8754 10.9727 24.5258 10.9727 24.33 10.948C24.1435 10.9258 24.33 10.9036 24.7448 10.9036C25.1714 10.9036 25.3252 10.9258 25.0945 10.948ZM21.955 11.1699C17.3168 11.5495 12.1636 12.1511 12.0121 12.3261C11.9794 12.3729 12.5365 12.3729 13.259 12.3261C13.9792 12.2916 15.042 12.2226 15.6107 12.1979C16.1794 12.1634 16.9346 12.1067 17.2842 12.0722C17.7876 12.0253 17.9065 12.0475 17.9065 12.1881C17.9065 12.2793 17.8412 12.3828 17.776 12.4173C17.6338 12.4765 18.685 12.4296 20.3677 12.3015C20.8502 12.2571 21.2231 12.2571 21.1905 12.2916C21.1229 12.3606 16.1025 12.8118 15.0094 12.8463C14.7134 12.8586 14.2659 12.9054 14.0235 12.9621C13.7834 13.009 13.1168 13.0903 12.5481 13.1249C11.3338 13.2161 11.2453 13.2284 10.031 13.3911C9.51819 13.4601 8.51132 13.5514 7.78879 13.5859C7.06627 13.6228 5.6655 13.7017 4.67028 13.7732C3.06207 13.899 2.77772 13.8866 2.01325 13.7017C1.36763 13.5514 1.11591 13.4355 0.994717 13.2284C0.656761 12.6836 0.994717 12.5924 3.52356 12.5455C4.55141 12.5233 6.44396 12.3951 7.73519 12.2669C9.72563 12.0722 16.6059 11.4805 21.0809 11.1231C21.7685 11.0639 22.6542 11.017 23.0481 11.017C23.442 11.017 22.9502 11.0885 21.955 11.1699ZM2.26496 11.6901C2.26496 11.7714 1.59605 11.9095 1.22546 11.9095C1.01802 11.8972 1.01802 11.8971 1.21381 11.7344C1.41192 11.5742 2.26496 11.5397 2.26496 11.6901ZM18.5638 12.1634C18.5638 12.2226 18.4868 12.2571 18.4006 12.2571C18.312 12.2571 18.2025 12.2571 18.1582 12.2669C18.1163 12.2669 18.0603 12.2226 18.0393 12.1634C18.016 12.0944 18.1256 12.0599 18.2911 12.0722C18.4426 12.0722 18.5638 12.1166 18.5638 12.1634ZM21.5937 12.3261C21.5611 12.3606 21.4632 12.3729 21.3863 12.3384C21.2977 12.3015 21.3327 12.2669 21.4515 12.2669C21.5727 12.2571 21.638 12.2916 21.5937 12.3261Z" fill="white"/>
</g>
</svg>
