<svg width="141" height="32" viewBox="0 0 141 32" fill="none" xmlns="http://www.w3.org/2000/svg">
<path d="M43.5654 12.1293C43.0926 11.0474 42.4471 10.0973 41.6312 9.27909C40.8129 8.46086 39.8515 7.81536 38.7446 7.34261C37.64 6.87212 36.4649 6.63574 35.2194 6.63574C32.8238 6.63574 31.0032 7.50398 29.76 9.23818V6.91076H25.0938V31.101H29.76V15.5931C29.76 14.9249 29.8872 14.2953 30.1395 13.7067C30.3941 13.118 30.7396 12.6043 31.176 12.1656C31.6146 11.7293 32.126 11.3815 32.7147 11.1269C33.3011 10.8747 33.942 10.7474 34.633 10.7474C35.324 10.7474 35.9331 10.8747 36.5331 11.1292C37.1332 11.386 37.6559 11.7338 38.106 12.1747C38.5537 12.6157 38.906 13.1316 39.1606 13.7226C39.4129 14.3158 39.5401 14.9454 39.5401 15.6204C39.5401 16.2955 39.4129 16.966 39.1606 17.5683C38.906 18.1706 38.5537 18.7002 38.106 19.1525C37.6559 19.6048 37.1332 19.9593 36.5331 20.2139C35.9331 20.4685 35.3012 20.5957 34.633 20.5957C33.9648 20.5957 33.3534 20.4571 32.7329 20.1821L32.6965 20.148L30.9691 23.3027V23.3368C32.0987 24.2505 33.5147 24.7096 35.2194 24.7096C36.4649 24.7096 37.64 24.471 38.7446 24.0005C39.8515 23.5277 40.8129 22.8822 41.6312 22.064C42.4471 21.2481 43.0926 20.2844 43.5654 19.1797C44.0382 18.0728 44.2745 16.8864 44.2745 15.6204C44.2745 14.3544 44.0382 13.2134 43.5654 12.1293Z" fill="#063C9A"/>
<path d="M47.3974 -0.000976562L47.3633 24.1892H51.959V-0.000976562H47.3974Z" fill="#063C9A"/>
<path d="M72.2897 12.0952C71.8169 11.0133 71.1782 10.0678 70.3714 9.26091C69.5645 8.45404 68.6213 7.81536 67.5371 7.34261C66.4552 6.87212 65.2915 6.63574 64.0482 6.63574C62.805 6.63574 61.639 6.87212 60.5571 7.34261C59.4729 7.81536 58.5297 8.45404 57.7228 9.26091C56.916 10.0678 56.2773 11.0133 55.8045 12.0952C55.334 13.1793 55.0977 14.3294 55.0977 15.55C55.0977 16.7705 55.334 17.9228 55.8045 19.007C56.2773 20.0889 56.916 21.0344 57.7228 21.839C58.5297 22.6481 59.4729 23.2868 60.5571 23.7573C61.639 24.2301 62.8027 24.4664 64.0482 24.4664C65.2938 24.4664 66.4552 24.2301 67.5371 23.7573C68.6213 23.2868 69.5645 22.6481 70.3714 21.839C71.1782 21.0344 71.8169 20.0889 72.2897 19.007C72.7624 17.9228 72.9988 16.7728 72.9988 15.55C72.9988 14.3271 72.7624 13.1793 72.2897 12.0952ZM67.8667 17.366C67.6462 17.9524 67.3484 18.4706 66.9666 18.9206C66.587 19.3684 66.1484 19.7207 65.6552 19.9752C65.1597 20.2275 64.6233 20.3548 64.0482 20.3548C63.4732 20.3548 62.93 20.2275 62.4231 19.9752C61.9163 19.7207 61.4731 19.3684 61.0935 18.9206C60.7117 18.4706 60.4139 17.9524 60.1934 17.366C59.9752 16.7773 59.8661 16.1386 59.8661 15.4477C59.8661 14.8022 59.9752 14.1862 60.1934 13.5976C60.4139 13.0112 60.7117 12.5043 61.0935 12.077C61.4731 11.652 61.9163 11.311 62.4231 11.0588C62.93 10.8042 63.4709 10.6792 64.0482 10.6792C64.6255 10.6792 65.1597 10.8042 65.6552 11.0588C66.1484 11.311 66.587 11.652 66.9666 12.077C67.3484 12.5043 67.6462 13.0112 67.8667 13.5976C68.0849 14.1862 68.194 14.8022 68.194 15.4477C68.194 16.1386 68.0849 16.7773 67.8667 17.366Z" fill="#063C9A"/>
<path d="M90.1524 7.60171C88.8614 6.95849 87.525 6.63574 86.1431 6.63574C83.7929 6.63574 82.0087 7.47671 80.7882 9.15636V6.91076H76.0879V24.1891H80.7882V14.6863C80.8791 14.134 81.07 13.6157 81.3587 13.1316C81.6451 12.6475 81.9974 12.227 82.411 11.8702C82.827 11.5133 83.2974 11.236 83.8293 11.0406C84.3589 10.8451 84.9226 10.7474 85.5226 10.7474C86.3976 10.7474 87.2159 10.9656 87.975 11.4042L88.0091 11.4383L89.7729 8.29267L90.1865 7.60171H90.1524Z" fill="#063C9A"/>
<path d="M108.075 12.0952C107.602 11.0133 106.963 10.0678 106.157 9.26091C105.35 8.45404 104.406 7.81536 103.322 7.34261C102.24 6.87212 101.088 6.63574 99.8675 6.63574C98.647 6.63574 97.4537 6.87212 96.3604 7.34261C95.2649 7.81536 94.3149 8.45404 93.508 9.26091C92.7011 10.0678 92.0624 11.0133 91.5897 12.0952C91.1192 13.1793 90.8828 14.3408 90.8828 15.5863C90.8828 16.8319 91.1192 17.9592 91.5897 19.0411C92.0624 20.1252 92.7011 21.0685 93.508 21.8754C94.3149 22.6822 95.2649 23.3141 96.3604 23.7755C97.4537 24.2369 98.6242 24.4664 99.8675 24.4664C101.295 24.4664 102.649 24.1414 103.927 23.4914C105.206 22.8413 106.261 21.9345 107.091 20.773L107.159 20.7026L103.15 18.9365L103.081 18.9024L103.047 18.9365C102.586 19.5366 102.097 19.923 101.579 20.0957C101.061 20.2684 100.49 20.3548 99.8675 20.3548C99.1765 20.3548 98.5538 20.2003 98.0015 19.8889C97.4491 19.5798 96.9764 19.1956 96.5855 18.7365C96.1923 18.2774 95.8922 17.766 95.6854 17.2046C95.4786 16.6409 95.374 16.0954 95.374 15.5681C95.374 14.8795 95.4899 14.2431 95.7195 13.6567C95.9513 13.0725 96.2673 12.5657 96.6696 12.1406C97.0741 11.7179 97.5514 11.3792 98.106 11.1269C98.6583 10.8724 99.2447 10.7474 99.8675 10.7474C100.881 10.7474 101.763 11.0588 102.511 11.6792C103.259 12.302 103.795 13.0975 104.118 14.0658H97.5514L99.7629 17.5887H108.541L108.575 17.5205C108.714 16.8978 108.784 16.2545 108.784 15.5863C108.784 14.3408 108.548 13.1793 108.075 12.0952Z" fill="#063C9A"/>
<path d="M125.87 7.60171C124.579 6.95849 123.242 6.63574 121.86 6.63574C119.51 6.63574 117.724 7.47671 116.503 9.15636V6.91076H111.803V24.1891H116.503V14.6863C116.596 14.134 116.785 13.6157 117.074 13.1316C117.362 12.6475 117.712 12.227 118.128 11.8702C118.542 11.5133 119.015 11.236 119.544 11.0406C120.074 10.8451 120.64 10.7474 121.237 10.7474C122.112 10.7474 122.931 10.9656 123.692 11.4042L123.726 11.4383L125.488 8.29267L125.904 7.60171H125.87Z" fill="#063C9A"/>
<path d="M140.599 16.9841C140.336 16.4659 139.965 16.0227 139.495 15.6545C139.022 15.2863 138.47 14.9681 137.836 14.7044C137.201 14.4385 136.506 14.1794 135.744 13.9271C135.676 13.9044 135.601 13.8817 135.519 13.8567C135.44 13.8339 135.365 13.8226 135.294 13.8226C134.949 13.7089 134.599 13.5816 134.242 13.443C133.883 13.3044 133.563 13.1612 133.274 13.0112C132.985 12.8611 132.749 12.6998 132.565 12.527C132.381 12.3543 132.29 12.1634 132.29 11.9565C132.29 11.6792 132.347 11.4679 132.462 11.3179C132.576 11.1679 132.722 11.0474 132.894 10.9542C133.067 10.8633 133.256 10.8042 133.465 10.7815C133.672 10.7587 133.856 10.7474 134.017 10.7474C134.892 10.7474 135.722 10.9019 136.506 11.2133C137.288 11.5247 137.945 11.9452 138.474 12.4748L138.508 12.5088L140.618 8.67451V8.60405C139.649 7.95855 138.601 7.46989 137.472 7.13577C136.345 6.80166 135.226 6.63574 134.119 6.63574C133.176 6.63574 132.312 6.76757 131.528 7.03122C130.744 7.29488 130.078 7.6699 129.524 8.15175C128.971 8.6336 128.544 9.20864 128.246 9.87459C127.946 10.5405 127.796 11.277 127.796 12.0815V12.1497C127.796 13.0702 127.974 13.8226 128.333 14.409C128.689 14.9954 129.144 15.4772 129.696 15.8545C130.251 16.2341 130.871 16.5341 131.562 16.7523C132.253 16.9705 132.944 17.1728 133.638 17.3546C133.751 17.4023 133.86 17.4296 133.965 17.441C134.069 17.4546 134.178 17.4819 134.294 17.5274C134.892 17.7115 135.41 17.9069 135.849 18.1138C136.285 18.3206 136.506 18.6297 136.506 19.0434C136.506 19.9184 135.824 20.3548 134.465 20.3548C133.476 20.3548 132.542 20.1639 131.667 19.7843C130.792 19.4047 130.008 18.8456 129.317 18.1069L129.283 18.0728L126.933 21.7822L126.898 21.8185L126.933 21.8526C128.037 22.6891 129.224 23.3345 130.492 23.7868C131.758 24.2391 133.049 24.4664 134.363 24.4664C136.458 24.4664 138.088 23.971 139.252 22.98C140.415 21.9913 140.997 20.6185 140.997 18.8684V18.8343C140.997 18.1206 140.865 17.5024 140.599 16.9841Z" fill="#063C9A"/>
<path d="M6.08967 15.3999L-0.00390625 24.1891H5.8692L11.1491 16.0499L6.08967 15.3999Z" fill="#063C9A"/>
<path d="M14.2335 12.0612L22.5955 -0.000976562H16.686L11.3311 8.81096L5.93983 -0.000976562H0.0644531L8.39226 12.0612L11.1493 16.0501L11.3311 16.3114L16.7564 24.1892H22.6659L14.2335 12.0612Z" fill="#063C9A"/>
</svg>
