<svg xmlns="http://www.w3.org/2000/svg" width="25" height="21" viewBox="0 0 25 21" fill="none">
  <path d="M12.1931 0C10.6091 0 9.04057 0.269435 7.5771 0.792922C6.11364 1.31641 4.78391 2.08369 3.66382 3.05097C1.4017 5.00448 0.130859 7.65399 0.130859 10.4167C0.130859 15.0208 3.59273 18.9271 8.38146 20.3125C8.98457 20.3958 9.17757 20.0729 9.17757 19.7917V18.0312C5.83632 18.6562 5.12464 16.6354 5.12464 16.6354C4.56978 15.4271 3.78573 15.1042 3.78573 15.1042C2.68806 14.4583 3.87017 14.4792 3.87017 14.4792C5.07639 14.5521 5.71569 15.5521 5.71569 15.5521C6.76511 17.1354 8.53827 16.6667 9.22582 16.4167C9.33438 15.7396 9.648 15.2812 9.98574 15.0208C7.30791 14.7604 4.4974 13.8646 4.4974 9.89583C4.4974 8.73958 4.95577 7.8125 5.73982 7.07292C5.6192 6.8125 5.19702 5.72917 5.86044 4.32292C5.86044 4.32292 6.87367 4.04167 9.17757 5.38542C10.1305 5.15625 11.1678 5.04167 12.1931 5.04167C13.2184 5.04167 14.2558 5.15625 15.2087 5.38542C17.5126 4.04167 18.5258 4.32292 18.5258 4.32292C19.1893 5.72917 18.7671 6.8125 18.6465 7.07292C19.4305 7.8125 19.8889 8.73958 19.8889 9.89583C19.8889 13.875 17.0663 14.75 14.3764 15.0104C14.8107 15.3333 15.2087 15.9688 15.2087 16.9375V19.7917C15.2087 20.0729 15.4017 20.4062 16.0169 20.3125C20.8056 18.9167 24.2554 15.0208 24.2554 10.4167C24.2554 9.04873 23.9434 7.69419 23.3372 6.43038C22.731 5.16657 21.8425 4.01825 20.7225 3.05097C19.6024 2.08369 18.2726 1.31641 16.8092 0.792922C15.3457 0.269435 13.7772 0 12.1931 0Z" fill="white"/>
</svg>
