<svg width="20" height="18" viewBox="0 0 20 18" fill="none" xmlns="http://www.w3.org/2000/svg">
    <path d="M17.7059 0C18.2651 0 18.8015 0.210714 19.197 0.585786C19.5924 0.960859 19.8146 1.46957 19.8146 2V16C19.8146 16.5304 19.5924 17.0391 19.197 17.4142C18.8015 17.7893 18.2651 18 17.7059 18H2.94468C2.38541 18 1.84904 17.7893 1.45357 17.4142C1.05811 17.0391 0.835938 16.5304 0.835938 16V2C0.835938 1.46957 1.05811 0.960859 1.45357 0.585786C1.84904 0.210714 2.38541 0 2.94468 0H17.7059ZM17.1787 15.5V10.2C17.1787 9.33539 16.8165 8.5062 16.1719 7.89483C15.5273 7.28346 14.653 6.94 13.7414 6.94C12.8452 6.94 11.8014 7.46 11.2953 8.24V7.13H8.3536V15.5H11.2953V10.57C11.2953 9.8 11.949 9.17 12.7609 9.17C13.1524 9.17 13.5278 9.3175 13.8046 9.58005C14.0815 9.8426 14.237 10.1987 14.237 10.57V15.5H17.1787ZM4.92689 5.56C5.39668 5.56 5.84723 5.383 6.17942 5.06794C6.51161 4.75288 6.69824 4.32556 6.69824 3.88C6.69824 2.95 5.90746 2.19 4.92689 2.19C4.45431 2.19 4.00108 2.36805 3.66691 2.68499C3.33274 3.00193 3.14501 3.43178 3.14501 3.88C3.14501 4.81 3.94633 5.56 4.92689 5.56ZM6.39247 15.5V7.13H3.47186V15.5H6.39247Z" fill="white"/>
</svg>
