<svg width="25" height="" viewBox="0 0 310 310" xmlns="http://www.w3.org/2000/svg">
  <g id="XMLID_822_">
    <path id="XMLID_823_" style="fill:#FFFFFF;" d="M297.917,64.911c-3.352-12.631-13.274-22.558-25.92-25.917
    C248.449,32,155.063,32,155.063,32S61.675,32,38.003,38.993c-12.646,3.36-22.568,13.286-25.92,25.917C5.02,88.588,5,124.668,5,124.668
    s-0.02,36.084,7.063,59.757c3.352,12.631,13.274,22.558,25.92,25.917C61.675,217.332,155.063,217.332,155.063,217.332
    s93.388,0,117.061-6.992c12.646-3.36,22.568-13.286,25.92-25.917c7.084-23.673,7.063-59.757,7.063-59.757
    S305.001,88.588,297.917,64.911z M125.545,159.978v-61.95l60.498,30.978L125.545,159.978z"/>
  </g>
</svg>
