<svg width="256" height="256" viewBox="0 0 256 256" fill="none" xmlns="http://www.w3.org/2000/svg">
<path d="M250.993 133.797C253.758 66.3056 200.934 8.99803 133.007 5.79671C65.0802 2.5954 7.77262 54.7126 5.00721 122.204C2.2418 189.695 55.0658 247.002 122.993 250.204C190.92 253.405 248.227 201.288 250.993 133.797Z" fill="#91B3FA"/>
<path d="M35.1242 46.9377C32.4218 51.5906 30.3382 56.8284 30.7294 62.294C31.1825 68.6226 34.1691 74.549 34.3222 80.8941C34.5819 91.6549 26.8363 100.662 24.4202 111.11C21.7196 122.788 31.902 136.094 35.9588 142.612C40.0156 149.13 38.2721 137.323 40.7322 132.72C43.1924 128.116 48.4968 152.092 56.7826 157.354C61.2282 160.177 66.4438 162.057 69.6411 166.409C74.3045 172.757 73.0123 181.79 72.3122 189.837C71.6121 197.883 72.6608 207.69 79.4179 211.267C83.3966 213.373 88.4538 212.66 92.0441 215.456C98.3494 220.366 95.3374 231.07 97.8359 238.986C100.553 247.594 105.941 247.707 114.276 249.532C122.612 251.357 113.226 231.717 117.131 224.853C119.183 221.245 122.316 218.374 123.935 214.521C126.18 209.177 125.548 202.037 129.903 198.496C133.168 195.842 137.71 196.56 141.806 196.521C145.903 196.483 150.885 194.576 151.35 190.211C151.762 186.338 148.147 183.249 144.61 182.352C141.073 181.454 137.303 181.882 133.829 180.735C123.893 177.454 119.258 162.541 108.882 161.844C100.012 161.247 92.5832 171.925 83.8679 170.06C79.0092 169.02 75.6836 164.405 72.0771 160.762C67.444 156.082 61.6941 152.569 58.0158 146.999C54.3375 141.429 53.7117 132.525 58.9445 128.639C62.8316 125.753 68.3547 126.925 72.1948 129.883C76.0348 132.84 78.6504 137.229 81.4706 141.298C82.3416 142.555 83.3273 143.858 84.7209 144.326C88.4707 145.584 91.207 139.926 90.3097 135.824C89.4125 131.721 86.71 128.112 86.5832 123.9C86.3594 116.477 93.813 111.767 100.352 109.321C106.891 106.875 114.597 103.959 116.52 96.8239C117.199 94.3036 117.021 91.5303 118.057 89.154C121.492 81.2786 139.615 77.3471 135.283 72.7805C130.951 68.2139 117.201 67.2213 114.524 58.0244C113.565 54.7319 112.578 50.3798 109.376 50.0613C104.159 49.5426 101.183 56.4674 96.8076 57.656C94.7304 58.2202 94.5307 62.0039 94.6116 66.6567C94.6704 70.0338 92.1657 72.823 89.0167 72.8868C85.8678 72.9506 83.2662 70.2651 83.2062 66.888C83.1839 65.6344 83.3886 64.3673 83.8693 63.1037C84.7117 60.8893 86.3114 59.1184 87.9243 57.4668C94.6539 50.5754 114.735 43.0038 110.53 40.0703C106.325 37.1369 86.1429 29.0415 83.1326 33.5091C80.1223 37.9766 85.1011 34.1938 86.3155 39.4922C87.5298 44.7906 71.3861 44.0802 63.9215 46.3743C62.689 46.753 61.322 47.1218 60.1681 46.5227C58.8783 45.8529 58.3352 44.2428 57.6353 42.9016C53.8863 35.7185 41.4172 40.381 41.4172 40.381C41.4172 40.381 37.5388 42.7805 35.1242 46.9377Z" fill="#283E70"/>
<path d="M91.5213 14.3395C89.709 17.9631 95.0989 17.9043 95.635 21.9759C100.487 22.543 102.48 14.3386 107.278 13.381C109.986 12.8407 112.612 14.9216 114.084 17.4188C115.555 19.916 116.242 22.8481 117.489 25.482C120.283 31.3837 126.054 35.5371 132.205 36.0747C133.544 36.1916 135.018 36.0999 136.026 35.1478C138.95 32.384 134.766 27.1919 135.853 23.1773C137.095 18.5898 143.263 19.2857 147.432 17.6033C148.582 17.1393 157.425 14.6085 157.568 13.2998C157.82 10.9796 153.717 9.50261 149.127 8.23687C141.351 6.09239 127.669 6.1815 120.981 6.83046C112.084 7.69377 97.2598 6.99621 91.5213 14.3395Z" fill="#283E70"/>
<path d="M239.903 170.182C241.919 156.646 241.751 142.739 239.409 129.264C238.784 125.67 237.321 121.384 233.946 120.867C230.042 120.268 225.263 125.078 222.819 121.758C221.74 120.293 222.171 118.16 222.782 116.412C224.393 111.801 226.916 107.56 230.136 104.049C232.136 101.868 234.424 99.9352 235.964 97.3604C239.258 91.8538 236.946 83.807 232.284 79.5875C227.622 75.368 221.608 82.9348 216.708 79.9311C211.807 76.9275 211.655 69.6406 210.734 63.6685C210.052 59.2446 207.012 47.2594 203.655 53.0965C200.298 58.9334 208.133 82.1689 216.952 93.3068C218.016 94.6503 219.19 96.1549 219.1 97.9148C218.886 102.117 213.176 101.93 209.334 102.791C204.579 103.856 197.291 101.125 201.313 110.011C203.435 114.698 213.567 121.112 210.844 124.249C208.122 127.385 199.752 136.47 195.824 143.817C191.897 151.164 189.994 160.313 192.955 168.164C195.917 176.014 204.822 181.435 212.092 178.128C215.494 176.58 219.203 173.362 222.365 175.413C225.229 177.27 224.807 181.728 224.665 185.314C224.523 188.9 226.451 193.661 229.704 192.818C230.775 192.541 231.617 191.671 232.34 190.78C236.917 185.138 238.803 177.567 239.903 170.182Z" fill="#283E70"/>
<path opacity="0.13" d="M121.334 217.033C174.689 217.033 217.942 173.212 217.942 119.155C217.942 65.0987 174.689 21.2773 121.334 21.2773C67.9794 21.2773 24.7266 65.0987 24.7266 119.155C24.7266 173.212 67.9794 217.033 121.334 217.033Z" fill="white"/>
<g opacity="0.68">
<path d="M162.403 130.079C162.373 151.649 160.997 173.263 157.463 194.527C156.568 199.839 155.53 205.126 154.293 210.361C153.053 215.595 151.62 220.783 149.865 225.855C148.096 230.914 146.042 235.9 143.258 240.454C141.856 242.715 140.265 244.88 138.303 246.659C137.323 247.543 136.247 248.326 135.064 248.9C133.884 249.47 132.595 249.831 131.287 249.857C129.98 249.898 128.672 249.622 127.468 249.102C126.26 248.587 125.158 247.839 124.154 246.984C122.146 245.26 120.52 243.119 119.092 240.877C117.667 238.624 116.451 236.237 115.35 233.8C114.253 231.359 113.278 228.86 112.389 226.329C110.612 221.265 109.165 216.081 107.914 210.851C106.664 205.618 105.616 200.334 104.714 195.024C102.913 184.402 101.686 173.677 100.86 162.923C100.04 152.167 99.6307 141.377 99.5846 130.585C99.5621 125.19 99.6919 119.796 99.8687 114.405C100.054 109.013 100.327 103.626 100.694 98.2458C101.432 87.4863 102.536 76.7506 104.182 66.1031C105.007 60.7805 105.971 55.4805 107.13 50.2274C108.292 44.9761 109.643 39.7665 111.32 34.6701C112.163 32.1243 113.084 29.6058 114.136 27.1465C115.185 24.688 116.36 22.2831 117.74 20.0098C119.124 17.7466 120.715 15.5867 122.694 13.8585C123.684 13.0021 124.774 12.2569 125.968 11.752C127.157 11.2406 128.447 10.9811 129.731 11.0329C131.015 11.0719 132.281 11.417 133.449 11.9696C134.619 12.5251 135.695 13.2805 136.682 14.1369C138.658 15.8607 140.293 17.9689 141.744 20.1829C144.629 24.6422 146.803 29.5611 148.686 34.566C150.556 39.5847 152.099 44.7336 153.443 49.9358C154.782 55.1403 155.915 60.4029 156.895 65.6961C160.774 86.8887 162.348 108.505 162.403 130.079ZM161.095 130.079C161.111 119.326 160.727 108.571 159.892 97.855C159.066 87.1403 157.815 76.4568 155.955 65.8916C155.026 60.6097 153.944 55.3579 152.658 50.1642C151.367 44.9732 149.878 39.8351 148.065 34.8296C146.239 29.8384 144.122 24.9345 141.313 20.5031C139.901 18.3031 138.308 16.2132 136.396 14.5124C135.441 13.667 134.403 12.9241 133.28 12.377C132.157 11.8362 130.948 11.4827 129.719 11.448C128.49 11.4056 127.262 11.6696 126.125 12.1704C124.984 12.6663 123.937 13.3958 122.983 14.2379C121.074 15.9367 119.528 18.0722 118.185 20.318C116.844 22.5731 115.702 24.9648 114.684 27.4124C113.663 29.8606 112.771 32.3702 111.956 34.908C110.335 39.9888 109.037 45.1861 107.927 50.4257C106.82 55.6673 105.907 60.9563 105.132 66.2677C103.588 76.8929 102.582 87.6053 101.943 98.3375C101.299 109.071 101.068 119.83 101.085 130.584C101.063 141.336 101.403 152.091 102.152 162.814C102.908 173.535 104.063 184.229 105.79 194.818C106.655 200.112 107.665 205.378 108.875 210.591C110.087 215.801 111.492 220.963 113.222 225.996C114.088 228.511 115.038 230.993 116.106 233.412C117.178 235.828 118.363 238.188 119.745 240.405C121.129 242.612 122.704 244.706 124.615 246.368C125.57 247.192 126.609 247.907 127.735 248.395C128.856 248.886 130.061 249.158 131.268 249.115C132.474 249.082 133.663 248.741 134.765 248.199C135.87 247.654 136.887 246.904 137.821 246.05C139.691 244.331 141.232 242.21 142.591 239.985C145.293 235.499 147.297 230.549 149.017 225.521C150.724 220.479 152.115 215.313 153.314 210.099C154.51 204.883 155.508 199.614 156.365 194.319C158.079 183.728 159.22 173.033 159.978 162.312C160.744 151.59 161.098 140.833 161.095 130.079Z" fill="white"/>
<path d="M213.142 130.08C213.075 143.964 211.414 157.855 207.951 171.244C204.429 184.604 199.122 197.458 191.911 209C188.306 214.765 184.22 220.191 179.655 225.115C175.091 230.037 170.044 234.457 164.564 238.158C159.077 241.845 153.152 244.797 146.95 246.799C140.751 248.807 134.28 249.855 127.802 249.863C121.325 249.861 114.851 248.818 108.65 246.815C102.444 244.817 96.515 241.87 91.024 238.186C85.5383 234.488 80.4849 230.072 75.9146 225.152C71.3424 220.23 67.25 214.804 63.6371 209.04C56.4134 197.496 51.0964 184.637 47.5608 171.272C44.07 157.879 42.4135 143.974 42.3594 130.08C42.3917 123.131 42.8235 116.185 43.6802 109.298C44.5412 102.412 45.8378 95.5872 47.5828 88.8951C51.1262 75.5347 56.4504 62.6829 63.6782 51.1502C67.2924 45.3902 71.3854 39.9701 75.9572 35.0537C80.5275 30.1401 85.5778 25.7277 91.0626 22.0398C96.5521 18.3645 102.48 15.4363 108.676 13.4389C114.868 11.4336 121.332 10.387 127.802 10.3789C134.272 10.3922 140.735 11.4438 146.924 13.4536C153.117 15.4556 159.041 18.3889 164.525 22.0677C170.005 25.7594 175.049 30.1748 179.612 35.0905C184.177 40.0086 188.263 45.43 191.87 51.1899C199.085 62.7211 204.4 75.5681 207.928 88.9227C211.398 102.308 213.067 116.196 213.142 130.08ZM211.643 130.08C211.621 116.334 210.021 102.575 206.636 89.3075C203.229 76.0608 198.1 63.2756 191.045 51.7789C187.519 46.0366 183.515 40.6244 179.032 35.7054C174.547 30.7938 169.593 26.3521 164.177 22.659C158.755 18.9861 152.899 16.0313 146.761 14.0317C140.625 12.0302 134.219 10.9784 127.802 10.9562C121.385 10.9835 114.981 12.0405 108.848 14.0464C102.712 16.0506 96.861 19.0105 91.4438 22.6869C86.0331 26.3839 81.0854 30.8286 76.607 35.7422C72.1302 40.6633 68.1337 46.0762 64.6152 51.8187C57.5732 63.3139 52.4533 76.0942 49.0615 89.3351C47.3729 95.9632 46.1483 102.722 45.3196 109.532C44.4893 116.342 44.0789 123.21 44.0636 130.08C44.0825 136.95 44.4964 143.818 45.33 150.627C46.1624 157.436 47.3912 164.193 49.0835 170.819C52.4831 184.055 57.6101 196.828 64.6564 208.312C68.1762 214.05 72.1734 219.458 76.6497 224.373C81.1281 229.28 86.0725 233.722 91.4823 237.408C96.8981 241.076 102.748 244.017 108.874 246.02C114.997 248.029 121.392 249.09 127.802 249.123C134.212 249.095 140.609 248.04 146.735 246.036C152.864 244.037 158.718 241.101 164.139 237.436C169.553 233.753 174.504 229.315 178.989 224.41C183.472 219.497 187.476 214.09 191.003 208.352C198.062 196.866 203.199 184.088 206.613 170.846C210.005 157.583 211.613 143.826 211.643 130.08Z" fill="white"/>
<path d="M28.0919 82.6762L53.752 82.4818L79.4119 82.3706L130.732 82.2812L182.052 82.3794L207.712 82.5004L233.371 82.7109C233.408 82.7113 233.437 82.7433 233.437 82.7824C233.437 82.8213 233.408 82.8526 233.371 82.8529L207.712 83.0634L182.052 83.1844L130.732 83.2826L79.4119 83.1933L53.752 83.082L28.0919 82.8876C28.0376 82.8871 27.9937 82.8396 27.9941 82.7811C27.9944 82.7234 28.0382 82.6768 28.0919 82.6762Z" fill="white"/>
<path d="M57.867 36.5815L76.0849 36.3863L94.3028 36.2756C100.375 36.2287 106.448 36.2337 112.52 36.219L130.738 36.1865L167.174 36.2847L185.392 36.4056C191.464 36.4772 197.537 36.5192 203.609 36.6163C203.646 36.6169 203.675 36.6491 203.675 36.6882C203.674 36.7268 203.645 36.7575 203.609 36.7582C197.537 36.8552 191.464 36.8971 185.392 36.9689L167.174 37.0896L130.738 37.188L112.52 37.1553C106.448 37.1408 100.375 37.1458 94.3028 37.0987L76.0849 36.9882L57.867 36.793C57.8127 36.7922 57.769 36.7445 57.7695 36.6861C57.77 36.6286 57.8135 36.5821 57.867 36.5815Z" fill="white"/>
<path d="M19.1779 128.768L47.0671 128.574L74.9563 128.462L130.735 128.373L186.513 128.471L214.402 128.592L242.292 128.803C242.328 128.803 242.357 128.835 242.357 128.874C242.357 128.913 242.328 128.945 242.292 128.945L214.402 129.155L186.513 129.276L130.735 129.375L74.9563 129.285L47.0671 129.174L19.1779 128.98C19.1236 128.979 19.0797 128.932 19.0801 128.873C19.0804 128.815 19.124 128.769 19.1779 128.768Z" fill="white"/>
<path d="M28.0919 174.862L53.752 174.667L79.4119 174.556L130.732 174.467L182.052 174.565L207.712 174.686L233.371 174.897C233.408 174.897 233.437 174.929 233.437 174.968C233.437 175.007 233.408 175.038 233.371 175.038L207.712 175.249L182.052 175.37L130.732 175.468L79.4119 175.379L53.752 175.268L28.0919 175.073C28.0376 175.073 27.9937 175.025 27.9941 174.967C27.9944 174.909 28.0382 174.862 28.0919 174.862Z" fill="white"/>
<path d="M207.281 221.431H61.5388C61.3479 221.431 61.1934 221.266 61.1934 221.061C61.1934 220.856 61.3478 220.69 61.5388 220.69H207.281C207.472 220.69 207.627 220.856 207.627 221.061C207.626 221.266 207.472 221.431 207.281 221.431Z" fill="white"/>
</g>
</svg>
