<svg width="320" height="265" viewBox="0 0 320 265" fill="none" xmlns="http://www.w3.org/2000/svg">
<path d="M159.546 264.576C247.401 264.576 318.622 259.576 318.622 253.408C318.622 247.24 247.401 242.24 159.546 242.24C71.6898 242.24 0.46875 247.24 0.46875 253.408C0.46875 259.576 71.6898 264.576 159.546 264.576Z" fill="#F5F5F5"/>
<path d="M305.144 221.492C305.144 221.492 309 205.964 301.206 202.876C293.411 199.788 288.784 192.527 289.047 184.319C289.309 176.111 281.105 168.12 274.951 175.815C268.798 183.51 269.618 169.896 261.414 166.591C253.21 163.286 246.252 171.307 248.5 178.637C250.748 185.967 242.65 190.554 232.961 184.319C223.271 178.084 212.597 189.429 214.648 198.308C216.7 207.187 215.018 208.174 208.905 205.214C202.793 202.255 191.799 210.64 195.639 221.492C199.478 232.344 305.144 221.492 305.144 221.492Z" fill="#467CA6"/>
<path opacity="0.1" d="M305.144 221.492C305.144 221.492 309 205.964 301.206 202.876C293.411 199.788 288.784 192.527 289.047 184.319C289.309 176.111 281.105 168.12 274.951 175.815C268.798 183.51 269.618 169.896 261.414 166.591C253.21 163.286 246.252 171.307 248.5 178.637C250.748 185.967 242.65 190.554 232.961 184.319C223.271 178.084 212.597 189.429 214.648 198.308C216.7 207.187 215.018 208.174 208.905 205.214C202.793 202.255 191.799 210.64 195.639 221.492C199.478 232.344 305.144 221.492 305.144 221.492Z" fill="white"/>
<path d="M98.9638 222.972C103.066 218.039 99.374 209.654 95.2717 208.667C91.1695 207.681 87.0672 198.999 86.8539 193.475C86.6406 187.95 79.273 170.952 67.7867 181.449C56.3004 191.945 59.7873 182.988 51.4844 180.048C43.1815 177.108 37.9306 185.582 41.5816 191.945C41.5816 191.945 33.2294 189.43 29.7917 198.802C26.3541 208.174 29.7917 213.995 29.7917 213.995C29.7917 213.995 14.0966 213.432 15.5077 225.103C16.9189 236.774 98.9638 222.972 98.9638 222.972Z" fill="#467CA6"/>
<path opacity="0.1" d="M98.9638 222.972C103.066 218.039 99.374 209.654 95.2717 208.667C91.1695 207.681 87.0672 198.999 86.8539 193.475C86.6406 187.95 79.273 170.952 67.7867 181.449C56.3004 191.945 59.7873 182.988 51.4844 180.048C43.1815 177.108 37.9306 185.582 41.5816 191.945C41.5816 191.945 33.2294 189.43 29.7917 198.802C26.3541 208.174 29.7917 213.995 29.7917 213.995C29.7917 213.995 14.0966 213.432 15.5077 225.103C16.9189 236.774 98.9638 222.972 98.9638 222.972Z" fill="white"/>
<path d="M51.788 225.311C47.6858 220.378 51.3778 211.993 55.4801 211.006C59.5823 210.019 63.6845 201.338 63.9061 195.813C64.1276 190.289 71.4788 173.3 82.9651 183.787C94.4514 194.274 90.9644 185.336 99.2756 182.386C107.587 179.437 112.821 187.921 109.178 194.284C109.178 194.284 117.522 191.768 120.96 201.141C124.398 210.513 120.96 216.333 120.96 216.333C120.96 216.333 136.663 215.781 135.252 227.452C133.841 239.122 51.788 225.311 51.788 225.311Z" fill="#467CA6"/>
<path opacity="0.1" d="M51.788 225.311C47.6858 220.378 51.3778 211.993 55.4801 211.006C59.5823 210.019 63.6845 201.338 63.9061 195.813C64.1276 190.289 71.4788 173.3 82.9651 183.787C94.4514 194.274 90.9644 185.336 99.2756 182.386C107.587 179.437 112.821 187.921 109.178 194.284C109.178 194.284 117.522 191.768 120.96 201.141C124.398 210.513 120.96 216.333 120.96 216.333C120.96 216.333 136.663 215.781 135.252 227.452C133.841 239.122 51.788 225.311 51.788 225.311Z" fill="white"/>
<path d="M319.253 223.268V236.783H2.55959V223.268C2.53526 222.728 2.60168 222.187 2.75486 221.679C2.90805 221.17 3.14487 220.704 3.45118 220.308C3.75748 219.912 4.127 219.595 4.53767 219.374C4.94834 219.154 5.39173 219.035 5.84138 219.025H315.938C316.391 219.03 316.837 219.145 317.252 219.363C317.666 219.581 318.04 219.898 318.35 220.294C318.66 220.691 318.899 221.159 319.054 221.67C319.21 222.181 319.277 222.724 319.253 223.268Z" fill="#557893"/>
<path d="M40.3001 219.025H20.6094V236.783H40.3001V219.025Z" fill="#7392B7"/>
<path d="M77.2199 219.025H58.3496V236.783H77.2199V219.025Z" fill="#7392B7"/>
<path d="M114.962 219.025H95.2715V236.783H114.962V219.025Z" fill="#7392B7"/>
<path d="M151.882 219.025H133.012V236.783H151.882V219.025Z" fill="#7392B7"/>
<path d="M188.802 219.025H169.932V236.783H188.802V219.025Z" fill="#7392B7"/>
<path d="M226.542 219.025H206.852V236.783H226.542V219.025Z" fill="#7392B7"/>
<path d="M263.462 219.025H244.592V236.783H263.462V219.025Z" fill="#7392B7"/>
<path d="M301.204 219.025H281.514V236.783H301.204V219.025Z" fill="#7392B7"/>
<g opacity="0.6">
<path d="M40.3001 219.025H20.6094V236.783H40.3001V219.025Z" fill="white"/>
<path d="M77.2199 219.025H58.3496V236.783H77.2199V219.025Z" fill="white"/>
<path d="M114.962 219.025H95.2715V236.783H114.962V219.025Z" fill="white"/>
<path d="M151.88 219.025H133.01V236.783H151.88V219.025Z" fill="white"/>
<path d="M188.802 219.025H169.932V236.783H188.802V219.025Z" fill="white"/>
<path d="M226.542 219.025H206.852V236.783H226.542V219.025Z" fill="white"/>
<path d="M263.462 219.025H244.592V236.783H263.462V219.025Z" fill="white"/>
<path d="M301.202 219.025H281.512V236.783H301.202V219.025Z" fill="white"/>
</g>
<path opacity="0.1" d="M319.253 223.268V236.783H2.55959V223.268C2.53526 222.728 2.60168 222.187 2.75486 221.679C2.90805 221.17 3.14487 220.704 3.45118 220.308C3.75748 219.912 4.127 219.595 4.53767 219.374C4.94834 219.154 5.39173 219.035 5.84138 219.025H315.938C316.391 219.03 316.837 219.145 317.252 219.363C317.667 219.581 318.04 219.898 318.35 220.294C318.66 220.691 318.899 221.159 319.054 221.67C319.21 222.181 319.277 222.724 319.253 223.268Z" fill="black"/>
<path d="M50.3282 49.9424C50.3282 49.9424 42.8622 53.198 44.1667 57.7459C45.4712 62.2939 54.3895 56.1477 54.3895 56.1477L50.3282 49.9424Z" fill="#9F5B53"/>
<path opacity="0.2" d="M50.3282 49.9424C50.3282 49.9424 42.8622 53.198 44.1667 57.7459C45.4712 62.2939 54.3895 56.1477 54.3895 56.1477L50.3282 49.9424Z" fill="black"/>
<path d="M63.2329 39.9189C59.0896 40.9745 48.5469 49.6068 48.5469 49.6068L52.1158 59.8964L61.6658 56.1081L63.2329 39.9189Z" fill="#467CA6"/>
<path d="M79.4046 239.121L74.2358 242.693L68.0332 229.177L73.202 225.596L79.4046 239.121Z" fill="#9F5B53"/>
<path d="M73.6021 241.895L79.3452 237.505C79.4369 237.425 79.5492 237.387 79.662 237.398C79.7747 237.409 79.8806 237.468 79.9606 237.564L83.4311 241.895C83.5795 242.106 83.6525 242.379 83.634 242.654C83.6156 242.93 83.5072 243.185 83.3326 243.365L83.1849 243.483C81.183 244.953 80.0918 245.624 77.5977 247.538C76.0634 248.702 69.5491 252.915 67.1452 253.122C64.7413 253.329 64.4705 250.587 65.4468 250.162C70.3695 247.952 72.314 245.121 72.9457 242.891C73.0671 242.481 73.2979 242.131 73.6021 241.895Z" fill="#263238"/>
<path opacity="0.2" d="M73.202 225.596L68.0332 229.177L71.2329 236.142L76.4018 232.571L73.202 225.596Z" fill="black"/>
<path d="M58.7695 80.5244C58.7695 80.5244 41.8518 147.974 42.7789 168.021C43.7963 190.001 68.3687 236.24 68.3687 236.24L77.6316 229.206C77.6316 229.206 60.2709 183.598 59.6228 166.729C60.5827 142.321 81.6846 83.0401 81.6846 83.0401L58.7695 80.5244Z" fill="#263238"/>
<path opacity="0.2" d="M72.2016 104.202C67.082 107.971 65.0555 124.022 66.1384 132.171C68.9034 121.852 72.0621 111.68 74.5891 103.877C74.2023 103.674 73.7781 103.598 73.3591 103.655C72.94 103.712 72.5408 103.901 72.2016 104.202Z" fill="black"/>
<path d="M67.3434 237.267L78.2635 228.941L76.475 225.241L65.0215 233.637L67.3434 237.267Z" fill="#263238"/>
<path d="M90.6682 247.251H84.9251L84.4492 231.239H90.2006L90.6682 247.251Z" fill="#9F5B53"/>
<path d="M84.1308 246.452H91.1128C91.2262 246.453 91.3358 246.501 91.4237 246.587C91.5117 246.673 91.5727 246.792 91.5969 246.925L92.7373 253.081C92.7636 253.212 92.7673 253.349 92.7482 253.481C92.729 253.614 92.6874 253.741 92.6259 253.854C92.5644 253.967 92.4843 254.063 92.3905 254.137C92.2968 254.211 92.1914 254.262 92.0809 254.285C92.0183 254.294 91.9549 254.294 91.8922 254.285C89.636 254.235 87.9869 254.068 85.1481 254.068C83.4006 254.068 78.1333 254.295 75.7212 254.295C73.3091 254.295 72.9891 251.424 73.9818 251.157C78.4123 250.003 81.7433 248.395 83.1626 246.856C83.431 246.578 83.7771 246.434 84.1308 246.452Z" fill="#263238"/>
<path opacity="0.2" d="M90.2006 231.25H84.4492L84.6954 239.507H90.4467L90.2006 231.25Z" fill="black"/>
<path d="M66.6133 81.8477C66.6133 81.8477 71.298 147.946 73.7184 167.973C76.3766 189.953 82.0541 237.909 82.0541 237.909H92.5723C92.5723 237.909 90.4227 192.005 89.43 170.41C88.2895 145.746 87.7398 83.9293 87.7398 83.9293L66.6133 81.8477Z" fill="#263238"/>
<path d="M80.7919 238.174H93.1971V233.716L80.3242 233.43L80.7919 238.174Z" fill="#263238"/>
<path d="M62.2246 92.3726L76.9517 92.5896V88.2695H62.2246V92.3726Z" fill="black"/>
<path d="M78.0664 88.2695V92.5995L88.1333 92.7474V88.2695H78.0664Z" fill="black"/>
<path d="M61.1086 88.2695H56.8259L56.4238 92.2838L61.1086 92.3529V88.2695Z" fill="black"/>
<path d="M71.0912 87.4805H65.2988V92.502H71.0912V87.4805Z" fill="white"/>
<path d="M57.0801 87.6579L88.4048 90.1538C90.1195 71.8929 95.1161 53.1091 96.6093 46.4697C96.7155 46.0106 96.6665 45.5195 96.4728 45.1037C96.2791 44.6879 95.9566 44.381 95.5755 44.25C94.0249 43.7074 92.4168 43.2634 90.8005 42.7899C83.475 40.9417 76.0463 39.7448 68.5746 39.2087C66.7758 39.0097 64.9622 39.2479 63.2416 39.9092C58.5323 55.9307 57.4247 75.5135 57.0801 87.6579Z" fill="#467CA6"/>
<path opacity="0.6" d="M93.6803 58.9497C93.3849 60.3112 93.0649 61.7416 92.7532 63.2215C90.7967 72.0698 89.3439 81.0682 88.4048 90.1541L57.0801 87.6581C57.3107 76.2985 58.3178 64.9809 60.0911 53.8197C63.2252 45.1776 71.0851 41.4287 71.0851 41.4287C71.0851 41.4287 71.9548 43.6583 75.8519 44.3094C79.7491 44.9605 84.9507 43.5005 84.9507 43.5005C91.0138 49.2619 92.5645 59.8475 92.5645 59.8475L93.6803 58.9497Z" fill="white"/>
<path opacity="0.2" d="M95.354 51.7683C94.6074 54.9055 93.7131 58.8122 92.7531 63.2221C89.3237 57.4212 92.3839 48.9961 92.3839 48.9961C93.572 49.5639 94.6019 50.5251 95.354 51.7683Z" fill="black"/>
<path d="M85.1637 41.6347C82.4726 44.5943 75.8844 43.4795 75.8844 43.4795C75.8844 43.4795 71.7822 42.1279 72.6026 40.5791C75.064 40.1055 76.2044 38.7441 76.7049 36.9979C76.9675 35.9199 77.0511 34.7902 76.951 33.6733C76.951 33.397 76.91 33.1208 76.8772 32.8544C76.8444 32.5881 76.7951 32.1639 76.7459 31.8186L84.8929 24.5576C84.5976 25.8796 84.2858 27.5172 84.0725 29.2634C83.4982 33.3773 83.3177 38.1423 84.696 40.8257C84.8288 41.1137 84.9855 41.3847 85.1637 41.6347Z" fill="#9F5B53"/>
<path opacity="0.2" d="M83.8035 37.7396C80.8335 37.345 78.6183 35.0364 76.7559 31.8203L83.6394 32.5109C83.5747 34.2562 83.6296 36.005 83.8035 37.7396Z" fill="black"/>
<path d="M44.118 56.0193C43.437 61.0803 45.9476 62.5601 55.8586 76.6183C55.8586 76.6183 55.2269 78.9071 55.5304 79.4596C55.834 80.0121 61.6018 87.0264 61.6018 87.0264L66.5245 79.2919C66.5245 79.2919 62.9145 73.9744 61.7577 73.0076C61.2736 72.6031 58.9845 72.7116 58.9845 72.7116C58.9845 72.7116 50.6078 55.6148 48.9422 54.0364C47.2767 52.4579 44.5693 52.6651 44.118 56.0193Z" fill="#9F5B53"/>
<path d="M100.475 64.099C100.475 64.099 105.816 72.6918 110.779 71.2416C115.743 69.7914 120.855 64.3358 120.855 64.3358C120.855 64.3358 123.185 66.0918 124.276 66.0622C125.367 66.0326 131.118 64.8488 131.118 64.8488L128.427 57.4793C128.427 57.4793 123.431 57.8739 122.11 57.8345C120.789 57.795 119.173 60.3008 119.173 60.3008C119.173 60.3008 111.272 62.708 110.148 62.6488C109.024 62.5896 105.135 57.4004 105.135 57.4004L100.475 64.099Z" fill="#9F5B53"/>
<path d="M95.5521 44.2412C100.138 46.8358 109.27 59.799 109.27 59.799L102.46 69.2402L92.5739 59.8089C92.5739 59.8089 91.5975 52.2914 92.3852 48.9569C92.8942 46.9519 94.0292 45.2618 95.5521 44.2412Z" fill="#467CA6"/>
<path opacity="0.2" d="M67.3434 237.267L78.2635 228.941L76.475 225.241L65.0215 233.637L67.3434 237.267Z" fill="black"/>
<path opacity="0.2" d="M80.7919 238.174H93.1971V233.716L80.3242 233.43L80.7919 238.174Z" fill="black"/>
<path d="M70.3481 20.1392C70.2891 20.4327 70.3037 20.7406 70.39 21.0242C70.4764 21.3078 70.6307 21.5542 70.8335 21.7325C71.0362 21.9108 71.2783 22.0129 71.5293 22.0259C71.7802 22.0389 72.0288 21.9623 72.2436 21.8058C72.4584 21.6492 72.6298 21.4196 72.7362 21.1461C72.8426 20.8726 72.8792 20.5673 72.8414 20.2687C72.8037 19.9702 72.6932 19.6918 72.524 19.4686C72.3548 19.2454 72.1344 19.0875 71.8906 19.0148C71.7279 18.9662 71.5588 18.9568 71.393 18.9871C71.2273 19.0174 71.0682 19.0868 70.9248 19.1913C70.7815 19.2958 70.6567 19.4333 70.5577 19.596C70.4588 19.7587 70.3875 19.9433 70.3481 20.1392Z" fill="#263238"/>
<path d="M89.9211 9.49316C89.9211 9.49316 91.923 18.7272 88.0915 22.8608C84.26 26.9944 82.7422 9.49316 82.7422 9.49316H89.9211Z" fill="#263238"/>
<path d="M89.5517 28.1601C89.4701 28.4959 89.3714 28.8254 89.2564 29.1467C88.4566 31.3552 86.9909 33.1177 85.1541 34.0794C83.4964 34.9735 81.6204 35.0897 79.8951 34.405C78.6641 33.8999 77.5717 32.9992 76.7363 31.8005C74.0699 28.1306 74.357 24.135 74.3899 17.3575C74.3752 15.7718 74.6985 14.208 75.3291 12.8153C75.9597 11.4225 76.8765 10.2472 77.992 9.40137C79.1076 8.55558 80.3848 8.0675 81.7017 7.98368C83.0187 7.89986 84.3315 8.22309 85.5151 8.92255C90.8645 12.0499 91.0942 22.1718 89.5517 28.1601Z" fill="#9F5B53"/>
<path d="M82.8154 19.9223C82.7497 20.4653 82.9959 20.9095 83.3076 20.9588C83.6194 21.0082 83.8655 20.5541 83.8984 19.9717C83.9312 19.3893 83.7097 18.9845 83.4143 18.9352C83.1189 18.8858 82.8482 19.3597 82.8154 19.9223Z" fill="#263238"/>
<path d="M87.9964 20.346C87.939 20.889 88.1934 21.3332 88.4887 21.3826C88.7841 21.4319 89.0548 20.9778 89.0876 20.3954C89.1205 19.813 88.8989 19.4082 88.5954 19.3589C88.2918 19.3095 88.0293 19.8031 87.9964 20.346Z" fill="#263238"/>
<path d="M86.3364 20.4639C86.787 22.2088 87.4387 23.8692 88.2726 25.3966C87.942 25.6405 87.5714 25.7958 87.1863 25.852C86.8012 25.9082 86.4106 25.8639 86.041 25.7221L86.3364 20.4639Z" fill="#892B29"/>
<path d="M90.064 17.8117C90.0222 17.8433 89.9739 17.8601 89.9245 17.8601C89.8752 17.8601 89.8269 17.8433 89.7851 17.8117C89.5156 17.5635 89.2012 17.3957 88.8675 17.3218C88.5338 17.248 88.1904 17.2703 87.8652 17.387C87.7988 17.416 87.7256 17.4126 87.6612 17.3776C87.5968 17.3425 87.5464 17.2785 87.5206 17.1993C87.5075 17.1598 87.5012 17.1175 87.502 17.075C87.5028 17.0325 87.5107 16.9906 87.5253 16.9519C87.5398 16.9132 87.5607 16.8784 87.5867 16.8496C87.6127 16.8208 87.6432 16.7986 87.6765 16.7843C88.0833 16.6272 88.5155 16.59 88.9367 16.676C89.3579 16.762 89.7558 16.9685 90.0968 17.2783C90.1263 17.3012 90.1517 17.3311 90.1714 17.366C90.1911 17.401 90.2049 17.4403 90.2117 17.4818C90.2186 17.5232 90.2185 17.5659 90.2115 17.6073C90.2044 17.6487 90.1906 17.688 90.1707 17.7228C90.1426 17.7638 90.1057 17.7946 90.064 17.8117Z" fill="#263238"/>
<path d="M81.9216 17.3878C81.8675 17.3842 81.8158 17.36 81.7739 17.3186C81.7308 17.2503 81.7118 17.1643 81.721 17.0792C81.7302 16.9942 81.7669 16.9169 81.8231 16.8642C82.1606 16.5461 82.5568 16.3306 82.9781 16.236C83.3994 16.1414 83.8335 16.1705 84.2435 16.3208C84.2767 16.3351 84.3073 16.3573 84.3332 16.3861C84.3592 16.4149 84.3801 16.4497 84.3947 16.4884C84.4092 16.5271 84.4171 16.569 84.4179 16.6115C84.4187 16.654 84.4124 16.6963 84.3994 16.7358C84.3736 16.815 84.3232 16.879 84.2588 16.9141C84.1944 16.9491 84.1212 16.9525 84.0548 16.9235C83.7275 16.8177 83.3842 16.8054 83.0523 16.8878C82.7204 16.9701 82.409 17.1447 82.1431 17.3976C82.1076 17.4143 82.0696 17.422 82.0315 17.4203C81.9934 17.4187 81.956 17.4076 81.9216 17.3878Z" fill="#263238"/>
<path d="M78.9604 9.2373L79.223 12.1969C78.7984 12.4271 78.4618 12.8416 78.2808 13.3576C78.0997 13.8735 78.0875 14.4527 78.2466 14.979C79.0178 17.5144 77.7708 21.3915 76.1463 22.8713C76.1463 22.8713 76.1463 21.7861 75.3258 22.0229C74.5054 22.2597 74.6859 27.9422 76.1463 30.6848C76.1463 30.6848 73.9311 28.1888 72.7414 22.2103C71.642 16.6758 71.56 12.0785 72.5281 9.96734L78.9604 9.2373Z" fill="#263238"/>
<path d="M71.6094 22.7237C72.1528 24.3025 73.1941 25.5582 74.5056 26.2161C76.2531 27.0744 77.3361 25.2295 77.0407 23.1479C76.7618 21.2735 75.5311 18.5013 73.6933 18.5605C73.2915 18.5754 72.8991 18.7112 72.5522 18.9555C72.2053 19.1998 71.9149 19.5449 71.7076 19.9591C71.5003 20.3733 71.3826 20.8433 71.3655 21.3263C71.3483 21.8093 71.4322 22.2898 71.6094 22.7237Z" fill="#9F5B53"/>
<path d="M86.0073 27.509C85.5758 28.3398 85.1947 29.2069 84.8668 30.1036L84.4484 29.9655C82.5696 29.3538 81.864 28.318 81.6589 27.361C81.5642 26.891 81.5642 26.4006 81.6589 25.9305C81.7101 25.6658 81.7901 25.4104 81.8968 25.1709C82.919 26.1563 84.1054 26.8662 85.3755 27.2525C85.7611 27.4399 86.0073 27.509 86.0073 27.509Z" fill="#263238"/>
<path d="M85.3768 27.2514L85.0158 28.001C83.2518 27.4191 82.0704 26.7188 81.6602 25.8903C81.7113 25.6257 81.7913 25.3703 81.8981 25.1309C82.9174 26.1301 84.1039 26.8534 85.3768 27.2514Z" fill="white"/>
<path d="M84.4497 29.9642C82.5708 29.3527 81.8653 28.3171 81.6602 27.3604C82.369 27.6137 83.0354 28.0142 83.6292 28.5439C84.0196 28.9024 84.3066 29.3992 84.4497 29.9642Z" fill="#DE5753"/>
<path d="M70.5832 11.7923C70.4976 12.2151 70.5181 12.659 70.6424 13.0678C70.7667 13.4765 70.989 13.8318 71.2813 14.0886C71.5736 14.3454 71.9227 14.4922 72.2844 14.5103C72.6461 14.5285 73.0041 14.4173 73.3133 14.1908C73.6224 13.9642 73.8686 13.6325 74.0208 13.2377C74.1731 12.8428 74.2244 12.4025 74.1684 11.9726C74.1124 11.5426 73.9516 11.1423 73.7063 10.8222C73.4609 10.5022 73.1421 10.2769 72.7902 10.1747C72.3192 10.038 71.8222 10.1315 71.4085 10.4348C70.9947 10.738 70.6979 11.2263 70.5832 11.7923Z" fill="#263238"/>
<path d="M70.7915 15.1361C70.7324 15.4296 70.747 15.7376 70.8334 16.0212C70.9198 16.3047 71.0741 16.5512 71.2768 16.7294C71.4796 16.9077 71.7217 17.0098 71.9726 17.0229C72.2236 17.0359 72.4721 16.9593 72.6869 16.8027C72.9017 16.6461 73.0731 16.4166 73.1795 16.1431C73.2859 15.8695 73.3226 15.5642 73.2848 15.2657C73.247 14.9671 73.1366 14.6887 72.9674 14.4656C72.7981 14.2424 72.5777 14.0845 72.3339 14.0117C72.0054 13.9164 71.6589 13.9811 71.3699 14.1917C71.081 14.4024 70.873 14.7419 70.7915 15.1361Z" fill="#263238"/>
<path d="M70.6196 17.2289C70.5606 17.5224 70.5752 17.8304 70.6615 18.1139C70.7479 18.3975 70.9022 18.644 71.1049 18.8222C71.3077 19.0005 71.5498 19.1026 71.8008 19.1156C72.0517 19.1287 72.3003 19.0521 72.5151 18.8955C72.7298 18.7389 72.9012 18.5094 73.0076 18.2358C73.1141 17.9623 73.1507 17.657 73.1129 17.3584C73.0752 17.0599 72.9647 16.7815 72.7955 16.5583C72.6263 16.3352 72.4059 16.1772 72.1621 16.1045C71.8336 16.0092 71.487 16.0739 71.1981 16.2845C70.9091 16.4952 70.7012 16.8346 70.6196 17.2289Z" fill="#263238"/>
<path d="M71.5519 11.2513C71.5519 11.2513 71.0268 7.30509 76.2285 4.41452C81.4301 1.52395 86.9764 5.20374 90.4633 2.67819C93.9502 0.152642 93.8353 10.9948 86.4759 11.9813C81.4959 12.5157 76.4793 12.2703 71.5519 11.2513Z" fill="#263238"/>
<path d="M81.8733 2.83505C81.7427 3.46952 81.7719 4.1364 81.9572 4.75085C82.1426 5.36531 82.4758 5.89958 82.9144 6.28572C83.353 6.67186 83.8772 6.89243 84.4203 6.91936C84.9635 6.9463 85.501 6.77838 85.9646 6.43698C86.4281 6.09557 86.7967 5.59611 87.0236 5.0021C87.2504 4.40808 87.3252 3.74636 87.2384 3.1011C87.1516 2.45584 86.9072 1.8562 86.5363 1.37843C86.1653 0.900655 85.6845 0.566346 85.1551 0.418018C84.4536 0.218818 83.7149 0.361084 83.1002 0.813818C82.4855 1.26655 82.0445 1.99306 81.8733 2.83505Z" fill="#263238"/>
<path d="M74.2208 3.96981C74.0922 4.60204 74.1227 5.26595 74.3084 5.87729C74.4942 6.48864 74.8267 7.01986 75.2639 7.40358C75.7011 7.7873 76.2233 8.00621 76.7641 8.03254C77.305 8.05888 77.8401 7.89146 78.3017 7.55151C78.7632 7.21156 79.1304 6.71441 79.3567 6.12313C79.5829 5.53185 79.658 4.87309 79.5724 4.23043C79.4868 3.58777 79.2443 2.99017 78.8758 2.51345C78.5073 2.03673 78.0293 1.70236 77.5025 1.55278C76.801 1.35358 76.0624 1.49585 75.4477 1.94858C74.833 2.40132 74.392 3.12782 74.2208 3.96981Z" fill="#263238"/>
<path d="M89.5945 6.60314C89.5093 7.0256 89.5301 7.46893 89.6544 7.87716C89.7786 8.28539 90.0007 8.6402 90.2926 8.89679C90.5845 9.15339 90.9331 9.30025 91.2943 9.31884C91.6556 9.33743 92.0133 9.22691 92.3224 9.00124C92.6314 8.77557 92.8779 8.44487 93.0308 8.05089C93.1836 7.65692 93.2358 7.21735 93.181 6.78768C93.1261 6.35802 92.9666 5.95752 92.7225 5.63678C92.4785 5.31604 92.1608 5.08942 91.8097 4.98556C91.5759 4.91641 91.333 4.90342 91.095 4.94734C90.857 4.99125 90.6285 5.09121 90.4227 5.24149C90.2169 5.39177 90.0378 5.58941 89.8957 5.82307C89.7536 6.05673 89.6512 6.32182 89.5945 6.60314Z" fill="#263238"/>
<path d="M79.1433 2.05626C79.0581 2.47872 79.079 2.92206 79.2032 3.33029C79.3275 3.73852 79.5495 4.09332 79.8414 4.34992C80.1333 4.60651 80.4819 4.75337 80.8432 4.77196C81.2044 4.79055 81.5622 4.68003 81.8712 4.45436C82.1803 4.22869 82.4268 3.89799 82.5796 3.50401C82.7324 3.11004 82.7847 2.67047 82.7298 2.2408C82.675 1.81114 82.5154 1.41064 82.2714 1.0899C82.0273 0.769158 81.7096 0.542557 81.3585 0.4387C81.1247 0.369541 80.8818 0.356542 80.6438 0.400458C80.4058 0.444374 80.1774 0.544334 79.9716 0.694611C79.7658 0.844887 79.5867 1.04253 79.4445 1.27619C79.3024 1.50985 79.2 1.77494 79.1433 2.05626Z" fill="#263238"/>
<path d="M71.7585 6.53478C71.6733 6.95724 71.6942 7.40058 71.8184 7.80881C71.9427 8.21704 72.1648 8.57185 72.4567 8.82845C72.7485 9.08504 73.0971 9.23191 73.4584 9.25049C73.8197 9.26908 74.1774 9.15855 74.4865 8.93288C74.7955 8.70721 75.042 8.37652 75.1948 7.98254C75.3476 7.58857 75.3999 7.14899 75.345 6.71932C75.2902 6.28965 75.1307 5.88916 74.8866 5.56842C74.6425 5.24767 74.3249 5.02107 73.9737 4.91722C73.7399 4.84806 73.4971 4.83506 73.2591 4.87897C73.0211 4.92289 72.7926 5.02285 72.5868 5.17313C72.381 5.3234 72.2019 5.52104 72.0598 5.7547C71.9176 5.98837 71.8153 6.25346 71.7585 6.53478Z" fill="#263238"/>
<path d="M87.0521 3.22964C86.922 3.8681 86.9522 4.53861 87.1389 5.15642C87.3257 5.77423 87.6605 6.31162 88.1012 6.70067C88.5418 7.08972 89.0685 7.31298 89.6146 7.34221C90.1607 7.37145 90.7018 7.20536 91.1695 6.86493C91.6371 6.5245 92.0104 6.02501 92.242 5.4296C92.4736 4.83418 92.5533 4.16955 92.4709 3.51972C92.3885 2.86989 92.1477 2.26401 91.779 1.77865C91.4104 1.2933 90.9303 0.950253 90.3995 0.792877C89.687 0.584296 88.9348 0.723591 88.3074 1.18026C87.6801 1.63693 87.2287 2.3738 87.0521 3.22964Z" fill="#263238"/>
<path d="M126.724 61.8904L137.931 75.2383C139.572 75.1594 140.212 70.5818 140.475 66.8921L138.883 63.2222L140.475 59.5029H145.348L146.464 63.5872L145.857 66.8921L143.445 68.293C143.445 68.293 141.755 84.9262 139.621 84.9262C137.488 84.9262 123.631 70.3845 123.631 70.3845L126.724 61.8904Z" fill="#EEC1BB"/>
<path d="M123.697 71.6268L129.851 77.6743L134.823 68.2331L126.692 61.8896L123.697 71.6268Z" fill="#263238"/>
<path opacity="0.2" d="M127.135 75.0115L128.086 69.2402L129.85 77.6752L127.135 75.0115Z" fill="black"/>
<path d="M127.831 90.5088V99.9105L106.582 101.686L105.646 91.7716L127.831 90.5088Z" fill="#EEC1BB"/>
<path d="M149.221 247.39L144.528 248.386L142.6 240.691L140.844 233.627L146.259 231.358L147.826 239.843L149.221 247.39Z" fill="#EEC1BB"/>
<path opacity="0.2" d="M147.85 240.021L142.624 240.85L140.852 233.707L146.258 231.398L147.85 240.021Z" fill="black"/>
<path d="M151.001 247.448C150.978 247.433 150.958 247.41 150.947 247.382C150.935 247.353 150.931 247.321 150.935 247.29C150.935 247.201 151.075 245.209 151.756 244.558C151.836 244.476 151.929 244.415 152.029 244.38C152.129 244.344 152.235 244.334 152.338 244.351C152.442 244.351 152.542 244.394 152.621 244.473C152.7 244.553 152.754 244.663 152.773 244.784C152.896 245.514 151.748 247.033 151.132 247.418H151.067L151.001 247.448ZM151.92 244.755C151.519 245.377 151.282 246.129 151.239 246.915C151.83 246.382 152.56 245.228 152.486 244.784C152.486 244.735 152.486 244.617 152.289 244.617H152.224C152.112 244.618 152.004 244.667 151.92 244.755Z" fill="#263238"/>
<path d="M117.881 249.994H113.114L112.334 241.924L111.629 234.554L117.282 233.42L117.602 242.19L117.881 249.994Z" fill="#EEC1BB"/>
<path opacity="0.2" d="M117.602 242.26L112.334 241.984L111.629 234.585L117.282 233.44L117.602 242.26Z" fill="black"/>
<path d="M148.294 235.542L140.581 237.179C132.795 213.848 127.249 194.383 123.352 178.224C121.243 169.503 119.488 161.748 118.224 154.872L118.462 180.266V237.485H110.857C91.7975 128.324 105.302 103.453 105.302 103.453L128.111 98.8857C129.006 103.961 129.639 109.097 130.006 114.266L131.04 123.362L139.95 178.727L148.294 235.542Z" fill="#467CA6"/>
<g opacity="0.3">
<path d="M148.294 235.542L140.581 237.179C132.795 213.848 127.249 194.383 123.352 178.224C121.243 169.503 119.488 161.748 118.224 154.872L118.462 180.266V237.485H110.857C91.7975 128.324 105.302 103.453 105.302 103.453L128.111 98.8857C129.006 103.961 129.639 109.097 130.006 114.266L131.04 123.362L139.95 178.727L148.294 235.542Z" fill="white"/>
</g>
<path opacity="0.2" d="M123.345 178.194C121.236 169.472 119.596 161.718 118.332 154.842C118.442 146.699 118.935 138.57 119.809 130.494C119.809 130.494 123.148 161.925 123.345 178.194Z" fill="black"/>
<path d="M129.752 103.551L103.449 106.175C104.269 99.9699 104.646 89.4534 102.973 82.3305C102.718 81.2651 102.439 80.1404 102.152 78.9368C101.791 77.5557 101.381 76.0726 100.922 74.4875C100.569 73.2642 100.183 71.962 99.7565 70.5414C99.6417 70.1369 99.5104 69.7225 99.3791 69.3082C98.9525 67.9172 98.4931 66.4373 97.9844 64.8786C101.037 63.8386 104.142 63.0346 107.28 62.4714C110.613 61.841 113.975 61.4621 117.347 61.3369C121.704 61.3369 126.716 61.8203 126.716 61.8203C126.716 61.8203 127.422 62.0078 127.873 66.9602C128.259 71.6463 130.646 86.622 129.752 103.551Z" fill="#263238"/>
<path d="M117.069 62.9756C116.849 62.8416 116.621 62.7262 116.388 62.6303C115.863 62.137 115.239 60.9531 115.272 58.0823C115.289 56.955 115.374 55.8307 115.526 54.7182L108.881 53.2285C108.881 53.2285 111.145 58.6052 109.258 62.6007C108.61 62.946 108.216 63.4392 108.29 64.0904C108.791 68.7074 116.109 69.615 116.109 69.615C116.109 69.615 121.073 65.6294 117.069 62.9756Z" fill="#EEC1BB"/>
<path opacity="0.2" d="M115.526 54.7182C114.747 57.2536 113.016 59.0097 109.98 59.7101C110.081 57.472 109.703 55.2403 108.881 53.2285L115.526 54.7182Z" fill="black"/>
<path d="M118.914 27.9633C118.914 27.9633 118.094 19.4593 124.6 22.2512C131.106 25.0432 130.261 39.2592 133.387 43.9552C136.513 48.6511 138.851 48.1381 138.851 48.1381C138.851 48.1381 134.946 52.0251 131.204 49.8744C127.463 47.7238 118.914 27.9633 118.914 27.9633Z" fill="#263238"/>
<path d="M118.822 29.2745L120.365 28.0117C120.937 28.1746 121.474 28.4835 121.938 28.9176C122.402 29.3516 122.783 29.9006 123.056 30.5274C123.642 31.7923 123.989 33.1968 124.073 34.6413L121.989 35.7166L118.822 29.2745Z" fill="#407BFF"/>
<path d="M111.039 29.0876C111.039 29.0876 103.203 28.4266 102.12 36.0625C101.803 38.2311 102.006 40.4633 102.705 42.4985C103.404 44.5337 104.57 46.2877 106.067 47.5557L111.039 29.0876Z" fill="#263238"/>
<path d="M111.957 33.0537C106.173 33.0537 104.31 36.7927 103.892 43.9649C103.375 52.9227 105.032 59.2958 112.269 57.372C122.065 54.7577 121.54 33.0438 111.957 33.0537Z" fill="#EEC1BB"/>
<path d="M107.608 43.5703C107.159 44.6092 106.608 45.5795 105.967 46.4602C106.136 46.747 106.369 46.9716 106.638 47.1091C106.908 47.2467 107.203 47.2918 107.493 47.2394L107.608 43.5703Z" fill="#D4827D"/>
<path d="M111.135 43.0379C111.135 43.6105 111.373 44.0843 111.684 44.0843C111.996 44.0843 112.267 43.6401 112.283 43.0972C112.3 42.5542 112.045 42.0508 111.725 42.0508C111.406 42.0508 111.135 42.4259 111.135 43.0379Z" fill="#263238"/>
<path d="M111.873 42.0519L110.848 41.5283C110.848 41.5283 111.348 42.5557 111.873 42.0519Z" fill="#263238"/>
<path d="M105.246 42.7225C105.246 43.2951 105.484 43.7097 105.796 43.7689C106.108 43.8281 106.378 43.3247 106.395 42.7817C106.411 42.2388 106.157 41.7354 105.837 41.7354C105.517 41.7354 105.254 42.15 105.246 42.7225Z" fill="#263238"/>
<path d="M105.969 41.7355L104.943 41.2119C104.943 41.2119 105.444 42.2788 105.969 41.7355Z" fill="#263238"/>
<path d="M113.714 39.576C113.673 39.5775 113.632 39.5676 113.595 39.547C113.558 39.5265 113.526 39.4958 113.5 39.4574C113.207 39.1081 112.851 38.8431 112.46 38.6823C112.07 38.5216 111.654 38.4692 111.244 38.529C111.169 38.5377 111.095 38.512 111.035 38.457C110.976 38.4019 110.936 38.3218 110.924 38.2327C110.919 38.1886 110.922 38.1438 110.932 38.1009C110.942 38.0581 110.959 38.018 110.982 37.9831C111.005 37.9482 111.033 37.9191 111.066 37.8975C111.098 37.8759 111.133 37.8623 111.17 37.8574C111.675 37.7806 112.187 37.8459 112.667 38.0481C113.146 38.2504 113.581 38.5841 113.935 39.0229C113.988 39.0875 114.017 39.1744 114.017 39.2648C114.017 39.3553 113.988 39.4422 113.935 39.5068C113.904 39.5365 113.869 39.5581 113.83 39.57C113.792 39.5819 113.752 39.584 113.714 39.576Z" fill="#263238"/>
<path d="M104.695 38.8169C104.648 38.8173 104.602 38.8041 104.561 38.7783C104.519 38.7524 104.484 38.7148 104.457 38.6687C104.436 38.6314 104.421 38.5893 104.414 38.5449C104.406 38.5006 104.406 38.4549 104.414 38.4106C104.422 38.3663 104.437 38.3243 104.458 38.2872C104.48 38.2501 104.507 38.2185 104.539 38.1945C104.898 37.8666 105.314 37.6411 105.756 37.535C106.198 37.4289 106.654 37.445 107.091 37.582C107.161 37.6133 107.218 37.6761 107.25 37.7573C107.282 37.8384 107.287 37.9315 107.263 38.0167C107.237 38.101 107.185 38.1698 107.117 38.2086C107.05 38.2473 106.973 38.2529 106.902 38.2241C106.548 38.1269 106.18 38.1253 105.826 38.2192C105.471 38.3131 105.138 38.5004 104.851 38.7675C104.802 38.7976 104.749 38.8145 104.695 38.8169Z" fill="#263238"/>
<path d="M118.265 44.7731C118.265 44.7731 115.558 39.061 115.96 34.6511C115.96 34.6511 104.473 29.0278 103.94 43.0269C103.94 43.0269 102.8 30.6063 112.752 30.3103C122.704 30.0144 122.671 47.5157 117.543 52.7443C117.543 52.7443 119.947 48.3443 118.265 44.7731Z" fill="#263238"/>
<path d="M110.027 28.6142C110.027 28.6142 105.22 27.5389 103.948 29.1371C102.676 30.7353 112.743 40.7388 117.805 41.4788C117.805 41.4788 119.815 48.0294 118.626 51.2455C118.626 51.2455 124.156 48.4931 123.942 38.1541C123.729 27.8151 114.507 24.5398 110.027 28.6142Z" fill="#263238"/>
<path d="M117.324 46.2426C117.38 45.4377 117.699 44.6924 118.211 44.1693C118.723 43.6462 119.386 43.3879 120.056 43.4507C121.853 43.6874 122.706 48.1071 118.251 49.1825C117.611 49.3305 117.25 48.5807 117.324 46.2426Z" fill="#EEC1BB"/>
<path d="M106.895 49.717C107.291 50.5709 107.636 51.4576 107.928 52.3702L108.347 52.2617C110.25 51.7587 110.997 50.7723 111.243 49.8255C111.358 49.3647 111.378 48.8772 111.3 48.4052C111.266 48.1356 111.199 47.8732 111.103 47.626C110.041 48.5608 108.824 49.21 107.534 49.5296C107.141 49.6578 106.895 49.717 106.895 49.717Z" fill="#263238"/>
<path d="M107.533 49.5296L107.861 50.2989C109.65 49.8255 110.856 49.2041 111.299 48.4052C111.264 48.1356 111.198 47.8732 111.102 47.626C110.04 48.5608 108.823 49.21 107.533 49.5296Z" fill="white"/>
<path d="M108.346 52.2624C110.249 51.7594 110.996 50.773 111.242 49.8262C110.523 50.0384 109.84 50.3988 109.224 50.8914C108.82 51.2285 108.514 51.7074 108.346 52.2624Z" fill="#DE5753"/>
<path d="M151.033 247.41C151.006 247.404 150.982 247.387 150.964 247.362C150.946 247.337 150.936 247.305 150.935 247.272C150.929 247.241 150.932 247.208 150.944 247.179C150.956 247.15 150.976 247.127 151 247.114C151.205 246.956 153.06 245.583 153.691 245.978C153.763 246.018 153.824 246.083 153.866 246.163C153.908 246.244 153.93 246.337 153.929 246.433C153.946 246.596 153.929 246.763 153.879 246.916C153.828 247.07 153.747 247.206 153.642 247.312C153.321 247.58 152.932 247.705 152.543 247.667C152.033 247.646 151.527 247.56 151.033 247.41ZM151.427 247.183C152.099 247.458 152.833 247.412 153.478 247.055C153.544 246.982 153.595 246.891 153.627 246.79C153.658 246.688 153.669 246.58 153.659 246.472C153.659 246.334 153.609 246.275 153.568 246.275C153.512 246.255 153.452 246.255 153.396 246.275C152.697 246.423 152.029 246.732 151.427 247.183Z" fill="#263238"/>
<path d="M119.037 247.41C119.01 247.404 118.986 247.387 118.968 247.362C118.95 247.337 118.94 247.305 118.939 247.272C118.932 247.241 118.936 247.208 118.948 247.179C118.96 247.15 118.98 247.127 119.004 247.114C119.209 246.956 121.064 245.583 121.695 245.978C121.767 246.018 121.828 246.083 121.87 246.163C121.912 246.244 121.934 246.337 121.933 246.433C121.95 246.596 121.933 246.763 121.883 246.916C121.832 247.07 121.751 247.206 121.646 247.312C121.325 247.58 120.936 247.705 120.547 247.667C120.037 247.646 119.531 247.56 119.037 247.41ZM119.431 247.183C120.103 247.458 120.837 247.412 121.482 247.055C121.548 246.982 121.599 246.891 121.631 246.79C121.662 246.688 121.673 246.58 121.662 246.472C121.662 246.334 121.613 246.275 121.572 246.275C121.516 246.255 121.456 246.255 121.4 246.275C120.701 246.423 120.033 246.732 119.431 247.183Z" fill="#263238"/>
<path d="M119.005 247.448C118.981 247.433 118.962 247.41 118.95 247.382C118.939 247.353 118.935 247.321 118.939 247.29C118.939 247.201 119.079 245.209 119.76 244.558C119.839 244.476 119.932 244.415 120.033 244.38C120.133 244.344 120.239 244.334 120.342 244.351C120.446 244.351 120.545 244.394 120.625 244.473C120.704 244.553 120.758 244.663 120.777 244.784C120.9 245.514 119.752 247.033 119.136 247.418H119.071L119.005 247.448ZM119.924 244.755C119.523 245.377 119.286 246.129 119.243 246.915C119.834 246.382 120.564 245.228 120.49 244.784C120.49 244.735 120.49 244.617 120.293 244.617H120.227C120.116 244.618 120.008 244.667 119.924 244.755Z" fill="#263238"/>
<path d="M150.641 246.453H143.659C143.544 246.453 143.433 246.499 143.343 246.585C143.254 246.672 143.191 246.792 143.167 246.927L142.035 253.083C142.008 253.214 142.005 253.35 142.024 253.483C142.043 253.616 142.085 253.743 142.146 253.856C142.208 253.969 142.288 254.065 142.381 254.139C142.475 254.213 142.581 254.263 142.691 254.287C142.751 254.296 142.812 254.296 142.872 254.287C145.136 254.237 146.777 254.07 149.616 254.07C151.363 254.07 156.639 254.296 159.051 254.296C161.463 254.296 161.775 251.426 160.79 251.159C156.36 250.005 153.02 248.397 151.609 246.858C151.341 246.581 150.995 246.437 150.641 246.453Z" fill="#354750"/>
<path d="M118.645 246.453H111.663C111.548 246.453 111.437 246.499 111.347 246.585C111.258 246.672 111.195 246.792 111.171 246.927L110.039 253.083C110.012 253.214 110.009 253.35 110.028 253.483C110.047 253.616 110.088 253.743 110.15 253.856C110.211 253.969 110.292 254.065 110.385 254.139C110.479 254.213 110.584 254.263 110.695 254.287C110.755 254.296 110.816 254.296 110.875 254.287C113.14 254.237 114.781 254.07 117.62 254.07C119.367 254.07 124.643 254.296 127.055 254.296C129.467 254.296 129.779 251.426 128.794 251.159C124.364 250.005 121.024 248.397 119.613 246.858C119.344 246.581 118.999 246.437 118.645 246.453Z" fill="#364750"/>
<path opacity="0.2" d="M102.113 78.9579C101.752 77.5767 101.341 76.0936 100.882 74.5085C100.529 73.2852 100.143 71.983 99.7168 70.5624C99.926 69.9467 100.242 69.3917 100.644 68.9346C100.644 68.9346 102.367 74.6072 102.113 78.9579Z" fill="black"/>
<path d="M97.9596 64.9485C94.9814 66.7144 86.0877 83.6928 88.6229 89.4049C91.1581 95.117 102.571 100.138 102.571 100.138C102.571 100.138 97.8119 103.286 97.976 104.085C98.1401 104.884 102.078 108.031 102.571 108.031C103.94 106.774 105.223 105.388 106.41 103.887C106.976 103.118 106.484 99.882 106.484 99.882C103.268 96.7349 94.4317 89.1583 93.8902 87.4614C93.3487 85.7645 100.798 74.074 100.798 74.074C100.798 74.074 101.012 69.2202 100.117 67.0498C99.2231 64.8794 97.9596 64.9485 97.9596 64.9485Z" fill="#EEC1BB"/>
<path d="M97.4179 81.2265L90.7969 75.2481C93.3731 70.9566 95.4078 64.8105 97.9594 64.9486C100.511 65.0867 100.938 69.3584 100.897 74.5082L97.4179 81.2265Z" fill="#263238"/>
<path d="M252.294 23.5905C252.294 23.5905 246.248 19.5556 241.317 22.604C239.044 23.9851 238.248 27.5367 237.764 30.2793C237.1 34.1268 236.993 38.0828 236.534 41.9698C236.372 43.6153 235.981 45.2163 235.377 46.7052C234.556 48.6783 232.825 50.6514 233.17 53.0684C233.465 55.1994 235.278 56.4819 236.862 57.0639C241.054 58.6128 245.805 57.7545 250.137 58.0505C253.624 58.3169 256.996 59.7375 260.491 59.8361C261.486 59.9399 262.485 59.7004 263.37 59.1456C266.743 56.7285 265.274 50.5133 264.191 47.0604C263.264 44.1008 263.945 41.1411 263.649 38.0533C263.435 35.3465 262.905 32.6896 262.074 30.1609C260.318 25.1789 256.807 22.5349 252.294 23.5905Z" fill="#263238"/>
<path d="M223.258 75.7899C224.383 75.6715 235.491 66.9998 235.491 66.9998L235.885 63.3792L236.304 59.433C234.663 59.3639 224.694 68.9334 223.267 69.772C220.371 71.4886 220.699 76.0464 223.258 75.7899Z" fill="#EEC1BB"/>
<path opacity="0.2" d="M232.496 69.2979L235.491 66.9894L235.909 63.1123L232.496 69.2979Z" fill="black"/>
<path d="M264.932 60.9422C264.932 60.9422 259.96 67.0194 259.345 92.8569L237.086 90.6964C237.086 90.6964 233.542 72.2579 236.266 59.2257C245.784 56.817 255.659 57.4083 264.932 60.9422Z" fill="#004E89"/>
<path d="M217.572 239.565L222.019 240.512L223.849 233.212L225.514 226.513L220.378 224.353L218.885 232.403L217.572 239.565Z" fill="#EEC1BB"/>
<path opacity="0.2" d="M218.861 232.571L223.825 233.36L225.499 226.583L220.371 224.393L218.861 232.571Z" fill="black"/>
<path d="M247.291 242.032H251.82L252.558 234.376L253.231 227.382L247.865 226.316L247.562 234.633L247.291 242.032Z" fill="#EEC1BB"/>
<path opacity="0.2" d="M247.562 234.702L252.559 234.436L253.232 227.421L247.866 226.326L247.562 234.702Z" fill="black"/>
<path d="M218.445 228.319L225.764 229.878C233.148 207.749 238.407 189.281 242.115 173.95C244.117 165.683 245.783 158.324 246.981 151.793L246.759 175.884V230.144H253.971C272.021 126.557 259.066 96.2601 259.066 96.2601L237.078 94.583C236.257 98.4601 236.159 108.888 235.798 113.268L234.821 121.96L226.363 174.473L218.445 228.319Z" fill="#263238"/>
<path opacity="0.2" d="M242.113 173.95C244.115 165.683 245.674 158.323 246.872 151.792C246.768 144.068 246.3 136.357 245.469 128.697C245.469 128.697 242.302 158.461 242.113 173.95Z" fill="black"/>
<path d="M259.343 92.8568L237.084 90.6963V95.2443L259.671 97.6416L259.343 92.8568Z" fill="black"/>
<path d="M243.229 92.7083V94.8096C243.228 95.2221 243.355 95.6202 243.586 95.9252C243.817 96.2303 244.135 96.4201 244.476 96.4571L247.233 96.7432H247.332C247.675 96.7414 248.005 96.5868 248.259 96.3091C248.399 96.1556 248.511 95.9681 248.588 95.7591C248.664 95.55 248.703 95.324 248.702 95.0957V92.9845C248.705 92.5714 248.578 92.172 248.347 91.8665C248.116 91.5609 247.797 91.3718 247.455 91.337L244.698 91.0509C244.509 91.0332 244.319 91.0627 244.14 91.1374C243.96 91.2121 243.796 91.3305 243.657 91.4852C243.517 91.6398 243.406 91.8274 243.329 92.0361C243.253 92.2449 243.213 92.4703 243.213 92.6984L243.229 92.7083ZM243.935 94.8096V94.119L244.706 94.1881C244.771 94.2026 244.837 94.2007 244.901 94.1825C244.964 94.1642 245.024 94.13 245.077 94.0821C245.129 94.0342 245.172 93.9736 245.203 93.9044C245.234 93.8351 245.253 93.7587 245.259 93.6801C245.264 93.6014 245.255 93.5224 245.233 93.448C245.211 93.3736 245.177 93.3056 245.132 93.2484C245.087 93.1912 245.032 93.146 244.971 93.1159C244.911 93.0857 244.846 93.0712 244.78 93.0733L244.009 92.9944H243.902V92.6787C243.9 92.5674 243.919 92.457 243.955 92.3549C243.992 92.2528 244.047 92.1614 244.115 92.0867C244.235 91.9518 244.394 91.8777 244.558 91.8796H244.624L247.373 92.1657C247.539 92.1807 247.695 92.2718 247.808 92.4204C247.921 92.5689 247.982 92.7636 247.98 92.9648V95.076C247.98 95.187 247.962 95.297 247.925 95.399C247.888 95.5009 247.834 95.5925 247.766 95.6679C247.698 95.7429 247.618 95.7994 247.53 95.8335C247.442 95.8675 247.349 95.8783 247.258 95.8652L244.509 95.5791C244.355 95.5513 244.213 95.459 244.11 95.3182C244.006 95.1775 243.947 94.9974 243.943 94.8096H243.935Z" fill="white"/>
<path d="M253.426 58.2592C253.833 58.4277 254.169 58.782 254.361 59.2458C252.198 61.1547 249.569 62.147 246.887 62.0673C246.132 62.0673 244.565 59.5023 245.738 58.713C245.955 58.5756 246.18 58.4569 246.411 58.3579C246.912 57.8745 247.527 56.7005 247.486 53.879C247.462 52.7676 247.372 51.6598 247.215 50.5642L253.779 49.0449C253.779 49.0449 251.547 54.3427 253.426 58.2592Z" fill="#EEC1BB"/>
<path opacity="0.2" d="M247.217 50.5443C247.374 51.6397 247.464 52.7473 247.488 53.8583C251.91 53.8583 253.756 49.0254 253.756 49.0254L247.217 50.5443Z" fill="black"/>
<path d="M224.451 236.634L215.877 234.661V241.991C215.877 241.991 211.496 250.742 209.601 251.334C209.081 251.499 208.635 251.899 208.356 252.451C208.076 253.002 207.984 253.662 208.099 254.293H217.567L219.865 250.988L220.365 254.293H222.186C222.186 254.293 224.106 247.634 222.186 242.958L224.451 236.634Z" fill="#263238"/>
<path d="M254.715 235.719L246.141 236.518L246.896 242.033C246.896 242.033 242.507 250.783 240.612 251.375C240.092 251.538 239.645 251.939 239.366 252.491C239.088 253.044 238.999 253.705 239.118 254.335H248.586L250.884 251.03L251.376 254.335H253.197C253.197 254.335 255.117 247.676 253.197 242.999L254.715 235.719Z" fill="#263238"/>
<path d="M249.465 28.3066C243.722 28.3066 241.925 31.9766 241.507 39.0304C240.982 47.8599 242.606 54.1245 249.711 52.25C259.409 49.6949 258.925 28.3165 249.465 28.3066Z" fill="#EEC1BB"/>
<path d="M245.19 38.6553C244.739 39.6774 244.188 40.631 243.549 41.4959C243.716 41.7784 243.944 41.9998 244.209 42.1356C244.474 42.2714 244.765 42.3163 245.05 42.2652L245.19 38.6553Z" fill="#D58745"/>
<path d="M248.676 38.1043C248.676 38.6669 248.914 39.0914 249.225 39.0914C249.537 39.0914 249.8 38.6571 249.808 38.1043C249.816 37.5515 249.578 37.1171 249.266 37.0677C248.955 37.0184 248.692 37.5317 248.676 38.1043Z" fill="#263238"/>
<path d="M249.39 37.1182L248.381 36.6045C248.381 36.6045 248.873 37.6615 249.39 37.1182Z" fill="#263238"/>
<path d="M242.861 37.8091C242.861 38.3717 243.099 38.7962 243.411 38.8456C243.723 38.8949 243.985 38.4112 243.994 37.8584C244.002 37.3056 243.764 36.8713 243.452 36.8219C243.14 36.7725 242.878 37.2464 242.861 37.8091Z" fill="#263238"/>
<path d="M243.575 36.8418L242.574 36.3281C242.574 36.3281 243.058 37.3753 243.575 36.8418Z" fill="#263238"/>
<path d="M251.211 34.7417C251.168 34.7421 251.126 34.7308 251.088 34.7085C251.049 34.6863 251.016 34.6537 250.989 34.6134C250.7 34.2721 250.351 34.0133 249.968 33.856C249.584 33.6988 249.176 33.647 248.774 33.7047C248.737 33.7102 248.7 33.7069 248.665 33.6949C248.629 33.683 248.596 33.6626 248.567 33.635C248.538 33.6075 248.514 33.5732 248.496 33.5343C248.478 33.4954 248.466 33.4526 248.462 33.4084C248.457 33.3648 248.458 33.3202 248.467 33.2774C248.476 33.2346 248.492 33.1944 248.514 33.1594C248.537 33.1243 248.565 33.095 248.597 33.0733C248.629 33.0516 248.664 33.0379 248.7 33.0331C249.197 32.9522 249.703 33.0118 250.177 33.2073C250.651 33.4027 251.081 33.7286 251.432 34.159C251.456 34.1933 251.473 34.2329 251.484 34.2753C251.494 34.3177 251.498 34.3623 251.494 34.4064C251.49 34.4504 251.479 34.4931 251.461 34.5321C251.444 34.571 251.42 34.6053 251.391 34.6331C251.37 34.666 251.342 34.6928 251.311 34.7116C251.28 34.7304 251.246 34.7407 251.211 34.7417Z" fill="#263238"/>
<path d="M242.327 33.971C242.265 33.9738 242.204 33.9519 242.154 33.9088C242.104 33.8656 242.067 33.8035 242.049 33.7324C242.031 33.6612 242.033 33.5849 242.055 33.5155C242.078 33.446 242.118 33.3873 242.171 33.3486C242.528 33.0266 242.94 32.806 243.378 32.7033C243.815 32.6007 244.267 32.6186 244.698 32.7559C244.766 32.7891 244.822 32.8527 244.852 32.9337C244.883 33.0146 244.886 33.1066 244.862 33.1906C244.849 33.2322 244.83 33.2704 244.804 33.3029C244.779 33.3355 244.749 33.3617 244.716 33.38C244.682 33.3984 244.646 33.4086 244.609 33.41C244.572 33.4114 244.535 33.404 244.501 33.3882C244.153 33.2908 243.791 33.2882 243.442 33.3804C243.093 33.4727 242.765 33.6576 242.483 33.9216C242.434 33.9517 242.381 33.9686 242.327 33.971Z" fill="#263238"/>
<path d="M255.683 39.8582C255.683 39.8582 253.025 34.2349 253.427 29.8843C253.427 29.8843 242.137 24.33 241.571 38.112C241.571 38.112 240.48 25.869 250.276 25.6027C260.072 25.3363 260.015 42.5712 254.953 47.7012C254.953 47.7012 257.332 43.3802 255.683 39.8582Z" fill="#263238"/>
<path d="M254.757 41.3099C254.78 40.9154 254.868 40.5304 255.017 40.1776C255.165 39.8247 255.371 39.5112 255.622 39.2556C255.872 38.9999 256.163 38.8073 256.477 38.6891C256.791 38.5709 257.121 38.5295 257.449 38.5673C259.213 38.7942 260.049 43.1547 255.66 44.2004C255.028 44.3484 254.716 43.6085 254.757 41.3099Z" fill="#EEC1BB"/>
<path d="M244.871 44.0214C245.15 44.8582 245.378 45.7186 245.552 46.5957H245.946C247.734 46.4083 248.514 45.6093 248.842 44.7907C249.065 44.1421 249.094 43.4204 248.924 42.749C247.863 43.4544 246.687 43.875 245.478 43.9819C245.093 44.0214 244.871 44.0214 244.871 44.0214Z" fill="#263238"/>
<path d="M245.459 43.9644L245.68 44.7146C247.362 44.537 248.527 44.1421 249.012 43.4708C249.004 43.2194 248.968 42.9704 248.905 42.7305C247.844 43.4364 246.668 43.8574 245.459 43.9644Z" fill="white"/>
<path d="M245.928 46.5799C247.716 46.3922 248.496 45.5922 248.824 44.7725C248.145 44.8528 247.483 45.0804 246.871 45.4441C246.467 45.697 246.138 46.0935 245.928 46.5799Z" fill="#DE5753"/>
<path opacity="0.2" d="M254.649 81.0374C255.937 82.2508 258.365 81.1459 260.146 79.7845C260.966 74.2598 261.286 70.0868 262.065 67.2061C260.786 68.6859 252.294 78.8078 254.649 81.0374Z" fill="black"/>
<path d="M245.311 76.1843C245.273 76.1774 245.238 76.158 245.209 76.1284C245.18 76.0988 245.158 76.0601 245.146 76.0166C245.032 75.5036 242.423 63.3592 244.531 57.7951C244.541 57.7668 244.555 57.7412 244.574 57.7198C244.592 57.6984 244.614 57.6816 244.637 57.6706C244.661 57.6595 244.686 57.6544 244.712 57.6554C244.737 57.6565 244.762 57.6637 244.785 57.6767C244.83 57.7043 244.864 57.7513 244.881 57.8081C244.898 57.865 244.896 57.9273 244.876 57.9825C243.079 62.7081 244.876 72.7215 245.393 75.2964C248.789 67.0686 256.001 58.4561 256.058 58.3673C256.075 58.3458 256.096 58.3287 256.118 58.317C256.141 58.3053 256.165 58.2992 256.19 58.2992C256.214 58.2992 256.239 58.3053 256.261 58.317C256.284 58.3287 256.304 58.3458 256.321 58.3673C256.356 58.4113 256.375 58.4695 256.375 58.5301C256.375 58.5906 256.356 58.6489 256.321 58.6929C256.247 58.7817 248.748 67.7395 245.483 76.056C245.467 76.0949 245.443 76.1276 245.412 76.1503C245.382 76.173 245.346 76.1848 245.311 76.1843Z" fill="white"/>
<path d="M245.215 80.2085C244.836 80.2105 244.465 80.0771 244.15 79.8253C243.834 79.5736 243.588 79.2148 243.442 78.7944C243.296 78.3741 243.258 77.9112 243.331 77.4645C243.405 77.0178 243.587 76.6074 243.855 76.2854C244.123 75.9634 244.464 75.7443 244.836 75.656C245.207 75.5676 245.592 75.614 245.942 75.7891C246.292 75.9643 246.59 76.2604 246.799 76.6398C247.009 77.0192 247.12 77.4649 247.118 77.9203C247.118 78.5272 246.918 79.1092 246.561 79.5383C246.204 79.9675 245.72 80.2085 245.215 80.2085ZM245.215 76.5394C244.988 76.5394 244.766 76.6204 244.577 76.7721C244.388 76.9239 244.24 77.1395 244.154 77.3919C244.067 77.6442 244.044 77.9218 244.088 78.1897C244.133 78.4575 244.242 78.7036 244.403 78.8967C244.563 79.0898 244.768 79.2213 244.991 79.2746C245.213 79.3279 245.444 79.3005 245.654 79.196C245.864 79.0915 246.044 78.9145 246.17 78.6874C246.296 78.4604 246.363 78.1934 246.363 77.9203C246.355 77.5609 246.23 77.2198 246.016 76.9693C245.801 76.7188 245.514 76.5787 245.215 76.5789V76.5394Z" fill="#263238"/>
<path d="M245.739 69.3762L243.639 64.4435C243.639 64.4435 243.943 59.9547 243.639 59.5996C243.335 59.2444 239.159 57.0938 237.658 57.0938C236.156 57.0938 236.017 63.6937 236.616 64.4435C237.215 65.1933 241.014 66.7125 241.014 66.7125L244.82 70.1359L245.739 69.3762Z" fill="#EEC1BB"/>
<path d="M264.928 60.9414C268.62 65.3513 257.544 82.7934 253.753 82.7934C249.963 82.7934 241.012 66.7127 241.012 66.7127L243.637 64.4634C243.637 64.4634 252.572 75.71 253.343 75.7494C254.114 75.7889 260.054 64.8975 261.137 63.5854C262.237 62.4008 263.527 61.5009 264.928 60.9414Z" fill="#EEC1BB"/>
<path d="M172.555 61.8496L168.256 58.89C167.721 57.8213 167.064 56.8483 166.304 55.9994C165.418 55.2003 161.775 54.0263 161.775 54.0263C160.429 53.6712 159.715 54.1743 159.313 55.1214L157.27 60.7052C156.934 61.6918 156.959 62.1456 157.27 62.2146C157.27 62.2146 164.359 64.3258 166.115 62.481L170.48 65.5294L172.555 61.8496Z" fill="#EEC1BB"/>
<path d="M197.211 44.9299C197.324 45.7012 197.196 46.4959 196.85 47.1595C195.767 49.5864 191.361 59.9057 189.236 63.2106C185.79 68.5774 183 71.4482 180.859 71.6258C177.315 71.9316 166.846 66.3478 166.846 66.3478L170.989 58.8895C170.989 58.8895 177.192 62.3227 179.825 61.6025C182.459 60.8823 187.496 44.3282 189.293 40.1748C189.293 40.1748 196.464 41.0627 197.211 44.9299Z" fill="#467CA6"/>
<path opacity="0.2" d="M185.92 67.8379C185.296 68.8343 184.501 69.6584 183.59 70.2549C185.099 66.3088 187.389 51.1357 187.389 51.1357L185.92 67.8379Z" fill="black"/>
<path d="M214.514 246.817H221.619C221.735 246.818 221.847 246.867 221.936 246.955C222.026 247.043 222.087 247.165 222.112 247.3L223.269 253.555C223.315 253.824 223.271 254.105 223.147 254.336C223.022 254.566 222.827 254.729 222.604 254.788C222.539 254.803 222.472 254.803 222.407 254.788C220.11 254.788 218.436 254.581 215.556 254.581C213.776 254.581 208.418 254.798 205.965 254.798C203.512 254.798 203.192 251.888 204.193 251.621C208.697 250.438 212.086 248.8 213.53 247.241C213.803 246.958 214.154 246.806 214.514 246.817Z" fill="#B3C5D7"/>
<path d="M184.368 246.589H191.473C191.588 246.593 191.699 246.642 191.788 246.729C191.877 246.817 191.94 246.938 191.965 247.073L193.122 253.337C193.151 253.471 193.156 253.61 193.138 253.745C193.12 253.881 193.078 254.011 193.015 254.126C192.952 254.241 192.871 254.339 192.775 254.414C192.678 254.489 192.57 254.539 192.457 254.561H192.269C189.972 254.511 188.298 254.344 185.41 254.344C183.629 254.344 178.272 254.571 175.819 254.571C173.366 254.571 173.046 251.611 174.047 251.384C178.551 250.2 181.948 248.563 183.392 247.014C183.661 246.73 184.01 246.578 184.368 246.589Z" fill="#B3C5D7"/>
<path d="M218.255 88.5254H187.226C184.281 107.891 175.042 186.548 181.672 247.625H192.173C192.173 247.625 191.197 154.89 200.476 124.899C201.543 140.94 212.381 247.566 212.381 247.566H223.047C223.047 247.566 221.447 207.453 219.847 169.57C218.871 145.705 218.296 93.4186 218.255 88.5254Z" fill="#263238"/>
<path opacity="0.2" d="M218.255 88.5254H187.226C184.281 107.891 175.042 186.548 181.672 247.625H192.173C192.173 247.625 191.197 154.89 200.476 124.899C201.543 140.94 212.381 247.566 212.381 247.566H223.047C223.047 247.566 221.447 207.453 219.847 169.57C218.871 145.705 218.296 93.4186 218.255 88.5254Z" fill="white"/>
<path opacity="0.2" d="M200.467 124.919C198.945 130.175 197.787 135.573 197.005 141.058C196.135 126.783 199.606 111.64 199.606 111.64L200.467 124.919Z" fill="black"/>
<path d="M191.245 93.0432L186.568 92.984L186.97 88.9697H191.245V93.0432Z" fill="black"/>
<path d="M208.164 88.9697H218.198V93.4377L208.164 93.2997V88.9697Z" fill="black"/>
<path d="M207.047 93.2799L192.361 93.063V88.9697H207.047V93.2799Z" fill="black"/>
<path d="M200.048 93.5458H196.578C196.46 93.5459 196.343 93.5177 196.234 93.4631C196.125 93.4084 196.026 93.3284 195.943 93.2275C195.859 93.1266 195.794 93.0069 195.749 92.8754C195.705 92.7438 195.683 92.6029 195.684 92.4609V89.788C195.684 89.5028 195.778 89.2294 195.946 89.0278C196.113 88.8261 196.341 88.7129 196.578 88.7129H200.048C200.286 88.7129 200.513 88.8261 200.681 89.0278C200.848 89.2294 200.943 89.5028 200.943 89.788V92.4609C200.944 92.6029 200.921 92.7438 200.877 92.8754C200.833 93.0069 200.767 93.1266 200.684 93.2275C200.601 93.3284 200.502 93.4084 200.393 93.4631C200.284 93.5177 200.167 93.5459 200.048 93.5458ZM196.578 89.6992C196.558 89.6992 196.54 89.7086 196.526 89.7252C196.512 89.7418 196.504 89.7644 196.504 89.788V92.4609C196.504 92.4854 196.512 92.5091 196.525 92.5274C196.539 92.5456 196.558 92.5571 196.578 92.5595H200.048C200.069 92.5571 200.088 92.5456 200.101 92.5274C200.115 92.5091 200.122 92.4854 200.122 92.4609V89.788C200.122 89.7644 200.115 89.7418 200.101 89.7252C200.087 89.7086 200.068 89.6992 200.048 89.6992H196.578Z" fill="white"/>
<path d="M200.469 91.5064H198.672C198.563 91.5064 198.459 91.4544 198.382 91.3618C198.305 91.2691 198.262 91.1435 198.262 91.0125C198.262 90.8815 198.305 90.7559 198.382 90.6632C198.459 90.5706 198.563 90.5186 198.672 90.5186H200.469C200.578 90.5186 200.682 90.5706 200.759 90.6632C200.836 90.7559 200.879 90.8815 200.879 91.0125C200.879 91.1435 200.836 91.2691 200.759 91.3618C200.682 91.4544 200.578 91.5064 200.469 91.5064Z" fill="white"/>
<path d="M223.093 43.1547C222.732 44.7036 222.33 46.726 221.936 49.1825C221.477 51.9744 221.017 55.3287 220.623 59.117C219.689 69.0259 219.319 79.0001 219.516 88.9698L185.976 88.6245C185.976 88.6245 184.589 62.4614 189.258 40.1754L220.845 39.7018C221.2 39.6871 221.553 39.7735 221.876 39.9541C222.198 40.1346 222.48 40.4042 222.699 40.7408C222.918 41.0774 223.068 41.4715 223.137 41.891C223.205 42.3105 223.19 42.7435 223.093 43.1547Z" fill="#467CA6"/>
<path opacity="0.2" d="M221.94 49.1824C221.481 51.9743 220.66 59.3339 220.258 63.1222C217.165 61.3169 216.936 51.5501 216.936 51.5501C218.297 51.3133 221.284 48.4523 221.94 49.1824Z" fill="black"/>
<path d="M202.003 43.6872C202.003 43.6872 208.64 43.7562 211.028 40.4415C209.526 38.9123 208.878 35.8738 208.681 32.6182C208.557 30.3167 208.592 28.0067 208.788 25.7124C208.837 24.9626 208.911 24.272 208.985 23.6406L201.683 32.046C201.683 32.194 201.757 32.3419 201.798 32.4998C201.904 32.9437 202.003 33.4074 202.077 33.8514C202.291 34.9442 202.327 36.0765 202.183 37.1859C202.153 37.9423 202.022 38.6882 201.798 39.3957C201.56 39.8594 201.076 40.2343 200.001 40.619C199.271 42.237 202.003 43.6872 202.003 43.6872Z" fill="#EEC1BB"/>
<path opacity="0.2" d="M201.764 39.3572C204.012 38.3707 206.785 34.237 208.491 30.5572C208.417 28.9227 208.505 27.2832 208.754 25.6738L201.764 32.4613C201.87 32.9052 201.969 33.3689 202.043 33.8128C202.257 34.9057 202.293 36.0379 202.149 37.1473C202.118 37.9038 201.988 38.6496 201.764 39.3572Z" fill="black"/>
<path d="M194.455 9.41504C194.455 9.41504 192.346 18.7477 196.186 22.9701C200.025 27.1926 201.716 9.49396 201.716 9.49396L194.455 9.41504Z" fill="#263238"/>
<path d="M207.631 32.1838C206.605 33.6264 205.214 34.624 203.671 35.0233C202.128 35.4225 200.519 35.2013 199.09 34.3937C197.235 33.385 195.768 31.5649 194.988 29.3031C194.872 28.9823 194.773 28.6527 194.693 28.3165C193.183 22.2296 193.495 11.9893 198.959 8.89151C199.884 8.35836 200.887 8.04951 201.911 7.98259C202.936 7.91566 203.961 8.09198 204.928 8.50148C205.896 8.91097 206.787 9.54562 207.551 10.3692C208.314 11.1928 208.935 12.1891 209.379 13.3014C209.916 14.6272 210.181 16.0888 210.15 17.5632C210.109 24.469 210.363 28.504 207.631 32.1838Z" fill="#EEC1BB"/>
<path d="M201.558 20.0907C201.616 20.6435 201.361 21.0779 201.05 21.1371C200.738 21.1963 200.484 20.7126 200.459 20.1499C200.434 19.5873 200.656 19.1628 200.959 19.1036C201.263 19.0443 201.525 19.528 201.558 20.0907Z" fill="#263238"/>
<path d="M196.31 20.4342C196.368 20.987 196.105 21.4214 195.81 21.4806C195.514 21.5398 195.235 21.0561 195.211 20.4934C195.186 19.9308 195.416 19.5063 195.711 19.4471C196.007 19.3878 196.286 19.9011 196.31 20.4342Z" fill="#263238"/>
<path d="M197.988 20.6016C197.511 22.3478 196.837 24.0074 195.986 25.5343C196.318 25.7874 196.692 25.9504 197.082 26.0117C197.472 26.0731 197.868 26.0313 198.243 25.8894L197.988 20.6016Z" fill="#D4827D"/>
<path d="M194.272 17.9692C194.317 17.9938 194.368 18.0022 194.417 17.9935C194.467 17.9847 194.513 17.9592 194.551 17.9198C194.814 17.6614 195.124 17.479 195.455 17.3865C195.786 17.2941 196.131 17.294 196.462 17.3864C196.496 17.4017 196.531 17.4083 196.567 17.406C196.602 17.4037 196.637 17.3923 196.669 17.3728C196.701 17.3532 196.728 17.3259 196.751 17.2925C196.773 17.2591 196.79 17.2204 196.799 17.1789C196.81 17.1387 196.815 17.0962 196.812 17.0538C196.81 17.0115 196.8 16.9701 196.784 16.9323C196.768 16.8945 196.746 16.861 196.719 16.8338C196.691 16.8066 196.66 16.7862 196.626 16.7739C196.207 16.6473 195.769 16.6432 195.348 16.7617C194.927 16.8803 194.535 17.1182 194.206 17.4555C194.177 17.4817 194.153 17.5146 194.134 17.5524C194.116 17.5901 194.104 17.6318 194.1 17.6751C194.095 17.7184 194.098 17.7624 194.108 17.8045C194.117 17.8465 194.134 17.8857 194.157 17.9198L194.272 17.9692Z" fill="#263238"/>
<path d="M202.477 17.5053C202.531 17.5033 202.583 17.4789 202.625 17.4362C202.647 17.4035 202.664 17.3656 202.675 17.3247C202.685 17.2839 202.689 17.2409 202.685 17.1984C202.681 17.1559 202.67 17.1149 202.653 17.0776C202.635 17.0404 202.612 17.0078 202.583 16.9818C202.246 16.6462 201.845 16.415 201.416 16.3083C200.987 16.2015 200.543 16.2225 200.122 16.3693C200.055 16.3985 199.999 16.4579 199.967 16.5352C199.935 16.6124 199.929 16.7016 199.95 16.7842C199.977 16.8648 200.028 16.9305 200.093 16.9687C200.158 17.0069 200.233 17.0151 200.303 16.9916C200.634 16.8901 200.981 16.8846 201.315 16.9757C201.649 17.0667 201.96 17.2516 202.222 17.5152C202.263 17.5358 202.307 17.5456 202.351 17.5439C202.394 17.5422 202.438 17.5291 202.477 17.5053Z" fill="#263238"/>
<path d="M205.551 9.31543L205.059 10.6275C206.946 11.3477 206.593 13.9818 206.215 15.1854C205.395 17.7405 206.65 21.6768 208.283 23.2355C208.283 23.2355 208.283 22.1306 209.103 22.3871C209.924 22.6436 209.694 28.3853 208.201 31.1378C208.201 31.1378 210.474 28.6418 211.729 22.6042C212.886 17.0105 213.009 12.3638 212.041 10.2132L205.551 9.31543Z" fill="#263238"/>
<path d="M212.871 23.0576C212.31 24.6483 211.248 25.9073 209.917 26.5598C208.145 27.4082 207.054 25.5733 207.374 23.4226C207.669 21.5186 208.941 18.7365 210.803 18.8253C211.206 18.8553 211.596 19.0037 211.939 19.2574C212.283 19.5111 212.569 19.8623 212.773 20.2802C212.977 20.6982 213.093 21.17 213.11 21.6543C213.127 22.1385 213.045 22.6204 212.871 23.0576Z" fill="#EEC1BB"/>
<path d="M198.4 27.7929C198.813 28.6542 199.172 29.5509 199.475 30.4756L199.902 30.3671C201.83 29.8444 202.576 28.8285 202.823 27.8718C202.931 27.3994 202.948 26.9033 202.872 26.4219C202.831 26.1483 202.759 25.8828 202.659 25.6328C201.589 26.5917 200.361 27.2643 199.057 27.6054C198.663 27.7337 198.4 27.7929 198.4 27.7929Z" fill="#263238"/>
<path d="M199.055 27.6065L199.391 28.3857C201.204 27.8827 202.427 27.2416 202.87 26.4131C202.829 26.1395 202.757 25.874 202.656 25.624C201.587 26.5864 200.359 27.2624 199.055 27.6065Z" fill="white"/>
<path d="M199.9 30.3675C201.828 29.8447 202.575 28.8288 202.821 27.8721C202.092 28.0886 201.4 28.4593 200.778 28.9669C200.368 29.3088 200.061 29.7997 199.9 30.3675Z" fill="#DE5753"/>
<path d="M194.453 9.4146C194.904 6.29713 196.094 3.71238 197.464 0.673828L197.866 4.21552C198.516 2.87876 199.411 1.73823 200.483 0.881009L201.009 4.68907C201.624 3.0514 203.002 2.10432 204.799 1.54199L204.536 4.82718C205.337 3.36967 206.554 2.3164 207.958 1.86755L207.818 4.98502C208.021 4.58502 208.301 4.25082 208.636 4.01174C208.971 3.77265 209.349 3.63598 209.738 3.61372L212.044 10.1742L206.44 12.3446L195.544 12.7886L194.453 9.4146Z" fill="#263238"/>
<path d="M226.68 88.418L226.393 94.4852C226.852 95.6245 227.173 96.8372 227.345 98.0861C227.41 99.4376 224.998 108.366 224.998 108.366L219.025 104.676C219.025 104.676 220.371 95.3731 222.66 94.6135L222.947 88.4574L226.68 88.418Z" fill="#EEC1BB"/>
<path d="M223.081 41.5957C227.429 52.6154 232.229 63.2405 231.064 69.9786L227.921 93.5471L221.875 93.2511L223.909 71.6458C225.796 67.6996 220.414 59.0082 216.936 51.5697L223.081 41.5957Z" fill="#467CA6"/>
<path d="M223.434 69.7822L236.405 78.6217L233.919 81.3544L222.367 75.5634L223.434 69.7822Z" fill="#EEC1BB"/>
<path d="M230.963 77.1111L233.917 81.3533C233.917 81.3533 234.458 85.8026 234.811 86.0689C235.164 86.3353 239.651 87.312 241.104 86.9075C242.556 86.503 241.489 80.0017 240.767 79.469C240.045 78.9362 236.066 78.4824 236.066 78.4824L231.718 76.1641L230.963 77.1111Z" fill="#EEC1BB"/>
<path opacity="0.2" d="M159.882 149.741C156.683 141.011 153.663 133.473 153.663 133.473C153.569 131.92 153.694 130.359 154.032 128.856C154.491 128.503 154.996 128.246 155.526 128.097C155.526 128.097 159.415 135.446 159.882 149.741Z" fill="black"/>
<path d="M184.274 247.756L188.007 246.533C186.637 223.901 182.945 196.604 179.802 176.133C179.302 172.917 178.834 169.888 178.375 167.057C178.153 165.715 177.948 164.423 177.743 163.18C176.75 157.053 175.905 152.199 175.388 149.2L174.789 145.816L161.375 150.493L162.499 154.518L166.183 167.945L166.601 169.474L169.063 178.353L173.206 193.447C173.764 216.542 184.274 247.756 184.274 247.756Z" fill="#EEC1BB"/>
<path d="M151.735 246.66L155.591 246.216C157.601 221.671 157.683 191.127 157.404 169.897C157.404 166.602 157.306 163.534 157.256 160.752C157.256 160.604 157.256 160.476 157.256 160.337C157.141 154.813 157.027 150.413 156.936 147.631L156.821 144.267L142.939 146.131L143.801 153.037L145.064 163.238L145.319 165.211L146.139 172.117L148.461 190.772C145.795 213.709 151.735 246.66 151.735 246.66Z" fill="#EEC1BB"/>
<path opacity="0.2" d="M145.058 163.277L157.258 160.752C157.258 160.604 157.258 160.476 157.258 160.338C157.143 154.813 157.028 150.413 156.938 147.631L143.811 153.077L145.058 163.277Z" fill="black"/>
<path opacity="0.2" d="M176.776 157.051L163.936 159.666L162.5 154.516L175.397 149.169C175.726 151.112 176.193 153.776 176.776 157.051Z" fill="black"/>
<path d="M143.415 106.837C143.415 106.837 135.153 125.443 142.931 159.36L158.101 157.279V139.787L161.383 156.637L176.586 152.967C171.91 125.443 165.92 113.111 165.92 113.111L165.149 104.844L143.415 106.837Z" fill="#1A659E"/>
<path d="M149.906 245.712C149.906 245.13 155.871 245.583 155.871 245.583C155.871 245.583 159.53 250.062 163.083 251.069C166.635 252.075 164.65 254.64 160.679 254.64H150.833C148.06 254.64 149.791 251.749 149.906 245.712Z" fill="#263238"/>
<path d="M158.996 247.417C158.138 247.288 157.306 246.981 156.535 246.51C156.513 246.499 156.493 246.482 156.478 246.46C156.469 246.437 156.465 246.412 156.465 246.386C156.465 246.361 156.469 246.336 156.478 246.312C156.478 246.243 156.994 244.577 157.807 244.172C157.926 244.104 158.056 244.068 158.188 244.068C158.32 244.068 158.45 244.104 158.57 244.172C158.84 244.32 158.972 244.527 158.963 244.764C158.955 245.001 158.52 245.523 158.036 245.829C158.487 245.738 158.95 245.799 159.374 246.007C159.529 246.111 159.644 246.284 159.694 246.49C159.737 246.62 159.746 246.762 159.719 246.898C159.693 247.034 159.632 247.156 159.546 247.249C159.385 247.382 159.19 247.442 158.996 247.417ZM157.076 246.431C157.954 246.875 159.046 247.269 159.324 246.993C159.324 246.993 159.423 246.894 159.365 246.618C159.338 246.509 159.276 246.417 159.193 246.362C158.501 246.139 157.772 246.149 157.085 246.391L157.076 246.431ZM158.143 244.458C158.059 244.459 157.975 244.479 157.897 244.517C157.432 244.889 157.076 245.427 156.88 246.056C157.757 245.652 158.611 245.07 158.627 244.774C158.627 244.675 158.496 244.586 158.414 244.537C158.332 244.474 158.239 244.434 158.143 244.419V244.458Z" fill="#263238"/>
<path d="M183.216 245.712C183.216 245.13 189.172 245.583 189.172 245.583C189.172 245.583 192.832 250.062 196.384 251.069C199.937 252.075 197.959 254.64 193.98 254.64H184.16C181.329 254.64 183.093 251.749 183.216 245.712Z" fill="#263238"/>
<path d="M192.308 247.419C191.45 247.29 190.618 246.983 189.847 246.512C189.836 246.508 189.827 246.502 189.818 246.493C189.81 246.485 189.803 246.474 189.798 246.463C189.789 246.439 189.785 246.414 189.785 246.389C189.785 246.363 189.789 246.338 189.798 246.315C189.798 246.246 190.323 244.579 191.127 244.174C191.248 244.106 191.379 244.071 191.513 244.071C191.646 244.071 191.777 244.106 191.898 244.174C192.169 244.322 192.3 244.529 192.292 244.766C192.284 245.003 191.849 245.526 191.365 245.831C191.813 245.742 192.273 245.803 192.694 246.009C192.773 246.057 192.843 246.125 192.898 246.208C192.953 246.292 192.993 246.389 193.014 246.492C193.058 246.621 193.068 246.762 193.043 246.898C193.018 247.034 192.959 247.157 192.874 247.252C192.709 247.389 192.508 247.449 192.308 247.419ZM190.38 246.433C191.258 246.877 192.349 247.271 192.628 246.995C192.628 246.995 192.727 246.897 192.669 246.62C192.657 246.565 192.636 246.514 192.606 246.47C192.576 246.426 192.539 246.39 192.497 246.364C191.803 246.139 191.07 246.15 190.38 246.394V246.433ZM191.447 244.46C191.365 244.461 191.284 244.481 191.209 244.52C190.739 244.888 190.38 245.427 190.183 246.058C191.069 245.654 191.915 245.072 191.931 244.776C191.931 244.677 191.8 244.589 191.718 244.539C191.636 244.476 191.543 244.436 191.447 244.421V244.46Z" fill="#263238"/>
<path opacity="0.2" d="M158.102 139.787C160.694 133.354 162.499 128.047 162.499 128.047C162.499 128.047 163.065 144.354 161.383 156.657L158.102 139.787Z" fill="black"/>
<path d="M152.859 27.0452C152.859 27.0452 146.624 23.2865 141.767 26.5618C139.527 28.0811 138.854 31.682 138.485 34.4542C137.944 38.4003 137.976 42.3465 137.665 46.2927C137.562 47.9565 137.227 49.5876 136.672 51.1169C135.851 53.1492 134.67 57.6379 134.67 57.6379L138.419 58.5456L139.666 56.5725L139.929 58.9204L150.455 61.4756L151.194 59.5025L151.932 61.8801L154.878 61.3177L155.92 58.4962L156.445 61.0218L160.736 60.2029L161.556 57.1249L162.557 59.8478L165.724 59.2361L165.65 50.0909C165.65 50.0909 165.191 44.1223 164.789 41.0541C164.478 38.3305 163.848 35.6734 162.918 33.1618C160.99 28.2389 157.364 25.7528 152.859 27.0452Z" fill="#263238"/>
<path d="M163.721 61.998C167.003 62.7774 179.195 76.3917 177.989 82.7155C176.783 89.0392 166.823 97.3952 166.823 97.3952C166.823 97.3952 172.09 98.9737 172.106 99.7826C172.123 100.592 168.972 104.903 168.513 105.051C166.925 104.253 165.389 103.314 163.918 102.239C163.213 101.667 162.991 98.3818 162.991 98.3818C165.452 94.3468 172.336 84.2939 172.492 82.4886C172.648 80.6832 162.958 71.6859 162.958 71.6859C162.958 71.6859 161.711 67.059 162.138 64.6913C162.564 62.3236 163.721 61.998 163.721 61.998Z" fill="#EEC1BB"/>
<path d="M162.934 72.1399C161.786 67.2072 161.121 62.5211 163.443 61.5839C165.765 60.6467 178.326 75.3166 178.072 82.0744C177.883 87.1058 168.407 96.6358 168.407 96.6358L165.74 93.3506C165.74 93.3506 171.951 83.2681 172.107 82.0941C172.263 80.9201 162.934 72.1399 162.934 72.1399Z" fill="#467CA6"/>
<path opacity="0.3" d="M162.934 72.1399C161.786 67.2072 161.121 62.5211 163.443 61.5839C165.765 60.6467 178.326 75.3166 178.072 82.0744C177.883 87.1058 168.407 96.6358 168.407 96.6358L165.74 93.3506C165.74 93.3506 171.894 83.3076 172.107 82.0941C172.32 80.8807 162.934 72.1399 162.934 72.1399Z" fill="black"/>
<path opacity="0.2" d="M167.833 76.8556L164.748 73.8566L165.322 69.3086L167.833 76.8556Z" fill="black"/>
<path d="M143.414 103.019V106.847L165.123 104.845V100.326L143.414 103.019Z" fill="#263238"/>
<path d="M159.992 101.239L155.244 101.751L155.566 106.073L160.314 105.562L159.992 101.239Z" fill="white"/>
<path d="M150.569 101.423L149.496 101.489L149.776 108.081L150.849 108.015L150.569 101.423Z" fill="#407BFF"/>
<path opacity="0.6" d="M150.569 101.423L149.496 101.489L149.776 108.081L150.849 108.015L150.569 101.423Z" fill="white"/>
<path d="M163.825 99.6764L162.752 99.7422L163.032 106.334L164.105 106.268L163.825 99.6764Z" fill="#407BFF"/>
<path opacity="0.6" d="M163.825 99.6764L162.752 99.7422L163.032 106.334L164.105 106.268L163.825 99.6764Z" fill="white"/>
<path d="M165.094 100.78L143.385 103.039C142.868 93.3318 144.205 87.304 139.397 70.0099C138.987 68.5005 138.684 65.4225 138.191 63.7257C141.129 62.9167 142.179 62.966 145.231 62.3544C148.451 61.6648 151.709 61.2494 154.978 61.1113C159.203 61.1113 164.052 61.6539 164.052 61.6539C164.052 61.6539 164.749 61.8512 165.176 67.2279C165.578 72.2889 165.964 82.3911 165.094 100.78Z" fill="#467CA6"/>
<path opacity="0.3" d="M165.094 100.78L143.393 103.039C143.098 97.5636 143.59 93.4497 142.802 87.0964C142.248 82.0704 141.308 77.1167 139.996 72.2982C139.808 71.5583 139.537 70.5323 139.324 69.753C138.913 68.2337 138.684 65.4812 138.191 63.7745C141.194 62.9557 142.179 63.005 145.231 62.3933C148.452 61.7114 151.709 61.2993 154.978 61.1602C159.203 61.1602 164.052 61.7028 164.052 61.7028C164.052 61.7028 164.749 61.9001 165.176 67.2767C165.578 72.2785 165.964 82.3906 165.094 100.78Z" fill="black"/>
<path d="M153.186 66.8819C147.837 66.063 146.229 63.3106 146.229 63.3106C149.617 59.4631 146.803 52.7842 146.803 52.7842L153.243 54.2344C153.091 55.3104 153.006 56.3987 152.989 57.49C152.94 62.1958 154.704 62.2353 154.704 62.2353C155.836 64.7411 153.186 66.8819 153.186 66.8819Z" fill="#EEC1BB"/>
<path opacity="0.2" d="M153.243 54.2341C153.15 54.7592 153.103 55.2948 153.104 55.8319L152.997 57.0845L146.803 52.7842L153.243 54.2341Z" fill="black"/>
<path d="M159.588 50.5642C159.531 50.801 159.481 51.0279 159.416 51.2449C158.653 54.0664 157.004 55.7929 154.099 55.8718C153.677 55.8906 153.255 55.8708 152.836 55.8126C152.565 55.8126 152.278 55.7337 152.015 55.6745C142.104 53.7014 141.628 32.0764 151.195 31.4351C156.938 31.0504 158.981 34.6513 159.728 41.7642C160.122 44.6837 160.075 47.6649 159.588 50.5642Z" fill="#EEC1BB"/>
<path d="M155.969 41.627C156.476 42.6315 157.082 43.5588 157.774 44.3886C157.618 44.6864 157.397 44.9268 157.135 45.0834C156.873 45.24 156.58 45.3067 156.289 45.2763L155.969 41.627Z" fill="#D58745"/>
<path d="M145.401 43.541C145.401 43.541 147.863 37.6711 147.231 33.3007C147.231 33.3007 158.405 26.9277 159.603 40.8379C159.603 40.8379 160.153 28.3779 150.234 28.7626C140.314 29.1474 141.143 46.5697 146.501 51.4531C146.501 51.4235 143.9 47.211 145.401 43.541Z" fill="#263238"/>
<path d="M146.417 44.9402C146.326 44.1424 145.974 43.4209 145.441 42.9343C144.907 42.4478 144.234 42.2361 143.57 42.3456C141.79 42.6909 141.109 47.16 145.638 47.9295C146.27 48.038 146.598 47.2685 146.417 44.9402Z" fill="#EEC1BB"/>
<path d="M152.655 41.2723C152.655 41.8054 152.409 42.2595 152.113 42.2595C151.818 42.2595 151.58 41.8251 151.588 41.2723C151.596 40.7195 151.834 40.2852 152.13 40.2852C152.425 40.2852 152.663 40.7392 152.655 41.2723Z" fill="#263238"/>
<path d="M152.006 40.3254L152.974 39.8809C152.974 39.8809 152.49 40.849 152.006 40.3254Z" fill="#263238"/>
<path d="M158.176 41.2225C158.176 41.7556 157.93 42.2097 157.635 42.2097C157.339 42.2097 157.102 41.7654 157.102 41.2225C157.102 40.6796 157.356 40.2354 157.651 40.2354C157.947 40.2354 158.185 40.6894 158.176 41.2225Z" fill="#263238"/>
<path d="M157.527 40.2756L158.495 39.8311C158.495 39.8311 158.003 40.7992 157.527 40.2756Z" fill="#263238"/>
<path d="M150.384 37.9987C150.331 38.0038 150.278 37.99 150.231 37.9589C150.185 37.9277 150.147 37.8808 150.122 37.8238C150.098 37.7669 150.088 37.7025 150.093 37.6387C150.099 37.5749 150.12 37.5146 150.154 37.4653C150.496 37.0648 150.91 36.7667 151.365 36.5951C151.82 36.4235 152.302 36.3831 152.772 36.4774C152.841 36.4905 152.904 36.5363 152.945 36.6049C152.987 36.6734 153.004 36.759 152.993 36.8429C152.982 36.9267 152.944 37.0019 152.887 37.0519C152.83 37.102 152.759 37.1227 152.69 37.1096C152.309 37.0419 151.92 37.0777 151.553 37.2144C151.185 37.3512 150.847 37.5854 150.565 37.8999C150.515 37.955 150.451 37.9896 150.384 37.9987Z" fill="#263238"/>
<path d="M158.825 37.6143C158.761 37.621 158.697 37.6 158.644 37.555C158.382 37.2951 158.076 37.1081 157.747 37.0073C157.418 36.9066 157.074 36.8946 156.741 36.9722C156.674 36.9972 156.601 36.9896 156.538 36.9508C156.475 36.9121 156.427 36.8453 156.405 36.7647C156.384 36.6835 156.39 36.5957 156.422 36.52C156.455 36.4444 156.51 36.3868 156.577 36.3597C156.989 36.2448 157.418 36.2447 157.83 36.3594C158.242 36.4741 158.628 36.7006 158.956 37.0216C159.014 37.0728 159.052 37.1494 159.063 37.2345C159.074 37.3197 159.056 37.4065 159.014 37.476C158.993 37.5147 158.965 37.5472 158.932 37.5711C158.9 37.595 158.863 37.6098 158.825 37.6143Z" fill="#263238"/>
<path d="M156.15 48.3073C156.284 48.317 156.418 48.317 156.552 48.3073C156.573 48.3061 156.594 48.2997 156.613 48.2885C156.632 48.2773 156.649 48.2615 156.663 48.242C156.677 48.2226 156.687 48.2 156.694 48.1756C156.7 48.1512 156.702 48.1255 156.7 48.1C156.696 48.0494 156.675 48.0027 156.643 47.9696C156.611 47.9365 156.57 47.9195 156.528 47.9223C155.836 48.0301 155.132 47.912 154.491 47.5802C153.85 47.2485 153.296 46.7154 152.885 46.0369C152.86 45.9939 152.822 45.9638 152.78 45.9528C152.737 45.9419 152.692 45.9507 152.655 45.9776C152.62 46.0059 152.595 46.0494 152.586 46.099C152.577 46.1487 152.584 46.2007 152.606 46.2442C153.011 46.9116 153.546 47.4489 154.164 47.8087C154.782 48.1685 155.464 48.3397 156.15 48.3073Z" fill="#263238"/>
<path d="M149.037 27.8139C151.547 27.7153 154.041 28.334 156.314 29.6192C159.465 31.6713 159.596 34.8183 159.596 34.8183L158.496 34.3251L156.314 32.1843C156.613 32.8435 156.766 33.5842 156.757 34.3349C156.757 34.3349 156.076 32.5789 155.116 32.2928C155.237 32.7247 155.253 33.1893 155.161 33.6316C155.07 34.0739 154.875 34.4754 154.599 34.7887C154.399 33.8849 153.948 33.0909 153.319 32.5394C153.319 32.5394 153.484 33.526 151.843 34.7887C151.866 34.3227 151.793 33.8571 151.629 33.4335C151.466 33.01 151.218 32.6417 150.907 32.3618C150.907 32.3618 150.087 34.1573 149.037 34.4336C149.037 34.4336 149.857 33.526 149.685 32.9932C148.787 33.9663 147.666 34.5919 146.469 34.7887C144.672 34.9959 142.317 30.4184 149.037 27.8139Z" fill="#263238"/>
<path opacity="0.2" d="M144.886 47.1025C145.239 47.2666 145.579 47.468 145.903 47.7043C146.929 48.454 148.693 51.6504 148.693 51.6504C148.693 51.6504 150.202 54.0675 149.825 55.3697C149.614 56.0184 149.37 56.6509 149.095 57.2639L149.021 63.706L146.494 62.9661L146.806 55.863L144.779 47.7141C144.441 47.6002 144.114 47.4448 143.803 47.2505C144.142 47.0675 144.521 47.0158 144.886 47.1025Z" fill="black"/>
<path d="M148.813 59.8089V56.8493C149.088 56.7096 149.318 56.4649 149.466 56.1529C149.614 55.841 149.673 55.479 149.634 55.1229C149.486 53.8699 145.531 47.8816 145.203 47.7139C144.875 47.5462 141.642 48.7005 141.552 48.7005C141.462 48.7005 143.193 54.6789 146.565 56.8394L146.77 60.4699L148.813 59.8089Z" fill="#EEC1BB"/>
<path d="M154.704 62.2363H160.07L155.705 70.7897L142.455 64.5942L146.229 63.3117L154.704 62.2363Z" fill="#EEC1BB"/>
<path opacity="0.2" d="M151.399 85.1927C150.242 86.7218 144.442 82.7757 141.685 79.5694C140.971 75.7515 141.357 77.7838 139.732 71.2529L142.653 68.6582L144.647 70.3255L144.983 65.7775L145.73 66.1228L145.943 63.4098L145.123 63.6861L145.221 62.3542L146.042 62.1865L149.693 65.6394L149.816 68.0367L150.636 68.4116C150.636 68.4116 152.933 83.1802 151.399 85.1927Z" fill="black"/>
<path d="M138.215 63.7556C139.782 63.1834 145.23 72.9009 145.23 72.9009L146.444 57.3135L149.209 58.1224C149.209 58.1224 151.129 81.5331 149.209 82.5591C147.289 83.5851 142.35 80.2506 137.567 71.8354C135.803 68.7475 136.345 64.3969 138.215 63.7556Z" fill="#467CA6"/>
<path opacity="0.3" d="M138.215 63.7556C139.782 63.1834 145.23 72.9009 145.23 72.9009L146.444 57.3135L149.209 58.1224C149.209 58.1224 151.129 81.5331 149.209 82.5591C147.289 83.5851 142.35 80.2506 137.567 71.8354C135.803 68.7475 136.345 64.3969 138.215 63.7556Z" fill="black"/>
</svg>
