<svg width="268" height="260" viewBox="0 0 268 260" fill="none" xmlns="http://www.w3.org/2000/svg">
<path d="M22.0826 194.081L100.812 248.729C101.817 249.343 102.929 249.664 104.057 249.664C105.185 249.664 106.296 249.343 107.302 248.729L255.531 145.815C257.323 144.569 257.323 142.551 255.531 141.305L176.827 86.6495C175.821 86.0388 174.709 85.7207 173.582 85.7207C172.455 85.7207 171.344 86.0388 170.337 86.6495L22.0826 189.572C20.2902 190.817 20.2902 192.835 22.0826 194.081Z" fill="#E0E0E0"/>
<path d="M27.3361 175.228C26.2365 176.252 26.3573 177.712 27.6921 178.636L100.993 229.532C101.82 230.035 102.733 230.297 103.66 230.297C104.586 230.297 105.499 230.035 106.326 229.532L246.419 132.281C247.773 131.341 247.881 129.858 246.731 128.834C247.42 129.459 247.987 130.258 248.393 131.174C248.8 132.09 249.035 133.102 249.082 134.138V138.373C249.034 139.487 248.767 140.571 248.303 141.537C247.839 142.503 247.191 143.323 246.413 143.929L106.339 241.172C105.511 241.677 104.597 241.94 103.669 241.94C102.741 241.94 101.827 241.677 100.999 241.172L27.6984 190.285C26.9208 189.679 26.2737 188.861 25.8107 187.896C25.3477 186.931 25.0819 185.848 25.0352 184.736V180.486C25.0842 179.463 25.3149 178.464 25.7118 177.557C26.1087 176.65 26.6626 175.856 27.3361 175.228Z" fill="#004E89"/>
<path opacity="0.5" d="M27.3361 175.228C26.2365 176.252 26.3573 177.712 27.6921 178.636L100.993 229.532C101.82 230.035 102.733 230.297 103.66 230.297C104.586 230.297 105.499 230.035 106.326 229.532L246.419 132.281C247.773 131.341 247.881 129.858 246.731 128.834C247.42 129.459 247.987 130.258 248.393 131.174C248.8 132.09 249.035 133.102 249.082 134.138V138.373C249.034 139.487 248.767 140.571 248.303 141.537C247.839 142.503 247.191 143.323 246.413 143.929L106.339 241.172C105.511 241.677 104.597 241.94 103.669 241.94C102.741 241.94 101.827 241.677 100.999 241.172L27.6984 190.285C26.9208 189.679 26.2737 188.861 25.8107 187.896C25.3477 186.931 25.0819 185.848 25.0352 184.736V180.486C25.0842 179.463 25.3149 178.464 25.7118 177.557C26.1087 176.65 26.6626 175.856 27.3361 175.228Z" fill="black"/>
<path d="M27.693 178.636L100.994 229.531C101.821 230.034 102.734 230.297 103.66 230.297C104.587 230.297 105.5 230.034 106.327 229.531L246.42 132.281C247.888 131.256 247.888 129.598 246.42 128.581L173.119 77.6782C172.292 77.1752 171.379 76.9131 170.453 76.9131C169.526 76.9131 168.613 77.1752 167.786 77.6782L27.693 174.937C26.2247 175.961 26.2247 177.619 27.693 178.636ZM156.51 90.8397C157.781 89.9607 159.053 90.4728 160.324 91.3518L226.976 137.623C228.247 138.494 228.247 139.916 226.976 140.795L117.927 216.515C117.217 216.945 116.434 217.169 115.639 217.169C114.844 217.169 114.06 216.945 113.351 216.515L46.7048 170.244C45.4335 169.365 45.4335 167.951 46.7048 167.072L156.51 90.8397Z" fill="#004E89"/>
<path opacity="0.3" d="M27.693 178.636L100.994 229.531C101.821 230.034 102.734 230.297 103.66 230.297C104.587 230.297 105.5 230.034 106.327 229.531L246.42 132.281C247.888 131.256 247.888 129.598 246.42 128.581L173.119 77.6782C172.292 77.1752 171.379 76.9131 170.453 76.9131C169.526 76.9131 168.613 77.1752 167.786 77.6782L27.693 174.937C26.2247 175.961 26.2247 177.619 27.693 178.636ZM156.51 90.8397C157.781 89.9607 159.053 90.4728 160.324 91.3518L226.976 137.623C228.247 138.494 228.247 139.916 226.976 140.795L117.927 216.515C117.217 216.945 116.434 217.169 115.639 217.169C114.844 217.169 114.06 216.945 113.351 216.515L46.7048 170.244C45.4335 169.365 45.4335 167.951 46.7048 167.072L156.51 90.8397Z" fill="black"/>
<path d="M246.732 128.827C247.421 129.452 247.989 130.251 248.395 131.167C248.801 132.083 249.036 133.095 249.084 134.131V138.366C249.035 139.479 248.767 140.563 248.303 141.529C247.839 142.495 247.192 143.315 246.414 143.922L106.34 241.173C105.516 241.695 104.595 241.957 103.664 241.937V230.289C104.592 230.313 105.509 230.05 106.327 229.525L246.42 132.274C247.774 131.334 247.901 129.851 246.732 128.827Z" fill="#004E89"/>
<path opacity="0.6" d="M246.732 128.827C247.421 129.452 247.989 130.251 248.395 131.167C248.801 132.083 249.036 133.095 249.084 134.131V138.366C249.035 139.479 248.767 140.563 248.303 141.529C247.839 142.495 247.192 143.315 246.414 143.922L106.34 241.173C105.516 241.695 104.595 241.957 103.664 241.937V230.289C104.592 230.313 105.509 230.05 106.327 229.525L246.42 132.274C247.774 131.334 247.901 129.851 246.732 128.827Z" fill="black"/>
<path d="M202.771 108.128C201.779 107.44 201.779 106.332 202.771 105.644C203.324 105.306 203.936 105.129 204.557 105.129C205.178 105.129 205.79 105.306 206.343 105.644C207.329 106.332 207.329 107.44 206.343 108.128C205.789 108.463 205.177 108.638 204.557 108.638C203.937 108.638 203.325 108.463 202.771 108.128Z" fill="black"/>
<path d="M71.2698 202.781C69.7492 202.816 68.2463 202.385 66.903 201.527C65.6762 200.671 64.9961 199.517 64.9961 198.271C64.9961 197.025 65.6699 195.871 66.903 195.023C68.2576 194.198 69.7551 193.768 71.2737 193.77C72.7923 193.771 74.2893 194.203 75.6429 195.031C76.8697 195.879 77.5498 197.033 77.5498 198.279C77.5498 199.525 76.876 200.679 75.6429 201.535C74.2972 202.391 72.7919 202.82 71.2698 202.781ZM71.2698 194.518C69.8598 194.484 68.4659 194.884 67.2208 195.68C66.1974 196.391 65.6381 197.308 65.6381 198.271C65.6381 199.234 66.1974 200.151 67.2208 200.862C68.4757 201.627 69.8629 202.026 71.2698 202.026C72.6767 202.026 74.0638 201.627 75.3187 200.862C76.3421 200.151 76.9015 199.234 76.9015 198.271C76.9015 197.308 76.3421 196.391 75.3187 195.68C74.073 194.886 72.6796 194.486 71.2698 194.518Z" fill="#E6E6E6"/>
<path d="M204.499 116.36L190.693 106.776C189.873 106.21 189.828 105.308 190.604 104.773C191.055 104.509 191.551 104.377 192.053 104.387C192.554 104.398 193.047 104.551 193.489 104.835L207.289 114.419C208.115 114.985 208.153 115.886 207.384 116.421C206.932 116.682 206.436 116.812 205.935 116.801C205.434 116.79 204.943 116.64 204.499 116.36Z" fill="black"/>
<path d="M156.511 90.8401C157.782 89.9611 159.053 90.4732 160.324 91.3522L226.977 137.624C228.248 138.495 228.248 139.916 226.977 140.795L117.928 216.516C117.218 216.946 116.434 217.17 115.64 217.17C114.845 217.17 114.061 216.946 113.351 216.516L46.7054 170.244C45.4341 169.365 45.4341 167.951 46.7054 167.072L156.511 90.8401Z" fill="#FAFAFA"/>
<path d="M50.7155 140.832L48.5226 139.303C48.4623 139.274 48.4127 139.22 48.3827 139.151L47.0098 135.161L48.7959 133.915L48.745 134.106L50.7155 140.832Z" fill="#004E89"/>
<g opacity="0.4">
<path d="M50.7155 140.832L48.5226 139.303C48.4623 139.274 48.4127 139.22 48.3827 139.151L47.0098 135.161L48.7959 133.915L48.745 134.106L50.7155 140.832Z" fill="black"/>
</g>
<path d="M48.5234 134.114L50.6083 140.702C50.6377 140.765 50.6816 140.816 50.7347 140.85C50.7878 140.883 50.8478 140.898 50.9076 140.891C50.9673 140.885 51.0243 140.858 51.0715 140.813C51.1188 140.769 51.1544 140.709 51.174 140.641L53.4051 130.743L48.5234 134.114Z" fill="#004E89"/>
<path opacity="0.2" d="M48.5234 134.114L50.6083 140.702C50.6377 140.765 50.6816 140.816 50.7347 140.85C50.7878 140.883 50.8478 140.898 50.9076 140.891C50.9673 140.885 51.0243 140.858 51.0715 140.813C51.1188 140.769 51.1544 140.709 51.174 140.641L53.4051 130.743L48.5234 134.114Z" fill="black"/>
<path d="M82.0763 42.2737C82.0513 41.6622 81.9064 41.0665 81.6535 40.5352C81.4005 40.0038 81.0466 39.552 80.6207 39.2165L79.4639 38.4139C79.0117 38.1386 78.5119 37.9951 78.0051 37.9951C77.4982 37.9951 76.9985 38.1386 76.5463 38.4139L39.6861 63.9878C39.2591 64.3219 38.9044 64.7734 38.6513 65.3051C38.3982 65.8367 38.2539 66.4331 38.2305 67.045V133.54C38.2539 134.152 38.3982 134.748 38.6513 135.28C38.9044 135.812 39.2591 136.263 39.6861 136.597L40.8747 137.423C41.3258 137.698 41.8245 137.841 42.3303 137.841C42.8361 137.841 43.3348 137.698 43.7859 137.423L80.5254 111.895C80.9822 111.545 81.3622 111.067 81.6332 110.503C81.9043 109.939 82.0584 109.305 82.0827 108.654L82.0763 42.2737Z" fill="#004E89"/>
<path opacity="0.3" d="M43.8678 137.33L80.5247 111.886C80.9776 111.531 81.3545 111.053 81.6251 110.49C81.8956 109.927 82.0521 109.295 82.082 108.646V42.4105C82.082 41.2182 81.3891 40.7367 80.531 41.3329L43.8678 66.7538C43.415 67.1091 43.038 67.5876 42.7675 68.1506C42.4969 68.7136 42.3404 69.3453 42.3105 69.9945V136.253C42.3105 137.445 43.0097 137.926 43.8678 137.33Z" fill="black"/>
<path d="M47.9127 128.387L76.5161 108.553C76.8585 108.284 77.1434 107.922 77.3477 107.496C77.552 107.069 77.67 106.591 77.6921 106.1V51.0697C77.6921 50.1602 77.1645 49.8009 76.5161 50.2519L47.9127 70.1087C47.5688 70.3766 47.2824 70.7385 47.077 71.1649C46.8715 71.5913 46.7528 72.0701 46.7305 72.5621V127.592C46.7305 128.471 47.258 128.838 47.9127 128.387Z" fill="#004E89"/>
<path opacity="0.5" d="M38.2305 133.556C38.2539 134.167 38.3982 134.764 38.6513 135.295C38.9044 135.827 39.2591 136.279 39.6861 136.613L40.8747 137.438C41.2846 137.689 41.7341 137.831 42.1933 137.856C42.6526 137.881 43.111 137.788 43.538 137.583C42.8515 137.897 42.3303 137.423 42.3303 136.429V69.8731C42.3493 69.2635 42.4958 68.6694 42.7562 68.1458L38.6563 65.2949C38.3931 65.817 38.2464 66.412 38.2305 67.0223V133.556Z" fill="black"/>
<path opacity="0.1" d="M82.0694 42.1661C82.0694 41.3177 81.4337 40.6986 80.5248 41.3253L43.7853 66.8304C43.3511 67.1519 42.9974 67.6088 42.7619 68.1526L38.6621 65.3094C38.9012 64.7727 39.2543 64.3217 39.6855 64.0024L76.5139 38.4286C76.9661 38.1532 77.4659 38.0098 77.9727 38.0098C78.4796 38.0098 78.9793 38.1532 79.4315 38.4286L80.6201 39.254C81.0283 39.5771 81.3706 40.0067 81.6215 40.5109C81.8724 41.0151 82.0255 41.5808 82.0694 42.1661Z" fill="black"/>
<path d="M78.051 87.299C74.1483 87.4366 63.7176 86.7411 63.7176 86.7411C60.4913 84.5937 57.8023 81.4464 55.93 77.6265C54.0577 73.8066 53.0704 69.4534 53.0707 65.0193V61.129C53.0467 57.5405 54.0414 54.0495 55.8905 51.2327C57.7396 48.4158 60.3325 46.4417 63.2408 45.6364C64.9972 45.1569 66.8209 45.159 68.5765 45.6424C70.3322 46.1258 71.9748 47.0782 73.3827 48.429C74.7905 49.7797 75.9274 51.4942 76.7092 53.4453C77.4909 55.3964 77.8974 57.534 77.8985 59.6997C77.8985 61.6105 78.1782 63.3379 79.3795 64.7213C80.0461 65.4192 80.7777 66.022 81.5597 66.5174C82.6738 67.2528 83.6634 68.2327 84.4773 69.4065C84.8828 69.9957 85.1825 70.6795 85.3576 71.4148C85.5326 72.1501 85.5792 72.921 85.4943 73.679C85.3316 74.6476 84.9437 75.5408 84.3756 76.2547C84.3192 76.289 84.2706 76.3394 84.2341 76.4014C84.1976 76.4634 84.1743 76.5352 84.1662 76.6106C84.158 76.6859 84.1653 76.7625 84.1874 76.8337C84.2095 76.9049 84.2457 76.9685 84.2929 77.019C85.3354 78.9604 85.7676 81.5514 84.8904 83.615C84.297 84.907 83.3456 85.9077 82.2017 86.443C81.0675 86.9749 79.8655 87.2671 78.6485 87.3066L78.051 87.299Z" fill="#263238"/>
<path d="M58.9014 89.1568C58.7227 90.8799 58.1641 92.5141 57.2834 93.8903C56.4027 95.2664 55.232 96.3343 53.8926 96.9833L48.5279 127.961L46.7354 129.199L46.6719 92.5121C48.2355 83.1722 50.9179 82.0869 55.7296 80.4131C55.7233 80.436 59.6324 83.4398 58.9014 89.1568Z" fill="#B16668"/>
<path d="M103.619 87.8573C101.138 93.0635 98.4353 98.1122 95.5211 102.983C94.7965 104.137 92.7816 107.332 91.7074 107.653C90.3662 108.05 89.222 106.774 88.5292 106.185C86.0947 104.152 73.5029 89.0955 73.5029 89.0955C69.581 82.5224 70.5726 78.334 71.1002 78.334C71.6278 78.334 75.6513 77.0652 79.0964 81.1084C81.6962 84.1657 90.595 95.2252 90.595 95.2252C92.6989 92.2597 94.0783 90.7922 96.1758 87.8114C97.1928 86.3669 98.7184 84.8077 98.8201 82.8128C98.8091 81.901 98.7411 80.9915 98.6167 80.0919C98.4893 78.0125 98.5983 75.922 98.9408 73.8781C98.9493 73.7852 98.9708 73.6947 99.0044 73.6105C99.0615 73.4958 99.1487 73.4071 99.2523 73.3583C99.4455 73.2928 99.6512 73.306 99.8375 73.3959C100.024 73.4857 100.18 73.6472 100.282 73.8551C100.478 74.2761 100.585 74.7485 100.593 75.2309C100.603 75.7148 100.69 76.192 100.848 76.6372C100.884 76.7265 100.936 76.8049 101 76.8665C101.073 76.9184 101.157 76.9449 101.242 76.9429C101.725 76.9429 101.979 76.3238 102.151 75.8653C102.565 74.7995 102.901 73.6921 103.155 72.5558C103.327 71.7915 103.625 71.0272 103.842 70.2629C103.934 69.8004 104.14 69.3822 104.433 69.0629C104.721 68.8874 105.042 68.8082 105.365 68.8338C105.687 68.8593 105.997 68.9886 106.263 69.2081C106.585 69.3964 106.89 69.6244 107.172 69.8883C107.992 70.7977 108.533 72.0116 108.71 73.3354C108.94 74.8654 108.855 76.4398 108.463 77.9212C107.965 80.0082 107.148 81.9652 106.054 83.6918C105.208 85.0828 104.318 86.3975 103.619 87.8573Z" fill="#B16668"/>
<path d="M75.8657 98.4043L75.6115 104.733L76.3869 108.623L63.8396 117.336L51.127 126.141L55.3984 109.861L53.8602 96.9903C54.0254 96.8222 55.9069 94.5445 56.5171 89.1638C57.0892 84.02 56.0213 80.9551 55.6908 80.443C55.8624 80.3742 59.6762 79.136 59.6762 79.136L67.8059 78.3717L71.1748 78.3105C74.0601 80.8491 76.3166 84.2838 77.7027 88.2466C79.724 94.1929 75.8657 98.4043 75.8657 98.4043Z" fill="#FAFAFA"/>
<path opacity="0.1" d="M58.1018 117.169C58.6421 114.272 61.6168 112.706 60.4409 111.536C59.265 110.367 56.2585 103.029 55.947 99.6589C55.7576 97.0448 55.7576 94.4158 55.947 91.8018C55.2033 96.1813 53.6333 98.092 53.4871 98.2449L55.0253 111.116L50.7539 127.396L61.8012 119.753C59.2523 119.783 57.7903 118.828 58.1018 117.169Z" fill="black"/>
<path opacity="0.9" d="M73.8014 53.074C73.5598 55.9096 70.922 58.8981 66.9938 61.5349C63.0656 64.1718 60.1035 64.0725 60.1035 64.0725C70.0511 57.8815 72.4729 50.4219 72.4729 50.4219C73.8014 51.1174 73.8014 53.074 73.8014 53.074Z" fill="#004E89"/>
<path d="M73.7971 53.0732C74.6108 54.0592 75.704 56.6426 75.6151 65.3022C75.5197 72.6243 73.562 74.4739 72.5704 74.9784C71.5788 75.4828 69.6719 75.2077 67.8095 74.8484V78.4178C67.8095 78.4178 70.352 81.8572 70.1741 83.8673C69.9961 85.8774 67.4472 87.3679 62.6609 83.103C60.3345 81.0164 59.6798 79.1744 59.6798 79.1744V69.5594C59.6798 69.5594 58.5929 70.8435 56.7305 68.9098C55.1859 67.3123 54.6583 64.6067 55.8406 63.1392C56.1474 62.7902 56.5188 62.534 56.9241 62.3916C57.3295 62.2493 57.7572 62.2249 58.172 62.3204C58.5868 62.416 58.9767 62.6288 59.3096 62.9413C59.6425 63.2537 59.9088 63.6569 60.0866 64.1175C60.0866 64.1175 63.0486 64.2245 66.9832 61.5877C70.9177 58.9508 73.5493 55.9241 73.7971 53.0732Z" fill="#B16668"/>
<path d="M68.5869 63.209C68.6027 63.4574 68.5359 63.7032 68.4013 63.8924C68.2666 64.0817 68.0751 64.199 67.8686 64.2185C67.6611 64.2248 67.4597 64.133 67.3077 63.963C67.1556 63.7929 67.0649 63.5579 67.055 63.3084C67.0416 63.1822 67.05 63.054 67.0796 62.9319C67.1092 62.8097 67.1594 62.6962 67.2272 62.5985C67.2949 62.5008 67.3786 62.4209 67.4731 62.3638C67.5676 62.3068 67.6709 62.2738 67.7765 62.267C67.8821 62.2601 67.9877 62.2795 68.0868 62.324C68.1859 62.3685 68.2763 62.4371 68.3523 62.5255C68.4284 62.6139 68.4885 62.7202 68.5288 62.8378C68.5692 62.9554 68.589 63.0818 68.5869 63.209Z" fill="#263238"/>
<path d="M68.6885 69.498L70.7225 70.2632C70.6882 70.4273 70.6265 70.5813 70.5411 70.7158C70.4558 70.8503 70.3486 70.9625 70.2261 71.0455C70.1036 71.1286 69.9684 71.1807 69.8286 71.1988C69.6888 71.2169 69.5475 71.2006 69.4131 71.1508C69.1381 71.0418 68.909 70.8086 68.7739 70.5004C68.6387 70.1922 68.6081 69.8329 68.6885 69.498Z" fill="#9A4A4D"/>
<path d="M75.069 60.6192L73.5117 59.3414C73.5757 59.2171 73.6598 59.1097 73.759 59.0255C73.8582 58.9414 73.9705 58.8821 74.0892 58.8514C74.2079 58.8207 74.3305 58.8191 74.4497 58.8468C74.5689 58.8744 74.6823 58.9307 74.783 59.0123C74.9938 59.1839 75.1413 59.447 75.1946 59.7465C75.248 60.046 75.2029 60.3588 75.069 60.6192Z" fill="#263238"/>
<path d="M74.7267 62.8037C74.7277 62.9832 74.6849 63.1592 74.6036 63.3098C74.5224 63.4605 74.4062 63.5791 74.2696 63.651C74.1329 63.723 73.9817 63.7451 73.8347 63.7147C73.6876 63.6842 73.5513 63.6026 73.4424 63.4798C73.3335 63.357 73.257 63.1985 73.2222 63.0238C73.1874 62.8492 73.1959 62.6661 73.2467 62.4973C73.2975 62.3284 73.3883 62.1812 73.5078 62.0738C73.6274 61.9664 73.7705 61.9036 73.9194 61.8931C74.0221 61.889 74.1244 61.9093 74.2206 61.9529C74.3168 61.9964 74.4048 62.0624 74.4798 62.147C74.5548 62.2315 74.6152 62.3331 74.6575 62.4457C74.6999 62.5584 74.7234 62.68 74.7267 62.8037Z" fill="#263238"/>
<path d="M71.2759 61.8311L71.2695 67.8233L73.6913 66.9061L71.2759 61.8311Z" fill="#9A4A4D"/>
<path d="M67.8113 74.8255C65.8535 74.5351 61.8173 73.1823 61.1816 71.2715C61.4388 72.2374 61.9357 73.0856 62.6055 73.702C63.8195 74.9325 67.824 76.293 67.824 76.293L67.8113 74.8255Z" fill="#9A4A4D"/>
<path d="M60.1152 67.0816C60.5215 67.0816 60.9112 66.8876 61.1984 66.5422C61.4857 66.1968 61.6471 65.7284 61.6471 65.24C61.6471 64.7516 61.4857 64.2832 61.1984 63.9378C60.9112 63.5925 60.5215 63.3984 60.1152 63.3984V67.0816Z" fill="#263238"/>
<path d="M112.679 189.388L110.486 187.859C110.427 187.827 110.378 187.774 110.346 187.706L108.967 183.717L110.759 182.471L110.702 182.662L112.679 189.388Z" fill="#004E89"/>
<g opacity="0.4">
<path d="M112.679 189.387L110.486 187.858C110.427 187.826 110.378 187.773 110.346 187.705L108.967 183.716L110.759 182.47L110.702 182.661L112.679 189.387Z" fill="black"/>
</g>
<path d="M110.486 182.67L112.571 189.259C112.601 189.322 112.645 189.373 112.698 189.407C112.751 189.44 112.811 189.455 112.87 189.448C112.93 189.442 112.987 189.415 113.034 189.37C113.082 189.326 113.117 189.266 113.137 189.198L115.336 179.3L110.486 182.67Z" fill="#004E89"/>
<path opacity="0.2" d="M110.486 182.67L112.571 189.259C112.601 189.322 112.645 189.373 112.698 189.407C112.751 189.44 112.811 189.455 112.87 189.448C112.93 189.442 112.987 189.415 113.034 189.37C113.082 189.326 113.117 189.266 113.137 189.198L115.336 179.3L110.486 182.67Z" fill="black"/>
<path d="M144.037 90.8297C144.014 90.2178 143.87 89.6214 143.616 89.0898C143.363 88.5582 143.009 88.1066 142.582 87.7725L141.393 86.947C140.942 86.6718 140.443 86.5283 139.937 86.5283C139.432 86.5283 138.933 86.6718 138.482 86.947L101.653 112.521C101.226 112.855 100.87 113.306 100.616 113.837C100.362 114.369 100.216 114.966 100.191 115.578V182.111C100.216 182.724 100.362 183.32 100.616 183.852C100.87 184.384 101.226 184.835 101.653 185.169L102.836 185.994C103.288 186.269 103.788 186.413 104.294 186.413C104.801 186.413 105.301 186.269 105.753 185.994L142.493 160.458C142.948 160.109 143.327 159.633 143.597 159.07C143.867 158.507 144.02 157.874 144.044 157.225L144.037 90.8297Z" fill="#004E89"/>
<path opacity="0.6" d="M109.869 176.945L138.472 157.111C138.815 156.841 139.099 156.479 139.304 156.053C139.508 155.627 139.626 155.149 139.648 154.657V99.6269C139.648 98.725 139.121 98.3582 138.472 98.8091L109.869 118.681C109.529 118.95 109.247 119.31 109.044 119.733C108.84 120.157 108.723 120.631 108.699 121.119V176.15C108.699 177.029 109.22 177.396 109.869 176.945Z" fill="white"/>
<path opacity="0.1" d="M100.191 182.111C100.216 182.723 100.362 183.32 100.616 183.851C100.87 184.383 101.226 184.834 101.653 185.168L102.836 185.993C103.247 186.241 103.698 186.383 104.158 186.408C104.618 186.433 105.077 186.341 105.505 186.138C104.819 186.452 104.298 185.978 104.298 184.984V118.489C104.316 117.878 104.465 117.284 104.73 116.762L100.624 113.911C100.363 114.435 100.217 115.029 100.198 115.638L100.191 182.111Z" fill="black"/>
<path opacity="0.6" d="M144.037 90.7294C144.037 89.881 143.363 89.2619 142.486 89.8887L105.753 115.394C105.32 115.713 104.965 116.164 104.723 116.701L100.623 113.857C100.866 113.322 101.221 112.872 101.653 112.55L138.481 86.969C138.933 86.6978 139.432 86.5566 139.937 86.5566C140.442 86.5566 140.94 86.6978 141.392 86.969L142.587 87.7944C142.996 88.1219 143.339 88.5556 143.59 89.0636C143.841 89.5716 143.993 90.1409 144.037 90.7294Z" fill="white"/>
<path d="M139.624 154.658V136.475C138.067 130.712 134.781 126.142 129.664 126.723L134.387 140.985L137.94 157.448L138.423 157.112C138.77 156.846 139.06 156.485 139.269 156.058C139.478 155.632 139.599 155.152 139.624 154.658Z" fill="#37474F"/>
<path d="M115.185 129.457C113.983 130.099 113.278 132.186 112.82 133.661C112.087 135.948 111.658 138.36 111.549 140.807L112.115 160.741L111.911 175.522L137.972 157.446C137.972 157.446 137.616 143.2 137.616 138.071C137.616 137.842 137.616 137.605 137.616 137.368C137.492 134.85 136.685 132.45 135.319 130.535C133.953 128.621 132.103 127.297 130.052 126.767C128.571 126.362 119.729 127.738 119.729 127.738L115.204 129.457H115.185Z" fill="#455A64"/>
<path d="M130.19 148.138C130.16 147.567 130.094 147 129.993 146.441C129.866 145.825 129.789 145.195 129.764 144.561C129.78 143.917 129.838 143.275 129.936 142.642C130.216 140.487 130.305 138.056 128.97 136.344C128.83 136.161 128.372 136.169 128.531 136.52C129.002 137.478 129.297 138.547 129.396 139.654C129.429 140.771 129.356 141.889 129.179 142.986C129.094 143.587 129.055 144.196 129.065 144.805C129.114 145.364 129.195 145.918 129.307 146.464C129.411 146.981 129.494 147.504 129.554 148.031C129.554 148.29 129.599 148.558 129.605 148.795C129.577 149.1 129.577 149.407 129.605 149.712C129.65 149.911 129.891 150.079 129.999 149.857C130.181 149.312 130.246 148.721 130.19 148.138Z" fill="#37474F"/>
<path d="M128.464 138.133C128.413 137.598 128.229 136.673 127.695 136.543C127.606 136.543 127.568 136.635 127.587 136.719C127.694 136.993 127.783 137.277 127.854 137.567C127.897 137.883 127.919 138.202 127.917 138.523C127.911 139.192 127.841 139.859 127.707 140.51C127.517 141.404 127.072 142.214 126.881 143.108C126.571 144.138 126.556 145.262 126.837 146.303C126.875 146.41 127.002 146.479 127.053 146.357C127.235 145.717 127.325 145.045 127.32 144.37C127.377 143.805 127.49 143.251 127.657 142.719C127.965 141.941 128.21 141.13 128.388 140.296C128.498 139.583 128.524 138.854 128.464 138.133Z" fill="#37474F"/>
<path d="M121.986 105.351C121.986 107.14 122.427 108.888 123.254 110.375C124.08 111.862 125.254 113.021 126.628 113.705C128.002 114.389 129.514 114.568 130.973 114.219C132.431 113.871 133.771 113.009 134.823 111.745C135.875 110.48 136.591 108.869 136.881 107.115C137.171 105.361 137.022 103.543 136.453 101.891C135.884 100.239 134.92 98.8269 133.683 97.8334C132.447 96.8399 130.993 96.3096 129.506 96.3096C127.512 96.3096 125.599 97.2622 124.189 98.9579C122.779 100.654 121.986 102.953 121.986 105.351Z" fill="#263238"/>
<path d="M116.506 111.779C116.506 111.779 117.726 118.658 118.216 119.797C118.54 120.494 119.075 121.013 119.709 121.249L119.627 116.403L116.506 111.779Z" fill="#263238"/>
<path d="M118.077 101.906C118.029 101.688 117.943 101.485 117.824 101.31C117.706 101.135 117.558 100.991 117.391 100.89C117.16 100.787 116.912 100.748 116.666 100.775C115.97 100.804 115.301 101.105 114.759 101.631C114.496 101.896 114.282 102.225 114.132 102.597C113.982 102.968 113.899 103.373 113.889 103.786C113.923 104.343 114.058 104.884 114.283 105.372C114.508 105.86 114.818 106.284 115.192 106.614C114.866 106.813 114.608 107.143 114.464 107.547C114.32 107.95 114.299 108.402 114.404 108.823C114.566 109.46 114.88 110.026 115.306 110.451C115.639 110.894 116.01 111.293 116.412 111.643C116.688 111.805 116.989 111.891 117.296 111.896C117.794 111.934 118.29 112.003 118.783 112.102L118.497 108.28C118.421 107.241 118.338 106.202 118.262 105.162C118.262 104.703 118.179 104.237 118.16 103.779C118.188 103.165 118.158 102.55 118.071 101.944L118.077 101.906Z" fill="#263238"/>
<path d="M119.508 112.1C119.051 112.428 118.396 111.335 117.824 110.655C117.252 109.975 115.408 108.966 114.48 111.305C113.552 113.644 115.3 116.846 116.756 117.419C119.298 118.367 119.648 116.426 119.648 116.426L119.832 128.655C122.96 133.478 131.636 133.103 128.019 128.074V123.725C129.139 123.939 130.275 124.008 131.407 123.931C133.257 123.587 134.42 121.837 134.979 119.429C135.882 115.562 136.251 112.444 135.456 104.846C134.623 96.5078 126.557 96.439 122.21 99.7179C117.862 102.997 119.508 112.1 119.508 112.1Z" fill="#FFA8A7"/>
<path d="M127.772 135.58C124.577 133.47 121.837 130.492 119.769 126.882V125.27C119.769 125.27 116.051 126.148 114.773 127.624C113.496 129.099 113.502 129.664 113.502 129.664L115.333 129.458C115.333 129.458 116.604 129.076 118.809 131.483C121.644 134.579 126.138 137.109 127.772 135.58Z" fill="#37474F"/>
<path d="M127.993 125.675V128.052C128.315 128.947 128.497 129.906 128.527 130.88C128.461 132.481 128.21 134.063 127.783 135.581C127.783 135.581 128.521 135.581 129.499 134.251C131.146 132.05 130.72 128.358 130.574 127.212C130.427 126.065 129.379 125.102 127.987 124.682L127.993 125.675Z" fill="#37474F"/>
<path d="M117.124 104.97C116.997 104.16 117.372 103.373 117.29 102.563C117.207 101.752 116.775 101.378 116.584 100.698C116.454 100.209 116.419 99.6908 116.482 99.1833C116.544 98.6757 116.703 98.1923 116.946 97.7704C117.195 97.3528 117.516 97.0044 117.887 96.7486C118.257 96.4928 118.669 96.3356 119.095 96.2876C119.318 96.2481 119.546 96.2629 119.764 96.3312C119.982 96.3995 120.187 96.5198 120.366 96.6851C120.336 96.023 120.512 95.3713 120.862 94.8584C121.3 94.1887 121.93 93.7392 122.629 93.5972C122.996 93.5398 123.368 93.5631 123.728 93.666C123.83 93.666 124.682 93.987 124.663 94.1246C124.753 93.5569 124.984 93.0349 125.324 92.6261C125.663 92.2174 126.098 91.9406 126.57 91.8317C127.042 91.744 127.524 91.8058 127.97 92.0109C128.416 92.2159 128.81 92.5572 129.112 93.0011C129.494 92.6563 129.944 92.4376 130.418 92.3665C130.892 92.2954 131.373 92.3746 131.814 92.596C132.257 92.7988 132.656 93.1233 132.977 93.5437C133.136 93.7521 133.277 93.9801 133.396 94.224C133.511 94.4533 133.524 94.7437 133.632 94.9501C134.331 94.6594 135.083 94.6065 135.805 94.7972C136.428 94.9971 136.984 95.4228 137.398 96.0163C137.812 96.6099 138.064 97.3425 138.119 98.1143C138.216 98.9861 138.032 99.8696 137.604 100.583C137.313 101.022 136.928 101.356 136.489 101.549C136.051 101.742 135.577 101.786 135.119 101.676C135.014 102.273 134.775 102.824 134.429 103.269C134.082 103.715 133.641 104.038 133.153 104.204C132.665 104.37 132.148 104.372 131.659 104.211C131.17 104.05 130.727 103.731 130.377 103.289C130.182 103.743 129.895 104.131 129.545 104.42C128.888 104.886 128.11 105.039 127.364 104.848C126.641 104.702 125.975 104.288 125.457 103.663C125.42 104.191 125.243 104.689 124.952 105.087C124.662 105.485 124.273 105.76 123.843 105.872C122.976 106.066 122.084 106.029 121.23 105.765C121.631 106.389 121.82 107.173 121.758 107.959C121.722 108.349 121.577 108.714 121.346 108.992C121.115 109.27 120.812 109.444 120.487 109.487C120.662 110.307 120.662 111.167 120.487 111.987C120.437 112.32 120.296 112.624 120.086 112.85C119.292 113.576 118.351 111.184 117.874 110.672C117.582 110.343 117.601 109.594 117.582 109.143C117.563 108.692 117.582 108.249 117.582 107.806C117.636 107.524 117.672 107.238 117.69 106.95C117.537 106.262 117.232 105.643 117.124 104.97Z" fill="#263238"/>
<path d="M116.571 101.499L113.787 99.7032C113.876 99.4778 114.001 99.2764 114.156 99.1111C114.311 98.9458 114.493 98.82 114.689 98.7414C114.886 98.6629 115.094 98.6331 115.301 98.6539C115.507 98.6747 115.708 98.7457 115.891 98.8626C116.264 99.1132 116.543 99.5266 116.669 100.017C116.796 100.508 116.761 101.038 116.571 101.499Z" fill="#263238"/>
<path d="M127.992 123.702C127.992 123.702 123.866 122.7 122.424 121.783C121.575 121.25 120.879 120.422 120.428 119.406C120.643 120.421 121.028 121.373 121.559 122.204C122.614 123.824 127.992 125.024 127.992 125.024V123.702Z" fill="#F28F8F"/>
<path d="M127.769 110.862C127.761 111.057 127.707 111.244 127.612 111.402C127.516 111.559 127.385 111.679 127.233 111.748C127.082 111.816 126.917 111.829 126.759 111.786C126.602 111.742 126.458 111.644 126.346 111.503C126.234 111.363 126.159 111.186 126.13 110.994C126.102 110.803 126.12 110.605 126.184 110.426C126.247 110.247 126.353 110.095 126.488 109.987C126.623 109.88 126.781 109.822 126.943 109.822C127.054 109.825 127.163 109.855 127.265 109.908C127.366 109.962 127.458 110.04 127.535 110.136C127.612 110.233 127.672 110.347 127.712 110.471C127.752 110.596 127.771 110.729 127.769 110.862Z" fill="#263238"/>
<path d="M126.913 107.133L125.145 108.312C125.019 108.019 124.991 107.679 125.068 107.362C125.145 107.046 125.321 106.777 125.559 106.613C125.675 106.537 125.804 106.49 125.936 106.475C126.068 106.46 126.201 106.477 126.328 106.526C126.454 106.575 126.571 106.653 126.672 106.758C126.772 106.862 126.854 106.99 126.913 107.133Z" fill="#263238"/>
<path d="M127.62 117.726L129.527 118.583C129.487 118.735 129.422 118.875 129.336 118.997C129.249 119.118 129.144 119.217 129.026 119.288C128.907 119.36 128.778 119.402 128.646 119.412C128.513 119.422 128.381 119.4 128.256 119.348C127.993 119.234 127.779 118.999 127.659 118.695C127.54 118.391 127.526 118.042 127.62 117.726Z" fill="#F28F8F"/>
<path d="M134.927 107.936L133.312 106.406C133.388 106.275 133.484 106.163 133.596 106.079C133.709 105.994 133.834 105.937 133.965 105.913C134.096 105.889 134.23 105.897 134.358 105.937C134.486 105.977 134.606 106.048 134.711 106.146C134.934 106.351 135.082 106.653 135.122 106.988C135.163 107.322 135.093 107.663 134.927 107.936Z" fill="#263238"/>
<path d="M134.435 110.581C134.437 110.714 134.416 110.846 134.375 110.97C134.334 111.094 134.273 111.206 134.196 111.302C134.119 111.397 134.026 111.473 133.924 111.525C133.822 111.577 133.713 111.604 133.602 111.605C133.431 111.612 133.263 111.556 133.118 111.446C132.974 111.336 132.86 111.177 132.791 110.988C132.722 110.8 132.702 110.591 132.733 110.388C132.763 110.186 132.844 109.999 132.963 109.852C133.083 109.705 133.236 109.604 133.404 109.562C133.571 109.521 133.745 109.54 133.904 109.619C134.062 109.697 134.197 109.831 134.291 110.002C134.386 110.173 134.436 110.375 134.435 110.581Z" fill="#263238"/>
<path d="M130.219 109.632L130.486 115.616L133.085 114.546L130.219 109.632Z" fill="#F28F8F"/>
<path d="M146.422 156.813L145.787 156.155C145.694 156.083 145.588 156.037 145.477 156.023C145.367 156.008 145.255 156.025 145.151 156.071L138.261 158.341C137.914 158.481 137.597 158.709 137.331 159.01C137.064 159.311 136.855 159.677 136.716 160.084L131.758 177.273C131.696 177.413 131.67 177.572 131.686 177.73C131.702 177.887 131.759 178.035 131.847 178.152L132.483 178.832C132.576 178.905 132.682 178.951 132.792 178.967C132.902 178.983 133.014 178.968 133.119 178.924L140.047 176.685C140.393 176.546 140.71 176.319 140.976 176.019C141.243 175.72 141.453 175.355 141.592 174.95L146.55 157.76C146.67 157.294 146.607 156.973 146.422 156.813Z" fill="#455A64"/>
<path d="M132.391 177.915L137.349 160.726C137.488 160.32 137.698 159.955 137.964 159.656C138.231 159.357 138.547 159.13 138.893 158.991L145.784 156.698C146.419 156.491 146.762 156.927 146.546 157.684L141.588 174.873C141.45 175.278 141.24 175.643 140.973 175.943C140.707 176.242 140.39 176.469 140.044 176.608L133.154 178.863C132.518 179.107 132.175 178.672 132.391 177.915Z" fill="#37474F"/>
<path d="M138.144 159.464C137.79 159.791 137.516 160.227 137.35 160.726L132.392 177.915C132.335 178.052 132.311 178.206 132.324 178.359C132.336 178.512 132.384 178.657 132.462 178.779L131.826 178.144C131.736 178.028 131.679 177.881 131.662 177.723C131.645 177.566 131.669 177.406 131.731 177.265L136.689 160.068C136.841 159.601 137.093 159.19 137.42 158.876L138.144 159.464Z" fill="#263238"/>
<path d="M103.369 173.781L109.783 164.938C109.783 164.938 127.301 168.263 129.265 168.301C131.229 168.339 132.665 166.107 133.93 164.158C134.448 163.543 135.117 163.144 135.837 163.02L135.151 165.397C135.068 165.672 135.977 166.039 136.091 166.084C136.681 166.316 137.296 166.44 137.916 166.451C139.303 166.491 140.681 166.184 141.965 165.549C142.652 165.125 143.383 164.812 144.139 164.617C144.269 164.58 144.406 164.599 144.526 164.67C144.717 164.808 144.736 165.121 144.73 165.389C144.647 168.225 143.704 170.928 142.079 172.986C141.728 173.435 141.341 173.839 140.922 174.194C138.589 176.143 135.704 176.12 132.996 175.898C131.975 175.822 130.951 175.776 129.926 175.761C123.487 175.699 106.35 174.668 103.369 173.781Z" fill="#FFA8A7"/>
<path d="M124.648 167.635L129.263 168.3C128.36 169.614 127.693 173.94 128.5 175.736H122.818C122.226 172.603 122.462 169.805 124.648 167.635Z" fill="#455A64"/>
<path d="M110.773 163.409C109.381 163.126 115.095 164.54 118.553 165.343C121.642 166.061 124.369 166.497 124.649 167.636C124.649 167.636 122.818 172.397 123.378 175.546C123.378 175.546 123.022 176.135 120.047 176.31C117.072 176.486 104.589 175.47 102.923 174.323C101.258 173.177 100.654 171.725 101.086 168.514L110.773 163.409Z" fill="#37474F"/>
<path d="M101.074 168.507C101.105 167.903 102.523 152.227 104.252 141.252C105.428 133.853 108.663 130.551 113.468 129.665L115.166 129.344C118.159 131.637 115.852 142.926 112.852 149.094L111.072 165.343L103.178 173.368C100.838 172.802 101.029 169.363 101.074 168.507Z" fill="#37474F"/>
<path d="M166.095 103.824L163.902 102.296C163.844 102.262 163.796 102.209 163.762 102.143L162.383 98.1531L164.175 96.9072L164.118 97.0983L166.095 103.824Z" fill="#004E89"/>
<g opacity="0.4">
<path d="M166.095 103.824L163.902 102.296C163.844 102.262 163.796 102.209 163.762 102.143L162.383 98.1531L164.175 96.9072L164.118 97.0983L166.095 103.824Z" fill="white"/>
</g>
<path d="M163.906 97.105L165.991 103.693C166.021 103.756 166.064 103.808 166.118 103.841C166.171 103.875 166.231 103.889 166.29 103.883C166.35 103.876 166.407 103.849 166.454 103.805C166.502 103.76 166.537 103.7 166.557 103.632L168.756 93.7344L163.906 97.105Z" fill="#004E89"/>
<path opacity="0.6" d="M163.906 97.105L165.991 103.693C166.021 103.756 166.064 103.808 166.118 103.841C166.171 103.875 166.231 103.889 166.29 103.883C166.35 103.876 166.407 103.849 166.454 103.805C166.502 103.76 166.537 103.7 166.557 103.632L168.756 93.7344L163.906 97.105Z" fill="white"/>
<path d="M197.455 5.26538C197.431 4.65346 197.287 4.05704 197.034 3.52543C196.781 2.99381 196.426 2.54227 195.999 2.20813L194.817 1.38268C194.365 1.10734 193.865 0.963867 193.358 0.963867C192.851 0.963867 192.351 1.10734 191.899 1.38268L155.103 26.9794C154.675 27.3132 154.319 27.7645 154.065 28.296C153.811 28.8276 153.665 29.4242 153.641 30.0367V96.5699C153.665 97.1824 153.811 97.779 154.065 98.3106C154.319 98.8422 154.675 99.2934 155.103 99.6272L156.285 100.453C156.737 100.728 157.237 100.871 157.744 100.871C158.25 100.871 158.75 100.728 159.202 100.453L195.942 74.917C196.397 74.5676 196.776 74.0913 197.046 73.5285C197.316 72.9658 197.469 72.3331 197.493 71.684L197.455 5.26538Z" fill="#004E89"/>
<path opacity="0.6" d="M159.251 100.33L195.908 74.8864C196.36 74.5307 196.736 74.0519 197.005 73.4889C197.274 72.9258 197.43 72.2944 197.458 71.6457V5.41054C197.458 4.21822 196.766 3.7367 195.908 4.33286L159.251 29.7615C158.797 30.1138 158.419 30.5905 158.148 31.1526C157.878 31.7146 157.722 32.3459 157.693 32.9945V99.2526C157.693 100.445 158.386 100.926 159.251 100.33Z" fill="white"/>
<path opacity="0.6" d="M163.286 91.3801L191.889 71.5462C192.232 71.277 192.516 70.9146 192.721 70.4883C192.925 70.0621 193.043 69.584 193.065 69.0928V14.0625C193.065 13.1606 192.538 12.7937 191.889 13.2446L163.286 33.1167C162.943 33.386 162.659 33.7484 162.454 34.1746C162.25 34.6008 162.132 35.0789 162.11 35.5702V90.6005C162.091 91.4642 162.637 91.8463 163.286 91.3801Z" fill="white"/>
<path opacity="0.4" d="M153.607 96.5479C153.632 97.1604 153.778 97.757 154.032 98.2886C154.286 98.8201 154.642 99.2714 155.069 99.6051L156.252 100.431C156.663 100.679 157.114 100.82 157.574 100.845C158.034 100.87 158.493 100.778 158.921 100.576C158.235 100.889 157.714 100.415 157.714 99.4141V32.919C157.728 32.3084 157.875 31.7129 158.139 31.1917L154.033 28.3408C153.773 28.8644 153.626 29.4585 153.607 30.0682V96.5479Z" fill="white"/>
<path opacity="0.8" d="M197.453 5.16493C197.453 4.31655 196.779 3.69746 195.908 4.32419L159.169 29.8292C158.736 30.1484 158.381 30.5992 158.139 31.1362L154.039 28.293C154.282 27.7574 154.637 27.3071 155.069 26.986L191.897 1.40453C192.349 1.13335 192.848 0.992188 193.353 0.992188C193.858 0.992188 194.356 1.13335 194.808 1.40453L196.003 2.22998C196.413 2.5562 196.757 2.98964 197.008 3.49788C197.259 4.00612 197.411 4.57601 197.453 5.16493Z" fill="white"/>
<path d="M192.29 25.3327C193.908 17.0873 189.661 8.82558 182.804 6.8795C175.947 4.93343 169.076 10.04 167.458 18.2853C165.839 26.5307 170.086 34.7925 176.943 36.7385C183.8 38.6846 190.671 33.578 192.29 25.3327Z" fill="#263238"/>
<path d="M175.749 25.2902C175.749 25.2902 173.67 24.2586 173.696 22.7074C173.694 22.5081 173.73 22.3109 173.8 22.1303C173.87 21.9497 173.973 21.7902 174.101 21.6635C174.229 21.5368 174.378 21.4461 174.539 21.398C174.7 21.3498 174.868 21.3456 175.03 21.3854C175.596 22.3206 176.266 23.1586 177.02 23.8765C177.808 24.442 176.384 25.6875 175.749 25.2902Z" fill="#004E89"/>
<path d="M168.965 44.3896C165.908 45.154 163.671 46.1552 162.113 55.09V90.5311C162.113 91.4177 162.622 91.7845 163.257 91.3642L163.893 90.9209L168.775 62.8019C168.978 62.6949 173.51 58.216 174.286 52.1474C175.01 46.4456 168.965 44.3896 168.965 44.3896Z" fill="#FFBDA7"/>
<path d="M186.953 41.1185C188.822 40.9656 189.553 41.2102 191.008 42.9375C191.773 43.8409 192.455 44.8402 193.042 45.9184V58.6594L187.246 58.1932L186.953 41.1185Z" fill="#004E89"/>
<path opacity="0.1" d="M186.953 41.1185C188.822 40.9656 189.553 41.2102 191.008 42.9375C191.773 43.8409 192.455 44.8402 193.042 45.9184V58.6594L187.246 58.1932L186.953 41.1185Z" fill="black"/>
<path d="M191.008 69.3829L191.644 62.7945C192.432 62.0761 192.915 60.9984 193.551 59.3016C194.09 57.3145 194.027 55.162 193.373 53.2254C192.667 51.2381 192.286 50.2751 191.962 49.549C190.692 46.4299 188.997 43.5883 186.947 41.1416L183.209 41.4091L175.207 42.5632L168.958 44.4129C173.465 52.056 168.768 62.8175 168.768 62.8175L171.1 71.9892C171.1 71.9892 168.399 78.9979 166.867 84.1417C167.637 85.3571 168.684 86.2783 169.88 86.7939L191.447 71.821C191.275 70.9421 191.117 70.109 191.008 69.3829Z" fill="#004E89"/>
<path opacity="0.05" d="M174.895 60.9307C174.895 61.0988 175.81 63.6593 179.134 64.5153C182.459 65.3713 185.217 63.9879 186.698 61.8173C186.698 61.8173 185.427 67.2897 179.204 65.8375C175.085 64.8821 174.895 60.9307 174.895 60.9307Z" fill="black"/>
<path opacity="0.05" d="M173.642 75.4676C175.315 75.7821 177.016 75.8104 178.696 75.5516C179.109 75.4905 179.592 75.3529 179.77 74.8943C180.037 74.1988 179.395 73.5186 178.855 73.1135C177.167 71.8308 175.615 70.3063 174.234 68.5735C173.354 67.5712 172.662 66.3542 172.206 65.0041C171.57 62.8717 171.977 60.5406 172.111 58.2858C172.218 56.5184 172.162 54.742 171.945 52.9892C171.794 51.3386 171.298 49.761 170.502 48.4033C172.041 55.328 168.773 62.8259 168.773 62.8259L171.106 71.9976C171.106 71.9976 170.782 72.823 170.305 74.1224C171.332 74.8334 172.467 75.2908 173.642 75.4676Z" fill="black"/>
<path d="M191.008 69.3838C190.703 69.8729 188.809 72.7391 183.253 73.5264C177.698 74.3136 171.106 71.9977 171.106 71.9977C171.106 71.9977 167.877 78.6625 166.555 84.5554C166.021 86.9247 165.475 89.8673 165.475 89.8673L191.453 71.8296L191.008 69.3838Z" fill="#37474F"/>
<path d="M168.965 44.3902C167.863 44.3539 166.778 44.7189 165.851 45.4373C164.262 46.6372 163.308 48.1123 162.113 53.5924V71.4162C162.113 71.4162 163.721 73.4492 167.364 72.8301C167.262 72.6238 169.27 62.3438 169.27 62.3438C170.776 58.9437 171.428 55.0908 171.146 51.2537C170.745 46.2856 168.965 44.3902 168.965 44.3902Z" fill="#004E89"/>
<path opacity="0.1" d="M168.965 44.3902C167.863 44.3539 166.778 44.7189 165.851 45.4373C164.262 46.6372 163.308 48.1123 162.113 53.5924V71.4162C162.113 71.4162 163.721 73.4492 167.364 72.8301C167.262 72.6238 169.27 62.3438 169.27 62.3438C170.776 58.9437 171.428 55.0908 171.146 51.2537C170.745 46.2856 168.965 44.3902 168.965 44.3902Z" fill="black"/>
<path d="M189.179 16.0586C189.999 17.0446 191.117 19.6356 191.003 28.2876C190.901 35.602 188.944 37.4593 187.952 37.9561C186.96 38.4529 185.054 38.1854 183.198 37.8338V41.4031C183.198 41.4031 185.74 44.8349 185.562 46.8527C185.384 48.8705 182.835 50.3456 178.055 46.0884C175.722 44.0018 175.15 42.9012 175.15 42.9012L175.055 32.5448C175.055 32.5448 173.968 33.8288 172.106 31.8951C170.568 30.3053 170.034 27.592 171.216 26.1322C171.523 25.7832 171.894 25.527 172.299 25.3847C172.705 25.2423 173.133 25.2179 173.547 25.3135C173.962 25.409 174.352 25.6218 174.685 25.9343C175.018 26.2467 175.284 26.6499 175.462 27.1105C175.462 27.1105 178.43 27.2099 182.358 24.573C186.287 21.9361 188.931 18.9018 189.179 16.0586Z" fill="#FFBDA7"/>
<path d="M175.213 42.5409L171.17 43.7332C171.17 43.7332 175.651 50.612 181.772 51.254C187.893 51.896 189.565 47.8299 185.033 41.2568L183.215 41.3868L175.213 42.5409Z" fill="#FFBDA7"/>
<path d="M167.129 21.8115C167.129 25.4726 166.652 33.1386 171.782 37.1436C176.415 40.7664 178.678 37.7015 178.678 37.7015C178.274 37.8531 177.848 37.8968 177.428 37.8295C177.009 37.7621 176.607 37.5854 176.25 37.3117C175.093 36.3181 175.074 34.6596 175.074 32.4966C174.761 32.8445 174.386 33.1022 173.977 33.2502C173.569 33.3982 173.137 33.4327 172.716 33.3509C172.295 33.2692 171.895 33.0735 171.546 32.7785C171.197 32.4835 170.908 32.097 170.701 31.6482C170.661 31.5718 170.625 31.4927 170.593 31.4113C169.125 28.0712 167.129 21.8115 167.129 21.8115Z" fill="#263238"/>
<path d="M183.963 26.1933C183.965 26.3731 183.923 26.5499 183.843 26.7015C183.763 26.853 183.647 26.9728 183.51 27.046C183.374 27.1191 183.222 27.1423 183.075 27.1127C182.928 27.0832 182.791 27.0021 182.681 26.8797C182.572 26.7572 182.494 26.5987 182.459 26.4239C182.424 26.2491 182.432 26.0657 182.482 25.8964C182.533 25.7271 182.624 25.5794 182.743 25.4716C182.863 25.3639 183.007 25.3009 183.156 25.2903C183.362 25.2841 183.561 25.375 183.712 25.5438C183.863 25.7125 183.953 25.9456 183.963 26.1933Z" fill="#263238"/>
<path d="M184.075 32.4902L186.109 33.2554C186.074 33.4198 186.011 33.574 185.925 33.7085C185.839 33.843 185.732 33.9552 185.609 34.0382C185.486 34.1211 185.35 34.1732 185.21 34.1912C185.07 34.2093 184.928 34.1929 184.793 34.143C184.517 34.0357 184.288 33.8024 184.153 33.4934C184.019 33.1843 183.991 32.8241 184.075 32.4902Z" fill="#F0997A"/>
<path d="M190.448 23.6103L188.891 22.3324C188.955 22.209 189.04 22.1024 189.139 22.0188C189.238 21.9352 189.35 21.8764 189.469 21.8457C189.587 21.8151 189.709 21.8132 189.829 21.8403C189.948 21.8674 190.061 21.9228 190.162 22.0034C190.371 22.1762 190.518 22.4392 190.571 22.7381C190.624 23.0371 190.58 23.3493 190.448 23.6103Z" fill="#263238"/>
<path d="M190.106 25.7726C190.115 25.8954 190.103 26.0192 190.072 26.1365C190.04 26.2538 189.989 26.3623 189.922 26.4557C189.856 26.549 189.774 26.6254 189.682 26.6802C189.59 26.735 189.49 26.7673 189.388 26.775C189.182 26.7832 188.981 26.693 188.83 26.5238C188.679 26.3547 188.589 26.1204 188.581 25.872C188.572 25.7492 188.584 25.6255 188.616 25.5082C188.647 25.3909 188.698 25.2823 188.765 25.189C188.832 25.0956 188.913 25.0193 189.005 24.9644C189.097 24.9096 189.197 24.8774 189.299 24.8697C189.505 24.8614 189.706 24.9517 189.857 25.1208C190.009 25.29 190.098 25.5243 190.106 25.7726Z" fill="#263238"/>
<path d="M186.409 24.8164L186.402 30.8162L188.824 29.8914L186.409 24.8164Z" fill="#F0997A"/>
<path d="M183.197 37.8175C181.232 37.5271 177.196 36.1666 176.561 34.2559C176.816 35.2229 177.313 36.0717 177.984 36.6864C179.198 37.9169 183.203 39.285 183.203 39.285L183.197 37.8175Z" fill="#F0997A"/>
<path d="M175.494 30.0746C175.884 30.0444 176.25 29.8368 176.517 29.4941C176.785 29.1513 176.934 28.6991 176.934 28.2292C176.934 27.7593 176.785 27.3071 176.517 26.9643C176.25 26.6215 175.884 26.414 175.494 26.3838V30.0746Z" fill="#263238"/>
<path d="M120.834 50.9171L118.444 45.5134L120.351 38.841V34.752L114.465 38.841V42.9301L117.007 48.2038C117.048 48.2841 117.108 48.3479 117.179 48.3872L120.834 50.9171Z" fill="#263238"/>
<path d="M130.731 13.0614C130.698 12.3265 130.522 11.6112 130.216 10.9737C129.91 10.3363 129.483 9.79459 128.97 9.39276L127.534 8.39151C126.987 8.05962 126.383 7.88672 125.77 7.88672C125.157 7.88672 124.553 8.05962 124.006 8.39151L108.707 19.0231C108.192 19.4257 107.764 19.9684 107.457 20.6072C107.15 21.2459 106.973 21.9627 106.939 22.6994V43.9625C106.973 44.6992 107.15 45.416 107.457 46.0548C107.764 46.6935 108.192 47.2362 108.707 47.6389L110.143 48.6401C110.69 48.972 111.294 49.1449 111.907 49.1449C112.52 49.1449 113.124 48.972 113.671 48.6401L118.19 45.4988L120.733 50.7573C120.769 50.832 120.823 50.8926 120.887 50.9321C120.952 50.9716 121.024 50.9883 121.096 50.9803C121.168 50.9723 121.236 50.9399 121.294 50.8869C121.351 50.8339 121.394 50.7624 121.419 50.6808L124.051 41.4021L128.97 37.9933C129.483 37.5893 129.909 37.0461 130.215 36.4075C130.521 35.7689 130.698 35.0528 130.731 34.3169V13.0614Z" fill="#37474F"/>
<path d="M106.925 43.9628C106.958 44.6995 107.136 45.4163 107.443 46.055C107.75 46.6938 108.178 47.2365 108.692 47.6391L110.128 48.6404C110.626 48.9417 111.171 49.1126 111.728 49.1415C112.285 49.1705 112.84 49.057 113.357 48.8085C112.525 49.183 111.889 48.6251 111.889 47.4098V26.1161C111.909 25.3756 112.089 24.654 112.41 24.0219L107.433 20.6055C107.112 21.2375 106.932 21.9591 106.912 22.6997L106.925 43.9628Z" fill="#263238"/>
<path d="M130.674 12.4577C130.471 11.5635 129.784 11.2731 128.971 11.8386L113.658 22.4702C113.126 22.8531 112.687 23.3991 112.387 24.0523L107.436 20.6129C107.739 19.9631 108.177 19.4182 108.707 19.0308L124.013 8.3916C124.561 8.05963 125.166 7.88672 125.78 7.88672C126.394 7.88672 126.999 8.05963 127.547 8.3916L128.983 9.39285C129.423 9.73917 129.8 10.1895 130.091 10.7164C130.381 11.2432 130.58 11.8357 130.674 12.4577Z" fill="#455A64"/>
<path d="M124.239 31.8555C125.151 29.4092 125.615 26.7556 125.599 24.0748C126.047 23.2449 126.422 22.3611 126.718 21.4379C126.341 21.9798 125.914 22.4695 125.447 22.8977C125.926 22.0978 126.261 21.1869 126.432 20.2227C126.021 20.9104 125.543 21.5365 125.008 22.0876C124.773 21.8737 124.486 21.7579 124.191 21.7579C123.897 21.7579 123.61 21.8737 123.375 22.0876C121.925 23.0888 120.864 25.9932 121.188 28.011C119.326 29.1574 117.679 28.8747 116.573 27.4683C115.989 29.4861 116.268 31.4045 117.266 31.779C116.96 31.9971 116.602 32.0859 116.249 32.0313C116.249 33.7127 116.967 34.7522 118.048 34.3242C117.761 34.6642 117.416 34.925 117.037 35.0885C117.07 35.3601 117.161 35.6169 117.301 35.8335C117.441 36.0501 117.626 36.2192 117.837 36.324C118.048 36.4289 118.278 36.4659 118.504 36.4316C118.731 36.3972 118.946 36.2926 119.129 36.128C118.372 37.7786 117.215 39.1119 115.811 39.9495C116.397 40.1049 117.004 40.1173 117.594 39.9861C118.185 39.8548 118.748 39.5825 119.249 39.1852C121.461 37.6566 123.165 34.8668 124.252 31.8631" fill="#F5F5F5"/>
<path d="M172.962 159.799L170.572 154.395L172.479 147.723V143.642L166.6 147.723V151.812L169.142 157.078C169.179 157.162 169.24 157.227 169.314 157.262L172.962 159.799Z" fill="#263238"/>
<path d="M182.857 121.951C182.824 121.215 182.648 120.498 182.342 119.859C182.036 119.221 181.609 118.678 181.096 118.275L179.659 117.273C179.112 116.941 178.508 116.769 177.896 116.769C177.283 116.769 176.679 116.941 176.132 117.273L160.826 127.905C160.311 128.307 159.883 128.85 159.576 129.489C159.269 130.127 159.092 130.844 159.059 131.581V152.852C159.092 153.589 159.269 154.306 159.576 154.945C159.883 155.584 160.311 156.126 160.826 156.528L162.262 157.522C162.808 157.857 163.413 158.032 164.026 158.032C164.639 158.032 165.244 157.857 165.79 157.522L170.309 154.381L172.852 159.639C172.888 159.714 172.941 159.776 173.004 159.816C173.068 159.856 173.141 159.873 173.212 159.864C173.284 159.856 173.352 159.824 173.409 159.77C173.466 159.717 173.508 159.645 173.532 159.563L176.202 150.299L181.121 146.89C181.635 146.487 182.062 145.944 182.368 145.306C182.674 144.667 182.85 143.95 182.882 143.214L182.857 121.951Z" fill="#37474F"/>
<path d="M159.052 152.852C159.085 153.589 159.262 154.306 159.569 154.945C159.876 155.584 160.304 156.127 160.819 156.529L162.255 157.522C162.752 157.824 163.296 157.994 163.852 158.023C164.407 158.052 164.962 157.939 165.478 157.691C164.652 158.073 164.016 157.507 164.016 156.299V135.029C164.036 134.291 164.216 133.572 164.537 132.942L159.554 129.495C159.238 130.127 159.061 130.845 159.039 131.582L159.052 152.852Z" fill="#263238"/>
<path d="M182.798 121.346C182.594 120.444 181.908 120.154 181.094 120.72L165.782 131.359C165.248 131.739 164.809 132.286 164.511 132.941L159.553 129.494C159.855 128.842 160.293 128.297 160.824 127.912L176.13 117.28C176.677 116.948 177.281 116.775 177.894 116.775C178.507 116.775 179.111 116.948 179.658 117.28L181.101 118.274C181.541 118.622 181.919 119.073 182.211 119.601C182.502 120.129 182.702 120.723 182.798 121.346Z" fill="#455A64"/>
<path d="M173.613 132.261C175.011 131.29 175.177 131.183 175.73 130.839C176.025 130.63 176.355 130.5 176.696 130.457C176.911 130.433 177.127 130.507 177.3 130.663C177.486 130.841 177.621 131.084 177.687 131.359C177.81 131.821 177.87 132.303 177.865 132.788C177.865 133.652 177.897 133.912 177.897 136.151C177.897 138.391 177.897 138.658 177.865 139.56C177.859 140.124 177.8 140.686 177.687 141.234C177.6 141.664 177.47 142.079 177.3 142.472C177.138 142.849 176.935 143.199 176.696 143.511C176.413 143.886 176.088 144.21 175.73 144.474C175.177 144.902 175.011 145.025 173.613 146.003C172.215 146.981 172.056 147.081 171.503 147.425C171.207 147.634 170.878 147.764 170.537 147.807C170.321 147.832 170.105 147.758 169.933 147.6C169.745 147.424 169.609 147.181 169.545 146.905C169.419 146.444 169.357 145.961 169.361 145.476C169.361 144.612 169.361 144.352 169.361 142.113C169.361 139.873 169.361 139.606 169.361 138.704C169.368 138.139 169.43 137.578 169.545 137.03C169.63 136.599 169.76 136.183 169.933 135.792C170.092 135.413 170.296 135.063 170.537 134.752C170.819 134.378 171.144 134.054 171.503 133.789C172.056 133.361 172.221 133.239 173.613 132.261ZM173.613 130.732C172.196 131.718 172.018 131.848 171.465 132.261C170.993 132.611 170.565 133.041 170.193 133.537C169.826 134.02 169.514 134.56 169.265 135.142C169.003 135.745 168.803 136.384 168.668 137.045C168.516 137.765 168.433 138.504 168.42 139.247C168.42 140.156 168.42 140.447 168.42 142.717C168.42 144.987 168.42 145.277 168.42 146.148C168.419 146.782 168.503 147.412 168.668 148.013C168.773 148.434 168.981 148.807 169.265 149.083C169.531 149.325 169.862 149.439 170.193 149.404C170.641 149.351 171.074 149.185 171.465 148.915C172.018 148.571 172.196 148.456 173.613 147.471C175.03 146.485 175.215 146.355 175.768 145.942C176.24 145.591 176.668 145.161 177.039 144.665C177.415 144.183 177.734 143.641 177.986 143.053C178.264 142.453 178.477 141.814 178.622 141.15C178.768 140.429 178.849 139.691 178.863 138.948C178.863 138.039 178.863 137.748 178.863 135.471C178.863 133.193 178.863 132.918 178.863 132.047C178.863 131.414 178.781 130.785 178.622 130.182C178.508 129.754 178.286 129.38 177.986 129.112C177.724 128.869 177.394 128.754 177.064 128.791C176.617 128.844 176.183 129.011 175.793 129.28C175.24 129.624 175.062 129.739 173.638 130.724" fill="white"/>
<path d="M173.612 134.822C172.131 135.853 170.93 138.643 170.93 140.99C170.93 143.336 172.131 144.452 173.612 143.428C175.093 142.404 176.294 139.606 176.294 137.26C176.294 134.913 175.099 133.797 173.612 134.822ZM173.612 141.914C172.652 142.587 171.87 141.876 171.87 140.332C171.88 139.549 172.043 138.778 172.345 138.084C172.648 137.39 173.082 136.791 173.612 136.335C174.578 135.662 175.354 136.373 175.354 137.917C175.345 138.701 175.183 139.472 174.881 140.166C174.578 140.861 174.143 141.46 173.612 141.914Z" fill="white"/>
<path d="M177.033 132.285C177.029 132.568 176.969 132.846 176.859 133.096C176.748 133.346 176.59 133.561 176.397 133.723C176.054 133.967 175.762 133.723 175.762 133.157C175.767 132.873 175.827 132.595 175.938 132.344C176.048 132.093 176.205 131.876 176.397 131.711C176.747 131.474 177.033 131.711 177.033 132.285Z" fill="white"/>
<path d="M76.2343 169.509L73.8443 164.105L75.7512 157.433V153.344L69.8652 157.433V161.514L72.4078 166.788C72.4502 166.867 72.5095 166.93 72.5794 166.971L76.2343 169.509Z" fill="#263238"/>
<path d="M86.1384 131.653C86.1039 130.917 85.926 130.2 85.6191 129.562C85.3122 128.923 84.8847 128.38 84.3713 127.977L82.9348 126.983C82.3887 126.648 81.7842 126.473 81.1709 126.473C80.5577 126.473 79.9532 126.648 79.407 126.983L64.0947 137.615C63.5819 138.016 63.1551 138.558 62.8492 139.196C62.5433 139.833 62.3667 140.548 62.334 141.283V162.554C62.3673 163.29 62.5439 164.006 62.8498 164.645C63.1556 165.283 63.5821 165.826 64.0947 166.23L65.5312 167.224C66.0773 167.559 66.6818 167.734 67.2951 167.734C67.9083 167.734 68.5128 167.559 69.059 167.224L73.5783 164.09L76.1208 169.349C76.1566 169.424 76.2096 169.485 76.2735 169.525C76.3375 169.565 76.4096 169.582 76.4814 169.574C76.5531 169.566 76.6214 169.533 76.6781 169.48C76.7348 169.426 76.7774 169.354 76.8009 169.272L79.4706 160.009L84.384 156.6C84.8975 156.197 85.3249 155.654 85.6318 155.015C85.9387 154.376 86.1166 153.66 86.1511 152.924L86.1384 131.653Z" fill="#37474F"/>
<path d="M62.334 162.553C62.3673 163.289 62.5439 164.005 62.8498 164.644C63.1556 165.283 63.5821 165.826 64.0947 166.23L65.5312 167.223C66.0289 167.524 66.5737 167.695 67.1301 167.726C67.6865 167.756 68.242 167.645 68.7602 167.399C67.9275 167.774 67.2983 167.208 67.2983 166.001V144.73C67.32 143.993 67.4972 143.275 67.8131 142.643L62.8488 139.234C62.5329 139.866 62.3558 140.584 62.334 141.321V162.553Z" fill="#263238"/>
<path d="M86.0795 131.049C85.8697 130.147 85.1896 129.864 84.376 130.43L69.0573 141.062C68.5359 141.449 68.1085 141.995 67.8178 142.644L62.8535 139.235C63.1461 138.588 63.5731 138.043 64.093 137.653L79.399 127.006C79.9471 126.674 80.5523 126.501 81.166 126.501C81.7798 126.501 82.385 126.674 82.9331 127.006L84.376 128.007C84.8145 128.352 85.1911 128.798 85.4837 129.321C85.7763 129.843 85.9789 130.431 86.0795 131.049Z" fill="#455A64"/>
<path d="M75.3737 159.268L77.6429 157.686V148.56L79.232 147.46L79.4036 144.288L77.6429 145.503V143.76C77.6429 143.042 77.7382 142.69 78.1705 142.392L79.4036 141.536V138.364L77.8272 139.457C77.05 139.952 76.4062 140.703 75.9716 141.622C75.537 142.542 75.3296 143.591 75.3737 144.647V147.085L74.1914 147.903V150.998L75.3737 150.173V159.268Z" fill="white"/>
<path d="M247.127 48.089L244.725 42.6853L246.632 36.0129V31.9238L240.777 36.0511V40.1325L243.32 45.4063C243.361 45.4865 243.42 45.5504 243.491 45.5897L247.127 48.089Z" fill="#263238"/>
<path d="M266.375 11.31C266.343 10.5694 266.168 9.84806 265.862 9.20415C265.556 8.56024 265.129 8.01179 264.614 7.60306L263.158 6.59417C262.614 6.25259 262.009 6.07422 261.395 6.07422C260.78 6.07422 260.175 6.25259 259.631 6.59417L234.962 23.8676C234.448 24.2789 234.021 24.8289 233.715 25.4739C233.41 26.1188 233.234 26.8408 233.201 27.5821V41.0416C233.233 41.7833 233.408 42.5057 233.714 43.1508C234.02 43.7959 234.447 44.3458 234.962 44.7562L236.392 45.7651C236.937 46.1005 237.541 46.2754 238.153 46.2754C238.765 46.2754 239.368 46.1005 239.913 45.7651L244.426 42.5932L246.969 47.9052C247.005 47.9804 247.058 48.0417 247.122 48.0816C247.186 48.1216 247.258 48.1386 247.329 48.1305C247.401 48.1224 247.47 48.0897 247.526 48.0362C247.583 47.9826 247.626 47.9106 247.649 47.8287L250.312 38.4736L264.608 28.484C265.122 28.0753 265.55 27.5268 265.856 26.8829C266.161 26.239 266.337 25.5177 266.368 24.7771L266.375 11.31Z" fill="#37474F"/>
<path d="M233.225 40.7221C233.257 41.4571 233.434 42.1724 233.74 42.8098C234.046 43.4473 234.472 43.989 234.985 44.3908L236.422 45.392C236.919 45.6934 237.465 45.8642 238.021 45.8932C238.578 45.9222 239.133 45.8087 239.651 45.5602C238.818 45.9424 238.189 45.3768 238.189 44.1615V30.8166C238.21 30.0773 238.387 29.3565 238.704 28.7224L233.739 25.2754C233.423 25.9094 233.245 26.6302 233.225 27.3696V40.7221Z" fill="#263238"/>
<path d="M266.338 10.5081C266.128 9.59857 265.448 9.30814 264.634 9.87372L239.959 27.1548C239.426 27.5436 238.988 28.0946 238.688 28.7522L233.736 25.2746C234.027 24.6213 234.454 24.0707 234.976 23.6772L259.651 6.39611C260.197 6.06065 260.802 5.88574 261.415 5.88574C262.028 5.88574 262.633 6.06065 263.179 6.39611L264.615 7.405C265.062 7.7555 265.445 8.21117 265.741 8.7445C266.037 9.27783 266.24 9.87778 266.338 10.5081Z" fill="#455A64"/>
<path d="M245.997 26.4661C246.021 26.4438 246.05 26.4316 246.08 26.4316C246.11 26.4316 246.139 26.4438 246.163 26.4661C246.188 26.5005 246.207 26.5405 246.219 26.5838C246.231 26.6271 246.235 26.6728 246.232 26.7183V36.9983C246.231 37.1177 246.207 37.2352 246.163 37.3422C246.13 37.4426 246.072 37.5282 245.997 37.5868L245.304 38.0683C245.281 38.092 245.252 38.105 245.222 38.105C245.191 38.105 245.162 38.092 245.139 38.0683C245.114 38.034 245.095 37.994 245.083 37.9507C245.071 37.9074 245.066 37.8616 245.069 37.8161V33.62L242.476 35.4162V39.6199C242.473 39.7417 242.449 39.8614 242.406 39.9715C242.372 40.0688 242.314 40.1514 242.241 40.2084L241.548 40.6899C241.525 40.7136 241.496 40.7266 241.465 40.7266C241.435 40.7266 241.406 40.7136 241.383 40.6899C241.357 40.6545 241.338 40.613 241.328 40.5682C241.317 40.5234 241.314 40.4763 241.319 40.43V30.1501C241.318 30.0286 241.34 29.9085 241.383 29.7985C241.419 29.7008 241.476 29.6164 241.548 29.5539L242.241 29.0724C242.264 29.0501 242.293 29.0379 242.323 29.0379C242.353 29.0379 242.382 29.0501 242.406 29.0724C242.431 29.1068 242.45 29.1467 242.462 29.1901C242.474 29.2334 242.479 29.2791 242.476 29.3246V33.4137L245.069 31.6175V27.5285C245.07 27.4065 245.094 27.2864 245.139 27.1769C245.173 27.0777 245.231 26.9927 245.304 26.9323L245.997 26.4661Z" fill="#FAFAFA"/>
<path d="M247.266 32.5818C247.267 31.9865 247.316 31.3927 247.412 30.8086C247.505 30.2377 247.645 29.6794 247.831 29.1425C247.995 28.6541 248.209 28.192 248.467 27.7667C248.707 27.3922 249.002 27.0736 249.338 26.8266C249.596 26.624 249.901 26.5275 250.209 26.5514C250.465 26.5874 250.702 26.734 250.876 26.9642C251.081 27.2501 251.227 27.5907 251.302 27.9578C251.409 28.4283 251.46 28.9146 251.454 29.4023V30.1208C251.452 30.2402 251.429 30.3577 251.385 30.4647C251.352 30.5651 251.294 30.6507 251.219 30.7093L248.353 32.6965C248.345 32.8975 248.373 33.0982 248.435 33.285C248.477 33.4172 248.552 33.5297 248.651 33.606C248.748 33.6695 248.86 33.6911 248.969 33.6672C249.1 33.647 249.226 33.5922 249.338 33.5067C249.505 33.3981 249.657 33.2589 249.789 33.0939C249.897 32.9553 249.991 32.8013 250.069 32.6354C250.115 32.5357 250.168 32.4411 250.228 32.3526C250.29 32.2904 250.364 32.2483 250.444 32.2303L251.13 31.7564C251.155 31.7335 251.185 31.721 251.216 31.721C251.247 31.721 251.277 31.7335 251.302 31.7564C251.328 31.7915 251.347 31.833 251.358 31.8779C251.369 31.9228 251.371 31.97 251.365 32.0163C251.345 32.2439 251.3 32.4673 251.232 32.6812C251.134 33.0089 251.008 33.3239 250.857 33.6213C250.676 33.9817 250.463 34.3174 250.221 34.6226C249.98 34.9523 249.694 35.2313 249.376 35.448C249.117 35.6502 248.814 35.754 248.505 35.7461C248.257 35.7075 248.03 35.5574 247.869 35.3257C247.665 35.011 247.522 34.6455 247.45 34.2557C247.331 33.7091 247.269 33.1468 247.266 32.5818ZM249.37 28.7603C249.209 28.8731 249.065 29.0178 248.944 29.1883C248.829 29.3601 248.73 29.5473 248.651 29.7463C248.57 29.9382 248.509 30.1408 248.467 30.3501C248.427 30.533 248.399 30.7196 248.384 30.908L250.323 29.5628C250.311 29.4083 250.29 29.255 250.259 29.1042C250.235 28.9686 250.182 28.8425 250.107 28.7374C250.07 28.6901 250.026 28.6522 249.977 28.6259C249.928 28.5997 249.875 28.5856 249.821 28.5845C249.666 28.5901 249.515 28.6427 249.382 28.7374L249.37 28.7603Z" fill="#FAFAFA"/>
<path d="M253.554 31.9381C253.552 32.0575 253.528 32.175 253.484 32.282C253.452 32.3824 253.394 32.468 253.319 32.5266L252.683 32.9776C252.66 33.0012 252.631 33.0143 252.601 33.0143C252.57 33.0143 252.541 33.0012 252.518 32.9776C252.493 32.9432 252.474 32.9032 252.462 32.8599C252.45 32.8166 252.445 32.7709 252.448 32.7253V22.2925C252.45 22.1706 252.474 22.0507 252.518 21.9409C252.55 21.8425 252.608 21.7594 252.683 21.704L253.319 21.2454C253.342 21.2231 253.372 21.2109 253.402 21.2109C253.431 21.2109 253.461 21.2231 253.484 21.2454C253.51 21.2809 253.529 21.3222 253.541 21.3668C253.553 21.4115 253.557 21.4585 253.554 21.5053V31.9381Z" fill="#FAFAFA"/>
<path d="M255.856 30.3431C255.854 30.4625 255.83 30.58 255.786 30.687C255.754 30.7852 255.699 30.8701 255.627 30.9316L254.992 31.3825C254.969 31.4062 254.94 31.4192 254.909 31.4192C254.879 31.4192 254.85 31.4062 254.827 31.3825C254.802 31.3482 254.783 31.3082 254.771 31.2649C254.759 31.2216 254.754 31.1758 254.757 31.1303V20.6822C254.759 20.5603 254.783 20.4404 254.827 20.3306C254.859 20.2322 254.917 20.1491 254.992 20.0937L255.627 19.6351C255.65 19.6134 255.678 19.6016 255.707 19.6016C255.736 19.6016 255.764 19.6134 255.786 19.6351C255.811 19.6695 255.83 19.7095 255.842 19.7528C255.854 19.7961 255.859 19.8418 255.856 19.8873V30.3431Z" fill="#FAFAFA"/>
<path d="M259.008 20.1462C259.265 19.9536 259.558 19.8431 259.86 19.8252C260.104 19.8245 260.34 19.9274 260.527 20.1156C260.723 20.3253 260.876 20.587 260.972 20.88C261.092 21.2747 261.156 21.6905 261.163 22.1105C261.163 22.2022 261.163 22.3245 261.163 22.4697V23.3563C261.163 23.5015 261.163 23.6238 261.163 23.7232C261.143 24.2397 261.077 24.7521 260.966 25.2518C260.862 25.7405 260.715 26.2146 260.527 26.6658C260.346 27.0967 260.122 27.4997 259.86 27.8657C259.621 28.2126 259.333 28.5052 259.008 28.7294C258.754 28.9287 258.46 29.0398 258.157 29.0504C257.924 29.0504 257.7 28.9531 257.521 28.7753C257.319 28.5723 257.165 28.3086 257.076 28.011C256.957 27.6156 256.891 27.2004 256.879 26.7804C256.879 26.6887 256.879 26.5741 256.879 26.4365C256.879 26.2989 256.879 26.146 256.879 26.0008C256.879 25.8556 256.879 25.7028 256.879 25.5499C256.879 25.397 256.879 25.2747 256.879 25.1754C256.894 24.6588 256.958 24.1459 257.07 23.6468C257.179 23.153 257.33 22.6741 257.521 22.2175C257.69 21.7845 257.903 21.3787 258.157 21.0099C258.399 20.6671 258.686 20.3753 259.008 20.1462ZM260.051 23.0047C260.045 22.7431 260.002 22.4846 259.924 22.2404C259.877 22.0946 259.789 21.973 259.676 21.8965C259.578 21.835 259.465 21.8187 259.358 21.8506C259.236 21.8908 259.118 21.9499 259.008 22.0264C258.883 22.1165 258.766 22.2215 258.659 22.3398C258.533 22.4833 258.426 22.6481 258.341 22.8289C258.231 23.0426 258.147 23.2743 258.093 23.5168C258.023 23.8106 257.982 24.1134 257.972 24.4187C257.972 24.5104 257.972 24.6174 257.972 24.7474V25.5117C257.972 25.6442 257.972 25.7435 257.972 25.8098C257.972 26.0714 258.013 26.3309 258.093 26.5741C258.138 26.723 258.226 26.8477 258.341 26.9256C258.444 26.9682 258.556 26.9682 258.659 26.9256C258.782 26.8884 258.9 26.8291 259.008 26.7499C259.135 26.6623 259.252 26.5572 259.358 26.4365C259.481 26.2939 259.588 26.1319 259.676 25.955C259.783 25.7399 259.867 25.5086 259.924 25.2671C259.993 24.9728 260.035 24.6705 260.051 24.3652C260.051 24.2811 260.051 24.1818 260.051 24.0442V23.2799C260.057 23.1882 260.051 23.0582 260.051 23.0047Z" fill="#FAFAFA"/>
<path d="M263.087 23.4862C263.11 23.4625 263.139 23.4495 263.169 23.4495C263.2 23.4495 263.229 23.4625 263.252 23.4862C263.276 23.5212 263.294 23.5614 263.305 23.6047C263.315 23.648 263.319 23.6934 263.315 23.7384V25.1371C263.316 25.2586 263.295 25.3787 263.252 25.4887C263.216 25.5864 263.159 25.6708 263.087 25.7333L262.349 26.2454C262.326 26.2691 262.297 26.2821 262.267 26.2821C262.236 26.2821 262.207 26.2691 262.184 26.2454C262.159 26.211 262.14 26.171 262.128 26.1277C262.116 26.0844 262.111 26.0387 262.114 25.9932V24.5868C262.115 24.4648 262.139 24.3447 262.184 24.2352C262.218 24.1361 262.276 24.0511 262.349 23.9907L263.087 23.4862ZM263.277 21.9576C263.275 22.0795 263.251 22.1994 263.207 22.3092C263.175 22.4076 263.117 22.4907 263.042 22.5461L262.406 23.0047C262.384 23.0264 262.356 23.0382 262.327 23.0382C262.298 23.0382 262.27 23.0264 262.248 23.0047C262.222 22.9692 262.203 22.9279 262.191 22.8833C262.179 22.8386 262.174 22.7916 262.178 22.7448V15.6902C262.179 15.5683 262.203 15.4481 262.248 15.3387C262.28 15.2405 262.335 15.1556 262.406 15.0941L263.042 14.6431C263.065 14.6195 263.094 14.6064 263.125 14.6064C263.155 14.6064 263.184 14.6195 263.207 14.6431C263.232 14.6775 263.251 14.7175 263.263 14.7608C263.275 14.8041 263.28 14.8498 263.277 14.8954V21.9576Z" fill="#FAFAFA"/>
<path d="M251.287 99.9951C255.832 99.9951 258.114 101.807 260.014 106.797C261.832 111.574 267.642 125.233 267.337 128.588C267.032 131.943 255.444 146.213 255.444 146.213L252.132 141.459L259.347 127.197L252.298 115.182L251.287 99.9951Z" fill="#FFCDCC"/>
<path d="M251.673 100.003C251.673 100.003 256.123 99.4531 258.214 102.617C260.305 105.782 262.333 112.232 262.333 112.232C262.333 112.232 260.261 119.402 254.756 120.288C249.251 121.175 251.673 100.003 251.673 100.003Z" fill="#455A64"/>
<path d="M240.186 247.004C240.186 247.004 240.701 248.854 240.98 250.466C241.203 251.75 241.514 253.898 241.139 254.861C240.764 255.824 239.271 256.451 236.97 256.428C235.482 256.428 233.156 257.613 231.567 258.66C229.978 259.707 226.482 260.188 224.772 259.936C222.725 259.653 220.608 258.247 220.278 257.246C219.947 256.244 219.642 254.869 225.21 252.774C225.255 252.774 231.916 250.191 234.249 247.149L240.186 247.004Z" fill="#263238"/>
<path d="M240.183 244.71L234.246 244.855V245.383C234.25 245.999 234.13 246.607 233.897 247.155C233.663 247.703 233.323 248.175 232.905 248.532C230.019 250.939 225.277 252.781 225.207 252.796L224.318 253.148C223.358 254.065 224.171 255.624 226.46 255.869C228.748 256.113 235.873 253.278 237.45 252.376C238.276 251.931 238.976 251.205 239.462 250.286C239.948 249.368 240.198 248.298 240.183 247.209C240.177 246.284 240.183 244.71 240.183 244.71Z" fill="#FFCDCC"/>
<path d="M255.835 236.647C256.254 236.853 256.337 237.808 256.356 239.704C256.356 241.141 256.578 243.655 255.142 244.106C253.705 244.557 251.633 244.244 250.756 242.86C249.656 241.141 248.919 239.627 247.342 237.51C245.976 235.676 244.489 233.964 243.98 231.434C243.516 229.141 243.98 228.186 245.289 227.574C246.599 226.963 247.832 227.46 249.637 229.263C250.145 229.672 250.688 230.013 251.258 230.28C252.466 230.731 255.415 236.448 255.835 236.647Z" fill="#263238"/>
<path d="M255.871 234.89L255.82 237.221C255.82 237.221 254.498 240.279 250.836 237.221C250.754 236.992 250.43 232.49 250.43 232.49L255.871 234.89Z" fill="#FFCDCC"/>
<path d="M251.257 230.288C250.687 230.025 250.143 229.684 249.636 229.272C248.155 228.714 245.047 229.363 246.458 231.893C247.627 233.996 249.117 235.811 250.85 237.243C252.509 238.207 253.088 237.014 253.088 237.014L252.503 231.557C252.176 231.023 251.749 230.589 251.257 230.288Z" fill="#FFCDCC"/>
<path d="M259.347 203.132C259.347 195.451 257.917 192.065 257.917 192.065C257.917 192.065 258.622 181.495 259.347 171.605C261.076 148.087 259.43 146.971 256.658 138.923C256.658 138.923 232.892 135.101 231.36 147.33C228.01 174.203 229.116 192.661 229.339 198.119C229.561 203.576 230.102 206.778 231.475 218.197C232.511 226.887 234.278 245.353 234.278 245.353C237.57 247.6 239.998 250.795 240.215 245.085C240.431 239.376 243.602 221.331 243.533 215.048C243.472 210.392 242.9 205.766 241.829 201.29C241.829 201.29 243.965 176.244 244.511 172.247C244.511 172.247 245.115 180.234 245.338 185.683C245.56 191.133 246.806 196.384 247.88 206.526C248.834 215.323 250.423 233.705 250.423 233.705C253.715 235.944 255.578 239.865 255.877 234.874C256.175 229.883 259.347 210.638 259.347 203.132Z" fill="#FFCDCC"/>
<path opacity="0.1" d="M244.48 172.262L245.847 161.936C248.592 161.547 251.235 160.457 253.602 158.741C253.602 158.741 251.898 161.798 247.379 163.052L246 175.021L245.44 187.556L244.48 172.262Z" fill="black"/>
<path d="M240.654 94.9892L241.576 106.53L250.151 105.888L249.464 93.0938L240.654 94.9892Z" fill="#FFCDCC"/>
<path d="M257.855 104.888C256.984 101.83 255.211 100.042 251.289 99.9961L249.84 100.05C249.566 101.746 245.339 103.107 241.17 101.387C240.578 101.563 238.964 101.915 238.055 102.06L236.059 102.404C233.021 103.581 231.68 109.817 231.387 119.7C231.286 123.063 231.603 126.793 232.188 133.74C231.864 143.829 231.33 152.313 231.33 152.313C231.33 152.313 236.377 154.874 246.687 153.269C255.916 151.839 258.764 146.206 258.44 147.024C257.62 142.718 256.488 138.505 255.058 134.436L254.423 130.37C259.285 116.261 259.152 109.428 257.855 104.888Z" fill="#004E89"/>
<path d="M254.423 130.369C254.423 130.369 253.851 135.138 246.465 136.033C235.659 137.347 232.189 133.74 232.189 133.74L232.055 137.561C230.848 145.51 227.561 165.161 227.765 173.56C227.765 173.56 230.066 174.615 231.985 169.823C231.985 169.823 231.725 173.56 236.301 175.601C240.083 177.283 244.113 174.997 245.296 174.676L245.404 173.629C245.404 173.629 254.169 176.304 259.75 170.373C259.75 170.373 261.701 157.174 259.75 147.765C258.51 141.788 256.209 137.126 255.053 134.451L254.423 130.369Z" fill="#455A64"/>
<path d="M254.395 173.629C251.852 173.958 248.769 172.865 248.629 171.619C248.49 170.373 250.377 160.613 250.377 160.613C253.136 159.756 255.566 157.786 257.261 155.033C253.13 158.564 247.523 158.045 247.523 158.045L245.4 173.629C248.363 174.414 251.432 174.414 254.395 173.629Z" fill="#37474F"/>
<path d="M254.423 130.369C254.423 130.369 253.546 133.663 248.633 135.138C239.003 138.028 232.189 133.74 232.189 133.74C232.045 135.072 231.988 136.417 232.017 137.76C232.017 137.76 239.702 142.231 247.234 140.053C254.767 137.875 255.142 134.772 255.142 134.772C255.142 134.772 254.754 131.86 254.423 130.369Z" fill="#37474F"/>
<path d="M238.054 102.059C234.031 102.655 230.992 103.786 229.085 108.173C225.564 116.305 222.233 123.52 219.888 126.517C217.383 129.688 207.639 133.678 205.326 133.235C203.012 132.792 200.838 129.879 199.649 130.697C198.461 131.515 201.207 133.602 201.067 134.29C200.927 134.977 196.617 134.228 194.622 132.578C192.626 130.927 191.482 135.635 194.043 139.227C196.605 142.819 201.334 143.729 206.571 142.491C211.809 141.252 221.598 138.386 225.392 134.19C229.145 130.148 232.387 125.47 235.016 120.303C241.582 110.596 238.054 102.059 238.054 102.059Z" fill="#FFCDCC"/>
<path d="M238.676 101.952C238.676 101.952 233.718 101.509 231.328 104.39C228.938 107.272 226.777 112.484 226.777 112.484C226.777 112.484 228.201 117.995 235.041 120.326C236.762 118.827 238.043 116.71 238.702 114.281C239.922 109.985 239.554 103.588 238.676 101.952Z" fill="#455A64"/>
<path d="M229.678 72.809C229.605 72.2673 229.605 71.715 229.678 71.1734C229.783 70.4706 230.015 69.804 230.356 69.22C230.698 68.636 231.141 68.1486 231.656 67.792C232.17 67.4354 232.743 67.2181 233.335 67.1553C233.926 67.0924 234.522 67.1856 235.081 67.4282C234.916 66.3688 235.05 65.2735 235.462 64.3164C235.875 63.3594 236.541 62.5957 237.356 62.1469C237.991 61.8593 238.667 61.7273 239.345 61.7588C240.023 61.7904 240.689 61.9847 241.304 62.3303C242.041 62.6411 242.653 63.2741 243.02 64.1035C243.455 63.2309 244.094 62.5309 244.857 62.0903C245.62 61.6497 246.474 61.4876 247.312 61.6243C248.151 61.7609 248.938 62.1902 249.576 62.8591C250.214 63.5279 250.675 64.407 250.902 65.3875C252.205 65.036 254.048 65.7315 254.633 67.2907C255.268 69.0639 254.487 71.2574 254.792 73.1224C254.989 74.3223 255.427 75.4535 255.599 76.6688C255.789 78.0308 255.898 79.4076 255.923 80.7884C256.107 86.4825 245.117 90.1818 245.327 94.0874L239.467 85.5118C239.467 85.1603 238.64 84.266 238.456 83.9832C238.1 83.4176 237.789 82.8138 237.471 82.2177C236.428 80.3145 235.093 79.3133 233.428 78.335C232.28 77.6983 231.287 76.7196 230.542 75.4917C230.083 74.6915 229.787 73.7725 229.678 72.809Z" fill="#263238"/>
<path d="M234.299 82.333C234.299 82.333 232.392 85.7258 232.646 86.0849C233.091 86.4397 233.583 86.6983 234.102 86.8491L234.299 82.333Z" fill="#F28F8F"/>
<path d="M240.101 71.5861C238.251 72.7096 235.06 74.7962 234.241 82.8291C233.401 91.076 234.952 93.9422 235.906 95.0581C236.542 95.8224 239.86 96.0517 241.588 95.4173C243.756 94.653 248.441 91.8862 250.64 87.629C253.22 82.6227 253.754 75.9427 250.773 73.3287C246.572 69.6142 241.658 70.6307 240.101 71.5861Z" fill="#FFCDCC"/>
<path d="M239.286 71.3404C238.505 71.6856 237.779 72.1869 237.137 72.8232C236.818 73.1455 236.56 73.547 236.381 74.0002C236.236 74.4206 236.182 74.8778 236.222 75.3301C236.277 75.9479 236.465 76.5376 236.768 77.0405C237.072 77.5434 237.479 77.9419 237.951 78.1963C237.702 78.6048 237.532 79.0741 237.452 79.5709C237.372 80.0676 237.384 80.5795 237.487 81.0701C237.824 82.2091 238.408 83.2194 239.178 83.9974C239.214 84.0529 239.262 84.0953 239.317 84.1197C239.372 84.1279 239.427 84.1226 239.479 84.1042C239.532 84.0858 239.58 84.0546 239.623 84.0127C240.779 83.0802 241.498 81.4676 243.131 82.1172C245.286 82.9656 245.089 86.3515 243.398 88.0865C242.96 88.5827 242.417 88.9232 241.828 89.0703C241.238 89.2174 240.627 89.1652 240.061 88.9196C240.061 88.9196 240.118 93.0851 243.131 94.7283C243.131 94.7283 246.475 96.02 249.557 94.8277C250.689 93.0927 252.596 90.8762 254.159 88.8966C259.321 82.3771 259.619 72.8996 252.005 69.9035C251.744 69.8042 251.477 69.7048 251.21 69.6207C247.519 68.4771 243.611 68.9205 240.163 70.8742C239.87 71.0424 239.578 71.2105 239.286 71.3404Z" fill="#263238"/>
<path d="M239.045 86.9033C238.846 86.821 238.663 86.692 238.505 86.5237C238.348 86.3554 238.22 86.1512 238.129 85.923C238.038 85.6948 237.985 85.4471 237.975 85.1943C237.964 84.9415 237.995 84.6886 238.066 84.4504C238.218 83.969 238.521 83.5784 238.909 83.3626C239.298 83.1468 239.742 83.1231 240.145 83.2966L239.045 86.9033Z" fill="#263238"/>
</svg>
