<svg width="305" height="296" viewBox="0 0 305 296" fill="none" xmlns="http://www.w3.org/2000/svg">
<path d="M46.7346 161.565C46.7224 160.958 47.2462 160.883 47.7533 160.753C54.9224 158.914 111.047 150.387 111.086 150.381C112.965 150.11 112.939 152.388 111.46 152.616C48.641 162.264 46.7666 163.15 46.7346 161.564V161.565Z" fill="#283E70"/>
<path d="M49.8681 170.335C49.7615 169.401 50.6568 169.229 51.368 169.105C119.179 157.323 114.211 158.797 114.348 159.957C114.531 161.501 114.556 161.032 60.6384 169.783C51.9527 171.193 49.996 171.472 49.8665 170.333L49.8681 170.335Z" fill="#283E70"/>
<path d="M113.175 123.947C113.126 126.581 108.946 126.587 109.077 123.713C109.196 121.114 113.23 120.987 113.175 123.947Z" fill="#283E70"/>
<path d="M39.2953 142.773C38.9329 142.029 37.6005 141.808 37.8959 141.17C38.3908 140.099 39.7613 142.906 40.5637 140.42C40.7861 139.73 41.6556 140.035 41.4485 140.769C41.1683 141.765 40.1541 142.295 41.7165 143.001C41.9966 143.128 42.5144 143.337 42.2799 143.772C42.0195 144.256 41.5809 144.038 41.2307 143.784C39.574 142.576 40.0323 145.191 39.041 144.733C38.435 144.451 38.837 143.76 39.2938 142.775L39.2953 142.773Z" fill="#283E70"/>
<path d="M116.851 124.239C115.32 124.431 115.366 121.788 117.006 121.924C118.826 122.075 118.509 124.342 116.851 124.239Z" fill="#283E70"/>
<path d="M45.2076 140.776C46.6344 140.939 46.3573 142.993 45.1497 142.866C43.8782 142.731 43.8204 140.947 45.2076 140.776Z" fill="#283E70"/>
<path d="M111.518 262.103C109.54 261.68 111.424 262.356 98.9447 257.591C94.8562 256.029 102.692 255.202 125.497 248.425C127.72 247.765 129.607 247.959 131.518 249.199C134.551 251.166 141.42 253.241 137.557 254.4C111.643 262.174 112.875 261.887 111.518 262.105V262.103Z" fill="#283E70"/>
<path d="M146.648 264.666C146.136 264.651 146.346 264.787 138.65 260.953C134.26 258.765 140.409 258.152 163.785 250.513C166.261 249.703 166.972 250.43 173.316 253.828C177.124 255.869 173.386 256.021 146.648 264.664V264.666Z" fill="#283E70"/>
<path d="M110.568 248.677C109.364 248.475 108.726 248.102 100.775 244.129C99.0988 243.291 99.4186 242.758 100.928 242.387C128.594 235.577 124.085 235.034 133.854 240.155C138.223 242.446 133.558 242.473 110.568 248.677Z" fill="#283E70"/>
<path d="M144.506 252.253C142.738 252.196 142.382 251.689 134.646 247.333C134.299 247.138 133.982 246.865 133.982 246.526C133.982 246.011 134.55 245.994 134.916 245.893C159.685 238.989 158.55 238.944 159.907 239.64C171.813 245.748 175.316 243.529 144.508 252.25L144.506 252.253Z" fill="#283E70"/>
<path d="M227.189 238.546C226.186 238.531 225.787 238.355 218.887 235.168C215.399 233.557 218.12 233.487 240.524 226.407C243.551 225.449 243.848 226.009 253.173 228.172C255.188 228.64 254.975 229.716 253.313 230.253C227.233 238.676 228.747 238.304 227.189 238.547V238.546Z" fill="#283E70"/>
<path d="M274.381 232.239C269.062 234.294 154.293 273.638 146.319 275.842C145.338 276.112 144.781 275.401 145.589 275.07C152.769 272.14 267.34 233.209 273.169 231.809C274.192 231.563 275.235 231.909 274.381 232.239Z" fill="#283E70"/>
<path d="M191.734 227.387C190.999 227.292 182.333 224.15 182.61 222.777C182.797 221.84 182.499 222.237 205.049 216.629C206.156 216.354 205.533 216.3 216.716 219.145C221.76 220.428 207.717 223.133 191.734 227.388V227.387Z" fill="#283E70"/>
<path d="M209.846 232.5C200.278 228.499 200.499 228.431 200.534 227.952C200.598 227.068 219.704 222.553 220.5 222.124C224.858 219.776 228.62 222.103 234.044 223.401C235.181 223.673 235.556 224.36 234.092 224.835C228.046 226.796 215.099 231.067 209.846 232.501V232.5Z" fill="#283E70"/>
<path d="M153.837 230.581C158.282 233.086 162.611 235.084 159.45 235.923C139.2 241.291 143.881 241.568 133.163 235.986C132.764 235.778 132.217 235.636 132.278 235.081C132.339 234.526 132.884 234.486 133.327 234.375C151.874 229.77 151.803 229.434 153.836 230.579L153.837 230.581Z" fill="#283E70"/>
<path d="M194.934 242.819C194.442 242.541 193.537 242.464 193.662 241.604C193.877 240.12 207.379 237.204 210.062 236.063C212.745 234.922 214.385 235.927 221.184 239.26C223.782 240.534 220.685 240.556 204.4 246.022C201.998 246.829 200.336 245.878 194.934 242.819Z" fill="#283E70"/>
<path d="M166.465 234.011C165.996 233.878 153.414 229.388 158.124 228.222C177.717 223.37 176.094 223.344 177.922 224.301C185.602 228.319 185.34 228.405 185.309 228.781C185.254 229.474 166.956 233.946 166.465 234.011Z" fill="#283E70"/>
<path d="M180.529 253.7C178.832 253.41 174.414 250.499 172.538 249.371C171.483 248.736 171.629 248.016 172.809 247.644C190.401 242.094 189.307 242.127 190.724 242.972C197.304 246.892 197.663 247.014 197.666 247.786C197.669 248.559 181.263 253.52 180.529 253.7Z" fill="#283E70"/>
<path d="M92.2367 244.553C94.7401 244.579 100.458 247.527 102.824 248.716C103.214 248.911 103.86 249.006 103.712 249.733C103.587 250.345 103.158 250.678 102.617 250.835C101.883 251.047 90.5998 253.866 90.5602 253.875C89.2385 254.168 89.3481 253.977 78.7011 249.807C77.3839 249.29 77.8194 248.171 78.7498 247.934C93.0727 244.286 92.2718 244.551 92.2367 244.554V244.553Z" fill="#283E70"/>
<path d="M204.133 232.852C205.064 233.32 204.825 234.035 203.899 234.319C187.223 239.444 191.061 239.164 185.317 236.126C181.545 234.132 180.109 233.385 181.912 232.861C199.207 227.826 194.647 228.073 204.135 232.852H204.133Z" fill="#283E70"/>
<path d="M132.245 260.717C133.486 261.116 132.321 260.578 140.306 264.593C140.705 264.794 141.256 264.889 141.197 265.474C141.141 266.024 140.902 266.51 140.297 266.709C128.741 270.525 130.282 269.814 128.441 269.142C123.533 267.35 117.406 265.471 122.508 263.729C123.497 263.391 130.704 260.97 132.246 260.718L132.245 260.717Z" fill="#283E70"/>
<path d="M174.373 243.264C172.913 243.386 166.266 239.731 165.001 239.009C164.617 238.79 164.077 238.604 164.186 238.049C164.275 237.602 164.777 237.534 165.168 237.424C175.534 234.516 175.86 234.076 177.586 235.115C186.874 240.71 188.3 239.107 174.373 243.264Z" fill="#283E70"/>
<path d="M105.499 265.718C130.807 275.135 131.712 275.644 131.322 276.507C130.955 277.318 130.481 277.339 125.7 275.564C121.651 274.062 106.749 268.46 105.093 267.809C103.973 267.369 104.33 265.358 105.498 265.716L105.499 265.718Z" fill="#283E70"/>
<path d="M89.012 261.714C80.6339 258.603 75.452 257.036 76.2895 255.473C76.6976 254.711 76.524 254.832 89.1095 259.515C90.7099 260.11 90.9261 261.676 89.012 261.714Z" fill="#283E70"/>
<path fill-rule="evenodd" clip-rule="evenodd" d="M192.253 203.837C194.431 203.369 195.799 203.076 196.649 202.875H196.651C199.358 202.233 198.073 204.164 197.174 204.564C195.908 205.126 193.252 205.719 188.231 206.841C185.463 207.46 181.976 208.24 177.607 209.263L168.002 211.512C167.719 211.579 167.435 211.645 167.154 211.712C167.556 211 167.917 210.122 168.18 209.138C180.706 206.311 188.014 204.746 192.253 203.837ZM62.6863 233.986C61.8103 234.198 60.9286 234.411 60.0412 234.625C59.8056 234.683 59.604 234.732 59.4145 234.702C58.2606 234.531 57.5567 231.503 52.3489 210.04C51.7198 210.263 51.1141 210.423 50.5339 210.528C51.0992 212.733 51.542 214.41 51.702 215.017C51.7351 215.143 51.7561 215.223 51.7635 215.251C56.4515 233.486 56.779 236.425 57.8847 236.734C58.1013 236.795 58.3479 236.754 58.6631 236.708C59.2944 236.668 60.4945 236.466 63.6388 235.79C63.1984 235.078 62.8966 234.557 62.6863 233.986ZM45.5757 189.725C45.9817 189.065 46.451 188.486 46.9651 187.98C45.2333 180.935 43.2297 172.838 40.9049 163.534C40.4799 161.833 40.0965 160.319 39.7555 158.972C37.5078 150.095 37.0991 148.482 38.7015 148.321C47.64 147.427 162.983 131.008 166.208 130.272C168.098 129.841 167.306 129.073 165.806 129.175C158.983 129.638 121.367 134.791 88.4497 139.299C60.8476 143.08 36.5492 146.408 36.4798 146.139C35.9319 144.03 35.4657 142.585 35.1444 141.59C34.4809 139.534 34.436 139.395 35.5677 139.274C54.1098 137.282 74.7802 134.809 78.1983 134.401C78.5164 134.363 78.685 134.342 78.6886 134.342C98.3717 131.954 113.906 130.117 126.169 128.667C167.738 123.751 171.71 123.281 172.24 120.859C169.761 120.859 55.4166 134.022 32.542 137.727C31.7391 137.857 34.3247 147.494 38.6732 163.701C40.6582 171.099 43.0105 179.867 45.5757 189.725Z" fill="#283E70"/>
<path fill-rule="evenodd" clip-rule="evenodd" d="M160.382 110.011C164.842 109.484 169.761 109.05 172.835 109.33C171.842 110.121 171.238 110.896 171.009 111.918C168.919 112.013 165.033 112.414 157.291 113.31C158.185 112.493 159.199 111.407 160.382 110.011ZM147.707 111.677C108.15 116.936 80.5548 119.995 61.3689 122.121C18.5129 126.87 17.6191 126.969 19.1162 136.559C20.8567 147.716 39.3534 221.804 39.3626 221.84C40.3832 225.837 41.2468 229.317 41.9999 232.352C46.1566 249.101 46.9543 252.316 52.3043 254.456C94.5034 271.333 101.398 273.798 105.377 275.222C106.821 275.738 107.882 276.117 110.109 276.999C111.168 277.42 112.475 277.966 113.936 278.577C120.815 281.453 131.13 285.767 135.289 285.068C145.113 283.418 189.721 267.831 211.074 260.369L211.077 260.367L211.082 260.366L211.115 260.354L211.12 260.352C214.788 259.071 217.767 258.029 219.76 257.342C230.699 253.57 239.944 250.428 247.731 247.781L247.734 247.78C285.384 234.984 288.912 233.785 284.778 228.969C280.848 224.391 237.355 215.528 232.641 214.607C228.638 213.826 225.313 213.191 222.556 212.665C212.318 210.713 209.902 210.251 209.64 209.255C209.558 208.948 209.682 208.589 209.847 208.119L209.873 208.043C210.052 207.525 209.357 205.44 206.077 195.619C203.258 187.184 198.536 173.043 190.825 149.287C190.52 149.845 190.196 150.439 189.853 151.071C189.515 151.695 189.174 152.323 188.833 152.955C189.173 154.031 189.506 155.092 189.834 156.132C193.276 167.078 195.995 175.722 196.467 175.591C199.113 183.147 202.454 192.817 206.625 205.243C207.954 209.204 205.707 209.665 200.482 210.74H200.481C199.294 210.984 197.954 211.259 196.467 211.615C173.855 217.017 152.858 222.047 134.378 226.475H134.375C91.7446 236.689 62.5009 243.695 57.6963 244.666C52.6868 245.68 51.7508 247.394 51.2181 248.369C50.9424 248.874 50.7747 249.18 50.206 249.09H50.2045C49.037 248.903 48.3827 246.181 40.3373 212.71C39.2854 208.333 38.1069 203.43 36.7846 197.939C33.1385 182.799 29.9835 171.03 27.5243 161.857C22.2782 142.287 20.1971 134.525 23.2652 131.017C25.2822 128.71 29.5246 128.241 36.556 127.464C37.5101 127.359 38.5159 127.248 39.5742 127.126C86.4428 121.716 116.685 118.121 136.295 115.79C141.833 115.131 146.523 114.574 150.5 114.104C149.831 113.592 149.113 112.944 148.292 112.204L148.29 112.203L148.277 112.19C148.092 112.024 147.902 111.852 147.707 111.677ZM188.864 179.704C187.288 174.434 185.527 168.404 183.772 162.325L184.751 160.512L191.576 183.675C190.995 183.474 190.437 183.342 189.931 183.247C189.859 183.015 189.789 182.781 189.718 182.546C189.885 181.59 189.547 180.597 188.864 179.704ZM251.052 243.224L251.051 243.226C229.304 250.635 198.606 261.095 167.567 272.206C164.826 273.187 162.327 274.088 160.041 274.911C136.652 283.343 135.601 283.723 125.42 279.854C122.938 278.912 60.1891 254.601 57.1649 253.248C47.6862 249.005 52.4642 247.914 105.877 235.707L105.881 235.706C123.884 231.592 147.413 226.215 177.783 219.029C192.529 215.541 199.351 213.726 202.751 212.822C206.113 211.927 206.131 211.922 207.155 212.069C208.018 212.192 208.592 212.257 209.104 212.316C211.618 212.602 212.614 212.714 238.8 218.668C279.129 227.838 285.366 229.61 281.787 232.444V232.443C281.1 232.986 269.19 237.045 251.052 243.224Z" fill="#283E70"/>
<path d="M176.024 130.912C128.143 187.183 128.754 188.912 127.373 188.124C118.651 183.155 104.683 188.047 100.772 199.121C100.346 200.327 99.1535 201.092 97.8424 201.067C90.9825 200.94 82.2907 206.528 82.2541 215.562C82.2511 216.499 81.8689 216.879 80.9156 216.659C76.6276 215.666 64.802 220.038 65.8329 231.691C65.8938 232.379 66.0004 232.871 66.2014 233.202C99.9027 225.391 99.9301 225.528 99.8418 225.139C98.9753 221.368 102.277 215.023 106.75 211.576C109.487 209.469 114.046 208.214 114.357 210.355C114.681 212.59 111.159 209.978 105.756 216.45C103.953 218.609 102.694 221.05 102.167 223.798C101.847 225.471 106.147 223.967 163.666 210.579C164.657 209.515 167.369 202.618 160.767 198.86C159.218 197.98 160.246 198.604 180.888 160.25C182.446 157.355 189.962 143.39 191.654 140.415C193.096 137.878 177.916 130.344 176.023 130.909L176.024 130.912ZM166.53 170.406C166.5 170.456 145.783 204.61 144.045 204.77C141.597 204.208 142.963 203.841 165.03 169.621C165.371 169.093 165.719 168.44 166.487 168.836C167.313 169.26 166.844 169.873 166.53 170.406ZM177.777 145.302C168.721 158.085 149.588 182.147 148.493 182.298C148.146 182.286 147.889 182.156 147.779 181.863C146.905 179.514 198.39 116.205 177.776 145.304L177.777 145.302Z" fill="#283E70"/>
<path d="M169.581 190.034C169.441 187.145 170.959 185.147 172.849 183.343C174.483 181.784 173.694 184.565 175.069 184.51C175.663 184.487 175.715 183.957 175.878 183.541C178.785 176.091 186.374 177.902 187.783 181.553C188.51 183.439 186.324 182.656 186.892 184.238C187.31 185.403 193.051 183.554 195.419 189.951C196.321 192.387 194.525 195.483 192.502 196.63C191.55 197.169 190.519 197.577 189.532 198.064C187.677 198.98 189.194 196.621 188.157 196.192C187.588 195.955 185.704 198.311 183.108 200.432C180.169 202.833 176.703 202.056 174.937 198.735C173.507 196.047 173.808 193.182 172.995 193.004C172.398 192.874 172.022 193.247 171.824 193.74C171.016 195.751 169.501 192.522 169.58 190.035L169.581 190.034Z" fill="#283E70"/>
<path d="M54.9984 186.708C56.2882 186.719 57.5049 186.634 56.8851 187.795C56.3857 188.735 57.246 189.728 58.2327 188.522C62.7324 183.022 72.478 183.594 74.7545 190.264C75.2463 191.704 73.0688 190.513 71.5293 191.189C70.9689 191.435 70.3218 191.663 70.3705 192.366C70.4192 193.069 71.1547 193.076 71.6603 193.14C77.7497 193.897 82.0773 200.177 75.7214 204.814C74.1941 205.928 69.7431 208.037 69.6396 205.976C69.5665 204.533 68.1793 204.21 67.8077 205.967C66.5164 212.082 61.9162 213.169 57.3815 211.073C53.3508 209.21 58.2129 207.663 56.9795 206.368C55.9639 205.302 49.7419 211.612 45.9305 207.906C42.7115 204.775 45.7417 199.872 49.6841 197.609C50.1637 197.334 51.0195 197.199 50.6114 196.4C49.3384 193.914 45.7356 198.67 45.7767 195.716C45.8453 190.741 48.6973 186.654 55.0015 186.711L54.9984 186.708Z" fill="#283E70"/>
<path d="M257.229 96.0543C284.45 55.0864 277.601 11.0638 269.602 10.8625C256.395 10.5295 233.673 20.6201 219.092 33.1927C210.544 40.5646 203.282 49.0717 196.583 58.0449C194.892 60.3123 196.862 59.0039 170.989 65.2303C168.364 65.8623 169.786 64.5613 155.27 91.8747C147.798 105.932 146.736 106.195 148.954 108.11C153.529 112.063 153.024 112.814 155.099 110.576C161.131 104.073 168.772 93.1431 173.532 86.6252C174.499 85.3006 174.307 85.786 178.144 85.7239C179.635 85.7002 178.507 86.489 176.733 90.0529C173.115 97.3211 170.797 100.419 173.276 102.549C177.779 106.419 179.041 106.975 180.544 108.548C174.176 112.496 173.496 112.463 175.394 113.956C177.059 115.266 178.522 115.544 176.888 116.65C164.446 125.065 166.413 120.865 198.208 139.979C204.62 143.835 205.059 143.755 205.607 141.357C207.14 134.647 206.56 134.127 208.284 135.274C210.433 136.704 212.539 138.376 212.887 135.866C213.711 129.939 213.134 129.22 214.643 130.035C226.461 136.412 226.234 135.585 227.895 134.151C231.188 131.309 236.959 123.973 239.298 121.099C240.076 122.767 240.642 124.343 241.515 125.742C242.695 127.637 241.981 126.643 233.432 142.933C226.152 156.806 226.475 156.75 228.622 157.574C234.854 159.967 234.792 159.642 236.589 157.258L261.641 124.192C263.153 122.225 262.818 121.865 260.784 113.039C256.908 96.2141 256.506 97.1406 257.229 96.0543ZM237.61 24.0878C247.036 18.8427 257.851 14.416 268.589 12.8279C270.11 12.603 270.945 13.1387 271.315 14.6291C274.243 26.4336 273.698 34.2746 272.967 45.8645C272.839 47.8995 274.735 47.9321 238.003 26.438C235.872 25.1904 235.491 25.2673 237.61 24.0878ZM232.613 27.0004C234.64 25.4745 233.706 25.9496 256.132 39.4398C272.612 49.3558 272.617 48.9074 272.442 49.6237C272.03 52.8294 274.793 52.7376 247.045 36.8143C229.552 26.7755 230.795 28.3694 232.613 27.0004ZM172.352 83.9967C165.867 92.5689 159.614 99.9541 154.12 108.408C153.703 109.05 153.383 109.183 152.76 108.568C149.901 105.738 150.068 106.938 151.809 103.657C166.393 76.1867 168.3 73.0033 170.098 69.1834C171.166 66.916 172.714 67.6131 192.979 62.7439C192.772 63.7399 192.201 64.3556 191.762 65.0024C181.863 79.6189 182.283 82.8793 179.612 82.8675C173.045 82.8364 173.072 83.0421 172.35 83.9967H172.352ZM205.257 133.84C203.117 141.576 203.775 140.605 202.613 139.947C197.69 137.161 195.287 135.646 173.544 123.427C171.536 122.298 173.602 122.207 178.144 117.714C179.666 116.209 179.022 116.56 193.373 125.777C205.467 133.544 205.418 133.256 205.257 133.84ZM211.754 129.115C210.973 133.458 211.301 134.41 209.734 133.408C205.636 130.788 182.646 116.132 178.027 113.6C176.369 112.689 178.018 112.592 181.536 110.008C183.032 108.908 181.957 110.811 205.529 125.002C210.987 128.287 212.085 128.305 211.754 129.115ZM231.413 125.764C224.888 132.849 226.01 133.322 224.358 132.467C199.163 119.418 180.692 104.461 175.633 100.651C175.161 100.296 174.976 100.03 175.362 99.4568C177.558 96.2126 179.064 91.5625 179.902 91.5358C180.599 92.0301 200.226 107.313 222.554 119.384C232.057 124.521 232.922 124.124 231.413 125.764ZM232.831 122.136C205.563 106.981 189.251 94.2857 182.267 89.4431C181.458 88.8837 181.263 88.3612 181.807 87.4288C191.316 71.0837 203.682 48.527 228.173 30.1084C229.94 28.7779 228.705 29.2752 250.185 41.8241C271.665 54.373 271.822 53.6197 271.533 54.746C266.874 72.9159 260.094 89.0894 241.591 112.863C233.759 122.925 234.268 122.933 232.832 122.135L232.831 122.136ZM234.458 156.008C233.957 156.686 233.443 156.885 232.587 156.58C229.686 155.55 229.619 155.55 231.166 152.943C235.98 144.841 240.102 136.393 244.452 128.056C244.914 127.173 244.9 126.448 244.413 125.534C243.519 123.863 243.132 121.86 241.979 120.414C239.694 117.545 243.805 116.97 254.434 100.487C254.501 100.383 254.638 100.321 254.927 100.099C260.168 121.586 259.957 121.343 260.068 121.618C260.356 122.336 259.881 121.541 234.458 156.008Z" fill="#283E70"/>
<path d="M235.9 50.0198C245.242 50.523 252.39 57.8431 252.058 66.9895C251.74 75.757 243.567 82.9202 234.07 82.4155C225.104 81.939 218.007 74.7491 218.403 65.5613C218.769 57.0542 226.567 49.5181 235.899 50.0198H235.9ZM249.101 66.3353C249.53 59.7834 243.537 52.225 234.65 52.6157C216.16 53.4282 217.318 80.2592 235.827 79.9128C243.595 79.7678 249.498 72.6682 249.101 66.3353Z" fill="#283E70"/>
<path d="M235.256 76.3238C229.79 76.5636 224.579 71.9563 224.582 65.9771C224.585 60.2673 229.723 55.327 235.594 55.5046C249.835 55.9368 249.701 76.454 235.256 76.3238ZM235.515 74.7239C247.195 74.7121 247.25 57.5618 235.573 57.291C223.617 57.0142 223.556 74.7358 235.515 74.7239Z" fill="#283E70"/>
</svg>
