<svg width="211" height="145" viewBox="0 0 211 145" fill="none" xmlns="http://www.w3.org/2000/svg">
<path d="M104.945 144.976C162.905 144.976 209.89 142.233 209.89 138.849C209.89 135.465 162.905 132.722 104.945 132.722C46.9855 132.722 0 135.465 0 138.849C0 142.233 46.9855 144.976 104.945 144.976Z" fill="#F5F5F5"/>
<path d="M200.997 121.339C200.997 121.339 203.541 112.82 198.399 111.126C193.257 109.431 190.204 105.448 190.377 100.944C190.551 96.4412 185.138 92.057 181.079 96.2788C177.019 100.501 177.56 93.0312 172.148 91.218C166.735 89.4048 162.145 93.8052 163.628 97.8268C165.111 101.848 159.769 104.365 153.377 100.944C146.985 97.5237 139.943 103.748 141.296 108.62C142.649 113.491 141.539 114.032 137.507 112.408C133.475 110.785 126.222 115.385 128.755 121.339C131.288 127.293 200.997 121.339 200.997 121.339Z" fill="#467CA6"/>
<path opacity="0.1" d="M200.997 121.339C200.997 121.339 203.541 112.82 198.399 111.126C193.257 109.431 190.204 105.448 190.377 100.944C190.551 96.4412 185.138 92.057 181.079 96.2788C177.019 100.501 177.56 93.0312 172.148 91.218C166.735 89.4048 162.145 93.8052 163.628 97.8268C165.111 101.848 159.769 104.365 153.377 100.944C146.985 97.5237 139.943 103.748 141.296 108.62C142.649 113.491 141.539 114.032 137.507 112.408C133.475 110.785 126.222 115.385 128.755 121.339C131.288 127.293 200.997 121.339 200.997 121.339Z" fill="white"/>
<path d="M64.9795 122.151C67.6858 119.445 65.2501 114.844 62.5438 114.303C59.8375 113.761 57.1312 108.998 56.9905 105.967C56.8498 102.936 51.9893 93.6103 44.4116 99.3693C36.834 105.128 39.1343 100.214 33.6568 98.6008C28.1792 96.9878 24.7151 101.637 27.1238 105.128C27.1238 105.128 21.6137 103.748 19.3458 108.89C17.078 114.032 19.3458 117.226 19.3458 117.226C19.3458 117.226 8.99153 116.917 9.9225 123.32C10.8535 129.723 64.9795 122.151 64.9795 122.151Z" fill="#467CA6"/>
<path opacity="0.1" d="M64.9795 122.151C67.6858 119.445 65.2501 114.844 62.5438 114.303C59.8375 113.761 57.1312 108.998 56.9905 105.967C56.8498 102.936 51.9893 93.6103 44.4116 99.3693C36.834 105.128 39.1343 100.214 33.6568 98.6008C28.1792 96.9878 24.7151 101.637 27.1238 105.128C27.1238 105.128 21.6137 103.748 19.3458 108.89C17.078 114.032 19.3458 117.226 19.3458 117.226C19.3458 117.226 8.99153 116.917 9.9225 123.32C10.8535 129.723 64.9795 122.151 64.9795 122.151Z" fill="white"/>
<path d="M33.8554 123.434C31.1491 120.728 33.5847 116.127 36.291 115.586C38.9973 115.044 41.7036 110.281 41.8498 107.25C41.9959 104.219 46.8456 94.8987 54.4233 100.652C62.0009 106.406 59.7006 101.502 65.1835 99.8837C70.6665 98.2653 74.1197 102.92 71.7165 106.411C71.7165 106.411 77.2212 105.031 79.489 110.173C81.7569 115.315 79.489 118.508 79.489 118.508C79.489 118.508 89.8488 118.205 88.9178 124.608C87.9868 131.012 33.8554 123.434 33.8554 123.434Z" fill="#467CA6"/>
<path opacity="0.1" d="M33.8554 123.434C31.1491 120.728 33.5847 116.127 36.291 115.586C38.9973 115.044 41.7036 110.281 41.8498 107.25C41.9959 104.219 46.8456 94.8987 54.4233 100.652C62.0009 106.406 59.7006 101.502 65.1835 99.8837C70.6665 98.2653 74.1197 102.92 71.7165 106.411C71.7165 106.411 77.2212 105.031 79.489 110.173C81.7569 115.315 79.489 118.508 79.489 118.508C79.489 118.508 89.8488 118.205 88.9178 124.608C87.9868 131.012 33.8554 123.434 33.8554 123.434Z" fill="white"/>
<path d="M210.307 122.314V129.729H1.38019V122.314C1.36414 122.017 1.40795 121.721 1.50901 121.442C1.61007 121.163 1.7663 120.907 1.96838 120.69C2.17045 120.473 2.41423 120.299 2.68515 120.178C2.95607 120.057 3.24859 119.992 3.54523 119.986H208.12C208.419 119.989 208.713 120.052 208.987 120.171C209.26 120.291 209.507 120.465 209.711 120.682C209.915 120.9 210.074 121.157 210.176 121.437C210.278 121.717 210.323 122.016 210.307 122.314Z" fill="#557893"/>
<path d="M26.2793 119.986H13.2891V129.729H26.2793V119.986Z" fill="#7392B7"/>
<path d="M50.6345 119.986H38.1855V129.729H50.6345V119.986Z" fill="#7392B7"/>
<path d="M75.5332 119.986H62.543V129.729H75.5332V119.986Z" fill="#7392B7"/>
<path d="M99.8904 119.986H87.4414V129.729H99.8904V119.986Z" fill="#7392B7"/>
<path d="M124.246 119.986H111.797V129.729H124.246V119.986Z" fill="#7392B7"/>
<path d="M149.145 119.986H136.154V129.729H149.145V119.986Z" fill="#7392B7"/>
<path d="M173.5 119.986H161.051V129.729H173.5V119.986Z" fill="#7392B7"/>
<path d="M198.398 119.986H185.408V129.729H198.398V119.986Z" fill="#7392B7"/>
<g opacity="0.6">
<path d="M26.2793 119.986H13.2891V129.729H26.2793V119.986Z" fill="white"/>
<path d="M50.6365 119.986H38.1875V129.729H50.6365V119.986Z" fill="white"/>
<path d="M75.5352 119.986H62.5449V129.729H75.5352V119.986Z" fill="white"/>
<path d="M99.8924 119.986H87.4434V129.729H99.8924V119.986Z" fill="white"/>
<path d="M124.248 119.986H111.799V129.729H124.248V119.986Z" fill="white"/>
<path d="M149.146 119.986H136.156V129.729H149.146V119.986Z" fill="white"/>
<path d="M173.502 119.986H161.053V129.729H173.502V119.986Z" fill="white"/>
<path d="M198.4 119.986H185.41V129.729H198.4V119.986Z" fill="white"/>
</g>
<path opacity="0.1" d="M210.307 122.314V129.729H1.38019V122.314C1.36414 122.017 1.40795 121.721 1.50901 121.442C1.61007 121.163 1.7663 120.907 1.96838 120.69C2.17045 120.473 2.41423 120.299 2.68515 120.178C2.95607 120.057 3.24859 119.992 3.54523 119.986H208.12C208.419 119.989 208.713 120.052 208.987 120.171C209.26 120.291 209.507 120.465 209.711 120.682C209.915 120.9 210.074 121.157 210.176 121.437C210.278 121.717 210.323 122.016 210.307 122.314Z" fill="black"/>
<path d="M32.8924 27.2197C32.8924 27.2197 27.9669 29.0059 28.8275 31.5011C29.6881 33.9963 35.5716 30.6243 35.5716 30.6243L32.8924 27.2197Z" fill="#9F5B53"/>
<path opacity="0.2" d="M32.8924 27.2197C32.8924 27.2197 27.9669 29.0059 28.8275 31.5011C29.6881 33.9963 35.5716 30.6243 35.5716 30.6243L32.8924 27.2197Z" fill="black"/>
<path d="M41.4073 21.7207C38.6739 22.2999 31.7188 27.0359 31.7188 27.0359L34.0732 32.6812L40.3735 30.6028L41.4073 21.7207Z" fill="#467CA6"/>
<path d="M52.0741 131.012L48.6642 132.971L44.5723 125.556L47.9822 123.591L52.0741 131.012Z" fill="#9F5B53"/>
<path d="M48.2486 132.533L52.0374 130.124C52.0979 130.08 52.1719 130.06 52.2463 130.065C52.3207 130.071 52.3906 130.104 52.4433 130.156L54.7329 132.533C54.8308 132.648 54.8789 132.798 54.8667 132.949C54.8546 133.1 54.7831 133.24 54.6679 133.339L54.5705 133.404C53.2498 134.21 52.5299 134.579 50.8845 135.629C49.8723 136.267 45.5747 138.578 43.9888 138.692C42.403 138.806 42.2243 137.301 42.8684 137.068C46.116 135.856 47.3988 134.302 47.8156 133.079C47.8956 132.854 48.0479 132.662 48.2486 132.533Z" fill="#263238"/>
<path opacity="0.2" d="M47.9822 123.591L44.5723 125.556L46.6832 129.377L50.0931 127.418L47.9822 123.591Z" fill="black"/>
<path d="M38.4621 43.998C38.4621 43.998 27.3013 81.004 27.9129 92.0024C28.5841 104.062 44.7948 129.431 44.7948 129.431L50.9057 125.571C50.9057 125.571 39.4526 100.549 39.025 91.2934C39.6583 77.9026 53.5795 45.3783 53.5795 45.3783L38.4621 43.998Z" fill="#263238"/>
<path opacity="0.2" d="M47.3233 56.989C43.9459 59.0566 42.6089 67.863 43.3234 72.3338C45.1475 66.6722 47.2313 61.0918 48.8984 56.8104C48.6433 56.6994 48.3634 56.6575 48.0869 56.6888C47.8105 56.7202 47.5471 56.8237 47.3233 56.989Z" fill="black"/>
<path d="M44.1177 129.994L51.3219 125.426L50.1419 123.396L42.5859 128.003L44.1177 129.994Z" fill="#263238"/>
<path d="M59.5071 135.472H55.7182L55.4043 126.688H59.1985L59.5071 135.472Z" fill="#9F5B53"/>
<path d="M55.1933 135.033H59.7994C59.8742 135.034 59.9465 135.06 60.0045 135.107C60.0625 135.154 60.1028 135.22 60.1188 135.293L60.8711 138.67C60.8885 138.742 60.8909 138.817 60.8783 138.89C60.8657 138.963 60.8382 139.032 60.7976 139.094C60.757 139.156 60.7042 139.209 60.6424 139.25C60.5805 139.29 60.511 139.318 60.4381 139.331C60.3968 139.336 60.3549 139.336 60.3136 139.331C58.8251 139.304 57.7372 139.212 55.8645 139.212C54.7116 139.212 51.2367 139.336 49.6454 139.336C48.0541 139.336 47.843 137.761 48.4979 137.615C51.4207 136.982 53.6182 136.099 54.5546 135.255C54.7316 135.103 54.9599 135.023 55.1933 135.033Z" fill="#263238"/>
<path opacity="0.2" d="M59.1985 126.692H55.4043L55.5667 131.223H59.3609L59.1985 126.692Z" fill="black"/>
<path d="M43.6367 44.7236C43.6367 44.7236 46.7273 80.9881 48.324 91.9757C50.0777 104.035 53.8232 130.346 53.8232 130.346H60.7622C60.7622 130.346 59.3441 105.161 58.6892 93.3126C57.9368 79.7811 57.5742 45.8657 57.5742 45.8657L43.6367 44.7236Z" fill="#263238"/>
<path d="M52.9882 130.492H61.1721V128.046L52.6797 127.889L52.9882 130.492Z" fill="#263238"/>
<path d="M40.7402 50.4987L50.4559 50.6178V48.2471H40.7402V50.4987Z" fill="black"/>
<path d="M51.1914 48.2471V50.6232L57.8327 50.7044V48.2471H51.1914Z" fill="black"/>
<path d="M40.0047 48.2471H37.1793L36.9141 50.45L40.0047 50.4879V48.2471Z" fill="black"/>
<path d="M46.5908 47.8145H42.7695V50.5695H46.5908V47.8145Z" fill="white"/>
<path d="M37.3477 47.9116L58.013 49.281C59.1442 39.2623 62.4405 28.9567 63.4256 25.314C63.4957 25.0621 63.4633 24.7927 63.3355 24.5646C63.2078 24.3364 62.995 24.1681 62.7436 24.0962C61.7206 23.7985 60.6597 23.5549 59.5935 23.2951C54.7607 22.2811 49.8599 21.6244 44.9307 21.3303C43.7441 21.2211 42.5476 21.3518 41.4125 21.7146C38.3057 30.5047 37.575 41.2487 37.3477 47.9116Z" fill="#467CA6"/>
<path opacity="0.6" d="M61.4933 32.1616C61.2984 32.9086 61.0873 33.6934 60.8817 34.5053C59.5909 39.3599 58.6325 44.2968 58.013 49.2817L37.3477 47.9123C37.4998 41.6799 38.1642 35.4706 39.3341 29.3471C41.4017 24.6056 46.587 22.5488 46.587 22.5488C46.587 22.5488 47.1607 23.7721 49.7317 24.1293C52.3027 24.4865 55.7343 23.6855 55.7343 23.6855C59.7342 26.8464 60.7572 32.6542 60.7572 32.6542L61.4933 32.1616Z" fill="white"/>
<path opacity="0.2" d="M62.5972 28.2211C62.1047 29.9424 61.5147 32.0857 60.8814 34.5052C58.6189 31.3226 60.6378 26.7002 60.6378 26.7002C61.4216 27.0117 62.101 27.5391 62.5972 28.2211Z" fill="black"/>
<path d="M55.8739 22.6622C54.0986 24.286 49.7522 23.6743 49.7522 23.6743C49.7522 23.6743 47.0459 22.9328 47.5872 22.083C49.211 21.8232 49.9633 21.0763 50.2935 20.1183C50.4667 19.5268 50.5219 18.907 50.4559 18.2942C50.4559 18.1427 50.4288 17.9911 50.4072 17.845C50.3855 17.6988 50.353 17.4661 50.3206 17.2766L55.6953 13.293C55.5004 14.0183 55.2947 14.9167 55.154 15.8748C54.7751 18.1318 54.6561 20.7461 55.5654 22.2183C55.653 22.3763 55.7563 22.525 55.8739 22.6622Z" fill="#9F5B53"/>
<path opacity="0.2" d="M54.9756 20.5239C53.0162 20.3074 51.5548 19.0409 50.3262 17.2764L54.8673 17.6552C54.8247 18.6128 54.8609 19.5723 54.9756 20.5239Z" fill="black"/>
<path d="M28.7954 30.5533C28.3461 33.3299 30.0024 34.1418 36.5408 41.8548C36.5408 41.8548 36.1241 43.1105 36.3243 43.4136C36.5246 43.7167 40.3297 47.5651 40.3297 47.5651L43.5772 43.3216C43.5772 43.3216 41.1957 40.4042 40.4325 39.8738C40.1132 39.6519 38.603 39.7114 38.603 39.7114C38.603 39.7114 33.0768 30.3314 31.978 29.4653C30.8793 28.5993 29.0931 28.713 28.7954 30.5533Z" fill="#9F5B53"/>
<path d="M65.9746 34.9867C65.9746 34.9867 69.4982 39.7011 72.7728 38.9054C76.0475 38.1098 79.4195 35.1166 79.4195 35.1166C79.4195 35.1166 80.9567 36.08 81.6766 36.0638C82.3965 36.0476 86.1907 35.398 86.1907 35.398L84.4154 31.3548C84.4154 31.3548 81.1191 31.5713 80.2476 31.5497C79.3762 31.528 78.3099 32.9028 78.3099 32.9028C78.3099 32.9028 73.0976 34.2235 72.3561 34.191C71.6145 34.1586 69.049 31.3115 69.049 31.3115L65.9746 34.9867Z" fill="#9F5B53"/>
<path d="M62.7274 24.0908C65.753 25.5143 71.7772 32.6265 71.7772 32.6265L67.2848 37.8064L60.7626 32.6319C60.7626 32.6319 60.1185 28.5075 60.6381 26.678C60.9739 25.578 61.7227 24.6508 62.7274 24.0908Z" fill="#467CA6"/>
<path opacity="0.2" d="M44.1177 129.994L51.3219 125.426L50.1419 123.396L42.5859 128.003L44.1177 129.994Z" fill="black"/>
<path opacity="0.2" d="M52.9882 130.492H61.1721V128.046L52.6797 127.889L52.9882 130.492Z" fill="black"/>
<path d="M46.0997 10.8683C46.0607 11.0294 46.0703 11.1984 46.1273 11.354C46.1843 11.5096 46.2861 11.6449 46.4199 11.7427C46.5536 11.8405 46.7133 11.8965 46.8789 11.9037C47.0445 11.9108 47.2084 11.8688 47.3501 11.7829C47.4918 11.697 47.6049 11.571 47.6751 11.4209C47.7453 11.2708 47.7695 11.1032 47.7445 10.9394C47.7196 10.7756 47.6468 10.6228 47.5351 10.5003C47.4235 10.3779 47.2781 10.2912 47.1173 10.2513C47.0099 10.2246 46.8984 10.2195 46.789 10.2361C46.6797 10.2527 46.5747 10.2908 46.4801 10.3482C46.3856 10.4055 46.3033 10.481 46.238 10.5702C46.1727 10.6595 46.1257 10.7608 46.0997 10.8683Z" fill="#263238"/>
<path d="M59.0134 5.02734C59.0134 5.02734 60.3341 10.0935 57.8064 12.3614C55.2787 14.6293 54.2773 5.02734 54.2773 5.02734H59.0134Z" fill="#263238"/>
<path d="M58.7687 15.2682C58.7148 15.4524 58.6498 15.6332 58.5739 15.8095C58.0462 17.0212 57.0793 17.9881 55.8676 18.5158C54.7739 19.0063 53.5363 19.07 52.3981 18.6944C51.586 18.4173 50.8653 17.9231 50.3142 17.2655C48.5552 15.252 48.7446 13.0599 48.7662 9.34141C48.7565 8.47143 48.9699 7.61347 49.3859 6.84934C49.8019 6.0852 50.4067 5.44037 51.1426 4.97633C51.8786 4.51229 52.7212 4.24451 53.59 4.19853C54.4588 4.15254 55.3249 4.32987 56.1057 4.71363C59.6348 6.42943 59.7863 11.9828 58.7687 15.2682Z" fill="#9F5B53"/>
<path d="M54.3254 10.7493C54.2821 11.0469 54.4445 11.2905 54.6502 11.3176C54.8558 11.3446 55.0182 11.0957 55.0399 10.7763C55.0615 10.457 54.9154 10.2351 54.7205 10.208C54.5257 10.1809 54.347 10.4407 54.3254 10.7493Z" fill="#263238"/>
<path d="M57.7417 10.9816C57.7038 11.2793 57.8716 11.5229 58.0665 11.5499C58.2613 11.577 58.4399 11.328 58.4616 11.0087C58.4832 10.6893 58.3371 10.4674 58.1368 10.4403C57.9366 10.4133 57.7634 10.6839 57.7417 10.9816Z" fill="#263238"/>
<path d="M56.648 11.0469C56.9452 12.0042 57.3752 12.9152 57.9254 13.7532C57.7072 13.887 57.4628 13.9722 57.2087 14.003C56.9547 14.0339 56.6969 14.0096 56.4531 13.9318L56.648 11.0469Z" fill="#892B29"/>
<path d="M59.1062 9.59036C59.0787 9.60765 59.0468 9.61683 59.0142 9.61683C58.9817 9.61683 58.9498 9.60765 58.9222 9.59036C58.7444 9.45437 58.537 9.36239 58.3169 9.32194C58.0967 9.28148 57.8702 9.29371 57.6557 9.35762C57.6118 9.37354 57.5635 9.37169 57.5211 9.35248C57.4786 9.33326 57.4453 9.2982 57.4283 9.25478C57.4197 9.23314 57.4155 9.20999 57.4161 9.1867C57.4166 9.16342 57.4218 9.14047 57.4314 9.11925C57.441 9.09803 57.4548 9.07896 57.4719 9.06319C57.4891 9.04742 57.5092 9.03526 57.5312 9.02745C57.7995 8.94135 58.0847 8.921 58.3625 8.9681C58.6404 9.01519 58.9029 9.12836 59.1279 9.29808C59.1473 9.31066 59.1641 9.327 59.1771 9.34615C59.1901 9.3653 59.1992 9.38687 59.2037 9.40958C59.2082 9.43229 59.2082 9.45567 59.2035 9.47836C59.1989 9.50105 59.1897 9.52256 59.1766 9.54165C59.1581 9.56409 59.1337 9.58095 59.1062 9.59036Z" fill="#263238"/>
<path d="M53.7373 9.3581C53.7017 9.35617 53.6675 9.34289 53.6399 9.32021C53.6115 9.28278 53.5989 9.23566 53.605 9.18905C53.6111 9.14245 53.6353 9.10011 53.6724 9.07123C53.895 8.89694 54.1564 8.77888 54.4343 8.72706C54.7123 8.67524 54.9986 8.69119 55.2691 8.77354C55.291 8.78134 55.3112 8.7935 55.3283 8.80927C55.3455 8.82505 55.3593 8.84411 55.3689 8.86534C55.3785 8.88656 55.3837 8.9095 55.3842 8.93279C55.3847 8.95607 55.3806 8.97923 55.3719 9.00087C55.355 9.04428 55.3217 9.07935 55.2792 9.09856C55.2367 9.11778 55.1884 9.11962 55.1446 9.10371C54.9287 9.04573 54.7022 9.03903 54.4833 9.08414C54.2643 9.12925 54.0589 9.22492 53.8835 9.36351C53.86 9.37264 53.835 9.37688 53.8098 9.37595C53.7847 9.37502 53.76 9.36894 53.7373 9.3581Z" fill="#263238"/>
<path d="M51.7829 4.88672L51.9561 6.5105C51.676 6.63675 51.454 6.86421 51.3345 7.14728C51.2151 7.43034 51.2071 7.7481 51.312 8.03685C51.8208 9.42789 50.9981 11.555 49.9264 12.3669C49.9264 12.3669 49.9264 11.7715 49.3851 11.9015C48.8439 12.0314 48.963 15.149 49.9264 16.6537C49.9264 16.6537 48.465 15.2843 47.6802 12.0043C46.9549 8.96782 46.9008 6.44554 47.5394 5.28725L51.7829 4.88672Z" fill="#263238"/>
<path d="M46.9338 12.2866C47.2923 13.1528 47.9793 13.8417 48.8445 14.2026C49.9974 14.6735 50.7118 13.6614 50.517 12.5193C50.3329 11.4909 49.5211 9.96999 48.3086 10.0025C48.0435 10.0106 47.7847 10.0851 47.5558 10.2192C47.327 10.3532 47.1354 10.5425 46.9986 10.7698C46.8618 10.997 46.7842 11.2549 46.7729 11.5199C46.7616 11.7849 46.8169 12.0485 46.9338 12.2866Z" fill="#9F5B53"/>
<path d="M56.4311 14.9117C56.1465 15.3675 55.8951 15.8433 55.6788 16.3352L55.4028 16.2594C54.1633 15.9239 53.6978 15.3555 53.5625 14.8305C53.5 14.5726 53.5 14.3036 53.5625 14.0457C53.5962 13.9005 53.649 13.7603 53.7194 13.6289C54.3938 14.1695 55.1764 14.559 56.0144 14.771C56.2688 14.8738 56.4311 14.9117 56.4311 14.9117Z" fill="#263238"/>
<path d="M56.0144 14.7702L55.7763 15.1815C54.6125 14.8622 53.8331 14.4779 53.5625 14.0232C53.5963 13.878 53.649 13.7379 53.7195 13.6064C54.3919 14.1548 55.1747 14.5517 56.0144 14.7702Z" fill="white"/>
<path d="M55.4028 16.259C54.1633 15.9234 53.6978 15.3551 53.5625 14.8301C54.0301 14.9691 54.4697 15.1889 54.8615 15.4796C55.1191 15.6763 55.3084 15.9489 55.4028 16.259Z" fill="#DE5753"/>
<path d="M46.2569 6.28857C46.2004 6.52061 46.214 6.76421 46.296 6.98852C46.378 7.21284 46.5247 7.4078 46.7175 7.54871C46.9103 7.68963 47.1406 7.77017 47.3792 7.78016C47.6178 7.79014 47.8541 7.72911 48.058 7.60479C48.2619 7.48046 48.4243 7.29844 48.5248 7.08175C48.6252 6.86507 48.6591 6.62346 48.6221 6.3875C48.5852 6.15155 48.4791 5.93186 48.3173 5.75624C48.1554 5.58061 47.9451 5.45695 47.7129 5.4009C47.4022 5.32587 47.0743 5.3772 46.8014 5.54362C46.5284 5.71003 46.3326 5.97795 46.2569 6.28857Z" fill="#263238"/>
<path d="M46.3926 8.12402C46.3537 8.28509 46.3633 8.45409 46.4203 8.6097C46.4773 8.76531 46.5791 8.90055 46.7128 8.99838C46.8466 9.09621 47.0063 9.15224 47.1719 9.1594C47.3374 9.16655 47.5014 9.12452 47.6431 9.03859C47.7848 8.95267 47.8979 8.82671 47.9681 8.67659C48.0383 8.52648 48.0624 8.35894 48.0375 8.19511C48.0126 8.03128 47.9397 7.8785 47.8281 7.75603C47.7165 7.63357 47.571 7.54691 47.4102 7.50698C47.1935 7.45466 46.9649 7.49017 46.7743 7.60577C46.5836 7.72136 46.4464 7.90766 46.3926 8.12402Z" fill="#263238"/>
<path d="M46.2774 9.27148C46.2385 9.43255 46.2481 9.60155 46.3051 9.75716C46.362 9.91276 46.4638 10.048 46.5976 10.1458C46.7313 10.2437 46.8911 10.2997 47.0566 10.3069C47.2222 10.314 47.3862 10.272 47.5279 10.1861C47.6696 10.1001 47.7826 9.97417 47.8528 9.82405C47.923 9.67394 47.9472 9.5064 47.9223 9.34257C47.8974 9.17874 47.8245 9.02596 47.7129 8.90349C47.6012 8.78103 47.4558 8.69437 47.295 8.65444C47.0783 8.60212 46.8497 8.63764 46.659 8.75324C46.4684 8.86883 46.3312 9.05512 46.2774 9.27148Z" fill="#263238"/>
<path d="M46.8945 5.99133C46.8945 5.99133 46.5481 3.82629 49.9797 2.2404C53.4113 0.654504 57.0702 2.6734 59.3706 1.28777C61.671 -0.0978533 61.5952 5.8506 56.7401 6.39186C53.4547 6.68504 50.1452 6.5504 46.8945 5.99133Z" fill="#263238"/>
<path d="M53.7054 1.37433C53.6191 1.72244 53.6384 2.08831 53.7607 2.42543C53.883 2.76255 54.1028 3.05567 54.3922 3.26752C54.6815 3.47938 55.0273 3.60039 55.3857 3.61517C55.744 3.62995 56.0986 3.53782 56.4044 3.35051C56.7102 3.1632 56.9534 2.88917 57.103 2.56327C57.2527 2.23737 57.302 1.87432 57.2448 1.5203C57.1875 1.16629 57.0263 0.837297 56.7816 0.57517C56.5368 0.313043 56.2197 0.129627 55.8704 0.0482475C55.4076 -0.061042 54.9203 0.0170114 54.5148 0.265401C54.1092 0.51379 53.8183 0.912383 53.7054 1.37433Z" fill="#263238"/>
<path d="M48.6551 1.9964C48.5703 2.34327 48.5904 2.70752 48.7129 3.04293C48.8355 3.37834 49.0549 3.66979 49.3433 3.88032C49.6317 4.09084 49.9762 4.21095 50.333 4.2254C50.6898 4.23985 51.0428 4.14799 51.3473 3.96148C51.6518 3.77497 51.8941 3.50221 52.0433 3.17781C52.1926 2.85341 52.2421 2.49198 52.1856 2.13939C52.1291 1.7868 51.9692 1.45893 51.7261 1.19738C51.483 0.93583 51.1677 0.752381 50.8201 0.670318C50.3573 0.561028 49.87 0.639082 49.4645 0.887471C49.059 1.13586 48.768 1.53445 48.6551 1.9964Z" fill="#263238"/>
<path d="M58.7977 3.44216C58.7414 3.67399 58.7552 3.91727 58.8372 4.1413C58.9191 4.36532 59.0657 4.56003 59.2582 4.70084C59.4508 4.84165 59.6807 4.92225 59.9191 4.93245C60.1574 4.94265 60.3934 4.882 60.5973 4.75816C60.8012 4.63432 60.9638 4.45284 61.0646 4.23664C61.1654 4.02044 61.1999 3.77922 61.1637 3.54343C61.1275 3.30764 61.0223 3.08786 60.8613 2.91185C60.7003 2.73584 60.4907 2.61148 60.2591 2.55448C60.1048 2.51653 59.9446 2.5094 59.7876 2.5335C59.6306 2.5576 59.4798 2.61246 59.3441 2.69493C59.2083 2.77739 59.0901 2.88585 58.9964 3.01408C58.9026 3.1423 58.8351 3.28778 58.7977 3.44216Z" fill="#263238"/>
<path d="M51.9012 0.947037C51.845 1.17887 51.8587 1.42216 51.9407 1.64618C52.0227 1.87021 52.1692 2.06491 52.3617 2.20572C52.5543 2.34653 52.7842 2.42713 53.0226 2.43733C53.2609 2.44753 53.4969 2.38688 53.7008 2.26304C53.9047 2.1392 54.0673 1.95772 54.1681 1.74152C54.2689 1.52532 54.3034 1.2841 54.2672 1.04831C54.231 0.812521 54.1258 0.592741 53.9648 0.416728C53.8038 0.240716 53.5942 0.116364 53.3626 0.0593706C53.2083 0.0214184 53.0481 0.0142848 52.8911 0.0383845C52.7341 0.0624842 52.5834 0.117339 52.4476 0.199806C52.3118 0.282273 52.1937 0.390732 52.0999 0.518958C52.0061 0.647184 51.9386 0.792658 51.9012 0.947037Z" fill="#263238"/>
<path d="M47.0301 3.40407C46.9739 3.6359 46.9876 3.87919 47.0696 4.10322C47.1516 4.32724 47.2981 4.52195 47.4906 4.66276C47.6832 4.80357 47.9132 4.88417 48.1515 4.89437C48.3898 4.90457 48.6258 4.84391 48.8297 4.72007C49.0336 4.59623 49.1962 4.41476 49.297 4.19856C49.3978 3.98236 49.4323 3.74113 49.3961 3.50534C49.3599 3.26955 49.2547 3.04977 49.0937 2.87376C48.9327 2.69775 48.7231 2.5734 48.4915 2.5164C48.3372 2.47845 48.177 2.47132 48.02 2.49542C47.863 2.51952 47.7123 2.57437 47.5765 2.65684C47.4407 2.7393 47.3226 2.84776 47.2288 2.97599C47.135 3.10422 47.0675 3.24969 47.0301 3.40407Z" fill="#263238"/>
<path d="M57.1188 1.59098C57.033 1.94127 57.0529 2.30914 57.1761 2.6481C57.2993 2.98706 57.5202 3.28189 57.8109 3.49534C58.1016 3.70879 58.449 3.83128 58.8093 3.84732C59.1696 3.86336 59.5266 3.77223 59.8351 3.58546C60.1436 3.39869 60.3898 3.12465 60.5427 2.79798C60.6955 2.4713 60.748 2.10666 60.6937 1.75013C60.6393 1.39361 60.4805 1.06119 60.2372 0.794908C59.994 0.528623 59.6773 0.340413 59.3272 0.254069C58.8571 0.139633 58.3608 0.216056 57.947 0.466606C57.5331 0.717155 57.2353 1.12143 57.1188 1.59098Z" fill="#263238"/>
<path d="M83.2964 33.7747L90.69 41.0979C91.7726 41.0546 92.1947 38.5432 92.3679 36.5189L91.3179 34.5054L92.3679 32.4648H95.583L96.3191 34.7057L95.9186 36.5189L94.3273 37.2875C94.3273 37.2875 93.2123 46.4131 91.805 46.4131C90.3978 46.4131 81.2559 38.4349 81.2559 38.4349L83.2964 33.7747Z" fill="#EEC1BB"/>
<path d="M81.2988 39.1167L85.3583 42.4346L88.6383 37.2547L83.2744 33.7744L81.2988 39.1167Z" fill="#263238"/>
<path opacity="0.2" d="M83.5664 40.973L84.1943 37.8066L85.358 42.4344L83.5664 40.973Z" fill="black"/>
<path d="M84.0263 49.4766V54.6348L70.0077 55.6091L69.3906 50.1694L84.0263 49.4766Z" fill="#EEC1BB"/>
<path d="M98.1376 135.547L95.0416 136.094L93.7696 131.872L92.6113 127.997L96.1836 126.752L97.2175 131.407L98.1376 135.547Z" fill="#EEC1BB"/>
<path opacity="0.2" d="M97.2322 131.504L93.7844 131.959L92.6152 128.04L96.1821 126.773L97.2322 131.504Z" fill="black"/>
<path d="M99.3121 135.58C99.2966 135.572 99.284 135.559 99.2762 135.544C99.2684 135.528 99.2658 135.51 99.2688 135.493C99.2688 135.444 99.3608 134.351 99.8101 133.994C99.8626 133.949 99.9239 133.916 99.9902 133.896C100.056 133.877 100.126 133.871 100.194 133.88C100.262 133.88 100.328 133.904 100.381 133.948C100.433 133.991 100.469 134.051 100.481 134.118C100.562 134.519 99.8047 135.352 99.3987 135.564H99.3554L99.3121 135.58ZM99.9183 134.102C99.6537 134.444 99.4972 134.856 99.4691 135.288C99.8588 134.995 100.341 134.362 100.292 134.118C100.292 134.091 100.292 134.026 100.162 134.026H100.119C100.045 134.027 99.9739 134.054 99.9183 134.102Z" fill="#263238"/>
<path d="M77.4603 136.976H74.3156L73.8014 132.548L73.3359 128.505L77.0652 127.883L77.2763 132.695L77.4603 136.976Z" fill="#EEC1BB"/>
<path opacity="0.2" d="M77.2763 132.733L73.8014 132.582L73.3359 128.522L77.0652 127.895L77.2763 132.733Z" fill="black"/>
<path d="M97.526 129.047L92.4381 129.945C87.3016 117.144 83.6426 106.465 81.0717 97.5995C79.6806 92.8147 78.5223 88.5604 77.6888 84.7878L77.8457 98.7199V130.113H72.8283C60.2548 70.2225 69.1639 56.5773 69.1639 56.5773L84.211 54.0713C84.8014 56.8556 85.219 59.6737 85.4613 62.5096L86.1433 67.5L92.0213 97.8755L97.526 129.047Z" fill="#467CA6"/>
<g opacity="0.3">
<path d="M97.526 129.047L92.4381 129.945C87.3016 117.144 83.6426 106.465 81.0717 97.5995C79.6806 92.8147 78.5223 88.5604 77.6888 84.7878L77.8457 98.7199V130.113H72.8283C60.2548 70.2225 69.1639 56.5773 69.1639 56.5773L84.211 54.0713C84.8014 56.8556 85.219 59.6737 85.4613 62.5096L86.1433 67.5L92.0213 97.8755L97.526 129.047Z" fill="white"/>
</g>
<path opacity="0.2" d="M81.0649 97.583C79.6739 92.7983 78.5914 88.544 77.7578 84.7714C77.8302 80.3038 78.1555 75.8439 78.7321 71.4131C78.7321 71.4131 80.935 88.6576 81.0649 97.583Z" fill="black"/>
<path d="M85.2916 56.6322L67.9388 58.072C68.48 54.6674 68.729 48.8976 67.6248 44.9897C67.4571 44.4051 67.273 43.7881 67.0836 43.1278C66.8454 42.37 66.5748 41.5563 66.2717 40.6867C66.039 40.0155 65.7846 39.3011 65.5031 38.5216C65.4273 38.2997 65.3407 38.0724 65.2541 37.8451C64.9727 37.0819 64.6696 36.27 64.334 35.4148C66.3479 34.8442 68.3962 34.4031 70.4665 34.0941C72.6651 33.7483 74.8832 33.5404 77.1077 33.4717C79.9818 33.4717 83.2889 33.7369 83.2889 33.7369C83.2889 33.7369 83.7544 33.8397 84.0521 36.5569C84.3065 39.1278 85.8816 47.3442 85.2916 56.6322Z" fill="#263238"/>
<path d="M76.9243 34.3701C76.7791 34.2966 76.629 34.2333 76.475 34.1807C76.1286 33.91 75.7173 33.2605 75.7389 31.6855C75.7503 31.067 75.8063 30.4501 75.9067 29.8398L71.5225 29.0225C71.5225 29.0225 73.0164 31.9723 71.7715 34.1644C71.3439 34.3539 71.0841 34.6245 71.1328 34.9817C71.463 37.5148 76.291 38.0128 76.291 38.0128C76.291 38.0128 79.5656 35.8261 76.9243 34.3701Z" fill="#EEC1BB"/>
<path opacity="0.2" d="M75.9077 29.8398C75.3935 31.2308 74.2514 32.1942 72.2487 32.5785C72.3154 31.3506 72.0656 30.1262 71.5234 29.0225L75.9077 29.8398Z" fill="black"/>
<path d="M78.1431 15.1604C78.1431 15.1604 77.6018 10.4948 81.894 12.0265C86.1862 13.5583 85.6287 21.3579 87.6909 23.9343C89.7531 26.5107 91.2957 26.2292 91.2957 26.2292C91.2957 26.2292 88.7193 28.3618 86.2511 27.1818C83.783 26.0019 78.1431 15.1604 78.1431 15.1604Z" fill="#263238"/>
<path d="M78.084 15.8803L79.1016 15.1875C79.4791 15.2769 79.8331 15.4463 80.1394 15.6845C80.4457 15.9226 80.6972 16.2238 80.8769 16.5677C81.2635 17.2617 81.4927 18.0323 81.5481 18.8248L80.1733 19.4147L78.084 15.8803Z" fill="#407BFF"/>
<path d="M72.9464 15.7774C72.9464 15.7774 67.7774 15.4148 67.0629 19.6041C66.8538 20.7939 66.9875 22.0186 67.4485 23.1352C67.9096 24.2518 68.6788 25.2141 69.6664 25.9098L72.9464 15.7774Z" fill="#263238"/>
<path d="M73.5519 17.9531C69.736 17.9531 68.5073 20.0045 68.2313 23.9395C67.8903 28.8541 68.9837 32.3507 73.7576 31.2952C80.2202 29.8609 79.8738 17.9477 73.5519 17.9531Z" fill="#EEC1BB"/>
<path d="M70.6841 23.7236C70.3881 24.2938 70.0247 24.8262 69.6016 25.3095C69.7135 25.4669 69.8668 25.5901 70.0445 25.6656C70.2222 25.7411 70.4174 25.7659 70.6083 25.7371L70.6841 23.7236Z" fill="#D4827D"/>
<path d="M73.0117 23.4309C73.0117 23.7448 73.1687 24.0046 73.3744 24.0046C73.58 24.0046 73.7587 23.7611 73.7695 23.4634C73.7803 23.1657 73.6125 22.8896 73.4014 22.8896C73.1903 22.8896 73.0117 23.0953 73.0117 23.4309Z" fill="#263238"/>
<path d="M73.4988 22.8894L72.8223 22.6025C72.8223 22.6025 73.1524 23.1654 73.4988 22.8894Z" fill="#263238"/>
<path d="M69.125 23.2581C69.125 23.572 69.282 23.7993 69.4876 23.8318C69.6933 23.8643 69.8719 23.5882 69.8828 23.2905C69.8936 22.9928 69.7258 22.7168 69.5147 22.7168C69.3036 22.7168 69.1304 22.9441 69.125 23.2581Z" fill="#263238"/>
<path d="M69.6024 22.7166L68.9258 22.4297C68.9258 22.4297 69.256 23.0142 69.6024 22.7166Z" fill="#263238"/>
<path d="M74.7108 21.5312C74.6839 21.532 74.6572 21.5266 74.6328 21.5153C74.6084 21.5041 74.5869 21.4872 74.5701 21.4662C74.3764 21.2748 74.1419 21.1296 73.8841 21.0415C73.6264 20.9534 73.3521 20.9246 73.0816 20.9574C73.0324 20.9622 72.9832 20.9481 72.944 20.9179C72.9048 20.8878 72.8786 20.8439 72.8706 20.7951C72.8675 20.7709 72.8694 20.7463 72.8759 20.7228C72.8825 20.6994 72.8936 20.6774 72.9087 20.6583C72.9238 20.6391 72.9426 20.6232 72.9639 20.6114C72.9852 20.5995 73.0087 20.5921 73.0329 20.5894C73.3657 20.5473 73.7036 20.5831 74.0202 20.6939C74.3367 20.8047 74.6232 20.9876 74.857 21.2281C74.8917 21.2635 74.9111 21.3111 74.9111 21.3607C74.9111 21.4103 74.8917 21.4579 74.857 21.4933C74.8367 21.5096 74.8132 21.5214 74.788 21.5279C74.7628 21.5344 74.7365 21.5356 74.7108 21.5312Z" fill="#263238"/>
<path d="M68.7633 21.1143C68.7325 21.1145 68.7021 21.1072 68.6748 21.0931C68.6474 21.079 68.6239 21.0584 68.6064 21.0331C68.5924 21.0126 68.5826 20.9896 68.5778 20.9652C68.5729 20.9409 68.573 20.9159 68.5781 20.8916C68.5831 20.8674 68.593 20.8444 68.6072 20.8241C68.6214 20.8037 68.6395 20.7864 68.6605 20.7733C68.8974 20.5936 69.172 20.4701 69.4636 20.4119C69.7551 20.3538 70.0561 20.3626 70.3438 20.4377C70.39 20.4548 70.4277 20.4893 70.4489 20.5337C70.4701 20.5782 70.4732 20.6292 70.4575 20.6758C70.4403 20.722 70.4059 20.7597 70.3614 20.781C70.317 20.8022 70.266 20.8052 70.2193 20.7895C69.9858 20.7362 69.7433 20.7353 69.5094 20.7868C69.2754 20.8383 69.0558 20.9408 68.8662 21.0872C68.8343 21.1037 68.7992 21.1129 68.7633 21.1143Z" fill="#263238"/>
<path d="M77.7148 24.3832C77.7148 24.3832 75.9287 21.2493 76.1939 18.8299C76.1939 18.8299 68.6163 15.7447 68.2644 23.4252C68.2644 23.4252 67.5121 16.6107 74.0776 16.4483C80.6431 16.2859 80.6214 25.8879 77.2385 28.7566C77.2385 28.7566 78.8244 26.3426 77.7148 24.3832Z" fill="#263238"/>
<path d="M72.2806 15.5177C72.2806 15.5177 69.1088 14.9278 68.2699 15.8046C67.4309 16.6815 74.0722 22.1698 77.4118 22.5758C77.4118 22.5758 78.7378 26.1698 77.953 27.9343C77.953 27.9343 81.6011 26.4241 81.4604 20.7517C81.3196 15.0793 75.2359 13.2823 72.2806 15.5177Z" fill="#263238"/>
<path d="M77.0922 25.1902C77.1295 24.7486 77.3399 24.3397 77.6776 24.0527C78.0153 23.7657 78.4528 23.624 78.8946 23.6584C80.08 23.7883 80.6429 26.2131 77.7038 26.8031C77.2816 26.8843 77.0435 26.473 77.0922 25.1902Z" fill="#EEC1BB"/>
<path d="M70.2129 27.0957C70.4743 27.5643 70.7022 28.0509 70.8949 28.5517L71.1709 28.4922C72.4266 28.2161 72.9192 27.6749 73.0816 27.1553C73.1574 26.9024 73.1704 26.6349 73.1195 26.3758C73.0966 26.2279 73.0528 26.0839 72.9896 25.9482C72.2887 26.4612 71.4857 26.8175 70.6351 26.9929C70.3753 27.0632 70.2129 27.0957 70.2129 27.0957Z" fill="#263238"/>
<path d="M70.6348 26.9929L70.8513 27.4151C72.0312 27.1553 72.8269 26.8143 73.1191 26.3758C73.0962 26.2279 73.0525 26.0839 72.9893 25.9482C72.2884 26.4612 71.4854 26.8175 70.6348 26.9929Z" fill="white"/>
<path d="M71.1719 28.4912C72.4276 28.2152 72.9201 27.6739 73.0825 27.1543C72.6083 27.2708 72.1578 27.4686 71.751 27.7389C71.4849 27.9238 71.2826 28.1867 71.1719 28.4912Z" fill="#DE5753"/>
<path d="M99.3326 135.558C99.3148 135.555 99.2988 135.545 99.2871 135.531C99.2753 135.518 99.2685 135.5 99.2676 135.482C99.2636 135.465 99.2657 135.447 99.2736 135.431C99.2815 135.415 99.2947 135.403 99.3109 135.396C99.4462 135.309 100.669 134.557 101.086 134.773C101.134 134.795 101.174 134.83 101.202 134.875C101.229 134.919 101.244 134.97 101.243 135.022C101.254 135.112 101.243 135.203 101.21 135.287C101.177 135.371 101.123 135.446 101.054 135.504C100.842 135.651 100.586 135.72 100.328 135.699C99.9925 135.687 99.6586 135.64 99.3326 135.558ZM99.5924 135.434C100.036 135.584 100.52 135.559 100.946 135.363C100.989 135.323 101.023 135.274 101.044 135.218C101.064 135.162 101.072 135.103 101.065 135.044C101.065 134.968 101.032 134.936 101.005 134.936C100.968 134.925 100.929 134.925 100.891 134.936C100.431 135.017 99.9895 135.186 99.5924 135.434Z" fill="#263238"/>
<path d="M78.2232 135.558C78.2055 135.555 78.1895 135.545 78.1777 135.531C78.1659 135.518 78.1591 135.5 78.1582 135.482C78.1542 135.465 78.1563 135.447 78.1643 135.431C78.1722 135.415 78.1853 135.403 78.2015 135.396C78.3369 135.309 79.5601 134.557 79.9769 134.773C80.0243 134.795 80.0643 134.83 80.0922 134.875C80.12 134.919 80.1345 134.97 80.1338 135.022C80.145 135.112 80.1335 135.203 80.1004 135.287C80.0673 135.371 80.0137 135.446 79.9444 135.504C79.7324 135.651 79.4761 135.72 79.2191 135.699C78.8831 135.687 78.5493 135.64 78.2232 135.558ZM78.483 135.434C78.9264 135.584 79.4107 135.559 79.8361 135.363C79.8799 135.323 79.9135 135.274 79.9342 135.218C79.9549 135.162 79.9621 135.103 79.9552 135.044C79.9552 134.968 79.9227 134.936 79.8957 134.936C79.8585 134.925 79.8192 134.925 79.782 134.936C79.3211 135.017 78.8802 135.186 78.483 135.434Z" fill="#263238"/>
<path d="M78.2027 135.58C78.1872 135.572 78.1746 135.559 78.1668 135.544C78.159 135.528 78.1564 135.51 78.1594 135.493C78.1594 135.444 78.2515 134.351 78.7007 133.994C78.7532 133.949 78.8146 133.916 78.8808 133.896C78.947 133.877 79.0166 133.871 79.085 133.88C79.1531 133.88 79.219 133.904 79.2713 133.948C79.3237 133.991 79.3593 134.051 79.3719 134.118C79.4531 134.519 78.6953 135.352 78.2894 135.564H78.246L78.2027 135.58ZM78.809 134.102C78.5443 134.444 78.3878 134.856 78.3597 135.288C78.7494 134.995 79.2311 134.362 79.1824 134.118C79.1824 134.091 79.1824 134.026 79.0525 134.026H79.0092C78.9356 134.027 78.8645 134.054 78.809 134.102Z" fill="#263238"/>
<path d="M99.0738 135.033H94.4677C94.392 135.032 94.3184 135.058 94.2593 135.105C94.2002 135.153 94.1591 135.219 94.1429 135.293L93.396 138.67C93.3786 138.742 93.3762 138.817 93.3888 138.89C93.4015 138.963 93.4289 139.032 93.4695 139.094C93.5101 139.156 93.5629 139.209 93.6248 139.25C93.6866 139.29 93.7561 139.318 93.829 139.331C93.8685 139.336 93.9086 139.336 93.9481 139.331C95.442 139.303 96.5245 139.211 98.3972 139.211C99.5501 139.211 103.03 139.336 104.622 139.336C106.213 139.336 106.419 137.761 105.769 137.615C102.846 136.981 100.643 136.099 99.7125 135.255C99.5352 135.103 99.3071 135.024 99.0738 135.033Z" fill="#354750"/>
<path d="M77.9644 135.033H73.3583C73.2826 135.032 73.209 135.058 73.1499 135.105C73.0908 135.153 73.0497 135.219 73.0336 135.293L72.2866 138.67C72.2692 138.742 72.2668 138.817 72.2794 138.89C72.2921 138.963 72.3195 139.032 72.3601 139.094C72.4007 139.156 72.4535 139.209 72.5154 139.25C72.5772 139.29 72.6467 139.318 72.7196 139.331C72.7592 139.336 72.7992 139.336 72.8387 139.331C74.3326 139.303 75.4151 139.211 77.2879 139.211C78.4408 139.211 81.9211 139.336 83.5124 139.336C85.1037 139.336 85.3094 137.761 84.6598 137.615C81.737 136.981 79.5341 136.099 78.6031 135.255C78.4258 135.103 78.1977 135.024 77.9644 135.033Z" fill="#364750"/>
<path opacity="0.2" d="M67.057 43.1379C66.8189 42.3801 66.5483 41.5664 66.2452 40.6968C66.0124 40.0256 65.758 39.3112 65.4766 38.5317C65.6146 38.1939 65.8231 37.8895 66.0882 37.6387C66.0882 37.6387 67.2248 40.7509 67.057 43.1379Z" fill="black"/>
<path d="M64.3191 35.4523C62.3543 36.4211 56.487 45.7362 58.1595 48.8701C59.832 52.004 67.361 54.759 67.361 54.759C67.361 54.759 64.2217 56.4857 64.3299 56.9241C64.4382 57.3625 67.0362 59.0891 67.361 59.0891C68.2641 58.3995 69.1111 57.6394 69.8941 56.8158C70.2675 56.3936 69.9428 54.6183 69.9428 54.6183C67.821 52.8917 61.9917 48.7348 61.6344 47.8038C61.2772 46.8729 66.1918 40.4589 66.1918 40.4589C66.1918 40.4589 66.3326 37.7959 65.7426 36.6052C65.1526 35.4144 64.3191 35.4523 64.3191 35.4523Z" fill="#EEC1BB"/>
<path d="M63.9617 44.3832L59.5938 41.1032C61.2933 38.7487 62.6356 35.3767 64.319 35.4524C66.0023 35.5282 66.2837 37.8719 66.2567 40.6972L63.9617 44.3832Z" fill="#263238"/>
<path d="M166.135 12.7619C166.135 12.7619 162.146 10.5482 158.893 12.2207C157.393 12.9784 156.868 14.927 156.549 16.4317C156.11 18.5426 156.04 20.7131 155.737 22.8456C155.631 23.7484 155.373 24.6268 154.974 25.4437C154.433 26.5262 153.29 27.6087 153.518 28.9348C153.713 30.1039 154.909 30.8076 155.953 31.1269C158.719 31.9767 161.853 31.5058 164.711 31.6682C167.011 31.8143 169.236 32.5937 171.542 32.6479C172.198 32.7048 172.857 32.5734 173.442 32.269C175.666 30.9429 174.697 27.5329 173.983 25.6385C173.371 24.0148 173.821 22.391 173.626 20.6968C173.484 19.2118 173.135 17.7541 172.586 16.3667C171.428 13.6334 169.112 12.1828 166.135 12.7619Z" fill="#263238"/>
<path d="M146.979 41.4001C147.721 41.3351 155.049 36.5775 155.049 36.5775L155.309 34.591L155.585 32.426C154.503 32.3881 147.926 37.6383 146.984 38.0984C145.074 39.0402 145.29 41.5408 146.979 41.4001Z" fill="#EBB376"/>
<path opacity="0.2" d="M153.074 37.839L155.05 36.5725L155.326 34.4453L153.074 37.839Z" fill="black"/>
<path d="M174.47 33.2543C174.47 33.2543 171.19 36.5884 170.784 50.764L156.099 49.5787C156.099 49.5787 153.761 39.4625 155.558 32.3125C161.838 30.991 168.352 31.3154 174.47 33.2543Z" fill="#004E89"/>
<path d="M143.229 131.254L146.162 131.774L147.369 127.769L148.468 124.094L145.08 122.908L144.095 127.325L143.229 131.254Z" fill="#EBB376"/>
<path opacity="0.2" d="M144.078 127.418L147.353 127.851L148.457 124.132L145.074 122.931L144.078 127.418Z" fill="black"/>
<path d="M162.832 132.608H165.82L166.307 128.407L166.751 124.57L163.211 123.985L163.011 128.548L162.832 132.608Z" fill="#EBB376"/>
<path opacity="0.2" d="M163.012 128.587L166.308 128.44L166.752 124.592L163.212 123.991L163.012 128.587Z" fill="black"/>
<path d="M143.803 125.084L148.631 125.939C153.502 113.799 156.972 103.667 159.418 95.2553C160.739 90.7196 161.838 86.6818 162.628 83.0986L162.482 96.3162V126.086H167.239C179.147 69.2532 170.601 52.6311 170.601 52.6311L156.095 51.7109C155.553 53.8381 155.489 59.5592 155.25 61.9624L154.606 66.7309L149.026 95.5422L143.803 125.084Z" fill="#263238"/>
<path opacity="0.2" d="M159.416 95.2554C160.737 90.7196 161.765 86.6818 162.555 83.0986C162.487 78.8609 162.178 74.6304 161.63 70.4277C161.63 70.4277 159.541 86.7576 159.416 95.2554Z" fill="black"/>
<path d="M170.784 50.7635L156.1 49.5781V52.0733L171.001 53.3886L170.784 50.7635Z" fill="black"/>
<path d="M160.153 50.6826V51.8354C160.152 52.0617 160.236 52.2802 160.389 52.4475C160.541 52.6149 160.751 52.719 160.976 52.7393L162.795 52.8963H162.86C163.086 52.8953 163.304 52.8105 163.471 52.6582C163.564 52.5739 163.638 52.4711 163.688 52.3564C163.739 52.2417 163.764 52.1177 163.764 51.9924V50.8341C163.766 50.6074 163.682 50.3883 163.53 50.2207C163.377 50.0531 163.167 49.9493 162.941 49.9302L161.122 49.7732C160.998 49.7636 160.872 49.7797 160.754 49.8207C160.636 49.8617 160.527 49.9267 160.435 50.0115C160.343 50.0964 160.27 50.1993 160.219 50.3138C160.169 50.4283 160.143 50.552 160.143 50.6771L160.153 50.6826ZM160.619 51.8354V51.4566L161.128 51.4944C161.17 51.5024 161.214 51.5014 161.256 51.4914C161.298 51.4814 161.338 51.4626 161.372 51.4363C161.406 51.41 161.435 51.3768 161.456 51.3388C161.476 51.3008 161.489 51.2589 161.492 51.2157C161.496 51.1726 161.49 51.1292 161.475 51.0884C161.461 51.0476 161.438 51.0103 161.408 50.9789C161.379 50.9475 161.343 50.9227 161.303 50.9062C161.263 50.8896 161.22 50.8817 161.176 50.8828L160.668 50.8395H160.597V50.6663C160.596 50.6053 160.608 50.5447 160.632 50.4887C160.657 50.4327 160.693 50.3825 160.738 50.3416C160.817 50.2675 160.922 50.2268 161.03 50.2279H161.074L162.887 50.3849C162.997 50.3931 163.1 50.4431 163.174 50.5246C163.248 50.6061 163.289 50.7129 163.287 50.8233V51.9816C163.288 52.0425 163.275 52.1029 163.251 52.1588C163.227 52.2147 163.191 52.265 163.147 52.3063C163.102 52.3475 163.049 52.3785 162.991 52.3972C162.933 52.4159 162.871 52.4218 162.811 52.4146L160.998 52.2576C160.896 52.2424 160.802 52.1917 160.734 52.1145C160.666 52.0373 160.627 51.9385 160.624 51.8354H160.619Z" fill="white"/>
<path d="M166.881 31.7819C167.15 31.8744 167.372 32.0688 167.498 32.3232C166.071 33.3705 164.337 33.915 162.567 33.8712C162.069 33.8712 161.036 32.4639 161.81 32.0309C161.953 31.9555 162.101 31.8904 162.253 31.8361C162.584 31.5708 162.99 30.9267 162.962 29.3787C162.947 28.769 162.887 28.1612 162.784 27.5601L167.114 26.7266C167.114 26.7266 165.642 29.6331 166.881 31.7819Z" fill="#EBB376"/>
<path opacity="0.2" d="M162.783 27.5494C162.887 28.1505 162.946 28.7583 162.962 29.368C165.879 29.368 167.097 26.7158 167.097 26.7158L162.783 27.5494Z" fill="black"/>
<path d="M147.765 129.647L142.108 128.564V132.586C142.108 132.586 139.218 137.387 137.968 137.712C137.625 137.803 137.331 138.022 137.146 138.325C136.962 138.627 136.901 138.989 136.977 139.336H143.223L144.739 137.522L145.069 139.336H146.271C146.271 139.336 147.537 135.682 146.271 133.116L147.765 129.647Z" fill="#263238"/>
<path d="M167.73 129.144L162.074 129.582L162.572 132.608C162.572 132.608 159.676 137.409 158.426 137.733C158.083 137.823 157.788 138.043 157.604 138.346C157.42 138.649 157.362 139.012 157.441 139.357H163.687L165.202 137.544L165.527 139.357H166.729C166.729 139.357 167.995 135.704 166.729 133.138L167.73 129.144Z" fill="#263238"/>
<path d="M164.267 15.3496C160.478 15.3496 159.293 17.3631 159.017 21.2331C158.671 26.0774 159.742 29.5144 164.43 28.486C170.827 27.0841 170.508 15.355 164.267 15.3496Z" fill="#EBB376"/>
<path d="M161.448 21.0273C161.15 21.5883 160.787 22.1116 160.365 22.5862C160.475 22.7412 160.626 22.8627 160.801 22.9373C160.976 23.0118 161.168 23.0364 161.356 23.0084L161.448 21.0273Z" fill="#D58745"/>
<path d="M163.746 20.7244C163.746 21.0329 163.903 21.2657 164.109 21.2657C164.314 21.2657 164.488 21.0275 164.493 20.7244C164.498 20.4213 164.341 20.1832 164.136 20.1561C163.93 20.129 163.757 20.4105 163.746 20.7244Z" fill="#263238"/>
<path d="M164.218 20.1828L163.553 19.9014C163.553 19.9014 163.877 20.4805 164.218 20.1828Z" fill="#263238"/>
<path d="M159.91 20.5618C159.91 20.8703 160.067 21.103 160.273 21.1301C160.478 21.1571 160.652 20.8919 160.657 20.5888C160.663 20.2857 160.506 20.0476 160.3 20.0205C160.094 19.9934 159.921 20.2532 159.91 20.5618Z" fill="#263238"/>
<path d="M160.381 20.0315L159.721 19.75C159.721 19.75 160.04 20.3237 160.381 20.0315Z" fill="#263238"/>
<path d="M165.419 18.8784C165.391 18.8786 165.363 18.8724 165.338 18.8602C165.312 18.848 165.29 18.8302 165.273 18.8081C165.082 18.621 164.852 18.4792 164.599 18.393C164.346 18.3069 164.077 18.2785 163.811 18.3101C163.787 18.3131 163.763 18.3113 163.739 18.3048C163.716 18.2982 163.694 18.287 163.675 18.2719C163.655 18.2568 163.64 18.2381 163.628 18.2167C163.616 18.1954 163.608 18.172 163.606 18.1477C163.602 18.1238 163.603 18.0994 163.609 18.076C163.615 18.0525 163.625 18.0305 163.64 18.0112C163.655 17.992 163.673 17.976 163.694 17.9641C163.715 17.9522 163.739 17.9447 163.763 17.9421C164.09 17.8977 164.424 17.9304 164.737 18.0375C165.05 18.1446 165.333 18.3232 165.565 18.5591C165.58 18.5779 165.592 18.5995 165.599 18.6228C165.606 18.6461 165.608 18.6705 165.606 18.6946C165.603 18.7188 165.596 18.7422 165.584 18.7635C165.573 18.7848 165.557 18.8037 165.538 18.8189C165.524 18.8369 165.506 18.8516 165.485 18.8619C165.465 18.8722 165.442 18.8778 165.419 18.8784Z" fill="#263238"/>
<path d="M159.558 18.4561C159.518 18.4576 159.477 18.4457 159.444 18.422C159.411 18.3983 159.387 18.3643 159.375 18.3253C159.363 18.2864 159.365 18.2446 159.379 18.2065C159.394 18.1685 159.421 18.1363 159.455 18.1151C159.691 17.9387 159.963 17.8178 160.252 17.7615C160.54 17.7053 160.838 17.7151 161.122 17.7904C161.168 17.8085 161.204 17.8434 161.224 17.8877C161.244 17.9321 161.247 17.9825 161.231 18.0285C161.222 18.0513 161.209 18.0723 161.193 18.0901C161.176 18.1079 161.156 18.1222 161.134 18.1323C161.112 18.1424 161.088 18.148 161.064 18.1487C161.04 18.1495 161.015 18.1454 160.993 18.1368C160.763 18.0834 160.524 18.082 160.294 18.1325C160.063 18.1831 159.847 18.2844 159.661 18.429C159.629 18.4455 159.594 18.4548 159.558 18.4561Z" fill="#263238"/>
<path d="M168.371 21.6871C168.371 21.6871 166.617 18.602 166.882 16.215C166.882 16.215 159.434 13.1677 159.061 20.7291C159.061 20.7291 158.341 14.0121 164.804 13.8659C171.266 13.7198 171.229 23.1756 167.889 25.9902C167.889 25.9902 169.459 23.6194 168.371 21.6871Z" fill="#263238"/>
<path d="M167.758 22.4829C167.773 22.2664 167.831 22.0552 167.929 21.8616C168.027 21.668 168.163 21.496 168.328 21.3558C168.494 21.2155 168.686 21.1098 168.893 21.045C169.1 20.9801 169.318 20.9574 169.534 20.9782C170.697 21.1026 171.249 23.495 168.354 24.0687C167.937 24.1499 167.731 23.744 167.758 22.4829Z" fill="#EBB376"/>
<path d="M161.236 23.9717C161.421 24.4309 161.571 24.9031 161.686 25.3844H161.945C163.125 25.2815 163.64 24.8431 163.856 24.3938C164.003 24.0379 164.023 23.6419 163.91 23.2734C163.21 23.6605 162.435 23.8913 161.637 23.95C161.382 23.9717 161.236 23.9717 161.236 23.9717Z" fill="#263238"/>
<path d="M161.625 23.9393L161.771 24.3506C162.881 24.2532 163.649 24.0367 163.969 23.6686C163.963 23.5308 163.94 23.3943 163.898 23.2627C163.198 23.6498 162.423 23.8806 161.625 23.9393Z" fill="white"/>
<path d="M161.934 25.3733C163.114 25.2705 163.628 24.8321 163.844 24.3828C163.396 24.4268 162.96 24.5515 162.556 24.7509C162.29 24.8895 162.072 25.1068 161.934 25.3733Z" fill="#DE5753"/>
<path opacity="0.2" d="M167.687 44.2799C168.537 44.9456 170.139 44.3394 171.313 43.5925C171.854 40.5614 172.066 38.2719 172.58 36.6914C171.735 37.5033 166.133 43.0566 167.687 44.2799Z" fill="black"/>
<path d="M161.528 41.617C161.503 41.6132 161.48 41.6026 161.461 41.5863C161.442 41.5701 161.427 41.5488 161.42 41.525C161.344 41.2435 159.623 34.5806 161.014 31.5279C161.02 31.5124 161.03 31.4983 161.042 31.4866C161.054 31.4748 161.068 31.4656 161.084 31.4596C161.099 31.4535 161.116 31.4507 161.133 31.4512C161.15 31.4518 161.166 31.4558 161.182 31.4629C161.211 31.4781 161.234 31.5039 161.245 31.535C161.256 31.5662 161.254 31.6004 161.241 31.6307C160.056 34.2234 161.241 39.7172 161.582 41.1299C163.823 36.6157 168.581 31.8905 168.618 31.8418C168.63 31.83 168.643 31.8206 168.658 31.8142C168.673 31.8078 168.689 31.8045 168.705 31.8045C168.721 31.8045 168.737 31.8078 168.752 31.8142C168.767 31.8206 168.781 31.83 168.792 31.8418C168.815 31.8659 168.827 31.8979 168.827 31.9311C168.827 31.9644 168.815 31.9963 168.792 32.0204C168.743 32.0692 163.796 36.9838 161.642 41.5466C161.631 41.5679 161.615 41.5859 161.595 41.5984C161.575 41.6108 161.552 41.6173 161.528 41.617Z" fill="white"/>
<path d="M161.464 43.825C161.214 43.8261 160.969 43.7529 160.761 43.6147C160.553 43.4766 160.39 43.2796 160.294 43.049C160.198 42.8183 160.173 42.5643 160.221 42.3192C160.27 42.074 160.39 41.8488 160.567 41.6721C160.743 41.4954 160.969 41.3752 161.214 41.3267C161.459 41.2782 161.713 41.3036 161.944 41.3998C162.174 41.4959 162.371 41.6584 162.509 41.8666C162.647 42.0748 162.721 42.3194 162.72 42.5693C162.72 42.9023 162.587 43.2217 162.352 43.4572C162.116 43.6927 161.797 43.825 161.464 43.825ZM161.464 41.8115C161.314 41.8115 161.167 41.856 161.043 41.9392C160.918 42.0225 160.821 42.1408 160.764 42.2793C160.706 42.4178 160.691 42.5701 160.721 42.7171C160.75 42.8641 160.822 42.9991 160.928 43.1051C161.034 43.2111 161.169 43.2832 161.316 43.3125C161.463 43.3417 161.615 43.3267 161.754 43.2694C161.892 43.212 162.011 43.1149 162.094 42.9903C162.177 42.8657 162.222 42.7191 162.222 42.5693C162.216 42.3721 162.134 42.1849 161.992 42.0474C161.851 41.9099 161.661 41.8331 161.464 41.8332V41.8115Z" fill="#263238"/>
<path d="M161.809 37.8822L160.424 35.1759C160.424 35.1759 160.624 32.7132 160.424 32.5184C160.223 32.3235 157.468 31.1436 156.478 31.1436C155.487 31.1436 155.395 34.7646 155.791 35.1759C156.186 35.5873 158.692 36.4208 158.692 36.4208L161.203 38.299L161.809 37.8822Z" fill="#EBB376"/>
<path d="M174.469 33.2539C176.905 35.6733 169.598 45.2428 167.097 45.2428C164.597 45.2428 158.691 36.4203 158.691 36.4203L160.423 35.1862C160.423 35.1862 166.318 41.3566 166.827 41.3782C167.335 41.3999 171.254 35.4244 171.969 34.7045C172.694 34.0546 173.545 33.5609 174.469 33.2539Z" fill="#EBB376"/>
<path d="M113.529 33.7523L110.693 32.1285C110.34 31.5422 109.906 31.0084 109.405 30.5426C108.82 30.1042 106.417 29.4601 106.417 29.4601C105.529 29.2653 105.059 29.5413 104.793 30.0609L103.446 33.1244C103.224 33.6657 103.24 33.9147 103.446 33.9526C103.446 33.9526 108.122 35.1109 109.28 34.0987L112.16 35.7712L113.529 33.7523Z" fill="#EEC1BB"/>
<path d="M129.794 24.4692C129.869 24.8924 129.784 25.3284 129.556 25.6925C128.841 27.024 125.935 32.6856 124.533 34.4988C122.259 37.4432 120.419 39.0183 119.006 39.1157C116.668 39.2835 109.762 36.22 109.762 36.22L112.495 32.1281C112.495 32.1281 116.587 34.0116 118.324 33.6165C120.062 33.2214 123.385 24.1391 124.571 21.8604C124.571 21.8604 129.301 22.3475 129.794 24.4692Z" fill="#467CA6"/>
<path opacity="0.2" d="M122.346 37.0376C121.934 37.5842 121.41 38.0364 120.809 38.3636C121.805 36.1986 123.315 27.874 123.315 27.874L122.346 37.0376Z" fill="black"/>
<path d="M141.21 135.233H145.897C145.974 135.233 146.047 135.26 146.106 135.308C146.165 135.357 146.206 135.423 146.222 135.498L146.985 138.93C147.016 139.077 146.987 139.231 146.905 139.358C146.823 139.484 146.694 139.574 146.547 139.606C146.504 139.614 146.46 139.614 146.417 139.606C144.902 139.606 143.797 139.492 141.898 139.492C140.723 139.492 137.189 139.611 135.57 139.611C133.952 139.611 133.741 138.015 134.401 137.869C137.373 137.219 139.608 136.321 140.561 135.465C140.741 135.31 140.972 135.227 141.21 135.233Z" fill="#B3C5D7"/>
<path d="M121.323 135.109H126.011C126.087 135.11 126.16 135.137 126.219 135.186C126.278 135.234 126.319 135.3 126.335 135.374L127.099 138.811C127.118 138.884 127.121 138.96 127.109 139.035C127.097 139.109 127.069 139.18 127.028 139.244C126.987 139.307 126.933 139.361 126.869 139.402C126.806 139.443 126.735 139.47 126.66 139.482H126.536C125.02 139.455 123.916 139.363 122.011 139.363C120.836 139.363 117.302 139.488 115.683 139.488C114.065 139.488 113.854 137.864 114.514 137.739C117.486 137.09 119.727 136.191 120.679 135.341C120.857 135.186 121.087 135.103 121.323 135.109Z" fill="#B3C5D7"/>
<path d="M143.677 48.3877H123.206C121.263 59.0126 115.169 102.167 119.542 135.677H126.47C126.47 135.677 125.826 84.7983 131.948 68.344C132.651 77.1449 139.802 135.644 139.802 135.644H146.838C146.838 135.644 145.782 113.637 144.727 92.8522C144.083 79.7592 143.704 51.0723 143.677 48.3877Z" fill="#263238"/>
<path opacity="0.2" d="M143.677 48.3877H123.206C121.263 59.0126 115.169 102.167 119.542 135.677H126.47C126.47 135.677 125.826 84.7983 131.948 68.344C132.651 77.1449 139.802 135.644 139.802 135.644H146.838C146.838 135.644 145.782 113.637 144.727 92.8522C144.083 79.7592 143.704 51.0723 143.677 48.3877Z" fill="white"/>
<path opacity="0.2" d="M131.943 68.3547C130.939 71.2384 130.175 74.2001 129.659 77.2097C129.085 69.3777 131.374 61.0693 131.374 61.0693L131.943 68.3547Z" fill="black"/>
<path d="M125.859 50.8672L122.773 50.8348L123.039 48.6318H125.859V50.8672Z" fill="black"/>
<path d="M137.02 48.6318H143.639V51.0837L137.02 51.008V48.6318Z" fill="black"/>
<path d="M136.284 50.9971L126.596 50.8781V48.6318H136.284V50.9971Z" fill="black"/>
<path d="M131.667 51.1434H129.377C129.299 51.1434 129.222 51.128 129.15 51.098C129.078 51.068 129.013 51.024 128.958 50.9687C128.903 50.9133 128.86 50.8476 128.83 50.7754C128.801 50.7032 128.786 50.6259 128.787 50.548V49.0812C128.787 48.9247 128.849 48.7746 128.96 48.664C129.071 48.5534 129.221 48.4912 129.377 48.4912H131.667C131.823 48.4912 131.973 48.5534 132.084 48.664C132.194 48.7746 132.257 48.9247 132.257 49.0812V50.548C132.257 50.6259 132.243 50.7032 132.213 50.7754C132.184 50.8476 132.141 50.9133 132.086 50.9687C132.031 51.024 131.966 51.068 131.894 51.098C131.822 51.128 131.745 51.1434 131.667 51.1434ZM129.377 49.0325C129.364 49.0325 129.352 49.0376 129.343 49.0467C129.334 49.0559 129.328 49.0683 129.328 49.0812V50.548C129.328 50.5615 129.333 50.5745 129.342 50.5845C129.351 50.5945 129.364 50.6008 129.377 50.6021H131.667C131.68 50.6008 131.692 50.5945 131.701 50.5845C131.71 50.5745 131.715 50.5615 131.715 50.548V49.0812C131.715 49.0683 131.71 49.0559 131.701 49.0467C131.692 49.0376 131.68 49.0325 131.667 49.0325H129.377Z" fill="white"/>
<path d="M131.942 50.0227H130.757C130.685 50.0227 130.616 49.9942 130.566 49.9434C130.515 49.8927 130.486 49.8239 130.486 49.7521C130.486 49.6803 130.515 49.6115 130.566 49.5607C130.616 49.51 130.685 49.4814 130.757 49.4814H131.942C132.014 49.4814 132.083 49.51 132.134 49.5607C132.184 49.6115 132.213 49.6803 132.213 49.7521C132.213 49.8239 132.184 49.8927 132.134 49.9434C132.083 49.9942 132.014 50.0227 131.942 50.0227Z" fill="white"/>
<path d="M146.871 23.4949C146.633 24.3447 146.368 25.4543 146.108 26.802C145.805 28.3338 145.502 30.1741 145.242 32.2525C144.626 37.689 144.382 43.1613 144.512 48.631L122.385 48.4416C122.385 48.4416 121.47 34.0874 124.55 21.8603L145.388 21.6005C145.623 21.5924 145.856 21.6398 146.068 21.7389C146.281 21.838 146.467 21.9859 146.612 22.1705C146.756 22.3552 146.855 22.5714 146.9 22.8016C146.945 23.0317 146.936 23.2693 146.871 23.4949Z" fill="#467CA6"/>
<path opacity="0.2" d="M146.108 26.8025C145.805 28.3343 145.264 32.3721 144.999 34.4505C142.958 33.46 142.807 28.1016 142.807 28.1016C143.705 27.9717 145.675 26.402 146.108 26.8025Z" fill="black"/>
<path d="M132.955 23.7875C132.955 23.7875 137.334 23.8254 138.909 22.0067C137.919 21.1678 137.491 19.5007 137.361 17.7145C137.279 16.4518 137.302 15.1845 137.431 13.9257C137.464 13.5144 137.513 13.1355 137.561 12.7891L132.744 17.4006C132.744 17.4818 132.793 17.563 132.82 17.6496C132.89 17.8932 132.955 18.1475 133.004 18.3911C133.145 18.9907 133.169 19.6119 133.074 20.2206C133.054 20.6356 132.968 21.0448 132.82 21.433C132.663 21.6874 132.344 21.8931 131.635 22.1042C131.153 22.9918 132.955 23.7875 132.955 23.7875Z" fill="#EEC1BB"/>
<path opacity="0.2" d="M132.797 21.4116C134.28 20.8703 136.109 18.6024 137.235 16.5835C137.186 15.6868 137.244 14.7873 137.408 13.9043L132.797 17.6282C132.867 17.8717 132.932 18.1261 132.981 18.3697C133.122 18.9693 133.146 19.5905 133.051 20.1992C133.031 20.6142 132.945 21.0234 132.797 21.4116Z" fill="black"/>
<path d="M127.975 4.98438C127.975 4.98438 126.584 10.1047 129.117 12.4213C131.65 14.7379 132.765 5.02768 132.765 5.02768L127.975 4.98438Z" fill="#263238"/>
<path d="M136.668 17.4768C135.991 18.2683 135.073 18.8156 134.055 19.0347C133.037 19.2537 131.976 19.1324 131.033 18.6893C129.809 18.1358 128.842 17.1373 128.327 15.8964C128.25 15.7203 128.185 15.5395 128.132 15.3551C127.136 12.0155 127.342 6.39723 130.947 4.69767C131.557 4.40516 132.219 4.23571 132.894 4.199C133.57 4.16228 134.246 4.25902 134.885 4.48368C135.523 4.70835 136.111 5.05655 136.615 5.50839C137.118 5.96024 137.528 6.50688 137.821 7.11711C138.175 7.84451 138.35 8.64643 138.329 9.45535C138.302 13.2442 138.47 15.4579 136.668 17.4768Z" fill="#EEC1BB"/>
<path d="M132.662 10.8408C132.7 11.1439 132.532 11.3821 132.326 11.4146C132.121 11.447 131.953 11.1818 131.937 10.8733C131.921 10.5648 132.067 10.3321 132.267 10.2996C132.467 10.2671 132.64 10.5323 132.662 10.8408Z" fill="#263238"/>
<path d="M129.199 11.0302C129.237 11.3333 129.064 11.5714 128.869 11.6039C128.674 11.6364 128.49 11.3711 128.474 11.0626C128.458 10.7541 128.609 10.5214 128.804 10.4889C128.999 10.4564 129.183 10.7379 129.199 11.0302Z" fill="#263238"/>
<path d="M130.309 11.1221C129.994 12.0801 129.55 12.9907 128.988 13.8284C129.207 13.9673 129.454 14.0567 129.711 14.0903C129.968 14.124 130.229 14.1011 130.477 14.0232L130.309 11.1221Z" fill="#D4827D"/>
<path d="M127.855 9.67645C127.885 9.68991 127.918 9.69451 127.951 9.68972C127.984 9.68493 128.014 9.67093 128.039 9.64938C128.213 9.50779 128.417 9.40785 128.636 9.35719C128.854 9.30653 129.082 9.30651 129.3 9.35711C129.322 9.36548 129.346 9.36914 129.369 9.36786C129.393 9.36658 129.416 9.36037 129.436 9.34966C129.457 9.33894 129.476 9.32395 129.491 9.30565C129.505 9.28736 129.516 9.26616 129.522 9.24344C129.53 9.22142 129.533 9.19812 129.531 9.17491C129.529 9.15169 129.523 9.12905 129.512 9.10834C129.502 9.08763 129.487 9.06927 129.469 9.05435C129.451 9.03943 129.431 9.02827 129.408 9.02153C129.132 8.95219 128.843 8.9499 128.565 9.01486C128.287 9.07981 128.029 9.21014 127.812 9.395C127.793 9.40934 127.777 9.42738 127.765 9.44805C127.752 9.46872 127.745 9.49159 127.742 9.51532C127.739 9.53904 127.74 9.56314 127.747 9.58617C127.753 9.6092 127.764 9.63069 127.779 9.64938L127.855 9.67645Z" fill="#263238"/>
<path d="M133.269 ./../p9.4221C133.305 9.42098 133.339 9.40761 133.366 9.38422C133.381 9.36631 133.393 9.34553 133.4 9.32314C133.406 9.30075 133.409 9.27721 133.406 9.25394C133.404 9.23067 133.396 9.20816 133.385 9.18775C133.373 9.16735 133.358 9.14948 133.339 9.13523C133.116 8.95138 132.852 8.82471 132.569 8.76623C132.286 8.70775 131.993 8.71923 131.716 8.79966C131.671 8.81566 131.634 8.84821 131.613 8.89055C131.592 8.93288 131.588 8.98175 131.602 9.02698C131.62 9.07116 131.654 9.10713 131.697 9.12808C131.74 9.14904 131.789 9.15351 131.835 9.14065C132.053 9.08503 132.282 9.08203 132.502 9.13189C132.723 9.18175 132.928 9.28306 133.101 9.42752C133.128 9.43881 133.157 9.44418 133.186 9.44325C133.215 9.44231 133.243 9.43509 133.269 9.4221Z" fill="#263238"/>
<path d="M135.299 4.92969L134.975 5.64956C136.22 6.04468 135.987 7.48985 135.738 8.15019C135.197 9.55205 136.025 11.7117 137.102 12.5669C137.102 12.5669 137.102 11.9607 137.643 12.1014C138.184 12.2421 138.033 15.3923 137.048 16.9024C137.048 16.9024 138.547 15.533 139.375 12.2205C140.138 9.15151 140.219 6.60218 139.581 5.42223L135.299 4.92969Z" fill="#263238"/>
<path d="M140.126 12.4696C139.756 13.3424 139.055 14.0331 138.177 14.3911C137.008 14.8566 136.288 13.8498 136.5 12.6699C136.694 11.6253 137.533 10.0989 138.762 10.1476C139.027 10.1641 139.285 10.2455 139.511 10.3847C139.738 10.5238 139.927 10.7166 140.062 10.9459C140.196 11.1751 140.273 11.434 140.284 11.6997C140.295 11.9654 140.241 12.2298 140.126 12.4696Z" fill="#EEC1BB"/>
<path d="M130.578 15.0682C130.85 15.5409 131.087 16.0329 131.287 16.5404L131.569 16.4809C132.841 16.194 133.333 15.6365 133.496 15.1115C133.567 14.8523 133.578 14.58 133.528 14.3158C133.501 14.1657 133.454 14.02 133.387 13.8828C132.682 14.409 131.871 14.7781 131.011 14.9653C130.751 15.0357 130.578 15.0682 130.578 15.0682Z" fill="#263238"/>
<path d="M131.012 14.9649L131.234 15.3925C132.43 15.1164 133.236 14.7646 133.529 14.31C133.502 14.1598 133.454 14.0141 133.388 13.877C132.683 14.4051 131.872 14.7761 131.012 14.9649Z" fill="white"/>
<path d="M131.568 16.4807C132.84 16.1938 133.333 15.6364 133.495 15.1113C133.014 15.2302 132.558 15.4336 132.148 15.7121C131.877 15.8997 131.674 16.1691 131.568 16.4807Z" fill="#DE5753"/>
<path d="M127.975 4.98404C128.272 3.27366 129.057 1.85556 129.961 0.188477L130.226 2.1316C130.655 1.3982 131.245 0.772456 131.953 0.302145L132.299 2.39141C132.705 1.49292 133.615 0.973307 134.8 0.664788L134.627 2.46719C135.155 1.66753 135.958 1.08966 136.884 0.843405L136.792 2.55378C136.925 2.33432 137.11 2.15097 137.331 2.0198C137.552 1.88862 137.802 1.81364 138.058 1.80143L139.579 5.40082L135.882 6.59159L128.694 6.83515L127.975 4.98404Z" fill="#263238"/>
<path d="M149.235 48.3281L149.046 51.6569C149.349 52.2819 149.56 52.9473 149.674 53.6325C149.717 54.374 148.126 59.2724 148.126 59.2724L144.186 57.2481C144.186 57.2481 145.073 52.144 146.583 51.7272L146.773 48.3498L149.235 48.3281Z" fill="#EEC1BB"/>
<path d="M146.861 22.6406C149.729 28.6865 152.896 34.5159 152.127 38.2127L150.054 51.1434L146.065 50.981L147.407 39.1274C148.652 36.9624 145.102 32.1939 142.807 28.1128L146.861 22.6406Z" fill="#467CA6"/>
<path d="M147.092 38.1045L155.65 42.9542L154.01 44.4535L146.389 41.2763L147.092 38.1045Z" fill="#EBB376"/>
<path d="M152.061 42.1251L154.009 44.4525C154.009 44.4525 154.366 46.8936 154.599 47.0397C154.832 47.1859 157.793 47.7217 158.751 47.4998C159.709 47.2779 159.005 43.711 158.529 43.4187C158.052 43.1264 155.427 42.8774 155.427 42.8774L152.559 41.6055L152.061 42.1251Z" fill="#EBB376"/>
<path opacity="0.2" d="M105.166 81.9729C103.055 77.1828 101.063 73.0475 101.063 73.0475C101.001 72.1955 101.083 71.339 101.307 70.5144C101.609 70.3205 101.942 70.1795 102.292 70.0977C102.292 70.0977 104.857 74.13 105.166 81.9729Z" fill="black"/>
<path d="M121.257 135.748L123.72 135.077C122.816 122.66 120.38 107.683 118.307 96.4523C117.977 94.6878 117.668 93.0261 117.365 91.4727C117.219 90.7366 117.084 90.0275 116.949 89.3455C116.294 85.9843 115.736 83.3213 115.395 81.6759L115 79.8193L106.15 82.3849L106.892 84.5933L109.322 91.9598L109.598 92.7988L111.222 97.6701L113.955 105.951C114.323 118.622 121.257 135.748 121.257 135.748Z" fill="#EEC1BB"/>
<path d="M99.7925 135.147L102.336 134.904C103.663 121.437 103.717 104.68 103.533 93.0317C103.533 91.2239 103.468 89.5406 103.435 88.0142C103.435 87.933 103.435 87.8626 103.435 87.7869C103.359 84.7558 103.284 82.3418 103.224 80.8154L103.148 78.9697L93.9902 79.9927L94.5586 83.7815L95.3921 89.3782L95.5599 90.4607L96.1012 94.2495L97.6329 104.485C95.8738 117.069 99.7925 135.147 99.7925 135.147Z" fill="#EEC1BB"/>
<path opacity="0.2" d="M95.3852 89.3998L103.434 88.0142C103.434 87.933 103.434 87.8626 103.434 87.7869C103.358 84.7558 103.282 82.3418 103.223 80.8154L94.5625 83.8032L95.3852 89.3998Z" fill="black"/>
<path opacity="0.2" d="M116.311 85.9839L107.84 87.4182L106.893 84.5928L115.401 81.6592C115.618 82.7255 115.926 84.1869 116.311 85.9839Z" fill="black"/>
<path d="M94.3031 58.4342C94.3031 58.4342 88.8526 68.6423 93.9838 87.2509L103.992 86.1088V76.5123L106.157 85.757L116.186 83.7435C113.101 68.6423 109.15 61.8766 109.15 61.8766L108.641 57.3408L94.3031 58.4342Z" fill="#1A659E"/>
<path d="M98.5835 134.628C98.5835 134.308 102.518 134.557 102.518 134.557C102.518 134.557 104.932 137.015 107.276 137.567C109.62 138.119 108.31 139.526 105.69 139.526H99.1951C97.3656 139.526 98.5077 137.94 98.5835 134.628Z" fill="#263238"/>
<path d="M104.582 135.563C104.016 135.492 103.467 135.324 102.958 135.065C102.944 135.059 102.931 135.05 102.92 135.038C102.915 135.025 102.912 135.012 102.912 134.998C102.912 134.984 102.915 134.97 102.92 134.957C102.92 134.919 103.261 134.004 103.797 133.783C103.876 133.745 103.962 133.726 104.049 133.726C104.136 133.726 104.222 133.745 104.301 133.783C104.479 133.864 104.566 133.977 104.56 134.107C104.555 134.237 104.268 134.524 103.949 134.692C104.246 134.642 104.552 134.675 104.831 134.789C104.934 134.846 105.01 134.942 105.042 135.055C105.071 135.126 105.077 135.204 105.059 135.278C105.042 135.353 105.002 135.42 104.945 135.471C104.839 135.544 104.71 135.577 104.582 135.563ZM103.316 135.022C103.895 135.266 104.615 135.482 104.799 135.331C104.799 135.331 104.864 135.276 104.826 135.125C104.808 135.065 104.767 135.014 104.712 134.984C104.256 134.862 103.774 134.868 103.321 135L103.316 135.022ZM104.019 133.94C103.964 133.94 103.908 133.951 103.857 133.972C103.55 134.176 103.315 134.471 103.186 134.816C103.765 134.594 104.328 134.275 104.339 134.113C104.339 134.059 104.252 134.01 104.198 133.983C104.144 133.948 104.083 133.926 104.019 133.918V133.94Z" fill="#263238"/>
<path d="M120.559 134.628C120.559 134.308 124.489 134.557 124.489 134.557C124.489 134.557 126.903 137.015 129.247 137.567C131.59 138.119 130.286 139.526 127.661 139.526H121.182C119.314 139.526 120.478 137.94 120.559 134.628Z" fill="#263238"/>
<path d="M126.557 135.564C125.991 135.493 125.442 135.325 124.933 135.066C124.926 135.064 124.92 135.06 124.914 135.056C124.909 135.051 124.904 135.045 124.901 135.039C124.895 135.026 124.893 135.012 124.893 134.998C124.893 134.984 124.895 134.97 124.901 134.958C124.901 134.92 125.247 134.005 125.778 133.783C125.857 133.746 125.944 133.727 126.032 133.727C126.12 133.727 126.207 133.746 126.287 133.783C126.465 133.864 126.552 133.978 126.546 134.108C126.541 134.238 126.254 134.525 125.935 134.692C126.23 134.643 126.534 134.677 126.812 134.79C126.864 134.816 126.91 134.854 126.946 134.899C126.983 134.945 127.009 134.998 127.023 135.055C127.052 135.126 127.059 135.203 127.042 135.278C127.026 135.352 126.987 135.42 126.931 135.472C126.822 135.547 126.689 135.58 126.557 135.564ZM125.285 135.023C125.864 135.266 126.584 135.483 126.768 135.331C126.768 135.331 126.833 135.277 126.795 135.125C126.787 135.095 126.773 135.067 126.753 135.043C126.734 135.019 126.709 134.999 126.682 134.985C126.224 134.861 125.74 134.867 125.285 135.001V135.023ZM125.989 133.94C125.935 133.94 125.882 133.951 125.832 133.973C125.522 134.175 125.285 134.47 125.155 134.817C125.74 134.595 126.297 134.276 126.308 134.113C126.308 134.059 126.222 134.01 126.167 133.983C126.113 133.949 126.052 133.927 125.989 133.918V133.94Z" fill="#263238"/>
<path opacity="0.2" d="M103.992 76.5123C105.703 72.9833 106.893 70.0713 106.893 70.0713C106.893 70.0713 107.267 79.0183 106.157 85.7678L103.992 76.5123Z" fill="black"/>
<path d="M100.533 14.6567C100.533 14.6567 96.4194 12.5945 93.2151 14.3915C91.7375 15.2251 91.2936 17.2007 91.0501 18.7216C90.6928 20.8866 90.7145 23.0517 90.5088 25.2167C90.4413 26.1296 90.2198 27.0245 89.8539 27.8635C89.3126 28.9785 88.5332 31.4412 88.5332 31.4412L91.0068 31.9392L91.8295 30.8567L92.0027 32.1449L98.9471 33.5467L99.4342 32.4642L99.9213 33.7686L101.864 33.4601L102.552 31.9121L102.898 33.2977L105.729 32.8485L106.27 31.1598L106.931 32.6536L109.02 32.3181L108.971 27.3006C108.971 27.3006 108.668 24.0259 108.403 22.3426C108.198 20.8483 107.782 19.3905 107.169 18.0125C105.897 15.3117 103.504 13.9477 100.533 14.6567Z" fill="#263238"/>
<path d="M107.699 33.834C109.864 34.2616 117.907 41.731 117.112 45.2005C116.316 48.6699 109.745 53.2544 109.745 53.2544C109.745 53.2544 113.22 54.1204 113.231 54.5643C113.242 55.0081 111.163 57.3734 110.86 57.4546C109.812 57.0171 108.799 56.5015 107.829 55.912C107.363 55.5981 107.217 53.7957 107.217 53.7957C108.841 51.5819 113.382 46.0665 113.485 45.076C113.588 44.0855 107.196 39.1492 107.196 39.1492C107.196 39.1492 106.373 36.6106 106.654 35.3116C106.936 34.0126 107.699 33.834 107.699 33.834Z" fill="#EEC1BB"/>
<path d="M107.179 39.398C106.422 36.6917 105.983 34.1207 107.515 33.6065C109.047 33.0923 117.334 41.1409 117.166 44.8485C117.041 47.6089 110.79 52.8375 110.79 52.8375L109.031 51.0351C109.031 51.0351 113.128 45.5034 113.231 44.8593C113.334 44.2152 107.179 39.398 107.179 39.398Z" fill="#467CA6"/>
<path opacity="0.3" d="M107.179 39.398C106.422 36.6917 105.983 34.1207 107.515 33.6065C109.047 33.0923 117.334 41.1409 117.166 44.8485C117.041 47.6089 110.79 52.8375 110.79 52.8375L109.031 51.0351C109.031 51.0351 113.09 45.5251 113.231 44.8593C113.372 44.1936 107.179 39.398 107.179 39.398Z" fill="black"/>
<path opacity="0.2" d="M110.412 41.9854L108.377 40.3399L108.756 37.8447L110.412 41.9854Z" fill="black"/>
<path d="M94.3027 56.339V58.4391L108.624 57.3403V54.8613L94.3027 56.339Z" fill="#263238"/>
<path d="M105.24 55.3629L102.107 55.6436L102.32 58.0156L105.452 57.735L105.24 55.3629Z" fill="white"/>
<path d="M99.0206 55.4639L98.3125 55.5L98.497 59.1163L99.2051 59.0802L99.0206 55.4639Z" fill="#407BFF"/>
<path opacity="0.6" d="M99.0206 55.4639L98.3125 55.5L98.497 59.1163L99.2051 59.0802L99.0206 55.4639Z" fill="white"/>
<path d="M107.767 54.5049L107.059 54.541L107.243 58.1573L107.951 58.1212L107.767 54.5049Z" fill="#407BFF"/>
<path opacity="0.6" d="M107.767 54.5049L107.059 54.541L107.243 58.1573L107.951 58.1212L107.767 54.5049Z" fill="white"/>
<path d="M108.603 55.1108L94.2816 56.3503C93.9407 51.0242 94.8229 47.7171 91.6511 38.2288C91.3805 37.4007 91.1802 35.712 90.8555 34.781C92.7932 34.3372 93.486 34.3642 95.4995 34.0287C97.6242 33.6503 99.7729 33.4224 101.93 33.3467C104.717 33.3467 107.916 33.6444 107.916 33.6444C107.916 33.6444 108.376 33.7526 108.658 36.7025C108.923 39.4792 109.177 45.0217 108.603 55.1108Z" fill="#467CA6"/>
<path opacity="0.3" d="M108.603 55.111L94.2871 56.3505C94.0922 53.3465 94.417 51.0895 93.8974 47.6038C93.5314 44.8463 92.9117 42.1285 92.0462 39.4849C91.9218 39.0789 91.7431 38.516 91.6024 38.0884C91.3318 37.2549 91.1802 35.7447 90.8555 34.8084C92.8365 34.3591 93.486 34.3862 95.4995 34.0506C97.6246 33.6764 99.7732 33.4504 101.93 33.374C104.717 33.374 107.916 33.6717 107.916 33.6717C107.916 33.6717 108.376 33.78 108.658 36.7298C108.923 39.474 109.177 45.0219 108.603 55.111Z" fill="black"/>
<path d="M100.75 36.5129C97.221 36.0637 96.1602 34.5536 96.1602 34.5536C98.3956 32.4427 96.539 28.7783 96.539 28.7783L100.788 29.574C100.687 30.1643 100.631 30.7614 100.62 31.3601C100.588 33.9419 101.751 33.9636 101.751 33.9636C102.498 35.3384 100.75 36.5129 100.75 36.5129Z" fill="#EEC1BB"/>
<path opacity="0.2" d="M100.788 29.574C100.726 29.8621 100.695 30.1561 100.696 30.4508L100.626 31.1382L96.5391 28.7783L100.788 29.574Z" fill="black"/>
<path d="M104.971 27.5602C104.933 27.6901 104.901 27.8145 104.858 27.9336C104.354 29.4816 103.266 30.4288 101.35 30.4721C101.072 30.4824 100.793 30.4716 100.517 30.4397C100.338 30.4397 100.149 30.3964 99.9754 30.3639C93.437 29.2814 93.123 17.4169 99.4341 17.0651C103.223 16.854 104.571 18.8296 105.063 22.7321C105.324 24.3339 105.292 25.9695 104.971 27.5602Z" fill="#EEC1BB"/>
<path d="M102.584 22.6572C102.918 23.2085 103.318 23.7174 103.775 24.1727C103.672 24.3361 103.526 24.4681 103.353 24.554C103.181 24.6399 102.987 24.6766 102.795 24.6599L102.584 22.6572Z" fill="#D58745"/>
<path d="M95.6132 23.7066C95.6132 23.7066 97.2369 20.4861 96.8202 18.0883C96.8202 18.0883 104.192 14.5918 104.982 22.2236C104.982 22.2236 105.345 15.3874 98.8012 15.5985C92.2573 15.8096 92.804 25.3683 96.3385 28.0475C96.3385 28.0313 94.6226 25.7201 95.6132 23.7066Z" fill="#263238"/>
<path d="M96.2842 24.4751C96.2237 24.0374 95.9919 23.6416 95.6397 23.3746C95.2876 23.1077 94.8438 22.9915 94.406 23.0516C93.2315 23.2411 92.7822 25.693 95.77 26.1152C96.1868 26.1747 96.4033 25.7525 96.2842 24.4751Z" fill="#EEC1BB"/>
<path d="M100.397 22.4622C100.397 22.7544 100.235 23.0034 100.04 23.0034C99.845 23.0034 99.6881 22.7653 99.6935 22.4622C99.6989 22.1591 99.8559 21.9209 100.051 21.9209C100.246 21.9209 100.403 22.1699 100.397 22.4622Z" fill="#263238"/>
<path d="M99.9707 21.9418L100.609 21.6982C100.609 21.6982 100.29 22.2287 99.9707 21.9418Z" fill="#263238"/>
<path d="M104.041 22.4348C104.041 22.7271 103.879 22.9761 103.684 22.9761C103.489 22.9761 103.332 22.7325 103.332 22.4348C103.332 22.1371 103.5 21.8936 103.695 21.8936C103.89 21.8936 104.046 22.1425 104.041 22.4348Z" fill="#263238"/>
<path d="M103.613 21.9154L104.252 21.6719C104.252 21.6719 103.927 22.2023 103.613 21.9154Z" fill="#263238"/>
<path d="M98.8979 20.6654C98.8629 20.6682 98.8278 20.6606 98.7971 20.6436C98.7663 20.6265 98.7413 20.6008 98.7251 20.5696C98.7089 20.5384 98.7023 20.5031 98.7061 20.4682C98.7099 20.4332 98.7239 20.4002 98.7464 20.3731C98.9715 20.1537 99.2451 19.9904 99.5451 19.8964C99.845 19.8023 100.163 19.7803 100.473 19.8319C100.519 19.8391 100.56 19.8642 100.588 19.9017C100.615 19.9393 100.626 19.9862 100.619 20.0321C100.612 20.0781 100.587 20.1193 100.549 20.1467C100.512 20.1741 100.465 20.1855 100.419 20.1783C100.168 20.1412 99.9114 20.1608 99.6688 20.2357C99.4262 20.3106 99.2035 20.439 99.017 20.6113C98.9841 20.6415 98.9424 20.6604 98.8979 20.6654Z" fill="#263238"/>
<path d="M104.468 20.4534C104.426 20.4571 104.383 20.4456 104.349 20.4209C104.176 20.2785 103.974 20.1761 103.757 20.1208C103.54 20.0656 103.313 20.0591 103.093 20.1016C103.049 20.1153 103.001 20.1111 102.959 20.0899C102.918 20.0686 102.886 20.0321 102.871 19.9879C102.857 19.9434 102.862 19.8953 102.883 19.8539C102.904 19.8124 102.941 19.7809 102.985 19.766C103.257 19.7031 103.54 19.703 103.812 19.7658C104.084 19.8287 104.338 19.9528 104.555 20.1286C104.592 20.1567 104.618 20.1987 104.625 20.2453C104.632 20.292 104.62 20.3395 104.592 20.3776C104.579 20.3988 104.56 20.4166 104.539 20.4297C104.517 20.4429 104.493 20.4509 104.468 20.4534Z" fill="#263238"/>
<path d="M102.704 26.3208C102.792 26.3261 102.88 26.3261 102.969 26.3208C102.983 26.3202 102.996 26.3167 103.009 26.3105C103.022 26.3043 103.033 26.2957 103.042 26.285C103.051 26.2744 103.058 26.262 103.062 26.2486C103.066 26.2352 103.068 26.2211 103.066 26.2072C103.063 26.1794 103.05 26.1538 103.029 26.1356C103.008 26.1175 102.98 26.1082 102.953 26.1097C102.496 26.1688 102.032 26.1041 101.609 25.9222C101.186 25.7403 100.82 25.448 100.549 25.0759C100.533 25.0524 100.508 25.0359 100.48 25.0299C100.452 25.0238 100.422 25.0287 100.398 25.0435C100.375 25.0589 100.358 25.0828 100.352 25.11C100.346 25.1372 100.351 25.1658 100.365 25.1896C100.632 25.5555 100.985 25.8501 101.393 26.0474C101.801 26.2447 102.251 26.3386 102.704 26.3208Z" fill="#263238"/>
<path d="M98.0109 15.0788C99.667 15.0248 101.312 15.3642 102.812 16.0693C104.89 17.1951 104.977 18.9218 104.977 18.9218L104.252 18.6511L102.812 17.4766C103.009 17.8383 103.11 18.2447 103.104 18.6565C103.104 18.6565 102.655 17.6931 102.022 17.5361C102.101 17.7731 102.112 18.028 102.051 18.2707C101.991 18.5133 101.862 18.7336 101.681 18.9055C101.549 18.4096 101.251 17.974 100.836 17.6715C100.836 17.6715 100.945 18.2127 99.862 18.9055C99.8773 18.6499 99.829 18.3944 99.7213 18.162C99.6136 17.9296 99.4499 17.7276 99.245 17.574C99.245 17.574 98.7037 18.5591 98.0109 18.7107C98.0109 18.7107 98.5522 18.2127 98.4385 17.9204C97.8461 18.4543 97.1068 18.7975 96.3168 18.9055C95.1314 19.0192 93.578 16.5077 98.0109 15.0788Z" fill="#263238"/>
<path opacity="0.2" d="M95.2711 25.6611C95.5041 25.7512 95.7287 25.8617 95.9423 25.9913C96.6188 26.4027 97.7826 28.1564 97.7826 28.1564C97.7826 28.1564 98.7785 29.4824 98.5295 30.1969C98.3902 30.5528 98.2293 30.8998 98.0478 31.2361L97.9991 34.7706L96.332 34.3646L96.5377 30.4675L95.2007 25.9967C94.9779 25.9342 94.7621 25.849 94.5566 25.7423C94.7806 25.6419 95.0303 25.6136 95.2711 25.6611Z" fill="black"/>
<path d="M97.8646 32.6323V31.0085C98.0463 30.9319 98.1977 30.7976 98.2955 30.6265C98.3933 30.4553 98.4321 30.2567 98.4059 30.0613C98.3085 29.3739 95.6996 26.0885 95.4831 25.9964C95.2666 25.9044 93.134 26.5377 93.0745 26.5377C93.0149 26.5377 94.157 29.8177 96.3816 31.0031L96.5169 32.9949L97.8646 32.6323Z" fill="#EEC1BB"/>
<path d="M101.751 33.9639H105.291L102.411 38.6566L93.6699 35.2575L96.1597 34.5538L101.751 33.9639Z" fill="#EEC1BB"/>
<path opacity="0.2" d="M99.5698 46.5587C98.8066 47.3977 94.9799 45.2326 93.1612 43.4735C92.6903 41.3789 92.9447 42.4939 91.873 38.9107L93.7999 37.4872L95.1152 38.4019L95.3371 35.9067L95.8297 36.0961L95.9704 34.6077L95.4291 34.7592L95.4941 34.0285L96.0353 33.9365L98.4439 35.8309L98.5251 37.1462L99.0664 37.3519C99.0664 37.3519 100.582 45.4545 99.5698 46.5587Z" fill="black"/>
<path d="M90.8711 34.7971C91.9049 34.4832 95.4989 39.8146 95.4989 39.8146L96.2999 31.2627L98.124 31.7065C98.124 31.7065 99.3905 44.5506 98.124 45.1135C96.8574 45.6765 93.599 43.847 90.4435 39.2301C89.2798 37.5359 89.637 35.1489 90.8711 34.7971Z" fill="#467CA6"/>
<path opacity="0.3" d="M90.8711 34.7971C91.9049 34.4832 95.4989 39.8146 95.4989 39.8146L96.2999 31.2627L98.124 31.7065C98.124 31.7065 99.3905 44.5506 98.124 45.1135C96.8574 45.6765 93.599 43.847 90.4435 39.2301C89.2798 37.5359 89.637 35.1489 90.8711 34.7971Z" fill="black"/>
</svg>
