<svg width="171" height="140" viewBox="0 0 171 140" fill="none" xmlns="http://www.w3.org/2000/svg">
<path d="M85.5 140C132.72 140 171 137.765 171 135.008C171 132.251 132.72 130.017 85.5 130.017C38.2797 130.017 0 132.251 0 135.008C0 137.765 38.2797 140 85.5 140Z" fill="#F5F5F5"/>
<path d="M151.094 90.6773L152.853 92.8557L120.111 119.301L127.229 128.111L128.203 129.32L160.941 102.87L162.7 105.049L165.831 90.6465L151.094 90.6773Z" fill="#004E89"/>
<path opacity="0.5" d="M151.094 90.6773L152.853 92.8557L120.111 119.301L127.229 128.111L128.203 129.32L160.941 102.87L162.7 105.049L165.831 90.6465L151.094 90.6773Z" fill="white"/>
<path d="M133.393 118.353C132.718 117.269 131.775 116.377 130.656 115.762C129.537 115.147 128.279 114.829 127.002 114.84C125.725 114.851 124.473 115.189 123.364 115.823C122.256 116.456 121.328 117.364 120.671 118.459C120.076 118.285 119.448 118.252 118.839 118.364C118.229 118.476 117.654 118.729 117.159 119.103C116.665 119.478 116.265 119.963 115.992 120.519C115.719 121.076 115.58 121.689 115.587 122.309H113.479C113.208 122.296 112.938 122.338 112.684 122.433C112.431 122.528 112.199 122.673 112.003 122.86C111.807 123.047 111.651 123.272 111.544 123.521C111.438 123.77 111.383 124.038 111.383 124.308C111.383 124.579 111.438 124.847 111.544 125.096C111.651 125.345 111.807 125.57 112.003 125.757C112.199 125.944 112.431 126.089 112.684 126.184C112.938 126.279 113.208 126.321 113.479 126.308H120.777C121.379 127.26 122.189 128.062 123.146 128.656C124.103 129.25 125.182 129.619 126.302 129.737C127.422 129.855 128.554 129.717 129.613 129.335C130.673 128.952 131.632 128.335 132.418 127.53C132.545 127.536 132.671 127.536 132.798 127.53C133.972 127.532 135.103 127.087 135.961 126.286C136.819 125.485 137.34 124.387 137.418 123.215C137.496 122.044 137.125 120.887 136.381 119.979C135.636 119.071 134.575 118.48 133.411 118.327L133.393 118.353Z" fill="#004E89"/>
<path opacity="0.8" d="M133.393 118.353C132.718 117.269 131.775 116.377 130.656 115.762C129.537 115.147 128.279 114.829 127.002 114.84C125.725 114.851 124.473 115.189 123.364 115.823C122.256 116.456 121.328 117.364 120.671 118.459C120.076 118.285 119.448 118.252 118.839 118.364C118.229 118.476 117.654 118.729 117.159 119.103C116.665 119.478 116.265 119.963 115.992 120.519C115.719 121.076 115.58 121.689 115.587 122.309H113.479C113.208 122.296 112.938 122.338 112.684 122.433C112.431 122.528 112.199 122.673 112.003 122.86C111.807 123.047 111.651 123.272 111.544 123.521C111.438 123.77 111.383 124.038 111.383 124.308C111.383 124.579 111.438 124.847 111.544 125.096C111.651 125.345 111.807 125.57 112.003 125.757C112.199 125.944 112.431 126.089 112.684 126.184C112.938 126.279 113.208 126.321 113.479 126.308H120.777C121.379 127.26 122.189 128.062 123.146 128.656C124.103 129.25 125.182 129.619 126.302 129.737C127.422 129.855 128.554 129.717 129.613 129.335C130.673 128.952 131.632 128.335 132.418 127.53C132.545 127.536 132.671 127.536 132.798 127.53C133.972 127.532 135.103 127.087 135.961 126.286C136.819 125.485 137.34 124.387 137.418 123.215C137.496 122.044 137.125 120.887 136.381 119.979C135.636 119.071 134.575 118.48 133.411 118.327L133.393 118.353Z" fill="white"/>
<path d="M84.2385 28.871L83.6035 28.1875C83.5195 28.0988 83.4143 28.0329 83.2979 27.9959C83.1814 27.9589 83.0575 27.952 82.9377 27.9758L81.9719 28.1875C81.821 28.2175 81.6833 28.294 81.5781 28.4063C81.4729 28.5187 81.4055 28.6611 81.3855 28.8137L80.9004 32.7824L82.3732 33.3513C84.1724 32.5663 84.0798 30.1939 84.0798 30.1939L84.3356 29.7221C84.4115 29.5882 84.443 29.4337 84.4256 29.2807C84.4081 29.1278 84.3427 28.9843 84.2385 28.871Z" fill="#FFB573"/>
<path d="M66.4373 40.8171C66.4373 40.8171 67.8528 40.9009 68.6818 40.8833C69.5108 40.8656 70.3487 40.8568 71.1645 40.8083C71.9803 40.7598 72.7873 40.6981 73.5281 40.5966C73.8667 40.5513 74.2024 40.4866 74.5335 40.4026L74.851 40.3012C74.948 40.2571 74.851 40.3321 74.8951 40.3012C75.1246 40.0719 75.3382 39.8274 75.5345 39.5692C75.777 39.2605 76.0196 38.9298 76.2621 38.5946C76.7472 37.92 77.2234 37.2188 77.7041 36.5133L80.5836 32.2402L82.837 33.4353C82.5063 34.2599 82.1447 35.0536 81.7875 35.8562C81.4303 36.6588 81.0334 37.4437 80.6454 38.233C80.2573 39.0224 79.834 39.8073 79.3842 40.5922C79.1593 40.9847 78.9432 41.3772 78.6698 41.7785C78.3831 42.2405 78.0555 42.6759 77.6909 43.0793C77.3968 43.3855 77.056 43.643 76.681 43.8422C76.397 43.9943 76.1022 44.1255 75.7991 44.2347C75.3044 44.417 74.7975 44.5644 74.2821 44.6756C73.3623 44.8835 72.4299 45.0308 71.4908 45.1166C69.6934 45.2995 67.8863 45.3702 66.0801 45.3283L66.4373 40.8171Z" fill="#004E89"/>
<path opacity="0.1" d="M70.3364 45.1961C68.9209 45.2975 67.5274 45.3328 66.0898 45.3019L66.1604 44.3758L66.5044 43.5645C67.9444 43.5932 69.3176 44.1778 70.3364 45.1961Z" fill="black"/>
<path d="M42.8546 119.91C42.8546 119.91 38.8859 117.163 39.1064 115.319C39.1146 115.277 39.1139 115.233 39.1043 115.191C39.0947 115.149 39.0765 115.109 39.0508 115.074C39.0252 115.039 38.9925 115.01 38.955 114.989C38.9175 114.967 38.876 114.954 38.833 114.949L35.4507 114.437C35.3681 114.422 35.2826 114.43 35.2045 114.461C35.1263 114.492 35.0588 114.545 35.0098 114.614L33.0254 117.432L33.9073 117.754L34.388 117.418L34.6173 118.014C39.49 119.778 41.6155 120.488 42.6915 120.532C43.009 120.152 42.8546 119.91 42.8546 119.91Z" fill="black"/>
<path d="M65.3354 68.0511C65.3354 68.0511 65.1326 68.5803 64.7754 69.4975C64.3918 70.4897 63.8273 71.9361 63.1482 73.6559C62.7072 74.8024 62.1913 76.0724 61.6489 77.4085C59.1574 83.5821 55.9383 91.2594 53.8084 95.1268C49.7294 102.526 39.102 116.58 39.102 116.58L34.8555 115.028C34.8555 115.028 42.5019 100.555 46.3604 93.2218C47.8231 90.2607 49.1129 87.2173 50.2233 84.1069C50.8627 82.4003 51.4977 80.6232 52.1107 78.8637C52.3885 78.07 52.6619 77.2762 52.9265 76.4957C53.6276 74.432 54.2847 72.4432 54.8624 70.6705C54.9329 70.45 55.0035 70.2295 55.074 70.0178C55.3077 69.2902 55.515 68.6023 55.7267 67.9673C56.5557 65.3568 57.0716 63.637 57.0893 63.5576L60.8772 65.6214L65.3354 68.0511Z" fill="#263238"/>
<path opacity="0.3" d="M64.775 69.4979C64.3914 70.4901 63.8269 71.9365 63.1478 73.6563C62.7069 74.8028 62.1909 76.0728 61.6485 77.409C58.1825 78.1057 54.6547 78.5776 52.1191 78.8642C52.397 78.0704 52.6704 77.2767 52.9349 76.4962C53.6361 74.4324 54.2931 72.4436 54.8708 70.6709C54.9414 70.4504 55.0119 70.23 55.0825 70.0183C55.3162 69.2907 55.5234 68.6028 55.7351 67.9678C58.2839 68.3161 61.6882 68.8365 64.775 69.4979Z" fill="black"/>
<path d="M51.7656 43.181C52.3761 45.3981 52.7675 47.6697 52.9342 49.9632C53.0885 51.7932 53.1459 53.5924 53.1547 55.2107C53.1635 56.8291 53.1106 58.2755 53.0577 59.3779C52.9871 60.7978 52.9033 61.6666 52.9033 61.6666L66.3001 62.3589C70.3217 47.8068 66.4323 40.8218 66.4323 40.8218C65.2389 40.7173 64.0399 40.6893 62.8428 40.7381C62.5959 40.7381 62.3401 40.7645 62.0844 40.7866C60.0679 41.0185 58.0668 41.3689 56.0916 41.8361C55.7344 41.9154 55.3728 42.008 55.02 42.1007C53.2738 42.5769 51.7656 43.181 51.7656 43.181Z" fill="#004E89"/>
<path d="M74.5909 97.2176C74.5909 97.2176 70.7633 94.2455 71.1161 92.4198C71.1264 92.3778 71.128 92.334 71.1208 92.2913C71.1136 92.2486 71.0978 92.2079 71.0742 92.1715C71.0507 92.1352 71.0199 92.104 70.9839 92.08C70.9479 92.0559 70.9073 92.0395 70.8647 92.0318L67.5133 91.3262C67.4328 91.3081 67.3487 91.3129 67.2707 91.3402C67.1928 91.3675 67.124 91.4161 67.0724 91.4806L64.916 94.1661L65.798 94.5409L66.2963 94.2322L66.4903 94.8364C71.2572 96.8781 73.3386 97.7115 74.4278 97.8173C74.732 97.4557 74.5909 97.2176 74.5909 97.2176Z" fill="black"/>
<path d="M59.3166 73.7351H59.6297L75.6943 76.0722L66.5397 91.246L71.117 93.0099C71.117 93.0099 87.6755 75.1594 83.9757 71.0892C80.933 67.7423 66.0282 65.705 66.0282 65.705L66.5177 62.2125L52.7417 59.4961C46.8459 72.3813 57.3454 73.6072 59.3166 73.7351Z" fill="#263238"/>
<path d="M52.5782 60.8506L52.2871 60.7932L52.5517 59.8672L52.8119 59.9157L52.5782 60.8506Z" fill="#263238"/>
<path d="M63.4221 62.9495L57.5352 61.8118L57.7645 60.877L63.6294 62.0147L63.4221 62.9495Z" fill="#263238"/>
<path d="M64.0832 62.1025L66.5703 62.5832L66.4027 63.5269L63.8848 63.0374L64.0832 62.1025Z" fill="#263238"/>
<path d="M53.2659 60.0039L57.314 60.7888L57.0759 61.7193L53.041 60.9388L53.2659 60.0039Z" fill="#263238"/>
<g opacity="0.2">
<path d="M52.5782 60.8506L52.2871 60.7932L52.5517 59.8672L52.8119 59.9157L52.5782 60.8506Z" fill="white"/>
<path d="M63.4221 62.9495L57.5352 61.8118L57.7645 60.877L63.6294 62.0147L63.4221 62.9495Z" fill="white"/>
<path d="M64.0852 62.1035L66.5722 62.5842L66.4047 63.5279L63.8867 63.0384L64.0852 62.1035Z" fill="white"/>
<path d="M53.2659 60.0039L57.314 60.7888L57.0759 61.7193L53.041 60.9388L53.2659 60.0039Z" fill="white"/>
</g>
<path d="M61.4857 62.6758H61.4328L59.9599 62.4112C59.9187 62.4047 59.8793 62.3896 59.8443 62.3668C59.8094 62.344 59.7796 62.3141 59.7571 62.2789C59.7335 62.2445 59.7178 62.2054 59.7109 62.1642C59.7041 62.1231 59.7063 62.081 59.7174 62.0408L59.8629 61.4499C59.8808 61.3738 59.9277 61.3078 59.9936 61.2658C60.0595 61.2238 60.1392 61.2091 60.2157 61.225L61.6753 61.5072C61.7159 61.5137 61.7547 61.5289 61.7889 61.5518C61.8232 61.5746 61.8521 61.6045 61.8737 61.6395C61.8961 61.6736 61.9112 61.712 61.918 61.7522C61.9249 61.7924 61.9233 61.8336 61.9134 61.8732L61.7811 62.4421C61.7653 62.5086 61.7275 62.5678 61.6739 62.6102C61.6203 62.6526 61.554 62.6757 61.4857 62.6758ZM60.1628 61.4719C60.1526 61.4725 60.143 61.4762 60.135 61.4825C60.1271 61.4888 60.1214 61.4975 60.1187 61.5072L59.9731 62.0981C59.9707 62.1037 59.9695 62.1097 59.9695 62.1158C59.9695 62.1218 59.9707 62.1278 59.9731 62.1334C59.978 62.1355 59.9833 62.1365 59.9886 62.1365C59.9939 62.1365 59.9991 62.1355 60.004 62.1334L61.4769 62.398C61.4883 62.3986 61.4997 62.3955 61.5092 62.3892C61.5187 62.3828 61.526 62.3735 61.5298 62.3627L61.6621 61.7939C61.6648 61.7884 61.6662 61.7823 61.6662 61.7762C61.6662 61.7701 61.6648 61.7641 61.6621 61.7586C61.658 61.7563 61.6535 61.755 61.6488 61.755C61.6442 61.755 61.6396 61.7563 61.6356 61.7586L60.176 61.4719H60.1628Z" fill="white"/>
<path d="M60.5684 62.0185H60.5464L60.1059 61.9392C60.0891 61.9365 60.0729 61.9305 60.0584 61.9215C60.0438 61.9125 60.0313 61.9006 60.0214 61.8867C60.0116 61.8727 60.0046 61.8569 60.001 61.8402C59.9973 61.8235 59.9971 61.8062 60.0002 61.7894C60.0023 61.7723 60.0079 61.7557 60.0168 61.7409C60.0256 61.726 60.0375 61.7132 60.0516 61.7032C60.0657 61.6933 60.0818 61.6864 60.0987 61.683C60.1157 61.6797 60.1331 61.6799 60.15 61.6837L60.5904 61.763C60.6073 61.7657 60.6235 61.7717 60.638 61.7807C60.6525 61.7897 60.6651 61.8016 60.6749 61.8155C60.6848 61.8295 60.6918 61.8453 60.6954 61.862C60.699 61.8787 60.6993 61.8959 60.6961 61.9127C60.6901 61.9423 60.6741 61.9689 60.6509 61.9881C60.6277 62.0074 60.5986 62.0181 60.5684 62.0185Z" fill="white"/>
<path d="M57.4859 35.75L60.9828 38.6516C60.6433 40.0715 61.2386 41.3812 61.9265 41.6237C61.9265 41.6237 62.438 42.8408 61.4547 43.0437C59.4571 43.4582 57.1816 41.5267 57.1816 41.5267C58.24 40.3934 57.8563 37.5624 57.4859 35.75Z" fill="#EBB376"/>
<path opacity="0.2" d="M58.9107 36.9316L60.9833 38.647C60.8955 38.9764 60.8365 39.3128 60.8069 39.6524C60.0308 39.551 58.9592 38.722 58.871 37.9106C58.827 37.5845 58.8404 37.2531 58.9107 36.9316Z" fill="black"/>
<path d="M60.5769 30.0178C61.4235 30.547 62.5701 32.1389 61.1457 32.5226C59.7214 32.9062 59.1173 29.1094 60.5769 30.0178Z" fill="#263238"/>
<path d="M56.2028 35.4592C57.6844 37.4083 58.4517 38.6298 60.1715 38.987C62.76 39.5161 64.6386 36.8791 63.7698 34.5155C62.9849 32.39 60.683 29.5546 58.1739 30.1058C57.6183 30.2269 57.1022 30.4861 56.6733 30.8594C56.2444 31.2328 55.9165 31.7082 55.72 32.2419C55.5236 32.7755 55.4648 33.35 55.5492 33.9124C55.6335 34.4747 55.8583 35.0067 56.2028 35.4592Z" fill="#FFB573"/>
<path d="M56.6395 33.3294L54.8756 31.2568C54.8756 31.2568 52.5252 32.9854 53.5923 34.0305C52.8912 35.6842 55.6826 37.9993 58.1255 37.523C58.4122 36.0281 56.2338 33.4793 56.2338 33.4793C56.3714 33.4361 56.5068 33.3861 56.6395 33.3294Z" fill="#263238"/>
<path d="M56.5457 37.6765C56.7838 37.8665 57.0573 38.0072 57.3503 38.0905C57.6433 38.1737 57.9499 38.1979 58.2523 38.1616C59.0593 38.0602 59.1343 37.2532 58.6712 36.6491C58.2082 36.0449 57.2866 35.507 56.5987 35.9127C56.451 36.0055 56.3285 36.1332 56.2419 36.2845C56.1553 36.4359 56.1073 36.6062 56.102 36.7805C56.0968 36.9548 56.1345 37.1277 56.2119 37.284C56.2893 37.4402 56.4039 37.5751 56.5457 37.6765Z" fill="#FFB573"/>
<path d="M59.6548 33.9194C59.765 34.0824 59.9455 34.1573 60.0512 34.0868C60.1569 34.0163 60.1569 33.8181 60.0512 33.6464C59.9455 33.4746 59.765 33.4085 59.6548 33.479C59.5447 33.5495 59.5447 33.7697 59.6548 33.9194Z" fill="#263238"/>
<path d="M61.522 32.6674C61.6365 32.8348 61.8127 32.9097 61.9184 32.8348C62.0241 32.7599 62.0241 32.5661 61.9184 32.3944C61.8127 32.2226 61.6321 32.1521 61.522 32.227C61.4119 32.3019 61.4119 32.5001 61.522 32.6674Z" fill="#263238"/>
<path d="M60.9824 33.1533C61.5132 33.5063 62.0906 33.7839 62.6978 33.9779C62.5831 34.4189 62.0011 34.6438 62.0011 34.6438L60.9824 33.1533Z" fill="#ED893E"/>
<path d="M60.4669 35.7683C60.3895 35.8089 60.3158 35.8561 60.2464 35.9094C60.2362 35.92 60.2305 35.9343 60.2305 35.9491C60.2305 35.9638 60.2362 35.9781 60.2464 35.9887C60.2514 35.9944 60.2575 35.9989 60.2643 36.002C60.2712 36.0051 60.2786 36.0067 60.2861 36.0067C60.2936 36.0067 60.301 36.0051 60.3079 36.002C60.3147 35.9989 60.3208 35.9944 60.3258 35.9887C60.5223 35.8375 60.752 35.7354 60.996 35.6909C61.2399 35.6464 61.4909 35.6608 61.7281 35.733C61.7353 35.7358 61.743 35.737 61.7508 35.7368C61.7585 35.7365 61.7661 35.7347 61.7731 35.7314C61.7801 35.7281 61.7864 35.7234 61.7915 35.7176C61.7967 35.7118 61.8006 35.705 61.8031 35.6977C61.8089 35.6837 61.8089 35.6679 61.8032 35.6538C61.7974 35.6398 61.7862 35.6286 61.7722 35.6227C61.5563 35.5563 61.329 35.5349 61.1044 35.56C60.8799 35.585 60.6629 35.6559 60.4669 35.7683Z" fill="#263238"/>
<path d="M58.3806 33.3907C58.4013 33.3919 58.422 33.3876 58.4405 33.3783C58.4591 33.369 58.4749 33.3551 58.4864 33.3378C58.5641 33.2138 58.6694 33.1095 58.7941 33.033C58.9188 32.9565 59.0595 32.9099 59.2052 32.8968C59.2208 32.8975 59.2364 32.8948 59.2509 32.889C59.2654 32.8832 59.2785 32.8744 59.2894 32.8631C59.3002 32.8519 59.3085 32.8384 59.3138 32.8237C59.319 32.809 59.3211 32.7933 59.3198 32.7777C59.3198 32.7473 59.3078 32.7182 59.2863 32.6967C59.2648 32.6752 59.2356 32.6631 59.2052 32.6631C59.0188 32.6769 58.8384 32.735 58.679 32.8324C58.5195 32.9297 58.3854 33.0637 58.288 33.2231C58.2713 33.2495 58.2656 33.2814 58.2722 33.3119C58.2788 33.3424 58.2971 33.3691 58.3232 33.3863C58.3415 33.3935 58.3615 33.395 58.3806 33.3907Z" fill="#263238"/>
<path d="M61.5438 31.164C61.5504 31.141 61.5504 31.1165 61.5438 31.0935C61.5346 31.0639 61.5143 31.0391 61.4871 31.0243C61.4599 31.0095 61.4281 31.0058 61.3983 31.0141C61.219 31.0593 61.0533 31.147 60.9151 31.2699C60.777 31.3927 60.6704 31.5469 60.6045 31.7197C60.5958 31.7495 60.5987 31.7815 60.6126 31.8093C60.6265 31.8371 60.6504 31.8586 60.6795 31.8696C60.6939 31.8744 60.7092 31.8762 60.7244 31.875C60.7396 31.8738 60.7544 31.8696 60.768 31.8626C60.7815 31.8557 60.7935 31.8461 60.8033 31.8344C60.8131 31.8227 60.8205 31.8092 60.825 31.7946C60.878 31.6575 60.9635 31.5354 61.0741 31.4386C61.1847 31.3418 61.3171 31.2733 61.46 31.239C61.4792 31.2347 61.497 31.2256 61.5117 31.2125C61.5264 31.1994 61.5374 31.1827 61.5438 31.164Z" fill="#263238"/>
<path d="M56.2201 33.4793C56.2201 33.4793 60.8767 31.5214 61.1634 29.2901C61.45 27.0588 59.4789 27.9672 59.4789 27.9672C59.4789 27.9672 60.3917 27.9054 60.3035 28.5669C60.3035 28.5669 58.7292 27.4953 57.2167 28.4169C57.4216 28.4172 57.624 28.4628 57.8093 28.5504C57.9945 28.6381 58.1581 28.7657 58.2882 28.9241C57.1927 29.2005 56.1649 29.6971 55.2676 30.3837C53.6845 31.5743 50.8138 35.812 56.2201 33.4793Z" fill="#263238"/>
<path opacity="0.3" d="M66.0364 65.6701L58.4473 64.7882C61.018 64.4485 63.6141 64.3423 66.204 64.4707L66.0364 65.6701Z" fill="black"/>
<path opacity="0.1" d="M53.0108 50.8888C52.9843 50.5801 52.9623 50.2715 52.9358 49.9628C52.9358 49.7203 52.8961 49.4733 52.8741 49.2308C52.8079 48.6134 52.7374 47.996 52.6492 47.3875C52.6271 47.2199 52.6007 47.0524 52.5742 46.8892C52.7834 46.7237 53.0061 46.5762 53.2401 46.4482C53.482 47.9278 53.4038 49.442 53.0108 50.8888Z" fill="black"/>
<path d="M40.3678 61.7012L39.0449 64.788L41.898 65.4935C41.898 65.4935 43.1239 63.4606 41.9289 61.9084L40.3678 61.7012Z" fill="#EBB376"/>
<path d="M39.2517 67.2001L41.505 67.2178L41.9019 65.52L39.0488 64.8145L39.2517 67.2001Z" fill="#EBB376"/>
<path d="M53.2052 45.3064C53.4036 47.2467 52.7377 48.036 52.7377 48.036C52.7377 48.036 50.8592 49.2178 50.0434 49.8219C49.3511 50.3467 48.672 50.8759 48.0282 51.405C47.7107 51.674 47.402 51.943 47.1198 52.212C46.8685 52.4478 46.6328 52.6997 46.4142 52.9661C46.3333 53.0783 46.2583 53.1945 46.1893 53.3144C46.1099 53.4423 46.0261 53.6364 45.938 53.7951C45.766 54.1479 45.594 54.5271 45.4308 54.9196C45.1045 55.7089 44.7958 56.5291 44.5048 57.3626C43.8918 59.0206 43.323 60.7316 42.7409 62.4117L40.1348 61.7899C40.3993 59.9643 40.7565 58.1784 41.1711 56.3748C41.3871 55.4928 41.612 54.5756 41.9075 53.6584C42.0442 53.2174 42.1985 52.7368 42.3749 52.2605C42.4807 52.0092 42.5689 51.7843 42.7012 51.5153C42.8298 51.2324 42.9771 50.9583 43.1422 50.6951C43.4567 50.2272 43.8076 49.7848 44.1917 49.3721C44.5401 48.9929 44.8884 48.6445 45.2412 48.305C45.9424 47.6347 46.6611 47.0218 47.3932 46.4309C48.8528 45.2447 50.3168 44.1599 51.8867 43.1104C51.8999 43.1236 53.0288 43.5513 53.2052 45.3064Z" fill="#004E89"/>
<path d="M59.1267 42.7042L60.1056 44.2432C60.1056 44.2432 56.6881 48.3883 50.1441 49.7553L49.7031 51.0782L51.0966 51.4442C51.0966 51.4442 58.1521 49.6142 60.9832 44.3137L62.4384 42.691L60.723 42.1133L59.1267 42.7042Z" fill="#5D9FD1"/>
<path d="M55.957 41.7783L57.5533 40.3848L60.7239 42.1223L61.0943 40.2217L62.77 41.183L63.2507 43.648L60.9091 42.6338L58.8189 44.5035L55.957 41.7783Z" fill="#003E6D"/>
<path d="M99.694 14.1953C99.694 14.1953 96.7263 17.873 93.7188 17.5687C90.7114 17.2645 89.1724 18.486 89.1724 18.486L88.877 19.9544L90.4909 19.7339C90.4909 19.7339 90.4909 18.5698 93.6306 18.702C96.7703 18.8343 99.1251 16.1356 100.042 14.9097L99.694 14.1953Z" fill="#5D9FD1"/>
<path d="M120.994 8.08383L120.932 7.79279C120.906 7.65069 120.864 7.51176 120.809 7.37827C120.652 6.97988 120.406 6.62249 120.09 6.33317C119.699 5.98016 119.24 5.71015 118.741 5.53942C118.111 5.3162 117.456 5.16819 116.792 5.09845C116.205 5.03231 115.645 5.00144 115.094 4.98821C113.996 4.95734 112.938 4.98821 111.892 5.0764C109.811 5.21466 107.739 5.46342 105.684 5.82164L106.442 10.1652C108.343 9.86536 110.327 9.58754 112.245 9.3891C113.207 9.28768 114.163 9.23036 115.085 9.19949C115.526 9.19949 115.998 9.19949 116.408 9.19949C116.676 9.21381 116.942 9.24326 117.206 9.28768C117.215 9.44924 117.215 9.61119 117.206 9.77275C117.149 10.622 116.991 11.4614 116.734 12.2731C116.176 14.107 115.463 15.8904 114.604 17.6044L116.699 18.9979C118.038 17.3216 119.162 15.4847 120.046 13.5298C120.53 12.4618 120.865 11.3328 121.043 10.174C121.137 9.47913 121.121 8.77359 120.994 8.08383Z" fill="#004E89"/>
<path opacity="0.1" d="M114.982 9.22553C114.1 9.2564 113.17 9.31813 112.24 9.41074C110.379 9.60477 108.465 9.85171 106.617 10.1648C107.292 8.50675 107.984 6.83105 107.984 6.83105C110.443 7.19917 112.814 8.01048 114.982 9.22553Z" fill="black"/>
<path opacity="0.1" d="M120.244 12.9874C120.173 13.1682 120.098 13.349 120.023 13.5254C119.138 15.4791 118.012 17.3145 116.672 18.989L114.604 17.6044C115.471 15.9031 116.197 14.1332 116.773 12.3127C116.948 11.7349 117.082 11.1455 117.174 10.5488C118.26 11.2796 119.286 12.095 120.244 12.9874Z" fill="black"/>
<path d="M92.0616 8.95621C92.185 9.10596 92.1982 9.29534 92.1013 9.39664C92.0044 9.49794 91.8238 9.39664 91.7005 9.26451C91.5772 9.13238 91.564 8.92097 91.6653 8.8461C91.7666 8.77122 91.9427 8.78444 92.0616 8.95621Z" fill="#263238"/>
<path d="M92.2148 9.2832C92.4012 9.89401 92.5021 10.5277 92.5147 11.1661C92.6778 11.1571 92.8371 11.1131 92.9817 11.037C93.1262 10.9609 93.2527 10.8545 93.3525 10.7252L92.2148 9.2832Z" fill="#DE5753"/>
<path d="M91.9504 7.6692C91.9602 7.65861 91.9676 7.64605 91.9722 7.63237C91.9768 7.61868 91.9784 7.60417 91.9769 7.58982C91.9763 7.57476 91.9728 7.55996 91.9665 7.54627C91.9602 7.53257 91.9513 7.52026 91.9402 7.51002C91.9291 7.49978 91.9162 7.49182 91.902 7.48659C91.8879 7.48137 91.8729 7.47899 91.8578 7.47958C91.6769 7.48374 91.4997 7.53115 91.3409 7.61784C91.1821 7.70454 91.0463 7.82799 90.945 7.97788C90.9301 8.0044 90.9259 8.03562 90.9332 8.06515C90.9406 8.09467 90.959 8.12025 90.9847 8.13663C91.0105 8.15132 91.0411 8.15539 91.0699 8.14799C91.0987 8.14058 91.1235 8.12228 91.139 8.09694C91.2213 7.97859 91.3306 7.88162 91.4579 7.81411C91.5853 7.74661 91.7269 7.71053 91.871 7.70888C91.8863 7.70841 91.9014 7.70461 91.9151 7.69776C91.9288 7.69091 91.9408 7.68116 91.9504 7.6692Z" fill="#263238"/>
<path d="M96.4531 6.58008C97.9127 7.62959 100.7 9.29205 102.283 8.66146C102.283 8.66146 103.707 9.84768 102.34 12.8198C100.836 16.0918 99.9985 13.64 99.9985 13.64C100.391 11.6557 99.046 11.0956 97.657 10.8355L96.4531 6.58008Z" fill="#E4897B"/>
<path d="M96.8951 4.61741C98.2577 6.57973 99.1573 7.66011 98.9677 9.36667C98.6899 11.9375 95.7001 12.8944 93.7774 11.3907C92.0444 10.0237 90.1042 7.04275 91.3477 4.85112C91.6199 4.36592 92.0116 3.95838 92.4857 3.6672C92.9598 3.37602 93.5004 3.21088 94.0562 3.18746C94.6121 3.16404 95.1647 3.28313 95.6616 3.5334C96.1584 3.78367 96.5831 4.15683 96.8951 4.61741Z" fill="#E4897B"/>
<path d="M99.0856 7.85419C98.8783 8.96985 95.1168 10.5 93.4367 8.09231C93.4367 8.09231 91.3024 8.09232 90.0192 6.7694C88.736 5.44649 89.0138 4.09271 90.1603 3.33423C91.1745 2.66396 93.7939 -2.2617 96.8454 1.25285C100.157 1.13819 99.3369 6.46954 99.0856 7.85419Z" fill="#263238"/>
<path d="M92.7589 2.82337C92.7589 2.82337 90.7922 2.72635 89.6721 3.62593C88.5521 4.52552 88.8563 7.29482 89.2929 7.81517C89.3959 7.95861 89.5274 8.07925 89.6791 8.16955C89.8309 8.25984 89.9996 8.31784 90.1748 8.33992C90.1748 8.33992 89.509 7.99155 89.509 7.45798C89.509 7.45798 89.8 8.14149 91.1362 8.33992C91.0318 8.25803 90.9482 8.15264 90.8923 8.03233C90.8363 7.91202 90.8096 7.78019 90.8142 7.64759C90.8142 7.64759 91.5374 8.58686 93.2131 7.64759C94.8888 6.70832 92.7589 2.82337 92.7589 2.82337Z" fill="#263238"/>
<path d="M94.4289 7.67836C94.7652 8.16867 94.9309 8.75589 94.9008 9.34964C94.8523 10.1302 94.1996 10.1919 93.6837 9.69801C93.1678 9.20412 92.6915 8.31776 92.9958 7.66513C93.3 7.01249 94.0144 7.09627 94.4289 7.67836Z" fill="#E4897B"/>
<path d="M98.345 14.1957C98.345 14.1957 97.979 9.75516 100.876 7.26367L104.329 7.58117C104.329 7.58117 102.34 12.4363 98.345 14.1957Z" fill="#003E6D"/>
<path d="M108.298 24.184C108.298 24.184 103.077 19.0555 97.3086 15.4704C97.3086 15.4704 101.149 6.4437 106.018 5.63672C106.018 5.63672 118.599 9.4379 122.25 19.7478L108.298 24.184Z" fill="#004E89"/>
<path d="M108.961 55.4488L106.712 56.4057L104.273 51.286L106.527 50.3291L108.961 55.4488Z" fill="#E4897B"/>
<path d="M122.25 19.7344L120.927 33.8455C119.919 34.4797 118.8 34.9167 117.629 35.1331C114.877 35.7725 111.208 36.0636 108.038 36.2355C104.479 36.4296 101.555 36.4648 101.291 36.6765C100.673 37.1616 108.509 53.3452 108.509 53.3452L104.77 53.8127C104.77 53.8127 94.9407 40.3277 93.6663 35.6446C93.1988 33.916 92.727 31.7509 95.902 29.7268C98.6978 27.9629 109.105 26.6091 109.105 26.6091L108.302 24.2058L122.25 19.7344Z" fill="#263238"/>
<path opacity="0.2" d="M117.625 35.1196C114.873 35.759 111.205 36.05 108.034 36.222C107.593 31.0185 110.239 26.0267 110.239 26.0267L113.961 25.0742L117.625 35.1196Z" fill="black"/>
<path d="M141.763 53.376L142.164 55.7881L136.612 56.9523L136.211 54.5357L141.763 53.376Z" fill="#E4897B"/>
<path d="M141.966 55.7961C141.957 55.7896 141.946 55.7861 141.935 55.7861C141.924 55.7861 141.913 55.7896 141.904 55.7961C141.894 55.8004 141.885 55.8078 141.879 55.8172C141.872 55.8266 141.869 55.8377 141.869 55.849C141.869 55.8931 141.904 56.8764 142.209 57.1719C142.265 57.2282 142.341 57.2599 142.42 57.2601C142.466 57.2642 142.511 57.2541 142.551 57.2312C142.59 57.2083 142.622 57.1737 142.641 57.1322C142.707 56.9691 142.584 56.6912 142.42 56.4223C142.288 56.2001 142.136 55.9905 141.966 55.7961ZM141.993 56.0033C142.288 56.3561 142.61 56.8853 142.535 57.0617C142.535 57.0881 142.5 57.119 142.42 57.1234C142.37 57.1224 142.323 57.1018 142.288 57.0661C142.262 57.0403 142.239 57.0106 142.222 56.9779C142.084 56.6706 142.006 56.3398 141.993 56.0033Z" fill="#263238"/>
<path d="M141.949 55.7831C141.94 55.778 141.93 55.7754 141.92 55.7754C141.91 55.7754 141.9 55.778 141.892 55.7831C141.892 55.7831 141.34 56.202 141.288 56.5989C141.271 56.7144 141.301 56.8318 141.371 56.9252C141.468 57.0531 141.561 57.0487 141.623 57.0222C141.883 56.9164 142.024 56.1403 141.984 55.8183C141.984 55.8183 141.984 55.8183 141.984 55.7963C141.98 55.7916 141.974 55.788 141.968 55.7857C141.962 55.7834 141.956 55.7825 141.949 55.7831ZM141.402 56.6253C141.485 56.3576 141.65 56.1229 141.874 55.955C141.874 56.3034 141.733 56.837 141.579 56.9252C141.579 56.9252 141.526 56.9472 141.464 56.8635C141.462 56.8533 141.462 56.8427 141.464 56.8326C141.419 56.7732 141.397 56.6996 141.402 56.6253Z" fill="#263238"/>
<path d="M141.859 55.8454L140.457 53.57C140.433 53.5274 140.423 53.4781 140.43 53.4296C140.436 53.381 140.458 53.3359 140.492 53.301L142.089 51.7488C142.128 51.7113 142.174 51.6831 142.226 51.6662C142.277 51.6494 142.331 51.6444 142.385 51.6516C142.438 51.6589 142.489 51.6781 142.534 51.7079C142.579 51.7377 142.617 51.7773 142.644 51.8237C143.138 52.6528 143.822 53.8654 144.457 54.9105C145.198 56.1188 145.908 57.1154 146.776 58.5353C147.305 59.3908 146.587 60.1581 146.287 59.8582C144.924 58.4471 144.082 57.1419 142.318 56.2687C142.129 56.172 141.971 56.0256 141.859 55.8454Z" fill="#263238"/>
<path d="M122.25 19.7344C122.25 19.7344 126.735 31.257 119.164 35.7284C119.164 35.7284 119.067 49.0458 120.98 50.6068C123.304 52.503 140.339 53.4687 140.339 53.4687L140.194 57.702C140.194 57.702 121.955 59.1925 116.434 57.2126C109.965 54.893 108.527 24.3822 108.527 24.3822L122.25 19.7344Z" fill="#263238"/>
<path opacity="0.2" d="M117.068 26.8075L119.789 25.9873C119.983 27.1769 120.107 28.377 120.16 29.5812L118.898 30.666L117.703 30.2868C117.558 29.1159 117.346 27.9542 117.068 26.8075Z" fill="black"/>
<path d="M109.197 24.1924L109.55 25.3124L108.54 25.6255L108.188 24.5143L109.197 24.1924Z" fill="#263238"/>
<path d="M113.842 22.7021L114.221 23.8619L110.054 25.1539L109.684 24.0339L113.842 22.7021Z" fill="#263238"/>
<path d="M119.031 21.0391L119.41 22.2517L114.749 23.6981L114.379 22.5295L119.031 21.0391Z" fill="#263238"/>
<path d="M122.823 21.1942L119.953 22.085H119.948L119.564 20.8679L122.413 19.9551L122.823 21.1942Z" fill="#263238"/>
<g opacity="0.2">
<path d="M109.197 24.1934L109.55 25.3134L108.54 25.6265L108.188 24.5153L109.197 24.1934Z" fill="white"/>
<path d="M113.84 22.7021L114.219 23.8619L110.052 25.1539L109.682 24.0339L113.84 22.7021Z" fill="white"/>
<path d="M119.031 21.04L119.41 22.2527L114.749 23.6991L114.379 22.5305L119.031 21.04Z" fill="white"/>
<path d="M122.823 21.1942L119.953 22.085H119.948L119.564 20.8679L122.413 19.9551L122.823 21.1942Z" fill="white"/>
</g>
<path d="M106.019 55.6914C106.03 55.6882 106.04 55.682 106.048 55.6734C106.055 55.6649 106.061 55.6543 106.063 55.6428C106.065 55.6306 106.063 55.6179 106.058 55.6068C106.052 55.5957 106.043 55.5866 106.032 55.5811C105.997 55.5811 105.128 55.096 104.709 55.2151C104.632 55.2363 104.567 55.2871 104.528 55.3562C104.502 55.3938 104.488 55.4384 104.488 55.4841C104.488 55.5298 104.502 55.5744 104.528 55.612C104.634 55.7487 104.938 55.784 105.251 55.7751C105.509 55.7715 105.766 55.7435 106.019 55.6914ZM105.829 55.6076C105.388 55.6825 104.757 55.6958 104.638 55.5414C104.638 55.5194 104.608 55.4841 104.638 55.4135C104.649 55.392 104.664 55.3731 104.684 55.3586C104.703 55.344 104.725 55.3342 104.749 55.3298C104.785 55.323 104.822 55.323 104.859 55.3298C105.197 55.3583 105.527 55.4526 105.829 55.6076Z" fill="#263238"/>
<path d="M106.04 55.6821C106.049 55.6756 106.055 55.6668 106.059 55.6566C106.063 55.6465 106.064 55.6354 106.062 55.6248C106.029 55.2803 105.888 54.9548 105.661 54.6943C105.615 54.6581 105.563 54.6313 105.507 54.6154C105.451 54.5995 105.392 54.5948 105.334 54.6017C105.176 54.6017 105.131 54.7031 105.123 54.7693C105.087 55.0471 105.683 55.563 105.982 55.6865H106.005L106.04 55.6821ZM105.599 54.8002C105.787 55.0091 105.905 55.2709 105.938 55.5498C105.634 55.3734 105.224 54.9677 105.246 54.8002C105.246 54.8002 105.246 54.7472 105.361 54.734H105.396C105.464 54.73 105.532 54.747 105.59 54.7825L105.599 54.8002Z" fill="#263238"/>
<path d="M106.256 55.3422L108.928 55.2805C108.977 55.2783 109.025 55.2935 109.064 55.3234C109.102 55.3532 109.129 55.3958 109.14 55.4436L109.678 57.6044C109.689 57.6566 109.689 57.7107 109.678 57.7629C109.666 57.8151 109.643 57.8641 109.61 57.9063C109.577 57.9484 109.535 57.9828 109.487 58.0069C109.44 58.0309 109.387 58.0441 109.334 58.0454C108.368 58.0454 106.974 58.0454 105.766 58.0454C104.346 58.0762 103.12 58.1821 101.467 58.2218C100.461 58.2482 100.144 57.2384 100.585 57.137C102.49 56.6695 104.051 56.5902 105.682 55.5318C105.853 55.4191 106.051 55.3537 106.256 55.3422Z" fill="#263238"/>
<path opacity="0.1" d="M102.429 19.0946C101.781 18.5874 101.106 18.0715 100.396 17.56L100.67 16.7354C101.412 17.3925 102.011 18.1956 102.429 19.0946Z" fill="black"/>
<path d="M82.2718 28.3022L81.3105 28.5315C81.1931 28.5587 81.0864 28.6202 81.004 28.7081C80.9216 28.796 80.8671 28.9065 80.8475 29.0254L80.6314 30.3483C80.6084 30.4854 80.6331 30.6262 80.7013 30.7474C80.7695 30.8685 80.8771 30.9627 81.0062 31.0142L81.7118 31.292C81.7118 31.292 83.7403 32.756 85.4556 31.8123L84.7148 29.85L83.264 28.5271C83.129 28.4123 82.9683 28.332 82.7955 28.2928C82.6228 28.2536 82.4431 28.2568 82.2718 28.3022Z" fill="#E4897B"/>
<path d="M99.7827 15.84C100.155 16.0988 100.466 16.4356 100.695 16.8271C100.923 17.2186 101.063 17.6553 101.106 18.1066C101.106 18.1066 100.135 20.7525 99.5754 22.0445C99.1918 22.9265 98.7949 23.8084 98.3319 24.6903C97.8542 25.6579 97.2811 26.5753 96.6209 27.4288L96.4666 27.6096L96.2902 27.8036C96.1506 27.9466 96.0034 28.0821 95.8492 28.2093C95.755 28.2884 95.6564 28.362 95.5538 28.4298C95.4568 28.4959 95.3157 28.5885 95.276 28.6062L94.9011 28.8002C94.4161 29.0427 93.9619 29.2412 93.5077 29.422C92.5993 29.7924 91.7041 30.1187 90.8045 30.4274C88.9965 31.0315 87.2018 31.5827 85.3585 32.0457L84.4766 29.6865C86.1302 28.8399 87.8147 28.0373 89.4595 27.2127C90.2842 26.8026 91.1044 26.3925 91.8893 25.978C92.2773 25.7707 92.6654 25.537 93.0006 25.3518L93.2387 25.2019C93.2695 25.1754 93.2695 25.171 93.3092 25.1137L93.3621 25.0475L93.4239 24.9549C93.8504 24.2895 94.2221 23.5905 94.5351 22.8647C94.8835 22.071 95.2363 21.2464 95.5582 20.4041C96.1976 18.7284 96.8105 16.9822 97.3838 15.2888C98.2239 15.1741 99.0769 15.3701 99.7827 15.84Z" fill="#004E89"/>
<path d="M19.1387 132.839H93.61L133.024 101.001L134.753 103.14H144.458L154.349 57.6182L144.635 57.6358L144.639 57.6182L98.0549 57.7108L103.616 64.5943L19.1387 132.839Z" fill="#004E89"/>
<path opacity="0.2" d="M19.1387 132.839H83.9042L129.188 96.2561L134.753 103.14L144.639 57.6182L98.0549 57.7108L103.616 64.5943L19.1387 132.839Z" fill="white"/>
<path d="M17.6214 130.211H71.0936C71.0672 129.982 71.0539 129.753 71.0539 129.523C71.0533 128.707 71.2136 127.898 71.5256 127.144C71.8376 126.39 72.2952 125.704 72.8722 125.127C73.4492 124.549 74.1343 124.091 74.8885 123.779C75.6426 123.466 76.4509 123.305 77.2672 123.305H77.4965C77.9479 122.098 78.8089 121.088 79.9293 120.451C81.0496 119.814 82.3581 119.591 83.6262 119.82C84.8943 120.05 86.0416 120.717 86.8677 121.707C87.6938 122.696 88.1462 123.944 88.146 125.232C89.4455 125.294 90.6758 125.836 91.5982 126.754C92.5206 127.671 93.0693 128.898 93.1378 130.198H93.3891C93.7612 130.183 94.1325 130.243 94.4806 130.375C94.8288 130.507 95.1466 130.709 95.4152 130.967C95.6837 131.225 95.8973 131.534 96.0433 131.877C96.1892 132.219 96.2644 132.588 96.2644 132.96C96.2644 133.333 96.1892 133.701 96.0433 134.044C95.8973 134.386 95.6837 134.696 95.4152 134.954C95.1466 135.212 94.8288 135.413 94.4806 135.545C94.1325 135.677 93.7612 135.738 93.3891 135.723H17.6214C17.2493 135.738 16.878 135.677 16.5299 135.545C16.1817 135.413 15.8639 135.212 15.5953 134.954C15.3268 134.696 15.1132 134.386 14.9672 134.044C14.8213 133.701 14.7461 133.333 14.7461 132.96C14.7461 132.588 14.8213 132.219 14.9672 131.877C15.1132 131.534 15.3268 131.225 15.5953 130.967C15.8639 130.709 16.1817 130.507 16.5299 130.375C16.878 130.243 17.2493 130.183 17.6214 130.198V130.211Z" fill="#004E89"/>
<path opacity="0.7" d="M17.6214 130.211H71.0936C71.0672 129.982 71.0539 129.753 71.0539 129.523C71.0533 128.707 71.2136 127.898 71.5256 127.144C71.8376 126.39 72.2952 125.704 72.8722 125.127C73.4492 124.549 74.1343 124.091 74.8885 123.779C75.6426 123.466 76.4509 123.305 77.2672 123.305H77.4965C77.9479 122.098 78.8089 121.088 79.9293 120.451C81.0496 119.814 82.3581 119.591 83.6262 119.82C84.8943 120.05 86.0416 120.717 86.8677 121.707C87.6938 122.696 88.1462 123.944 88.146 125.232C89.4455 125.294 90.6758 125.836 91.5982 126.754C92.5206 127.671 93.0693 128.898 93.1378 130.198H93.3891C93.7612 130.183 94.1325 130.243 94.4806 130.375C94.8288 130.507 95.1466 130.709 95.4152 130.967C95.6837 131.225 95.8973 131.534 96.0433 131.877C96.1892 132.219 96.2644 132.588 96.2644 132.96C96.2644 133.333 96.1892 133.701 96.0433 134.044C95.8973 134.386 95.6837 134.696 95.4152 134.954C95.1466 135.212 94.8288 135.413 94.4806 135.545C94.1325 135.677 93.7612 135.738 93.3891 135.723H17.6214C17.2493 135.738 16.878 135.677 16.5299 135.545C16.1817 135.413 15.8639 135.212 15.5953 134.954C15.3268 134.696 15.1132 134.386 14.9672 134.044C14.8213 133.701 14.7461 133.333 14.7461 132.96C14.7461 132.588 14.8213 132.219 14.9672 131.877C15.1132 131.534 15.3268 131.225 15.5953 130.967C15.8639 130.709 16.1817 130.507 16.5299 130.375C16.878 130.243 17.2493 130.183 17.6214 130.198V130.211Z" fill="white"/>
</svg>
