<svg width="145" height="165" viewBox="0 0 145 165" fill="none" xmlns="http://www.w3.org/2000/svg">
<path d="M111.422 155.969L61.7788 127.307C58.2772 125.288 55.4375 119.862 55.4375 115.192V8.90579C55.4375 4.23561 58.2772 2.09051 61.7788 4.11303L111.422 32.7756C114.928 34.7981 117.768 40.2201 117.768 44.8903V151.177C117.768 155.847 114.928 157.992 111.422 155.969Z" fill="#455A64"/>
<path d="M117.144 29.421L67.4958 0.758427C66.0004 -0.103697 64.6357 -0.205844 63.5407 0.325323C63.4073 0.390734 63.279 0.465844 63.1566 0.550047L57.5957 3.78199C58.7112 3.11599 60.178 3.16502 61.7837 4.09252L111.427 32.7551C114.933 34.7776 117.773 40.1996 117.773 44.8698V151.177C117.773 153.628 116.956 155.41 115.73 156.223L121.217 153.028C122.615 152.28 123.505 150.458 123.505 147.843V41.5398C123.485 36.8696 120.645 31.4435 117.144 29.421Z" fill="#37474F"/>
<path d="M117.768 44.8613V151.176C117.768 153.628 116.95 155.409 115.725 156.222L121.212 153.027C122.609 152.279 123.5 150.457 123.5 147.842V41.5312L117.78 44.849L117.768 44.8613Z" fill="#263238"/>
<path d="M123.484 49.793L117.768 53.0944V55.6685L123.484 52.3712V49.793Z" fill="#37474F"/>
<path d="M120.978 66.9259C120.468 67.2242 120.051 66.9259 120.051 66.2272V60.699C120.056 60.3521 120.143 60.0113 120.304 59.7041C120.465 59.3968 120.696 59.1316 120.978 58.9298C121.489 58.6356 121.902 58.9298 121.902 59.6285V65.173C121.894 65.5168 121.807 65.8542 121.647 66.1585C121.487 66.4627 121.258 66.7255 120.978 66.9259Z" fill="#37474F"/>
<path d="M120.052 66.2429V60.6983C120.057 60.3514 120.144 60.0107 120.305 59.7034C120.466 59.3962 120.697 59.131 120.979 58.9291C121.064 58.871 121.162 58.8357 121.265 58.8264C121.367 58.8171 121.47 58.8341 121.564 58.876L120.873 58.5205C120.778 58.474 120.672 58.4537 120.567 58.4616C120.461 58.4695 120.36 58.5054 120.272 58.5655C119.99 58.7673 119.759 59.0325 119.598 59.3398C119.437 59.647 119.35 59.9878 119.345 60.3347V65.8792C119.329 66.0192 119.35 66.1608 119.405 66.2903C119.46 66.4199 119.548 66.533 119.66 66.6188L120.387 66.9988C120.269 66.9139 120.176 66.7992 120.117 66.6663C120.058 66.5334 120.035 66.3873 120.052 66.2429Z" fill="#455A64"/>
<path d="M120.978 80.3641C120.468 80.6583 120.051 80.3641 120.051 79.6654V74.1208C120.056 73.774 120.143 73.4332 120.304 73.126C120.465 72.8187 120.696 72.5535 120.978 72.3517C121.489 72.0575 121.902 72.3517 121.902 73.0503V78.5949C121.897 78.9415 121.811 79.2821 121.651 79.5894C121.49 79.8967 121.26 80.162 120.978 80.3641Z" fill="#37474F"/>
<path d="M120.052 79.6656V74.121C120.057 73.7742 120.144 73.4334 120.305 73.1262C120.466 72.8189 120.697 72.5537 120.979 72.3518C121.064 72.2926 121.162 72.2566 121.264 72.2473C121.367 72.2379 121.47 72.2557 121.564 72.2987L120.873 71.9392C120.778 71.891 120.672 71.8697 120.566 71.8776C120.461 71.8855 120.359 71.9224 120.272 71.9841C119.99 72.186 119.759 72.4512 119.598 72.7584C119.437 73.0657 119.35 73.4064 119.345 73.7533V79.2979C119.329 79.4378 119.35 79.5794 119.405 79.709C119.46 79.8386 119.548 79.9517 119.66 80.0374L120.387 80.4174C120.269 80.3329 120.177 80.2188 120.118 80.0868C120.059 79.9547 120.036 79.8093 120.052 79.6656Z" fill="#455A64"/>
<path d="M109.699 35.7421L60.9091 7.54944C60.7046 7.43094 60.4726 7.36841 60.2363 7.36816C60 7.36792 59.7678 7.42996 59.5631 7.54804C59.3585 7.66613 59.1885 7.83607 59.0705 8.04076C58.9524 8.24544 58.8904 8.47763 58.8906 8.71392V115.192C58.8906 118.747 61.4075 123.107 64.4883 124.884L112.093 152.37C112.318 152.499 112.572 152.567 112.832 152.568C113.091 152.568 113.346 152.5 113.571 152.371C113.795 152.242 113.983 152.056 114.113 151.832C114.244 151.609 114.314 151.354 114.316 151.095V43.7382C114.316 40.8086 112.236 37.209 109.699 35.7421Z" fill="#C1E0FF"/>
<path opacity="0.5" d="M109.699 35.7421L60.9091 7.54944C60.7046 7.43094 60.4726 7.36841 60.2363 7.36816C60 7.36792 59.7678 7.42996 59.5631 7.54805C59.3585 7.66613 59.1885 7.83607 59.0705 8.04076C58.9524 8.24544 58.8904 8.47763 58.8906 8.71392V115.192C58.8906 118.747 61.4075 123.107 64.4883 124.884L112.093 152.37C112.318 152.499 112.572 152.567 112.832 152.568C113.091 152.568 113.346 152.5 113.571 152.371C113.795 152.242 113.983 152.056 114.113 151.832C114.244 151.609 114.314 151.354 114.316 151.095V43.7382C114.316 40.8086 112.236 37.209 109.699 35.7421Z" fill="white"/>
<path d="M75.4961 14.9238L76.252 18.1067L92.424 27.4308L95.2187 25.9435L75.4961 14.9238Z" fill="#455A64"/>
<path d="M80.2515 18.0009C80.2515 18.528 79.8797 18.7404 79.4344 18.4789C79.1956 18.3203 78.9973 18.108 78.8554 17.8589C78.7135 17.6099 78.6319 17.331 78.6172 17.0448C78.6172 16.5177 78.989 16.3011 79.4344 16.5667C79.6731 16.7253 79.8714 16.9376 80.0134 17.1867C80.1553 17.4358 80.2368 17.7146 80.2515 18.0009Z" fill="#263238"/>
<path d="M91.1452 24.7346C91.0566 24.7348 90.9694 24.7123 90.8919 24.6692L82.6343 20.0521C82.57 20.0216 82.5127 19.9783 82.466 19.9247C82.4192 19.8711 82.3839 19.8085 82.3623 19.7407C82.3408 19.673 82.3334 19.6015 82.3406 19.5307C82.3478 19.46 82.3695 19.3915 82.4043 19.3294C82.4391 19.2674 82.4862 19.2132 82.5429 19.1702C82.5995 19.1272 82.6644 19.0962 82.7334 19.0793C82.8025 19.0624 82.8743 19.0599 82.9444 19.0719C83.0145 19.0839 83.0814 19.1102 83.1409 19.1492L91.3985 23.7621C91.4991 23.818 91.5782 23.9058 91.6235 24.0115C91.6687 24.1173 91.6776 24.2351 91.6486 24.3465C91.6195 24.4578 91.5544 24.5564 91.4632 24.6266C91.3721 24.6969 91.2603 24.7348 91.1452 24.7346Z" fill="#263238"/>
<path d="M49.0919 132.447C59.7561 138.809 87.4993 155.369 101.232 163.639C101.641 163.885 102.108 164.018 102.586 164.024C103.063 164.03 103.534 163.91 103.95 163.674C104.365 163.439 104.711 163.098 104.951 162.685C105.192 162.273 105.318 161.804 105.318 161.326V46.5821C105.319 45.2763 104.978 43.993 104.329 42.8597C103.681 41.7265 102.747 40.7827 101.62 40.1223L48.8426 9.19209C48.4327 8.95159 47.9666 8.82369 47.4914 8.82132C47.0161 8.81896 46.5487 8.94222 46.1365 9.17863C45.7242 9.41503 45.3817 9.75619 45.1437 10.1675C44.9058 10.5789 44.7807 11.0458 44.7813 11.5211V124.856C44.7802 126.386 45.177 127.891 45.9327 129.221C46.6884 130.552 47.777 131.664 49.0919 132.447Z" fill="#F5F5F5"/>
<path d="M48.8836 132.798C57.4477 137.914 66.009 143.026 74.5676 148.137L89.5669 157.126L96.2678 161.146L99.2382 162.944C100.149 163.491 101.114 164.28 102.192 164.427C102.632 164.481 103.078 164.441 103.501 164.31C103.924 164.179 104.315 163.96 104.647 163.668C104.98 163.375 105.247 163.016 105.431 162.613C105.615 162.21 105.711 161.773 105.714 161.33C105.714 161.13 105.714 160.921 105.714 160.725V55.0067C105.714 52.2528 105.714 49.4989 105.714 46.745C105.726 45.3195 105.359 43.9164 104.652 42.6784C103.945 41.4405 102.923 40.4117 101.69 39.6968C100.484 38.9818 99.275 38.279 98.0656 37.5722L80.7945 27.4432L60.2792 15.4429C56.5815 13.2529 52.9001 11.0424 49.1737 8.90552C48.6895 8.60723 48.1335 8.4456 47.5648 8.4378C46.9961 8.42999 46.4359 8.57629 45.9436 8.86117C45.4514 9.14606 45.0454 9.55889 44.7689 10.0559C44.4923 10.5529 44.3554 11.1154 44.3728 11.6839C44.3728 12.591 44.3728 13.4981 44.3728 14.4051V115.547C44.3728 118.544 44.3728 121.54 44.3728 124.536C44.3415 126.184 44.7394 127.811 45.5274 129.258C46.3154 130.705 47.4664 131.922 48.8673 132.79C49.3167 133.068 49.7294 132.361 49.2759 132.087C46.5056 130.383 45.1696 127.515 45.1696 124.324V20.346C45.1696 17.4859 45.1696 14.6258 45.1696 11.7656C45.1443 11.3958 45.2024 11.025 45.3396 10.6806C45.4768 10.3362 45.6896 10.027 45.9622 9.77581C46.8734 8.99949 47.9725 9.15884 48.9204 9.71452L53.0063 12.1089L70.5226 22.389L90.568 34.14C94.1472 36.2361 97.7387 38.3199 101.31 40.4323C102.43 41.0907 103.354 42.0362 103.987 43.171C104.62 44.3058 104.938 45.589 104.909 46.888C104.909 47.8605 104.909 48.837 104.909 49.8135V160.541C104.909 160.786 104.909 161.036 104.909 161.281C104.912 161.702 104.8 162.115 104.586 162.478C104.372 162.84 104.063 163.137 103.693 163.337C103.322 163.538 102.905 163.633 102.484 163.614C102.064 163.595 101.656 163.463 101.306 163.23C97.0972 160.746 92.9214 158.192 88.7293 155.679C79.0239 149.853 69.3158 144.041 59.605 138.245L49.2963 132.095C49.2038 132.05 49.0974 132.041 48.9985 132.07C48.8997 132.1 48.8157 132.166 48.7635 132.255C48.7112 132.344 48.6946 132.449 48.7169 132.55C48.7392 132.651 48.7987 132.739 48.8836 132.798Z" fill="#E0E0E0"/>
<path d="M76.5622 145.423L73.1668 143.466C72.8231 143.221 72.542 142.898 72.3461 142.524C72.1502 142.15 72.045 141.735 72.0391 141.313V137.795C72.0391 136.978 72.5416 136.569 73.1668 136.941L76.5622 138.902C76.9046 139.149 77.1845 139.472 77.3797 139.846C77.5748 140.219 77.6796 140.634 77.6858 141.056V144.557C77.6858 145.403 77.175 145.783 76.5622 145.423Z" fill="#E0E0E0"/>
<path d="M74.8611 142.85C74.7586 142.783 74.6733 142.693 74.6122 142.587C74.5511 142.482 74.516 142.363 74.5098 142.241V139.724C74.5098 139.499 74.665 139.405 74.8611 139.52C74.9639 139.586 75.0495 139.676 75.1106 139.781C75.1717 139.887 75.2066 140.006 75.2125 140.128V142.645C75.2125 142.87 75.0573 142.96 74.8611 142.85Z" fill="white"/>
<path d="M75.9493 142.22L73.7674 140.962C73.6655 140.894 73.5807 140.804 73.5197 140.699C73.4587 140.593 73.4232 140.475 73.416 140.353C73.416 140.128 73.5754 140.034 73.7674 140.148L75.9493 141.407C76.0514 141.474 76.1364 141.564 76.1974 141.67C76.2584 141.775 76.2938 141.894 76.3007 142.016C76.3047 142.24 76.1454 142.33 75.9493 142.22Z" fill="white"/>
<path d="M64.2411 132.957C64.6418 133.203 64.9713 133.55 65.1972 133.962C65.7243 134.873 65.7243 135.862 65.1972 136.168C65.0438 136.239 64.8744 136.267 64.7064 136.251C64.5384 136.234 64.3778 136.174 64.2411 136.074C63.8496 135.817 63.5238 135.472 63.2897 135.066C63.0556 134.66 62.9196 134.205 62.8928 133.737C62.8553 133.568 62.8728 133.391 62.9426 133.232C63.0125 133.073 63.1311 132.941 63.2813 132.854C63.4315 132.767 63.6055 132.73 63.7781 132.748C63.9507 132.767 64.1128 132.84 64.2411 132.957ZM64.2411 132.14C64.0336 131.99 63.79 131.897 63.5352 131.872C63.2804 131.847 63.0234 131.89 62.7906 131.997C61.9734 132.458 61.9734 133.958 62.7906 135.347C63.1353 135.973 63.6347 136.501 64.2411 136.879C64.4492 137.03 64.6932 137.123 64.9486 137.148C65.204 137.174 65.4617 137.132 65.6957 137.027C66.5129 136.561 66.5129 135.061 65.6957 133.672C65.3508 133.045 64.8498 132.517 64.2411 132.14Z" fill="#E0E0E0"/>
<path d="M67.2294 140.095C67.1257 140.028 67.0401 139.937 66.9801 139.83L65.4479 137.174C65.309 136.937 65.309 136.679 65.4479 136.598C65.5869 136.516 65.8075 136.647 65.9464 136.888L67.4786 139.544C67.6175 139.781 67.6175 140.038 67.4786 140.12C67.4383 140.136 67.3944 140.143 67.3509 140.139C67.3075 140.134 67.2657 140.119 67.2294 140.095Z" fill="#E0E0E0"/>
<path d="M88.015 145.668C87.1651 145.178 86.4787 145.717 86.4787 146.874C86.4787 145.717 85.7922 144.385 84.9424 143.895C84.0925 143.405 83.4102 143.944 83.4102 145.1C83.4102 148.038 86.4787 151.066 86.4787 151.066C86.4787 151.066 89.5513 151.585 89.5513 148.643C89.5513 147.491 88.8607 146.159 88.015 145.668Z" fill="#E0E0E0"/>
<path d="M97.8443 152.918C97.8443 153.784 97.2355 154.143 96.4837 153.702C96.0872 153.444 95.7574 153.096 95.5209 152.686C95.2845 152.277 95.1481 151.817 95.123 151.345C95.123 150.478 95.7319 150.119 96.4837 150.56C96.8799 150.818 97.2096 151.167 97.446 151.576C97.6824 151.986 97.8188 152.445 97.8443 152.918Z" fill="#E0E0E0"/>
<path d="M96.4849 153.702C95.3735 153.061 94.4746 153.743 94.4746 155.226V155.684L98.4992 158.009V157.547C98.4992 156.068 97.6044 154.364 96.4849 153.702Z" fill="#E0E0E0"/>
<path d="M54.3146 126.232L51.6016 127.127V130.931L53.7058 132.157V130.081C53.7058 129.693 53.9796 129.534 54.3146 129.73C54.4927 129.846 54.641 130.002 54.7475 130.186C54.854 130.37 54.9156 130.576 54.9275 130.788V132.86L57.0317 134.086V130.257L54.3146 126.232Z" fill="#E0E0E0"/>
<path d="M63.817 122.317L51.2079 115.04C50.2151 114.464 49.4102 112.928 49.4102 111.608V97.6874C49.4102 96.3636 50.2273 95.7588 51.2079 96.3309L63.817 103.612C64.8099 104.184 65.6107 105.72 65.6107 107.044V120.961C65.6107 122.284 64.8099 122.901 63.817 122.317Z" fill="#5D9FD1"/>
<path opacity="0.5" d="M63.817 122.317L51.2079 115.04C50.2151 114.464 49.4102 112.928 49.4102 111.608V97.6874C49.4102 96.3636 50.2273 95.7588 51.2079 96.3309L63.817 103.612C64.8099 104.184 65.6107 105.72 65.6107 107.044V120.961C65.6107 122.284 64.8099 122.901 63.817 122.317Z" fill="white"/>
<path d="M51.3105 110.281L63.7153 117.443L60.0503 107.911L57.5129 110.922L54.9184 107.229L51.3105 110.281Z" fill="#5D9FD1"/>
<path d="M55.6133 104.335C55.6346 104.728 55.7483 105.109 55.9449 105.449C56.1416 105.79 56.4157 106.078 56.7451 106.293C57.3702 106.656 57.8769 106.362 57.8769 105.639C57.853 105.249 57.7382 104.871 57.5416 104.534C57.3451 104.197 57.0723 103.911 56.7451 103.698C56.1199 103.322 55.6133 103.612 55.6133 104.335Z" fill="#BA68C8"/>
<path d="M81.3541 132.451L68.7451 125.174C67.7522 124.598 66.9473 123.062 66.9473 121.742V107.821C66.9473 106.497 67.7644 105.893 68.7451 106.465L81.3541 113.746C82.347 114.318 83.1519 115.854 83.1519 117.178V131.094C83.1519 132.418 82.347 133.027 81.3541 132.451Z" fill="#5D9FD1"/>
<path opacity="0.5" d="M81.3541 132.451L68.7451 125.174C67.7522 124.598 66.9473 123.062 66.9473 121.742V107.821C66.9473 106.497 67.7644 105.893 68.7451 106.465L81.3541 113.746C82.347 114.318 83.1519 115.854 83.1519 117.178V131.094C83.1519 132.418 82.347 133.027 81.3541 132.451Z" fill="white"/>
<path d="M68.8477 120.413L81.2524 127.576L77.5874 118.044L75.05 121.055L72.4555 117.361L68.8477 120.413Z" fill="#5D9FD1"/>
<path d="M73.1504 114.469C73.1717 114.861 73.2854 115.243 73.482 115.583C73.6787 115.923 73.9529 116.212 74.2822 116.426C74.9073 116.79 75.414 116.496 75.414 115.772C75.3926 115.38 75.279 114.999 75.0823 114.658C74.8857 114.318 74.6115 114.029 74.2822 113.815C73.657 113.456 73.1504 113.746 73.1504 114.469Z" fill="#5D9FD1"/>
<path d="M98.8952 142.584L86.282 135.307C85.2932 134.731 84.4883 133.194 84.4883 131.875V117.954C84.4883 116.63 85.3055 116.025 86.282 116.597L98.8952 123.879C99.8839 124.451 100.689 125.987 100.689 127.311V141.227C100.689 142.551 99.8839 143.16 98.8952 142.584Z" fill="#E0EFFF"/>
<path opacity="0.5" d="M98.8952 142.584L86.282 135.307C85.2932 134.731 84.4883 133.194 84.4883 131.875V117.954C84.4883 116.63 85.3055 116.025 86.282 116.597L98.8952 123.879C99.8839 124.451 100.689 125.987 100.689 127.311V141.227C100.689 142.551 99.8839 143.16 98.8952 142.584Z" fill="#5D9FD1"/>
<path d="M86.3887 130.546L98.7894 137.709L95.1284 128.172L92.5911 131.188L89.9924 127.494L86.3887 130.546Z" fill="#5D9FD1"/>
<path d="M90.6914 124.602C90.7128 124.994 90.8264 125.376 91.0231 125.716C91.2197 126.056 91.4939 126.345 91.8232 126.559C92.4483 126.923 92.9509 126.628 92.9509 125.905C92.9303 125.513 92.8175 125.132 92.6215 124.791C92.4255 124.451 92.152 124.162 91.8232 123.948C91.1981 123.584 90.6914 123.879 90.6914 124.602Z" fill="#5D9FD1"/>
<path d="M105.319 152.48C105.272 152.48 105.225 152.467 105.184 152.443L44.66 117.501C44.6287 117.483 44.6011 117.459 44.579 117.43C44.5569 117.402 44.5406 117.369 44.5311 117.334C44.5216 117.299 44.5191 117.263 44.5237 117.227C44.5283 117.191 44.5399 117.156 44.5579 117.125C44.5759 117.093 44.5999 117.066 44.6285 117.044C44.6571 117.022 44.6898 117.005 44.7247 116.996C44.7596 116.986 44.796 116.984 44.8319 116.989C44.8678 116.993 44.9024 117.005 44.9338 117.023L105.458 151.965C105.49 151.984 105.518 152.008 105.54 152.037C105.562 152.066 105.579 152.099 105.588 152.134C105.598 152.169 105.6 152.206 105.595 152.243C105.591 152.279 105.579 152.314 105.56 152.345C105.535 152.387 105.5 152.421 105.457 152.444C105.415 152.468 105.368 152.48 105.319 152.48Z" fill="#E0E0E0"/>
<path d="M105.319 120.635C105.272 120.634 105.225 120.622 105.184 120.598L44.6599 85.6552C44.6011 85.6164 44.5593 85.5567 44.5428 85.4882C44.5264 85.4196 44.5366 85.3474 44.5714 85.2862C44.6062 85.2249 44.663 85.1791 44.7302 85.1581C44.7975 85.1371 44.8702 85.1425 44.9337 85.1731L105.458 120.12C105.49 120.137 105.518 120.161 105.541 120.189C105.563 120.218 105.58 120.251 105.589 120.286C105.599 120.321 105.601 120.358 105.596 120.394C105.591 120.43 105.579 120.464 105.56 120.496C105.536 120.538 105.501 120.573 105.458 120.597C105.416 120.622 105.368 120.635 105.319 120.635Z" fill="#E0E0E0"/>
<path d="M101.62 40.1223L48.8426 9.19209C48.4327 8.9516 47.9666 8.82369 47.4914 8.82132C47.0161 8.81896 46.5487 8.94222 46.1365 9.17863C45.7242 9.41503 45.3817 9.75619 45.1437 10.1675C44.9058 10.5789 44.7807 11.0458 44.7813 11.5211V16.4977L105.302 51.4444V46.5821C105.304 45.2779 104.966 43.9957 104.32 42.8625C103.674 41.7294 102.744 40.7848 101.62 40.1223Z" fill="#E0E0E0"/>
<path d="M66.8102 61.6305C70.8028 59.3254 70.8024 51.8501 66.8094 44.934C62.8163 38.0179 56.3428 34.2799 52.3502 36.585C48.3577 38.8901 48.3581 46.3654 52.3511 53.2815C56.3441 60.1976 62.8177 63.9356 66.8102 61.6305Z" fill="#BA68C8"/>
<path d="M54.743 84.2862C55.9956 83.5629 55.9959 81.2181 54.7435 79.0489C53.4911 76.8797 51.4603 75.7075 50.2076 76.4307C48.9549 77.1539 48.9547 79.4987 50.2071 81.668C51.4595 83.8372 53.4903 85.0094 54.743 84.2862Z" fill="#E0E0E0"/>
<path d="M63.4053 86.7912C63.4053 88.8342 61.967 89.6514 60.1978 88.6462C59.2639 88.0372 58.4864 87.2167 57.9285 86.2513C57.3706 85.286 57.0478 84.2027 56.9863 83.0894C56.9863 81.0465 58.4246 80.2293 60.1978 81.2385C61.131 81.8471 61.9076 82.667 62.4649 83.6317C63.0221 84.5964 63.3443 85.6788 63.4053 86.7912Z" fill="#E0E0E0"/>
<path d="M71.1199 91.3715C71.1199 93.4144 69.6858 94.2316 67.9125 93.2224C66.9788 92.6134 66.2019 91.7928 65.6446 90.8274C65.0873 89.8619 64.7654 88.7787 64.7051 87.6656C64.7051 85.6226 66.1433 84.8055 67.9125 85.8147C68.8469 86.423 69.6244 87.2433 70.1817 88.209C70.7391 89.1746 71.0605 90.2582 71.1199 91.3715Z" fill="#E0E0E0"/>
<path d="M78.8387 95.7883C78.8387 97.8313 77.4045 98.6484 75.6313 97.6433C74.6983 97.0335 73.9218 96.2129 73.3646 95.2475C72.8074 94.2822 72.4852 93.1994 72.4238 92.0865C72.4238 90.0435 73.8621 89.2264 75.6313 90.2356C76.5651 90.8435 77.3422 91.6632 77.8996 92.628C78.4569 93.5929 78.7787 94.6757 78.8387 95.7883Z" fill="#E0E0E0"/>
<path d="M85.6141 102.163C86.8667 101.44 86.867 99.0951 85.6146 96.9259C84.3622 94.7566 82.3314 93.5844 81.0787 94.3077C79.826 95.0309 79.8258 97.3757 81.0782 99.5449C82.3306 101.714 84.3614 102.886 85.6141 102.163Z" fill="#E0E0E0"/>
<path d="M93.7762 106.741C95.0288 106.018 95.0291 103.673 93.7767 101.504C92.5243 99.3348 90.4935 98.1626 89.2408 98.8858C87.9881 99.609 87.9879 101.954 89.2403 104.123C90.4927 106.292 92.5235 107.464 93.7762 106.741Z" fill="#E0E0E0"/>
<path d="M69.8196 72.2375C69.748 72.238 69.6776 72.2197 69.6153 72.1844L49.1654 60.3762C49.0719 60.3223 49.0036 60.2336 48.9753 60.1295C48.9469 60.0254 48.9609 59.9143 49.0142 59.8205C49.0409 59.7737 49.0766 59.7326 49.1192 59.6996C49.1619 59.6666 49.2106 59.6424 49.2626 59.6284C49.3147 59.6143 49.369 59.6107 49.4224 59.6177C49.4758 59.6248 49.5273 59.6423 49.574 59.6693L70.0239 71.4775C70.1006 71.523 70.1603 71.5924 70.1939 71.675C70.2275 71.7576 70.2332 71.8489 70.21 71.935C70.1869 72.0211 70.1362 72.0973 70.0657 72.1519C69.9952 72.2066 69.9088 72.2366 69.8196 72.2375Z" fill="#BA68C8"/>
<path d="M82.4548 83.8241C82.3826 83.8255 82.3115 83.8056 82.2505 83.7669L49.1547 64.6613C49.1059 64.6357 49.0628 64.6006 49.0279 64.5579C48.993 64.5153 48.9671 64.466 48.9517 64.4131C48.9364 64.3601 48.9319 64.3047 48.9385 64.2499C48.9452 64.1952 48.9628 64.1424 48.9904 64.0947C49.018 64.047 49.0549 64.0054 49.099 63.9723C49.1431 63.9393 49.1934 63.9155 49.2469 63.9024C49.3005 63.8892 49.3561 63.8871 49.4104 63.896C49.4648 63.905 49.5168 63.9248 49.5633 63.9544L82.6591 83.0601C82.7056 83.0871 82.7463 83.123 82.7788 83.1658C82.8114 83.2086 82.8352 83.2574 82.8488 83.3094C82.8625 83.3614 82.8658 83.4156 82.8585 83.4689C82.8511 83.5221 82.8334 83.5734 82.8062 83.6198C82.7705 83.6816 82.7193 83.7329 82.6577 83.7688C82.5961 83.8046 82.5261 83.8237 82.4548 83.8241Z" fill="#5D9FD1"/>
<path d="M100.644 99.2851C100.573 99.2856 100.502 99.2672 100.44 99.232L49.1537 69.6174C49.0602 69.5635 48.9919 69.4748 48.9636 69.3707C48.9352 69.2666 48.9492 69.1555 49.0025 69.0617C49.0292 69.0149 49.0649 68.9738 49.1075 68.9408C49.1502 68.9079 49.1989 68.8837 49.2509 68.8696C49.3029 68.8555 49.3572 68.8519 49.4107 68.859C49.4641 68.866 49.5156 68.8835 49.5623 68.9105L100.848 98.521C100.927 98.5656 100.989 98.6351 101.024 98.7185C101.059 98.8019 101.065 98.8946 101.042 98.982C101.018 99.0694 100.967 99.1466 100.895 99.2014C100.823 99.2563 100.735 99.2857 100.644 99.2851Z" fill="#5D9FD1"/>
<path d="M99.6723 103.866C97.899 102.844 96.4648 103.674 96.4648 105.717C96.5242 106.83 96.8457 107.914 97.4031 108.879C97.9604 109.845 98.7379 110.665 99.6723 111.274V103.866Z" fill="#E0E0E0"/>
<path d="M82.7645 56.2286C82.7046 56.2272 82.6458 56.2119 82.5929 56.1837L76.2884 52.5391C76.2109 52.4946 76.1542 52.4212 76.1309 52.335C76.1075 52.2488 76.1193 52.1569 76.1638 52.0794C76.2082 52.0019 76.2816 51.9453 76.3678 51.9219C76.454 51.8985 76.5459 51.9103 76.6234 51.9548L82.932 55.5953C82.9968 55.6324 83.0475 55.6899 83.0763 55.7588C83.105 55.8276 83.1103 55.9041 83.0912 55.9762C83.0721 56.0484 83.0297 56.1122 82.9707 56.1579C82.9116 56.2035 82.8392 56.2284 82.7645 56.2286Z" fill="#BA68C8"/>
<path d="M76.8724 50.0589V47.7217L76.3984 47.448V46.7207L77.661 47.4521V50.5206L76.8724 50.0589Z" fill="#37474F"/>
<path d="M80.5376 50.6389C80.5376 51.6481 80.1045 51.9545 79.3364 51.5092C78.9481 51.28 78.6306 50.9482 78.4186 50.5503C78.2067 50.1524 78.1086 49.7038 78.1351 49.2537C78.1351 48.2527 78.5437 47.9422 79.3364 48.3916C79.7218 48.6218 80.0372 48.9526 80.2488 49.3485C80.4605 49.7444 80.5603 50.1905 80.5376 50.6389ZM78.9441 49.7195C78.9441 50.3774 79.0544 50.6838 79.3527 50.8513C79.651 51.0188 79.7409 50.8268 79.7409 50.1731C79.7409 49.5193 79.6305 49.2088 79.3527 49.0494C79.0749 48.8901 78.9441 49.0658 78.9441 49.7195Z" fill="#37474F"/>
<path d="M83.2165 52.1877C83.2165 53.1969 82.7875 53.5034 82.0194 53.0621C81.6323 52.8306 81.3159 52.4977 81.1042 52.0995C80.8925 51.7013 80.7936 51.2529 80.8181 50.8026C80.8181 49.8015 81.2267 49.491 82.0194 49.9404C82.4056 50.1695 82.7215 50.5002 82.9326 50.8965C83.1437 51.2927 83.2419 51.7394 83.2165 52.1877ZM81.6271 51.2684C81.6271 51.9262 81.7374 52.2367 82.0357 52.4002C82.334 52.5636 82.4239 52.4002 82.4239 51.7219C82.4239 51.0436 82.3135 50.7617 82.0357 50.6024C81.7579 50.443 81.6271 50.6146 81.6271 51.2684Z" fill="#37474F"/>
<path d="M91.2958 61.295C91.2371 61.2941 91.1795 61.2787 91.1283 61.2501L84.8196 57.6055C84.7422 57.561 84.6855 57.4877 84.6621 57.4015C84.6388 57.3152 84.6506 57.2233 84.695 57.1458C84.7394 57.0683 84.8128 57.0117 84.899 56.9883C84.9852 56.9649 85.0772 56.9768 85.1547 57.0212L91.4756 60.6617C91.5403 60.6988 91.591 60.7563 91.6198 60.8252C91.6485 60.894 91.6538 60.9705 91.6347 61.0426C91.6156 61.1148 91.5733 61.1786 91.5142 61.2243C91.4551 61.2699 91.3827 61.2948 91.308 61.295H91.2958Z" fill="#5D9FD1"/>
<path d="M85.8975 53.0536V53.4622L86.0691 53.5602C86.3551 53.705 86.5996 53.92 86.7797 54.1852C86.9598 54.4503 87.0696 54.7569 87.0988 55.0761C87.0988 55.7298 86.6697 55.8933 86.0037 55.5214C85.5866 55.2583 85.2256 54.9153 84.9414 54.5122L85.2519 54.0015C85.3949 54.3197 85.6243 54.5915 85.9139 54.786C86.1345 54.9126 86.253 54.8636 86.2489 54.6471C86.2443 54.5412 86.2106 54.4387 86.1515 54.3507C86.0924 54.2628 86.0101 54.1928 85.9139 54.1486L85.1743 53.74V51.9463L86.9803 52.9882V53.6991L85.8975 53.0536Z" fill="#37474F"/>
<path d="M89.7464 56.0978C89.7464 57.103 89.3133 57.4094 88.5492 56.9681C88.161 56.739 87.8434 56.4072 87.6315 56.0093C87.4196 55.6114 87.3215 55.1628 87.348 54.7127C87.348 53.7117 87.7566 53.4012 88.5492 53.8506C88.9336 54.0817 89.248 54.4128 89.4588 54.8085C89.6697 55.2043 89.7691 55.65 89.7464 56.0978ZM88.1529 55.1785C88.1529 55.8363 88.2632 56.1428 88.5615 56.3103C88.8598 56.4778 88.9456 56.2858 88.9456 55.6321C88.9456 54.9783 88.8353 54.6678 88.5615 54.5084C88.2877 54.3491 88.1529 54.5248 88.1529 55.1785Z" fill="#37474F"/>
<path d="M92.4299 57.6457C92.4299 58.6549 91.9968 58.9614 91.2327 58.5201C90.8409 58.2921 90.5192 57.9607 90.303 57.5622C90.0869 57.1637 89.9844 56.7134 90.007 56.2606C90.007 55.2595 90.4156 54.949 91.2327 55.3985C91.6171 55.6295 91.9315 55.9606 92.1423 56.3564C92.3532 56.7522 92.4526 57.1978 92.4299 57.6457ZM90.8364 56.7264C90.8364 57.3842 90.9467 57.6947 91.245 57.8582C91.5433 58.0216 91.6291 57.8336 91.6291 57.1799C91.6291 56.5262 91.5187 56.2197 91.245 56.0604C90.9712 55.901 90.8364 56.0726 90.8364 56.71V56.7264Z" fill="#37474F"/>
<path d="M100.333 66.4308C100.274 66.4303 100.216 66.4134 100.165 66.3817L93.8567 62.7412C93.8184 62.7192 93.7847 62.6899 93.7577 62.6549C93.7307 62.6199 93.7108 62.5799 93.6992 62.5372C93.6877 62.4945 93.6846 62.45 93.6903 62.4061C93.6959 62.3622 93.7101 62.3199 93.7321 62.2815C93.7541 62.2432 93.7835 62.2095 93.8185 62.1825C93.8535 62.1555 93.8935 62.1356 93.9361 62.124C93.9788 62.1125 94.0234 62.1094 94.0672 62.1151C94.1111 62.1207 94.1534 62.1349 94.1918 62.1569L100.5 65.7975C100.565 65.8346 100.616 65.892 100.645 65.9609C100.673 66.0298 100.679 66.1062 100.66 66.1784C100.64 66.2505 100.598 66.3144 100.539 66.36C100.48 66.4056 100.408 66.4305 100.333 66.4308Z" fill="#5D9FD1"/>
<path d="M94.4408 60.2615V57.9366L93.9668 57.6628V56.9355L95.2293 57.6669V60.7354L94.4408 60.2615Z" fill="#37474F"/>
<path d="M96.5458 59.1209V59.5295L96.7174 59.6276C97.0032 59.7736 97.2475 59.9895 97.4275 60.2553C97.6075 60.521 97.7174 60.828 97.747 61.1476C97.747 61.7972 97.3384 61.9647 96.652 61.5929C96.2349 61.3296 95.875 60.9849 95.5938 60.5796L95.9043 60.073C96.0471 60.3901 96.2748 60.6615 96.5621 60.8575C96.7828 60.9841 96.9053 60.9351 96.9012 60.7185C96.8961 60.6118 96.8618 60.5084 96.802 60.4198C96.7422 60.3312 96.6592 60.2607 96.5621 60.216L95.8226 59.8074V58.0137L97.6285 59.0556V59.7624L96.5458 59.1209Z" fill="#37474F"/>
<path d="M100.395 62.1656C100.395 63.1707 99.9619 63.4771 99.1978 63.0358C98.817 62.8039 98.5059 62.4734 98.2973 62.0793C98.0888 61.6852 97.9905 61.2421 98.0129 60.7968C98.0129 59.7916 98.4215 59.4811 99.2141 59.9306C99.5933 60.163 99.9029 60.4931 100.111 60.8863C100.318 61.2795 100.417 61.7214 100.395 62.1656ZM98.8015 61.2462C98.8015 61.9 98.9118 62.2105 99.2101 62.3739C99.5083 62.5374 99.6186 62.3535 99.6186 61.6957C99.6186 61.0378 99.5083 60.7355 99.2101 60.5761C98.9118 60.4168 98.8015 60.5884 98.8015 61.2462Z" fill="#37474F"/>
<path d="M51.9268 26.4138C51.9268 27.1451 51.559 27.4066 50.9911 27.0798C50.7371 26.9286 50.5337 26.7053 50.4068 26.4383V27.5619L49.6387 27.1206V23.8887L50.4068 24.3299V24.6078C50.5417 24.4893 50.7378 24.4934 50.9707 24.6078C51.2723 24.8008 51.5188 25.0685 51.6864 25.385C51.8539 25.7014 51.9367 26.0558 51.9268 26.4138ZM51.1505 25.9439C51.1558 25.7987 51.1246 25.6545 51.0596 25.5245C50.9946 25.3946 50.898 25.2831 50.7786 25.2002C50.558 25.0695 50.4068 25.2002 50.4068 25.5149C50.4018 25.66 50.4332 25.8041 50.4982 25.9339C50.5631 26.0638 50.6595 26.1754 50.7786 26.2585C51.0238 26.3892 51.1505 26.2585 51.1505 25.9439Z" fill="#37474F"/>
<path d="M52.9936 26.201C53.1407 26.0253 53.3614 26.0048 53.6433 26.1642V26.9814C53.2347 26.6994 52.9936 26.7444 52.9936 27.0917V28.2276L52.25 27.7659V25.3838L53.0141 25.8251L52.9936 26.201Z" fill="#37474F"/>
<path d="M56.0461 28.779C56.0461 29.5145 55.5967 29.7392 54.902 29.3388C54.5654 29.1494 54.283 28.8768 54.082 28.5469C53.8809 28.2171 53.768 27.8412 53.7539 27.4552C53.7539 26.7157 54.2074 26.495 54.902 26.8954C55.2385 27.0847 55.5204 27.3574 55.7208 27.6874C55.9212 28.0173 56.0332 28.3932 56.0461 28.779ZM54.5261 27.9087C54.5198 28.0551 54.551 28.2006 54.6168 28.3315C54.6826 28.4624 54.7808 28.5743 54.902 28.6565C55.1268 28.7831 55.2739 28.6565 55.2739 28.3418C55.28 28.1965 55.2491 28.0521 55.184 27.922C55.119 27.7919 55.022 27.6805 54.902 27.5982C54.6732 27.4634 54.5261 27.5941 54.5261 27.9087Z" fill="#37474F"/>
<path d="M56.4561 27.7291C56.4561 27.2143 56.7993 27.1121 57.2733 27.3941C57.4225 27.4825 57.5598 27.5896 57.6819 27.7128L57.6533 28.3951C57.591 28.3069 57.5118 28.2319 57.4204 28.1745C57.2896 28.0927 57.2038 28.1213 57.2038 28.2725V28.3502L57.6124 28.5953V29.1673L57.2038 28.9181V30.6423L56.4439 30.2052V28.4809L56.166 28.3175V27.7495L56.4439 27.913L56.4561 27.7291ZM57.8617 27.9538C57.8617 27.6882 58.0251 27.5943 58.2702 27.7291C58.3908 27.7986 58.4917 27.8978 58.5632 28.0172C58.6347 28.1366 58.6745 28.2723 58.6788 28.4114C58.6788 28.677 58.5154 28.771 58.2702 28.6403C58.1491 28.5704 58.0479 28.4706 57.9764 28.3504C57.9048 28.2302 57.8653 28.0936 57.8617 27.9538ZM58.6339 29.0815V31.4636L57.8698 31.0182V28.6403L58.6339 29.0815Z" fill="#37474F"/>
<path d="M59.1152 31.7414V28.4727L59.8793 28.9262V32.1949L59.1152 31.7414Z" fill="#37474F"/>
<path d="M62.3678 32.6401L60.9785 31.8229C61.0025 31.9438 61.0511 32.0585 61.1214 32.1598C61.1917 32.261 61.2822 32.3466 61.3871 32.4113C61.4536 32.455 61.5302 32.481 61.6096 32.4867C61.689 32.4925 61.7686 32.4777 61.8407 32.444L62.2493 33.1263C62.0327 33.2775 61.7222 33.2489 61.334 33.0242C61.0039 32.8389 60.7277 32.5707 60.5328 32.2461C60.3379 31.9215 60.231 31.5518 60.2227 31.1733C60.2227 30.4255 60.6598 30.1926 61.3095 30.5685C61.6617 30.7807 61.9474 31.0871 62.1345 31.4532C62.3215 31.8193 62.4023 32.2304 62.3678 32.6401ZM61.6119 31.7861C61.6147 31.6703 61.5876 31.5556 61.5332 31.4533C61.4788 31.3509 61.399 31.2643 61.3013 31.2019C61.1256 31.0997 61.0031 31.2019 60.9663 31.4102L61.6119 31.7861Z" fill="#37474F"/>
<path d="M12.8867 139.434L13.1441 143.193H17.2382L17.3158 138.298L12.8867 139.434Z" fill="#FFA8A7"/>
<path d="M1.00195 142.372V146.176C1.00195 146.176 1.41054 146.993 3.25737 146.993C5.10419 146.993 4.81818 145.224 4.81818 145.224L5.03473 142.679L1.00195 142.372Z" fill="#FFA8A7"/>
<path d="M18.7458 98.4688L18.1901 138.678C18.1901 138.678 16.233 141.154 11.8815 139.569L11.0643 121.288L9.20117 99.5229L18.7458 98.4688Z" fill="#263238"/>
<path opacity="0.3" d="M18.7458 98.4688L18.1901 138.678C18.1901 138.678 16.233 141.154 11.8815 139.569L11.0643 121.288L9.20117 99.5229L18.7458 98.4688Z" fill="black"/>
<path d="M10.7819 117.856L12.3386 105.521C12.3386 105.521 15.9464 103.8 16.923 99.0322L10.1772 99.4163L9.21289 99.5225L10.7819 117.856Z" fill="#436374"/>
<path opacity="0.5" d="M10.7819 117.856L12.3386 105.521C12.3386 105.521 15.9464 103.8 16.923 99.0322L10.1772 99.4163L9.21289 99.5225L10.7819 117.856Z" fill="black"/>
<path d="M2.65583 98.4199L1.68747 119.806C1.68747 119.806 0 134.989 0 142.711C0.898623 143.194 1.88718 143.486 2.9038 143.568C3.92043 143.651 4.94323 143.524 5.90821 143.193L9.21369 120.802L11.9308 104.757C11.9308 104.757 16.552 103.433 17.7328 98.71L2.65583 98.4199Z" fill="#263238"/>
<path opacity="0.3" d="M2.65583 98.4199L1.68747 119.806C1.68747 119.806 0 134.989 0 142.711C0.898623 143.194 1.88718 143.486 2.9038 143.568C3.92043 143.651 4.94323 143.524 5.90821 143.193L9.21369 120.802L11.9308 104.757C11.9308 104.757 16.552 103.433 17.7328 98.71L2.65583 98.4199Z" fill="black"/>
<path d="M14.7422 74.4355L21.5942 74.4641C22.0314 75.296 22.2916 76.2094 22.3584 77.1468C22.4252 78.0841 22.2972 79.0252 21.9824 79.9106L16.9894 80.0414L14.7422 74.4355Z" fill="#1A659E"/>
<path d="M8.04035 74.6028C8.04035 74.6028 5.37634 74.9379 4.55099 75.1544C4.00413 75.2719 3.47132 75.4472 2.96158 75.6774C2.76988 75.7765 2.61063 75.9285 2.50272 76.1153C2.39481 76.3022 2.34277 76.516 2.35278 76.7316C2.47535 78.9543 2.85943 85.8799 2.8676 86.6358C2.8676 87.5347 2.65514 98.4032 2.65514 98.4032C2.65514 98.4032 3.1863 100.699 11.7136 100.699C16.2407 100.699 18.7495 98.4522 18.7495 98.4522C18.7495 98.4522 18.5615 86.6481 18.4471 83.8247C18.3327 81.0014 18.8189 75.371 14.7412 74.4271L11.6155 74.374L8.04035 74.6028Z" fill="#004E89"/>
<path d="M16.9405 61.3848C16.9405 61.3848 17.8272 62.2918 17.8272 64.678C17.8272 67.0642 15.8496 69.1316 15.8496 69.1316V61.4992L16.9405 61.3848Z" fill="#263238"/>
<path d="M16.9399 62.0227C17.3255 61.8022 17.6519 61.4915 17.891 61.1171C18.1301 60.7428 18.2749 60.3161 18.3128 59.8735C18.4354 58.3495 17.5446 58.897 17.2341 59.0277C16.9236 59.1585 16.0083 59.4976 16.0083 59.4976C16.0083 59.4976 16.8582 58.615 16.3515 58.0267C15.9797 57.5895 14.1779 58.9623 11.902 59.232C9.62616 59.5017 7.44021 59.4772 6.79872 61.516C6.79872 61.516 4.59642 61.9573 5.12759 65.8144C5.65876 69.6715 7.3544 72.0168 8.04492 71.9841L16.9399 62.0227Z" fill="#263238"/>
<path d="M12.8419 69.1318H8.04102V74.6029H12.8419V69.1318Z" fill="#FFA8A7"/>
<path d="M12.8423 73.9571C11.8109 73.8153 10.845 73.3697 10.0679 72.6769C9.2907 71.9842 8.73741 71.0757 8.47852 70.0673V68.4697H12.8423V73.9571Z" fill="#F28F8F"/>
<path d="M13.6796 60.5797C13.6796 60.5797 18.1945 60.7513 17.3814 68.0242C16.9974 71.4482 16.7154 73.3359 13.7899 73.3359C10.8644 73.3359 6.54155 71.1295 6.8194 65.254C7.09724 59.3784 13.6796 60.5797 13.6796 60.5797Z" fill="#FFA8A7"/>
<path d="M14.1328 66.5781V69.1318L15.6282 68.6701L14.1328 66.5781Z" fill="#F28F8F"/>
<path d="M11.9512 67.0199C11.9512 67.1225 11.9816 67.2228 12.0386 67.3082C12.0956 67.3935 12.1767 67.46 12.2715 67.4993C12.3663 67.5386 12.4707 67.5488 12.5713 67.5288C12.672 67.5088 12.7644 67.4594 12.837 67.3868C12.9096 67.3142 12.959 67.2218 12.979 67.1211C12.999 67.0205 12.9888 66.9161 12.9495 66.8213C12.9102 66.7265 12.8437 66.6454 12.7584 66.5884C12.673 66.5314 12.5727 66.501 12.4701 66.501C12.3325 66.501 12.2005 66.5556 12.1032 66.653C12.0058 66.7503 11.9512 66.8823 11.9512 67.0199Z" fill="#263238"/>
<path d="M15.3711 66.6556C15.3703 66.7594 15.4004 66.8611 15.4575 66.9477C15.5147 67.0344 15.5963 67.102 15.6921 67.1421C15.7878 67.1822 15.8933 67.1929 15.9951 67.1729C16.0969 67.1528 16.1905 67.1029 16.2639 67.0295C16.3373 66.9561 16.3872 66.8626 16.4072 66.7607C16.4273 66.6589 16.4166 66.5534 16.3765 66.4577C16.3364 66.362 16.2687 66.2803 16.1821 66.2232C16.0955 66.166 15.9938 66.1359 15.89 66.1367C15.8219 66.1367 15.7544 66.1502 15.6914 66.1762C15.6285 66.2023 15.5713 66.2405 15.5231 66.2887C15.4749 66.3369 15.4367 66.3941 15.4106 66.4571C15.3845 66.52 15.3711 66.5875 15.3711 66.6556Z" fill="#263238"/>
<path d="M16.5231 65.5731L15.5098 64.9684C15.5098 64.9684 15.8979 64.5598 16.2861 64.8091C16.3981 64.8976 16.4808 65.018 16.5231 65.1544C16.5654 65.2908 16.5654 65.4368 16.5231 65.5731Z" fill="#263238"/>
<path d="M12.2091 65.3971L11.2898 66.1448C11.2898 66.1448 11.0446 65.6382 11.4083 65.3563C11.5306 65.2822 11.6722 65.2466 11.815 65.2539C11.9577 65.2611 12.095 65.311 12.2091 65.3971Z" fill="#263238"/>
<path d="M13.8967 70.3453C13.8967 70.3453 12.0417 69.8672 12.4952 69.9694C12.4952 69.9694 12.4013 70.7049 13.0182 70.8479C13.1998 70.875 13.3853 70.8401 13.5446 70.7489C13.704 70.6578 13.828 70.5156 13.8967 70.3453Z" fill="#F28F8F"/>
<path d="M16.9408 62.0221C16.9408 62.0221 15.4984 63.3745 11.8007 63.0966C8.10298 62.8188 8.42576 63.8444 8.83027 65.5727C9.10811 66.7658 9.13262 69.9324 8.20921 68.3797H6.38281V64.7024C6.38281 63.4638 6.87485 62.2759 7.75068 61.4001C8.62651 60.5243 9.81438 60.0322 11.053 60.0322H14.8365L16.9408 62.0221Z" fill="#263238"/>
<path d="M8.25365 68.1758C8.25365 68.1758 8.06978 66.427 6.85627 66.3943C5.52018 66.3576 5.3404 67.6405 5.36083 68.0981C5.40578 69.2953 6.37822 70.5946 8.18827 70.6437L8.25365 68.1758Z" fill="#FFA8A7"/>
<path d="M6.79599 61.499C6.79599 61.499 5.86032 60.2732 6.46094 59.7421C7.06157 59.2109 7.33941 61.3764 7.33941 61.3764L6.79599 61.499Z" fill="#263238"/>
<path d="M6.87316 61.9082C6.87316 61.9082 5.32052 61.8877 5.28374 61.091C5.24697 60.2942 7.09788 61.3852 7.09788 61.3852L6.87316 61.9082Z" fill="#263238"/>
<path d="M8.04102 74.6031C8.04102 74.6031 9.48742 77.6838 12.1269 77.5327C14.7664 77.3815 12.8133 74.4355 12.8133 74.4355L8.04102 74.6031Z" fill="#FFA8A7"/>
<path d="M9.04733 81.6348L12.7246 86.3417C12.7246 86.3417 19.1885 87.1916 22.9067 87.8658V91.2448C22.9067 91.2448 12.5081 91.8618 10.3998 90.5298C8.29144 89.1978 5.03906 85.259 5.03906 85.259C5.03906 85.259 5.72958 81.8677 9.04733 81.6348Z" fill="#FFA8A7"/>
<path d="M2.90042 75.7101C2.90042 75.7101 4.62058 75.2116 6.69213 78.1289C7.53534 79.2513 8.32085 80.416 9.04561 81.6183C9.04561 81.6183 6.49601 82.1821 5.021 85.2425L1.80949 81.226C1.47594 80.8112 1.23644 80.3289 1.10752 79.8124C0.978606 79.296 0.963347 78.7577 1.0628 78.2347C1.16226 77.7118 1.37407 77.2167 1.68358 76.7836C1.99309 76.3506 2.39293 75.9898 2.85548 75.7264L2.90042 75.7101Z" fill="#1A659E"/>
<path d="M12.7077 86.3251C11.9755 86.6104 11.3707 87.15 11.0039 87.845C11.049 87.4262 11.1814 87.0214 11.3926 86.6569C11.6037 86.2924 11.8889 85.9761 12.2297 85.7285L12.7077 86.3251Z" fill="#F28F8F"/>
<path d="M21.606 74.4644L25.3406 74.3827C25.3406 74.3827 23.4038 66.8687 22.889 64.409C22.889 64.409 20.4375 61.5489 21.2547 59.8206C22.0718 58.0922 24.2333 54.7949 25.3406 54.7949C26.4478 54.7949 27.8166 56.2658 27.0199 59.0688C26.2231 61.8717 26.4683 62.8646 26.4683 62.8646C26.4683 62.8646 30.0761 70.403 30.6114 75.0283C31.1466 79.6535 27.8942 79.9109 21.9697 79.9109L21.606 74.4644Z" fill="#FFA8A7"/>
<path d="M79.4469 48.8697V110.767C79.4469 112.446 78.83 113.574 77.8861 113.942H77.8616L73.8574 116.136L73.8778 112.569L74.315 47.264L78.5439 45.1025C79.111 46.2792 79.4189 47.5639 79.4469 48.8697Z" fill="#E0E0E0"/>
<path d="M73.6445 116.496L73.6691 112.586L74.1144 47.1419L78.6416 44.8252L78.7315 45.0172C79.3095 46.2212 79.623 47.535 79.6508 48.8702V110.767C79.6508 112.459 79.0175 113.717 77.9633 114.134L73.6445 116.496ZM74.523 47.3911L74.0572 115.805L77.7958 113.762C78.707 113.407 79.2422 112.287 79.2422 110.772V48.8702C79.2172 47.6654 78.9475 46.4783 78.4495 45.3809L74.523 47.3911Z" fill="#E0E0E0"/>
<path d="M78.5474 45.1028L74.3145 47.2642L29.0509 20.9306L26.0273 19.1737L30.1868 16.8202L30.3053 16.7507C30.9713 16.3421 31.8457 16.3748 32.8058 16.9305L75.6546 41.6706C76.9376 42.5028 77.9445 43.6974 78.5474 45.1028Z" fill="#EBEBEB"/>
<path d="M74.315 47.4972L74.2211 47.4441L25.6152 19.1697L30.22 16.5711C30.9759 16.1135 31.9361 16.1625 32.9249 16.7468L75.7737 41.4869C77.0883 42.344 78.118 43.5729 78.7319 45.0171L78.8177 45.1928L74.315 47.4972ZM26.4406 19.1738L74.315 47.0314L78.2702 45.013C77.6904 43.7179 76.75 42.6171 75.5612 41.8424L32.7206 17.1023C31.9034 16.6283 31.1108 16.5507 30.4979 16.8816L30.3099 16.996L26.4406 19.1738Z" fill="#E0E0E0"/>
<path d="M71.5226 115.882L28.6738 91.1423C26.59 89.9165 24.8984 86.7091 24.8984 83.9348V22.107C24.8984 19.3286 26.59 18.0497 28.6738 19.2469L71.5226 43.987C73.6064 45.1882 75.298 48.4161 75.298 51.1945V113.03C75.298 115.809 73.6064 117.084 71.5226 115.882Z" fill="#FAFAFA"/>
<path d="M73.0233 116.537C72.457 116.519 71.9051 116.354 71.4216 116.059L28.5728 91.3184C26.4359 90.0926 24.6953 86.7708 24.6953 83.9352V22.1074C24.6953 20.5711 25.2101 19.3944 26.1009 18.8796C26.8527 18.4465 27.8047 18.5159 28.7771 19.0757L71.6259 43.8199C73.7628 45.0456 75.5034 48.3634 75.5034 51.2031V113.031C75.5034 114.563 74.9886 115.74 74.0938 116.259C73.7676 116.444 73.3983 116.54 73.0233 116.537ZM27.1755 19.0062C26.8708 19.0044 26.5709 19.0818 26.3052 19.2309C25.5452 19.6722 25.1039 20.7223 25.1039 22.0911V83.9352C25.1039 86.6401 26.7383 89.7944 28.7812 90.9629L71.63 115.703C72.4717 116.189 73.2644 116.263 73.8936 115.903C74.6577 115.462 75.1194 114.416 75.1194 113.043V51.2031C75.1194 48.4941 73.485 45.3398 71.4421 44.1713L28.5728 19.4312C28.1517 19.171 27.6702 19.0245 27.1755 19.0062Z" fill="#E0E0E0"/>
<path d="M79.4061 48.8088V110.706C79.4061 112.381 78.7891 113.513 77.8453 113.881H77.8208L73.8125 116.075L73.837 112.512L74.2824 47.1907L78.5113 45.0293C79.0772 46.2103 79.3824 47.4993 79.4061 48.8088Z" fill="#E0E0E0"/>
<path d="M73.6035 116.434L73.628 112.524L74.0734 47.0763L78.6006 44.7637L78.6904 44.9557C79.2685 46.1597 79.5819 47.4735 79.6098 48.8087V110.706C79.6098 112.398 78.9765 113.656 77.9182 114.073L73.6035 116.434ZM74.482 47.3133L74.0162 115.728L77.7548 113.685C78.6659 113.329 79.2012 112.21 79.2012 110.694V48.8087C79.1762 47.6039 78.9065 46.4167 78.4085 45.3194L74.482 47.3133Z" fill="#E0E0E0"/>
<path d="M78.5064 45.0417L74.2775 47.2031L29.0099 20.8695L25.9863 19.1126L30.1621 16.7591L30.2806 16.6855C30.9466 16.277 31.821 16.3137 32.7812 16.8694L75.63 41.5932C76.7658 42.2673 77.8159 43.5503 78.5064 45.0417Z" fill="#EBEBEB"/>
<path d="M74.2699 47.4357L74.176 47.3785L25.5742 19.1205L30.1872 16.5096C30.9472 16.0519 31.9074 16.101 32.8961 16.6853L75.7449 41.4254C77.0585 42.2836 78.088 43.5121 78.7031 44.9556L78.7889 45.1313L74.2699 47.4357ZM26.3955 19.1205L74.2822 46.9781L78.2373 44.9556C77.6564 43.6623 76.7161 42.5632 75.5284 41.789L32.6796 17.0407C31.8624 16.5627 31.0697 16.4891 30.4569 16.8201L30.2689 16.9345L26.3955 19.1205Z" fill="#E0E0E0"/>
<path d="M75.2548 51.1374V112.969C75.2548 114.424 74.7931 115.466 74.0536 115.956L73.8084 116.087C73.1669 116.393 72.362 116.328 71.4835 115.821L50.7721 103.862L41.0967 98.2764L28.6347 91.0811C26.5509 89.8554 24.8594 86.6479 24.8594 83.8695V22.0458C24.8594 20.6403 25.268 19.6229 25.9871 19.1122C26.1041 19.022 26.2335 18.9491 26.3712 18.8956C27.0004 18.6259 27.7849 18.7036 28.6347 19.1939L71.4835 43.934C72.7099 44.7323 73.6803 45.8671 74.2783 47.2027C74.8937 48.4248 75.2274 49.7693 75.2548 51.1374Z" fill="#FAFAFA"/>
<path d="M34.8534 61.8759C34.8738 61.9413 34.551 65.8923 35.499 67.4817L37.7503 68.9894L39.5808 64.9812L40.1487 62.5296L39.7401 61.5449L34.8534 61.8759Z" fill="#FFA8A7"/>
<path d="M34.0234 84.9897C35.3473 84.8059 39.094 82.5137 39.094 82.5137C39.094 82.5137 39.2902 76.7934 35.9561 76.0498L34.0234 84.9897Z" fill="#FFA8A7"/>
<path d="M37.2712 75.6045L35.0117 81.6434L37.6103 78.1091L37.2712 75.6045Z" fill="#F28F8F"/>
<path d="M46.3264 69.5771H45.3049C43.7399 69.5798 42.2278 70.1437 41.0433 71.1666L35.1719 76.2412C35.1719 76.2412 38.7021 78.6029 39.1107 82.509L44.0138 79.1177L46.3264 69.5771Z" fill="#5D9FD1"/>
<path d="M63.6916 92.0007L64.7662 95.723L59.5566 98.1745L60.4228 103.895L68.8521 101.08C70.1213 100.655 71.1767 99.7549 71.7968 98.5688C72.4169 97.3827 72.5535 96.0025 72.178 94.7178L70.7234 89.7412L63.6916 92.0007Z" fill="#FFA8A7"/>
<path d="M60.7781 101.885L61.5299 110.11L50.2773 103.613L60.7781 101.885Z" fill="#455A64"/>
<path d="M62.126 81.9006L60.9697 86.7138C60.3459 89.3068 60.1186 91.9794 60.2955 94.6405L60.7776 101.885C60.7776 101.885 57.5089 103.928 50.8121 103.928L41.1367 98.3382C41.243 96.4424 41.7537 87.6863 42.6076 80.6218C43.5678 72.6502 46.3258 69.5898 46.3258 69.5898C46.7875 69.5898 50.5874 69.8718 50.5874 69.8718L56.5283 70.2804L62.126 72.9444V81.9006Z" fill="#004E89"/>
<path opacity="0.3" d="M62.126 81.9006L60.9697 86.7138C60.3459 89.3068 60.1186 91.9794 60.2955 94.6405L60.7776 101.885C60.7776 101.885 57.5089 103.928 50.8121 103.928L41.1367 98.3382C41.243 96.4424 41.7537 87.6863 42.6076 80.6218C43.5678 72.6502 46.3258 69.5898 46.3258 69.5898C46.7875 69.5898 50.5874 69.8718 50.5874 69.8718L56.5283 70.2804L62.126 72.9444V81.9006Z" fill="black"/>
<path d="M73.011 116.537C72.4484 116.52 71.9002 116.355 71.4216 116.059L28.5728 91.3189C26.4359 90.0932 24.6953 86.7713 24.6953 83.9357V22.1079C24.6953 20.682 25.1243 19.5829 25.9211 19.0067C26.0548 18.9086 26.2003 18.8277 26.3542 18.7657C27.061 18.4633 27.9109 18.5695 28.8057 19.0803L71.6545 43.8204C72.9109 44.6417 73.9039 45.8078 74.5146 47.179C75.1419 48.4283 75.4825 49.8019 75.5116 51.1995V113.031C75.5116 114.519 75.054 115.638 74.2164 116.19L73.959 116.329C73.6634 116.471 73.3389 116.542 73.011 116.537ZM27.1795 19.0067C26.9424 19.0066 26.7077 19.0539 26.489 19.1457C26.3681 19.1946 26.2541 19.2592 26.1499 19.3377C25.4757 19.8321 25.1039 20.8168 25.1039 22.1079V83.9357C25.1039 86.6406 26.7383 89.7949 28.7812 90.9635L71.63 115.704C72.4227 116.165 73.1622 116.255 73.7669 115.965L73.9998 115.838C74.6903 115.381 75.0948 114.355 75.0948 113.031V51.1995C75.0661 49.8628 74.7394 48.5492 74.1387 47.3547C73.5598 46.0557 72.6176 44.9517 71.4257 44.1759L28.5728 19.4358C28.1543 19.1725 27.6736 19.0245 27.1795 19.0067Z" fill="#E0E0E0"/>
<path d="M58.8196 60.944C58.8196 60.944 63.3958 65.651 60.74 68.0371C59.9228 68.7644 55.653 67.8941 54.6438 66.6275C53.6346 65.3609 52.2617 60.9072 52.2617 60.9072L58.8196 60.944Z" fill="#455A64"/>
<path d="M22.8887 87.8494C23.4985 87.3569 23.9748 86.719 24.2738 85.9944C24.662 84.8994 24.9153 84.8013 25.3157 84.6338V86.1497C25.5943 86.5099 25.9427 86.8103 26.3401 87.0329C26.7374 87.2554 27.1756 87.3956 27.6283 87.4449C29.1442 87.5961 31.5671 87.4694 31.5099 88.3234C31.4527 89.1773 29.9818 91.4409 28.3393 91.4409C26.6967 91.4409 22.8887 91.2162 22.8887 91.2162V87.8494Z" fill="#FFA8A7"/>
<path d="M71.5226 43.9954L28.6738 19.2553C26.59 18.0296 24.8984 19.3289 24.8984 22.1154V29.1963L75.298 58.292V51.2029C75.298 48.4245 73.6064 45.1967 71.5226 43.9954Z" fill="white"/>
<path d="M75.5034 58.6476L24.6953 29.3354V22.1074C24.6953 20.5711 25.2101 19.3944 26.1009 18.8796C26.8527 18.4465 27.8047 18.5159 28.7771 19.0757L71.6259 43.8199C73.7628 45.0456 75.5034 48.3634 75.5034 51.2031V58.6476ZM25.1039 29.078L75.0948 57.9366V51.2031C75.0948 48.4941 73.4605 45.3398 71.4175 44.1713L28.5728 19.4312C27.7311 18.9449 26.9385 18.8755 26.3052 19.2309C25.5452 19.6722 25.1039 20.7223 25.1039 22.0911V29.078Z" fill="#E0E0E0"/>
<path d="M33.3045 29.0167C33.3045 30.5693 32.2177 31.1986 30.8734 30.4222C30.1621 29.9625 29.5694 29.3414 29.1434 28.6094C28.7174 27.8774 28.4702 27.0552 28.4219 26.2097C28.4219 24.6611 29.5128 24.0319 30.8734 24.8082C31.5813 25.2688 32.1704 25.8901 32.5929 26.6214C33.0153 27.3527 33.2592 28.1734 33.3045 29.0167Z" fill="#5D9FD1"/>
<path d="M53.3787 40.3672C53.3067 40.3665 53.2363 40.3467 53.1744 40.31L35.9074 30.3323C35.8606 30.3056 35.8195 30.2699 35.7865 30.2272C35.7536 30.1846 35.7294 30.1359 35.7153 30.0838C35.7013 30.0318 35.6976 29.9775 35.7047 29.9241C35.7117 29.8706 35.7292 29.8191 35.7562 29.7725C35.7832 29.726 35.8192 29.6853 35.862 29.6528C35.9048 29.6202 35.9536 29.5964 36.0056 29.5828C36.0576 29.5691 36.1118 29.5658 36.165 29.5731C36.2183 29.5805 36.2696 29.5982 36.316 29.6254L53.5912 39.5991C53.6699 39.6437 53.7315 39.7131 53.7665 39.7966C53.8015 39.88 53.8078 39.9727 53.7844 40.0601C53.7611 40.1475 53.7094 40.2247 53.6374 40.2795C53.5654 40.3344 53.4773 40.3638 53.3869 40.3631L53.3787 40.3672Z" fill="#5D9FD1"/>
<path d="M64.455 66.3535L65.6808 67.0603V66.6191C65.6808 66.5905 65.6808 66.5578 65.6808 66.5251C65.6808 66.4924 65.6808 66.4679 65.6808 66.4393C65.7257 65.8591 66.167 65.6221 66.7063 65.9449C66.9509 66.0902 67.1625 66.2851 67.3274 66.5169C67.45 65.7243 68.0955 65.4423 68.8719 65.8918C69.3286 66.1884 69.7089 66.5888 69.9815 67.0603C70.2542 67.5317 70.4116 68.061 70.4408 68.6048V69.5446C70.4392 69.6194 70.4581 69.6934 70.4956 69.7582C70.533 69.8231 70.5876 69.8764 70.6533 69.9123L71.3806 70.3413C71.5388 70.4341 71.6699 70.5666 71.7609 70.7257C71.8519 70.8849 71.8997 71.065 71.8995 71.2484C71.8997 71.3245 71.8798 71.3993 71.8418 71.4652C71.8038 71.5312 71.7492 71.586 71.6833 71.6241C71.6175 71.6622 71.5427 71.6823 71.4666 71.6823C71.3905 71.6823 71.3158 71.6623 71.2499 71.6243L64.4714 67.71C64.2919 67.6054 64.1428 67.4558 64.0389 67.2759C63.935 67.0961 63.8798 66.8922 63.8789 66.6844C63.8792 66.6172 63.8971 66.5511 63.931 66.493C63.9648 66.4348 64.0133 66.3866 64.0717 66.3531C64.13 66.3196 64.1961 66.3019 64.2634 66.302C64.3307 66.3021 64.3967 66.3198 64.455 66.3535Z" fill="#E6E6E6"/>
<path d="M31.4987 42.1779L33.0432 43.0563V42.5129C33.0411 42.4734 33.0411 42.4339 33.0432 42.3944C33.0411 42.3577 33.0411 42.3208 33.0432 42.2841C33.0963 41.5609 33.6438 41.283 34.3139 41.6712C34.6168 41.8558 34.8761 42.1039 35.0739 42.3985C35.225 41.4179 36.0259 41.0624 36.9942 41.6222C37.5623 41.9914 38.0353 42.4895 38.3746 43.0759C38.714 43.6624 38.9102 44.3206 38.9473 44.9971V46.1698C38.9473 46.2622 38.9714 46.3531 39.0173 46.4333C39.0631 46.5136 39.1291 46.5805 39.2088 46.6274L40.1159 47.1586C40.3124 47.274 40.4754 47.4387 40.5886 47.6365C40.7019 47.8344 40.7615 48.0583 40.7614 48.2863C40.7621 48.3821 40.7372 48.4763 40.6893 48.5592C40.6415 48.6422 40.5724 48.7109 40.4892 48.7584C40.406 48.8058 40.3116 48.8302 40.2159 48.8291C40.1201 48.828 40.0263 48.8014 39.9442 48.7521L31.515 43.8817C31.2907 43.7531 31.1045 43.5674 30.9753 43.3435C30.8461 43.1196 30.7786 42.8654 30.7796 42.6069C30.7766 42.5214 30.7967 42.4367 30.8377 42.3616C30.8786 42.2865 30.939 42.2238 31.0124 42.18C31.0859 42.1361 31.1697 42.1128 31.2553 42.1125C31.3408 42.1121 31.4249 42.1347 31.4987 42.1779Z" fill="#E6E6E6"/>
<path d="M49.3009 63.0647C52.099 63.0647 54.3674 60.7963 54.3674 57.9981C54.3674 55.2 52.099 52.9316 49.3009 52.9316C46.5027 52.9316 44.2344 55.2 44.2344 57.9981C44.2344 60.7963 46.5027 63.0647 49.3009 63.0647Z" fill="#263238"/>
<path d="M50.5874 69.8594C50.5874 69.8594 48.4341 73.5367 51.7846 73.8922C55.135 74.2476 56.5324 70.2721 56.5324 70.2721L50.5874 69.8594Z" fill="#FFA8A7"/>
<path d="M50.5879 69.859L56.5329 70.2717V63.4932H50.5879V69.859Z" fill="#FFA8A7"/>
<path d="M50.5879 69.4755C51.8647 69.2994 53.0602 68.7473 54.0222 67.8894C54.9841 67.0315 55.669 65.9067 55.9894 64.6582V62.6807H50.5879V69.4755Z" fill="#F28F8F"/>
<path d="M49.55 52.9066C49.55 52.9066 43.9524 53.1191 44.9616 62.1285C45.4355 66.3656 45.7788 68.7068 49.4111 68.7068C53.0435 68.7068 58.4001 65.9774 58.0446 58.7004C57.6891 51.4234 49.55 52.9066 49.55 52.9066Z" fill="#FFA8A7"/>
<path d="M48.9857 60.335V63.4934L47.1348 62.9254L48.9857 60.335Z" fill="#F28F8F"/>
<path d="M51.6857 60.8788C51.6865 61.0068 51.6492 61.1322 51.5786 61.239C51.5079 61.3458 51.4072 61.4292 51.289 61.4785C51.1709 61.5279 51.0408 61.541 50.9152 61.5162C50.7895 61.4915 50.6741 61.4299 50.5836 61.3394C50.4931 61.2488 50.4315 61.1334 50.4067 61.0078C50.382 60.8822 50.3951 60.7521 50.4445 60.6339C50.4938 60.5158 50.5772 60.415 50.684 60.3444C50.7908 60.2738 50.9161 60.2365 51.0442 60.2373C51.2143 60.2373 51.3775 60.3049 51.4978 60.4252C51.6181 60.5455 51.6857 60.7087 51.6857 60.8788Z" fill="#263238"/>
<path d="M47.4532 60.4286C47.454 60.5565 47.4169 60.6817 47.3464 60.7884C47.276 60.8951 47.1754 60.9784 47.0576 61.0279C46.9397 61.0774 46.8097 61.0908 46.6842 61.0663C46.5587 61.0419 46.4433 60.9807 46.3526 60.8906C46.262 60.8005 46.2001 60.6855 46.1748 60.5601C46.1496 60.4348 46.1621 60.3048 46.2109 60.1866C46.2596 60.0684 46.3423 59.9673 46.4486 59.8962C46.5548 59.8251 46.6798 59.7871 46.8077 59.7871C46.9782 59.7871 47.1418 59.8546 47.2627 59.9747C47.3837 60.0949 47.4522 60.2581 47.4532 60.4286Z" fill="#263238"/>
<path d="M46.0241 59.0887L47.2826 58.341C47.2826 58.341 46.8004 57.8384 46.3183 58.1407C46.179 58.2503 46.0762 58.3996 46.0237 58.5689C45.9711 58.7382 45.9713 58.9195 46.0241 59.0887Z" fill="#263238"/>
<path d="M51.3809 58.872L52.5167 59.7954C52.5167 59.7954 52.8232 59.1703 52.3737 58.823C52.2225 58.7305 52.0468 58.6857 51.8697 58.6944C51.6926 58.7032 51.5223 58.7651 51.3809 58.872Z" fill="#263238"/>
<path d="M49.2793 64.9972C49.2793 64.9972 51.5756 64.4047 51.0117 64.5354C51.0117 64.5354 51.1302 65.4466 50.3661 65.6223C50.1406 65.6606 49.9087 65.6191 49.7104 65.5051C49.512 65.391 49.3596 65.2114 49.2793 64.9972Z" fill="#F28F8F"/>
<path d="M45.5098 54.6683C45.5098 54.6683 47.2953 56.3395 51.8756 55.9963C56.4559 55.653 56.0555 56.9237 55.5529 59.0648C55.2097 60.5439 55.177 64.4622 56.317 62.5419H58.5846V58.0188C58.5868 57.2576 58.4387 56.5035 58.1489 55.7997C57.8591 55.0959 57.4333 54.4561 56.8959 53.9171C56.3584 53.3782 55.7199 52.9505 55.0168 52.6588C54.3138 52.367 53.5602 52.2168 52.799 52.2168H48.1166L45.5098 54.6683Z" fill="#263238"/>
<path d="M44.6719 56.0936C46.6413 55.7423 53.5342 55.1171 59.1809 61.8752C59.1809 61.8752 60.4067 61.1111 60.2922 57.5441C60.1778 53.9771 57.1257 51.5583 55.1358 50.6267C53.146 49.6951 45.8609 48.0976 44.2347 55.6279C44.2259 55.6886 44.2309 55.7505 44.2493 55.8091C44.2678 55.8676 44.2991 55.9213 44.3411 55.966C44.3831 56.0108 44.4347 56.0455 44.4919 56.0676C44.5492 56.0897 44.6107 56.0986 44.6719 56.0936Z" fill="#455A64"/>
<path d="M56.2676 62.312C56.2676 62.312 56.4964 60.1465 58 60.1056C59.6344 60.0566 59.8754 61.6501 59.8509 62.2139C59.7937 63.7012 58.5884 65.3069 56.3493 65.3682L56.2676 62.312Z" fill="#FFA8A7"/>
<path d="M46.3789 54.3004C46.3789 54.3004 49.8111 54.2637 51.282 54.709C51.282 54.709 51.6415 52.568 49.4188 52.4659C47.6292 52.3882 47.1634 52.6252 46.3789 54.3004Z" fill="#263238"/>
<path d="M62.1262 72.9404L62.4531 73.0916C63.4316 73.5393 64.3082 74.1824 65.0291 74.9813C65.75 75.7802 66.3 76.7181 66.6452 77.7373L70.7311 89.7702C68.7013 91.4463 66.0984 92.2656 63.4746 92.0543L62.8208 92.0011L59.7932 81.8926C59.1722 79.9073 59.2413 77.7702 59.9893 75.8292C60.4178 74.6855 61.1581 73.6848 62.1262 72.9404Z" fill="#5D9FD1"/>
<path d="M35.0116 81.635L39.5838 69.4304L35.4979 67.4814C35.4979 67.4814 27.8613 77.6063 27.8613 81.1774C27.8613 84.7484 30.8359 85.4185 34.0229 84.9895L35.0116 81.635Z" fill="#FFA8A7"/>
<path d="M39.7194 61.8184C39.7194 61.8184 40.1975 55.5057 40.0708 55.0726C39.9441 54.6395 38.6285 54.566 38.1954 57.6835C37.9587 59.2114 37.81 60.7516 37.75 62.2965L39.7194 61.8184Z" fill="#FFA8A7"/>
<path d="M40.8881 62.3776C40.8881 62.3776 43.2865 56.7718 43.3069 56.3346C43.3273 55.8974 42.1506 55.4275 40.7859 58.1324C40.0941 59.4575 39.4802 60.8217 38.9473 62.2183L40.8881 62.3776Z" fill="#FFA8A7"/>
<path d="M40.8871 62.5332L38.9422 62.3534C38.9191 62.3514 38.8968 62.3441 38.8769 62.3321C38.8571 62.32 38.8403 62.3036 38.8278 62.284C38.8177 62.2637 38.8125 62.2413 38.8125 62.2186C38.8125 62.1959 38.8177 62.1736 38.8278 62.1532C38.8278 62.1206 39.122 61.3361 39.8697 59.7221C39.8761 59.7007 39.8871 59.681 39.9018 59.6642C39.9166 59.6474 39.9347 59.634 39.9551 59.6248C39.9755 59.6157 39.9977 59.6111 40.02 59.6113C40.0424 59.6116 40.0644 59.6166 40.0846 59.6261C40.1048 59.6356 40.1227 59.6494 40.1372 59.6665C40.1516 59.6835 40.1621 59.7035 40.1681 59.7251C40.1741 59.7466 40.1753 59.7691 40.1718 59.7912C40.1683 59.8133 40.16 59.8343 40.1476 59.8529C39.6082 61.001 39.31 61.7447 39.1874 62.0674L40.9321 62.2268C40.9684 62.2327 41.0014 62.2514 41.0253 62.2795C41.0491 62.3076 41.0622 62.3432 41.0622 62.38C41.0622 62.4168 41.0491 62.4525 41.0253 62.4805C41.0014 62.5086 40.9684 62.5273 40.9321 62.5332H40.8871Z" fill="#F28F8F"/>
<path d="M36.435 59.9797C36.435 59.9797 34.8783 59.2851 34.4819 60.4332C34.0856 61.5814 34.6617 64.3475 35.4585 64.8256C36.2552 65.3036 36.9825 64.6335 36.5494 63.228C36.295 62.1637 36.2561 61.0593 36.435 59.9797Z" fill="#FFA8A7"/>
<path d="M35.9563 65.1367C35.7518 65.1318 35.5525 65.0711 35.3802 64.961C34.4853 64.4257 33.9378 61.5411 34.3383 60.3848C34.3555 60.3515 34.3841 60.3255 34.4189 60.3117C34.4538 60.2979 34.4924 60.2972 34.5278 60.3096C34.5631 60.322 34.5927 60.3468 34.6112 60.3794C34.6297 60.412 34.6358 60.4502 34.6283 60.4869C34.2443 61.5942 34.8245 64.2705 35.5395 64.6995C35.6306 64.7651 35.7365 64.8069 35.8478 64.8212C35.9591 64.8354 36.0723 64.8217 36.1769 64.7812C36.2799 64.7162 36.3649 64.6264 36.4241 64.5201C36.4834 64.4137 36.515 64.2941 36.516 64.1724C36.5175 64.1523 36.5231 64.1327 36.5325 64.1148C36.5418 64.097 36.5548 64.0812 36.5705 64.0686C36.5862 64.0559 36.6044 64.0467 36.6238 64.0413C36.6433 64.036 36.6636 64.0347 36.6836 64.0376C36.7038 64.0391 36.7236 64.0447 36.7416 64.054C36.7597 64.0633 36.7756 64.0762 36.7886 64.0918C36.8016 64.1074 36.8113 64.1255 36.8171 64.145C36.8229 64.1645 36.8247 64.1849 36.8225 64.2051C36.8166 64.378 36.767 64.5466 36.6784 64.6952C36.5898 64.8437 36.4651 64.9675 36.3158 65.0549C36.2038 65.1092 36.0808 65.1372 35.9563 65.1367Z" fill="#F28F8F"/>
<path d="M37.9858 59.7011C37.9858 59.7011 36.429 59.0065 36.0327 60.1505C35.6364 61.2946 36.2125 64.0689 37.0092 64.5469C37.806 65.025 38.5333 64.3549 38.0961 62.9494C37.8443 61.8846 37.8068 60.7804 37.9858 59.7011Z" fill="#FFA8A7"/>
<path d="M37.5095 64.8535C37.3051 64.8478 37.1061 64.7871 36.9334 64.6778C36.0345 64.1425 35.4911 61.2579 35.8915 60.1016C35.8974 60.0825 35.9072 60.0648 35.9203 60.0496C35.9333 60.0344 35.9493 60.022 35.9673 60.0132C35.9852 60.0044 36.0048 59.9994 36.0248 59.9984C36.0448 59.9975 36.0648 60.0006 36.0835 60.0076C36.1028 60.014 36.1205 60.0242 36.1358 60.0377C36.151 60.0511 36.1634 60.0674 36.1721 60.0857C36.1809 60.104 36.1859 60.1239 36.1868 60.1442C36.1877 60.1645 36.1846 60.1847 36.1775 60.2037C35.7975 61.311 36.3736 63.9873 37.0886 64.4163C37.1916 64.4949 37.3163 64.5399 37.4457 64.545C37.5752 64.5501 37.703 64.5152 37.8118 64.4449C38.0407 64.2651 38.1959 63.7871 37.9508 62.9944C37.691 61.9059 37.6521 60.7764 37.8364 59.6726C37.8393 59.6527 37.8462 59.6337 37.8568 59.6166C37.8673 59.5995 37.8813 59.5848 37.8977 59.5733C37.9142 59.5619 37.9328 59.5539 37.9525 59.5498C37.9721 59.5458 37.9924 59.5459 38.0121 59.55C38.0519 59.557 38.0874 59.5793 38.1111 59.6121C38.1347 59.6449 38.1447 59.6857 38.1387 59.7257C37.965 60.782 38.001 61.8622 38.245 62.9045C38.4942 63.7217 38.4002 64.3714 37.9998 64.686C37.8597 64.7952 37.6871 64.8542 37.5095 64.8535Z" fill="#F28F8F"/>
<path d="M39.5842 69.4308C39.5842 69.4308 41.574 66.8607 42.0725 64.9772C42.571 63.0936 41.9009 61.8882 40.8263 61.7084C39.7517 61.5287 36.5035 61.6308 37.4269 62.7381C38.3503 63.8454 39.3309 63.0813 39.7517 63.3796C39.7517 63.3796 36.483 65.0139 36.9692 68.1805L39.5842 69.4308Z" fill="#FFA8A7"/>
<path d="M37.2174 66.1943C37.1986 66.1985 37.179 66.1985 37.1602 66.1943C37.1412 66.1871 37.1238 66.1762 37.1091 66.1621C37.0944 66.148 37.0827 66.1311 37.0747 66.1124C37.0667 66.0938 37.0626 66.0736 37.0625 66.0533C37.0624 66.033 37.0665 66.0128 37.0744 65.9941C37.5459 64.9536 38.3169 64.0773 39.289 63.4772H39.1459C38.8092 63.557 38.4567 63.5386 38.1301 63.4242C37.8035 63.3098 37.5165 63.1041 37.3032 62.8316C37.2061 62.7459 37.1404 62.6301 37.1168 62.5028C37.0931 62.3754 37.1127 62.2438 37.1725 62.1288C37.6056 61.377 40.1388 61.4301 40.8498 61.5527C41.0358 61.5843 41.2152 61.6464 41.3809 61.7366C41.4019 61.7443 41.4209 61.7564 41.4368 61.7721C41.4526 61.7878 41.4648 61.8068 41.4727 61.8277C41.4805 61.8486 41.4838 61.8709 41.4822 61.8932C41.4807 61.9154 41.4744 61.9371 41.4637 61.9567C41.453 61.9763 41.4382 61.9933 41.4203 62.0067C41.4025 62.02 41.3819 62.0294 41.3601 62.0341C41.3383 62.0388 41.3157 62.0387 41.2939 62.0339C41.2722 62.0291 41.2517 62.0197 41.2338 62.0063C41.0978 61.9312 40.95 61.8801 40.7967 61.8551C39.861 61.6957 37.7159 61.7938 37.438 62.2841C37.4176 62.3168 37.3604 62.4189 37.5402 62.6355C37.7218 62.8682 37.9674 63.0428 38.2469 63.1379C38.5263 63.2329 38.8274 63.2444 39.1133 63.1707C39.3558 63.1089 39.6126 63.1365 39.8365 63.2484C39.8572 63.2648 39.8735 63.2861 39.8842 63.3103C39.8949 63.3345 39.8995 63.3609 39.8978 63.3873C39.8954 63.4129 39.8866 63.4375 39.8724 63.4589C39.8581 63.4803 39.8387 63.4978 39.816 63.5099C38.7443 64.089 37.8854 64.9951 37.3645 66.0962C37.3539 66.1263 37.3339 66.1521 37.3073 66.1698C37.2808 66.1875 37.2492 66.1961 37.2174 66.1943Z" fill="#F28F8F"/>
<path d="M60.144 91.7969C60.099 91.8255 57.864 93.1248 51.7883 93.1248C48.0717 93.0974 44.4799 91.7803 41.6267 89.3984C41.5654 90.1543 41.5082 90.8939 41.4551 91.6007C43.0404 92.8265 46.7014 95.278 51.2122 95.278C57.2838 95.278 60.1235 93.9011 60.1235 93.9011C60.1113 93.1942 60.1154 92.4955 60.144 91.7969Z" fill="#5D9FD1"/>
<path d="M22.4648 60.2976C22.4648 60.2976 22.6324 60.032 24.2299 59.0146C25.0839 58.4753 25.5415 57.1637 26.1953 57.3067C26.849 57.4497 26.8122 59.7215 25.0635 60.604C25.0635 60.604 25.423 62.8635 23.9031 63.742L22.4648 60.2976Z" fill="#FFA8A7"/>
<path d="M23.9804 63.8739L23.8292 63.6083C25.2389 62.7911 24.9161 60.6501 24.912 60.6297C24.9052 60.5972 24.9096 60.5634 24.9244 60.5337C24.9392 60.5041 24.9637 60.4803 24.9937 60.4663C25.452 60.2327 25.8315 59.8696 26.085 59.4221C26.3386 58.9746 26.4549 58.4625 26.4197 57.9493C26.387 57.6756 26.2849 57.4836 26.1623 57.459C25.8844 57.3977 25.5984 57.7532 25.2716 58.17C25.0084 58.5469 24.6838 58.877 24.3114 59.1465C22.82 60.0985 22.5994 60.3723 22.5912 60.3723L22.3379 60.2048C22.3665 60.1557 22.5994 59.8615 24.1479 58.8768C24.4898 58.6248 24.7879 58.3184 25.0305 57.9698C25.4064 57.4917 25.7578 57.0423 26.2277 57.1526C26.4892 57.2098 26.6689 57.4836 26.7221 57.9003C26.7683 58.459 26.6517 59.0191 26.3863 59.513C26.1209 60.0068 25.7181 60.4131 25.2266 60.6828C25.2838 61.169 25.3941 63.0608 23.9804 63.8739Z" fill="#F28F8F"/>
<path d="M0.985638 145.603C0.985638 145.603 1.39423 146.649 2.14195 146.588C2.14195 146.588 1.88045 144.872 3.51072 144.872C5.141 144.872 5.21454 144.95 5.21454 146.592C5.21454 146.592 5.52916 148.876 6.73858 150.159C7.94801 151.442 9.72946 154.192 6.19516 154.731C2.66086 155.271 1.70067 151.642 1.52498 151.079C1.3166 150.335 -0.195185 149.808 0.53619 147.875C0.744571 147.328 0.650596 146.527 0.613823 145.926C0.597457 145.759 0.622431 145.59 0.686553 145.435C0.750674 145.28 0.851977 145.142 0.981551 145.036L0.985638 145.603Z" fill="#455A64"/>
<path d="M6.35252 154.364C2.72016 154.916 1.71912 151.189 1.55568 150.613C1.39225 150.037 0.493347 149.596 0.354426 148.57C0.186905 149.943 1.34321 150.429 1.52299 151.071C1.68643 151.635 2.65887 155.263 6.19317 154.724C7.44754 154.532 8.02774 154.066 8.21161 153.498C7.90516 153.894 7.32497 154.205 6.35252 154.364Z" fill="#263238"/>
<path d="M2.99797 147.985C2.97655 147.986 2.95533 147.981 2.93564 147.973C2.91595 147.964 2.89822 147.952 2.88357 147.936C2.86911 147.922 2.85762 147.905 2.84978 147.887C2.84193 147.868 2.83789 147.848 2.83789 147.828C2.83789 147.808 2.84193 147.788 2.84978 147.769C2.85762 147.751 2.86911 147.734 2.88357 147.72C2.93668 147.671 4.18697 146.559 5.42499 147.209C5.44328 147.218 5.45955 147.231 5.47281 147.246C5.48607 147.262 5.49606 147.28 5.50217 147.299C5.50828 147.319 5.51038 147.339 5.50835 147.36C5.50632 147.38 5.50021 147.4 5.49037 147.417C5.47054 147.453 5.43763 147.479 5.39868 147.491C5.35973 147.502 5.31784 147.498 5.28199 147.479C4.23191 146.927 3.10012 147.936 3.08786 147.949C3.0626 147.97 3.03109 147.983 2.99797 147.985Z" fill="white"/>
<path d="M3.48821 149.093C3.46682 149.093 3.44567 149.088 3.42602 149.08C3.40636 149.072 3.3886 149.059 3.3738 149.044C3.35934 149.03 3.34786 149.013 3.34001 148.994C3.33217 148.976 3.32812 148.956 3.32812 148.936C3.32812 148.915 3.33217 148.895 3.34001 148.877C3.34786 148.858 3.35934 148.841 3.3738 148.827C3.42692 148.778 4.6772 147.667 5.91523 148.317C5.93352 148.326 5.94978 148.338 5.96305 148.354C5.97631 148.369 5.9863 148.387 5.99241 148.407C5.99851 148.426 6.00062 148.447 5.99859 148.467C5.99656 148.487 5.99044 148.507 5.9806 148.525C5.96078 148.56 5.92787 148.587 5.88891 148.598C5.84996 148.609 5.80807 148.605 5.77222 148.586C4.72623 148.035 3.59035 149.044 3.57809 149.056C3.55283 149.078 3.52133 149.09 3.48821 149.093Z" fill="white"/>
<path d="M3.90684 150.131C3.88546 150.131 3.86431 150.126 3.84466 150.118C3.825 150.109 3.80724 150.097 3.79244 150.082C3.76516 150.052 3.75 150.013 3.75 149.973C3.75 149.933 3.76516 149.894 3.79244 149.865C3.84556 149.816 5.09992 148.701 6.33795 149.354C6.35575 149.363 6.37154 149.376 6.38435 149.391C6.39716 149.406 6.40672 149.424 6.41245 149.443C6.41818 149.462 6.41997 149.482 6.4177 149.502C6.41543 149.522 6.40915 149.541 6.39924 149.559C6.3906 149.577 6.37834 149.593 6.36321 149.606C6.34807 149.619 6.33039 149.629 6.31124 149.635C6.2921 149.642 6.2719 149.644 6.2519 149.642C6.2319 149.64 6.21251 149.634 6.19494 149.624C5.14487 149.072 4.00899 150.082 3.99673 150.09C3.97257 150.114 3.94071 150.128 3.90684 150.131Z" fill="white"/>
<path d="M13.0753 142.204C13.0753 142.204 13.7617 142.613 14.0723 142.846C14.3828 143.079 15.4288 143.128 15.7066 142.821C15.9845 142.515 15.5432 141.669 16.9733 141.187C18.4033 140.705 17.9947 142.69 17.9947 142.69C17.9947 142.69 18.5136 143.953 20.3155 144.692C22.1174 145.432 24.81 145.624 23.5842 148.018C23.049 149.064 19.6087 149.935 17.3492 148.288C16.623 147.808 15.7683 147.558 14.8976 147.573C13.9497 147.573 11.919 147.107 12.0947 145.595C12.2704 144.084 12.6177 143.74 12.6177 143.193C12.6177 142.645 12.5237 142.037 13.0508 141.832L13.0753 142.204Z" fill="#455A64"/>
<path d="M17.3213 147.858C16.5404 147.343 15.6212 147.078 14.6859 147.098C13.7869 147.106 12.9101 146.819 12.1895 146.281C12.598 147.246 14.1139 147.564 14.8984 147.564C15.769 147.549 16.6237 147.799 17.3499 148.279C19.6054 149.914 23.0498 149.056 23.585 148.014C22.4532 148.892 19.4133 149.387 17.3213 147.858Z" fill="#263238"/>
<path d="M16.2955 144.611C16.278 144.615 16.2599 144.615 16.2424 144.611C16.2235 144.604 16.2062 144.593 16.1914 144.58C16.1766 144.566 16.1647 144.55 16.1563 144.532C16.148 144.513 16.1433 144.494 16.1427 144.473C16.142 144.453 16.1454 144.433 16.1525 144.415C16.177 144.349 16.7613 142.78 18.1587 142.78C18.1999 142.78 18.2394 142.797 18.2685 142.826C18.2976 142.855 18.314 142.894 18.314 142.936C18.314 142.976 18.298 143.014 18.2697 143.042C18.2413 143.071 18.2029 143.087 18.1628 143.087C16.9779 143.087 16.4426 144.517 16.4385 144.529C16.4248 144.555 16.404 144.576 16.3788 144.59C16.3535 144.605 16.3246 144.612 16.2955 144.611Z" fill="white"/>
<path d="M17.4557 145.322C17.4382 145.325 17.4201 145.325 17.4026 145.322C17.3837 145.315 17.3663 145.304 17.3516 145.291C17.3368 145.277 17.3248 145.261 17.3165 145.242C17.3081 145.224 17.3035 145.204 17.3028 145.184C17.3022 145.164 17.3055 145.144 17.3127 145.125C17.3127 145.072 17.8275 143.744 19.0124 143.74C19.0326 143.74 19.0527 143.743 19.0715 143.751C19.0903 143.758 19.1075 143.769 19.122 143.783C19.1364 143.797 19.1479 143.814 19.1558 143.833C19.1636 143.851 19.1677 143.871 19.1677 143.891C19.1677 143.933 19.1513 143.972 19.1222 144.001C19.0931 144.03 19.0536 144.047 19.0124 144.047C18.0441 144.047 17.6028 145.219 17.5987 145.232C17.5861 145.259 17.5659 145.282 17.5405 145.298C17.5151 145.314 17.4857 145.322 17.4557 145.322Z" fill="white"/>
<path d="M18.7451 146.119H18.6961C18.6578 146.105 18.6266 146.076 18.609 146.04C18.5914 146.003 18.5889 145.961 18.6021 145.922C18.6225 145.865 19.121 144.537 20.3059 144.533C20.3422 144.539 20.3753 144.558 20.3991 144.586C20.423 144.614 20.4361 144.65 20.4361 144.686C20.4361 144.723 20.423 144.759 20.3991 144.787C20.3753 144.815 20.3422 144.834 20.3059 144.84C19.3335 144.84 18.8963 146.012 18.8922 146.025C18.8795 146.053 18.8588 146.077 18.8326 146.093C18.8065 146.11 18.7761 146.119 18.7451 146.119Z" fill="white"/>
<path d="M140.681 77.81C140.579 77.7438 140.493 77.654 140.432 77.5482C140.371 77.4423 140.336 77.3233 140.33 77.2012V74.6884C140.33 74.4637 140.485 74.3738 140.681 74.4882C140.784 74.5551 140.869 74.645 140.93 74.7508C140.991 74.8565 141.026 74.9751 141.033 75.097V77.6139C141.033 77.8345 140.873 77.9244 140.681 77.81Z" fill="#5D9FD1"/>
<path d="M141.767 77.1853L139.59 75.9145C139.487 75.8472 139.402 75.7566 139.341 75.6501C139.28 75.5437 139.245 75.4243 139.238 75.3017C139.238 75.0769 139.394 74.987 139.59 75.1015L141.767 76.3599C141.871 76.4259 141.957 76.5155 142.019 76.6214C142.081 76.7272 142.116 76.8463 142.123 76.9687C142.139 77.2057 141.964 77.2956 141.767 77.1853Z" fill="#5D9FD1"/>
<path d="M143.562 71.0109C143.46 70.9439 143.375 70.854 143.314 70.7483C143.253 70.6425 143.218 70.5239 143.211 70.4021V67.8851C143.211 67.6604 143.37 67.5705 143.562 67.6808C143.666 67.748 143.751 67.8384 143.813 67.9449C143.875 68.0513 143.911 68.1709 143.918 68.2937V70.8106C143.918 71.0395 143.775 71.1334 143.562 71.0109Z" fill="#5D9FD1"/>
<path d="M144.652 70.3901L142.474 69.1316C142.372 69.0654 142.286 68.9757 142.225 68.8698C142.164 68.7639 142.129 68.645 142.123 68.5228C142.123 68.2981 142.278 68.2082 142.474 68.3185L144.652 69.577C144.755 69.6452 144.84 69.7366 144.9 69.8438C144.96 69.9511 144.994 70.071 145 70.194C145 70.4146 144.848 70.5045 144.652 70.3901Z" fill="#5D9FD1"/>
<path d="M130.056 101.614C129.954 101.546 129.87 101.455 129.809 101.349C129.748 101.243 129.712 101.124 129.705 101.001V98.4843C129.705 98.2596 129.864 98.1697 130.056 98.2841C130.159 98.3503 130.245 98.44 130.306 98.5459C130.367 98.6518 130.402 98.7707 130.408 98.8929V101.41C130.408 101.655 130.253 101.724 130.056 101.614Z" fill="#5D9FD1"/>
<path d="M131.148 100.985L128.967 99.727C128.865 99.659 128.78 99.5683 128.719 99.4619C128.658 99.3556 128.622 99.2365 128.615 99.1142C128.615 98.8894 128.775 98.7995 128.967 98.914L131.148 100.172C131.251 100.239 131.337 100.328 131.398 100.434C131.459 100.54 131.494 100.659 131.5 100.781C131.516 101.006 131.345 101.096 131.148 100.985Z" fill="#5D9FD1"/>
<path d="M86.3846 73.3525C86.2827 73.2853 86.1979 73.1953 86.1369 73.0896C86.0759 72.984 86.0404 72.8655 86.0332 72.7437V70.2268C86.0332 70.0021 86.1926 69.9081 86.3846 70.0225C86.4874 70.0887 86.5729 70.1784 86.634 70.2843C86.6951 70.3902 86.7301 70.5092 86.736 70.6313V73.1482C86.736 73.3729 86.5725 73.4628 86.3846 73.3525Z" fill="#5D9FD1"/>
<path d="M87.4747 72.7229L85.2928 71.4645C85.1909 71.3973 85.1061 71.3073 85.0451 71.2016C84.9841 71.096 84.9486 70.9775 84.9414 70.8557C84.9414 70.631 85.1008 70.537 85.2928 70.6514L87.4747 71.9098C87.5774 71.976 87.663 72.0658 87.7241 72.1717C87.7852 72.2776 87.8202 72.3965 87.826 72.5186C87.826 72.7434 87.6708 72.8333 87.4747 72.7229Z" fill="#5D9FD1"/>
<path d="M128.596 136.067C128.308 136.062 128.026 135.98 127.779 135.83C127.329 135.542 126.954 135.15 126.686 134.687C126.418 134.224 126.265 133.704 126.238 133.17C126.211 132.933 126.254 132.692 126.362 132.479C126.469 132.265 126.637 132.088 126.844 131.969C127.051 131.849 127.289 131.793 127.527 131.807C127.766 131.821 127.996 131.904 128.187 132.047C128.636 132.336 129.01 132.728 129.277 133.191C129.544 133.654 129.697 134.173 129.724 134.707C129.743 134.946 129.699 135.186 129.594 135.401C129.489 135.617 129.328 135.8 129.127 135.932C128.964 136.022 128.782 136.068 128.596 136.067ZM127.403 132.627C127.353 132.625 127.304 132.637 127.26 132.66C127.189 132.723 127.135 132.802 127.102 132.892C127.07 132.981 127.059 133.076 127.072 133.17C127.097 133.561 127.212 133.941 127.408 134.28C127.604 134.619 127.877 134.908 128.204 135.123C128.258 135.219 128.348 135.289 128.454 135.318C128.559 135.347 128.672 135.333 128.768 135.279C128.863 135.224 128.933 135.135 128.962 135.029C128.991 134.923 128.977 134.81 128.923 134.715C128.898 134.324 128.784 133.945 128.588 133.606C128.392 133.267 128.121 132.978 127.795 132.762C127.678 132.685 127.543 132.639 127.403 132.627Z" fill="#5D9FD1"/>
<path d="M136.689 108.376C136.401 108.371 136.119 108.289 135.872 108.139C135.422 107.851 135.048 107.459 134.781 106.996C134.514 106.533 134.361 106.013 134.336 105.479C134.309 105.243 134.352 105.003 134.46 104.79C134.567 104.578 134.734 104.401 134.941 104.282C135.147 104.162 135.384 104.106 135.622 104.119C135.86 104.132 136.089 104.215 136.281 104.356C136.731 104.644 137.105 105.036 137.373 105.499C137.641 105.962 137.795 106.482 137.821 107.016C137.84 107.255 137.795 107.494 137.69 107.71C137.585 107.925 137.424 108.109 137.224 108.242C137.061 108.331 136.876 108.378 136.689 108.376ZM135.496 104.924C135.446 104.922 135.397 104.934 135.353 104.956C135.282 105.02 135.228 105.099 135.196 105.188C135.163 105.277 135.152 105.373 135.165 105.467C135.19 105.858 135.305 106.237 135.5 106.576C135.696 106.915 135.967 107.204 136.293 107.42C136.368 107.478 136.456 107.516 136.549 107.533C136.642 107.549 136.738 107.543 136.828 107.514C136.899 107.451 136.953 107.371 136.986 107.282C137.018 107.193 137.029 107.098 137.016 107.004C136.991 106.613 136.875 106.233 136.679 105.894C136.483 105.556 136.211 105.267 135.884 105.05C135.768 104.976 135.634 104.932 135.496 104.924Z" fill="#5D9FD1"/>
<path d="M111.635 80.3471C111.346 80.3416 111.064 80.2599 110.817 80.1101C110.368 79.8214 109.994 79.4293 109.726 78.9666C109.459 78.5039 109.306 77.9839 109.281 77.4502C109.255 77.2133 109.298 76.9739 109.405 76.7611C109.513 76.5483 109.68 76.3715 109.886 76.2523C110.092 76.1331 110.329 76.0766 110.567 76.0898C110.805 76.103 111.034 76.1853 111.226 76.3266C111.676 76.6153 112.05 77.0074 112.317 77.4701C112.584 77.9328 112.737 78.4527 112.762 78.9865C112.782 79.2251 112.737 79.4646 112.633 79.6802C112.529 79.8958 112.369 80.0795 112.17 80.2123C112.006 80.3015 111.821 80.3479 111.635 80.3471ZM110.441 76.9068C110.393 76.9059 110.345 76.9172 110.303 76.9395C110.232 77.0027 110.178 77.0824 110.145 77.1714C110.112 77.2605 110.102 77.3562 110.115 77.4502C110.139 77.8406 110.254 78.2201 110.45 78.5589C110.645 78.8977 110.916 79.1867 111.242 79.4032C111.296 79.4986 111.386 79.5685 111.492 79.5977C111.598 79.6268 111.711 79.6127 111.806 79.5585C111.902 79.5043 111.971 79.4145 112.001 79.3087C112.03 79.203 112.016 79.09 111.961 78.9947C111.938 78.604 111.823 78.2242 111.628 77.8852C111.432 77.5463 111.16 77.2575 110.834 77.0416C110.716 76.9646 110.581 76.9183 110.441 76.9068Z" fill="#5D9FD1"/>
<path d="M127.135 114.465C127.135 110.216 124.152 105.068 120.475 102.931C118.612 101.856 116.929 101.77 115.719 102.498L113.223 103.964L113.974 105.223C113.868 105.735 113.815 106.257 113.819 106.78C113.819 111.025 116.798 116.177 120.475 118.31C121.035 118.641 121.637 118.894 122.265 119.062L122.886 120.104L125.047 118.849C125.143 118.801 125.236 118.747 125.325 118.686C126.449 117.951 127.135 116.496 127.135 114.465Z" fill="#004E89"/>
<path opacity="0.3" d="M127.135 114.465C127.135 110.216 124.152 105.068 120.475 102.931C118.612 101.856 116.929 101.77 115.719 102.498L113.223 103.964L113.974 105.223C113.868 105.735 113.815 106.257 113.819 106.78C113.819 111.025 116.798 116.177 120.475 118.31C121.035 118.641 121.637 118.894 122.265 119.062L122.886 120.104L125.047 118.849C125.143 118.801 125.236 118.747 125.325 118.686C126.449 117.951 127.135 116.496 127.135 114.465Z" fill="black"/>
<path d="M124.867 115.772C124.867 120.017 121.888 121.737 118.211 119.612C114.533 117.488 111.551 112.327 111.551 108.082C111.551 103.837 114.533 102.116 118.211 104.237C121.888 106.358 124.867 111.526 124.867 115.772Z" fill="#5D9FD1"/>
<path d="M120.112 109.774C119.062 109.169 118.212 109.835 118.212 111.261C118.212 109.835 117.362 108.188 116.312 107.584C115.262 106.979 114.412 107.645 114.412 109.075C114.412 112.711 118.212 116.458 118.212 116.458C118.212 116.458 122.012 117.096 122.012 113.459C122.012 112.029 121.158 110.378 120.112 109.774Z" fill="white"/>
<path d="M86.3832 62.0225C86.3832 57.7772 83.4046 52.6249 79.7273 50.4921C77.8641 49.4175 76.1807 49.3317 74.9713 50.0549L72.4707 51.5217L73.2225 52.7761C73.1176 53.2897 73.0656 53.8127 73.0673 54.3369C73.0673 58.5821 76.05 63.7345 79.7273 65.8673C80.2853 66.1984 80.886 66.4513 81.5128 66.6191L82.1379 67.661L84.2994 66.4066C84.3951 66.3576 84.4879 66.3031 84.5772 66.2432C85.6968 65.4955 86.3832 64.0409 86.3832 62.0225Z" fill="#004E89"/>
<path opacity="0.3" d="M86.3832 62.0225C86.3832 57.7772 83.4046 52.6249 79.7273 50.4921C77.8641 49.4175 76.1807 49.3317 74.9713 50.0549L72.4707 51.5217L73.2225 52.7761C73.1176 53.2897 73.0656 53.8127 73.0673 54.3369C73.0673 58.5821 76.05 63.7345 79.7273 65.8673C80.2853 66.1984 80.886 66.4513 81.5128 66.6191L82.1379 67.661L84.2994 66.4066C84.3951 66.3576 84.4879 66.3031 84.5772 66.2432C85.6968 65.4955 86.3832 64.0409 86.3832 62.0225Z" fill="black"/>
<path d="M82.167 67.6273C84.7661 66.1267 84.7658 61.2601 82.1662 56.7575C79.5666 52.2549 75.3522 49.8213 72.7531 51.3219C70.1539 52.8226 70.1542 57.6891 72.7538 62.1917C75.3534 66.6943 79.5678 69.1279 82.167 67.6273Z" fill="#5D9FD1"/>
<path d="M79.3598 57.3187C78.3097 56.714 77.4599 57.38 77.4599 58.806C77.4599 57.38 76.61 55.7293 75.5599 55.1287C74.5098 54.5281 73.6641 55.19 73.6641 56.62C73.6641 60.2524 77.4599 64.0033 77.4599 64.0033C77.4599 64.0033 81.2597 64.6407 81.2597 61.0042C81.2597 59.5701 80.4099 57.9357 79.3598 57.3187Z" fill="white"/>
<path d="M111.036 89.3978C111.036 85.7204 108.454 81.226 105.263 79.3996C103.649 78.4639 102.19 78.3904 101.14 79.0196L98.9746 80.2903L99.6243 81.3812C99.5343 81.825 99.4905 82.2768 99.4935 82.7296C99.4935 86.4069 102.076 90.9014 105.263 92.7278C105.747 93.0146 106.268 93.2332 106.811 93.3774L107.355 94.2845L109.23 93.1935C109.306 93.1587 109.38 93.1191 109.451 93.0751C110.444 92.4336 111.036 91.171 111.036 89.3978Z" fill="#004E89"/>
<path opacity="0.3" d="M111.036 89.3978C111.036 85.7204 108.454 81.226 105.263 79.3996C103.649 78.4639 102.19 78.3904 101.14 79.0196L98.9746 80.2903L99.6243 81.3812C99.5343 81.825 99.4905 82.2768 99.4935 82.7296C99.4935 86.4069 102.076 90.9014 105.263 92.7278C105.747 93.0146 106.268 93.2332 106.811 93.3774L107.355 94.2845L109.23 93.1935C109.306 93.1587 109.38 93.1191 109.451 93.0751C110.444 92.4336 111.036 91.171 111.036 89.3978Z" fill="black"/>
<path d="M107.386 94.2793C109.641 92.9773 109.642 88.7565 107.387 84.8519C105.133 80.9473 101.477 78.8375 99.2221 80.1395C96.9669 81.4416 96.9662 85.6624 99.2205 89.567C101.475 93.4716 105.131 95.5814 107.386 94.2793Z" fill="#5D9FD1"/>
<path d="M104.958 85.3448C104.047 84.8178 103.323 85.398 103.323 86.636C103.323 85.4102 102.584 83.9679 101.689 83.4408C100.794 82.9137 100.055 83.4939 100.055 84.732C100.055 87.8863 103.348 91.1346 103.348 91.1346C103.348 91.1346 106.641 91.6902 106.641 88.5359C106.592 87.2979 105.857 85.8678 104.958 85.3448Z" fill="white"/>
<path d="M142.14 62.4307C142.14 58.7533 139.553 54.2589 136.366 52.4325C134.732 51.5009 133.29 51.4233 132.244 52.0525L130.074 53.3232L130.728 54.4141C130.637 54.8591 130.591 55.3123 130.593 55.7666C130.593 59.4439 133.179 63.9384 136.366 65.7647C136.85 66.0513 137.372 66.2699 137.915 66.4144L138.454 67.3174L140.33 66.2305C140.412 66.1856 140.493 66.1407 140.571 66.0916C141.527 65.446 142.14 64.1876 142.14 62.4307Z" fill="#004E89"/>
<path opacity="0.3" d="M142.14 62.4307C142.14 58.7533 139.553 54.2589 136.366 52.4325C134.732 51.5009 133.29 51.4233 132.244 52.0525L130.074 53.3232L130.728 54.4141C130.637 54.8591 130.591 55.3123 130.593 55.7666C130.593 59.4439 133.179 63.9384 136.366 65.7647C136.85 66.0513 137.372 66.2699 137.915 66.4144L138.454 67.3174L140.33 66.2305C140.412 66.1856 140.493 66.1407 140.571 66.0916C141.527 65.446 142.14 64.1876 142.14 62.4307Z" fill="black"/>
<path d="M140.158 63.5586C140.158 67.2359 137.572 68.7313 134.385 66.8886C131.198 65.0459 128.611 60.5718 128.611 56.8904C128.611 53.209 131.198 51.7177 134.385 53.5604C137.572 55.4031 140.158 59.8772 140.158 63.5586Z" fill="#5D9FD1"/>
<path d="M136.03 58.3449C135.119 57.8219 134.396 58.398 134.396 59.636C134.396 58.4103 133.66 56.9679 132.761 56.4449C131.862 55.922 131.127 56.4981 131.127 57.7361C131.127 60.8863 134.42 64.1346 134.42 64.1346C134.42 64.1346 137.713 64.6903 137.713 61.536C137.677 60.3102 136.941 58.8842 136.03 58.3449Z" fill="white"/>
</svg>
