<svg width="179" height="140" viewBox="0 0 179 140" fill="none" xmlns="http://www.w3.org/2000/svg">
<path d="M19.2405 104.326L70.3821 133.848C71.0352 134.18 71.7574 134.353 72.49 134.353C73.2225 134.353 73.9447 134.18 74.5978 133.848L170.886 78.2514C172.05 77.5784 172.05 76.4883 170.886 75.8153L119.761 46.2889C119.107 45.959 118.385 45.7871 117.653 45.7871C116.921 45.7871 116.199 45.959 115.545 46.2889L19.2405 101.89C18.0761 102.563 18.0761 103.653 19.2405 104.326Z" fill="#E0E0E0"/>
<path d="M22.6549 94.1401C21.9405 94.6934 22.019 95.482 22.8861 95.9816L70.5016 123.477C71.0385 123.748 71.6319 123.89 72.2337 123.89C72.8355 123.89 73.4289 123.748 73.9658 123.477L164.969 70.9393C165.848 70.4315 165.918 69.6304 165.171 69.0771C165.619 69.415 165.987 69.8464 166.251 70.3413C166.515 70.8362 166.668 71.3827 166.699 71.9427V74.2301C166.668 74.8319 166.494 75.4178 166.193 75.9396C165.891 76.4614 165.47 76.9043 164.965 77.2319L73.9741 129.765C73.4367 130.038 72.8425 130.18 72.2399 130.18C71.6372 130.18 71.0431 130.038 70.5057 129.765L22.8902 102.274C22.385 101.947 21.9647 101.505 21.6639 100.984C21.3632 100.463 21.1905 99.8775 21.1602 99.2766V96.9809C21.192 96.4281 21.3419 95.8885 21.5997 95.3985C21.8575 94.9085 22.2173 94.4794 22.6549 94.1401Z" fill="#004E89"/>
<path opacity="0.5" d="M22.6549 94.1401C21.9405 94.6934 22.019 95.482 22.8861 95.9816L70.5016 123.477C71.0385 123.748 71.6319 123.89 72.2337 123.89C72.8355 123.89 73.4289 123.748 73.9658 123.477L164.969 70.9393C165.848 70.4315 165.918 69.6304 165.171 69.0771C165.619 69.415 165.987 69.8464 166.251 70.3413C166.515 70.8362 166.668 71.3827 166.699 71.9427V74.2301C166.668 74.8319 166.494 75.4178 166.193 75.9396C165.891 76.4614 165.47 76.9043 164.965 77.2319L73.9741 129.765C73.4367 130.038 72.8425 130.18 72.2399 130.18C71.6372 130.18 71.0431 130.038 70.5057 129.765L22.8902 102.274C22.385 101.947 21.9647 101.505 21.6639 100.984C21.3632 100.463 21.1905 99.8775 21.1602 99.2766V96.9809C21.192 96.4281 21.3419 95.8885 21.5997 95.3985C21.8575 94.9085 22.2173 94.4794 22.6549 94.1401Z" fill="black"/>
<path d="M22.8872 95.9815L70.5027 123.476C71.0397 123.748 71.633 123.89 72.2348 123.89C72.8366 123.89 73.43 123.748 73.967 123.476L164.97 70.9392C165.924 70.3859 165.924 69.4899 164.97 68.9407L117.354 41.4417C116.817 41.1699 116.224 41.0283 115.622 41.0283C115.02 41.0283 114.427 41.1699 113.89 41.4417L22.8872 93.9831C21.9334 94.5363 21.9334 95.4323 22.8872 95.9815ZM106.565 48.5518C107.391 48.077 108.217 48.3536 109.043 48.8284L152.339 73.8253C153.165 74.296 153.165 75.064 152.339 75.5389L81.5024 116.445C81.0413 116.677 80.5322 116.798 80.0159 116.798C79.4996 116.798 78.9906 116.677 78.5295 116.445L35.237 91.4479C34.4112 90.973 34.4112 90.2092 35.237 89.7343L106.565 48.5518Z" fill="#004E89"/>
<path opacity="0.3" d="M22.8872 95.9815L70.5027 123.476C71.0397 123.748 71.633 123.89 72.2348 123.89C72.8366 123.89 73.43 123.748 73.967 123.476L164.97 70.9392C165.924 70.3859 165.924 69.4899 164.97 68.9407L117.354 41.4417C116.817 41.1699 116.224 41.0283 115.622 41.0283C115.02 41.0283 114.427 41.1699 113.89 41.4417L22.8872 93.9831C21.9334 94.5363 21.9334 95.4323 22.8872 95.9815ZM106.565 48.5518C107.391 48.077 108.217 48.3536 109.043 48.8284L152.339 73.8253C153.165 74.296 153.165 75.064 152.339 75.5389L81.5024 116.445C81.0413 116.677 80.5322 116.798 80.0159 116.798C79.4996 116.798 78.9906 116.677 78.5295 116.445L35.237 91.4479C34.4112 90.973 34.4112 90.2092 35.237 89.7343L106.565 48.5518Z" fill="black"/>
<path d="M165.172 69.0732C165.619 69.4111 165.988 69.8425 166.252 70.3374C166.516 70.8323 166.668 71.3788 166.699 71.9388V74.2262C166.668 74.8279 166.494 75.4135 166.192 75.9352C165.891 76.4569 165.471 76.8999 164.965 77.228L73.9746 129.765C73.4392 130.047 72.8413 130.189 72.2363 130.178V123.886C72.8389 123.899 73.4346 123.756 73.9664 123.473L164.969 70.9354C165.849 70.4275 165.931 69.6265 165.172 69.0732Z" fill="#004E89"/>
<path opacity="0.6" d="M165.172 69.0732C165.619 69.4111 165.988 69.8425 166.252 70.3374C166.516 70.8323 166.668 71.3788 166.699 71.9388V74.2262C166.668 74.8279 166.494 75.4135 166.192 75.9352C165.891 76.4569 165.471 76.8999 164.965 77.228L73.9746 129.765C73.4392 130.047 72.8413 130.189 72.2363 130.178V123.886C72.8389 123.899 73.4346 123.756 73.9664 123.473L164.969 70.9354C165.849 70.4275 165.931 69.6265 165.172 69.0732Z" fill="black"/>
<path d="M136.616 57.8919C135.972 57.5203 135.972 56.9216 136.616 56.55C136.975 56.3669 137.373 56.2715 137.776 56.2715C138.179 56.2715 138.577 56.3669 138.936 56.55C139.576 56.9216 139.576 57.5203 138.936 57.8919C138.576 58.0731 138.179 58.1675 137.776 58.1675C137.373 58.1675 136.976 58.0731 136.616 57.8919Z" fill="black"/>
<path d="M51.1945 109.025C50.2067 109.044 49.2304 108.811 48.3578 108.348C47.5609 107.886 47.1191 107.262 47.1191 106.589C47.1191 105.916 47.5568 105.293 48.3578 104.834C49.2378 104.388 50.2105 104.157 51.197 104.157C52.1835 104.158 53.1559 104.391 54.0352 104.838C54.8321 105.297 55.2739 105.92 55.2739 106.593C55.2739 107.266 54.8362 107.89 54.0352 108.352C53.161 108.815 52.1832 109.046 51.1945 109.025ZM51.1945 104.562C50.2785 104.543 49.3731 104.759 48.5643 105.189C47.8995 105.573 47.5362 106.069 47.5362 106.589C47.5362 107.109 47.8995 107.605 48.5643 107.989C49.3795 108.402 50.2805 108.617 51.1945 108.617C52.1084 108.617 53.0094 108.402 53.8246 107.989C54.4894 107.605 54.8527 107.109 54.8527 106.589C54.8527 106.069 54.4894 105.573 53.8246 105.189C53.0154 104.76 52.1102 104.544 51.1945 104.562Z" fill="#E6E6E6"/>
<path d="M137.738 62.3385L128.77 57.1608C128.237 56.8552 128.208 56.368 128.712 56.079C129.005 55.9362 129.327 55.8647 129.653 55.8704C129.979 55.8762 130.299 55.959 130.587 56.112L139.551 61.2898C140.087 61.5953 140.112 62.0825 139.613 62.3716C139.319 62.5122 138.997 62.5824 138.671 62.5766C138.346 62.5709 138.026 62.4894 137.738 62.3385Z" fill="black"/>
<path d="M106.565 48.5522C107.391 48.0773 108.216 48.354 109.042 48.8288L152.339 73.8257C153.165 74.2964 153.165 75.0644 152.339 75.5392L81.5019 116.445C81.0408 116.677 80.5317 116.798 80.0154 116.798C79.4991 116.798 78.9901 116.677 78.529 116.445L35.2365 91.4482C34.4107 90.9734 34.4107 90.2095 35.2365 89.7347L106.565 48.5522Z" fill="#FAFAFA"/>
<path d="M37.8388 75.56L36.4143 74.7342C36.3752 74.7183 36.343 74.6891 36.3235 74.6516L35.4316 72.4963L36.5919 71.8232L36.5589 71.9265L37.8388 75.56Z" fill="#004E89"/>
<g opacity="0.4">
<path d="M37.8388 75.56L36.4143 74.7342C36.3752 74.7183 36.343 74.6891 36.3235 74.6516L35.4316 72.4963L36.5919 71.8232L36.5589 71.9265L37.8388 75.56Z" fill="black"/>
</g>
<path d="M36.4141 71.9303L37.7684 75.4895C37.7875 75.5234 37.816 75.5511 37.8505 75.5693C37.885 75.5874 37.924 75.5952 37.9628 75.5917C38.0016 75.5882 38.0386 75.5736 38.0693 75.5496C38.1 75.5256 38.1231 75.4932 38.1359 75.4564L39.5851 70.1094L36.4141 71.9303Z" fill="#004E89"/>
<path opacity="0.2" d="M36.4141 71.9303L37.7684 75.4895C37.7875 75.5234 37.816 75.5511 37.8505 75.5693C37.885 75.5874 37.924 75.5952 37.9628 75.5917C38.0016 75.5882 38.0386 75.5736 38.0693 75.5496C38.1 75.5256 38.1231 75.4932 38.1359 75.4564L39.5851 70.1094L36.4141 71.9303Z" fill="black"/>
<path d="M58.2103 22.3163C58.1941 21.9859 58.0999 21.6641 57.9356 21.3771C57.7713 21.09 57.5414 20.8459 57.2648 20.6647L56.5133 20.2311C56.2195 20.0824 55.8949 20.0049 55.5657 20.0049C55.2364 20.0049 54.9118 20.0824 54.6181 20.2311L30.6741 34.0467C30.3967 34.2272 30.1663 34.4712 30.0019 34.7584C29.8375 35.0456 29.7438 35.3678 29.7285 35.6983V71.6205C29.7438 71.9511 29.8375 72.2733 30.0019 72.5605C30.1663 72.8477 30.3967 73.0916 30.6741 73.2721L31.4462 73.7181C31.7392 73.8668 32.0631 73.9443 32.3917 73.9443C32.7203 73.9443 33.0442 73.8668 33.3373 73.7181L57.2028 59.9272C57.4996 59.738 57.7464 59.4802 57.9225 59.1755C58.0985 58.8708 58.1987 58.5281 58.2144 58.1766L58.2103 22.3163Z" fill="#004E89"/>
<path opacity="0.3" d="M33.3905 73.6682L57.2024 59.9228C57.4966 59.7308 57.7414 59.4723 57.9172 59.1682C58.0929 58.864 58.1946 58.5228 58.214 58.1721V22.3903C58.214 21.7461 57.7639 21.486 57.2065 21.8081L33.3905 35.5411C33.0963 35.733 32.8515 35.9915 32.6757 36.2957C32.5 36.5998 32.3983 36.941 32.3789 37.2918V73.086C32.3789 73.7301 32.8331 73.9902 33.3905 73.6682Z" fill="black"/>
<path d="M36.018 68.8371L54.5984 58.1224C54.8209 57.9769 55.0059 57.7811 55.1386 57.5509C55.2713 57.3206 55.348 57.0623 55.3623 56.797V27.0682C55.3623 26.5769 55.0196 26.3828 54.5984 26.6264L36.018 37.3535C35.7946 37.4983 35.6085 37.6938 35.4751 37.9242C35.3416 38.1545 35.2645 38.4131 35.25 38.679V68.4077C35.25 68.8825 35.5927 69.0807 36.018 68.8371Z" fill="#004E89"/>
<path opacity="0.5" d="M29.7285 71.6289C29.7438 71.9595 29.8375 72.2817 30.0019 72.5689C30.1663 72.8561 30.3967 73.1 30.6741 73.2805L31.4462 73.7265C31.7124 73.8617 32.0044 73.9386 32.3027 73.9522C32.6011 73.9657 32.8988 73.9155 33.1762 73.8049C32.7303 73.9742 32.3917 73.7182 32.3917 73.1814V37.2262C32.4041 36.8968 32.4992 36.5759 32.6684 36.293L30.0052 34.7529C29.8342 35.035 29.7389 35.3564 29.7285 35.6861V71.6289Z" fill="black"/>
<path opacity="0.1" d="M58.2066 22.258C58.2066 21.7997 57.7937 21.4653 57.2033 21.8038L33.3377 35.5823C33.0557 35.7559 32.826 36.0028 32.673 36.2966L30.0098 34.7606C30.1651 34.4707 30.3945 34.2271 30.6745 34.0545L54.5979 20.2389C54.8916 20.0902 55.2163 20.0127 55.5455 20.0127C55.8748 20.0127 56.1994 20.0902 56.4931 20.2389L57.2652 20.6849C57.5304 20.8594 57.7527 21.0915 57.9157 21.3639C58.0787 21.6362 58.1782 21.9419 58.2066 22.258Z" fill="black"/>
<path d="M55.5963 46.64C53.0611 46.7144 46.2855 46.3386 46.2855 46.3386C44.1898 45.1785 42.443 43.4783 41.2268 41.4147C40.0105 39.3511 39.3692 36.9994 39.3694 34.604V32.5024C39.3538 30.5638 39.9999 28.6778 41.2011 27.1561C42.4023 25.6344 44.0866 24.5679 45.9758 24.1329C47.1167 23.8739 48.3013 23.875 49.4418 24.1361C50.5822 24.3973 51.6493 24.9118 52.5638 25.6415C53.4783 26.3712 54.2169 27.2974 54.7247 28.3515C55.2325 29.4055 55.4965 30.5603 55.4972 31.7303C55.4972 32.7625 55.6789 33.6956 56.4593 34.443C56.8923 34.8201 57.3676 35.1457 57.8755 35.4133C58.5993 35.8106 59.2421 36.34 59.7708 36.9741C60.0342 37.2924 60.2289 37.6618 60.3426 38.059C60.4563 38.4562 60.4865 38.8727 60.4314 39.2822C60.3257 39.8054 60.0737 40.2879 59.7047 40.6736C59.6681 40.6922 59.6365 40.7194 59.6128 40.7529C59.5891 40.7864 59.574 40.8252 59.5687 40.8659C59.5634 40.9066 59.5681 40.948 59.5825 40.9864C59.5968 41.0249 59.6203 41.0593 59.651 41.0865C60.3282 42.1353 60.6089 43.535 60.0391 44.6499C59.6537 45.3478 59.0356 45.8884 58.2926 46.1776C57.5558 46.4649 56.775 46.6228 55.9845 46.6442L55.5963 46.64Z" fill="#263238"/>
<path d="M43.1571 47.6435C43.041 48.5743 42.6781 49.4572 42.106 50.2006C41.5339 50.944 40.7735 51.5209 39.9034 51.8716L36.4186 68.6064L35.2542 69.2753L35.2129 49.4561C36.2286 44.4105 37.9711 43.8242 41.0967 42.9199C41.0926 42.9323 43.6319 44.555 43.1571 47.6435Z" fill="#B16668"/>
<path d="M72.2047 46.9416C70.5932 49.7541 68.8374 52.4815 66.9444 55.1129C66.4737 55.7363 65.1648 57.4623 64.467 57.6357C63.5958 57.8504 62.8526 57.1608 62.4025 56.8429C60.8211 55.7446 52.6416 47.6105 52.6416 47.6105C50.094 44.0596 50.7381 41.7969 51.0808 41.7969C51.4235 41.7969 54.0372 41.1115 56.2751 43.2957C57.9639 44.9473 63.7444 50.9219 63.7444 50.9219C65.1111 49.3199 66.0071 48.5271 67.3697 46.9168C68.0303 46.1364 69.0213 45.2941 69.0874 44.2165C69.0802 43.7239 69.0361 43.2325 68.9552 42.7465C68.8725 41.6232 68.9433 40.4939 69.1658 39.3897C69.1713 39.3395 69.1853 39.2906 69.2071 39.2452C69.2442 39.1832 69.3008 39.1352 69.3681 39.1089C69.4936 39.0735 69.6273 39.0806 69.7483 39.1292C69.8693 39.1777 69.9708 39.265 70.037 39.3773C70.1644 39.6047 70.2339 39.8599 70.2394 40.1205C70.2458 40.3819 70.3018 40.6397 70.4045 40.8802C70.4278 40.9285 70.4617 40.9708 70.5036 41.0041C70.5511 41.0321 70.6054 41.0464 70.6605 41.0454C70.9743 41.0454 71.1395 40.7109 71.251 40.4632C71.5202 39.8874 71.7385 39.2892 71.9033 38.6754C72.0148 38.2625 72.2089 37.8496 72.3493 37.4367C72.4091 37.1868 72.5429 36.9609 72.7333 36.7884C72.9203 36.6936 73.1294 36.6508 73.3386 36.6646C73.5478 36.6784 73.7495 36.7483 73.9224 36.8669C74.1314 36.9686 74.3293 37.0917 74.5129 37.2343C75.0451 37.7256 75.397 38.3814 75.5121 39.0965C75.6613 39.9231 75.606 40.7736 75.351 41.5739C75.0279 42.7013 74.4972 43.7586 73.7862 44.6913C73.237 45.4428 72.6589 46.153 72.2047 46.9416Z" fill="#B16668"/>
<path d="M54.1774 52.6393L54.0123 56.0581L54.516 58.1598L46.3654 62.8668L38.1074 67.6234L40.8821 58.8287L39.8829 51.8754C39.9902 51.7846 41.2124 50.5542 41.6088 47.6473C41.9804 44.8685 41.2867 43.2128 41.072 42.9362C41.1835 42.899 43.6609 42.2301 43.6609 42.2301L48.9419 41.8172L51.1303 41.7842C53.0045 43.1556 54.4704 45.0111 55.3707 47.1519C56.6837 50.3642 54.1774 52.6393 54.1774 52.6393Z" fill="#FAFAFA"/>
<path opacity="0.1" d="M42.6364 62.7764C42.9874 61.2115 44.9197 60.365 44.1559 59.7333C43.392 59.1016 41.439 55.1378 41.2367 53.3169C41.1137 51.9047 41.1137 50.4845 41.2367 49.0723C40.7536 51.4382 39.7337 52.4704 39.6387 52.553L40.638 59.5062L37.8633 68.301L45.0395 64.172C43.3837 64.1885 42.4341 63.6724 42.6364 62.7764Z" fill="black"/>
<path opacity="0.9" d="M52.8355 28.1505C52.6786 29.6824 50.965 31.2968 48.4133 32.7213C45.8616 34.1458 43.9375 34.0921 43.9375 34.0921C50.3994 30.7477 51.9725 26.7178 51.9725 26.7178C52.8355 27.0935 52.8355 28.1505 52.8355 28.1505Z" fill="#004E89"/>
<path d="M52.8335 28.1504C53.3621 28.683 54.0722 30.0786 54.0144 34.7568C53.9525 38.7123 52.6808 39.7116 52.0367 39.9841C51.3925 40.2566 50.1538 40.1079 48.944 39.9139V41.8421C48.944 41.8421 50.5956 43.7002 50.48 44.7861C50.3644 45.872 48.7087 46.6772 45.5996 44.3732C44.0883 43.246 43.6631 42.2509 43.6631 42.2509V37.0566C43.6631 37.0566 42.957 37.7503 41.7472 36.7057C40.7439 35.8427 40.4012 34.381 41.1692 33.5883C41.3684 33.3998 41.6097 33.2613 41.873 33.1844C42.1364 33.1075 42.4142 33.0943 42.6836 33.146C42.9531 33.1976 43.2063 33.3125 43.4226 33.4813C43.6388 33.6501 43.8118 33.8679 43.9273 34.1168C43.9273 34.1168 45.8514 34.1746 48.4073 32.7501C50.9631 31.3256 52.6725 29.6905 52.8335 28.1504Z" fill="#B16668"/>
<path d="M49.4483 33.6255C49.4586 33.7596 49.4152 33.8923 49.3278 33.9945C49.2403 34.0967 49.1159 34.16 48.9818 34.1705C48.8469 34.1739 48.7161 34.1244 48.6174 34.0326C48.5186 33.9408 48.4597 33.8139 48.4533 33.6792C48.4445 33.6111 48.45 33.5419 48.4692 33.4759C48.4884 33.41 48.5211 33.3487 48.5651 33.2959C48.609 33.2432 48.6634 33.2 48.7248 33.1692C48.7862 33.1384 48.8533 33.1206 48.9219 33.1169C48.9905 33.1132 49.0591 33.1237 49.1235 33.1477C49.1878 33.1718 49.2466 33.2088 49.296 33.2565C49.3454 33.3042 49.3844 33.3616 49.4106 33.4251C49.4368 33.4886 49.4497 33.5568 49.4483 33.6255Z" fill="#263238"/>
<path d="M49.5149 37.0234L50.8361 37.4363C50.8139 37.5249 50.7738 37.608 50.7183 37.6806C50.6629 37.7531 50.5933 37.8137 50.5137 37.8585C50.4341 37.9033 50.3463 37.9314 50.2555 37.9412C50.1647 37.951 50.0729 37.9422 49.9856 37.9153C49.807 37.8564 49.6581 37.7306 49.5703 37.5643C49.4826 37.398 49.4627 37.2041 49.5149 37.0234Z" fill="#9A4A4D"/>
<path d="M53.66 32.2258L52.6484 31.5363C52.69 31.4692 52.7446 31.4113 52.8091 31.3658C52.8735 31.3204 52.9465 31.2885 53.0236 31.2719C53.1007 31.2553 53.1803 31.2545 53.2578 31.2694C53.3352 31.2843 53.4088 31.3147 53.4742 31.3587C53.6112 31.4513 53.707 31.5932 53.7416 31.7549C53.7763 31.9165 53.747 32.0853 53.66 32.2258Z" fill="#263238"/>
<path d="M53.4363 33.4067C53.4369 33.5036 53.4091 33.5985 53.3563 33.6798C53.3036 33.7611 53.2281 33.8251 53.1393 33.8639C53.0505 33.9027 52.9523 33.9147 52.8568 33.8983C52.7613 33.8818 52.6727 33.8378 52.602 33.7715C52.5313 33.7053 52.4816 33.6197 52.459 33.5255C52.4364 33.4312 52.4419 33.3325 52.4749 33.2413C52.5079 33.1502 52.5668 33.0708 52.6445 33.0128C52.7222 32.9549 52.8151 32.921 52.9119 32.9153C52.9786 32.9131 53.0451 32.9241 53.1075 32.9476C53.17 32.9711 53.2272 33.0067 53.2759 33.0523C53.3246 33.0979 53.3638 33.1527 53.3914 33.2135C53.4189 33.2743 53.4341 33.34 53.4363 33.4067Z" fill="#263238"/>
<path d="M51.1955 32.8818L51.1914 36.119L52.7646 35.6235L51.1955 32.8818Z" fill="#9A4A4D"/>
<path d="M48.9452 39.9014C47.6735 39.7445 45.0516 39.0137 44.6387 37.9814C44.8057 38.5033 45.1285 38.9615 45.5636 39.2945C46.3522 39.9592 48.9535 40.6942 48.9535 40.6942L48.9452 39.9014Z" fill="#9A4A4D"/>
<path d="M43.9453 35.7187C44.2092 35.7187 44.4623 35.6139 44.6489 35.4272C44.8356 35.2406 44.9404 34.9875 44.9404 34.7236C44.9404 34.4597 44.8356 34.2066 44.6489 34.02C44.4623 33.8334 44.2092 33.7285 43.9453 33.7285V35.7187Z" fill="#263238"/>
<path d="M78.091 101.79L76.6665 100.965C76.6283 100.947 76.5965 100.919 76.5757 100.882L75.6797 98.7267L76.8441 98.0537L76.8069 98.1569L78.091 101.79Z" fill="#004E89"/>
<g opacity="0.4">
<path d="M78.091 101.79L76.6665 100.965C76.6283 100.947 76.5965 100.919 76.5757 100.882L75.6797 98.7267L76.8441 98.0537L76.8069 98.1569L78.091 101.79Z" fill="black"/>
</g>
<path d="M76.668 98.1617L78.0223 101.721C78.0414 101.755 78.0699 101.783 78.1044 101.801C78.1389 101.819 78.1779 101.827 78.2167 101.823C78.2555 101.82 78.2925 101.805 78.3232 101.781C78.3539 101.757 78.377 101.725 78.3898 101.688L79.8184 96.3408L76.668 98.1617Z" fill="#004E89"/>
<path opacity="0.2" d="M76.668 98.1617L78.0223 101.721C78.0414 101.755 78.0699 101.783 78.1044 101.801C78.1389 101.819 78.1779 101.827 78.2167 101.823C78.2555 101.82 78.2925 101.805 78.3232 101.781C78.3539 101.757 78.377 101.725 78.3898 101.688L79.8184 96.3408L76.668 98.1617Z" fill="black"/>
<path d="M98.4603 48.5474C98.445 48.2168 98.3513 47.8946 98.1869 47.6074C98.0225 47.3202 97.7921 47.0763 97.5147 46.8958L96.7426 46.4498C96.4496 46.3011 96.1257 46.2236 95.7971 46.2236C95.4685 46.2236 95.1446 46.3011 94.8516 46.4498L70.9282 60.2654C70.6503 60.4457 70.4193 60.6895 70.2541 60.9767C70.089 61.2639 69.9945 61.5862 69.9785 61.917V97.8599C69.9945 98.1908 70.089 98.5131 70.2541 98.8002C70.4193 99.0874 70.6503 99.3312 70.9282 99.5115L71.6962 99.9574C71.9899 100.106 72.3145 100.184 72.6438 100.184C72.973 100.184 73.2976 100.106 73.5914 99.9574L97.4569 86.1625C97.7528 85.9737 97.9989 85.7164 98.1743 85.4124C98.3496 85.1084 98.4492 84.7666 98.4644 84.4159L98.4603 48.5474Z" fill="#004E89"/>
<path opacity="0.6" d="M76.2675 95.0688L94.848 84.354C95.0704 84.2086 95.2555 84.0128 95.3882 83.7825C95.5209 83.5523 95.5975 83.294 95.6119 83.0286V53.2999C95.6119 52.8127 95.2692 52.6145 94.848 52.8581L76.2675 63.5935C76.047 63.7386 75.8634 63.9333 75.7315 64.162C75.5996 64.3907 75.523 64.647 75.5078 64.9106V94.6393C75.5078 95.1142 75.8464 95.3124 76.2675 95.0688Z" fill="white"/>
<path opacity="0.1" d="M69.9785 97.8596C69.9945 98.1904 70.089 98.5127 70.2541 98.7999C70.4193 99.0871 70.6503 99.3309 70.9282 99.5112L71.6962 99.9571C71.9635 100.091 72.2561 100.167 72.5549 100.181C72.8537 100.194 73.152 100.145 73.4304 100.036C72.9844 100.205 72.6458 99.9488 72.6458 99.4121V63.4899C72.6576 63.1598 72.7543 62.8384 72.9266 62.5567L70.2593 61.0166C70.0901 61.2995 69.995 61.6204 69.9826 61.9498L69.9785 97.8596Z" fill="black"/>
<path opacity="0.6" d="M98.4608 48.4935C98.4608 48.0352 98.0231 47.7007 97.4533 48.0393L73.5919 61.8177C73.3107 61.9901 73.0799 62.2337 72.923 62.5238L70.2598 60.9878C70.4178 60.6985 70.6483 60.4552 70.9287 60.2817L94.852 46.462C95.1457 46.3155 95.4694 46.2393 95.7976 46.2393C96.1257 46.2393 96.4494 46.3155 96.7431 46.462L97.5194 46.9079C97.785 47.0848 98.0075 47.3192 98.1705 47.5936C98.3334 47.868 98.4326 48.1756 98.4608 48.4935Z" fill="white"/>
<path d="M95.5951 83.0285V73.2057C94.5835 70.0924 92.4488 67.6233 89.125 67.9371L92.1928 75.6418L94.5009 84.5356L94.8147 84.354C95.0402 84.2103 95.2285 84.0154 95.3642 83.785C95.4998 83.5546 95.5789 83.2954 95.5951 83.0285Z" fill="#37474F"/>
<path d="M79.7192 69.4146C78.9388 69.7615 78.4805 70.8887 78.1832 71.6856C77.7069 72.9211 77.4282 74.2239 77.3574 75.5462L77.7249 86.3146L77.5928 94.3L94.5216 84.535C94.5216 84.535 94.2904 76.8386 94.2904 74.068C94.2904 73.9441 94.2904 73.8161 94.2904 73.6881C94.2098 72.3277 93.6858 71.0312 92.7984 69.997C91.911 68.9627 90.7092 68.2476 89.3769 67.9612C88.4149 67.7424 82.6714 68.4856 82.6714 68.4856L79.7316 69.4146H79.7192Z" fill="#455A64"/>
<path d="M89.4663 79.5065C89.4466 79.1981 89.4038 78.8917 89.3383 78.5898C89.2557 78.2569 89.2059 77.9167 89.1897 77.5741C89.2 77.2263 89.2373 76.8798 89.3012 76.5377C89.4829 75.3733 89.5407 74.0603 88.6736 73.1354C88.5827 73.0363 88.2855 73.0405 88.3887 73.2304C88.6946 73.7481 88.886 74.3254 88.9502 74.9233C88.9718 75.5267 88.9247 76.1307 88.8098 76.7235C88.7542 77.048 88.7293 77.377 88.7355 77.7062C88.7674 78.0081 88.8198 78.3075 88.8924 78.6022C88.9604 78.8814 89.0141 79.164 89.0534 79.4487C89.0534 79.589 89.0823 79.7336 89.0865 79.8616C89.0679 80.0262 89.0679 80.1924 89.0865 80.357C89.1154 80.4644 89.2723 80.5552 89.3425 80.4355C89.4604 80.1409 89.503 79.8216 89.4663 79.5065Z" fill="#37474F"/>
<path d="M88.3451 74.102C88.3121 73.813 88.1923 73.3134 87.8455 73.2432C87.7877 73.2432 87.7629 73.2927 87.7753 73.3381C87.8448 73.4862 87.9028 73.6395 87.9487 73.7964C87.9771 73.967 87.9909 74.1397 87.99 74.3126C87.9861 74.6745 87.9404 75.0347 87.8537 75.3861C87.7299 75.8692 87.4408 76.3069 87.317 76.79C87.1157 77.346 87.1055 77.9534 87.2881 78.5159C87.3128 78.5737 87.3954 78.6108 87.4285 78.5448C87.5468 78.1994 87.6054 77.8363 87.6019 77.4712C87.6391 77.1663 87.7125 76.8669 87.8207 76.5794C88.0209 76.1594 88.1799 75.7211 88.2955 75.2705C88.3674 74.8853 88.3841 74.4919 88.3451 74.102Z" fill="#37474F"/>
<path d="M84.1367 56.3924C84.1367 57.3585 84.4232 58.3029 84.9599 59.1061C85.4966 59.9094 86.2595 60.5355 87.1521 60.9052C88.0446 61.2749 89.0267 61.3716 89.9743 61.1831C90.9218 60.9947 91.7921 60.5295 92.4752 59.8463C93.1584 59.1632 93.6236 58.2929 93.8121 57.3453C94.0005 56.3978 93.9038 55.4157 93.5341 54.5232C93.1644 53.6306 92.5383 52.8677 91.7351 52.331C90.9318 51.7943 89.9874 51.5078 89.0213 51.5078C87.7258 51.5078 86.4834 52.0224 85.5674 52.9385C84.6513 53.8545 84.1367 55.0969 84.1367 56.3924Z" fill="#263238"/>
<path d="M80.5781 59.8652C80.5781 59.8652 81.3709 63.5813 81.6888 64.1965C81.8996 64.5729 82.247 64.8538 82.6591 64.9811L82.6055 62.3633L80.5781 59.8652Z" fill="#263238"/>
<path d="M81.598 54.5306C81.5664 54.4129 81.5104 54.3031 81.4335 54.2085C81.3567 54.1139 81.2608 54.0365 81.152 53.9815C81.0017 53.9261 80.8409 53.9049 80.6813 53.9195C80.2292 53.9355 79.7946 54.0978 79.4426 54.382C79.2715 54.5252 79.1327 54.703 79.0352 54.9036C78.9377 55.1043 78.8838 55.3233 78.877 55.5463C78.8995 55.847 78.9868 56.1392 79.1329 56.4029C79.279 56.6666 79.4804 56.8956 79.7234 57.0741C79.5116 57.1813 79.3443 57.3596 79.2507 57.5777C79.1571 57.7959 79.1432 58.04 79.2114 58.2674C79.3169 58.6114 79.5207 58.9171 79.7977 59.1468C80.0141 59.386 80.2549 59.6019 80.5162 59.7909C80.6951 59.8781 80.8911 59.9246 81.0901 59.9272C81.4138 59.9481 81.7363 59.9853 82.0563 60.0387L81.8705 57.9742C81.8209 57.4127 81.7672 56.8511 81.7177 56.2896C81.7177 56.0418 81.664 55.79 81.6516 55.5422C81.6696 55.2108 81.6502 54.8784 81.5938 54.5513L81.598 54.5306Z" fill="#263238"/>
<path d="M82.5265 60.0387C82.2292 60.2163 81.8039 59.6258 81.4323 59.2584C81.0607 58.8909 79.8633 58.3459 79.2605 59.6093C78.6576 60.8728 79.7931 62.6029 80.7386 62.9125C82.3902 63.4245 82.6173 62.3758 82.6173 62.3758L82.7371 68.9821C84.7685 71.5875 90.4046 71.3852 88.0552 68.6683V66.3189C88.7827 66.4345 89.5205 66.4719 90.256 66.4304C91.4575 66.2446 92.2131 65.2991 92.5764 63.9984C93.1628 61.9092 93.4022 60.2245 92.8861 56.1203C92.3452 51.6156 87.1055 51.5784 84.2813 53.3498C81.4571 55.1211 82.5265 60.0387 82.5265 60.0387Z" fill="#FFA8A7"/>
<path d="M87.8946 72.7224C85.8193 71.5826 84.0391 69.9735 82.6962 68.0236V67.1523C82.6962 67.1523 80.2807 67.6272 79.4508 68.4241C78.6209 69.221 78.625 69.5265 78.625 69.5265L79.8141 69.415C79.8141 69.415 80.6399 69.2086 82.0727 70.5092C83.9142 72.1815 86.8334 73.5482 87.8946 72.7224Z" fill="#37474F"/>
<path d="M88.0386 67.3717V68.6558C88.2481 69.1391 88.3657 69.6572 88.3854 70.1836C88.3424 71.0483 88.1798 71.9028 87.9023 72.7229C87.9023 72.7229 88.3813 72.7229 89.0172 72.0045C90.0866 70.8153 89.8099 68.821 89.715 68.2017C89.62 67.5823 88.9387 67.0621 88.0345 66.835L88.0386 67.3717Z" fill="#37474F"/>
<path d="M80.9783 56.186C80.8957 55.7484 81.1393 55.3231 81.0856 54.8854C81.0319 54.4477 80.7512 54.2454 80.6273 53.8779C80.5427 53.6139 80.5199 53.334 80.5607 53.0598C80.6015 52.7856 80.7048 52.5244 80.8626 52.2965C81.0244 52.071 81.2327 51.8827 81.4735 51.7445C81.7143 51.6064 81.9819 51.5214 82.2582 51.4955C82.4033 51.4742 82.5511 51.4822 82.6929 51.519C82.8348 51.5559 82.9678 51.6209 83.084 51.7102C83.0643 51.3526 83.1792 51.0005 83.4061 50.7234C83.6909 50.3616 84.1 50.1188 84.554 50.0421C84.7923 50.0111 85.0344 50.0237 85.2683 50.0793C85.3343 50.0793 85.8876 50.2527 85.8752 50.327C85.9341 50.0203 86.0836 49.7383 86.3044 49.5175C86.5252 49.2966 86.8072 49.1471 87.1139 49.0883C87.4204 49.041 87.7339 49.0743 88.0235 49.1851C88.3132 49.2959 88.5689 49.4803 88.7655 49.72C89.0136 49.5338 89.306 49.4156 89.6138 49.3772C89.9216 49.3388 90.2341 49.3816 90.5203 49.5012C90.8086 49.6107 91.0674 49.7861 91.276 50.0132C91.3795 50.1257 91.4708 50.2489 91.5485 50.3807C91.6228 50.5045 91.631 50.6614 91.7012 50.7729C92.1554 50.6159 92.644 50.5873 93.1134 50.6903C93.5177 50.7983 93.8789 51.0283 94.1479 51.3489C94.4168 51.6696 94.5804 52.0654 94.6163 52.4823C94.6795 52.9533 94.5598 53.4306 94.2819 53.816C94.0929 54.0531 93.8423 54.2337 93.5575 54.3378C93.2727 54.442 92.9648 54.4657 92.6674 54.4064C92.5992 54.7288 92.4441 55.0264 92.2191 55.2671C91.994 55.5078 91.7074 55.6824 91.3904 55.7721C91.0733 55.8617 90.7377 55.8631 90.4199 55.776C90.1021 55.6888 89.8142 55.5165 89.5872 55.2777C89.4601 55.5229 89.2743 55.7328 89.0463 55.8887C88.6199 56.1408 88.1144 56.2233 87.6301 56.12C87.1605 56.041 86.7274 55.8172 86.3914 55.48C86.367 55.7648 86.252 56.0344 86.0633 56.2491C85.8745 56.4639 85.622 56.6125 85.3426 56.6733C84.7795 56.7779 84.2003 56.7581 83.6456 56.6154C83.9059 56.9527 84.0284 57.3763 83.9883 57.8005C83.9651 58.0115 83.8707 58.2084 83.7205 58.3585C83.5704 58.5087 83.3735 58.6031 83.1625 58.6263C83.2761 59.0692 83.2761 59.5336 83.1625 59.9764C83.1299 60.1565 83.0384 60.3206 82.9024 60.443C82.3862 60.8353 81.7751 59.5429 81.4655 59.2663C81.2755 59.0887 81.2879 58.6841 81.2755 58.4405C81.2632 58.1968 81.2755 57.9574 81.2755 57.7179C81.3104 57.5657 81.3339 57.4111 81.3457 57.2554C81.2466 56.8838 81.0484 56.5494 80.9783 56.186Z" fill="#263238"/>
<path d="M80.619 54.3113L78.8105 53.341C78.868 53.2192 78.9496 53.1104 79.0503 53.021C79.1511 52.9317 79.2689 52.8637 79.3967 52.8213C79.5244 52.7788 79.6595 52.7627 79.7937 52.774C79.9278 52.7852 80.0583 52.8236 80.1772 52.8868C80.4196 53.0222 80.6006 53.2456 80.6829 53.5107C80.7651 53.7759 80.7423 54.0625 80.619 54.3113Z" fill="#263238"/>
<path d="M88.0385 66.3058C88.0385 66.3058 85.3588 65.7649 84.4215 65.2695C83.8702 64.9814 83.4184 64.5339 83.125 63.9854C83.2649 64.5337 83.515 65.0479 83.86 65.4966C84.5454 66.3719 88.0385 67.0202 88.0385 67.0202V66.3058Z" fill="#F28F8F"/>
<path d="M87.8952 59.3692C87.8904 59.4741 87.8548 59.5754 87.793 59.6603C87.7311 59.7453 87.6457 59.8102 87.5473 59.8471C87.4489 59.8839 87.3418 59.8911 87.2394 59.8676C87.1369 59.8442 87.0436 59.7912 86.971 59.7153C86.8984 59.6393 86.8497 59.5437 86.8309 59.4403C86.8121 59.3369 86.8241 59.2303 86.8654 59.1337C86.9066 59.037 86.9753 58.9546 87.063 58.8966C87.1506 58.8387 87.2534 58.8077 87.3585 58.8076C87.4306 58.8092 87.5017 58.825 87.5677 58.8541C87.6337 58.8832 87.6933 58.925 87.7432 58.9772C87.793 59.0293 87.8321 59.0908 87.8582 59.158C87.8843 59.2253 87.8969 59.297 87.8952 59.3692Z" fill="#263238"/>
<path d="M87.3372 57.3542L86.1893 57.99C86.1071 57.8321 86.0891 57.6486 86.1391 57.4777C86.1891 57.3069 86.3033 57.162 86.4577 57.0734C86.5335 57.0323 86.6168 57.007 86.7027 56.9989C86.7885 56.9908 86.8751 57.0002 86.9573 57.0264C87.0394 57.0526 87.1154 57.0952 87.1807 57.1515C87.246 57.2078 87.2992 57.2768 87.3372 57.3542Z" fill="#263238"/>
<path d="M87.7958 63.0771L89.0345 63.5396C89.0084 63.6216 88.9661 63.6976 88.9102 63.763C88.8542 63.8284 88.7858 63.8819 88.7088 63.9204C88.6318 63.9589 88.5479 63.9815 88.462 63.9871C88.3761 63.9926 88.29 63.9808 88.2087 63.9525C88.0381 63.8909 87.8988 63.7642 87.8214 63.6002C87.744 63.4361 87.7348 63.248 87.7958 63.0771Z" fill="#F28F8F"/>
<path d="M92.5429 57.7878L91.4941 56.962C91.5429 56.8911 91.6057 56.831 91.6786 56.7852C91.7515 56.7394 91.833 56.709 91.918 56.6959C92.0031 56.6827 92.09 56.6871 92.1733 56.7087C92.2566 56.7304 92.3346 56.7688 92.4025 56.8217C92.5476 56.9324 92.6436 57.0955 92.6698 57.2761C92.6961 57.4567 92.6505 57.6404 92.5429 57.7878Z" fill="#263238"/>
<path d="M92.2222 59.2166C92.2233 59.2885 92.2102 59.3599 92.1835 59.4267C92.1569 59.4935 92.1173 59.5544 92.067 59.6058C92.0167 59.6573 91.9568 59.6983 91.8906 59.7264C91.8244 59.7546 91.7533 59.7693 91.6813 59.7699C91.5703 59.7731 91.4608 59.7432 91.3669 59.6838C91.273 59.6244 91.1989 59.5383 91.1543 59.4365C91.1097 59.3347 91.0965 59.222 91.1165 59.1126C91.1364 59.0033 91.1886 58.9025 91.2662 58.823C91.3439 58.7436 91.4436 58.6891 91.5524 58.6667C91.6612 58.6443 91.7743 58.6549 91.877 58.6972C91.9798 58.7395 92.0675 58.8116 92.1291 58.9041C92.1906 58.9967 92.223 59.1055 92.2222 59.2166Z" fill="#263238"/>
<path d="M89.4844 58.7051L89.6578 61.9381L91.3465 61.36L89.4844 58.7051Z" fill="#F28F8F"/>
<path d="M100.009 84.1932L99.5962 83.8381C99.5356 83.7989 99.4668 83.7743 99.3951 83.7664C99.3234 83.7586 99.2509 83.7676 99.1833 83.7927L94.7074 85.019C94.4824 85.0946 94.2762 85.2178 94.1031 85.3803C93.9299 85.5427 93.7938 85.7406 93.7041 85.9604L90.4835 95.2465C90.4426 95.3219 90.4263 95.4081 90.4366 95.4932C90.447 95.5782 90.4836 95.658 90.5413 95.7214L90.9542 96.0888C91.0146 96.1282 91.0833 96.1531 91.1549 96.1617C91.2265 96.1703 91.2991 96.1623 91.3671 96.1384L95.8677 94.9286C96.0924 94.8535 96.2982 94.7309 96.4714 94.5692C96.6445 94.4074 96.7808 94.2104 96.871 93.9913L100.092 84.7052C100.17 84.4533 100.129 84.2799 100.009 84.1932Z" fill="#455A64"/>
<path d="M90.8955 95.5932L94.1162 86.3071C94.2064 86.0881 94.3427 85.891 94.5158 85.7293C94.6889 85.5676 94.8948 85.445 95.1195 85.3699L99.5953 84.1312C100.008 84.0197 100.231 84.255 100.091 84.6638L96.8702 93.9499C96.78 94.1689 96.6436 94.366 96.4705 94.5277C96.2974 94.6895 96.0915 94.812 95.8668 94.8872L91.391 96.1052C90.9781 96.2374 90.7552 96.002 90.8955 95.5932Z" fill="#37474F"/>
<path d="M94.6325 85.6255C94.4024 85.8021 94.2241 86.0375 94.1164 86.3068L90.8958 95.5929C90.8588 95.6671 90.8434 95.7502 90.8515 95.8327C90.8595 95.9152 90.8906 95.9938 90.9412 96.0595L90.5283 95.7168C90.4699 95.6539 90.4325 95.5744 90.4214 95.4893C90.4103 95.4042 90.426 95.3177 90.4663 95.242L93.6869 85.9517C93.786 85.6991 93.9498 85.477 94.1618 85.3076L94.6325 85.6255Z" fill="#263238"/>
<path d="M72.043 93.3595L76.2091 88.5823C76.2091 88.5823 87.5886 90.3784 88.8645 90.399C90.1403 90.4197 91.0735 89.214 91.8952 88.1611C92.2316 87.8287 92.6657 87.6131 93.1338 87.5459L92.6879 88.83C92.6342 88.9787 93.2247 89.1769 93.299 89.2016C93.6818 89.3269 94.0813 89.3937 94.484 89.3998C95.385 89.4211 96.2806 89.2552 97.1142 88.9126C97.5607 88.6834 98.0355 88.514 98.5263 88.4089C98.6111 88.389 98.7001 88.3992 98.7782 88.4378C98.902 88.5121 98.9144 88.6814 98.9103 88.8259C98.8566 90.3583 98.2442 91.8181 97.1885 92.9301C96.9607 93.1724 96.7089 93.3909 96.437 93.5825C94.9217 94.6354 93.0471 94.623 91.2882 94.5032C90.6248 94.462 89.96 94.4372 89.2939 94.4289C85.1112 94.3959 73.9795 93.8385 72.043 93.3595Z" fill="#FFA8A7"/>
<path d="M85.8662 90.0391L88.8638 90.3983C88.2775 91.1085 87.844 93.4455 88.3684 94.4158H84.677C84.293 92.7229 84.4458 91.2117 85.8662 90.0391Z" fill="#455A64"/>
<path d="M76.8529 87.7562C75.9487 87.6034 79.6606 88.3673 81.9068 88.8008C83.9135 89.189 85.6848 89.4243 85.8665 90.0395C85.8665 90.0395 84.6774 92.6119 85.0407 94.3131C85.0407 94.3131 84.8095 94.631 82.8771 94.726C80.9448 94.8209 72.8354 94.2718 71.7536 93.6524C70.6718 93.0331 70.2796 92.2486 70.5604 90.5144L76.8529 87.7562Z" fill="#37474F"/>
<path d="M70.552 90.5105C70.5726 90.1843 71.4934 81.7157 72.6165 75.7865C73.3803 71.7896 75.482 70.0059 78.6035 69.5269L79.7059 69.3535C81.6507 70.5922 80.1519 76.6907 78.203 80.0228L77.0469 88.8011L71.9187 93.1365C70.3992 92.831 70.5231 90.9729 70.552 90.5105Z" fill="#37474F"/>
<path d="M112.79 55.5668L111.366 54.741C111.328 54.7227 111.297 54.6941 111.275 54.6584L110.379 52.5031L111.543 51.8301L111.506 51.9333L112.79 55.5668Z" fill="#004E89"/>
<g opacity="0.4">
<path d="M112.79 55.5668L111.366 54.741C111.328 54.7227 111.297 54.6941 111.275 54.6584L110.379 52.5031L111.543 51.8301L111.506 51.9333L112.79 55.5668Z" fill="white"/>
</g>
<path d="M111.367 51.9371L112.721 55.4963C112.741 55.5302 112.769 55.558 112.804 55.5761C112.838 55.5942 112.877 55.602 112.916 55.5985C112.955 55.595 112.992 55.5804 113.022 55.5564C113.053 55.5324 113.076 55.5001 113.089 55.4633L114.518 50.1162L111.367 51.9371Z" fill="#004E89"/>
<path opacity="0.6" d="M111.367 51.9371L112.721 55.4963C112.741 55.5302 112.769 55.558 112.804 55.5761C112.838 55.5942 112.877 55.602 112.916 55.5985C112.955 55.595 112.992 55.5804 113.022 55.5564C113.053 55.5324 113.076 55.5001 113.089 55.4633L114.518 50.1162L111.367 51.9371Z" fill="white"/>
<path d="M133.16 2.32378C133.145 1.99321 133.051 1.67101 132.887 1.38382C132.723 1.09663 132.492 0.852694 132.215 0.672183L131.447 0.226251C131.153 0.0775069 130.828 0 130.499 0C130.17 0 129.845 0.0775069 129.552 0.226251L105.649 14.0542C105.371 14.2345 105.14 14.4783 104.975 14.7655C104.81 15.0527 104.715 15.375 104.699 15.7058V51.6487C104.715 51.9795 104.81 52.3019 104.975 52.589C105.14 52.8762 105.371 53.12 105.649 53.3003L106.417 53.7462C106.711 53.895 107.035 53.9725 107.364 53.9725C107.694 53.9725 108.018 53.895 108.312 53.7462L132.178 39.9513C132.474 39.7625 132.72 39.5052 132.895 39.2012C133.07 38.8972 133.17 38.5553 133.185 38.2047L133.16 2.32378Z" fill="#004E89"/>
<path opacity="0.6" d="M108.344 53.6799L132.156 39.9345C132.449 39.7423 132.693 39.4837 132.868 39.1795C133.043 38.8753 133.144 38.5342 133.163 38.1838V2.40197C133.163 1.75785 132.713 1.49772 132.156 1.81978L108.344 15.5569C108.049 15.7472 107.803 16.0048 107.628 16.3084C107.452 16.6121 107.35 16.9531 107.332 17.3035V53.0977C107.332 53.7418 107.782 54.0019 108.344 53.6799Z" fill="white"/>
<path opacity="0.6" d="M110.965 48.8451L129.546 38.1304C129.768 37.9849 129.953 37.7892 130.086 37.5589C130.219 37.3286 130.295 37.0704 130.31 36.805V7.07628C130.31 6.58905 129.967 6.39086 129.546 6.63447L110.965 17.3698C110.743 17.5153 110.558 17.7111 110.425 17.9413C110.292 18.1716 110.216 18.4299 110.201 18.6953V48.424C110.189 48.8905 110.544 49.097 110.965 48.8451Z" fill="white"/>
<path opacity="0.4" d="M104.678 51.6362C104.694 51.967 104.788 52.2893 104.953 52.5765C105.118 52.8637 105.35 53.1075 105.627 53.2878L106.395 53.7337C106.663 53.8678 106.955 53.944 107.254 53.9575C107.553 53.9711 107.851 53.9215 108.13 53.8121C107.684 53.9814 107.345 53.7254 107.345 53.1845V17.2623C107.354 16.9325 107.45 16.6108 107.622 16.3292L104.954 14.7891C104.785 15.0719 104.69 15.3929 104.678 15.7222V51.6362Z" fill="white"/>
<path opacity="0.8" d="M133.16 2.26984C133.16 1.81152 132.722 1.47708 132.157 1.81565L108.291 15.5941C108.01 15.7665 107.779 16.01 107.622 16.3001L104.959 14.7642C105.117 14.4749 105.348 14.2316 105.628 14.0581L129.551 0.23838C129.845 0.0918823 130.169 0.015625 130.497 0.015625C130.825 0.015625 131.149 0.0918823 131.442 0.23838L132.219 0.684311C132.485 0.860543 132.708 1.0947 132.871 1.36926C133.034 1.64383 133.133 1.95169 133.16 2.26984Z" fill="white"/>
<path d="M129.806 13.1647C130.857 8.71039 128.098 4.24719 123.644 3.19587C119.19 2.14455 114.726 4.90323 113.675 9.35757C112.624 13.8119 115.382 18.2751 119.837 19.3264C124.291 20.3777 128.754 17.6191 129.806 13.1647Z" fill="#263238"/>
<path d="M119.06 13.1421C119.06 13.1421 117.71 12.5847 117.727 11.7465C117.726 11.6388 117.749 11.5323 117.794 11.4347C117.84 11.3371 117.907 11.2509 117.99 11.1825C118.073 11.114 118.17 11.065 118.275 11.039C118.379 11.013 118.488 11.0106 118.594 11.0322C118.961 11.5375 119.396 11.9903 119.886 12.3782C120.398 12.6838 119.473 13.3568 119.06 13.1421Z" fill="#004E89"/>
<path d="M114.654 23.46C112.668 23.8729 111.215 24.4138 110.203 29.2405V48.3867C110.203 48.8656 110.533 49.0638 110.946 48.8367L111.359 48.5972L114.53 33.4067C114.662 33.3489 117.606 30.9293 118.11 27.6509C118.581 24.5707 114.654 23.46 114.654 23.46Z" fill="#FFBDA7"/>
<path d="M126.338 21.6926C127.552 21.61 128.027 21.7422 128.972 22.6753C129.469 23.1633 129.912 23.7032 130.293 24.2856V31.1687L126.528 30.9168L126.338 21.6926Z" fill="#004E89"/>
<path opacity="0.1" d="M126.338 21.6926C127.552 21.61 128.027 21.7422 128.972 22.6753C129.469 23.1633 129.912 23.7032 130.293 24.2856V31.1687L126.528 30.9168L126.338 21.6926Z" fill="black"/>
<path d="M128.973 36.9617L129.386 33.4025C129.898 33.0144 130.212 32.4322 130.625 31.5156C130.975 30.442 130.934 29.2792 130.509 28.233C130.051 27.1595 129.803 26.6392 129.592 26.247C128.767 24.562 127.666 23.0268 126.334 21.7051L123.907 21.8496L118.708 22.4731L114.649 23.4723C117.577 27.6013 114.526 33.4149 114.526 33.4149L116.041 38.3697C116.041 38.3697 114.286 42.156 113.291 44.9348C113.791 45.5914 114.471 46.089 115.248 46.3675L129.258 38.2788C129.146 37.804 129.043 37.3539 128.973 36.9617Z" fill="#004E89"/>
<path opacity="0.05" d="M118.506 32.3955C118.506 32.4863 119.1 33.8696 121.26 34.332C123.419 34.7945 125.211 34.0471 126.173 32.8745C126.173 32.8745 125.348 35.8308 121.305 35.0463C118.63 34.5302 118.506 32.3955 118.506 32.3955Z" fill="black"/>
<path opacity="0.05" d="M117.692 40.2487C118.779 40.4186 119.884 40.4339 120.975 40.2941C121.243 40.2611 121.557 40.1867 121.672 39.939C121.846 39.5633 121.429 39.1958 121.078 38.977C119.982 38.284 118.974 37.4604 118.076 36.5243C117.505 35.9829 117.055 35.3254 116.759 34.5961C116.346 33.4441 116.61 32.1848 116.697 30.9667C116.767 30.0119 116.731 29.0523 116.59 28.1053C116.491 27.2137 116.169 26.3614 115.652 25.6279C116.652 29.3688 114.529 33.4193 114.529 33.4193L116.045 38.3741C116.045 38.3741 115.834 38.82 115.524 39.522C116.191 39.9061 116.928 40.1532 117.692 40.2487Z" fill="black"/>
<path d="M128.973 36.9619C128.775 37.2262 127.544 38.7745 123.936 39.1998C120.327 39.6251 116.045 38.374 116.045 38.374C116.045 38.374 113.947 41.9745 113.089 45.158C112.742 46.4379 112.387 48.0276 112.387 48.0276L129.262 38.2832L128.973 36.9619Z" fill="#37474F"/>
<path d="M114.654 23.4603C113.938 23.4408 113.233 23.6379 112.631 24.026C111.599 24.6742 110.979 25.4711 110.203 28.4316V38.0604C110.203 38.0604 111.248 39.1587 113.614 38.8243C113.548 38.7128 114.852 33.1593 114.852 33.1593C115.83 31.3225 116.254 29.241 116.07 27.1681C115.81 24.4843 114.654 23.4603 114.654 23.4603Z" fill="#004E89"/>
<path opacity="0.1" d="M114.654 23.4603C113.938 23.4408 113.233 23.6379 112.631 24.026C111.599 24.6742 110.979 25.4711 110.203 28.4316V38.0604C110.203 38.0604 111.248 39.1587 113.614 38.8243C113.548 38.7128 114.852 33.1593 114.852 33.1593C115.83 31.3225 116.254 29.241 116.07 27.1681C115.81 24.4843 114.654 23.4603 114.654 23.4603Z" fill="black"/>
<path d="M127.784 8.1543C128.316 8.68694 129.043 10.0867 128.969 14.7607C128.903 18.7121 127.631 19.7155 126.987 19.9839C126.343 20.2522 125.104 20.1077 123.898 19.9178V21.846C123.898 21.846 125.55 23.6999 125.434 24.79C125.319 25.8801 123.663 26.6769 120.558 24.3771C119.043 23.2499 118.671 22.6553 118.671 22.6553L118.609 17.0605C118.609 17.0605 117.903 17.7542 116.693 16.7096C115.694 15.8507 115.347 14.3849 116.115 13.5963C116.315 13.4078 116.556 13.2694 116.819 13.1925C117.083 13.1156 117.36 13.1024 117.63 13.154C117.899 13.2056 118.153 13.3206 118.369 13.4894C118.585 13.6582 118.758 13.876 118.873 14.1248C118.873 14.1248 120.802 14.1785 123.353 12.754C125.905 11.3295 127.623 9.69028 127.784 8.1543Z" fill="#FFBDA7"/>
<path d="M118.712 22.4613L116.086 23.1054C116.086 23.1054 118.997 26.8215 122.973 27.1683C126.949 27.5151 128.035 25.3185 125.091 21.7676L123.91 21.8378L118.712 22.4613Z" fill="#FFBDA7"/>
<path d="M113.461 11.2627C113.461 13.2405 113.151 17.3819 116.483 19.5454C119.493 21.5026 120.963 19.8469 120.963 19.8469C120.701 19.9288 120.424 19.9523 120.151 19.916C119.879 19.8796 119.618 19.7841 119.386 19.6363C118.634 19.0995 118.622 18.2035 118.622 17.035C118.418 17.223 118.175 17.3622 117.909 17.4421C117.644 17.5221 117.364 17.5407 117.09 17.4966C116.817 17.4524 116.557 17.3467 116.33 17.1873C116.103 17.028 115.915 16.8192 115.781 16.5767C115.755 16.5354 115.732 16.4927 115.711 16.4487C114.757 14.6443 113.461 11.2627 113.461 11.2627Z" fill="#263238"/>
<path d="M124.397 13.629C124.399 13.7261 124.372 13.8214 124.319 13.9032C124.267 13.985 124.192 14.0497 124.103 14.0891C124.014 14.1286 123.916 14.1411 123.82 14.1251C123.725 14.1092 123.636 14.0655 123.564 13.9994C123.493 13.9333 123.443 13.8478 123.42 13.7535C123.397 13.6591 123.403 13.5601 123.435 13.4688C123.468 13.3774 123.527 13.2977 123.605 13.2396C123.683 13.1815 123.776 13.1474 123.873 13.1418C124.007 13.1384 124.136 13.1875 124.234 13.2785C124.332 13.3696 124.391 13.4954 124.397 13.629Z" fill="#263238"/>
<path d="M124.468 17.0312L125.79 17.4441C125.767 17.5329 125.726 17.616 125.67 17.6886C125.615 17.7612 125.545 17.8217 125.465 17.8665C125.385 17.9113 125.297 17.9394 125.206 17.9491C125.115 17.9589 125.022 17.95 124.935 17.9231C124.756 17.8652 124.607 17.7393 124.519 17.5725C124.432 17.4058 124.414 17.2114 124.468 17.0312Z" fill="#F0997A"/>
<path d="M128.609 12.2329L127.598 11.5434C127.64 11.4768 127.694 11.4193 127.759 11.3742C127.823 11.3291 127.896 11.2973 127.973 11.2808C128.05 11.2642 128.13 11.2632 128.207 11.2778C128.284 11.2925 128.358 11.3224 128.423 11.3658C128.56 11.4591 128.655 11.601 128.689 11.7623C128.724 11.9237 128.695 12.0921 128.609 12.2329Z" fill="#263238"/>
<path d="M128.387 13.4016C128.393 13.4679 128.385 13.5346 128.365 13.5979C128.344 13.6612 128.311 13.7198 128.268 13.7702C128.224 13.8205 128.171 13.8617 128.112 13.8913C128.052 13.9209 127.987 13.9383 127.921 13.9425C127.787 13.9469 127.656 13.8982 127.558 13.8069C127.46 13.7157 127.402 13.5892 127.396 13.4552C127.391 13.3889 127.398 13.3222 127.419 13.2589C127.439 13.1956 127.472 13.137 127.516 13.0866C127.559 13.0363 127.612 12.9951 127.672 12.9655C127.732 12.9359 127.796 12.9185 127.863 12.9143C127.997 12.9099 128.127 12.9586 128.226 13.0499C128.324 13.1411 128.382 13.2676 128.387 13.4016Z" fill="#263238"/>
<path d="M125.985 12.8857L125.98 16.127L127.554 15.6274L125.985 12.8857Z" fill="#F0997A"/>
<path d="M123.899 19.9095C122.623 19.7526 120.001 19.0176 119.588 17.9854C119.754 18.5078 120.077 18.9663 120.513 19.2984C121.301 19.9631 123.903 20.7022 123.903 20.7022L123.899 19.9095Z" fill="#F0997A"/>
<path d="M118.895 15.7267C119.148 15.7104 119.386 15.5983 119.559 15.413C119.733 15.2278 119.83 14.9835 119.83 14.7296C119.83 14.4757 119.733 14.2313 119.559 14.0461C119.386 13.8609 119.148 13.7487 118.895 13.7324V15.7267Z" fill="#263238"/>
<path d="M83.3833 26.9857L81.8308 24.0665L83.0695 20.4619V18.2529L79.2461 20.4619V22.6709L80.8977 25.5199C80.9242 25.5633 80.963 25.5978 81.0092 25.619L83.3833 26.9857Z" fill="#263238"/>
<path d="M89.8122 6.53477C89.791 6.13773 89.6763 5.75131 89.4776 5.40694C89.2788 5.06256 89.0016 4.76993 88.6685 4.55286L87.7353 4.01196C87.38 3.83266 86.9876 3.73926 86.5896 3.73926C86.1915 3.73926 85.7991 3.83266 85.4438 4.01196L75.5053 9.75538C75.1713 9.9729 74.8933 10.2661 74.6939 10.6112C74.4944 10.9562 74.3792 11.3435 74.3574 11.7414V23.2283C74.3792 23.6262 74.4944 24.0135 74.6939 24.3585C74.8933 24.7036 75.1713 24.9968 75.5053 25.2143L76.4384 25.7552C76.7938 25.9345 77.1862 26.0279 77.5842 26.0279C77.9822 26.0279 78.3747 25.9345 78.73 25.7552L81.6657 24.0582L83.3173 26.8989C83.3412 26.9393 83.3761 26.9721 83.4179 26.9934C83.4597 27.0147 83.5066 27.0238 83.5534 27.0194C83.6001 27.0151 83.6446 26.9976 83.6818 26.969C83.7189 26.9403 83.7472 26.9017 83.7633 26.8577L85.4727 21.8451L88.6685 20.0035C89.0015 19.7853 89.2785 19.4919 89.4772 19.1469C89.6758 18.8019 89.7906 18.415 89.8122 18.0175V6.53477Z" fill="#37474F"/>
<path d="M74.3501 23.2285C74.3718 23.6265 74.4871 24.0137 74.6865 24.3588C74.886 24.7039 75.1639 24.9971 75.4979 25.2146L76.4311 25.7555C76.7543 25.9183 77.1085 26.0106 77.4701 26.0262C77.8317 26.0419 78.1925 25.9806 78.5286 25.8463C77.9877 26.0486 77.5748 25.7472 77.5748 25.0907V13.5874C77.5878 13.1873 77.7045 12.7975 77.9134 12.456L74.6804 10.6104C74.4715 10.9518 74.3548 11.3416 74.3418 11.7417L74.3501 23.2285Z" fill="#263238"/>
<path d="M89.7753 6.20863C89.6431 5.72554 89.1972 5.56864 88.6687 5.87418L78.722 11.6176C78.376 11.8245 78.091 12.1194 77.8962 12.4723L74.6797 10.6143C74.877 10.2632 75.1614 9.96884 75.5055 9.75956L85.4481 4.01201C85.8042 3.83267 86.1973 3.73926 86.596 3.73926C86.9946 3.73926 87.3878 3.83267 87.7438 4.01201L88.677 4.55291C88.9627 4.74 89.2075 4.98326 89.3963 5.26789C89.5851 5.55253 89.714 5.8726 89.7753 6.20863Z" fill="#455A64"/>
<path d="M85.5981 16.6886C86.1906 15.3671 86.4919 13.9336 86.4817 12.4853C86.7727 12.037 87.0162 11.5596 87.2084 11.0608C86.9633 11.3536 86.6863 11.6181 86.3826 11.8494C86.6938 11.4173 86.9118 10.9252 87.0226 10.4043C86.7556 10.7758 86.4451 11.1141 86.0977 11.4118C85.9449 11.2962 85.7587 11.2337 85.5671 11.2337C85.3756 11.2337 85.1893 11.2962 85.0365 11.4118C84.0951 11.9527 83.4056 13.5217 83.6162 14.6117C82.4064 15.2311 81.337 15.0783 80.6185 14.3186C80.2387 15.4086 80.4203 16.445 81.0686 16.6473C80.8697 16.7651 80.6372 16.8131 80.4079 16.7836C80.4079 17.692 80.8745 18.2535 81.5765 18.0223C81.3902 18.206 81.1662 18.3469 80.9199 18.4352C80.9412 18.5819 81.0002 18.7206 81.0913 18.8376C81.1824 18.9547 81.3023 19.046 81.4393 19.1026C81.5764 19.1593 81.7258 19.1793 81.8729 19.1607C82.02 19.1422 82.1597 19.0856 82.2784 18.9967C81.7871 19.8884 81.0351 20.6087 80.123 21.0612C80.5041 21.1452 80.8981 21.1519 81.2818 21.081C81.6654 21.01 82.031 20.8629 82.3568 20.6483C83.7937 19.8225 84.9003 18.3154 85.6064 16.6927" fill="#F5F5F5"/>
<path d="M117.246 85.8078L115.694 82.8886L116.933 79.284V77.0791L113.113 79.284V81.493L114.765 84.3379C114.789 84.3832 114.829 84.4183 114.876 84.437L117.246 85.8078Z" fill="#263238"/>
<path d="M123.674 65.3612C123.653 64.9635 123.538 64.5764 123.34 64.2313C123.141 63.8862 122.863 63.5929 122.53 63.3751L121.597 62.8342C121.242 62.6549 120.849 62.5615 120.451 62.5615C120.053 62.5615 119.661 62.6549 119.305 62.8342L109.363 68.5776C109.028 68.7949 108.75 69.088 108.551 69.4332C108.351 69.7783 108.236 70.1657 108.215 70.5637V82.0547C108.236 82.4527 108.351 82.8401 108.551 83.1852C108.75 83.5303 109.028 83.8235 109.363 84.0407L110.296 84.5775C110.651 84.7587 111.043 84.8532 111.442 84.8532C111.84 84.8532 112.233 84.7587 112.587 84.5775L115.523 82.8805L117.175 85.7212C117.198 85.7619 117.232 85.795 117.274 85.8166C117.315 85.8381 117.362 85.8473 117.409 85.843C117.456 85.8386 117.5 85.8209 117.537 85.792C117.574 85.7631 117.601 85.7242 117.617 85.6799L119.351 80.6756L122.547 78.8341C122.88 78.6163 123.157 78.323 123.356 77.9779C123.555 77.6328 123.669 77.2457 123.69 76.848L123.674 65.3612Z" fill="#37474F"/>
<path d="M108.211 82.0547C108.233 82.4528 108.348 82.8401 108.547 83.1852C108.747 83.5304 109.025 83.8235 109.359 84.0408L110.292 84.5775C110.615 84.7402 110.968 84.8325 111.329 84.8481C111.69 84.8638 112.05 84.8025 112.386 84.6684C111.849 84.8748 111.436 84.5693 111.436 83.9169V72.4259C111.449 72.0272 111.566 71.6387 111.775 71.2987L108.538 69.4365C108.332 69.7778 108.217 70.1657 108.203 70.5637L108.211 82.0547Z" fill="#263238"/>
<path d="M123.637 65.0348C123.505 64.5475 123.059 64.3906 122.53 64.6962L112.584 70.4437C112.237 70.6493 111.951 70.9446 111.758 71.2984L108.537 69.4363C108.733 69.0843 109.018 68.7896 109.363 68.5816L119.306 62.8381C119.661 62.6588 120.053 62.5654 120.451 62.5654C120.849 62.5654 121.242 62.6588 121.597 62.8381L122.534 63.3749C122.821 63.5628 123.066 63.8067 123.256 64.092C123.445 64.3773 123.575 64.698 123.637 65.0348Z" fill="#455A64"/>
<path d="M117.67 70.9309C118.579 70.4065 118.686 70.3487 119.045 70.1629C119.237 70.0498 119.451 69.9794 119.673 69.9564C119.813 69.9435 119.953 69.9833 120.065 70.0679C120.186 70.1641 120.274 70.2954 120.317 70.4436C120.397 70.6931 120.436 70.9538 120.433 71.2158C120.433 71.6823 120.453 71.8227 120.453 73.0325C120.453 74.2423 120.453 74.3868 120.433 74.874C120.429 75.1789 120.39 75.4823 120.317 75.7783C120.26 76.0106 120.176 76.2352 120.065 76.4472C119.96 76.6511 119.828 76.8399 119.673 77.0087C119.489 77.2109 119.278 77.3861 119.045 77.529C118.686 77.7602 118.579 77.8263 117.67 78.3548C116.762 78.8833 116.659 78.937 116.299 79.1228C116.107 79.2358 115.893 79.3062 115.672 79.3292C115.532 79.3429 115.392 79.3031 115.28 79.2177C115.158 79.1227 115.069 78.991 115.028 78.842C114.946 78.5929 114.905 78.3321 114.908 78.0699C114.908 77.6033 114.908 77.4629 114.908 76.2531C114.908 75.0433 114.908 74.8988 114.908 74.4116C114.913 74.1066 114.953 73.8031 115.028 73.5073C115.083 73.2745 115.167 73.0497 115.28 72.8385C115.383 72.6337 115.515 72.4447 115.672 72.2769C115.855 72.0747 116.067 71.8996 116.299 71.7567C116.659 71.5254 116.766 71.4594 117.67 70.9309ZM117.67 70.1051C116.749 70.6377 116.634 70.7079 116.275 70.9309C115.968 71.1203 115.69 71.3525 115.449 71.6204C115.21 71.8815 115.008 72.1731 114.846 72.4875C114.676 72.8133 114.545 73.1585 114.458 73.5156C114.359 73.9046 114.305 74.3035 114.297 74.7048C114.297 75.1961 114.297 75.353 114.297 76.5793C114.297 77.8056 114.297 77.9625 114.297 78.4332C114.296 78.7755 114.351 79.1157 114.458 79.4407C114.526 79.668 114.661 79.8695 114.846 80.0188C115.018 80.1494 115.233 80.2112 115.449 80.1922C115.74 80.1635 116.021 80.0735 116.275 79.9279C116.634 79.7421 116.749 79.6802 117.67 79.1475C118.591 78.6149 118.711 78.5447 119.07 78.3217C119.377 78.1323 119.655 77.9001 119.896 77.6322C120.14 77.3717 120.347 77.0785 120.511 76.761C120.691 76.4371 120.83 76.0916 120.924 75.7329C121.019 75.3433 121.072 74.9446 121.081 74.5437C121.081 74.0524 121.081 73.8955 121.081 72.665C121.081 71.4346 121.081 71.286 121.081 70.8152C121.08 70.4734 121.027 70.1336 120.924 69.8078C120.85 69.5767 120.706 69.3745 120.511 69.2297C120.34 69.0986 120.127 69.0367 119.912 69.0563C119.621 69.0849 119.34 69.175 119.086 69.3206C118.727 69.5064 118.612 69.5683 117.687 70.1009" fill="white"/>
<path d="M117.67 72.3143C116.708 72.8717 115.928 74.3788 115.928 75.6464C115.928 76.914 116.708 77.5168 117.67 76.9635C118.632 76.4102 119.413 74.899 119.413 73.6314C119.413 72.3638 118.636 71.761 117.67 72.3143ZM117.67 76.146C117.047 76.5093 116.539 76.1253 116.539 75.2913C116.545 74.8679 116.651 74.4519 116.847 74.0768C117.044 73.7018 117.326 73.3781 117.67 73.1318C118.298 72.7685 118.802 73.1525 118.802 73.9865C118.796 74.4101 118.691 74.8264 118.494 75.2017C118.298 75.5769 118.015 75.9004 117.67 76.146Z" fill="white"/>
<path d="M119.892 70.9439C119.89 71.0967 119.851 71.2467 119.779 71.3817C119.707 71.5166 119.605 71.6326 119.479 71.7201C119.256 71.8522 119.066 71.7201 119.066 71.4146C119.07 71.2614 119.109 71.1111 119.181 70.9756C119.252 70.8402 119.355 70.7233 119.479 70.6342C119.706 70.5062 119.892 70.6342 119.892 70.9439Z" fill="white"/>
<path d="M54.4146 91.0512L52.8621 88.132L54.1008 84.5274V82.3184L50.2773 84.5274V86.7322L51.9289 89.5813C51.9565 89.6237 51.995 89.658 52.0404 89.6804L54.4146 91.0512Z" fill="#263238"/>
<path d="M60.8478 70.6003C60.8254 70.2025 60.7099 69.8155 60.5105 69.4705C60.3111 69.1255 60.0335 68.8322 59.7 68.6142L58.7668 68.0775C58.4121 67.8963 58.0194 67.8018 57.621 67.8018C57.2227 67.8018 56.83 67.8963 56.4752 68.0775L46.5285 73.8209C46.1954 74.038 45.9182 74.3306 45.7194 74.675C45.5207 75.0194 45.406 75.4058 45.3848 75.8028V87.2938C45.4064 87.6913 45.5212 88.0782 45.7198 88.4232C45.9185 88.7682 46.1955 89.0616 46.5285 89.2798L47.4616 89.8166C47.8164 89.9978 48.2091 90.0923 48.6074 90.0923C49.0058 90.0923 49.3985 89.9978 49.7532 89.8166L52.6889 88.1237L54.3405 90.9645C54.3638 91.0051 54.3982 91.0382 54.4397 91.0598C54.4813 91.0814 54.5281 91.0905 54.5747 91.0862C54.6214 91.0818 54.6657 91.0641 54.7025 91.0352C54.7394 91.0063 54.7671 90.9674 54.7823 90.9232L56.5165 85.9188L59.7082 84.0773C60.0418 83.8593 60.3194 83.566 60.5188 83.221C60.7181 82.8761 60.8337 82.4891 60.8561 82.0913L60.8478 70.6003Z" fill="#37474F"/>
<path d="M45.3848 87.2938C45.4064 87.6914 45.5212 88.0782 45.7198 88.4232C45.9185 88.7682 46.1955 89.0617 46.5285 89.2799L47.4616 89.8166C47.7849 89.9791 48.1388 90.0715 48.5003 90.0879C48.8617 90.1043 49.2225 90.0442 49.5592 89.9116C49.0183 90.1139 48.6095 89.8084 48.6095 89.156V77.665C48.6236 77.267 48.7387 76.8791 48.944 76.5378L45.7192 74.6963C45.514 75.0376 45.3989 75.4255 45.3848 75.8235V87.2938Z" fill="#263238"/>
<path d="M60.81 70.2744C60.6737 69.7871 60.2319 69.6344 59.7034 69.9399L49.7525 75.6834C49.4139 75.8927 49.1362 76.1875 48.9474 76.538L45.7227 74.6965C45.9127 74.3469 46.1901 74.0524 46.5278 73.8418L56.4704 68.0901C56.8265 67.9108 57.2196 67.8174 57.6183 67.8174C58.0169 67.8174 58.4101 67.9108 58.7661 68.0901L59.7034 68.631C59.9883 68.8172 60.2329 69.0585 60.423 69.3407C60.613 69.623 60.7446 69.9404 60.81 70.2744Z" fill="#455A64"/>
<path d="M53.8578 85.5184L55.3319 84.6637V79.7337L56.3641 79.1391L56.4756 77.4256L55.3319 78.0821V77.1407C55.3319 76.7525 55.3938 76.5626 55.6746 76.4016L56.4756 75.9391V74.2256L55.4516 74.816C54.9467 75.0833 54.5286 75.489 54.2463 75.9856C53.9639 76.4822 53.8292 77.0491 53.8578 77.6196V78.9368L53.0898 79.3786V81.0508L53.8578 80.6049V85.5184Z" fill="white"/>
<path d="M165.428 25.4594L163.867 22.5402L165.106 18.9356V16.7266L161.303 18.9562V21.1611L162.954 24.0101C162.981 24.0535 163.02 24.088 163.066 24.1092L165.428 25.4594Z" fill="#263238"/>
<path d="M177.93 5.59019C177.91 5.19012 177.796 4.80044 177.597 4.45258C177.398 4.10473 177.121 3.80844 176.786 3.58763L175.841 3.04261C175.487 2.85808 175.094 2.76172 174.695 2.76172C174.296 2.76172 173.903 2.85808 173.549 3.04261L157.525 12.3741C157.191 12.5963 156.913 12.8935 156.715 13.2419C156.516 13.5903 156.402 13.9803 156.381 14.3808V21.652C156.401 22.0526 156.515 22.4429 156.714 22.7914C156.913 23.1399 157.19 23.437 157.525 23.6587L158.454 24.2037C158.808 24.3849 159.2 24.4794 159.597 24.4794C159.995 24.4794 160.387 24.3849 160.741 24.2037L163.673 22.4901L165.324 25.3598C165.347 25.4004 165.382 25.4335 165.423 25.4551C165.465 25.4767 165.512 25.4859 165.558 25.4815C165.605 25.4772 165.649 25.4595 165.686 25.4306C165.723 25.4017 165.751 25.3628 165.766 25.3185L167.496 20.2646L176.782 14.868C177.116 14.6472 177.394 14.3509 177.593 14.0031C177.791 13.6552 177.906 13.2655 177.926 12.8655L177.93 5.59019Z" fill="#37474F"/>
<path d="M156.396 21.4785C156.418 21.8755 156.532 22.2619 156.731 22.6063C156.93 22.9507 157.207 23.2433 157.54 23.4604L158.473 24.0013C158.797 24.1641 159.151 24.2564 159.512 24.272C159.874 24.2877 160.235 24.2264 160.571 24.0921C160.03 24.2986 159.621 23.993 159.621 23.3365V16.1273C159.635 15.7279 159.75 15.3385 159.956 14.996L156.731 13.1338C156.525 13.4763 156.41 13.8657 156.396 14.2651V21.4785Z" fill="#263238"/>
<path d="M177.906 5.15629C177.77 4.66494 177.328 4.50804 176.8 4.81358L160.771 14.1492C160.424 14.3593 160.14 14.6569 159.945 15.0122L156.729 13.1335C156.917 12.7806 157.195 12.4831 157.534 12.2705L173.562 2.93489C173.917 2.75367 174.31 2.65918 174.708 2.65918C175.107 2.65918 175.499 2.75367 175.854 2.93489L176.787 3.47992C177.077 3.66927 177.326 3.91543 177.518 4.20355C177.711 4.49167 177.843 4.81577 177.906 5.15629Z" fill="#455A64"/>
<path d="M164.693 13.7784C164.708 13.7663 164.727 13.7598 164.747 13.7598C164.766 13.7598 164.785 13.7663 164.8 13.7784C164.817 13.7969 164.829 13.8185 164.837 13.8419C164.845 13.8653 164.848 13.89 164.846 13.9146V19.4681C164.844 19.5327 164.829 19.5961 164.8 19.6539C164.779 19.7082 164.742 19.7544 164.693 19.7861L164.243 20.0462C164.228 20.059 164.209 20.066 164.189 20.066C164.17 20.066 164.151 20.059 164.136 20.0462C164.119 20.0276 164.107 20.006 164.099 19.9826C164.091 19.9592 164.088 19.9345 164.09 19.9099V17.6431L162.406 18.6134V20.8844C162.404 20.9502 162.388 21.0149 162.36 21.0743C162.338 21.1269 162.301 21.1715 162.253 21.2023L161.803 21.4624C161.788 21.4752 161.769 21.4823 161.749 21.4823C161.729 21.4823 161.71 21.4752 161.695 21.4624C161.679 21.4433 161.667 21.4209 161.66 21.3967C161.652 21.3725 161.651 21.347 161.654 21.322V15.7685C161.653 15.7029 161.668 15.638 161.695 15.5786C161.719 15.5258 161.756 15.4803 161.803 15.4465L162.253 15.1864C162.268 15.1743 162.287 15.1677 162.306 15.1677C162.326 15.1677 162.345 15.1743 162.36 15.1864C162.376 15.2049 162.389 15.2265 162.397 15.2499C162.404 15.2733 162.407 15.298 162.406 15.3226V17.5316L164.09 16.5613V14.3523C164.091 14.2864 164.106 14.2215 164.136 14.1624C164.158 14.1088 164.195 14.0629 164.243 14.0302L164.693 13.7784Z" fill="#FAFAFA"/>
<path d="M165.518 17.081C165.519 16.7594 165.55 16.4386 165.613 16.1231C165.673 15.8146 165.764 15.5131 165.885 15.223C165.991 14.9591 166.13 14.7095 166.298 14.4797C166.454 14.2774 166.646 14.1053 166.864 13.9719C167.031 13.8624 167.23 13.8103 167.429 13.8232C167.596 13.8426 167.75 13.9219 167.863 14.0462C167.996 14.2007 168.091 14.3846 168.139 14.583C168.209 14.8371 168.242 15.0998 168.239 15.3633V15.7515C168.237 15.816 168.222 15.8794 168.193 15.9373C168.172 15.9915 168.135 16.0377 168.086 16.0694L166.224 17.1429C166.219 17.2515 166.237 17.3599 166.277 17.4609C166.304 17.5323 166.353 17.5931 166.418 17.6343C166.481 17.6686 166.554 17.6802 166.624 17.6673C166.709 17.6564 166.791 17.6268 166.864 17.5806C166.972 17.522 167.071 17.4467 167.157 17.3576C167.227 17.2827 167.288 17.1995 167.338 17.1099C167.368 17.0561 167.403 17.0049 167.442 16.9571C167.482 16.9236 167.53 16.9008 167.582 16.8911L168.028 16.6351C168.044 16.6227 168.064 16.616 168.084 16.616C168.104 16.616 168.124 16.6227 168.139 16.6351C168.156 16.654 168.169 16.6764 168.176 16.7007C168.183 16.7249 168.185 16.7505 168.181 16.7755C168.167 16.8984 168.138 17.0191 168.094 17.1347C168.03 17.3117 167.949 17.4819 167.85 17.6425C167.733 17.8372 167.594 18.0186 167.438 18.1834C167.281 18.3616 167.095 18.5123 166.888 18.6294C166.72 18.7386 166.523 18.7947 166.323 18.7904C166.161 18.7696 166.014 18.6884 165.91 18.5633C165.777 18.3933 165.684 18.1958 165.637 17.9852C165.56 17.69 165.52 17.3862 165.518 17.081ZM166.884 15.0165C166.78 15.0774 166.686 15.1556 166.608 15.2477C166.533 15.3405 166.469 15.4417 166.418 15.5491C166.365 15.6528 166.325 15.7623 166.298 15.8753C166.272 15.9742 166.254 16.075 166.244 16.1767L167.504 15.4501C167.496 15.3666 167.482 15.2838 167.462 15.2023C167.446 15.129 167.412 15.0609 167.363 15.0041C167.339 14.9786 167.311 14.9581 167.279 14.9439C167.247 14.9297 167.212 14.9221 167.177 14.9215C167.077 14.9246 166.979 14.953 166.893 15.0041L166.884 15.0165Z" fill="#FAFAFA"/>
<path d="M169.602 16.7345C169.601 16.799 169.585 16.8625 169.556 16.9203C169.535 16.9746 169.498 17.0208 169.449 17.0525L169.036 17.2961C169.021 17.3089 169.002 17.3159 168.982 17.3159C168.963 17.3159 168.944 17.3089 168.929 17.2961C168.913 17.2775 168.9 17.2559 168.892 17.2325C168.885 17.2091 168.881 17.1844 168.883 17.1598V11.5237C168.885 11.4579 168.9 11.3931 168.929 11.3338C168.95 11.2807 168.987 11.2357 169.036 11.2058L169.449 10.9581C169.464 10.946 169.483 10.9395 169.503 10.9395C169.522 10.9395 169.541 10.946 169.556 10.9581C169.573 10.9773 169.585 10.9996 169.593 11.0237C169.601 11.0478 169.604 11.0732 169.602 11.0985V16.7345Z" fill="#FAFAFA"/>
<path d="M171.096 15.8712C171.094 15.9357 171.079 15.9992 171.05 16.057C171.029 16.11 170.993 16.1559 170.947 16.1891L170.534 16.4327C170.519 16.4455 170.5 16.4526 170.48 16.4526C170.461 16.4526 170.442 16.4455 170.427 16.4327C170.411 16.4142 170.398 16.3926 170.39 16.3692C170.383 16.3458 170.38 16.3211 170.381 16.2965V10.6521C170.383 10.5863 170.398 10.5215 170.427 10.4622C170.448 10.4091 170.485 10.3641 170.534 10.3342L170.947 10.0865C170.962 10.0747 170.98 10.0684 170.999 10.0684C171.017 10.0684 171.036 10.0747 171.05 10.0865C171.067 10.105 171.079 10.1266 171.087 10.15C171.094 10.1734 171.098 10.1981 171.096 10.2227V15.8712Z" fill="#FAFAFA"/>
<path d="M173.145 10.3629C173.312 10.2588 173.502 10.1991 173.698 10.1895C173.857 10.1891 174.01 10.2446 174.132 10.3464C174.259 10.4596 174.358 10.601 174.421 10.7593C174.498 10.9725 174.54 11.1971 174.545 11.424C174.545 11.4736 174.545 11.5396 174.545 11.6181V12.097C174.545 12.1755 174.545 12.2416 174.545 12.2952C174.531 12.5743 174.489 12.8511 174.417 13.121C174.349 13.3851 174.254 13.6411 174.132 13.8849C174.014 14.1177 173.868 14.3354 173.698 14.5332C173.543 14.7205 173.356 14.8786 173.145 14.9997C172.98 15.1074 172.789 15.1674 172.592 15.1731C172.441 15.1731 172.295 15.1205 172.179 15.0245C172.048 14.9149 171.948 14.7724 171.89 14.6116C171.813 14.398 171.77 14.1737 171.762 13.9468C171.762 13.8973 171.762 13.8354 171.762 13.761C171.762 13.6867 171.762 13.6041 171.762 13.5257C171.762 13.4472 171.762 13.3646 171.762 13.2821C171.762 13.1995 171.762 13.1334 171.762 13.0797C171.771 12.8007 171.813 12.5236 171.886 12.2539C171.957 11.9872 172.055 11.7285 172.179 11.4818C172.288 11.2479 172.427 11.0287 172.592 10.8294C172.749 10.6443 172.936 10.4866 173.145 10.3629ZM173.822 11.9071C173.818 11.7658 173.79 11.6261 173.74 11.4942C173.709 11.4155 173.652 11.3498 173.578 11.3084C173.515 11.2752 173.442 11.2664 173.372 11.2836C173.293 11.3054 173.216 11.3373 173.145 11.3786C173.064 11.4273 172.988 11.484 172.918 11.5479C172.837 11.6254 172.767 11.7145 172.711 11.8121C172.64 11.9276 172.586 12.0527 172.55 12.1838C172.505 12.3424 172.478 12.506 172.472 12.671C172.472 12.7205 172.472 12.7783 172.472 12.8485V13.2614C172.472 13.333 172.472 13.3867 172.472 13.4225C172.472 13.5638 172.498 13.704 172.55 13.8354C172.58 13.9158 172.637 13.9832 172.711 14.0253C172.778 14.0483 172.851 14.0483 172.918 14.0253C172.998 14.0052 173.074 13.9731 173.145 13.9303C173.227 13.883 173.303 13.8262 173.372 13.761C173.452 13.684 173.522 13.5965 173.578 13.5009C173.648 13.3847 173.703 13.2598 173.74 13.1293C173.784 12.9703 173.812 12.807 173.822 12.6421C173.822 12.5967 173.822 12.543 173.822 12.4687V12.0558C173.826 12.0062 173.822 11.936 173.822 11.9071Z" fill="#FAFAFA"/>
<path d="M175.794 12.1672C175.809 12.1544 175.828 12.1474 175.848 12.1474C175.868 12.1474 175.887 12.1544 175.902 12.1672C175.917 12.1861 175.929 12.2078 175.936 12.2312C175.943 12.2546 175.945 12.2791 175.943 12.3034V13.059C175.944 13.1247 175.93 13.1896 175.902 13.249C175.878 13.3017 175.841 13.3473 175.794 13.3811L175.315 13.6577C175.3 13.6705 175.281 13.6776 175.262 13.6776C175.242 13.6776 175.223 13.6705 175.208 13.6577C175.192 13.6392 175.179 13.6176 175.172 13.5942C175.164 13.5708 175.161 13.5461 175.163 13.5215V12.7618C175.163 12.6959 175.179 12.631 175.208 12.5718C175.23 12.5183 175.268 12.4723 175.315 12.4397L175.794 12.1672ZM175.918 11.3414C175.917 11.4072 175.901 11.472 175.873 11.5313C175.852 11.5845 175.814 11.6294 175.765 11.6593L175.353 11.9071C175.338 11.9188 175.32 11.9252 175.301 11.9252C175.282 11.9252 175.264 11.9188 175.249 11.9071C175.233 11.8879 175.22 11.8656 175.212 11.8415C175.205 11.8173 175.202 11.7919 175.204 11.7667V7.95561C175.205 7.88971 175.22 7.82481 175.249 7.76568C175.27 7.71265 175.306 7.66678 175.353 7.63355L175.765 7.38994C175.78 7.37715 175.799 7.37012 175.819 7.37012C175.839 7.37012 175.858 7.37715 175.873 7.38994C175.889 7.4085 175.901 7.43011 175.909 7.45351C175.917 7.4769 175.92 7.50161 175.918 7.5262V11.3414Z" fill="#FAFAFA"/>
<path d="M168.129 53.499C171.081 53.499 172.563 54.4776 173.798 57.1738C174.979 59.7544 178.753 67.1329 178.555 68.9456C178.356 70.7582 170.829 78.467 170.829 78.467L168.678 75.8988L173.364 68.1941L168.785 61.7033L168.129 53.499Z" fill="#FFCDCC"/>
<path d="M168.38 53.5032C168.38 53.5032 171.27 53.2059 172.629 54.9153C173.987 56.6247 175.304 60.1096 175.304 60.1096C175.304 60.1096 173.958 63.9826 170.382 64.4615C166.807 64.9405 168.38 53.5032 168.38 53.5032Z" fill="#455A64"/>
<path d="M160.916 132.916C160.916 132.916 161.251 133.915 161.432 134.786C161.577 135.48 161.779 136.64 161.535 137.161C161.292 137.681 160.322 138.019 158.827 138.007C157.861 138.007 156.349 138.647 155.317 139.213C154.285 139.778 152.014 140.039 150.903 139.902C149.574 139.749 148.199 138.99 147.984 138.449C147.769 137.908 147.571 137.165 151.188 136.033C151.217 136.033 155.544 134.638 157.06 132.994L160.916 132.916Z" fill="#263238"/>
<path d="M160.917 131.677L157.06 131.755V132.04C157.063 132.373 156.985 132.701 156.833 132.998C156.681 133.294 156.46 133.549 156.189 133.741C154.314 135.042 151.234 136.037 151.189 136.045L150.611 136.235C149.987 136.731 150.516 137.573 152.002 137.705C153.488 137.837 158.117 136.305 159.141 135.818C159.678 135.578 160.132 135.185 160.448 134.689C160.764 134.193 160.927 133.615 160.917 133.027C160.912 132.527 160.917 131.677 160.917 131.677Z" fill="#FFCDCC"/>
<path d="M171.082 127.321C171.355 127.432 171.408 127.948 171.421 128.972C171.421 129.749 171.565 131.107 170.632 131.351C169.699 131.594 168.353 131.425 167.783 130.678C167.069 129.749 166.59 128.931 165.566 127.787C164.678 126.796 163.712 125.872 163.381 124.505C163.08 123.266 163.381 122.75 164.232 122.42C165.083 122.089 165.884 122.358 167.056 123.332C167.386 123.553 167.739 123.737 168.109 123.881C168.894 124.125 170.81 127.213 171.082 127.321Z" fill="#263238"/>
<path d="M171.105 126.372L171.072 127.631C171.072 127.631 170.213 129.283 167.835 127.631C167.781 127.507 167.57 125.075 167.57 125.075L171.105 126.372Z" fill="#FFCDCC"/>
<path d="M168.108 123.886C167.737 123.743 167.384 123.559 167.055 123.337C166.093 123.035 164.074 123.386 164.991 124.753C165.75 125.889 166.718 126.87 167.844 127.643C168.922 128.163 169.297 127.519 169.297 127.519L168.917 124.571C168.705 124.283 168.428 124.048 168.108 123.886Z" fill="#FFCDCC"/>
<path d="M173.365 109.216C173.365 105.066 172.436 103.237 172.436 103.237C172.436 103.237 172.894 97.5265 173.365 92.1836C174.488 79.4787 173.418 78.8759 171.618 74.5281C171.618 74.5281 156.18 72.4636 155.185 79.0699C153.009 93.5875 153.727 103.559 153.872 106.507C154.016 109.455 154.367 111.185 155.259 117.354C155.932 122.049 157.08 132.024 157.08 132.024C159.219 133.238 160.796 134.964 160.936 131.88C161.077 128.795 163.137 119.047 163.092 115.653C163.053 113.137 162.68 110.638 161.985 108.221C161.985 108.221 163.372 94.6899 163.728 92.5305C163.728 92.5305 164.12 96.8452 164.264 99.7892C164.409 102.733 165.218 105.57 165.916 111.049C166.535 115.801 167.567 125.732 167.567 125.732C169.706 126.941 170.916 129.06 171.11 126.363C171.304 123.667 173.365 113.27 173.365 109.216Z" fill="#FFCDCC"/>
<path opacity="0.1" d="M163.707 92.5386L164.595 86.9603C166.378 86.7499 168.095 86.1615 169.632 85.2344C169.632 85.2344 168.526 86.886 165.59 87.5631L164.694 94.0291L164.331 100.801L163.707 92.5386Z" fill="black"/>
<path d="M161.221 50.7945L161.819 57.0293L167.389 56.6824L166.943 49.7705L161.221 50.7945Z" fill="#FFCDCC"/>
<path d="M172.394 56.1416C171.829 54.49 170.677 53.5238 168.129 53.499L167.188 53.5279C167.01 54.4446 164.264 55.1795 161.556 54.2505C161.172 54.3455 160.123 54.5354 159.533 54.6138L158.236 54.7997C156.262 55.4355 155.391 58.8048 155.201 64.1436C155.135 65.9603 155.342 67.9753 155.721 71.7285C155.511 77.1788 155.164 81.7619 155.164 81.7619C155.164 81.7619 158.442 83.1452 165.14 82.2781C171.135 81.506 172.985 78.4629 172.774 78.9047C172.242 76.5782 171.507 74.3027 170.578 72.1042L170.165 69.9076C173.323 62.2855 173.237 58.5942 172.394 56.1416Z" fill="#004E89"/>
<path d="M170.165 69.9072C170.165 69.9072 169.793 72.4837 164.995 72.9668C157.976 73.677 155.721 71.7281 155.721 71.7281L155.635 73.7926C154.85 78.0868 152.716 88.7024 152.848 93.2401C152.848 93.2401 154.342 93.8099 155.589 91.2211C155.589 91.2211 155.42 93.2401 158.393 94.3426C160.85 95.251 163.467 94.0164 164.235 93.843L164.306 93.2773C164.306 93.2773 169.999 94.7225 173.625 91.5184C173.625 91.5184 174.892 84.3876 173.625 79.3048C172.82 76.0759 171.325 73.5573 170.573 72.1121L170.165 69.9072Z" fill="#455A64"/>
<path d="M170.147 93.2773C168.496 93.4548 166.493 92.8644 166.402 92.1913C166.311 91.5183 167.538 86.2456 167.538 86.2456C169.329 85.7826 170.908 84.7186 172.009 83.2314C169.326 85.139 165.684 84.8583 165.684 84.8583L164.305 93.2773C166.229 93.7014 168.223 93.7014 170.147 93.2773Z" fill="#37474F"/>
<path d="M170.165 69.9072C170.165 69.9072 169.595 71.6868 166.404 72.4837C160.148 74.0445 155.722 71.7281 155.722 71.7281C155.628 72.4481 155.591 73.1742 155.61 73.9C155.61 73.9 160.602 76.3154 165.495 75.1387C170.388 73.9619 170.632 72.2855 170.632 72.2855C170.632 72.2855 170.38 70.7124 170.165 69.9072Z" fill="#37474F"/>
<path d="M159.532 54.6133C156.918 54.9353 154.945 55.5464 153.706 57.9165C151.419 62.3097 149.255 66.2075 147.731 67.826C146.105 69.5396 139.775 71.6949 138.272 71.4554C136.769 71.2159 135.357 69.6428 134.585 70.0846C133.813 70.5264 135.596 71.6536 135.505 72.0252C135.415 72.3968 132.615 71.9922 131.319 71.1003C130.022 70.2085 129.279 72.7519 130.943 74.6926C132.607 76.6332 135.679 77.1245 139.081 76.4556C142.483 75.7867 148.842 74.2384 151.307 71.9715C153.745 69.788 155.85 67.2606 157.558 64.4692C161.824 59.2254 159.532 54.6133 159.532 54.6133Z" fill="#FFCDCC"/>
<path d="M159.937 54.5562C159.937 54.5562 156.716 54.3167 155.163 55.8734C153.611 57.43 152.207 60.246 152.207 60.246C152.207 60.246 153.132 63.223 157.575 64.4823C158.693 63.6723 159.525 62.5289 159.953 61.2163C160.746 58.8958 160.506 55.4398 159.937 54.5562Z" fill="#455A64"/>
<path d="M154.09 38.8119C154.043 38.5192 154.043 38.2209 154.09 37.9282C154.159 37.5486 154.309 37.1885 154.531 36.873C154.753 36.5575 155.041 36.2942 155.375 36.1016C155.709 35.9089 156.082 35.7915 156.466 35.7576C156.85 35.7236 157.237 35.774 157.6 35.905C157.493 35.3327 157.58 34.741 157.848 34.224C158.116 33.707 158.549 33.2944 159.078 33.0519C159.491 32.8966 159.93 32.8253 160.37 32.8423C160.811 32.8593 161.243 32.9643 161.642 33.151C162.121 33.3189 162.519 33.6609 162.757 34.1089C163.04 33.6375 163.455 33.2594 163.951 33.0214C164.446 32.7833 165.001 32.6958 165.545 32.7696C166.09 32.8434 166.602 33.0753 167.016 33.4367C167.43 33.798 167.73 34.2729 167.877 34.8026C168.723 34.6127 169.921 34.9884 170.301 35.8307C170.714 36.7886 170.206 37.9737 170.404 38.9811C170.532 39.6294 170.817 40.2405 170.928 40.897C171.052 41.6328 171.122 42.3766 171.139 43.1225C171.259 46.1986 164.12 48.197 164.256 50.307L160.449 45.6742C160.449 45.4843 159.912 45.0012 159.792 44.8484C159.561 44.5429 159.359 44.2167 159.152 43.8946C158.475 42.8665 157.608 42.3256 156.526 41.7971C155.781 41.4532 155.136 40.9245 154.652 40.2611C154.353 39.8288 154.161 39.3323 154.09 38.8119Z" fill="#263238"/>
<path d="M157.093 43.957C157.093 43.957 155.854 45.7903 156.019 45.9844C156.308 46.1761 156.628 46.3158 156.965 46.3973L157.093 43.957Z" fill="#F28F8F"/>
<path d="M160.862 38.1512C159.66 38.7581 157.587 39.8853 157.055 44.2249C156.51 48.6801 157.517 50.2284 158.136 50.8313C158.549 51.2442 160.705 51.368 161.828 51.0253C163.236 50.6124 166.279 49.1177 167.707 46.8179C169.384 44.1134 169.731 40.5047 167.794 39.0926C165.065 37.0859 161.873 37.635 160.862 38.1512Z" fill="#FFCDCC"/>
<path d="M160.333 38.0188C159.826 38.2053 159.354 38.4761 158.937 38.8198C158.729 38.9939 158.562 39.2108 158.446 39.4557C158.352 39.6828 158.316 39.9298 158.342 40.1741C158.378 40.5079 158.5 40.8264 158.697 41.0981C158.894 41.3698 159.159 41.5851 159.465 41.7225C159.304 41.9432 159.193 42.1967 159.141 42.4651C159.089 42.7334 159.097 43.01 159.164 43.275C159.383 43.8903 159.762 44.4361 160.262 44.8564C160.286 44.8864 160.317 44.9093 160.353 44.9225C160.388 44.9269 160.424 44.924 160.458 44.9141C160.492 44.9041 160.524 44.8873 160.551 44.8647C161.303 44.3609 161.769 43.4897 162.831 43.8407C164.23 44.299 164.102 46.1281 163.004 47.0654C162.72 47.3335 162.366 47.5174 161.984 47.5969C161.601 47.6763 161.204 47.6482 160.836 47.5155C160.836 47.5155 160.873 49.7658 162.831 50.6535C162.831 50.6535 165.002 51.3513 167.005 50.7072C167.74 49.7699 168.979 48.5725 169.994 47.5031C173.347 43.9811 173.541 38.8611 168.595 37.2425C168.425 37.1889 168.252 37.1352 168.079 37.0898C165.681 36.472 163.142 36.7115 160.902 37.7669C160.712 37.8578 160.522 37.9486 160.333 38.0188Z" fill="#263238"/>
<path d="M160.175 46.426C160.046 46.3816 159.927 46.3119 159.824 46.2209C159.722 46.13 159.639 46.0197 159.58 45.8963C159.521 45.773 159.487 45.6392 159.48 45.5026C159.473 45.366 159.493 45.2293 159.539 45.1006C159.638 44.8405 159.834 44.6294 160.087 44.5128C160.339 44.3962 160.628 44.3834 160.89 44.4771L160.175 46.426Z" fill="#263238"/>
</svg>
